%TF.GenerationSoftware,Altium Limited,Altium Designer,25.4.2 (15)*%
G04 Layer_Physical_Order=2*
G04 Layer_Color=16711680*
%FSLAX45Y45*%
%MOMM*%
%TF.SameCoordinates,8E466B79-A9E7-4DE5-A807-E3C68754EB8E*%
%TF.FilePolarity,Positive*%
%TF.FileFunction,Copper,L2,Bot,Signal*%
%TF.Part,Single*%
G01*
G75*
%TA.AperFunction,Conductor*%
%ADD70C,0.25400*%
%ADD71C,0.50000*%
%ADD72C,1.20000*%
%ADD73C,1.00000*%
%ADD74C,2.00000*%
%ADD77C,1.50000*%
%ADD78C,0.30000*%
%TA.AperFunction,ComponentPad*%
%ADD79C,1.03000*%
%ADD80C,1.03500*%
%ADD81C,1.32800*%
%ADD82R,1.32800X1.32800*%
%ADD83C,1.70000*%
%ADD84C,2.25000*%
%ADD85O,1.80000X0.90000*%
%ADD86C,2.70000*%
%ADD87R,1.50800X1.50800*%
%ADD88C,1.50800*%
%ADD89C,3.00000*%
%ADD90O,2.00000X1.50000*%
%ADD91C,0.90000*%
%ADD92R,1.39800X1.39800*%
%ADD93C,1.39800*%
%ADD94C,1.53000*%
%ADD95C,2.44500*%
%ADD96C,3.25000*%
%ADD97C,2.20000*%
%ADD98C,1.40000*%
%ADD99O,1.65000X3.30000*%
%ADD100C,1.30800*%
%ADD101C,1.80000*%
%ADD102C,1.95000*%
%ADD103C,3.75000*%
%ADD104R,1.80000X1.80000*%
%TA.AperFunction,ViaPad*%
%ADD105C,0.45000*%
%ADD106C,0.80000*%
G36*
X14088000Y19134396D02*
X14942476D01*
X14960001Y19116000D01*
Y896000D01*
X14320137D01*
Y3427497D01*
X14320137Y3427499D01*
X14318669Y3438646D01*
X14317203Y3449793D01*
X14308597Y3470567D01*
X14294908Y3488407D01*
X14294907Y3488408D01*
X14017139Y3766177D01*
Y6416322D01*
X14146407Y6545591D01*
X14146407Y6545591D01*
X14218678Y6617863D01*
X14527002D01*
X14549297Y6620798D01*
X14557901Y6624362D01*
X14570070Y6629403D01*
X14587910Y6643092D01*
X14680910Y6736091D01*
X14694598Y6753931D01*
X14699638Y6766101D01*
X14703203Y6774706D01*
X14706139Y6796999D01*
Y10621000D01*
Y13177901D01*
Y15406322D01*
X14860909Y15561092D01*
X14860909Y15561093D01*
X14874599Y15578934D01*
X14883203Y15599707D01*
X14886137Y15622002D01*
X14886137Y15622003D01*
Y18852995D01*
X14886137Y18852998D01*
X14884669Y18864145D01*
X14883203Y18875291D01*
X14874599Y18896066D01*
X14860909Y18913905D01*
X14702905Y19071909D01*
X14685066Y19085599D01*
X14672896Y19090639D01*
X14664291Y19094203D01*
X14641998Y19097137D01*
X12827000D01*
X12804706Y19094203D01*
X12783932Y19085597D01*
X12766092Y19071909D01*
X12752404Y19054070D01*
X12743798Y19033295D01*
X12740863Y19011002D01*
X12743798Y18988707D01*
X12752404Y18967934D01*
X12766092Y18950093D01*
X12783932Y18936404D01*
X12804706Y18927798D01*
X12827000Y18924864D01*
X14606319D01*
X14713864Y18817319D01*
Y15657680D01*
X14559093Y15502908D01*
X14545404Y15485069D01*
X14540364Y15472900D01*
X14536800Y15464294D01*
X14533865Y15442001D01*
Y13238051D01*
X11301052D01*
Y13848000D01*
X11298461Y13867682D01*
X11290863Y13886024D01*
X11278778Y13901775D01*
X11263027Y13913860D01*
X11244685Y13921458D01*
X11225002Y13924049D01*
X11205318Y13921458D01*
X11186976Y13913860D01*
X11171226Y13901775D01*
X11169393Y13899387D01*
X10929286D01*
X10883387Y13945285D01*
Y14576711D01*
X10879476Y14596376D01*
X10868336Y14613046D01*
X10839047Y14642336D01*
X10822376Y14653476D01*
X10802710Y14657387D01*
X10348730D01*
X10316781Y14689336D01*
X10300110Y14700476D01*
X10280445Y14704387D01*
X9612285D01*
X9610387Y14706285D01*
Y14739529D01*
X9606476Y14759195D01*
X9595336Y14775867D01*
X9558189Y14813014D01*
X9541518Y14824153D01*
X9521852Y14828065D01*
X9410608D01*
X9386387Y14852284D01*
Y15072623D01*
X9387682Y15074289D01*
X9411788Y15087502D01*
X9418919Y15084547D01*
X9437975D01*
X9455580Y15091840D01*
X9455800Y15092059D01*
X9460860Y15090524D01*
X9469191Y15063777D01*
X9468750Y15061588D01*
X9462099Y15045531D01*
Y15026476D01*
X9469391Y15008868D01*
X9482866Y14995395D01*
X9500471Y14988103D01*
X9519527D01*
X9536551Y14995154D01*
X9941104D01*
X9944866Y14991393D01*
X9962472Y14984100D01*
X9981527D01*
X9999132Y14991393D01*
X10012607Y15004866D01*
X10019899Y15022472D01*
Y15041527D01*
X10012607Y15059132D01*
X9999132Y15072607D01*
X9981527Y15079900D01*
X9962472D01*
X9945447Y15072847D01*
X9560376D01*
X9556576Y15077339D01*
X9568358Y15102739D01*
X9896586D01*
X9898400Y15103101D01*
X9915528D01*
X9933133Y15110393D01*
X9946607Y15123866D01*
X9953900Y15141472D01*
Y15160529D01*
X9946607Y15178133D01*
X9933133Y15191608D01*
X9915528Y15198900D01*
X9896472D01*
X9878867Y15191608D01*
X9867692Y15180432D01*
X9527995D01*
X9505847Y15199281D01*
Y15816995D01*
X9519472Y15826100D01*
X9538528D01*
X9556133Y15833392D01*
X9569607Y15846867D01*
X9576900Y15864471D01*
Y15883528D01*
X9569607Y15901134D01*
X9567846Y15902895D01*
Y15964120D01*
X9564889Y15978987D01*
X9556469Y15991589D01*
X9536990Y16011069D01*
X9524387Y16019489D01*
X9509521Y16022446D01*
X8970894D01*
X8969133Y16024207D01*
X8951528Y16031500D01*
X8932472D01*
X8914867Y16024207D01*
X8913106Y16022446D01*
X8195148D01*
X8180282Y16019489D01*
X8177823Y16017847D01*
X7465091D01*
X7432847Y16050090D01*
Y16388054D01*
X7432907Y16388071D01*
X7455892Y16401340D01*
X7474660Y16420108D01*
X7487930Y16443092D01*
X7494800Y16468730D01*
Y16495271D01*
X7487930Y16520908D01*
X7474660Y16543893D01*
X7455892Y16562660D01*
X7432907Y16575931D01*
X7407270Y16582800D01*
X7380729D01*
X7355093Y16575931D01*
X7332108Y16562660D01*
X7313340Y16543893D01*
X7300069Y16520908D01*
X7293200Y16495271D01*
Y16468730D01*
X7300069Y16443092D01*
X7313340Y16420108D01*
X7332108Y16401340D01*
X7355093Y16388071D01*
X7355154Y16388052D01*
Y16034000D01*
X7358112Y16019133D01*
X7366532Y16006531D01*
X7392350Y15980713D01*
X7382630Y15957246D01*
X7300691D01*
X7178847Y16079089D01*
Y16388054D01*
X7178907Y16388071D01*
X7201892Y16401340D01*
X7220660Y16420108D01*
X7233930Y16443092D01*
X7240800Y16468730D01*
Y16495271D01*
X7233930Y16520908D01*
X7220660Y16543893D01*
X7201892Y16562660D01*
X7178907Y16575931D01*
X7153270Y16582800D01*
X7126729D01*
X7101093Y16575931D01*
X7078108Y16562660D01*
X7059340Y16543893D01*
X7046069Y16520908D01*
X7039200Y16495271D01*
Y16468730D01*
X7046069Y16443092D01*
X7059340Y16420108D01*
X7078108Y16401340D01*
X7101093Y16388071D01*
X7101154Y16388052D01*
Y16062999D01*
X7104112Y16048132D01*
X7112532Y16035530D01*
X7257131Y15890932D01*
X7269734Y15882510D01*
X7284600Y15879553D01*
X9056106D01*
X9057867Y15877792D01*
X9075472Y15870500D01*
X9094528D01*
X9112133Y15877792D01*
X9117494Y15883153D01*
X9415910D01*
X9428154Y15870909D01*
Y15720670D01*
X9422530Y15715137D01*
X9402753Y15703850D01*
X9390000Y15706387D01*
X9370335Y15702477D01*
X9353664Y15691336D01*
X9298664Y15636336D01*
X9287524Y15619666D01*
X9283613Y15600000D01*
Y14831000D01*
X9287524Y14811336D01*
X9298664Y14794664D01*
X9352986Y14740341D01*
X9369657Y14729202D01*
X9389323Y14725290D01*
X9500567D01*
X9507613Y14718245D01*
Y14685001D01*
X9511524Y14665335D01*
X9522664Y14648663D01*
X9539081Y14632246D01*
X9528560Y14606847D01*
X8930344D01*
X8915478Y14603889D01*
X8902875Y14595470D01*
X8858306Y14550900D01*
X8854472D01*
X8847247Y14547906D01*
X8823231Y14561018D01*
X8821846Y14562785D01*
Y14607730D01*
X8836946Y14622830D01*
X8843133Y14625392D01*
X8856607Y14638867D01*
X8863900Y14656471D01*
Y14675528D01*
X8856607Y14693134D01*
X8843133Y14706607D01*
X8825528Y14713901D01*
X8806472D01*
X8788867Y14706607D01*
X8775392Y14693134D01*
X8768100Y14675528D01*
Y14663858D01*
X8755531Y14651289D01*
X8747111Y14638686D01*
X8744153Y14623820D01*
Y14046648D01*
X8190225D01*
X8185173Y14072047D01*
X8196081Y14076566D01*
X8224809Y14095760D01*
X8249240Y14120190D01*
X8268435Y14148920D01*
X8281657Y14180840D01*
X8288398Y14214726D01*
Y14249278D01*
X8281657Y14283163D01*
X8268435Y14315085D01*
X8249240Y14343813D01*
X8224809Y14368243D01*
X8196081Y14387440D01*
X8164160Y14400662D01*
X8130273Y14407402D01*
X8095722D01*
X8061836Y14400662D01*
X8029915Y14387440D01*
X8001187Y14368243D01*
X7976756Y14343813D01*
X7957560Y14315085D01*
X7944338Y14283163D01*
X7937598Y14249278D01*
Y14214726D01*
X7944338Y14180840D01*
X7957560Y14148920D01*
X7976756Y14120190D01*
X8001187Y14095760D01*
X8029915Y14076566D01*
X8040822Y14072047D01*
X8035770Y14046648D01*
X6019800D01*
X6004934Y14043690D01*
X5992331Y14035269D01*
X5962532Y14005470D01*
X5954111Y13992867D01*
X5951154Y13978001D01*
Y12921036D01*
X5925754Y12912415D01*
X5925607Y12912607D01*
X5904634Y12928700D01*
X5880210Y12938815D01*
X5854000Y12942267D01*
X5804000D01*
X5777790Y12938815D01*
X5753367Y12928700D01*
X5732394Y12912607D01*
X5716301Y12891634D01*
X5706184Y12867210D01*
X5702734Y12841000D01*
X5706184Y12814790D01*
X5716301Y12790367D01*
X5732394Y12769394D01*
X5750920Y12755179D01*
X5752482Y12741001D01*
X5750920Y12726822D01*
X5732394Y12712607D01*
X5716301Y12691634D01*
X5706184Y12667211D01*
X5702734Y12641001D01*
X5706184Y12614791D01*
X5716301Y12590368D01*
X5732394Y12569395D01*
X5750920Y12555180D01*
X5752482Y12541001D01*
X5750920Y12526823D01*
X5738186Y12517052D01*
X5639051D01*
Y13065710D01*
X5636459Y13085394D01*
X5632009Y13096140D01*
X5628862Y13103735D01*
X5616776Y13119487D01*
X5587486Y13148776D01*
X5571736Y13160863D01*
X5553394Y13168460D01*
X5533711Y13171051D01*
X5175813D01*
X5160632Y13182700D01*
X5136209Y13192816D01*
X5109999Y13196268D01*
X5097699D01*
Y13095000D01*
X5072299D01*
Y13196268D01*
X5059999D01*
X5033789Y13192816D01*
X5009365Y13182700D01*
X4994185Y13171051D01*
X3810137D01*
Y14774319D01*
X3875909Y14840091D01*
X4531906Y15496094D01*
X4531907Y15496094D01*
X4545596Y15513934D01*
X4549160Y15522539D01*
X4554201Y15534708D01*
X4557136Y15557002D01*
Y16813882D01*
X4567158Y16819669D01*
X4579334Y16831844D01*
X4587944Y16846758D01*
X4591305Y16859302D01*
X4527001D01*
Y16884702D01*
X4591305D01*
X4587944Y16897244D01*
X4579334Y16912157D01*
X4567158Y16924335D01*
X4557136Y16930119D01*
Y18335341D01*
X4554201Y18357634D01*
X4549414Y18369191D01*
X4545597Y18378407D01*
X4531909Y18396246D01*
X4414752Y18513408D01*
X4408882Y18517912D01*
X4396914Y18527097D01*
X4376138Y18535703D01*
X4360695Y18537737D01*
X4353846Y18538637D01*
X3141168D01*
X3132137Y18560440D01*
X3131431Y18561360D01*
Y18579700D01*
X3127723Y18607867D01*
X3116851Y18634116D01*
X3099555Y18656654D01*
X3077015Y18673950D01*
X3050768Y18684822D01*
X3035299Y18686859D01*
Y18497198D01*
Y18307539D01*
X3050768Y18309576D01*
X3077015Y18320448D01*
X3099555Y18337744D01*
X3103873Y18343372D01*
X3129537Y18363065D01*
X3132069Y18366364D01*
X4318164D01*
X4384863Y18299661D01*
Y15592680D01*
X3754093Y14961906D01*
X3754092Y14961906D01*
X3663094Y14870908D01*
X3663093Y14870906D01*
X3649404Y14853067D01*
X3645840Y14844463D01*
X3640799Y14832292D01*
X3637864Y14809998D01*
Y13122401D01*
Y13097398D01*
Y11307052D01*
X3292175D01*
X3272492Y11304461D01*
X3254150Y11296863D01*
X3238399Y11284777D01*
X3179822Y11226200D01*
X3167736Y11210449D01*
X3160138Y11192107D01*
X3157547Y11172424D01*
Y10938875D01*
X3148054Y10922432D01*
X3141962Y10899699D01*
X3233598D01*
X3325233D01*
X3319142Y10922432D01*
X3309648Y10938875D01*
Y11140923D01*
X3323676Y11154951D01*
X3637864D01*
Y9988332D01*
X3637695Y9987702D01*
X3701999D01*
Y9962302D01*
X3637695D01*
X3637864Y9961672D01*
Y8550158D01*
X3640799Y8527864D01*
X3645184Y8517279D01*
X3649402Y8507092D01*
X3649404Y8507090D01*
X3663091Y8489253D01*
X3663093Y8489250D01*
X3663094Y8489249D01*
X3689267Y8463074D01*
X3688862Y8459997D01*
X3691798Y8437703D01*
X3700403Y8416929D01*
X3714092Y8399089D01*
X3833866Y8279320D01*
Y7389998D01*
Y6632001D01*
X3836801Y6609707D01*
X3836863Y6609557D01*
Y5625974D01*
X3815025Y5604134D01*
X3440156D01*
X3417862Y5601199D01*
X3409257Y5597635D01*
X3397087Y5592594D01*
X3379248Y5578906D01*
X3262093Y5461751D01*
X3248404Y5443911D01*
X3243363Y5431741D01*
X3239799Y5423136D01*
X3236864Y5400843D01*
Y1070000D01*
X3239799Y1047707D01*
X3243363Y1039102D01*
X3248404Y1026932D01*
X3262093Y1009092D01*
X3496092Y775093D01*
X3496093Y775092D01*
X3513932Y761404D01*
X3534707Y752799D01*
X3557001Y749864D01*
X4106001D01*
X4128295Y752799D01*
X4149070Y761404D01*
X4166909Y775092D01*
X4180598Y792932D01*
X4189203Y813707D01*
X4192138Y836000D01*
X4189203Y858294D01*
X4180598Y879069D01*
X4166909Y896908D01*
X4149070Y910597D01*
X4128295Y919202D01*
X4106001Y922137D01*
X3592680D01*
X3417402Y1097415D01*
Y1097610D01*
X3412945Y1114243D01*
X3409137Y1120839D01*
Y5365164D01*
X3475835Y5431861D01*
X3850706D01*
X3850708Y5431861D01*
X3850709Y5431861D01*
X3859514Y5433020D01*
X3873000Y5434796D01*
X3873002Y5434797D01*
X3873003D01*
X3893777Y5443402D01*
X3903516Y5450876D01*
X3911614Y5457090D01*
X3911615Y5457091D01*
X3983906Y5529387D01*
X3983907Y5529388D01*
X3983909Y5529391D01*
X3997596Y5547228D01*
X3997598Y5547230D01*
X4001816Y5557417D01*
X4006201Y5568002D01*
X4009136Y5590296D01*
X4009137Y5590299D01*
X4009136Y5590301D01*
Y6628999D01*
X4006201Y6651293D01*
X4006139Y6651443D01*
Y7389998D01*
Y8315001D01*
X4005366Y8320871D01*
X4003204Y8337294D01*
X3994598Y8358070D01*
X3986738Y8368313D01*
X3980910Y8375908D01*
X3980909Y8375909D01*
X3880310Y8476505D01*
X3880714Y8479573D01*
X3877780Y8501867D01*
X3869175Y8522642D01*
X3855487Y8540482D01*
X3810137Y8585835D01*
Y11231001D01*
Y13018950D01*
X4994185D01*
X5006918Y13009180D01*
X5008480Y12995001D01*
X5006918Y12980823D01*
X4988392Y12966608D01*
X4972878Y12946388D01*
X4452290D01*
X4432624Y12942477D01*
X4415953Y12931337D01*
X4386664Y12902048D01*
X4375524Y12885378D01*
X4371613Y12865710D01*
Y11906000D01*
X4375524Y11886335D01*
X4386664Y11869664D01*
X4403335Y11858524D01*
X4423000Y11854613D01*
X4442665Y11858524D01*
X4459336Y11869664D01*
X4470476Y11886335D01*
X4474387Y11906000D01*
Y12843614D01*
X4972878D01*
X4988392Y12823395D01*
X5006918Y12809180D01*
X5008480Y12795001D01*
X5006918Y12780823D01*
X4988392Y12766607D01*
X4972299Y12745634D01*
X4962183Y12721211D01*
X4958732Y12695001D01*
X4962183Y12668792D01*
X4972299Y12644368D01*
X4988392Y12623395D01*
X5006918Y12609180D01*
X5008480Y12595001D01*
X5006918Y12580823D01*
X4988392Y12566608D01*
X4972299Y12545635D01*
X4962183Y12521211D01*
X4958732Y12495002D01*
X4962183Y12468792D01*
X4972299Y12444369D01*
X4988392Y12423396D01*
X5006918Y12409180D01*
X5008480Y12395002D01*
X5006918Y12380823D01*
X4988392Y12366608D01*
X4972299Y12345635D01*
X4962183Y12321212D01*
X4958732Y12295002D01*
X4962183Y12268792D01*
X4972299Y12244369D01*
X4988392Y12223396D01*
X5006918Y12209181D01*
X5008480Y12195002D01*
X5006918Y12180824D01*
X4988392Y12166609D01*
X4972299Y12145636D01*
X4962183Y12121212D01*
X4958732Y12095002D01*
X4962183Y12068793D01*
X4972299Y12044369D01*
X4988392Y12023396D01*
X5009365Y12007303D01*
X5033789Y11997187D01*
X5059999Y11993736D01*
X5109999D01*
X5136209Y11997187D01*
X5160632Y12007303D01*
X5181605Y12023396D01*
X5197698Y12044369D01*
X5207815Y12068793D01*
X5211265Y12095002D01*
X5207815Y12121212D01*
X5197698Y12145636D01*
X5181605Y12166609D01*
X5163079Y12180824D01*
X5161517Y12195002D01*
X5163079Y12209181D01*
X5181605Y12223396D01*
X5197698Y12244369D01*
X5207815Y12268792D01*
X5211265Y12295002D01*
X5207815Y12321212D01*
X5197698Y12345635D01*
X5181605Y12366608D01*
X5163079Y12380823D01*
X5161517Y12395002D01*
X5163079Y12409180D01*
X5181605Y12423396D01*
X5197698Y12444369D01*
X5207815Y12468792D01*
X5211265Y12495002D01*
X5207815Y12521211D01*
X5197698Y12545635D01*
X5181605Y12566608D01*
X5163079Y12580823D01*
X5161517Y12595001D01*
X5163079Y12609180D01*
X5181605Y12623395D01*
X5197698Y12644368D01*
X5207815Y12668792D01*
X5211265Y12695001D01*
X5207815Y12721211D01*
X5197698Y12745634D01*
X5181605Y12766607D01*
X5163079Y12780823D01*
X5161517Y12795001D01*
X5163079Y12809180D01*
X5181605Y12823395D01*
X5197698Y12844368D01*
X5207815Y12868791D01*
X5211265Y12895001D01*
X5207815Y12921211D01*
X5197698Y12945634D01*
X5181605Y12966608D01*
X5163079Y12980823D01*
X5161517Y12995001D01*
X5163079Y13009180D01*
X5175813Y13018950D01*
X5486949D01*
Y12472000D01*
X5489541Y12452316D01*
X5497138Y12433975D01*
X5509224Y12418224D01*
X5540223Y12387225D01*
X5555973Y12375139D01*
X5574315Y12367542D01*
X5593999Y12364951D01*
X5738186D01*
X5750920Y12355180D01*
X5752482Y12341001D01*
X5750920Y12326823D01*
X5732394Y12312608D01*
X5716301Y12291635D01*
X5706184Y12267211D01*
X5702734Y12241002D01*
X5706184Y12214792D01*
X5716301Y12190369D01*
X5732394Y12169396D01*
X5750920Y12155180D01*
X5752482Y12141002D01*
X5750920Y12126823D01*
X5732394Y12112608D01*
X5716301Y12091635D01*
X5711419Y12079849D01*
X5691002D01*
X5676136Y12076892D01*
X5663534Y12068471D01*
X5642532Y12047469D01*
X5634111Y12034866D01*
X5631154Y12020000D01*
Y11689894D01*
X5629393Y11688133D01*
X5622100Y11670528D01*
Y11651472D01*
X5629393Y11633867D01*
X5642867Y11620393D01*
X5660472Y11613100D01*
X5679528D01*
X5697133Y11620393D01*
X5710608Y11633867D01*
X5717900Y11651472D01*
Y11670528D01*
X5710608Y11688133D01*
X5708847Y11689894D01*
Y11958359D01*
X5726144Y11966467D01*
X5734247Y11967974D01*
X5753367Y11953303D01*
X5777790Y11943186D01*
X5804000Y11939736D01*
X5854000D01*
X5880210Y11943186D01*
X5904634Y11953303D01*
X5925607Y11969396D01*
X5925754Y11969588D01*
X5951154Y11960966D01*
Y9669366D01*
X5942532Y9660744D01*
X5938567Y9654809D01*
X5929393Y9645636D01*
X5922101Y9628030D01*
Y9608975D01*
X5929393Y9591369D01*
X5942868Y9577895D01*
X5960473Y9570603D01*
X5979529D01*
X5997134Y9577895D01*
X6010608Y9591369D01*
X6017901Y9608975D01*
Y9626452D01*
X6025890Y9638409D01*
X6028847Y9653275D01*
Y10069324D01*
X6054247Y10084890D01*
X6058573Y10083098D01*
X6077628D01*
X6081954Y10084890D01*
X6107354Y10069324D01*
Y8541879D01*
X6110311Y8527013D01*
X6118732Y8514410D01*
X6133611Y8499531D01*
X6146214Y8491111D01*
X6161080Y8488153D01*
X6246106D01*
X6247867Y8486392D01*
X6265472Y8479100D01*
X6284528D01*
X6302133Y8486392D01*
X6315607Y8499867D01*
X6322900Y8517472D01*
Y8536528D01*
X6315607Y8554133D01*
X6302133Y8567607D01*
X6284528Y8574900D01*
X6287292Y8599155D01*
X6483912D01*
X6490153Y8592913D01*
Y7696894D01*
X6488392Y7695133D01*
X6481100Y7677528D01*
Y7658472D01*
X6488392Y7640867D01*
X6501867Y7627392D01*
X6519472Y7620100D01*
X6538528D01*
X6552753Y7625992D01*
X6567072Y7620487D01*
X6578153Y7613492D01*
Y2538970D01*
X6562030Y2522845D01*
X5795000D01*
X5780134Y2519888D01*
X5767531Y2511467D01*
X5688074Y2432009D01*
X5686612Y2432401D01*
X5669392D01*
X5652759Y2427944D01*
X5637846Y2419333D01*
X5625669Y2407157D01*
X5617059Y2392244D01*
X5612602Y2375611D01*
Y2358391D01*
X5617059Y2341757D01*
X5625669Y2326844D01*
X5637846Y2314668D01*
X5652759Y2306058D01*
X5669392Y2301601D01*
X5686612D01*
X5703246Y2306058D01*
X5718159Y2314668D01*
X5730335Y2326844D01*
X5738945Y2341757D01*
X5743402Y2358391D01*
Y2375611D01*
X5743011Y2377072D01*
X5811090Y2445152D01*
X6578122D01*
X6578124Y2445152D01*
X6578125Y2445152D01*
X6585167Y2446553D01*
X6592988Y2448109D01*
X6592990Y2448109D01*
X6592991Y2448110D01*
X6598843Y2452020D01*
X6605591Y2456530D01*
X6605592Y2456531D01*
X6605593Y2456531D01*
X6644470Y2495414D01*
X6649713Y2503261D01*
X6652889Y2508015D01*
X6652889Y2508016D01*
X6652890Y2508017D01*
X6654446Y2515840D01*
X6655846Y2522880D01*
Y6398033D01*
X6660297Y6401392D01*
X6690664Y6401664D01*
X6707335Y6390524D01*
X6727000Y6386613D01*
X6736000D01*
X6755665Y6390524D01*
X6757294Y6391613D01*
X6881000D01*
X6900665Y6395524D01*
X6917336Y6406664D01*
X6937146Y6426474D01*
X6960613Y6416753D01*
Y5969000D01*
X6964524Y5949335D01*
X6975664Y5932664D01*
X6992335Y5921524D01*
X7012000Y5917613D01*
X7031665Y5921524D01*
X7048336Y5932664D01*
X7059476Y5949335D01*
X7063387Y5969000D01*
Y7834716D01*
X7250824Y8022153D01*
X7361104D01*
X7362865Y8020392D01*
X7380470Y8013100D01*
X7399526D01*
X7417131Y8020392D01*
X7430605Y8033867D01*
X7437898Y8051472D01*
Y8070528D01*
X7430605Y8088133D01*
X7417131Y8101607D01*
X7399526Y8108900D01*
X7380470D01*
X7368558Y8103965D01*
X7354170Y8125499D01*
X7749999Y8521328D01*
X8235987Y8035340D01*
Y7870938D01*
X8233613Y7859000D01*
X8237524Y7839335D01*
X8248664Y7822664D01*
X8264717Y7806611D01*
X8281388Y7795472D01*
X8301053Y7791560D01*
X8358085D01*
X8377750Y7795472D01*
X8394421Y7806611D01*
X9391695Y8803884D01*
X9402834Y8820556D01*
X9406745Y8840221D01*
Y8881642D01*
X9402834Y8901307D01*
X9391694Y8917978D01*
X9336336Y8973336D01*
X9319665Y8984476D01*
X9300000Y8988387D01*
X9280335Y8984476D01*
X9263664Y8973336D01*
X9252524Y8956665D01*
X9248613Y8937000D01*
X9252524Y8917335D01*
X9263664Y8900664D01*
X9303396Y8860931D01*
X8362228Y7919763D01*
X8338762Y7929484D01*
Y8056625D01*
X8334850Y8076291D01*
X8323711Y8092962D01*
X7791836Y8624836D01*
X6867336Y9549336D01*
X6850665Y9560476D01*
X6831000Y9564387D01*
X6791247D01*
X6781526Y9587854D01*
X7792336Y10598664D01*
X7803475Y10615335D01*
X7807387Y10635000D01*
X7803475Y10654665D01*
X7792336Y10671336D01*
X7775665Y10682475D01*
X7756000Y10686387D01*
X7736335Y10682475D01*
X7719664Y10671336D01*
X6615664Y9567336D01*
X6604524Y9550665D01*
X6601428Y9535101D01*
X6313664Y9247336D01*
X6302524Y9230665D01*
X6298613Y9211000D01*
X6302524Y9191335D01*
X6313664Y9174664D01*
X6330335Y9163524D01*
X6350000Y9159613D01*
X6369665Y9163524D01*
X6386336Y9174664D01*
X6673285Y9461613D01*
X6809715D01*
X7677327Y8594001D01*
X7196664Y8113338D01*
X6975664Y7892338D01*
X6964524Y7875666D01*
X6960613Y7856001D01*
Y6834716D01*
X6935212Y6817151D01*
X6929000Y6818387D01*
X6909335Y6814476D01*
X6892664Y6803336D01*
X6881524Y6786665D01*
X6877613Y6767000D01*
Y6512285D01*
X6859715Y6494387D01*
X6741000D01*
X6721335Y6490476D01*
X6716614Y6487322D01*
X6707335Y6485476D01*
X6690664Y6474336D01*
X6660297Y6474608D01*
X6655846Y6477967D01*
Y7944909D01*
X7388929Y8677992D01*
X7390390Y8677600D01*
X7407610D01*
X7424243Y8682057D01*
X7439157Y8690667D01*
X7451333Y8702843D01*
X7459943Y8717757D01*
X7464400Y8734390D01*
Y8751610D01*
X7459943Y8768244D01*
X7451333Y8783157D01*
X7439157Y8795333D01*
X7424243Y8803943D01*
X7407610Y8808400D01*
X7390390D01*
X7373756Y8803943D01*
X7358843Y8795333D01*
X7346667Y8783157D01*
X7338057Y8768244D01*
X7333600Y8751610D01*
Y8734390D01*
X7333991Y8732929D01*
X6593246Y7992184D01*
X6578457Y7995243D01*
X6567846Y8001734D01*
Y8609004D01*
X6564889Y8623870D01*
X6556468Y8636472D01*
X6527471Y8665470D01*
X6514868Y8673891D01*
X6500002Y8676848D01*
X6230447D01*
Y10182154D01*
X6227490Y10197020D01*
X6219069Y10209622D01*
X6213846Y10214846D01*
Y11964042D01*
X6235599Y11985613D01*
X6356799D01*
X6376464Y11989524D01*
X6393136Y12000664D01*
X6404275Y12017335D01*
X6408187Y12037000D01*
X6404275Y12056665D01*
X6393136Y12073336D01*
X6376464Y12084476D01*
X6356799Y12088387D01*
X6235599D01*
X6213846Y12109958D01*
Y12805910D01*
X6215156Y12806667D01*
X6227332Y12818842D01*
X6235942Y12833755D01*
X6240399Y12850389D01*
Y12867609D01*
X6235942Y12884242D01*
X6227332Y12899156D01*
X6215156Y12911333D01*
X6200243Y12919942D01*
X6183609Y12924399D01*
X6166389D01*
X6161146Y12922993D01*
X6135746Y12938771D01*
Y13836729D01*
X6177171Y13878154D01*
X8363460D01*
X8383651Y13857964D01*
Y13855472D01*
X8390943Y13837868D01*
X8404418Y13824393D01*
X8422023Y13817101D01*
X8441079D01*
X8458684Y13824393D01*
X8472158Y13837868D01*
X8479451Y13855472D01*
Y13874529D01*
X8472158Y13892133D01*
X8466138Y13898154D01*
X8476659Y13923553D01*
X9154400D01*
X9169266Y13926511D01*
X9181869Y13934932D01*
X9226468Y13979530D01*
X9234889Y13992134D01*
X9237846Y14007001D01*
Y14318106D01*
X9239607Y14319867D01*
X9246900Y14337473D01*
Y14356528D01*
X9239607Y14374133D01*
X9226133Y14387607D01*
X9208528Y14394901D01*
X9189472D01*
X9171867Y14387607D01*
X9158392Y14374133D01*
X9151100Y14356528D01*
Y14337473D01*
X9158392Y14319867D01*
X9160153Y14318106D01*
Y14023091D01*
X9138310Y14001247D01*
X8842725D01*
X8821846Y14022681D01*
Y14443214D01*
X8823231Y14444981D01*
X8847247Y14458093D01*
X8854472Y14455099D01*
X8873528D01*
X8891133Y14462392D01*
X8904608Y14475867D01*
X8911900Y14493472D01*
Y14494620D01*
X8946434Y14529153D01*
X9497753D01*
X9503797Y14508299D01*
X9504013Y14503754D01*
X9491392Y14491133D01*
X9484100Y14473528D01*
Y14454472D01*
X9491392Y14436867D01*
X9504867Y14423393D01*
X9522472Y14416100D01*
X9541528D01*
X9559133Y14423393D01*
X9563894Y14428154D01*
X10127000D01*
X10141866Y14431111D01*
X10141930Y14431154D01*
X10160806D01*
X10162567Y14429393D01*
X10180173Y14422099D01*
X10199228D01*
X10216834Y14429393D01*
X10230308Y14442867D01*
X10237600Y14460472D01*
Y14479527D01*
X10233553Y14489301D01*
X10243687Y14510101D01*
X10248432Y14514700D01*
X10252528D01*
X10270133Y14521992D01*
X10283608Y14535468D01*
X10286417Y14542250D01*
X10302966Y14554857D01*
X10316300Y14556830D01*
X10327445Y14554613D01*
X10780613D01*
Y13924001D01*
X10784524Y13904335D01*
X10795664Y13887663D01*
X10871665Y13811662D01*
X10888336Y13800523D01*
X10908001Y13796611D01*
X11148951D01*
Y13191292D01*
X11151542Y13171608D01*
X11159140Y13153267D01*
X11171226Y13137515D01*
X11186976Y13125430D01*
X11187999Y13125008D01*
X11188426Y13123975D01*
X11200512Y13108224D01*
X11216263Y13096140D01*
X11234604Y13088541D01*
X11254288Y13085950D01*
X14533865D01*
Y10709390D01*
X13238287D01*
X13161389Y10786288D01*
Y11181999D01*
X13157477Y11201665D01*
X13146338Y11218336D01*
X13025287Y11339387D01*
X13008617Y11350526D01*
X12988950Y11354438D01*
X11433719D01*
X11420529Y11359902D01*
X11401473D01*
X11388283Y11354438D01*
X10413949D01*
X10394284Y11350526D01*
X10377613Y11339387D01*
X10366474Y11322716D01*
X10362562Y11303051D01*
X10366474Y11283386D01*
X10377613Y11266715D01*
X10394284Y11255575D01*
X10413949Y11251664D01*
X12967665D01*
X13058614Y11160714D01*
Y10765003D01*
X13062526Y10745337D01*
X13073665Y10728666D01*
X13106477Y10695854D01*
X13096758Y10672387D01*
X11939001D01*
X11919336Y10668475D01*
X11902665Y10657336D01*
X11724666Y10479338D01*
X11713527Y10462667D01*
X11709615Y10443002D01*
Y10244846D01*
X10664895D01*
X10663134Y10246607D01*
X10645529Y10253899D01*
X10626473D01*
X10608868Y10246607D01*
X10595394Y10233132D01*
X10588101Y10215527D01*
Y10196472D01*
X10595394Y10178866D01*
X10608868Y10165392D01*
X10626473Y10158100D01*
X10645529D01*
X10663134Y10165392D01*
X10664895Y10167153D01*
X11719664D01*
X11724666Y10159666D01*
X11741338Y10148526D01*
X11761003Y10144615D01*
X11780668Y10148526D01*
X11797339Y10159666D01*
X11808478Y10176337D01*
X11812390Y10196002D01*
Y10421717D01*
X11960286Y10569613D01*
X14533865D01*
Y6832678D01*
X14491322Y6790137D01*
X14182999D01*
X14175789Y6789187D01*
X14170657Y6788512D01*
X14165692Y6813477D01*
X14173230Y6815497D01*
X14204675Y6833652D01*
X14230350Y6859327D01*
X14248505Y6890772D01*
X14257903Y6925844D01*
Y6931299D01*
X14132703D01*
Y6806099D01*
X14138158D01*
X14143250Y6807464D01*
X14152100Y6783637D01*
X14147081Y6781558D01*
X14139931Y6778597D01*
X14122092Y6764908D01*
X14024591Y6667407D01*
X14024590Y6667406D01*
X14015071Y6657887D01*
X11409786D01*
X11392386Y6675287D01*
Y7067001D01*
Y7142998D01*
X11388474Y7162663D01*
X11377335Y7179334D01*
X11324333Y7232336D01*
X11307662Y7243476D01*
X11287996Y7247387D01*
X9954000D01*
X9934335Y7243476D01*
X9917664Y7232336D01*
X9838664Y7153336D01*
X9827524Y7136665D01*
X9823613Y7117000D01*
Y6231000D01*
X9827524Y6211335D01*
X9838664Y6194664D01*
X9854613Y6178715D01*
Y6085284D01*
X9835143Y6074043D01*
X9813657Y6052557D01*
X9798465Y6026243D01*
X9791522Y6000331D01*
X9766478D01*
X9759535Y6026243D01*
X9744343Y6052557D01*
X9722857Y6074043D01*
X9696543Y6089235D01*
X9667193Y6097100D01*
X9636807D01*
X9607457Y6089235D01*
X9581143Y6074043D01*
X9559657Y6052557D01*
X9544465Y6026243D01*
X9536600Y5996893D01*
Y5966507D01*
X9544465Y5937157D01*
X9559657Y5910843D01*
X9581143Y5889357D01*
X9607457Y5874165D01*
X9633369Y5867222D01*
Y5842178D01*
X9607457Y5835235D01*
X9581143Y5820043D01*
X9559657Y5798557D01*
X9544465Y5772243D01*
X9536600Y5742893D01*
Y5740400D01*
X9652000D01*
Y5715000D01*
X9536600D01*
Y5712507D01*
X9544465Y5683157D01*
X9559657Y5656843D01*
X9581143Y5635357D01*
X9607457Y5620165D01*
X9633369Y5613222D01*
Y5588178D01*
X9607457Y5581235D01*
X9581143Y5566043D01*
X9559657Y5544557D01*
X9544465Y5518243D01*
X9536600Y5488893D01*
Y5458507D01*
X9544465Y5429157D01*
X9559657Y5402843D01*
X9581143Y5381357D01*
X9607457Y5366165D01*
X9633369Y5359222D01*
Y5334178D01*
X9607457Y5327235D01*
X9581143Y5312043D01*
X9559657Y5290557D01*
X9544465Y5264243D01*
X9542215Y5255849D01*
X9496847D01*
Y6499889D01*
X9510133Y6505393D01*
X9523608Y6518867D01*
X9530900Y6536472D01*
Y6555528D01*
X9523608Y6573133D01*
X9510133Y6586608D01*
X9492528Y6593900D01*
X9473472D01*
X9455867Y6586608D01*
X9442393Y6573133D01*
X9435100Y6555528D01*
Y6553037D01*
X9430532Y6548469D01*
X9422111Y6535866D01*
X9419154Y6521000D01*
Y5231882D01*
X9422111Y5217016D01*
X9430532Y5204413D01*
X9445411Y5189534D01*
X9458013Y5181113D01*
X9472879Y5178156D01*
X9543661D01*
X9544465Y5175157D01*
X9559657Y5148843D01*
X9581143Y5127357D01*
X9607457Y5112165D01*
X9633369Y5105222D01*
Y5080178D01*
X9607457Y5073235D01*
X9581143Y5058043D01*
X9559657Y5036557D01*
X9544465Y5010243D01*
X9536600Y4980893D01*
Y4978400D01*
X9652000D01*
Y4953000D01*
X9536600D01*
Y4950507D01*
X9544465Y4921157D01*
X9559657Y4894843D01*
X9575739Y4878762D01*
Y4810182D01*
X9574613Y4804522D01*
Y4753289D01*
X9578524Y4733624D01*
X9589664Y4716953D01*
X9618953Y4687664D01*
X9635624Y4676524D01*
X9655290Y4672613D01*
X9941715D01*
X9974613Y4639715D01*
Y3598000D01*
X9978524Y3578335D01*
X9989664Y3561664D01*
X10006335Y3550524D01*
X10026000Y3546613D01*
X10045665Y3550524D01*
X10062336Y3561664D01*
X10073476Y3578335D01*
X10077387Y3598000D01*
Y4661000D01*
X10073476Y4680665D01*
X10062336Y4697336D01*
X9999336Y4760336D01*
X9982665Y4771476D01*
X9963000Y4775387D01*
X9677387D01*
Y4799989D01*
X9678513Y4805648D01*
Y4853333D01*
X9696543Y4858165D01*
X9722857Y4873357D01*
X9744343Y4894843D01*
X9759535Y4921157D01*
X9765200Y4942298D01*
X9790600Y4938954D01*
Y4850300D01*
X10021400D01*
Y5081100D01*
X9932746D01*
X9929402Y5106500D01*
X9950543Y5112165D01*
X9976857Y5127357D01*
X9998343Y5148843D01*
X10013535Y5175157D01*
X10021400Y5204507D01*
Y5234893D01*
X10013535Y5264243D01*
X9998343Y5290557D01*
X9976857Y5312043D01*
X9950543Y5327235D01*
X9924631Y5334178D01*
Y5359222D01*
X9950543Y5366165D01*
X9976857Y5381357D01*
X9998343Y5402843D01*
X10013535Y5429157D01*
X10015062Y5434853D01*
X10098700D01*
X10113565Y5437811D01*
X10126168Y5446231D01*
X10209469Y5529532D01*
X10217889Y5542134D01*
X10220846Y5557000D01*
Y6534106D01*
X10222607Y6535867D01*
X10229900Y6553472D01*
Y6572528D01*
X10222607Y6590133D01*
X10209133Y6603608D01*
X10191528Y6610900D01*
X10172472D01*
X10154867Y6603608D01*
X10141392Y6590133D01*
X10134100Y6572528D01*
Y6553472D01*
X10141392Y6535867D01*
X10143153Y6534106D01*
Y6094592D01*
X10136095Y6092000D01*
X10117753Y6090367D01*
X10112071Y6098871D01*
X10054854Y6156089D01*
Y6341525D01*
X10065469Y6352139D01*
X10073889Y6364742D01*
X10076846Y6379608D01*
Y6616106D01*
X10078607Y6617867D01*
X10085900Y6635472D01*
Y6654528D01*
X10078607Y6672133D01*
X10065133Y6685607D01*
X10047528Y6692900D01*
X10028472D01*
X10010867Y6685607D01*
X9997393Y6672133D01*
X9990100Y6654528D01*
Y6635472D01*
X9997393Y6617867D01*
X9999153Y6616106D01*
Y6395698D01*
X9988539Y6385084D01*
X9980118Y6372481D01*
X9977161Y6357615D01*
Y6239918D01*
X9972724Y6236577D01*
X9942336Y6236336D01*
X9926387Y6252285D01*
Y7095715D01*
X9975285Y7144613D01*
X10899831D01*
X10904884Y7119213D01*
X10893769Y7114609D01*
X10883236Y7104075D01*
X10842802D01*
X10827936Y7101118D01*
X10815334Y7092698D01*
X10814011Y7091375D01*
X10405455D01*
X10394526Y7095902D01*
X10375470D01*
X10357865Y7088610D01*
X10344391Y7075135D01*
X10337098Y7057530D01*
Y7038474D01*
X10344391Y7020869D01*
X10357865Y7007395D01*
X10359104Y7006881D01*
Y6979389D01*
X10359095Y6979385D01*
X10345620Y6965910D01*
X10338328Y6948305D01*
Y6929249D01*
X10345620Y6911644D01*
X10359095Y6898170D01*
X10372451Y6892637D01*
X10373068Y6888995D01*
X10372891Y6869686D01*
X10372451Y6867237D01*
X10358866Y6861610D01*
X10345392Y6848135D01*
X10338099Y6830530D01*
Y6811475D01*
X10345392Y6793869D01*
X10358866Y6780395D01*
X10366205Y6777355D01*
Y6749862D01*
X10360766Y6747610D01*
X10347291Y6734135D01*
X10339999Y6716530D01*
Y6697474D01*
X10347291Y6679869D01*
X10360766Y6666395D01*
X10378371Y6659102D01*
X10397427D01*
X10415032Y6666395D01*
X10416793Y6668156D01*
X10801919D01*
X10804471Y6667098D01*
X10823527D01*
X10841132Y6674391D01*
X10854607Y6687865D01*
X10861899Y6705470D01*
Y6724526D01*
X10854607Y6742131D01*
X10841132Y6755605D01*
X10823527Y6762898D01*
X10804471D01*
X10789093Y6756528D01*
X10784996Y6756364D01*
X10783523Y6756963D01*
X10776580Y6785567D01*
X10776987Y6787029D01*
X10783799Y6803474D01*
Y6822529D01*
X10776507Y6840134D01*
X10763032Y6853609D01*
X10745427Y6860901D01*
X10726371D01*
X10714167Y6855846D01*
X10418896D01*
X10413132Y6861610D01*
X10399775Y6867142D01*
X10399159Y6870785D01*
X10399336Y6890094D01*
X10399775Y6892542D01*
X10413361Y6898170D01*
X10415122Y6899931D01*
X10810921D01*
X10825787Y6902888D01*
X10838389Y6911309D01*
X10847183Y6920102D01*
X10862628D01*
X10880233Y6927395D01*
X10893707Y6940869D01*
X10901000Y6958475D01*
Y6977530D01*
X10893707Y6995135D01*
X10903304Y7019986D01*
X10911375Y7026102D01*
X10930430D01*
X10948036Y7033394D01*
X10961510Y7046869D01*
X10968802Y7064474D01*
Y7083529D01*
X10961510Y7101135D01*
X10948036Y7114609D01*
X10936921Y7119213D01*
X10941974Y7144613D01*
X11266711D01*
X11289611Y7121713D01*
Y7067001D01*
Y6654001D01*
X11293523Y6634336D01*
X11304662Y6617665D01*
X11352164Y6570163D01*
X11368835Y6559024D01*
X11388500Y6555112D01*
X13879109D01*
X13888829Y6531646D01*
X13870093Y6512909D01*
X13856404Y6495070D01*
X13851363Y6482900D01*
X13847800Y6474295D01*
X13844864Y6452001D01*
Y3730498D01*
X13847800Y3708204D01*
X13851363Y3699599D01*
X13856404Y3687430D01*
X13870093Y3669590D01*
X14147862Y3391820D01*
Y896000D01*
X14066000D01*
X14067000Y895000D01*
Y750819D01*
X13920090Y603909D01*
X13906401Y586070D01*
X13901361Y573900D01*
X13897797Y565295D01*
X13894861Y543001D01*
Y368973D01*
X13875027Y349138D01*
X9285390D01*
Y3570717D01*
X9370338Y3655666D01*
X9381478Y3672337D01*
X9385389Y3692002D01*
X9381478Y3711667D01*
X9370338Y3728338D01*
X9353667Y3739477D01*
X9334002Y3743389D01*
X9314337Y3739477D01*
X9297666Y3728338D01*
X9197666Y3628338D01*
X9186527Y3611667D01*
X9182615Y3592002D01*
Y349138D01*
X8551139D01*
Y466395D01*
X8548204Y488689D01*
X8539599Y509463D01*
X8525910Y527303D01*
X8508070Y540991D01*
X8487296Y549597D01*
X8465002Y552532D01*
X8442708Y549597D01*
X8421934Y540991D01*
X8404094Y527303D01*
X8390406Y509463D01*
X8381800Y488689D01*
X8378865Y466395D01*
Y349138D01*
X5403386D01*
Y1652001D01*
X5399474Y1671666D01*
X5388335Y1688337D01*
X5371663Y1699476D01*
X5351998Y1703388D01*
X5332334Y1699476D01*
X5315662Y1688337D01*
X5304523Y1671666D01*
X5300611Y1652001D01*
Y349138D01*
X4681679D01*
X4546138Y484680D01*
Y1132002D01*
X4543203Y1154296D01*
X4534598Y1175070D01*
X4520909Y1192910D01*
X4334910Y1378909D01*
X4317071Y1392598D01*
X4304901Y1397638D01*
X4296296Y1401203D01*
X4274002Y1404138D01*
X4112973D01*
X4093139Y1423972D01*
Y5218321D01*
X4146915Y5272097D01*
X4150068Y5273403D01*
X4167908Y5287092D01*
X4262905Y5382090D01*
X4262906Y5382090D01*
X4276595Y5399930D01*
X4285200Y5420704D01*
X4286668Y5431851D01*
X4288135Y5442998D01*
X4288135Y5443000D01*
Y7366044D01*
X4309898Y7387613D01*
X4774216D01*
X4780335Y7383524D01*
X4796934Y7380223D01*
X4807160Y7375987D01*
Y7422573D01*
X4832560D01*
Y7375987D01*
X4846993Y7381965D01*
X4851754Y7386725D01*
X4877154Y7376204D01*
Y2145878D01*
X4880111Y2131012D01*
X4888531Y2118410D01*
X4903411Y2103530D01*
X4916013Y2095110D01*
X4930879Y2092153D01*
X5215291D01*
X5220666Y2082841D01*
X5232843Y2070665D01*
X5247756Y2062055D01*
X5264389Y2057598D01*
X5281609D01*
X5298243Y2062055D01*
X5313156Y2070665D01*
X5325332Y2082841D01*
X5333942Y2097755D01*
X5338399Y2114388D01*
Y2131608D01*
X5333942Y2148242D01*
X5325332Y2163155D01*
X5313156Y2175331D01*
X5298243Y2183941D01*
X5281609Y2188398D01*
X5264389D01*
X5247756Y2183941D01*
X5232843Y2175331D01*
X5227357Y2169846D01*
X4954847D01*
Y2223273D01*
X4976279Y2244151D01*
X5147911D01*
X5148668Y2242841D01*
X5160844Y2230665D01*
X5175757Y2222055D01*
X5192390Y2217598D01*
X5209611D01*
X5226244Y2222055D01*
X5241157Y2230665D01*
X5253333Y2242841D01*
X5261944Y2257754D01*
X5266400Y2274388D01*
Y2291608D01*
X5261944Y2308241D01*
X5253333Y2323154D01*
X5241157Y2335331D01*
X5226244Y2343941D01*
X5209611Y2348398D01*
X5192390D01*
X5175757Y2343941D01*
X5160844Y2335331D01*
X5148668Y2323154D01*
X5147911Y2321844D01*
X5000247D01*
Y6394931D01*
X5012473Y6403100D01*
X5031528D01*
X5049133Y6410393D01*
X5062608Y6423867D01*
X5069900Y6441472D01*
Y6460528D01*
X5062608Y6478133D01*
X5060448Y6480293D01*
Y8190910D01*
X5072037Y8202500D01*
X5074528D01*
X5092133Y8209792D01*
X5105608Y8223267D01*
X5112900Y8240872D01*
Y8259928D01*
X5105608Y8277533D01*
X5092133Y8291007D01*
X5074528Y8298300D01*
X5055472D01*
X5037867Y8291007D01*
X5025647Y8278787D01*
X5019327Y8279228D01*
X5000247Y8285613D01*
Y10425505D01*
X5001608Y10426867D01*
X5008901Y10444472D01*
Y10463528D01*
X5001608Y10481133D01*
X4988134Y10494607D01*
X4970529Y10501900D01*
X4951473D01*
X4933868Y10494607D01*
X4920394Y10481133D01*
X4913101Y10463528D01*
Y10444472D01*
X4920394Y10426867D01*
X4922554Y10424707D01*
Y10185716D01*
X4899087Y10175996D01*
X4868901Y10206181D01*
Y10220526D01*
X4861609Y10238131D01*
X4848134Y10251606D01*
X4830529Y10258898D01*
X4811473D01*
X4793868Y10251606D01*
X4780394Y10238131D01*
X4773101Y10220526D01*
Y10201470D01*
X4780394Y10183865D01*
X4793868Y10170391D01*
X4795489Y10169720D01*
X4877154Y10088054D01*
Y7468941D01*
X4853931Y7458362D01*
X4851754Y7458778D01*
X4846035Y7467336D01*
X4829364Y7478476D01*
X4821211Y7480098D01*
X4811665Y7486476D01*
X4792000Y7490387D01*
X4309898D01*
X4288135Y7511956D01*
Y8468998D01*
X4288135Y8469000D01*
X4285200Y8491294D01*
X4276595Y8512068D01*
X4262906Y8529908D01*
X4063137Y8729677D01*
Y10308001D01*
X4060202Y10330295D01*
X4051596Y10351069D01*
X4037908Y10368909D01*
X4020068Y10382597D01*
X3999294Y10391202D01*
X3977000Y10394137D01*
X3954706Y10391202D01*
X3933932Y10382597D01*
X3916092Y10368909D01*
X3902403Y10351069D01*
X3893798Y10330295D01*
X3890863Y10308001D01*
Y8693998D01*
X3893798Y8671705D01*
X3897363Y8663100D01*
X3902403Y8650930D01*
X3916092Y8633090D01*
X4115861Y8433321D01*
Y5478677D01*
X4061087Y5423903D01*
X4057934Y5422596D01*
X4040094Y5408908D01*
X3946094Y5314908D01*
X3932406Y5297069D01*
X3927365Y5284899D01*
X3923801Y5276294D01*
X3920866Y5254000D01*
Y1388293D01*
X3923801Y1365999D01*
X3927365Y1357394D01*
X3932406Y1345224D01*
X3946094Y1327385D01*
X4016386Y1257094D01*
X4016386Y1257093D01*
X4034226Y1243404D01*
X4055001Y1234799D01*
X4077294Y1231864D01*
X4238323D01*
X4373865Y1096323D01*
Y449001D01*
X4376799Y426707D01*
X4380364Y418102D01*
X4385404Y405932D01*
X4399093Y388093D01*
X4585092Y202094D01*
X4602932Y188405D01*
X4623707Y179800D01*
X4646000Y176865D01*
X13910706D01*
X13933000Y179800D01*
X13941605Y183364D01*
X13953775Y188405D01*
X13971614Y202094D01*
X14041600Y272080D01*
X14042815Y272059D01*
X14067000Y263365D01*
Y77000D01*
X2725000D01*
X2724657Y77142D01*
Y11587000D01*
X3511000D01*
X3515813Y11591813D01*
Y17636304D01*
X2661138D01*
Y18770029D01*
X2680972Y18789864D01*
X3373999D01*
X3396293Y18792798D01*
X3404898Y18796362D01*
X3417067Y18801402D01*
X3434907Y18815092D01*
X3475977Y18856161D01*
X8233801D01*
X8256095Y18859097D01*
X8276869Y18867702D01*
X8294709Y18881390D01*
X8304854Y18894614D01*
X8784715D01*
X8932613Y18746715D01*
Y18292625D01*
X8921823Y18281927D01*
X8907714Y18275473D01*
X8907213Y18275520D01*
X8888000Y18278052D01*
X5079080D01*
X5065051Y18292081D01*
Y18423000D01*
X5062459Y18442683D01*
X5054862Y18461024D01*
X5042776Y18476776D01*
X5027025Y18488863D01*
X5008683Y18496458D01*
X4989000Y18499051D01*
X4969316Y18496458D01*
X4950975Y18488863D01*
X4935224Y18476776D01*
X4923138Y18461024D01*
X4915541Y18442683D01*
X4912949Y18423000D01*
Y18260579D01*
X4915541Y18240895D01*
X4923138Y18222552D01*
X4935224Y18206802D01*
X4993803Y18148224D01*
X5009553Y18136137D01*
X5017151Y18132991D01*
X5027895Y18128542D01*
X5047579Y18125949D01*
X8881404D01*
X8889000Y18124950D01*
X8907213Y18127347D01*
X8909062Y18127261D01*
X8932613Y18109959D01*
Y16547289D01*
X8936524Y16527625D01*
X8947664Y16510953D01*
X8976953Y16481664D01*
X8993624Y16470525D01*
X9013290Y16466612D01*
X10098613D01*
Y16313000D01*
X10102524Y16293335D01*
X10113664Y16276665D01*
X10130335Y16265524D01*
X10150000Y16261613D01*
X10169665Y16265524D01*
X10186336Y16276665D01*
X10197476Y16293335D01*
X10201387Y16313000D01*
Y16488710D01*
X10197476Y16508376D01*
X10186336Y16525047D01*
X10157047Y16554337D01*
X10140376Y16565475D01*
X10120711Y16569386D01*
X9733959D01*
X9720868Y16594788D01*
X9722553Y16597153D01*
X10302566D01*
X10306153Y16593565D01*
Y14823524D01*
X10297349Y14814758D01*
X10292231Y14813919D01*
X10269847Y14823221D01*
Y15753000D01*
X10266890Y15767867D01*
X10258469Y15780469D01*
X10192471Y15846468D01*
X10179868Y15854887D01*
X10165002Y15857845D01*
X10045892D01*
X10044131Y15859605D01*
X10026526Y15866898D01*
X10007470D01*
X9989865Y15859605D01*
X9976391Y15846130D01*
X9969098Y15828526D01*
Y15809470D01*
X9976391Y15791866D01*
X9989865Y15778391D01*
X10007470Y15771098D01*
X10026526D01*
X10044131Y15778391D01*
X10045892Y15780151D01*
X10148911D01*
X10192154Y15736909D01*
Y14812292D01*
X10190393Y14810532D01*
X10183100Y14792928D01*
Y14773871D01*
X10190393Y14756265D01*
X10203867Y14742792D01*
X10221472Y14735500D01*
X10240528D01*
X10258133Y14742792D01*
X10271608Y14756265D01*
X10273634Y14761157D01*
X10300421Y14759454D01*
X10304392Y14749867D01*
X10317867Y14736392D01*
X10335472Y14729100D01*
X10354528D01*
X10372133Y14736392D01*
X10385607Y14749867D01*
X10392900Y14767471D01*
Y14786528D01*
X10385607Y14804134D01*
X10383846Y14805894D01*
Y16609656D01*
X10380889Y16624522D01*
X10372468Y16637125D01*
X10346125Y16663467D01*
X10333523Y16671889D01*
X10318657Y16674846D01*
X9682772D01*
X9667906Y16671889D01*
X9656025Y16663950D01*
X9638520D01*
X9620915Y16656657D01*
X9607440Y16643182D01*
X9600148Y16625578D01*
Y16606522D01*
X9605009Y16594788D01*
X9596825Y16576270D01*
X9591049Y16569386D01*
X9035387D01*
Y18767999D01*
X9031476Y18787665D01*
X9020336Y18804337D01*
X8842336Y18982336D01*
X8825665Y18993475D01*
X8806000Y18997388D01*
X8299175D01*
X8294709Y19003207D01*
X8276869Y19016895D01*
X8256095Y19025500D01*
X8233801Y19028436D01*
X3440298D01*
X3418004Y19025500D01*
X3409399Y19021936D01*
X3397229Y19016896D01*
X3379390Y19003207D01*
X3338320Y18962137D01*
X2645293D01*
X2622999Y18959203D01*
X2602225Y18950597D01*
X2584385Y18936908D01*
X2584384Y18936906D01*
X2514093Y18866615D01*
X2500404Y18848776D01*
X2495364Y18836607D01*
X2491799Y18828001D01*
X2488864Y18805708D01*
Y17636304D01*
X-30698D01*
X-38000Y17658678D01*
Y18989000D01*
X1067000D01*
X1076000Y18998000D01*
Y20085001D01*
X14088000D01*
Y19134396D01*
D02*
G37*
G36*
X2690079Y11554078D02*
Y40000D01*
X841829D01*
X841000Y42000D01*
Y803000D01*
X15743D01*
X-8000Y807000D01*
Y11555000D01*
X2689697D01*
X2690079Y11554078D01*
D02*
G37*
%LPC*%
G36*
X2146160Y19768401D02*
X2121040D01*
X2096777Y19761900D01*
X2075023Y19749339D01*
X2057261Y19731578D01*
X2044702Y19709824D01*
X2038200Y19685561D01*
Y19660442D01*
X2044702Y19636179D01*
X2057261Y19614424D01*
X2075023Y19596661D01*
X2096777Y19584103D01*
X2121040Y19577602D01*
X2146160D01*
X2170423Y19584103D01*
X2192177Y19596661D01*
X2209939Y19614424D01*
X2222498Y19636179D01*
X2229000Y19660442D01*
Y19685561D01*
X2222498Y19709824D01*
X2209939Y19731578D01*
X2192177Y19749339D01*
X2170423Y19761900D01*
X2146160Y19768401D01*
D02*
G37*
G36*
X3022600Y19438531D02*
X2994432Y19434824D01*
X2968185Y19423952D01*
X2945645Y19406656D01*
X2928349Y19384116D01*
X2917477Y19357867D01*
X2913769Y19329700D01*
Y19164700D01*
X2917477Y19136533D01*
X2928349Y19110284D01*
X2945645Y19087746D01*
X2968185Y19070450D01*
X2994432Y19059578D01*
X3022600Y19055869D01*
X3050768Y19059578D01*
X3077015Y19070450D01*
X3099555Y19087746D01*
X3116851Y19110284D01*
X3127723Y19136533D01*
X3131431Y19164700D01*
Y19329700D01*
X3127723Y19357867D01*
X3116851Y19384116D01*
X3099555Y19406656D01*
X3077015Y19423952D01*
X3050768Y19434824D01*
X3022600Y19438531D01*
D02*
G37*
G36*
X13830299Y18816391D02*
X13814537Y18813255D01*
X13801173Y18804327D01*
X13792244Y18790964D01*
X13789108Y18775200D01*
X13792244Y18759438D01*
X13800658Y18745200D01*
X13792244Y18730963D01*
X13789108Y18715199D01*
X13792244Y18699437D01*
X13801173Y18686073D01*
X13814537Y18677144D01*
X13830299Y18674010D01*
X13846063Y18677144D01*
X13859427Y18686073D01*
X13868356Y18699437D01*
X13871490Y18715199D01*
X13868356Y18730963D01*
X13859943Y18745200D01*
X13868356Y18759438D01*
X13871490Y18775200D01*
X13868356Y18790964D01*
X13859427Y18804327D01*
X13846063Y18813255D01*
X13830299Y18816391D01*
D02*
G37*
G36*
X576626Y18715500D02*
X540974D01*
X506537Y18706273D01*
X475662Y18688448D01*
X450453Y18663239D01*
X432627Y18632362D01*
X423400Y18597926D01*
Y18562274D01*
X432627Y18527837D01*
X450453Y18496962D01*
X475662Y18471753D01*
X506537Y18453928D01*
X540974Y18444701D01*
X576626D01*
X611063Y18453928D01*
X641938Y18471753D01*
X667147Y18496962D01*
X684973Y18527837D01*
X694200Y18562274D01*
Y18597926D01*
X684973Y18632362D01*
X667147Y18663239D01*
X641938Y18688448D01*
X611063Y18706273D01*
X576626Y18715500D01*
D02*
G37*
G36*
X3009899Y18686858D02*
X2994432Y18684822D01*
X2968185Y18673950D01*
X2945645Y18656654D01*
X2928349Y18634116D01*
X2917477Y18607867D01*
X2913769Y18579700D01*
Y18561360D01*
X2913063Y18560440D01*
X2900428Y18529936D01*
X2896118Y18497198D01*
Y18470003D01*
X2896118Y18470001D01*
X2900428Y18437265D01*
X2913063Y18406760D01*
X2915177Y18404005D01*
X2917477Y18386533D01*
X2928349Y18360284D01*
X2945645Y18337744D01*
X2968185Y18320448D01*
X2994432Y18309576D01*
X3009899Y18307539D01*
Y18497198D01*
Y18686858D01*
D02*
G37*
G36*
X4383999Y19663136D02*
X2710999D01*
X2688706Y19660201D01*
X2667931Y19651596D01*
X2650091Y19637907D01*
X2072692Y19060509D01*
X2059003Y19042668D01*
X2053963Y19030499D01*
X2050398Y19021893D01*
X2047463Y18999600D01*
Y18214606D01*
X2044702Y18209822D01*
X2038238Y18185699D01*
X2133600D01*
X2228962D01*
X2222498Y18209822D01*
X2219737Y18214606D01*
Y18963921D01*
X2746679Y19490862D01*
X4383999D01*
X4406293Y19493797D01*
X4427068Y19502403D01*
X4444907Y19516090D01*
X4458596Y19533931D01*
X4467201Y19554704D01*
X4470136Y19576999D01*
X4467201Y19599294D01*
X4458596Y19620067D01*
X4444907Y19637907D01*
X4427068Y19651596D01*
X4406293Y19660201D01*
X4383999Y19663136D01*
D02*
G37*
G36*
X576626Y18207500D02*
X571500D01*
Y18084801D01*
X694200D01*
Y18089926D01*
X684973Y18124364D01*
X667147Y18155238D01*
X641938Y18180447D01*
X611063Y18198273D01*
X576626Y18207500D01*
D02*
G37*
G36*
X546100D02*
X540974D01*
X506537Y18198273D01*
X475662Y18180447D01*
X450453Y18155238D01*
X432627Y18124364D01*
X423400Y18089926D01*
Y18084801D01*
X546100D01*
Y18207500D01*
D02*
G37*
G36*
X2228962Y18160300D02*
X2146300D01*
Y18077637D01*
X2170423Y18084100D01*
X2192177Y18096660D01*
X2209939Y18114423D01*
X2222498Y18136176D01*
X2228962Y18160300D01*
D02*
G37*
G36*
X2120900D02*
X2038238D01*
X2044702Y18136176D01*
X2057261Y18114423D01*
X2075023Y18096660D01*
X2096777Y18084100D01*
X2120900Y18077637D01*
Y18160300D01*
D02*
G37*
G36*
X14032001Y18778387D02*
X14012335Y18774477D01*
X13995663Y18763336D01*
X13984525Y18746664D01*
X13980614Y18727000D01*
X13984525Y18707335D01*
X13990613Y18698222D01*
Y18156285D01*
X13968715Y18134387D01*
X13626807D01*
X13607141Y18130476D01*
X13590469Y18119336D01*
X13579330Y18102666D01*
X13575418Y18083000D01*
X13579330Y18063335D01*
X13590469Y18046664D01*
X13607141Y18035524D01*
X13626807Y18031613D01*
X13989999D01*
X14009665Y18035524D01*
X14026337Y18046664D01*
X14078336Y18098663D01*
X14089476Y18115335D01*
X14093387Y18135001D01*
Y18193176D01*
X14117804Y18208318D01*
X14120653Y18203098D01*
Y18018350D01*
X14114099Y18002527D01*
Y17983472D01*
X14121391Y17965866D01*
X14134866Y17952393D01*
X14152470Y17945099D01*
X14171526D01*
X14189133Y17952393D01*
X14202606Y17965866D01*
X14209898Y17983472D01*
Y18002527D01*
X14202606Y18020132D01*
X14198346Y18024393D01*
Y18232652D01*
X14204900Y18248476D01*
Y18267529D01*
X14197607Y18285136D01*
X14184132Y18298610D01*
X14166528Y18305902D01*
X14147472D01*
X14129868Y18298610D01*
X14118787Y18287531D01*
X14107616Y18289021D01*
X14093387Y18295317D01*
Y18717000D01*
X14089476Y18736665D01*
X14078336Y18753336D01*
X14068336Y18763336D01*
X14051665Y18774477D01*
X14032001Y18778387D01*
D02*
G37*
G36*
X694200Y18059399D02*
X571500D01*
Y17936700D01*
X576626D01*
X611063Y17945927D01*
X641938Y17963753D01*
X667147Y17988962D01*
X684973Y18019836D01*
X694200Y18054274D01*
Y18059399D01*
D02*
G37*
G36*
X546100D02*
X423400D01*
Y18054274D01*
X432627Y18019836D01*
X450453Y17988962D01*
X475662Y17963753D01*
X506537Y17945927D01*
X540974Y17936700D01*
X546100D01*
Y18059399D01*
D02*
G37*
G36*
X14292528Y18240900D02*
X14273473D01*
X14255867Y18233607D01*
X14242392Y18220132D01*
X14235100Y18202528D01*
Y18183472D01*
X14242392Y18165868D01*
X14243652Y18164606D01*
Y17823393D01*
X14241393Y17821133D01*
X14234100Y17803528D01*
Y17784473D01*
X14241393Y17766867D01*
X14254868Y17753392D01*
X14272472Y17746100D01*
X14291528D01*
X14309132Y17753392D01*
X14322607Y17766867D01*
X14329900Y17784473D01*
Y17803528D01*
X14322607Y17821133D01*
X14321346Y17822394D01*
Y18163606D01*
X14323607Y18165868D01*
X14330901Y18183472D01*
Y18202528D01*
X14323607Y18220132D01*
X14310133Y18233607D01*
X14292528Y18240900D01*
D02*
G37*
G36*
X13779498Y17685815D02*
X13776402D01*
X13745413Y17679652D01*
X13716222Y17667561D01*
X13689951Y17650008D01*
X13667609Y17627666D01*
X13650055Y17601395D01*
X13639870Y17576804D01*
X13234529D01*
X13224344Y17601395D01*
X13206790Y17627666D01*
X13184448Y17650008D01*
X13158177Y17667561D01*
X13128986Y17679652D01*
X13097997Y17685815D01*
X13094897D01*
Y17525415D01*
Y17365016D01*
X13097997D01*
X13128986Y17371181D01*
X13158177Y17383270D01*
X13184448Y17400826D01*
X13206790Y17423167D01*
X13224344Y17449438D01*
X13234529Y17474030D01*
X13639870D01*
X13650055Y17449438D01*
X13667609Y17423167D01*
X13689951Y17400826D01*
X13716222Y17383270D01*
X13745413Y17371181D01*
X13776402Y17365016D01*
X13779498D01*
Y17525415D01*
Y17685815D01*
D02*
G37*
G36*
X13807999D02*
X13804900D01*
Y17538115D01*
X13952600D01*
Y17541214D01*
X13946436Y17572203D01*
X13934344Y17601395D01*
X13916791Y17627666D01*
X13894449Y17650008D01*
X13868178Y17667561D01*
X13838988Y17679652D01*
X13807999Y17685815D01*
D02*
G37*
G36*
X13069498D02*
X13066402D01*
X13035413Y17679652D01*
X13006221Y17667561D01*
X12979950Y17650008D01*
X12957608Y17627666D01*
X12940054Y17601395D01*
X12927963Y17572203D01*
X12921799Y17541214D01*
Y17538115D01*
X13069498D01*
Y17685815D01*
D02*
G37*
G36*
Y17512715D02*
X12921799D01*
Y17509618D01*
X12927963Y17478629D01*
X12940054Y17449438D01*
X12957608Y17423167D01*
X12979950Y17400826D01*
X13006221Y17383270D01*
X13035413Y17371181D01*
X13066402Y17365016D01*
X13069498D01*
Y17512715D01*
D02*
G37*
G36*
X13782199Y17326421D02*
X13692200D01*
X13673820Y17324002D01*
X13656696Y17316908D01*
X13656111Y17316460D01*
X13637199Y17307814D01*
X13618288Y17316460D01*
X13617703Y17316908D01*
X13600577Y17324002D01*
X13582199Y17326421D01*
X13492200D01*
X13473820Y17324002D01*
X13456696Y17316908D01*
X13456111Y17316460D01*
X13437199Y17307814D01*
X13418288Y17316460D01*
X13417703Y17316908D01*
X13400578Y17324002D01*
X13382201Y17326421D01*
X13292200D01*
X13273822Y17324002D01*
X13256696Y17316908D01*
X13256111Y17316460D01*
X13237199Y17307814D01*
X13218288Y17316460D01*
X13217703Y17316908D01*
X13200578Y17324002D01*
X13182201Y17326421D01*
X13149899D01*
Y17255415D01*
X13137199D01*
Y17242715D01*
X13022864D01*
X13023611Y17237036D01*
X13030705Y17219910D01*
X13041991Y17205203D01*
X13056696Y17193919D01*
X13058311Y17193250D01*
Y17144208D01*
X13035413Y17139653D01*
X13006221Y17127562D01*
X12979950Y17110008D01*
X12957608Y17087666D01*
X12940054Y17061395D01*
X12927963Y17032204D01*
X12921799Y17001215D01*
Y16998117D01*
X13082199D01*
Y16985417D01*
X13094899D01*
Y16825017D01*
X13097997D01*
X13128986Y16831181D01*
X13158177Y16843272D01*
X13184448Y16860826D01*
X13206790Y16883168D01*
X13224344Y16909439D01*
X13234529Y16934030D01*
X13639870D01*
X13650055Y16909439D01*
X13667609Y16883168D01*
X13689951Y16860826D01*
X13716222Y16843272D01*
X13745413Y16831181D01*
X13776402Y16825017D01*
X13779500D01*
Y16985417D01*
X13792200D01*
D01*
X13779500D01*
Y17145818D01*
X13776402D01*
X13745413Y17139653D01*
X13716222Y17127562D01*
X13689951Y17110008D01*
X13667609Y17087666D01*
X13650055Y17061395D01*
X13639870Y17036804D01*
X13234529D01*
X13224344Y17061395D01*
X13206790Y17087666D01*
X13184448Y17110008D01*
X13161087Y17125616D01*
Y17184406D01*
X13182201D01*
X13200578Y17186826D01*
X13217703Y17193919D01*
X13218288Y17194368D01*
X13237199Y17203014D01*
X13256111Y17194368D01*
X13256696Y17193919D01*
X13273822Y17186826D01*
X13292200Y17184406D01*
X13382201D01*
X13400578Y17186826D01*
X13417703Y17193919D01*
X13418288Y17194368D01*
X13437199Y17203014D01*
X13456111Y17194368D01*
X13456696Y17193919D01*
X13473820Y17186826D01*
X13492200Y17184406D01*
X13582199D01*
X13600577Y17186826D01*
X13617703Y17193919D01*
X13618288Y17194368D01*
X13637199Y17203014D01*
X13656111Y17194368D01*
X13656696Y17193919D01*
X13673820Y17186826D01*
X13692200Y17184406D01*
X13782199D01*
X13800577Y17186826D01*
X13817703Y17193919D01*
X13832410Y17205203D01*
X13843694Y17219910D01*
X13850787Y17237036D01*
X13853206Y17255414D01*
X13850787Y17273792D01*
X13843694Y17290916D01*
X13832410Y17305624D01*
X13817703Y17316908D01*
X13800577Y17324002D01*
X13782199Y17326421D01*
D02*
G37*
G36*
X13124500D02*
X13092200D01*
X13073822Y17324002D01*
X13056696Y17316908D01*
X13041991Y17305624D01*
X13030705Y17290916D01*
X13023611Y17273792D01*
X13022865Y17268117D01*
X13124500D01*
Y17326421D01*
D02*
G37*
G36*
X13952600Y17512715D02*
X13804900D01*
Y17365016D01*
X13807999D01*
X13838988Y17371181D01*
X13868178Y17383270D01*
X13883691Y17393637D01*
X13914613Y17362715D01*
Y17180502D01*
X13863577Y17129466D01*
X13838988Y17139653D01*
X13807999Y17145818D01*
X13804900D01*
Y16998117D01*
X13952600D01*
Y17001215D01*
X13946436Y17032204D01*
X13936250Y17056795D01*
X14002336Y17122881D01*
X14013477Y17139552D01*
X14017387Y17159216D01*
Y17384000D01*
X14013477Y17403665D01*
X14002336Y17420337D01*
X13945735Y17476936D01*
X13946436Y17478629D01*
X13952600Y17509618D01*
Y17512715D01*
D02*
G37*
G36*
Y16972717D02*
X13804900D01*
Y16825017D01*
X13807999D01*
X13838988Y16831181D01*
X13868178Y16843272D01*
X13894449Y16860826D01*
X13916791Y16883168D01*
X13934344Y16909439D01*
X13946436Y16938631D01*
X13952600Y16969620D01*
Y16972717D01*
D02*
G37*
G36*
X13069499D02*
X12921799D01*
Y16969620D01*
X12927963Y16938631D01*
X12940054Y16909439D01*
X12957608Y16883168D01*
X12979950Y16860826D01*
X13006221Y16843272D01*
X13035413Y16831181D01*
X13066402Y16825017D01*
X13069499D01*
Y16972717D01*
D02*
G37*
G36*
X12643528Y16691901D02*
X12624473D01*
X12606868Y16684608D01*
X12605107Y16682848D01*
X12496494D01*
X12494733Y16684608D01*
X12477128Y16691901D01*
X12458072D01*
X12440467Y16684608D01*
X12438706Y16682848D01*
X12285893D01*
X12284132Y16684608D01*
X12266526Y16691901D01*
X12247471D01*
X12229866Y16684608D01*
X12216391Y16671133D01*
X12209099Y16653528D01*
Y16634473D01*
X12216391Y16616867D01*
X12229866Y16603394D01*
X12247471Y16596100D01*
X12266526D01*
X12284132Y16603394D01*
X12285893Y16605154D01*
X12438706D01*
X12440467Y16603394D01*
X12458072Y16596100D01*
X12477128D01*
X12494733Y16603394D01*
X12496494Y16605154D01*
X12605107D01*
X12606868Y16603394D01*
X12624473Y16596100D01*
X12643528D01*
X12661134Y16603394D01*
X12674608Y16616867D01*
X12681900Y16634473D01*
Y16653528D01*
X12674608Y16671133D01*
X12661134Y16684608D01*
X12643528Y16691901D01*
D02*
G37*
G36*
X6732800Y16582800D02*
X6644700D01*
Y16494701D01*
X6732800D01*
Y16582800D01*
D02*
G37*
G36*
X6619300D02*
X6531200D01*
Y16494701D01*
X6619300D01*
Y16582800D01*
D02*
G37*
G36*
X6899270D02*
X6872729D01*
X6847093Y16575931D01*
X6824108Y16562660D01*
X6805340Y16543893D01*
X6792069Y16520908D01*
X6785200Y16495271D01*
Y16468730D01*
X6792069Y16443092D01*
X6805340Y16420108D01*
X6824108Y16401340D01*
X6847093Y16388071D01*
X6872729Y16381200D01*
X6899270D01*
X6924907Y16388071D01*
X6947892Y16401340D01*
X6966660Y16420108D01*
X6979930Y16443092D01*
X6986800Y16468730D01*
Y16495271D01*
X6979930Y16520908D01*
X6966660Y16543893D01*
X6947892Y16562660D01*
X6924907Y16575931D01*
X6899270Y16582800D01*
D02*
G37*
G36*
X6732800Y16469299D02*
X6644700D01*
Y16381200D01*
X6732800D01*
Y16469299D01*
D02*
G37*
G36*
X6619300D02*
X6531200D01*
Y16381200D01*
X6619300D01*
Y16469299D01*
D02*
G37*
G36*
X8130273Y16607397D02*
X8095722D01*
X8061836Y16600658D01*
X8029915Y16587434D01*
X8001187Y16568240D01*
X7976756Y16543810D01*
X7957560Y16515080D01*
X7944338Y16483160D01*
X7937598Y16449274D01*
Y16414723D01*
X7944338Y16380836D01*
X7957560Y16348915D01*
X7976756Y16320187D01*
X8001187Y16295757D01*
X8029915Y16276561D01*
X8061836Y16263339D01*
X8095722Y16256598D01*
X8130273D01*
X8164160Y16263339D01*
X8196081Y16276561D01*
X8224809Y16295757D01*
X8249240Y16320187D01*
X8268435Y16348915D01*
X8281657Y16380836D01*
X8288398Y16414723D01*
Y16449274D01*
X8281657Y16483160D01*
X8268435Y16515080D01*
X8249240Y16543810D01*
X8224809Y16568240D01*
X8196081Y16587434D01*
X8164160Y16600658D01*
X8130273Y16607397D01*
D02*
G37*
G36*
X5930277D02*
X5895727D01*
X5861840Y16600658D01*
X5829919Y16587434D01*
X5801191Y16568240D01*
X5776760Y16543810D01*
X5757565Y16515080D01*
X5744343Y16483160D01*
X5737602Y16449274D01*
Y16414723D01*
X5744343Y16380836D01*
X5757565Y16348915D01*
X5776760Y16320187D01*
X5801191Y16295757D01*
X5829919Y16276561D01*
X5861840Y16263339D01*
X5895727Y16256598D01*
X5930277D01*
X5964164Y16263339D01*
X5996085Y16276561D01*
X6024813Y16295757D01*
X6049244Y16320187D01*
X6068439Y16348915D01*
X6081661Y16380836D01*
X6088402Y16414723D01*
Y16449274D01*
X6081661Y16483160D01*
X6068439Y16515080D01*
X6049244Y16543810D01*
X6024813Y16568240D01*
X5996085Y16587434D01*
X5964164Y16600658D01*
X5930277Y16607397D01*
D02*
G37*
G36*
X12293028Y16035899D02*
X12273972D01*
X12256367Y16028607D01*
X12242892Y16015134D01*
X12235600Y15997527D01*
Y15978471D01*
X12242892Y15960866D01*
X12256367Y15947392D01*
X12273972Y15940100D01*
X12293028D01*
X12302816Y15944154D01*
X12397554D01*
X12401565Y15940143D01*
X12419171Y15932851D01*
X12438226D01*
X12455832Y15940143D01*
X12459843Y15944154D01*
X12597106D01*
X12598867Y15942393D01*
X12616472Y15935101D01*
X12635527D01*
X12653133Y15942393D01*
X12666607Y15955869D01*
X12673899Y15973473D01*
Y15992529D01*
X12666607Y16010133D01*
X12653133Y16023608D01*
X12635527Y16030901D01*
X12616472D01*
X12598867Y16023608D01*
X12597106Y16021848D01*
X12454650D01*
X12438226Y16028650D01*
X12419171D01*
X12402747Y16021848D01*
X12317393D01*
X12310633Y16028607D01*
X12293028Y16035899D01*
D02*
G37*
G36*
X10787000Y17341386D02*
X10767335Y17337476D01*
X10750664Y17326337D01*
X10645664Y17221336D01*
X10634524Y17204665D01*
X10630613Y17185001D01*
Y16353000D01*
Y16158286D01*
X10571664Y16099336D01*
X10560524Y16082664D01*
X10556613Y16063000D01*
Y15920290D01*
X10560524Y15900624D01*
X10571664Y15883952D01*
X10600953Y15854665D01*
X10617624Y15843524D01*
X10637290Y15839613D01*
X11149000D01*
X11168665Y15843524D01*
X11185336Y15854665D01*
X11196336Y15865665D01*
X11207475Y15882335D01*
X11211387Y15902000D01*
X11207475Y15921664D01*
X11196336Y15938336D01*
X11179665Y15949475D01*
X11160000Y15953387D01*
X11140335Y15949475D01*
X11129727Y15942387D01*
X10742553D01*
X10736064Y15960889D01*
X10735528Y15967787D01*
X10747607Y15979868D01*
X10754900Y15997472D01*
Y15999963D01*
X10778806Y16023869D01*
X10787227Y16036472D01*
X10790184Y16051338D01*
Y16445544D01*
X10795507Y16450868D01*
X10802800Y16468472D01*
Y16487529D01*
X10795507Y16505135D01*
X10782033Y16518610D01*
X10764428Y16525900D01*
X10745372D01*
X10733387Y16533910D01*
Y17163715D01*
X10823336Y17253664D01*
X10834476Y17270335D01*
X10838387Y17289999D01*
X10834476Y17309665D01*
X10823336Y17326337D01*
X10806665Y17337476D01*
X10787000Y17341386D01*
D02*
G37*
G36*
X12128528Y15747900D02*
X12109472D01*
X12091867Y15740608D01*
X12078392Y15727133D01*
X12071100Y15709528D01*
Y15690472D01*
X12078392Y15672867D01*
X12091867Y15659393D01*
X12109472Y15652100D01*
X12128528D01*
X12143142Y15658154D01*
X12495106D01*
X12499867Y15653394D01*
X12517472Y15646100D01*
X12536528D01*
X12554133Y15653394D01*
X12567608Y15666867D01*
X12574900Y15684473D01*
Y15703528D01*
X12567608Y15721133D01*
X12554133Y15734608D01*
X12536528Y15741901D01*
X12517472D01*
X12502858Y15735847D01*
X12150894D01*
X12146133Y15740608D01*
X12128528Y15747900D01*
D02*
G37*
G36*
X14136156Y15512901D02*
X14099846D01*
X14064774Y15503503D01*
X14033328Y15485349D01*
X14007652Y15459674D01*
X13989497Y15428229D01*
X13980101Y15393156D01*
Y15356847D01*
X13989497Y15321774D01*
X14007652Y15290327D01*
X14033328Y15264653D01*
X14064774Y15246500D01*
X14099846Y15237102D01*
X14136156D01*
X14171228Y15246500D01*
X14202673Y15264653D01*
X14228348Y15290327D01*
X14246503Y15321774D01*
X14255901Y15356847D01*
Y15393156D01*
X14246503Y15428229D01*
X14228348Y15459674D01*
X14202673Y15485349D01*
X14171228Y15503503D01*
X14136156Y15512901D01*
D02*
G37*
G36*
X12835703Y15219305D02*
Y15167702D01*
X12887306D01*
X12883945Y15180244D01*
X12875336Y15195158D01*
X12863159Y15207333D01*
X12848245Y15215944D01*
X12835703Y15219305D01*
D02*
G37*
G36*
X14136156Y15131902D02*
X14099846D01*
X14064774Y15122504D01*
X14033328Y15104349D01*
X14007652Y15078674D01*
X13989497Y15047227D01*
X13980101Y15012157D01*
Y14975845D01*
X13989497Y14940775D01*
X14007652Y14909328D01*
X14033328Y14883653D01*
X14064774Y14865498D01*
X14099846Y14856100D01*
X14136156D01*
X14171228Y14865498D01*
X14202673Y14883653D01*
X14228348Y14909328D01*
X14246503Y14940775D01*
X14255901Y14975845D01*
Y15012157D01*
X14246503Y15047227D01*
X14228348Y15078674D01*
X14202673Y15104349D01*
X14171228Y15122504D01*
X14136156Y15131902D01*
D02*
G37*
G36*
X12810303Y15219305D02*
X12797759Y15215944D01*
X12782845Y15207333D01*
X12770669Y15195158D01*
X12762059Y15180244D01*
X12757602Y15163612D01*
Y15162274D01*
X12703664Y15108336D01*
X12692524Y15091666D01*
X12688613Y15071999D01*
Y14869058D01*
X12692524Y14849393D01*
X12697614Y14841776D01*
Y14690100D01*
X12696669Y14689156D01*
X12688059Y14674242D01*
X12684698Y14661697D01*
X12813306D01*
X12809946Y14674242D01*
X12801335Y14689156D01*
X12800389Y14690100D01*
Y14860057D01*
X12796477Y14879723D01*
X12791387Y14887340D01*
Y15050714D01*
X12830275Y15089603D01*
X12831612D01*
X12848245Y15094058D01*
X12863159Y15102669D01*
X12875336Y15114845D01*
X12883945Y15129758D01*
X12887306Y15142300D01*
X12823003D01*
Y15155000D01*
X12810303D01*
Y15219305D01*
D02*
G37*
G36*
X11195530Y14643898D02*
X11176475D01*
X11158869Y14636606D01*
X11153608Y14631345D01*
X11026936D01*
X11013529Y14636897D01*
X10994474D01*
X10976868Y14629605D01*
X10963394Y14616132D01*
X10956102Y14598526D01*
Y14579469D01*
X10963394Y14561865D01*
X10976868Y14548392D01*
X10994474Y14541098D01*
X11013529D01*
X11031134Y14548392D01*
X11036396Y14553651D01*
X11163068D01*
X11176475Y14548099D01*
X11195530D01*
X11213136Y14555391D01*
X11226610Y14568864D01*
X11233902Y14586470D01*
Y14605527D01*
X11226610Y14623131D01*
X11213136Y14636606D01*
X11195530Y14643898D01*
D02*
G37*
G36*
X14136156Y14750900D02*
X14130701D01*
Y14625700D01*
X14255901D01*
Y14631155D01*
X14246503Y14666228D01*
X14228348Y14697675D01*
X14202673Y14723349D01*
X14171228Y14741502D01*
X14136156Y14750900D01*
D02*
G37*
G36*
X14105301D02*
X14099846D01*
X14064774Y14741502D01*
X14033328Y14723349D01*
X14007652Y14697675D01*
X13989497Y14666228D01*
X13980101Y14631155D01*
Y14625700D01*
X14105301D01*
Y14750900D01*
D02*
G37*
G36*
X12813306Y14636298D02*
X12761702D01*
Y14584694D01*
X12774245Y14588055D01*
X12789158Y14596664D01*
X12801335Y14608841D01*
X12809946Y14623753D01*
X12813306Y14636298D01*
D02*
G37*
G36*
X12736302D02*
X12684698D01*
X12688059Y14623753D01*
X12696669Y14608841D01*
X12708845Y14596664D01*
X12723758Y14588055D01*
X12736302Y14584694D01*
Y14636298D01*
D02*
G37*
G36*
X14255901Y14600301D02*
X14130701D01*
Y14475101D01*
X14136156D01*
X14171228Y14484499D01*
X14202673Y14502654D01*
X14228348Y14528328D01*
X14246503Y14559773D01*
X14255901Y14594846D01*
Y14600301D01*
D02*
G37*
G36*
X14105301D02*
X13980101D01*
Y14594846D01*
X13989497Y14559773D01*
X14007652Y14528328D01*
X14033328Y14502654D01*
X14064774Y14484499D01*
X14099846Y14475101D01*
X14105301D01*
Y14600301D01*
D02*
G37*
G36*
X10290028Y14286900D02*
X10270973D01*
X10253367Y14279607D01*
X10247106Y14273346D01*
X9557220D01*
X9546227Y14277901D01*
X9527171D01*
X9509566Y14270607D01*
X9496091Y14257133D01*
X9488799Y14239528D01*
Y14220473D01*
X9496091Y14202867D01*
X9509566Y14189392D01*
X9527171Y14182100D01*
X9546227D01*
X9563832Y14189392D01*
X9570093Y14195653D01*
X10259980D01*
X10270973Y14191100D01*
X10290028D01*
X10307633Y14198392D01*
X10321108Y14211867D01*
X10328400Y14229472D01*
Y14248528D01*
X10321108Y14266133D01*
X10307633Y14279607D01*
X10290028Y14286900D01*
D02*
G37*
G36*
X14136156Y14369901D02*
X14099846D01*
X14064774Y14360503D01*
X14033328Y14342349D01*
X14007652Y14316673D01*
X13989497Y14285228D01*
X13980101Y14250156D01*
Y14213846D01*
X13989497Y14178773D01*
X14007652Y14147328D01*
X14033328Y14121654D01*
X14064774Y14103499D01*
X14099846Y14094101D01*
X14136156D01*
X14171228Y14103499D01*
X14202673Y14121654D01*
X14228348Y14147328D01*
X14246503Y14178773D01*
X14255901Y14213846D01*
Y14250156D01*
X14246503Y14285228D01*
X14228348Y14316673D01*
X14202673Y14342349D01*
X14171228Y14360503D01*
X14136156Y14369901D01*
D02*
G37*
G36*
X5930277Y14407402D02*
X5895727D01*
X5861840Y14400662D01*
X5829919Y14387440D01*
X5801191Y14368243D01*
X5776760Y14343813D01*
X5757565Y14315085D01*
X5744343Y14283163D01*
X5737602Y14249278D01*
Y14214726D01*
X5744343Y14180840D01*
X5757565Y14148920D01*
X5776760Y14120190D01*
X5801191Y14095760D01*
X5829919Y14076566D01*
X5861840Y14063342D01*
X5895727Y14056602D01*
X5930277D01*
X5964164Y14063342D01*
X5996085Y14076566D01*
X6024813Y14095760D01*
X6049244Y14120190D01*
X6068439Y14148920D01*
X6081661Y14180840D01*
X6088402Y14214726D01*
Y14249278D01*
X6081661Y14283163D01*
X6068439Y14315085D01*
X6049244Y14343813D01*
X6024813Y14368243D01*
X5996085Y14387440D01*
X5964164Y14400662D01*
X5930277Y14407402D01*
D02*
G37*
G36*
X14136156Y13988901D02*
X14099846D01*
X14064774Y13979503D01*
X14033328Y13961349D01*
X14007652Y13935674D01*
X13989497Y13904228D01*
X13980101Y13869156D01*
Y13832846D01*
X13989497Y13797774D01*
X14007652Y13766328D01*
X14033328Y13740652D01*
X14064774Y13722499D01*
X14099846Y13713101D01*
X14136156D01*
X14171228Y13722499D01*
X14202673Y13740652D01*
X14228348Y13766328D01*
X14246503Y13797774D01*
X14255901Y13832846D01*
Y13869156D01*
X14246503Y13904228D01*
X14228348Y13935674D01*
X14202673Y13961349D01*
X14171228Y13979503D01*
X14136156Y13988901D01*
D02*
G37*
G36*
X13390527Y14499899D02*
X13371472D01*
X13353867Y14492609D01*
X13340392Y14479134D01*
X13333099Y14461528D01*
Y14442473D01*
X13340392Y14424867D01*
X13353867Y14411394D01*
X13361153Y14408376D01*
Y13718895D01*
X13359390Y13717134D01*
X13352100Y13699529D01*
Y13680473D01*
X13359390Y13662868D01*
X13372865Y13649393D01*
X13390471Y13642101D01*
X13409526D01*
X13427132Y13649393D01*
X13440607Y13662868D01*
X13447897Y13680473D01*
Y13699529D01*
X13440607Y13717134D01*
X13438844Y13718895D01*
Y14433002D01*
X13435889Y14447867D01*
X13428899Y14458327D01*
Y14461528D01*
X13421606Y14479134D01*
X13408131Y14492609D01*
X13390527Y14499899D01*
D02*
G37*
G36*
X14136156Y13607901D02*
X14130701D01*
Y13482701D01*
X14255901D01*
Y13488156D01*
X14246503Y13523228D01*
X14228348Y13554674D01*
X14202673Y13580350D01*
X14171228Y13598503D01*
X14136156Y13607901D01*
D02*
G37*
G36*
X14105301D02*
X14099846D01*
X14064774Y13598503D01*
X14033328Y13580350D01*
X14007652Y13554674D01*
X13989497Y13523228D01*
X13980101Y13488156D01*
Y13482701D01*
X14105301D01*
Y13607901D01*
D02*
G37*
G36*
X4879000Y13561050D02*
X4461000D01*
X4441316Y13558459D01*
X4422975Y13550862D01*
X4407224Y13538776D01*
X4395138Y13523026D01*
X4387541Y13504683D01*
X4384949Y13485001D01*
X4387541Y13465315D01*
X4395138Y13446976D01*
X4407224Y13431224D01*
X4422975Y13419138D01*
X4441316Y13411542D01*
X4461000Y13408949D01*
X4879000D01*
X4898683Y13411542D01*
X4917025Y13419138D01*
X4932776Y13431224D01*
X4944862Y13446976D01*
X4952459Y13465315D01*
X4955051Y13485001D01*
X4952459Y13504683D01*
X4944862Y13523026D01*
X4932776Y13538776D01*
X4917025Y13550862D01*
X4898683Y13558459D01*
X4879000Y13561050D01*
D02*
G37*
G36*
X14255901Y13457301D02*
X14130701D01*
Y13332101D01*
X14136156D01*
X14171228Y13341499D01*
X14202673Y13359653D01*
X14228348Y13385329D01*
X14246503Y13416774D01*
X14255901Y13451846D01*
Y13457301D01*
D02*
G37*
G36*
X14105301D02*
X13980101D01*
Y13451846D01*
X13989497Y13416774D01*
X14007652Y13385329D01*
X14033328Y13359653D01*
X14064774Y13341499D01*
X14099846Y13332101D01*
X14105301D01*
Y13457301D01*
D02*
G37*
G36*
X7230000Y13567052D02*
X7210317Y13564459D01*
X7191975Y13556862D01*
X7176224Y13544775D01*
X7164138Y13529025D01*
X7156541Y13510683D01*
X7153949Y13491000D01*
X7156541Y13471317D01*
X7164138Y13452975D01*
X7176224Y13437224D01*
X7208224Y13405225D01*
X7223975Y13393138D01*
X7231572Y13389992D01*
X7242316Y13385541D01*
X7262000Y13382948D01*
X8217499D01*
X8250224Y13350224D01*
X8265975Y13338138D01*
X8284317Y13330540D01*
X8304000Y13327950D01*
X8323683Y13330540D01*
X8342025Y13338138D01*
X8357776Y13350224D01*
X8369862Y13365974D01*
X8377459Y13384317D01*
X8380051Y13403999D01*
X8377459Y13423683D01*
X8369862Y13442026D01*
X8357776Y13457776D01*
X8302776Y13512776D01*
X8287025Y13524863D01*
X8268683Y13532458D01*
X8249000Y13535051D01*
X7293501D01*
X7283776Y13544775D01*
X7268025Y13556862D01*
X7249683Y13564459D01*
X7230000Y13567052D01*
D02*
G37*
G36*
X14134154Y12957899D02*
X14097844D01*
X14062772Y12948502D01*
X14031326Y12930347D01*
X14005652Y12904672D01*
X13987497Y12873227D01*
X13978099Y12838155D01*
Y12801845D01*
X13987497Y12766772D01*
X14005652Y12735327D01*
X14031326Y12709652D01*
X14062772Y12691497D01*
X14097844Y12682100D01*
X14134154D01*
X14169228Y12691497D01*
X14200671Y12709652D01*
X14226347Y12735327D01*
X14244502Y12766772D01*
X14253899Y12801845D01*
Y12838155D01*
X14244502Y12873227D01*
X14226347Y12904672D01*
X14200671Y12930347D01*
X14169228Y12948502D01*
X14134154Y12957899D01*
D02*
G37*
G36*
X12862701Y12680306D02*
Y12628702D01*
X12914307D01*
X12910945Y12641246D01*
X12902335Y12656159D01*
X12890160Y12668335D01*
X12875246Y12676945D01*
X12862701Y12680306D01*
D02*
G37*
G36*
X6348528Y12692900D02*
X6329472D01*
X6311867Y12685608D01*
X6298393Y12672133D01*
X6291100Y12654528D01*
Y12635472D01*
X6298393Y12617867D01*
X6311867Y12604393D01*
X6329472Y12597100D01*
X6348528D01*
X6366133Y12604393D01*
X6367894Y12606154D01*
X8813445D01*
X8814393Y12603867D01*
X8827867Y12590392D01*
X8845472Y12583100D01*
X8864528D01*
X8882133Y12590392D01*
X8895608Y12603867D01*
X8902900Y12621472D01*
Y12640528D01*
X8895608Y12658133D01*
X8882133Y12671607D01*
X8864528Y12678900D01*
X8853540D01*
X8850562Y12680890D01*
X8835696Y12683847D01*
X6367894D01*
X6366133Y12685608D01*
X6348528Y12692900D01*
D02*
G37*
G36*
X12837302Y12680306D02*
X12824759Y12676945D01*
X12809846Y12668335D01*
X12797669Y12656159D01*
X12789059Y12641246D01*
X12784602Y12624612D01*
Y12623275D01*
X12700716Y12539389D01*
X11107100D01*
X11106154Y12540334D01*
X11091241Y12548944D01*
X11078698Y12552305D01*
Y12488001D01*
Y12423698D01*
X11091241Y12427058D01*
X11106154Y12435669D01*
X11107100Y12436614D01*
X11169611D01*
Y11677389D01*
X10616103D01*
X10615157Y11678335D01*
X10600244Y11686945D01*
X10587700Y11690306D01*
Y11626002D01*
Y11561698D01*
X10600244Y11565059D01*
X10615157Y11573669D01*
X10616103Y11574614D01*
X11191712D01*
X11211378Y11578526D01*
X11228049Y11589665D01*
X11257335Y11618952D01*
X11268474Y11635623D01*
X11272386Y11655288D01*
Y12436614D01*
X12689613D01*
Y12231101D01*
X12688668Y12230155D01*
X12680058Y12215242D01*
X12676697Y12202698D01*
X12805305D01*
X12801944Y12215242D01*
X12793334Y12230155D01*
X12792388Y12231101D01*
Y12485715D01*
X12857275Y12550602D01*
X12858612D01*
X12875246Y12555059D01*
X12890160Y12563669D01*
X12902335Y12575846D01*
X12910945Y12590759D01*
X12914307Y12603302D01*
X12850002D01*
Y12616002D01*
X12837302D01*
Y12680306D01*
D02*
G37*
G36*
X11053298Y12552305D02*
X11040754Y12548944D01*
X11025841Y12540334D01*
X11013665Y12528158D01*
X11005055Y12513245D01*
X11001694Y12500701D01*
X11053298D01*
Y12552305D01*
D02*
G37*
G36*
Y12475301D02*
X11001694D01*
X11005055Y12462758D01*
X11013665Y12447845D01*
X11025841Y12435669D01*
X11040754Y12427058D01*
X11053298Y12423698D01*
Y12475301D01*
D02*
G37*
G36*
X14134154Y12576900D02*
X14097844D01*
X14062772Y12567502D01*
X14031326Y12549347D01*
X14005652Y12523672D01*
X13987497Y12492227D01*
X13978099Y12457155D01*
Y12420845D01*
X13987497Y12385772D01*
X14005652Y12354327D01*
X14031326Y12328652D01*
X14062772Y12310497D01*
X14097844Y12301100D01*
X14134154D01*
X14169228Y12310497D01*
X14200671Y12328652D01*
X14226347Y12354327D01*
X14244502Y12385772D01*
X14253899Y12420845D01*
Y12457155D01*
X14244502Y12492227D01*
X14226347Y12523672D01*
X14200671Y12549347D01*
X14169228Y12567502D01*
X14134154Y12576900D01*
D02*
G37*
G36*
X12805305Y12177298D02*
X12753701D01*
Y12125695D01*
X12766244Y12129055D01*
X12781157Y12137666D01*
X12793334Y12149842D01*
X12801944Y12164755D01*
X12805305Y12177298D01*
D02*
G37*
G36*
X12728301D02*
X12676697D01*
X12680058Y12164755D01*
X12688668Y12149842D01*
X12700844Y12137666D01*
X12715757Y12129055D01*
X12728301Y12125695D01*
Y12177298D01*
D02*
G37*
G36*
X14134154Y12195900D02*
X14128699D01*
Y12070700D01*
X14253899D01*
Y12076155D01*
X14244502Y12111227D01*
X14226347Y12142672D01*
X14200671Y12168347D01*
X14169228Y12186502D01*
X14134154Y12195900D01*
D02*
G37*
G36*
X14103299D02*
X14097844D01*
X14062772Y12186502D01*
X14031326Y12168347D01*
X14005652Y12142672D01*
X13987497Y12111227D01*
X13978099Y12076155D01*
Y12070700D01*
X14103299D01*
Y12195900D01*
D02*
G37*
G36*
X7409000Y12303340D02*
X7389317Y12300749D01*
X7370975Y12293152D01*
X7355224Y12281066D01*
X7343138Y12265315D01*
X7335541Y12246973D01*
X7332949Y12227290D01*
X7335541Y12207607D01*
X7343138Y12189264D01*
X7355224Y12173514D01*
X7451513Y12077224D01*
X7467264Y12065138D01*
X7485606Y12057541D01*
X7505290Y12054949D01*
X8313000D01*
X8332683Y12057541D01*
X8351025Y12065138D01*
X8366776Y12077224D01*
X8378862Y12092975D01*
X8386459Y12111317D01*
X8389051Y12131000D01*
X8386459Y12150684D01*
X8378862Y12169025D01*
X8366776Y12184776D01*
X8351025Y12196862D01*
X8332683Y12204459D01*
X8313000Y12207051D01*
X7536791D01*
X7462776Y12281066D01*
X7447025Y12293152D01*
X7428683Y12300749D01*
X7409000Y12303340D01*
D02*
G37*
G36*
X14253899Y12045300D02*
X14128699D01*
Y11920100D01*
X14134154D01*
X14169228Y11929497D01*
X14200671Y11947652D01*
X14226347Y11973327D01*
X14244502Y12004772D01*
X14253899Y12039845D01*
Y12045300D01*
D02*
G37*
G36*
X14103299D02*
X13978099D01*
Y12039845D01*
X13987497Y12004772D01*
X14005652Y11973327D01*
X14031326Y11947652D01*
X14062772Y11929497D01*
X14097844Y11920100D01*
X14103299D01*
Y12045300D01*
D02*
G37*
G36*
X10707302Y11936898D02*
X10688246D01*
X10670641Y11929606D01*
X10659881Y11918846D01*
X10138579D01*
X10138448Y11918900D01*
X10119393D01*
X10101787Y11911607D01*
X10088313Y11898133D01*
X10081020Y11880528D01*
Y11861472D01*
X10088313Y11843867D01*
X10101787Y11830392D01*
X10119393Y11823100D01*
X10138448D01*
X10156053Y11830392D01*
X10166814Y11841153D01*
X10688116D01*
X10688246Y11841098D01*
X10707302D01*
X10724907Y11848391D01*
X10738381Y11861865D01*
X10745674Y11879471D01*
Y11898526D01*
X10738381Y11916131D01*
X10724907Y11929606D01*
X10707302Y11936898D01*
D02*
G37*
G36*
X10562300Y11690306D02*
X10549757Y11686945D01*
X10534844Y11678335D01*
X10522668Y11666158D01*
X10514057Y11651245D01*
X10510697Y11638702D01*
X10562300D01*
Y11690306D01*
D02*
G37*
G36*
Y11613302D02*
X10510697D01*
X10514057Y11600758D01*
X10522668Y11585845D01*
X10534844Y11573669D01*
X10549757Y11565059D01*
X10562300Y11561698D01*
Y11613302D01*
D02*
G37*
G36*
X14134154Y11814900D02*
X14097844D01*
X14062772Y11805502D01*
X14031326Y11787347D01*
X14005652Y11761672D01*
X13987497Y11730227D01*
X13978099Y11695155D01*
Y11658845D01*
X13987497Y11623772D01*
X14005652Y11592327D01*
X14031326Y11566652D01*
X14062772Y11548497D01*
X14097844Y11539100D01*
X14134154D01*
X14169228Y11548497D01*
X14200671Y11566652D01*
X14226347Y11592327D01*
X14244502Y11623772D01*
X14253899Y11658845D01*
Y11695155D01*
X14244502Y11730227D01*
X14226347Y11761672D01*
X14200671Y11787347D01*
X14169228Y11805502D01*
X14134154Y11814900D01*
D02*
G37*
G36*
Y11433900D02*
X14097844D01*
X14062772Y11424502D01*
X14031326Y11406347D01*
X14005652Y11380672D01*
X13987497Y11349227D01*
X13978099Y11314155D01*
Y11277845D01*
X13987497Y11242772D01*
X14005652Y11211327D01*
X14031326Y11185652D01*
X14062772Y11167497D01*
X14097844Y11158100D01*
X14134154D01*
X14169228Y11167497D01*
X14200671Y11185652D01*
X14226347Y11211327D01*
X14244502Y11242772D01*
X14253899Y11277845D01*
Y11314155D01*
X14244502Y11349227D01*
X14226347Y11380672D01*
X14200671Y11406347D01*
X14169228Y11424502D01*
X14134154Y11433900D01*
D02*
G37*
G36*
X13354527Y11905900D02*
X13335472D01*
X13317867Y11898607D01*
X13304391Y11885133D01*
X13297099Y11867528D01*
Y11848472D01*
X13304391Y11830867D01*
X13305153Y11830106D01*
Y11178894D01*
X13302393Y11176133D01*
X13295100Y11158528D01*
Y11139472D01*
X13302393Y11121867D01*
X13315868Y11108393D01*
X13333472Y11101100D01*
X13352528D01*
X13370132Y11108393D01*
X13383607Y11121867D01*
X13390900Y11139472D01*
Y11158528D01*
X13383607Y11176133D01*
X13382846Y11176894D01*
Y11828106D01*
X13385606Y11830867D01*
X13392900Y11848472D01*
Y11867528D01*
X13385606Y11885133D01*
X13372133Y11898607D01*
X13354527Y11905900D01*
D02*
G37*
G36*
X5767268Y11223469D02*
X5748731D01*
X5730826Y11218671D01*
X5714773Y11209403D01*
X5701666Y11196296D01*
X5692397Y11180242D01*
X5687600Y11162337D01*
Y11143800D01*
X5692397Y11125895D01*
X5701666Y11109842D01*
X5714773Y11096735D01*
X5730826Y11087467D01*
X5748731Y11082669D01*
X5767268D01*
X5785173Y11087467D01*
X5801226Y11096735D01*
X5814334Y11109842D01*
X5823602Y11125895D01*
X5828400Y11143800D01*
Y11162337D01*
X5823602Y11180242D01*
X5814334Y11196296D01*
X5801226Y11209403D01*
X5785173Y11218671D01*
X5767268Y11223469D01*
D02*
G37*
G36*
X5467269D02*
X5448732D01*
X5430827Y11218671D01*
X5414774Y11209403D01*
X5401666Y11196296D01*
X5392398Y11180242D01*
X5387600Y11162337D01*
Y11143800D01*
X5392398Y11125895D01*
X5401666Y11109842D01*
X5414774Y11096735D01*
X5430827Y11087467D01*
X5448732Y11082669D01*
X5467269D01*
X5485174Y11087467D01*
X5501227Y11096735D01*
X5514334Y11109842D01*
X5523603Y11125895D01*
X5528400Y11143800D01*
Y11162337D01*
X5523603Y11180242D01*
X5514334Y11196296D01*
X5501227Y11209403D01*
X5485174Y11218671D01*
X5467269Y11223469D01*
D02*
G37*
G36*
X14134154Y11052900D02*
X14128699D01*
Y10927700D01*
X14253899D01*
Y10933155D01*
X14244502Y10968227D01*
X14226347Y10999672D01*
X14200671Y11025347D01*
X14169228Y11043502D01*
X14134154Y11052900D01*
D02*
G37*
G36*
X14103299D02*
X14097844D01*
X14062772Y11043502D01*
X14031326Y11025347D01*
X14005652Y10999672D01*
X13987497Y10968227D01*
X13978099Y10933155D01*
Y10927700D01*
X14103299D01*
Y11052900D01*
D02*
G37*
G36*
X3325233Y10874299D02*
X3246298D01*
Y10795363D01*
X3269031Y10801455D01*
X3289964Y10813540D01*
X3307056Y10830632D01*
X3319142Y10851565D01*
X3325233Y10874299D01*
D02*
G37*
G36*
X3220898D02*
X3141962D01*
X3148054Y10851565D01*
X3160139Y10830632D01*
X3177231Y10813540D01*
X3198164Y10801455D01*
X3220898Y10795363D01*
Y10874299D01*
D02*
G37*
G36*
X3579398Y10978799D02*
X3395798D01*
Y10795199D01*
X3579398D01*
Y10978799D01*
D02*
G37*
G36*
X14253899Y10902300D02*
X14128699D01*
Y10777100D01*
X14134154D01*
X14169228Y10786497D01*
X14200671Y10804652D01*
X14226347Y10830327D01*
X14244502Y10861772D01*
X14253899Y10896845D01*
Y10902300D01*
D02*
G37*
G36*
X14103299D02*
X13978099D01*
Y10896845D01*
X13987497Y10861772D01*
X14005652Y10830327D01*
X14031326Y10804652D01*
X14062772Y10786497D01*
X14097844Y10777100D01*
X14103299D01*
Y10902300D01*
D02*
G37*
G36*
X5515526Y10969900D02*
X5496471D01*
X5478866Y10962607D01*
X5465391Y10949133D01*
X5458099Y10931528D01*
Y10912472D01*
X5465391Y10894867D01*
X5466151Y10894107D01*
Y10504514D01*
X5440751Y10493993D01*
X5438136Y10496609D01*
X5420530Y10503901D01*
X5401475D01*
X5383870Y10496609D01*
X5370395Y10483134D01*
X5363103Y10465529D01*
Y10446474D01*
X5366741Y10437691D01*
Y10390118D01*
X5366111Y10389176D01*
X5366109Y10389162D01*
X5366101Y10389150D01*
X5364641Y10381782D01*
X5363154Y10374310D01*
Y9808493D01*
X5361393Y9806732D01*
X5354101Y9789127D01*
Y9770072D01*
X5361393Y9752466D01*
X5374868Y9738992D01*
X5392473Y9731700D01*
X5411529D01*
X5429134Y9738992D01*
X5440751Y9750609D01*
X5449401Y9749715D01*
X5466151Y9742931D01*
Y9563891D01*
X5463395Y9561135D01*
X5456102Y9543530D01*
Y9524474D01*
X5463395Y9506869D01*
X5476869Y9493394D01*
X5494474Y9486102D01*
X5513530D01*
X5531135Y9493394D01*
X5544610Y9506869D01*
X5551902Y9524474D01*
Y9543530D01*
X5544610Y9561135D01*
X5543844Y9561900D01*
Y10892105D01*
X5546606Y10894867D01*
X5553898Y10912472D01*
Y10931528D01*
X5546606Y10949133D01*
X5533132Y10962607D01*
X5515526Y10969900D01*
D02*
G37*
G36*
X14131157Y10403899D02*
X14094847D01*
X14059775Y10394502D01*
X14028329Y10376347D01*
X14002654Y10350672D01*
X13984500Y10319227D01*
X13975102Y10284154D01*
Y10247844D01*
X13984500Y10212772D01*
X14002654Y10181327D01*
X14028329Y10155652D01*
X14059775Y10137497D01*
X14094847Y10128099D01*
X14131157D01*
X14166229Y10137497D01*
X14197675Y10155652D01*
X14223351Y10181327D01*
X14241504Y10212772D01*
X14250902Y10247844D01*
Y10284154D01*
X14241504Y10319227D01*
X14223351Y10350672D01*
X14197675Y10376347D01*
X14166229Y10394502D01*
X14131157Y10403899D01*
D02*
G37*
G36*
X13005699Y9880302D02*
Y9828698D01*
X13057303D01*
X13053941Y9841241D01*
X13045332Y9856154D01*
X13033156Y9868331D01*
X13018243Y9876941D01*
X13005699Y9880302D01*
D02*
G37*
G36*
X12980299D02*
X12967757Y9876941D01*
X12952843Y9868331D01*
X12940666Y9856154D01*
X12932056Y9841241D01*
X12928696Y9828698D01*
X12980299D01*
Y9880302D01*
D02*
G37*
G36*
X14131157Y10022899D02*
X14094847D01*
X14059775Y10013502D01*
X14028329Y9995347D01*
X14002654Y9969672D01*
X13984500Y9938227D01*
X13975102Y9903154D01*
Y9866844D01*
X13984500Y9831772D01*
X14002654Y9800327D01*
X14028329Y9774652D01*
X14059775Y9756497D01*
X14094847Y9747099D01*
X14131157D01*
X14166229Y9756497D01*
X14197675Y9774652D01*
X14223351Y9800327D01*
X14241504Y9831772D01*
X14250902Y9866844D01*
Y9903154D01*
X14241504Y9938227D01*
X14223351Y9969672D01*
X14197675Y9995347D01*
X14166229Y10013502D01*
X14131157Y10022899D01*
D02*
G37*
G36*
X10472100Y9901487D02*
X10452435Y9897575D01*
X10435764Y9886436D01*
X10424624Y9869765D01*
X10420713Y9850100D01*
Y9592594D01*
X10419611Y9587120D01*
X10423477Y9567446D01*
X10434578Y9550749D01*
X10451223Y9539571D01*
X10470879Y9535614D01*
X10490553Y9539481D01*
X10507250Y9550581D01*
X10508352Y9551679D01*
X10508386Y9551729D01*
X10508436Y9551762D01*
X10513937Y9559996D01*
X10519530Y9568324D01*
X10519542Y9568384D01*
X10519576Y9568434D01*
X10521511Y9578161D01*
X10523487Y9587980D01*
X10523476Y9588040D01*
X10523487Y9588099D01*
Y9850100D01*
X10519576Y9869765D01*
X10508436Y9886436D01*
X10491765Y9897575D01*
X10472100Y9901487D01*
D02*
G37*
G36*
X14131157Y9641899D02*
X14125702D01*
Y9516699D01*
X14250902D01*
Y9522154D01*
X14241504Y9557227D01*
X14223351Y9588672D01*
X14197675Y9614347D01*
X14166229Y9632502D01*
X14131157Y9641899D01*
D02*
G37*
G36*
X14100302D02*
X14094847D01*
X14059775Y9632502D01*
X14028329Y9614347D01*
X14002654Y9588672D01*
X13984500Y9557227D01*
X13975102Y9522154D01*
Y9516699D01*
X14100302D01*
Y9641899D01*
D02*
G37*
G36*
X14250902Y9491299D02*
X14125702D01*
Y9366099D01*
X14131157D01*
X14166229Y9375497D01*
X14197675Y9393652D01*
X14223351Y9419327D01*
X14241504Y9450772D01*
X14250902Y9485844D01*
Y9491299D01*
D02*
G37*
G36*
X14100302D02*
X13975102D01*
Y9485844D01*
X13984500Y9450772D01*
X14002654Y9419327D01*
X14028329Y9393652D01*
X14059775Y9375497D01*
X14094847Y9366099D01*
X14100302D01*
Y9491299D01*
D02*
G37*
G36*
X13057303Y9803298D02*
X12928696D01*
X12932056Y9790754D01*
X12940666Y9775841D01*
X12941612Y9774895D01*
Y9500286D01*
X12838371Y9397045D01*
X12837035D01*
X12820399Y9392588D01*
X12805487Y9383978D01*
X12793311Y9371802D01*
X12784701Y9356889D01*
X12781340Y9344345D01*
X12845644D01*
Y9331645D01*
X12858344D01*
Y9267341D01*
X12870888Y9270702D01*
X12885800Y9279312D01*
X12897977Y9291488D01*
X12906587Y9306402D01*
X12911044Y9323035D01*
Y9324373D01*
X13029335Y9442664D01*
X13040475Y9459335D01*
X13044386Y9479001D01*
Y9774895D01*
X13045332Y9775841D01*
X13053941Y9790754D01*
X13057303Y9803298D01*
D02*
G37*
G36*
X12832944Y9318945D02*
X12781340D01*
X12784701Y9306402D01*
X12793311Y9291488D01*
X12805487Y9279312D01*
X12820399Y9270702D01*
X12832944Y9267341D01*
Y9318945D01*
D02*
G37*
G36*
X9848528Y9704900D02*
X9829472D01*
X9811867Y9697607D01*
X9798392Y9684133D01*
X9791100Y9666528D01*
Y9647472D01*
X9798392Y9629867D01*
X9811867Y9616393D01*
X9829472Y9609100D01*
X9829714D01*
X9958283Y9480531D01*
X9970886Y9472111D01*
X9985751Y9469154D01*
X10266554D01*
Y9315896D01*
X10264793Y9314135D01*
X10257500Y9296530D01*
Y9277474D01*
X10264793Y9259869D01*
X10278267Y9246395D01*
X10295872Y9239102D01*
X10314928D01*
X10332533Y9246395D01*
X10346008Y9259869D01*
X10353300Y9277474D01*
Y9296530D01*
X10346008Y9314135D01*
X10344247Y9315896D01*
Y9493121D01*
X10341290Y9507987D01*
X10354510Y9525737D01*
X10367985Y9539211D01*
X10375277Y9556817D01*
Y9575872D01*
X10367985Y9593477D01*
X10354510Y9606952D01*
X10336905Y9614244D01*
X10317850D01*
X10300244Y9606952D01*
X10298483Y9605191D01*
X10042746D01*
X9987900Y9660038D01*
Y9664528D01*
X9980607Y9682133D01*
X9967133Y9695607D01*
X9949528Y9702900D01*
X9930472D01*
X9912867Y9695607D01*
X9905428Y9688169D01*
X9887680Y9685395D01*
X9874743Y9688997D01*
X9866133Y9697607D01*
X9848528Y9704900D01*
D02*
G37*
G36*
X11707010Y9336817D02*
X11546990D01*
X11537080Y9334846D01*
X11528678Y9329232D01*
X11523064Y9320830D01*
X11521093Y9310920D01*
Y9067080D01*
X11523064Y9057169D01*
X11528678Y9048768D01*
X11537080Y9043154D01*
X11546990Y9041182D01*
X11707010D01*
X11716921Y9043154D01*
X11725322Y9048768D01*
X11730936Y9057169D01*
X11732908Y9067080D01*
Y9310920D01*
X11730936Y9320830D01*
X11725322Y9329232D01*
X11716921Y9334846D01*
X11707010Y9336817D01*
D02*
G37*
G36*
X11049526Y9674901D02*
X11030470D01*
X11012865Y9667609D01*
X10999391Y9654134D01*
X10992098Y9636529D01*
Y9617474D01*
X10998807Y9601278D01*
Y8971575D01*
X11001942Y8955811D01*
X11010872Y8942448D01*
X11028448Y8924871D01*
X11041812Y8915942D01*
X11057575Y8912806D01*
X11411001D01*
X11422530Y8915100D01*
X11429530D01*
X11447136Y8922392D01*
X11460610Y8935867D01*
X11467902Y8953472D01*
Y8972527D01*
X11460610Y8990133D01*
X11447136Y9003607D01*
X11429530Y9010899D01*
X11410475D01*
X11392870Y9003607D01*
X11384452Y8995189D01*
X11081190D01*
Y9601278D01*
X11087898Y9617474D01*
Y9636529D01*
X11080606Y9654134D01*
X11067131Y9667609D01*
X11049526Y9674901D01*
D02*
G37*
G36*
X10676204Y8940386D02*
X9940000D01*
X9920335Y8936475D01*
X9903664Y8925335D01*
X9892524Y8908664D01*
X9888613Y8888999D01*
X9892524Y8869334D01*
X9903664Y8852663D01*
X9920335Y8841524D01*
X9940000Y8837612D01*
X10654919D01*
X10666223Y8826308D01*
X10682894Y8815169D01*
X10702559Y8811257D01*
X10722224Y8815169D01*
X10738895Y8826308D01*
X10750035Y8842979D01*
X10753946Y8862644D01*
X10750035Y8882309D01*
X10738895Y8898980D01*
X10712540Y8925335D01*
X10695869Y8936475D01*
X10676204Y8940386D01*
D02*
G37*
G36*
X14138158Y8986899D02*
X14101846D01*
X14066776Y8977502D01*
X14035330Y8959347D01*
X14009656Y8933672D01*
X13991499Y8902227D01*
X13982101Y8867154D01*
Y8830844D01*
X13991499Y8795772D01*
X14009656Y8764327D01*
X14035330Y8738652D01*
X14066776Y8720497D01*
X14101846Y8711099D01*
X14138158D01*
X14173230Y8720497D01*
X14204675Y8738652D01*
X14230350Y8764327D01*
X14248505Y8795772D01*
X14257903Y8830844D01*
Y8867154D01*
X14248505Y8902227D01*
X14230350Y8933672D01*
X14204675Y8959347D01*
X14173230Y8977502D01*
X14138158Y8986899D01*
D02*
G37*
G36*
Y8605899D02*
X14101846D01*
X14066776Y8596502D01*
X14035330Y8578347D01*
X14009656Y8552672D01*
X13991499Y8521227D01*
X13982101Y8486154D01*
Y8449844D01*
X13991499Y8414772D01*
X14009656Y8383327D01*
X14035330Y8357652D01*
X14066776Y8339497D01*
X14101846Y8330099D01*
X14138158D01*
X14173230Y8339497D01*
X14204675Y8357652D01*
X14230350Y8383327D01*
X14248505Y8414772D01*
X14257903Y8449844D01*
Y8486154D01*
X14248505Y8521227D01*
X14230350Y8552672D01*
X14204675Y8578347D01*
X14173230Y8596502D01*
X14138158Y8605899D01*
D02*
G37*
G36*
Y8224899D02*
X14132703D01*
Y8099699D01*
X14257903D01*
Y8105154D01*
X14248505Y8140227D01*
X14230350Y8171672D01*
X14204675Y8197347D01*
X14173230Y8215502D01*
X14138158Y8224899D01*
D02*
G37*
G36*
X14107301D02*
X14101846D01*
X14066776Y8215502D01*
X14035330Y8197347D01*
X14009656Y8171672D01*
X13991499Y8140227D01*
X13982101Y8105154D01*
Y8099699D01*
X14107301D01*
Y8224899D01*
D02*
G37*
G36*
X12785999Y8559051D02*
X12766316Y8556460D01*
X12747974Y8548863D01*
X12732223Y8536776D01*
X12664223Y8468776D01*
X12652136Y8453025D01*
X12644539Y8434683D01*
X12641948Y8415000D01*
Y8112999D01*
X12644539Y8093315D01*
X12652137Y8074973D01*
X12664223Y8059223D01*
X12679973Y8047137D01*
X12698315Y8039539D01*
X12717998Y8036948D01*
X12737682Y8039539D01*
X12756024Y8047137D01*
X12771774Y8059223D01*
X12783860Y8074973D01*
X12791458Y8093315D01*
X12794049Y8112999D01*
Y8383499D01*
X12839775Y8429225D01*
X12851862Y8444975D01*
X12859457Y8463317D01*
X12862050Y8483001D01*
X12859457Y8502684D01*
X12851862Y8521026D01*
X12839775Y8536776D01*
X12824025Y8548863D01*
X12805682Y8556460D01*
X12785999Y8559051D01*
D02*
G37*
G36*
X14257903Y8074299D02*
X14132703D01*
Y7949099D01*
X14138158D01*
X14173230Y7958497D01*
X14204675Y7976652D01*
X14230350Y8002327D01*
X14248505Y8033772D01*
X14257903Y8068844D01*
Y8074299D01*
D02*
G37*
G36*
X14107301D02*
X13982101D01*
Y8068844D01*
X13991499Y8033772D01*
X14009656Y8002327D01*
X14035330Y7976652D01*
X14066776Y7958497D01*
X14101846Y7949099D01*
X14107301D01*
Y8074299D01*
D02*
G37*
G36*
X5555768Y8122607D02*
X5535455D01*
X5515833Y8117349D01*
X5498240Y8107192D01*
X5483876Y8092828D01*
X5473719Y8075235D01*
X5468461Y8055613D01*
Y8035299D01*
X5473719Y8015677D01*
X5483876Y7998085D01*
X5498240Y7983721D01*
X5515833Y7973564D01*
X5535455Y7968306D01*
X5555820Y7967277D01*
X5556850Y7946911D01*
X5562107Y7927289D01*
X5572265Y7909697D01*
X5586629Y7895333D01*
X5604221Y7885175D01*
X5623843Y7879918D01*
X5644157D01*
X5663779Y7885175D01*
X5681371Y7895333D01*
X5695735Y7909697D01*
X5705892Y7927289D01*
X5711150Y7946911D01*
Y7967225D01*
X5705892Y7986847D01*
X5695735Y8004439D01*
X5681371Y8018803D01*
X5663779Y8028960D01*
X5644157Y8034218D01*
X5623791Y8035248D01*
X5622762Y8055614D01*
X5617504Y8075235D01*
X5607347Y8092828D01*
X5592983Y8107192D01*
X5575390Y8117349D01*
X5555768Y8122607D01*
D02*
G37*
G36*
X14138158Y7843899D02*
X14101846D01*
X14066776Y7834502D01*
X14035330Y7816347D01*
X14009656Y7790672D01*
X13991499Y7759227D01*
X13982101Y7724154D01*
Y7687844D01*
X13991499Y7652772D01*
X14009656Y7621327D01*
X14035330Y7595652D01*
X14066776Y7577497D01*
X14101846Y7568099D01*
X14138158D01*
X14173230Y7577497D01*
X14204675Y7595652D01*
X14230350Y7621327D01*
X14248505Y7652772D01*
X14257903Y7687844D01*
Y7724154D01*
X14248505Y7759227D01*
X14230350Y7790672D01*
X14204675Y7816347D01*
X14173230Y7834502D01*
X14138158Y7843899D01*
D02*
G37*
G36*
X6064590Y7685434D02*
X6044342D01*
X6024784Y7680193D01*
X6007248Y7670069D01*
X5992931Y7655752D01*
X5982807Y7638216D01*
X5977566Y7618658D01*
Y7598410D01*
X5982807Y7578852D01*
X5992931Y7561317D01*
X6007248Y7546999D01*
X6024784Y7536875D01*
X6044342Y7531634D01*
X6064590D01*
X6084148Y7536875D01*
X6101684Y7546999D01*
X6116001Y7561317D01*
X6126125Y7578852D01*
X6131366Y7598410D01*
Y7618658D01*
X6126125Y7638216D01*
X6116001Y7655752D01*
X6101684Y7670069D01*
X6084148Y7680193D01*
X6064590Y7685434D01*
D02*
G37*
G36*
X9489000Y8708387D02*
X9469335Y8704476D01*
X9452664Y8693336D01*
X9441524Y8676665D01*
X9437613Y8657000D01*
Y8616285D01*
X8428664Y7607336D01*
X8417524Y7590665D01*
X8413613Y7571000D01*
X8417524Y7551335D01*
X8428664Y7534664D01*
X8445335Y7523524D01*
X8465000Y7519613D01*
X8484665Y7523524D01*
X8501336Y7534664D01*
X9525336Y8558664D01*
X9536476Y8575335D01*
X9540387Y8595000D01*
Y8657000D01*
X9536476Y8676665D01*
X9525336Y8693336D01*
X9508665Y8704476D01*
X9489000Y8708387D01*
D02*
G37*
G36*
X5717000Y9217387D02*
X5409000D01*
X5389335Y9213476D01*
X5372664Y9202336D01*
X5309664Y9139336D01*
X5298524Y9122665D01*
X5294613Y9103000D01*
Y7292000D01*
X5298524Y7272335D01*
X5309664Y7255664D01*
X5313664Y7251664D01*
X5330335Y7240524D01*
X5350000Y7236613D01*
X5369665Y7240524D01*
X5386336Y7251664D01*
X5397476Y7268335D01*
X5401387Y7288000D01*
X5397476Y7307665D01*
X5397387Y7307797D01*
Y9081715D01*
X5430285Y9114613D01*
X5717000D01*
X5736665Y9118524D01*
X5753336Y9129664D01*
X5764476Y9146335D01*
X5768387Y9166000D01*
X5764476Y9185665D01*
X5753336Y9202336D01*
X5736665Y9213476D01*
X5717000Y9217387D01*
D02*
G37*
G36*
X14138158Y7462899D02*
X14101846D01*
X14066776Y7453502D01*
X14035330Y7435347D01*
X14009656Y7409672D01*
X13991499Y7378227D01*
X13982101Y7343154D01*
Y7306844D01*
X13991499Y7271772D01*
X14009656Y7240327D01*
X14035330Y7214652D01*
X14066776Y7196497D01*
X14101846Y7187099D01*
X14138158D01*
X14173230Y7196497D01*
X14204675Y7214652D01*
X14230350Y7240327D01*
X14248505Y7271772D01*
X14257903Y7306844D01*
Y7343154D01*
X14248505Y7378227D01*
X14230350Y7409672D01*
X14204675Y7435347D01*
X14173230Y7453502D01*
X14138158Y7462899D01*
D02*
G37*
G36*
X6409658Y7340366D02*
X6389410D01*
X6369852Y7335125D01*
X6352316Y7325001D01*
X6337999Y7310684D01*
X6327875Y7293148D01*
X6322634Y7273590D01*
Y7253342D01*
X6327875Y7233784D01*
X6337999Y7216248D01*
X6352316Y7201931D01*
X6369852Y7191807D01*
X6389410Y7186566D01*
X6409658D01*
X6429216Y7191807D01*
X6446752Y7201931D01*
X6461069Y7216248D01*
X6471193Y7233784D01*
X6476434Y7253342D01*
Y7273590D01*
X6471193Y7293148D01*
X6461069Y7310684D01*
X6446752Y7325001D01*
X6429216Y7335125D01*
X6409658Y7340366D01*
D02*
G37*
G36*
X8730528Y7077900D02*
X8711472D01*
X8693867Y7070607D01*
X8680393Y7057133D01*
X8679568Y7055141D01*
X8668966D01*
X8654101Y7052184D01*
X8641498Y7043763D01*
X8599410Y7001676D01*
X8595967Y7001374D01*
X8570929Y7009115D01*
X8567607Y7017133D01*
X8554133Y7030607D01*
X8536528Y7037900D01*
X8517472D01*
X8499867Y7030607D01*
X8489429Y7020169D01*
X8476371Y7018128D01*
X8459986Y7019755D01*
X8450133Y7029607D01*
X8432528Y7036900D01*
X8413472D01*
X8395867Y7029607D01*
X8382392Y7016133D01*
X8375100Y6998528D01*
Y6990734D01*
X8357531Y6973165D01*
X8349111Y6960562D01*
X8346153Y6945696D01*
Y6118894D01*
X8344393Y6117133D01*
X8337100Y6099528D01*
Y6080472D01*
X8344393Y6062867D01*
X8357867Y6049393D01*
X8375472Y6042100D01*
X8394528D01*
X8412133Y6049393D01*
X8418743Y6056003D01*
X8434500Y6060390D01*
X8450257Y6056003D01*
X8456867Y6049393D01*
X8474472Y6042100D01*
X8493528D01*
X8511133Y6049393D01*
X8524608Y6062867D01*
X8531900Y6080472D01*
Y6099528D01*
X8524608Y6117133D01*
X8522847Y6118894D01*
Y6187042D01*
X8526622Y6191113D01*
X8548247Y6201921D01*
X8557472Y6198100D01*
X8576528D01*
X8594133Y6205392D01*
X8596906Y6208166D01*
X8611318Y6217101D01*
X8630093Y6208166D01*
X8630867Y6207392D01*
X8648472Y6200100D01*
X8667528D01*
X8685133Y6207392D01*
X8698000Y6220259D01*
X8710867Y6207392D01*
X8728472Y6200100D01*
X8747528D01*
X8765133Y6207392D01*
X8778608Y6220867D01*
X8785900Y6238472D01*
Y6257528D01*
X8778608Y6275133D01*
X8777096Y6276644D01*
Y6326051D01*
X8774139Y6340917D01*
X8765718Y6353519D01*
X8752847Y6366391D01*
Y6857208D01*
X8801739Y6906100D01*
X8805528D01*
X8823133Y6913393D01*
X8836607Y6926867D01*
X8843900Y6944472D01*
Y6963528D01*
X8836607Y6981133D01*
X8823133Y6994608D01*
X8805528Y7001900D01*
X8788700D01*
X8773670Y7015431D01*
X8768900Y7020472D01*
Y7039528D01*
X8761608Y7057133D01*
X8748133Y7070607D01*
X8730528Y7077900D01*
D02*
G37*
G36*
X14138158Y7081899D02*
X14132703D01*
Y6956699D01*
X14257903D01*
Y6962154D01*
X14248505Y6997227D01*
X14230350Y7028672D01*
X14204675Y7054347D01*
X14173230Y7072502D01*
X14138158Y7081899D01*
D02*
G37*
G36*
X14107301D02*
X14101846D01*
X14066776Y7072502D01*
X14035330Y7054347D01*
X14009656Y7028672D01*
X13991499Y6997227D01*
X13982101Y6962154D01*
Y6956699D01*
X14107301D01*
Y7081899D01*
D02*
G37*
G36*
X13273531Y7848900D02*
X13254474D01*
X13236868Y7841608D01*
X13223393Y7828133D01*
X13216103Y7810528D01*
Y7791473D01*
X13223393Y7773867D01*
X13225156Y7772106D01*
Y6983897D01*
X13219391Y6978133D01*
X13212099Y6960527D01*
Y6941472D01*
X13219391Y6923867D01*
X13232866Y6910392D01*
X13250471Y6903100D01*
X13269527D01*
X13287132Y6910392D01*
X13300606Y6923867D01*
X13307899Y6941472D01*
Y6960527D01*
X13302847Y6972720D01*
Y7772106D01*
X13304610Y7773867D01*
X13311902Y7791473D01*
Y7810528D01*
X13304610Y7828133D01*
X13291135Y7841608D01*
X13273531Y7848900D01*
D02*
G37*
G36*
X14107301Y6931299D02*
X13982101D01*
Y6925844D01*
X13991499Y6890772D01*
X14009656Y6859327D01*
X14035330Y6833652D01*
X14066776Y6815497D01*
X14101846Y6806099D01*
X14107301D01*
Y6931299D01*
D02*
G37*
G36*
X14575169Y6143800D02*
X14533231D01*
X14492099Y6135618D01*
X14453354Y6119570D01*
X14418484Y6096270D01*
X14388831Y6066616D01*
X14365530Y6031746D01*
X14349483Y5993001D01*
X14341299Y5951869D01*
Y5909931D01*
X14349483Y5868799D01*
X14365530Y5830054D01*
X14388831Y5795184D01*
X14418484Y5765530D01*
X14453354Y5742230D01*
X14492099Y5726182D01*
X14533231Y5718000D01*
X14575169D01*
X14616301Y5726182D01*
X14655046Y5742230D01*
X14689915Y5765530D01*
X14719569Y5795184D01*
X14742870Y5830054D01*
X14758919Y5868799D01*
X14767101Y5909931D01*
Y5951869D01*
X14758919Y5993001D01*
X14742870Y6031746D01*
X14719569Y6066616D01*
X14689915Y6096270D01*
X14655046Y6119570D01*
X14616301Y6135618D01*
X14575169Y6143800D01*
D02*
G37*
G36*
X14587869Y3984800D02*
X14545930D01*
X14504799Y3976618D01*
X14466054Y3960570D01*
X14431184Y3937270D01*
X14401530Y3907616D01*
X14378230Y3872746D01*
X14362183Y3834001D01*
X14353999Y3792869D01*
Y3750931D01*
X14362183Y3709799D01*
X14378230Y3671054D01*
X14401530Y3636184D01*
X14431184Y3606530D01*
X14466054Y3583230D01*
X14504799Y3567182D01*
X14545930Y3559000D01*
X14587869D01*
X14629001Y3567182D01*
X14667746Y3583230D01*
X14702615Y3606530D01*
X14732269Y3636184D01*
X14755569Y3671054D01*
X14771619Y3709799D01*
X14779800Y3750931D01*
Y3792869D01*
X14771619Y3834001D01*
X14755569Y3872746D01*
X14732269Y3907616D01*
X14702615Y3937270D01*
X14667746Y3960570D01*
X14629001Y3976618D01*
X14587869Y3984800D01*
D02*
G37*
G36*
X8438657Y3588435D02*
X8418409D01*
X8398851Y3583194D01*
X8381315Y3573070D01*
X8366997Y3558753D01*
X8356874Y3541217D01*
X8351633Y3521659D01*
Y3501411D01*
X8356874Y3481853D01*
X8366997Y3464317D01*
X8381315Y3450000D01*
X8398851Y3439876D01*
X8418409Y3434635D01*
X8438657D01*
X8458215Y3439876D01*
X8475750Y3450000D01*
X8490068Y3464317D01*
X8500192Y3481853D01*
X8505433Y3501411D01*
Y3521659D01*
X8500192Y3541217D01*
X8490068Y3558753D01*
X8475750Y3573070D01*
X8458215Y3583194D01*
X8438657Y3588435D01*
D02*
G37*
G36*
X8093588Y3243366D02*
X8073339D01*
X8053781Y3238125D01*
X8036246Y3228001D01*
X8021928Y3213683D01*
X8011804Y3196148D01*
X8006564Y3176590D01*
Y3156341D01*
X8011804Y3136783D01*
X8021928Y3119248D01*
X8036246Y3104930D01*
X8053781Y3094806D01*
X8073339Y3089566D01*
X8093588D01*
X8113146Y3094806D01*
X8130681Y3104930D01*
X8144999Y3119248D01*
X8155123Y3136783D01*
X8160364Y3156341D01*
Y3176590D01*
X8155123Y3196148D01*
X8144999Y3213683D01*
X8130681Y3228001D01*
X8113146Y3238125D01*
X8093588Y3243366D01*
D02*
G37*
G36*
X7926822Y3823048D02*
X7907139Y3820457D01*
X7888797Y3812860D01*
X7873046Y3800774D01*
X7100134Y3027867D01*
X7088048Y3012117D01*
X7080451Y2993775D01*
X7077859Y2974091D01*
X7080451Y2954408D01*
X7088048Y2936066D01*
X7100134Y2920315D01*
X7115884Y2908229D01*
X7134227Y2900632D01*
X7153910Y2898040D01*
X7173593Y2900632D01*
X7191935Y2908229D01*
X7207686Y2920315D01*
X7980597Y3693222D01*
X7992684Y3708972D01*
X8000281Y3727314D01*
X8002872Y3746998D01*
X8000281Y3766681D01*
X7992684Y3785023D01*
X7980598Y3800773D01*
X7964847Y3812860D01*
X7946505Y3820457D01*
X7926822Y3823048D01*
D02*
G37*
G36*
X13138744Y2973933D02*
X13109657D01*
X13081133Y2968259D01*
X13054262Y2957129D01*
X13030080Y2940971D01*
X13009512Y2920405D01*
X12993355Y2896222D01*
X12982224Y2869351D01*
X12976550Y2840826D01*
Y2811741D01*
X12982224Y2783215D01*
X12993355Y2756345D01*
X13009512Y2732162D01*
X13030080Y2711596D01*
X13054262Y2695438D01*
X13081133Y2684308D01*
X13109657Y2678633D01*
X13138744D01*
X13167268Y2684308D01*
X13194139Y2695438D01*
X13218323Y2711596D01*
X13238889Y2732162D01*
X13255046Y2756345D01*
X13266176Y2783215D01*
X13271851Y2811741D01*
Y2840826D01*
X13266176Y2869351D01*
X13255046Y2896222D01*
X13238889Y2920405D01*
X13218323Y2940971D01*
X13194139Y2957129D01*
X13167268Y2968259D01*
X13138744Y2973933D01*
D02*
G37*
G36*
X13447705Y2811187D02*
X13410692D01*
X13374390Y2803966D01*
X13340195Y2789801D01*
X13309419Y2769238D01*
X13283247Y2743066D01*
X13262685Y2712290D01*
X13248518Y2678095D01*
X13241298Y2641793D01*
Y2604780D01*
X13248518Y2568478D01*
X13262685Y2534283D01*
X13283247Y2503507D01*
X13309419Y2477335D01*
X13340195Y2456772D01*
X13374390Y2442608D01*
X13410692Y2435387D01*
X13447705D01*
X13484007Y2442608D01*
X13518202Y2456772D01*
X13548978Y2477335D01*
X13575150Y2503507D01*
X13595712Y2534283D01*
X13609879Y2568478D01*
X13617097Y2604780D01*
Y2641793D01*
X13609879Y2678095D01*
X13595712Y2712290D01*
X13575150Y2743066D01*
X13548978Y2769238D01*
X13518202Y2789801D01*
X13484007Y2803966D01*
X13447705Y2811187D01*
D02*
G37*
G36*
X12552745Y2591084D02*
X12527652D01*
X12503414Y2584589D01*
X12481683Y2572043D01*
X12463939Y2554299D01*
X12451393Y2532568D01*
X12444898Y2508330D01*
Y2483237D01*
X12451393Y2458999D01*
X12463939Y2437268D01*
X12481683Y2419524D01*
X12503414Y2406978D01*
X12527652Y2400484D01*
X12552745D01*
X12576983Y2406978D01*
X12598714Y2419524D01*
X12616458Y2437268D01*
X12629004Y2458999D01*
X12635498Y2483237D01*
Y2508330D01*
X12629004Y2532568D01*
X12616458Y2554299D01*
X12598714Y2572043D01*
X12576983Y2584589D01*
X12552745Y2591084D01*
D02*
G37*
G36*
X12806744Y2464084D02*
X12781652D01*
X12757414Y2457589D01*
X12735683Y2445043D01*
X12717939Y2427299D01*
X12705393Y2405568D01*
X12698898Y2381330D01*
Y2356237D01*
X12705393Y2331999D01*
X12717939Y2310268D01*
X12735683Y2292524D01*
X12757414Y2279978D01*
X12781652Y2273484D01*
X12806744D01*
X12830983Y2279978D01*
X12852715Y2292524D01*
X12870457Y2310268D01*
X12883005Y2331999D01*
X12889497Y2356237D01*
Y2381330D01*
X12883005Y2405568D01*
X12870457Y2427299D01*
X12852715Y2445043D01*
X12830983Y2457589D01*
X12806744Y2464084D01*
D02*
G37*
G36*
X12552745Y2337084D02*
X12527652D01*
X12503414Y2330589D01*
X12481683Y2318043D01*
X12463939Y2300299D01*
X12451393Y2278568D01*
X12444898Y2254330D01*
Y2229237D01*
X12451393Y2204999D01*
X12463939Y2183268D01*
X12481683Y2165524D01*
X12503414Y2152978D01*
X12527652Y2146484D01*
X12552745D01*
X12576983Y2152978D01*
X12598714Y2165524D01*
X12616458Y2183268D01*
X12629004Y2204999D01*
X12635498Y2229237D01*
Y2254330D01*
X12629004Y2278568D01*
X12616458Y2300299D01*
X12598714Y2318043D01*
X12576983Y2330589D01*
X12552745Y2337084D01*
D02*
G37*
G36*
X12761001Y2776845D02*
X12249003D01*
X12242280Y2775507D01*
X12234138Y2773888D01*
X12234137Y2773888D01*
X12221535Y2765467D01*
X12136022Y2679960D01*
X12127602Y2667358D01*
X12127602Y2667357D01*
X12125982Y2659217D01*
X12124645Y2652493D01*
Y1957597D01*
X12123334Y1956840D01*
X12111158Y1944664D01*
X12102548Y1929751D01*
X12098091Y1913117D01*
Y1895897D01*
X12102548Y1879264D01*
X12111158Y1864351D01*
X12123334Y1852174D01*
X12138248Y1843564D01*
X12154881Y1839107D01*
X12172101D01*
X12188735Y1843564D01*
X12203648Y1852174D01*
X12215824Y1864351D01*
X12224434Y1879264D01*
X12228891Y1895897D01*
Y1913117D01*
X12224434Y1929751D01*
X12215824Y1944664D01*
X12203648Y1956840D01*
X12202338Y1957597D01*
Y2065250D01*
X12213635Y2072824D01*
X12227738Y2077418D01*
X12238755Y2071057D01*
X12255389Y2066600D01*
X12272609D01*
X12289242Y2071057D01*
X12304155Y2079667D01*
X12316332Y2091843D01*
X12324942Y2106756D01*
X12329399Y2123390D01*
Y2140610D01*
X12324942Y2157243D01*
X12316332Y2172156D01*
X12304155Y2184333D01*
X12302845Y2185089D01*
Y2632151D01*
X12734907D01*
X12921935Y2445124D01*
Y2153630D01*
X12881813D01*
X12870457Y2173299D01*
X12852715Y2191043D01*
X12830983Y2203589D01*
X12806744Y2210084D01*
X12781652D01*
X12757414Y2203589D01*
X12735683Y2191043D01*
X12717939Y2173299D01*
X12705393Y2151568D01*
X12698898Y2127330D01*
Y2102237D01*
X12705393Y2077999D01*
X12717939Y2056268D01*
X12735683Y2038524D01*
X12757414Y2025978D01*
X12781652Y2019484D01*
X12806744D01*
X12830983Y2025978D01*
X12852715Y2038524D01*
X12870457Y2056268D01*
X12881813Y2075937D01*
X12945901D01*
X12960768Y2078894D01*
X12973370Y2087315D01*
X12988251Y2102194D01*
X12996671Y2114797D01*
X12999628Y2129663D01*
Y2395055D01*
X13025027Y2407594D01*
X13035153Y2399838D01*
Y1910092D01*
X13024690Y1899630D01*
X12881813D01*
X12870457Y1919299D01*
X12852715Y1937043D01*
X12830983Y1949589D01*
X12806744Y1956084D01*
X12781652D01*
X12757414Y1949589D01*
X12735683Y1937043D01*
X12717939Y1919299D01*
X12705393Y1897568D01*
X12698898Y1873330D01*
Y1848237D01*
X12705393Y1823999D01*
X12717939Y1802268D01*
X12735683Y1784524D01*
X12757414Y1771978D01*
X12781652Y1765484D01*
X12806744D01*
X12830983Y1771978D01*
X12852715Y1784524D01*
X12870457Y1802268D01*
X12881813Y1821937D01*
X13040782D01*
X13055647Y1824894D01*
X13068250Y1833315D01*
X13101468Y1866533D01*
X13109889Y1879136D01*
X13112846Y1894002D01*
Y2424999D01*
X13109889Y2439865D01*
X13101468Y2452468D01*
X12788469Y2765467D01*
X12775866Y2773888D01*
X12761001Y2776845D01*
D02*
G37*
G36*
X12552745Y2083084D02*
X12527652D01*
X12503414Y2076589D01*
X12481683Y2064043D01*
X12463939Y2046299D01*
X12451393Y2024568D01*
X12444898Y2000330D01*
Y1975237D01*
X12451393Y1950999D01*
X12463939Y1929268D01*
X12481683Y1911524D01*
X12503414Y1898978D01*
X12527652Y1892484D01*
X12552745D01*
X12576983Y1898978D01*
X12598714Y1911524D01*
X12616458Y1929268D01*
X12629004Y1950999D01*
X12635498Y1975237D01*
Y2000330D01*
X12629004Y2024568D01*
X12616458Y2046299D01*
X12598714Y2064043D01*
X12576983Y2076589D01*
X12552745Y2083084D01*
D02*
G37*
G36*
Y1829084D02*
X12527652D01*
X12503414Y1822589D01*
X12481683Y1810043D01*
X12463939Y1792299D01*
X12451393Y1770568D01*
X12444898Y1746330D01*
Y1721237D01*
X12451393Y1696999D01*
X12463939Y1675268D01*
X12481683Y1657524D01*
X12503414Y1644978D01*
X12527652Y1638484D01*
X12552745D01*
X12576983Y1644978D01*
X12598714Y1657524D01*
X12616458Y1675268D01*
X12629004Y1696999D01*
X12635498Y1721237D01*
Y1746330D01*
X12629004Y1770568D01*
X12616458Y1792299D01*
X12598714Y1810043D01*
X12576983Y1822589D01*
X12552745Y1829084D01*
D02*
G37*
G36*
X11486002Y3082390D02*
X11466337Y3078478D01*
X11449666Y3067339D01*
X11438526Y3050667D01*
X11434615Y3031002D01*
Y2998003D01*
X11436886Y2986585D01*
X11438526Y2978339D01*
X11438526Y2978338D01*
X11438526Y2978338D01*
X11443504Y2970887D01*
X11449664Y2961668D01*
X11510611Y2900716D01*
Y2364289D01*
X11509524Y2362663D01*
X11509522Y2362650D01*
X11509514Y2362639D01*
X11507572Y2352850D01*
X11505613Y2342998D01*
Y1712390D01*
X10977001D01*
X10957336Y1708478D01*
X10940665Y1697339D01*
X10843000Y1599674D01*
X10812387Y1630285D01*
Y2741000D01*
X10808475Y2760665D01*
X10797336Y2777337D01*
X10780664Y2788476D01*
X10761000Y2792388D01*
X10741335Y2788476D01*
X10724663Y2777337D01*
X10713524Y2760665D01*
X10709612Y2741000D01*
Y1608999D01*
X10709613Y1608998D01*
X10709612Y1608997D01*
X10711279Y1600618D01*
X10713524Y1589334D01*
X10713524Y1589333D01*
X10713525Y1589332D01*
X10724663Y1572662D01*
X10724664Y1572661D01*
X10806666Y1490665D01*
X10814206Y1485627D01*
X10823336Y1479527D01*
X10823337Y1479526D01*
X10823337Y1479526D01*
X10830550Y1478092D01*
X10843001Y1475615D01*
X10843002Y1475615D01*
X10843003Y1475615D01*
X10855455Y1478092D01*
X10862666Y1479527D01*
X10862667Y1479527D01*
X10862668Y1479527D01*
X10879337Y1490666D01*
X10879338Y1490667D01*
X10879339Y1490668D01*
X10998287Y1609615D01*
X11557000D01*
X11576665Y1613527D01*
X11593336Y1624666D01*
X11604476Y1641338D01*
X11608387Y1661003D01*
Y2326710D01*
X11609474Y2328336D01*
X11609477Y2328349D01*
X11609484Y2328360D01*
X11611426Y2338149D01*
X11613386Y2348001D01*
Y2922001D01*
X11610909Y2934451D01*
X11609475Y2941664D01*
X11609475Y2941665D01*
X11609474Y2941666D01*
X11603374Y2950795D01*
X11598336Y2958336D01*
X11537389Y3019287D01*
Y3031002D01*
X11533478Y3050667D01*
X11522338Y3067339D01*
X11505667Y3078478D01*
X11486002Y3082390D01*
D02*
G37*
G36*
X12889497Y1702084D02*
X12698898D01*
Y1511484D01*
X12889497D01*
Y1702084D01*
D02*
G37*
G36*
X13447705Y1668187D02*
X13410692D01*
X13374390Y1660966D01*
X13340195Y1646801D01*
X13309419Y1626238D01*
X13283247Y1600066D01*
X13262685Y1569290D01*
X13248518Y1535095D01*
X13241298Y1498793D01*
Y1461780D01*
X13248518Y1425478D01*
X13262685Y1391283D01*
X13283247Y1360507D01*
X13309419Y1334335D01*
X13340195Y1313772D01*
X13374390Y1299608D01*
X13410692Y1292387D01*
X13447705D01*
X13484007Y1299608D01*
X13518202Y1313772D01*
X13548978Y1334335D01*
X13575150Y1360507D01*
X13595712Y1391283D01*
X13609879Y1425478D01*
X13617097Y1461780D01*
Y1498793D01*
X13609879Y1535095D01*
X13595712Y1569290D01*
X13575150Y1600066D01*
X13548978Y1626238D01*
X13518202Y1646801D01*
X13484007Y1660966D01*
X13447705Y1668187D01*
D02*
G37*
G36*
X13138744Y1424935D02*
X13109657D01*
X13081133Y1419261D01*
X13054262Y1408131D01*
X13030080Y1391972D01*
X13009512Y1371406D01*
X12993355Y1347223D01*
X12982224Y1320353D01*
X12976550Y1291827D01*
Y1262742D01*
X12982224Y1234217D01*
X12993355Y1207346D01*
X13009512Y1183163D01*
X13030080Y1162597D01*
X13054262Y1146439D01*
X13081133Y1135309D01*
X13109657Y1129635D01*
X13138744D01*
X13167268Y1135309D01*
X13194139Y1146439D01*
X13218323Y1162597D01*
X13238889Y1183163D01*
X13255046Y1207346D01*
X13266176Y1234217D01*
X13271851Y1262742D01*
Y1291827D01*
X13266176Y1320353D01*
X13255046Y1347223D01*
X13238889Y1371406D01*
X13218323Y1391972D01*
X13194139Y1408131D01*
X13167268Y1419261D01*
X13138744Y1424935D01*
D02*
G37*
G36*
X9394611Y3448401D02*
X9377391D01*
X9360758Y3443944D01*
X9345844Y3435333D01*
X9333668Y3423157D01*
X9325058Y3408244D01*
X9320601Y3391611D01*
Y3374391D01*
X9325058Y3357757D01*
X9333668Y3342844D01*
X9345844Y3330668D01*
X9360758Y3322058D01*
X9377391Y3317601D01*
X9394611D01*
X9411245Y3322058D01*
X9426158Y3330668D01*
X9434745Y3339255D01*
X9448302Y3340095D01*
X9454134Y3335921D01*
X9466081Y3314139D01*
X9464599Y3308609D01*
Y3291388D01*
X9469056Y3274755D01*
X9477666Y3259842D01*
X9489842Y3247666D01*
X9504755Y3239055D01*
X9521389Y3234599D01*
X9538609D01*
X9555242Y3239055D01*
X9570155Y3247666D01*
X9582332Y3259842D01*
X9583088Y3261152D01*
X13424908D01*
X13461153Y3224908D01*
Y3120642D01*
X13451669Y3111159D01*
X13443057Y3096246D01*
X13438602Y3079612D01*
Y3062392D01*
X13443057Y3045759D01*
X13451669Y3030846D01*
X13463844Y3018669D01*
X13478758Y3010059D01*
X13495390Y3005602D01*
X13512611D01*
X13529245Y3010059D01*
X13544157Y3018669D01*
X13556334Y3030846D01*
X13564944Y3045759D01*
X13569402Y3062392D01*
Y3079612D01*
X13564944Y3096246D01*
X13556334Y3111159D01*
X13544157Y3123335D01*
X13538844Y3126403D01*
Y3240999D01*
X13535889Y3255865D01*
X13527467Y3268468D01*
X13468468Y3327467D01*
X13468036Y3327756D01*
X13475742Y3353156D01*
X13656129D01*
X13678152Y3331132D01*
Y1171089D01*
X13676843Y1170333D01*
X13664667Y1158157D01*
X13656058Y1143244D01*
X13651601Y1126610D01*
Y1109390D01*
X13656058Y1092757D01*
X13664667Y1077843D01*
X13676843Y1065667D01*
X13691756Y1057057D01*
X13708389Y1052600D01*
X13725610D01*
X13742244Y1057057D01*
X13757156Y1065667D01*
X13769333Y1077843D01*
X13777943Y1092757D01*
X13782401Y1109390D01*
Y1126610D01*
X13777943Y1143244D01*
X13769333Y1158157D01*
X13757156Y1170333D01*
X13755847Y1171089D01*
Y3347223D01*
X13752888Y3362089D01*
X13744469Y3374691D01*
X13699689Y3419471D01*
X13687086Y3427892D01*
X13672221Y3430849D01*
X9430642D01*
X9426158Y3435333D01*
X9411245Y3443944D01*
X9394611Y3448401D01*
D02*
G37*
G36*
X12472609Y1075400D02*
X12455388D01*
X12438755Y1070944D01*
X12423842Y1062333D01*
X12411666Y1050157D01*
X12403055Y1035244D01*
X12398599Y1018611D01*
Y1001390D01*
X12403055Y984757D01*
X12411666Y969844D01*
X12423842Y957668D01*
X12438755Y949058D01*
X12455388Y944601D01*
X12472609D01*
X12489242Y949058D01*
X12504155Y957668D01*
X12514141Y967654D01*
X12604890D01*
X12607667Y962844D01*
X12619843Y950667D01*
X12634757Y942057D01*
X12651390Y937600D01*
X12668610D01*
X12685244Y942057D01*
X12700157Y950667D01*
X12712333Y962844D01*
X12720943Y977757D01*
X12725400Y994390D01*
Y1011610D01*
X12720943Y1028244D01*
X12712333Y1043157D01*
X12700157Y1055333D01*
X12685244Y1063943D01*
X12668610Y1068400D01*
X12651390D01*
X12634757Y1063943D01*
X12619843Y1055333D01*
X12609857Y1045347D01*
X12519109D01*
X12516331Y1050157D01*
X12504155Y1062333D01*
X12489242Y1070944D01*
X12472609Y1075400D01*
D02*
G37*
G36*
X9955002Y3181389D02*
X9935337Y3177477D01*
X9930259Y3174084D01*
X9921869Y3170609D01*
X9908395Y3157134D01*
X9901102Y3139529D01*
Y3120474D01*
X9908395Y3102868D01*
X9921869Y3089394D01*
X9923691Y3088639D01*
X10201008Y2811318D01*
X10203624Y2805003D01*
X10217098Y2791528D01*
X10223413Y2788912D01*
X10225408Y2786918D01*
X10225524Y2786334D01*
X10236663Y2769663D01*
X10253335Y2758523D01*
X10253919Y2758407D01*
X10425615Y2586715D01*
Y1705285D01*
X10385665Y1665335D01*
X10117664Y1397334D01*
X9872666Y1152336D01*
X9861527Y1135665D01*
X9857615Y1116000D01*
X9861527Y1096335D01*
X9872666Y1079664D01*
X9889337Y1068524D01*
X9909002Y1064613D01*
X9928667Y1068524D01*
X9945339Y1079664D01*
X10190337Y1324662D01*
X10352492Y1486817D01*
X10383900Y1482304D01*
X10385665Y1479663D01*
X10667665Y1197662D01*
X10684337Y1186522D01*
X10704002Y1182611D01*
X11574998D01*
X11594663Y1186522D01*
X11607578Y1195152D01*
X12636911D01*
X12911531Y920531D01*
X12924133Y912110D01*
X12939000Y909153D01*
X13976122D01*
X13990987Y912110D01*
X14003589Y920531D01*
X14018469Y935410D01*
X14026889Y948013D01*
X14029846Y962879D01*
Y1299015D01*
X14026889Y1313881D01*
X14019435Y1325037D01*
X14020695Y1330941D01*
X14030437Y1350437D01*
X14049284D01*
X14064149Y1353394D01*
X14076752Y1361815D01*
X14103468Y1388531D01*
X14111890Y1401134D01*
X14114847Y1416000D01*
Y2664000D01*
X14111890Y2678866D01*
X14103468Y2691469D01*
X14061269Y2733669D01*
X14048666Y2742090D01*
X14033800Y2745047D01*
X14016452D01*
X14014156Y2753617D01*
X14000740Y2776853D01*
X13981767Y2795825D01*
X13958533Y2809240D01*
X13932616Y2816185D01*
X13905785D01*
X13879868Y2809240D01*
X13856631Y2795825D01*
X13837660Y2776853D01*
X13824245Y2753617D01*
X13817300Y2727700D01*
Y2700869D01*
X13824245Y2674953D01*
X13837660Y2651717D01*
X13856631Y2632744D01*
X13879868Y2619329D01*
X13905785Y2612385D01*
X13932616D01*
X13958533Y2619329D01*
X13981767Y2632744D01*
X14000740Y2651716D01*
X14013696Y2652598D01*
X14037154Y2630517D01*
Y2508193D01*
X14026801Y2504332D01*
X14011754Y2503777D01*
X14000740Y2522853D01*
X13981767Y2541825D01*
X13958533Y2555240D01*
X13932616Y2562185D01*
X13905785D01*
X13879868Y2555240D01*
X13856631Y2541825D01*
X13837660Y2522853D01*
X13824245Y2499617D01*
X13817300Y2473700D01*
Y2446869D01*
X13824245Y2420953D01*
X13837660Y2397717D01*
X13856631Y2378744D01*
X13879868Y2365329D01*
X13905785Y2358385D01*
X13932616D01*
X13958533Y2365329D01*
X13981767Y2378744D01*
X14000740Y2397717D01*
X14011754Y2416792D01*
X14026801Y2416237D01*
X14037154Y2412376D01*
Y1691192D01*
X14026801Y1687331D01*
X14011754Y1686776D01*
X14000740Y1705852D01*
X13981767Y1724824D01*
X13958533Y1738239D01*
X13932616Y1745183D01*
X13905785D01*
X13879868Y1738239D01*
X13856631Y1724824D01*
X13837660Y1705852D01*
X13824245Y1682615D01*
X13817300Y1656699D01*
Y1629868D01*
X13824245Y1603952D01*
X13837660Y1580715D01*
X13856631Y1561743D01*
X13879868Y1548328D01*
X13905785Y1541384D01*
X13932616D01*
X13958533Y1548328D01*
X13981767Y1561743D01*
X14000740Y1580715D01*
X14011754Y1599791D01*
X14026801Y1599236D01*
X14037154Y1595375D01*
Y1453693D01*
X14031548Y1449292D01*
X14000740Y1451852D01*
X13981767Y1470824D01*
X13958533Y1484239D01*
X13932616Y1491183D01*
X13905785D01*
X13879868Y1484239D01*
X13856631Y1470824D01*
X13837660Y1451852D01*
X13824245Y1428615D01*
X13817300Y1402699D01*
Y1375868D01*
X13824245Y1349952D01*
X13837660Y1326715D01*
X13856631Y1307743D01*
X13879868Y1294328D01*
X13905785Y1287384D01*
X13932616D01*
X13952153Y1266858D01*
Y986846D01*
X12955090D01*
X12680470Y1261467D01*
X12667868Y1269887D01*
X12653002Y1272845D01*
X11607578D01*
X11594663Y1281474D01*
X11574998Y1285385D01*
X10725287D01*
X10473388Y1537284D01*
Y1607713D01*
X10513338Y1647663D01*
X10524478Y1664334D01*
X10528389Y1684000D01*
Y2608002D01*
X10524478Y2627667D01*
X10513338Y2644337D01*
X10315335Y2842336D01*
X10311739Y2844739D01*
X10309336Y2848334D01*
X10284884Y2872787D01*
X9991338Y3166337D01*
X9974667Y3177477D01*
X9955002Y3181389D01*
D02*
G37*
G36*
X10460243Y1189495D02*
X10445105D01*
X10425440Y1185584D01*
X10408769Y1174444D01*
X10177664Y943334D01*
X10166524Y926663D01*
X10162613Y906998D01*
X10166525Y887333D01*
X10177664Y870662D01*
X10194336Y859523D01*
X10214001Y855611D01*
X10233666Y859523D01*
X10250337Y870662D01*
X10467917Y1088247D01*
X10479908Y1090632D01*
X10496579Y1101772D01*
X10507719Y1118443D01*
X10511630Y1138108D01*
X10507719Y1157773D01*
X10496579Y1174444D01*
X10479908Y1185584D01*
X10460243Y1189495D01*
D02*
G37*
G36*
X11396609Y1105398D02*
X11379388D01*
X11362755Y1100941D01*
X11347842Y1092331D01*
X11335666Y1080155D01*
X11327056Y1065241D01*
X11322599Y1048608D01*
Y1031388D01*
X11327056Y1014754D01*
X11335666Y999841D01*
X11339652Y995854D01*
Y842575D01*
X11328843Y836334D01*
X11316666Y824158D01*
X11308056Y809245D01*
X11303599Y792612D01*
Y775391D01*
X11308056Y758758D01*
X11316666Y743845D01*
X11328843Y731669D01*
X11343756Y723058D01*
X11360389Y718602D01*
X11377609D01*
X11394243Y723058D01*
X11409156Y731669D01*
X11421332Y743845D01*
X11429942Y758758D01*
X11434399Y775391D01*
Y792612D01*
X11429942Y809245D01*
X11421332Y824158D01*
X11417345Y828145D01*
Y981424D01*
X11428155Y987665D01*
X11440331Y999841D01*
X11448942Y1014754D01*
X11453398Y1031388D01*
Y1048608D01*
X11448942Y1065241D01*
X11440331Y1080155D01*
X11428155Y1092331D01*
X11413242Y1100941D01*
X11396609Y1105398D01*
D02*
G37*
G36*
X2330999Y11390266D02*
X2330997Y11390266D01*
X423003D01*
X423001Y11390266D01*
X396792Y11386815D01*
X372368Y11376699D01*
X351395Y11360606D01*
X231396Y11240606D01*
X215303Y11219633D01*
X205186Y11195210D01*
X201735Y11169000D01*
X201735Y11168998D01*
Y8384004D01*
X201735Y8384002D01*
X201735Y8383999D01*
Y7659001D01*
X201735Y7658999D01*
X201735Y7658997D01*
Y6898002D01*
X201735Y6898000D01*
X201735Y6897998D01*
Y5876004D01*
X201735Y5876002D01*
X201735Y5876000D01*
Y5088005D01*
X201735Y5088003D01*
X201735Y5088001D01*
Y4342000D01*
X201735Y4341998D01*
X201735Y4341996D01*
Y3315002D01*
X201735Y3315000D01*
X201735Y3314998D01*
Y2595003D01*
X201735Y2595001D01*
X201735Y2594999D01*
Y1910001D01*
X201735Y1909999D01*
X205186Y1883789D01*
X215303Y1859366D01*
X231396Y1838393D01*
X494392Y1575396D01*
X515365Y1559303D01*
X539789Y1549186D01*
X565998Y1545736D01*
X566000Y1545736D01*
X825249D01*
X834330Y1536655D01*
X865775Y1518500D01*
X900848Y1509102D01*
X906302D01*
Y1647002D01*
Y1784902D01*
X900848D01*
X865775Y1775504D01*
X834330Y1757350D01*
X825249Y1748268D01*
X607944D01*
X404268Y1951945D01*
Y2315452D01*
X429668Y2327978D01*
X438368Y2321303D01*
X462791Y2311186D01*
X489001Y2307736D01*
X825249D01*
X834330Y2298655D01*
X865775Y2280500D01*
X900848Y2271102D01*
X906302D01*
Y2409002D01*
Y2546902D01*
X900848D01*
X865775Y2537504D01*
X834330Y2519350D01*
X825249Y2510268D01*
X530947D01*
X404268Y2636947D01*
Y3055628D01*
X409039Y3059810D01*
X429668Y3072017D01*
X446999Y3069736D01*
X447001Y3069736D01*
X825249D01*
X834330Y3060655D01*
X865775Y3042500D01*
X900848Y3033102D01*
X906302D01*
Y3171002D01*
Y3308902D01*
X900848D01*
X865775Y3299504D01*
X834330Y3281350D01*
X825249Y3272268D01*
X488945D01*
X404268Y3356946D01*
Y4070748D01*
X429668Y4087720D01*
X435791Y4085183D01*
X462001Y4081733D01*
X828246D01*
X837327Y4072651D01*
X868772Y4054497D01*
X903845Y4045099D01*
X909300D01*
Y4182999D01*
Y4320899D01*
X903845D01*
X868772Y4311501D01*
X837327Y4293347D01*
X828246Y4284265D01*
X503946D01*
X404268Y4383944D01*
Y4826119D01*
X408484Y4831842D01*
X429668Y4845883D01*
X445997Y4843733D01*
X445999Y4843733D01*
X828246D01*
X837327Y4834651D01*
X868772Y4816497D01*
X903845Y4807099D01*
X909300D01*
Y4944999D01*
Y5082899D01*
X903845D01*
X868772Y5073501D01*
X837327Y5055347D01*
X828246Y5046265D01*
X487946D01*
X404268Y5129946D01*
Y5600403D01*
X408890Y5605512D01*
X429668Y5615860D01*
X445788Y5609183D01*
X457016Y5607705D01*
X471997Y5605733D01*
X471999Y5605733D01*
X828246D01*
X837327Y5596651D01*
X868772Y5578497D01*
X903845Y5569099D01*
X909300D01*
Y5706999D01*
Y5844899D01*
X903845D01*
X868772Y5835501D01*
X837327Y5817347D01*
X828246Y5808265D01*
X513945D01*
X404268Y5917945D01*
Y6620313D01*
X416159Y6629131D01*
X429668Y6632839D01*
X430367Y6632302D01*
X454790Y6622186D01*
X481000Y6618735D01*
X481002Y6618736D01*
X830247D01*
X839329Y6609654D01*
X870774Y6591499D01*
X905846Y6582102D01*
X911301D01*
Y6720002D01*
Y6857902D01*
X905846D01*
X870774Y6848504D01*
X839329Y6830349D01*
X830247Y6821268D01*
X522946D01*
X404268Y6939946D01*
Y7381545D01*
X413618Y7389176D01*
X429366Y7394302D01*
X453789Y7384186D01*
X479999Y7380735D01*
X480001Y7380736D01*
X830247D01*
X839329Y7371654D01*
X870774Y7353499D01*
X905846Y7344102D01*
X911301D01*
Y7482002D01*
Y7619902D01*
X905846D01*
X870774Y7610504D01*
X839329Y7592349D01*
X830247Y7583268D01*
X521945D01*
X404268Y7700945D01*
Y8126320D01*
X429668Y8144491D01*
X443001Y8142736D01*
X830247D01*
X839329Y8133654D01*
X870774Y8115499D01*
X905846Y8106102D01*
X911301D01*
Y8244002D01*
Y8381902D01*
X905846D01*
X870774Y8372504D01*
X839329Y8354349D01*
X830247Y8345268D01*
X484947D01*
X404268Y8425948D01*
Y11127054D01*
X464948Y11187733D01*
X2289053D01*
X2370332Y11106455D01*
Y10886999D01*
X2373782Y10860789D01*
X2383899Y10836366D01*
X2399992Y10815393D01*
X2420965Y10799300D01*
X2445388Y10789183D01*
X2471598Y10785733D01*
X2497808Y10789183D01*
X2522231Y10799300D01*
X2543204Y10815393D01*
X2559297Y10836366D01*
X2569413Y10860789D01*
X2572864Y10886999D01*
Y11148398D01*
X2572864Y11148400D01*
X2569413Y11174610D01*
X2559297Y11199033D01*
X2543204Y11220007D01*
X2543203Y11220007D01*
X2402605Y11360606D01*
X2381632Y11376699D01*
X2357208Y11386815D01*
X2354159Y11387217D01*
X2330999Y11390266D01*
D02*
G37*
G36*
X1963598Y10988265D02*
X1606997D01*
X1606996Y10988265D01*
X1606995Y10988265D01*
X1594045Y10986560D01*
X1580787Y10984814D01*
X1580786Y10984814D01*
X1571686Y10981044D01*
X1556364Y10974698D01*
X1535391Y10958605D01*
X1535390Y10958604D01*
X1400396Y10823605D01*
X1400395Y10823604D01*
X1384302Y10802631D01*
X1384302Y10802630D01*
X1384301Y10802629D01*
X1379690Y10791496D01*
X1374185Y10778208D01*
X1374185Y10778206D01*
X1374185Y10778206D01*
X1370735Y10751996D01*
X1370735Y10751994D01*
Y5771998D01*
X1370737Y5771982D01*
X1370735Y5771965D01*
X1372503Y5758566D01*
X1374185Y5745788D01*
X1374192Y5745773D01*
X1374194Y5745757D01*
X1378736Y5734801D01*
Y4840000D01*
Y3239501D01*
Y1639003D01*
X1378736Y1639001D01*
X1382186Y1612791D01*
X1392303Y1588368D01*
X1408396Y1567395D01*
X1441396Y1534395D01*
X1462369Y1518302D01*
X1486792Y1508186D01*
X1513002Y1504735D01*
X1539212Y1508186D01*
X1563635Y1518302D01*
X1584608Y1534395D01*
X1600701Y1555368D01*
X1610817Y1579792D01*
X1614268Y1606001D01*
X1610817Y1632211D01*
X1600701Y1656634D01*
X1584608Y1677607D01*
X1581268Y1680947D01*
Y3239501D01*
Y4840000D01*
Y5764002D01*
X1581266Y5764017D01*
X1581269Y5764034D01*
X1579513Y5777334D01*
X1577818Y5790211D01*
X1577811Y5790227D01*
X1577809Y5790242D01*
X1573267Y5801198D01*
Y10710053D01*
X1648944Y10785733D01*
X1963598D01*
X1989808Y10789183D01*
X2014231Y10799300D01*
X2035204Y10815393D01*
X2051297Y10836366D01*
X2061413Y10860789D01*
X2064864Y10886999D01*
X2061413Y10913209D01*
X2051297Y10937632D01*
X2035204Y10958605D01*
X2014231Y10974698D01*
X1989808Y10984814D01*
X1963598Y10988265D01*
D02*
G37*
G36*
X942156Y10914901D02*
X905846D01*
X870774Y10905504D01*
X839329Y10887349D01*
X813654Y10861674D01*
X795499Y10830229D01*
X786101Y10795156D01*
Y10758847D01*
X795499Y10723774D01*
X813654Y10692329D01*
X839329Y10666654D01*
X870774Y10648499D01*
X905846Y10639102D01*
X942156D01*
X977229Y10648499D01*
X1008674Y10666654D01*
X1034349Y10692329D01*
X1052504Y10723774D01*
X1061901Y10758847D01*
Y10795156D01*
X1052504Y10830229D01*
X1034349Y10861674D01*
X1008674Y10887349D01*
X977229Y10905504D01*
X942156Y10914901D01*
D02*
G37*
G36*
Y10533901D02*
X905846D01*
X870774Y10524504D01*
X839329Y10506349D01*
X813654Y10480674D01*
X795499Y10449229D01*
X786101Y10414156D01*
Y10377847D01*
X795499Y10342774D01*
X813654Y10311329D01*
X839329Y10285654D01*
X870774Y10267499D01*
X905846Y10258102D01*
X942156D01*
X977229Y10267499D01*
X1008674Y10285654D01*
X1034349Y10311329D01*
X1052504Y10342774D01*
X1061901Y10377847D01*
Y10414156D01*
X1052504Y10449229D01*
X1034349Y10480674D01*
X1008674Y10506349D01*
X977229Y10524504D01*
X942156Y10533901D01*
D02*
G37*
G36*
Y10152901D02*
X905846D01*
X870774Y10143504D01*
X839329Y10125349D01*
X813654Y10099674D01*
X795499Y10068229D01*
X786101Y10033156D01*
Y9996847D01*
X795499Y9961774D01*
X813654Y9930329D01*
X839329Y9904654D01*
X870774Y9886499D01*
X905846Y9877102D01*
X942156D01*
X977229Y9886499D01*
X1008674Y9904654D01*
X1034349Y9930329D01*
X1052504Y9961774D01*
X1061901Y9996847D01*
Y10033156D01*
X1052504Y10068229D01*
X1034349Y10099674D01*
X1008674Y10125349D01*
X977229Y10143504D01*
X942156Y10152901D01*
D02*
G37*
G36*
Y9771901D02*
X905846D01*
X870774Y9762504D01*
X839329Y9744349D01*
X813654Y9718674D01*
X795499Y9687229D01*
X786101Y9652156D01*
Y9615847D01*
X795499Y9580774D01*
X813654Y9549329D01*
X839329Y9523654D01*
X870774Y9505499D01*
X905846Y9496102D01*
X942156D01*
X977229Y9505499D01*
X1008674Y9523654D01*
X1034349Y9549329D01*
X1052504Y9580774D01*
X1061901Y9615847D01*
Y9652156D01*
X1052504Y9687229D01*
X1034349Y9718674D01*
X1008674Y9744349D01*
X977229Y9762504D01*
X942156Y9771901D01*
D02*
G37*
G36*
Y9390901D02*
X905846D01*
X870774Y9381504D01*
X839329Y9363349D01*
X813654Y9337674D01*
X795499Y9306229D01*
X786101Y9271156D01*
Y9234847D01*
X795499Y9199774D01*
X813654Y9168329D01*
X839329Y9142654D01*
X870774Y9124499D01*
X905846Y9115102D01*
X942156D01*
X977229Y9124499D01*
X1008674Y9142654D01*
X1034349Y9168329D01*
X1052504Y9199774D01*
X1061901Y9234847D01*
Y9271156D01*
X1052504Y9306229D01*
X1034349Y9337674D01*
X1008674Y9363349D01*
X977229Y9381504D01*
X942156Y9390901D01*
D02*
G37*
G36*
Y9009901D02*
X905846D01*
X870774Y9000504D01*
X839329Y8982349D01*
X813654Y8956674D01*
X795499Y8925229D01*
X786101Y8890156D01*
Y8853847D01*
X795499Y8818774D01*
X813654Y8787329D01*
X839329Y8761654D01*
X870774Y8743499D01*
X905846Y8734102D01*
X942156D01*
X977229Y8743499D01*
X1008674Y8761654D01*
X1034349Y8787329D01*
X1052504Y8818774D01*
X1061901Y8853847D01*
Y8890156D01*
X1052504Y8925229D01*
X1034349Y8956674D01*
X1008674Y8982349D01*
X977229Y9000504D01*
X942156Y9009901D01*
D02*
G37*
G36*
Y8381902D02*
X936701D01*
Y8256702D01*
X1061901D01*
Y8262157D01*
X1052504Y8297229D01*
X1034349Y8328674D01*
X1008674Y8354349D01*
X977229Y8372504D01*
X942156Y8381902D01*
D02*
G37*
G36*
X1061901Y8231302D02*
X936701D01*
Y8106102D01*
X942156D01*
X977229Y8115499D01*
X1008674Y8133654D01*
X1034349Y8159329D01*
X1052504Y8190774D01*
X1061901Y8225847D01*
Y8231302D01*
D02*
G37*
G36*
X942156Y8000902D02*
X905846D01*
X870774Y7991504D01*
X839329Y7973349D01*
X813654Y7947674D01*
X795499Y7916229D01*
X786101Y7881157D01*
Y7844847D01*
X795499Y7809774D01*
X813654Y7778329D01*
X839329Y7752654D01*
X870774Y7734499D01*
X905846Y7725102D01*
X942156D01*
X977229Y7734499D01*
X1008674Y7752654D01*
X1034349Y7778329D01*
X1052504Y7809774D01*
X1061901Y7844847D01*
Y7881157D01*
X1052504Y7916229D01*
X1034349Y7947674D01*
X1008674Y7973349D01*
X977229Y7991504D01*
X942156Y8000902D01*
D02*
G37*
G36*
Y7619902D02*
X936701D01*
Y7494702D01*
X1061901D01*
Y7500157D01*
X1052504Y7535229D01*
X1034349Y7566674D01*
X1008674Y7592349D01*
X977229Y7610504D01*
X942156Y7619902D01*
D02*
G37*
G36*
X1061901Y7469302D02*
X936701D01*
Y7344102D01*
X942156D01*
X977229Y7353499D01*
X1008674Y7371654D01*
X1034349Y7397329D01*
X1052504Y7428774D01*
X1061901Y7463847D01*
Y7469302D01*
D02*
G37*
G36*
X942156Y7238902D02*
X905846D01*
X870774Y7229504D01*
X839329Y7211349D01*
X813654Y7185674D01*
X795499Y7154229D01*
X786101Y7119157D01*
Y7082847D01*
X795499Y7047774D01*
X813654Y7016329D01*
X839329Y6990654D01*
X870774Y6972499D01*
X905846Y6963102D01*
X942156D01*
X977229Y6972499D01*
X1008674Y6990654D01*
X1034349Y7016329D01*
X1052504Y7047774D01*
X1061901Y7082847D01*
Y7119157D01*
X1052504Y7154229D01*
X1034349Y7185674D01*
X1008674Y7211349D01*
X977229Y7229504D01*
X942156Y7238902D01*
D02*
G37*
G36*
Y6857902D02*
X936701D01*
Y6732702D01*
X1061901D01*
Y6738157D01*
X1052504Y6773229D01*
X1034349Y6804674D01*
X1008674Y6830349D01*
X977229Y6848504D01*
X942156Y6857902D01*
D02*
G37*
G36*
X1061901Y6707302D02*
X936701D01*
Y6582102D01*
X942156D01*
X977229Y6591499D01*
X1008674Y6609654D01*
X1034349Y6635329D01*
X1052504Y6666774D01*
X1061901Y6701847D01*
Y6707302D01*
D02*
G37*
G36*
X942156Y6476902D02*
X905846D01*
X870774Y6467504D01*
X839329Y6449349D01*
X813654Y6423674D01*
X795499Y6392229D01*
X786101Y6357157D01*
Y6320847D01*
X795499Y6285774D01*
X813654Y6254329D01*
X839329Y6228654D01*
X870774Y6210499D01*
X905846Y6201102D01*
X942156D01*
X977229Y6210499D01*
X1008674Y6228654D01*
X1034349Y6254329D01*
X1052504Y6285774D01*
X1061901Y6320847D01*
Y6357157D01*
X1052504Y6392229D01*
X1034349Y6423674D01*
X1008674Y6449349D01*
X977229Y6467504D01*
X942156Y6476902D01*
D02*
G37*
G36*
X940155Y5844899D02*
X934700D01*
Y5719699D01*
X1059900D01*
Y5725154D01*
X1050502Y5760226D01*
X1032347Y5791672D01*
X1006672Y5817347D01*
X975227Y5835501D01*
X940155Y5844899D01*
D02*
G37*
G36*
X1059900Y5694299D02*
X934700D01*
Y5569099D01*
X940155D01*
X975227Y5578497D01*
X1006672Y5596651D01*
X1032347Y5622326D01*
X1050502Y5653772D01*
X1059900Y5688844D01*
Y5694299D01*
D02*
G37*
G36*
X940155Y5463899D02*
X903845D01*
X868772Y5454501D01*
X837327Y5436347D01*
X811652Y5410672D01*
X793497Y5379226D01*
X784100Y5344154D01*
Y5307844D01*
X793497Y5272772D01*
X811652Y5241326D01*
X837327Y5215651D01*
X868772Y5197497D01*
X903845Y5188099D01*
X940155D01*
X975227Y5197497D01*
X1006672Y5215651D01*
X1032347Y5241326D01*
X1050502Y5272772D01*
X1059900Y5307844D01*
Y5344154D01*
X1050502Y5379226D01*
X1032347Y5410672D01*
X1006672Y5436347D01*
X975227Y5454501D01*
X940155Y5463899D01*
D02*
G37*
G36*
Y5082899D02*
X934700D01*
Y4957699D01*
X1059900D01*
Y4963154D01*
X1050502Y4998226D01*
X1032347Y5029672D01*
X1006672Y5055347D01*
X975227Y5073501D01*
X940155Y5082899D01*
D02*
G37*
G36*
X1059900Y4932299D02*
X934700D01*
Y4807099D01*
X940155D01*
X975227Y4816497D01*
X1006672Y4834651D01*
X1032347Y4860326D01*
X1050502Y4891772D01*
X1059900Y4926844D01*
Y4932299D01*
D02*
G37*
G36*
X940155Y4701899D02*
X903845D01*
X868772Y4692501D01*
X837327Y4674347D01*
X811652Y4648672D01*
X793497Y4617226D01*
X784100Y4582154D01*
Y4545844D01*
X793497Y4510772D01*
X811652Y4479326D01*
X837327Y4453651D01*
X868772Y4435497D01*
X903845Y4426099D01*
X940155D01*
X975227Y4435497D01*
X1006672Y4453651D01*
X1032347Y4479326D01*
X1050502Y4510772D01*
X1059900Y4545844D01*
Y4582154D01*
X1050502Y4617226D01*
X1032347Y4648672D01*
X1006672Y4674347D01*
X975227Y4692501D01*
X940155Y4701899D01*
D02*
G37*
G36*
Y4320899D02*
X934700D01*
Y4195699D01*
X1059900D01*
Y4201154D01*
X1050502Y4236226D01*
X1032347Y4267672D01*
X1006672Y4293347D01*
X975227Y4311501D01*
X940155Y4320899D01*
D02*
G37*
G36*
X1059900Y4170299D02*
X934700D01*
Y4045099D01*
X940155D01*
X975227Y4054497D01*
X1006672Y4072651D01*
X1032347Y4098326D01*
X1050502Y4129772D01*
X1059900Y4164844D01*
Y4170299D01*
D02*
G37*
G36*
X940155Y3939899D02*
X903845D01*
X868772Y3930501D01*
X837327Y3912347D01*
X811652Y3886672D01*
X793497Y3855226D01*
X784100Y3820154D01*
Y3783844D01*
X793497Y3748772D01*
X811652Y3717326D01*
X837327Y3691651D01*
X868772Y3673497D01*
X903845Y3664099D01*
X940155D01*
X975227Y3673497D01*
X1006672Y3691651D01*
X1032347Y3717326D01*
X1050502Y3748772D01*
X1059900Y3783844D01*
Y3820154D01*
X1050502Y3855226D01*
X1032347Y3886672D01*
X1006672Y3912347D01*
X975227Y3930501D01*
X940155Y3939899D01*
D02*
G37*
G36*
X937157Y3308902D02*
X931702D01*
Y3183702D01*
X1056902D01*
Y3189157D01*
X1047505Y3224230D01*
X1029350Y3255675D01*
X1003675Y3281350D01*
X972230Y3299504D01*
X937157Y3308902D01*
D02*
G37*
G36*
X1056902Y3158302D02*
X931702D01*
Y3033102D01*
X937157D01*
X972230Y3042500D01*
X1003675Y3060655D01*
X1029350Y3086329D01*
X1047505Y3117775D01*
X1056902Y3152847D01*
Y3158302D01*
D02*
G37*
G36*
X937157Y2927902D02*
X900848D01*
X865775Y2918504D01*
X834330Y2900350D01*
X808655Y2874675D01*
X790500Y2843230D01*
X781103Y2808157D01*
Y2771847D01*
X790500Y2736775D01*
X808655Y2705329D01*
X834330Y2679655D01*
X865775Y2661500D01*
X900848Y2652102D01*
X937157D01*
X972230Y2661500D01*
X1003675Y2679655D01*
X1029350Y2705329D01*
X1047505Y2736775D01*
X1056902Y2771847D01*
Y2808157D01*
X1047505Y2843230D01*
X1029350Y2874675D01*
X1003675Y2900350D01*
X972230Y2918504D01*
X937157Y2927902D01*
D02*
G37*
G36*
Y2546902D02*
X931702D01*
Y2421702D01*
X1056902D01*
Y2427157D01*
X1047505Y2462230D01*
X1029350Y2493675D01*
X1003675Y2519350D01*
X972230Y2537504D01*
X937157Y2546902D01*
D02*
G37*
G36*
X1056902Y2396302D02*
X931702D01*
Y2271102D01*
X937157D01*
X972230Y2280500D01*
X1003675Y2298655D01*
X1029350Y2324329D01*
X1047505Y2355775D01*
X1056902Y2390847D01*
Y2396302D01*
D02*
G37*
G36*
X937157Y2165902D02*
X900848D01*
X865775Y2156504D01*
X834330Y2138350D01*
X808655Y2112675D01*
X790500Y2081230D01*
X781103Y2046157D01*
Y2009847D01*
X790500Y1974775D01*
X808655Y1943329D01*
X834330Y1917655D01*
X865775Y1899500D01*
X900848Y1890102D01*
X937157D01*
X972230Y1899500D01*
X1003675Y1917655D01*
X1029350Y1943329D01*
X1047505Y1974775D01*
X1056902Y2009847D01*
Y2046157D01*
X1047505Y2081230D01*
X1029350Y2112675D01*
X1003675Y2138350D01*
X972230Y2156504D01*
X937157Y2165902D01*
D02*
G37*
G36*
Y1784902D02*
X931702D01*
Y1659702D01*
X1056902D01*
Y1665157D01*
X1047505Y1700230D01*
X1029350Y1731675D01*
X1003675Y1757350D01*
X972230Y1775504D01*
X937157Y1784902D01*
D02*
G37*
G36*
X1056902Y1634302D02*
X931702D01*
Y1509102D01*
X937157D01*
X972230Y1518500D01*
X1003675Y1536655D01*
X1029350Y1562329D01*
X1047505Y1593775D01*
X1056902Y1628847D01*
Y1634302D01*
D02*
G37*
G36*
X937157Y1403902D02*
X900848D01*
X865775Y1394504D01*
X834330Y1376350D01*
X808655Y1350675D01*
X790500Y1319230D01*
X781103Y1284157D01*
Y1247847D01*
X790500Y1212775D01*
X808655Y1181329D01*
X834330Y1155655D01*
X865775Y1137500D01*
X900848Y1128102D01*
X937157D01*
X972230Y1137500D01*
X1003675Y1155655D01*
X1029350Y1181329D01*
X1047505Y1212775D01*
X1056902Y1247847D01*
Y1284157D01*
X1047505Y1319230D01*
X1029350Y1350675D01*
X1003675Y1376350D01*
X972230Y1394504D01*
X937157Y1403902D01*
D02*
G37*
%LPD*%
D70*
X6091072Y13962399D02*
X9154400D01*
X9199000Y14007001D01*
Y14347000D01*
X6019800Y14007800D02*
X8768121D01*
X8783000Y14623820D02*
X8816000Y14656821D01*
X8768121Y14007800D02*
X8783000Y14022679D01*
Y14623820D01*
X8816000Y14656821D02*
Y14666000D01*
X8794701Y6954000D02*
X8796000D01*
X8714000Y6873299D02*
X8794701Y6954000D01*
X8701991Y7016295D02*
X8715696Y7030000D01*
X8529800Y6877128D02*
X8668966Y7016295D01*
X8701991D01*
X8715696Y7030000D02*
X8721000D01*
X8692663Y6936696D02*
Y6942000D01*
X8658000Y6902034D02*
X8692663Y6936696D01*
X8658000Y6248000D02*
Y6902034D01*
X8714000Y6350300D02*
Y6873299D01*
X5021601Y6451399D02*
Y8207001D01*
X5065000Y8250400D01*
X6146201Y8541879D02*
X6161080Y8527000D01*
X6146201Y8541879D02*
Y10163348D01*
X6161080Y8527000D02*
X6275000D01*
X8484000Y6090000D02*
Y6947000D01*
X8527000Y6990000D01*
X8385000Y6945696D02*
X8423000Y6983696D01*
X8385000Y6090000D02*
Y6945696D01*
X8423000Y6983696D02*
Y6989000D01*
X8738000Y6248000D02*
X8738250Y6248250D01*
Y6326051D01*
X8529800Y6288504D02*
Y6877128D01*
Y6288504D02*
X8567000Y6251304D01*
Y6246000D02*
Y6251304D01*
X8714000Y6350300D02*
X8738250Y6326051D01*
X9458000Y6521000D02*
X9483000Y6546000D01*
X9458000Y5231882D02*
Y6521000D01*
X10016007Y6357615D02*
X10038000Y6379608D01*
Y6645000D01*
X6617000Y2522880D02*
Y7961000D01*
X7399000Y8743000D01*
X6529000Y7668000D02*
Y8609004D01*
X6500002Y8638002D02*
X6529000Y8609004D01*
X14282001Y17794000D02*
X14282500Y17794501D01*
Y18192500D01*
X14283000Y18192999D01*
X9896586Y15141586D02*
X9906000Y15150999D01*
X9428447Y15132446D02*
X9437586Y15141586D01*
X9896586D01*
X10231000Y14783398D02*
Y15753000D01*
X10137920Y11879999D02*
X10688775D01*
X10697774Y11888998D01*
X10128920Y11871000D02*
X10137920Y11879999D01*
X9839000Y9654752D02*
X9985751Y9508000D01*
X9839000Y9654752D02*
Y9657000D01*
X9985751Y9508000D02*
X10290521D01*
X9940000Y9653000D02*
Y9655000D01*
Y9653000D02*
X10026656Y9566344D01*
X10327377D01*
X10290521Y9508000D02*
X10305400Y9493121D01*
Y9287002D02*
Y9493121D01*
X10389525Y7052528D02*
X10830102D01*
X10912130Y7065229D02*
X10920902Y7074002D01*
X10830102Y7052528D02*
X10842802Y7065229D01*
X10912130D01*
X10810921Y6938777D02*
X10840146Y6968002D01*
X10853100D01*
X10386228Y6938777D02*
X10810921D01*
X9458000Y5231882D02*
X9472879Y5217003D01*
X10016007Y6139998D02*
X10084603Y6071403D01*
X10016007Y6139998D02*
Y6357615D01*
X10182000Y5557000D02*
Y6563000D01*
X10098700Y5473700D02*
X10182000Y5557000D01*
X4961400Y2297877D02*
X4976279Y2282998D01*
X4961400Y2297877D02*
Y10453601D01*
X4961001Y10454000D02*
X4961400Y10453601D01*
X4976279Y2282998D02*
X5201001D01*
X4916000Y2145878D02*
Y10104145D01*
Y2145878D02*
X4930879Y2130999D01*
X5264998D01*
X4821001Y10199144D02*
X4916000Y10104145D01*
X5021601Y6451399D02*
X5022000Y6451000D01*
X4821001Y10199144D02*
Y10210998D01*
X13342999Y11149000D02*
X13344000Y11150000D01*
Y11857000D01*
X13345000Y11858000D01*
X13919200Y1370815D02*
Y1389283D01*
Y1370815D02*
X13991000Y1299015D01*
Y962879D02*
Y1299015D01*
X13976122Y948000D02*
X13991000Y962879D01*
X12939000Y948000D02*
X13976122D01*
X12653002Y1233998D02*
X12939000Y948000D01*
X11574998Y1233998D02*
X12653002D01*
X13672221Y3392002D02*
X13717000Y3347223D01*
Y1118000D02*
Y3347223D01*
X13919200Y1389283D02*
X14049284D01*
X14075999Y1416000D01*
Y2664000D01*
X14033800Y2706200D02*
X14075999Y2664000D01*
X13927284Y2706200D02*
X14033800D01*
X13919200Y2714285D02*
X13927284Y2706200D01*
X12119000Y15700000D02*
X12122000Y15697000D01*
X12524000D02*
X12527000Y15694000D01*
X12256999Y16644000D02*
X12634001D01*
X12122000Y15697000D02*
X12524000D01*
X12288499Y15983002D02*
X12626000D01*
X12283500Y15988000D02*
X12288499Y15983002D01*
X7284600Y15918401D02*
X9085000D01*
X8195148Y15983600D02*
X8942000D01*
Y15978999D02*
X8946600Y15983600D01*
X8190548Y15978999D02*
X8195148Y15983600D01*
X7140001Y16062999D02*
X7284600Y15918401D01*
X7449000Y15978999D02*
X8190548D01*
X9467000Y15199280D02*
Y15887000D01*
X9085000Y15922000D02*
X9432000D01*
X9467000Y15887000D01*
X8946600Y15983600D02*
X9509521D01*
X9529000Y15964120D01*
X7394001Y16034000D02*
Y16481999D01*
X9529000Y15874001D02*
Y15964120D01*
X7394001Y16034000D02*
X7449000Y15978999D01*
X9428447Y15160727D02*
X9467000Y15199280D01*
X9428447Y15132446D02*
Y15160727D01*
X10345000Y14777000D02*
Y16609656D01*
X10318657Y16635999D02*
X10345000Y16609656D01*
X10165002Y15818999D02*
X10231000Y15753000D01*
X10237600Y14567999D02*
X10243000Y14562601D01*
X8930344Y14567999D02*
X10237600D01*
X9541199Y14234500D02*
X10276000D01*
X9536699Y14230000D02*
X9541199Y14234500D01*
X9535000Y14467000D02*
X10127000D01*
X9532000Y14464000D02*
X9535000Y14467000D01*
X10130000Y14470000D02*
X10189700D01*
X10276000Y14234500D02*
X10280500Y14239000D01*
X10127000Y14467000D02*
X10130000Y14470000D01*
X9682772Y16635999D02*
X10318657D01*
X9662823Y16616051D02*
X9682772Y16635999D01*
X9648048Y16616051D02*
X9662823D01*
X8864000Y14503000D02*
X8865344D01*
X8930344Y14567999D01*
X7140001Y16062999D02*
Y16481999D01*
X6161080Y13917000D02*
X8379550D01*
X8431551Y13864999D01*
X10751338Y16051338D02*
Y16474438D01*
X10707000Y16007001D02*
X10751338Y16051338D01*
Y16474438D02*
X10754900Y16478001D01*
X10016998Y15818999D02*
X10165002D01*
X5670000Y11661000D02*
Y12020000D01*
X5691002Y12041002D02*
X5829000D01*
X5670000Y12020000D02*
X5691002Y12041002D01*
X6174999Y10198755D02*
Y12859000D01*
Y10198755D02*
X6191601Y10182154D01*
Y8652881D02*
Y10182154D01*
X6096899Y10212649D02*
Y13852820D01*
Y10212649D02*
X6146201Y10163348D01*
X6206480Y8638002D02*
X6500002D01*
X6191601Y8652881D02*
X6206480Y8638002D01*
X6096899Y13852820D02*
X6161080Y13917000D01*
X5990001Y9653275D02*
Y13978001D01*
X5970001Y9633275D02*
X5990001Y9653275D01*
X5970001Y9618502D02*
Y9633275D01*
X5990001Y13978001D02*
X6019800Y14007800D01*
X8849696Y12631000D02*
X8855000D01*
X6339000Y12645000D02*
X8835696D01*
X8849696Y12631000D01*
X7233001Y8075879D02*
Y8077002D01*
Y8075879D02*
X7247880Y8061000D01*
X7389998D01*
X5264998Y2130999D02*
X5272999Y2122998D01*
X6578122Y2483998D02*
X6617000Y2522880D01*
X6057651Y10141448D02*
Y10187691D01*
X6037001Y10208346D02*
Y13908328D01*
Y10208346D02*
X6057651Y10187691D01*
Y10141448D02*
X6068101Y10130998D01*
X6037001Y13908328D02*
X6091072Y13962399D01*
X5402001Y9779599D02*
Y10374310D01*
X5405587Y10377902D01*
Y10450586D02*
X5411003Y10456001D01*
X5405587Y10377902D02*
Y10450586D01*
X5504998Y9535003D02*
Y10920999D01*
X5505999Y10922000D01*
X5504002Y9534002D02*
X5504998Y9535003D01*
X9529999Y3299998D02*
X13440999D01*
X13499998Y3240999D01*
X9386001Y3383001D02*
X9394998Y3392002D01*
X13672221D01*
X5678002Y2367001D02*
X5795000Y2483998D01*
X6578122D01*
X11751000Y10205999D02*
X11761003Y10196002D01*
X10636001Y10205999D02*
X11751000D01*
X9949002Y3130001D02*
X9955002D01*
X14159499Y17995499D02*
Y18255498D01*
X14157001Y18258003D02*
X14159499Y18255498D01*
Y17995499D02*
X14162000Y17992999D01*
X13264001Y6955003D02*
Y7801000D01*
X13259999Y6951000D02*
X13264001Y6955003D01*
X9509999Y15036002D02*
X9512000Y15034001D01*
X9969998D01*
X9971999Y15031999D01*
X10387899Y6707002D02*
X10805998D01*
X10385999Y6821002D02*
X10390002Y6816999D01*
X10731901D02*
X10735899Y6813001D01*
X10390002Y6816999D02*
X10731901D01*
X10805998Y6707002D02*
X10813999Y6714998D01*
X10384998Y7048002D02*
X10389525Y7052528D01*
X9472879Y5217003D02*
X9649303D01*
X10084603Y5774599D02*
Y6071403D01*
X9906000Y5727700D02*
X10037699D01*
X10084603Y5774599D01*
X9649303Y5217003D02*
X9652000Y5219700D01*
X9906000Y5473700D02*
X10098700D01*
X13499998Y3075000D02*
X13504001Y3071002D01*
X13499998Y3075000D02*
Y3240999D01*
X11378499Y1030498D02*
X11387999Y1039998D01*
X11368999Y784001D02*
X11378499Y793501D01*
Y1030498D01*
X12263999Y2132000D02*
Y2654000D01*
X12281002Y2670998D01*
X12750998D01*
X12960782Y2461214D01*
Y2129663D02*
Y2461214D01*
X12945901Y2114784D02*
X12960782Y2129663D01*
X12794198Y2114784D02*
X12945901D01*
X12794198Y1860784D02*
X13040782D01*
X13074001Y1894002D01*
Y2424999D01*
X12761001Y2737998D02*
X13074001Y2424999D01*
X12249003Y2737998D02*
X12761001D01*
X12163491Y2652492D02*
X12249003Y2737998D01*
X12163491Y1904507D02*
Y2652492D01*
X12463998Y1010001D02*
X12467499Y1006500D01*
X12656500D02*
X12660000Y1003000D01*
X12467499Y1006500D02*
X12656500D01*
X11182502Y14592497D02*
X11186003Y14595998D01*
X11007501Y14592497D02*
X11182502D01*
X11004001Y14588998D02*
X11007501Y14592497D01*
X13381000Y14452000D02*
X13399998Y14433002D01*
Y13690001D02*
Y14433002D01*
D71*
X10413949Y11303051D02*
X12988950D01*
X6652000Y9513000D02*
Y9531000D01*
X7756000Y10635000D01*
X12741001Y12189998D02*
Y12507001D01*
X11340998Y7067001D02*
Y7142998D01*
X8287375Y7861375D02*
Y8056625D01*
X8285000Y7859000D02*
X8287375Y7861375D01*
X10761000Y1608999D02*
Y2741000D01*
X5346000Y7292000D02*
X5350000Y7288000D01*
X5346000Y7292000D02*
Y9103000D01*
X5409000Y9166000D01*
X9940000Y8888999D02*
X10676204D01*
X11340998Y6654001D02*
Y7067001D01*
X11287996Y7196000D02*
X11340998Y7142998D01*
X9954000Y7196000D02*
X11287996D01*
X11388500Y6606499D02*
X14085500D01*
X11340998Y6654001D02*
X11388500Y6606499D01*
X4800000Y7431000D02*
X4809699D01*
X6350000Y9211000D02*
X6652000Y9513000D01*
X9627126Y4940826D02*
X9652000Y4965700D01*
X9627126Y4805648D02*
Y4940826D01*
X9626000Y4804522D02*
X9627126Y4805648D01*
X9626000Y4753289D02*
Y4804522D01*
Y4753289D02*
X9655290Y4724000D01*
X9963000D01*
X10026000Y4661000D01*
Y3598000D02*
Y4661000D01*
X10248547Y2836451D02*
X10273000Y2811998D01*
X13626807Y18083000D02*
X13989999D01*
X14032001Y18727000D02*
X14042000Y18717000D01*
Y18135001D02*
Y18717000D01*
X13989999Y18083000D02*
X14042000Y18135001D01*
X13082199Y16985417D02*
X13792200D01*
X13082199D02*
X13109698Y17012917D01*
Y17236935D01*
X13128177Y17255414D01*
X13137199D01*
X13792200Y16985417D02*
X13966000Y17159216D01*
Y17384000D01*
X13824583Y17525417D02*
X13966000Y17384000D01*
X13792200Y17525417D02*
X13824583D01*
X13082199D02*
X13792200D01*
X8806000Y18946001D02*
X8984000Y18767999D01*
X9013290Y16517999D02*
X10120711D01*
X8984000Y16547289D02*
X9013290Y16517999D01*
X8984000Y16547289D02*
Y18767999D01*
X4879000Y13485001D02*
X4883000Y13481000D01*
X9335000Y15600000D02*
X9390000Y15655000D01*
X9335000Y14831000D02*
Y15600000D01*
Y14831000D02*
X9389323Y14776678D01*
X9521852D01*
X10908001Y13848000D02*
X11225002D01*
X10832000Y13924001D02*
X10908001Y13848000D01*
X10832000Y13924001D02*
Y14576711D01*
X10802710Y14606000D02*
X10832000Y14576711D01*
X10327445Y14606000D02*
X10802710D01*
X10280445Y14653000D02*
X10327445Y14606000D01*
X9591000Y14653000D02*
X10280445D01*
X9559000Y14685001D02*
X9591000Y14653000D01*
X9559000Y14685001D02*
Y14739529D01*
X9521852Y14776678D02*
X9559000Y14739529D01*
X10150000Y16313000D02*
Y16488710D01*
X10120711Y16517999D02*
X10150000Y16488710D01*
X10637290Y15891000D02*
X11149000D01*
X11160000Y15902000D01*
X10608000Y15920290D02*
X10637290Y15891000D01*
X10608000Y15920290D02*
Y16063000D01*
X10682000Y16137000D01*
Y16353000D01*
Y17185001D02*
X10787000Y17289999D01*
X10682000Y16353000D02*
Y17185001D01*
X9300000Y8937000D02*
X9355358Y8881642D01*
Y8840221D02*
Y8881642D01*
X8358085Y7842947D02*
X9355358Y8840221D01*
X6235599Y12037000D02*
X6356799D01*
X7012000Y7856001D02*
X7233001Y8077002D01*
X7012000Y5969000D02*
Y7856001D01*
X6727000Y6438000D02*
X6736000D01*
X6741000Y6443000D01*
X6881000D01*
X6929000Y6491000D01*
Y6767000D01*
X7409000Y12227290D02*
Y12233000D01*
X5409000Y9166000D02*
X5717000D01*
X9489000Y8595000D02*
Y8657000D01*
X8465000Y7571000D02*
X9489000Y8595000D01*
X7744499Y8588500D02*
X7755500D01*
X7233001Y8077002D02*
X7744499Y8588500D01*
X7755500D02*
X8287375Y8056625D01*
X8285000Y7859000D02*
X8301053Y7842947D01*
X8358085D01*
X6831000Y9513000D02*
X7755500Y8588500D01*
X6652000Y9513000D02*
X6831000D01*
X4792000Y7439000D02*
X4800000Y7431000D01*
X4309898Y7439000D02*
X4792000D01*
X4452290Y12895001D02*
X5084999D01*
X4423000Y11906000D02*
Y12865710D01*
X4452290Y12895001D01*
X3724001Y13097398D02*
X3726398Y13095000D01*
X9875000Y7117000D02*
X9954000Y7196000D01*
X9875000Y6231000D02*
Y7117000D01*
Y6231000D02*
X9906000Y6200000D01*
Y5981700D02*
Y6200000D01*
X8233801Y18942299D02*
X8237502Y18946001D01*
X8806000D01*
X1468999Y2444999D02*
X1485001Y2429002D01*
X1459001Y7369998D02*
X1480002Y7390999D01*
X9955002Y3130001D02*
X10248547Y2836451D01*
X10676204Y8888999D02*
X10702559Y8862644D01*
X5351998Y325999D02*
Y1652001D01*
X5289001Y263002D02*
X5351998Y325999D01*
X7926822Y3746998D02*
X7951003D01*
X10445105Y1138108D02*
X10460243D01*
X10214000Y906998D02*
X10445105Y1138108D01*
X10422001Y1515999D02*
X10704002Y1233998D01*
X10422001Y1515999D02*
Y1628999D01*
X10477002Y1684000D01*
X10154001Y1360998D02*
X10422001Y1628999D01*
X10477002Y1684000D02*
Y2608001D01*
X9234002Y3592002D02*
X9334002Y3692002D01*
X9234002Y263002D02*
Y3592002D01*
X14604102Y13162001D02*
X14620001Y13177901D01*
X12988950Y11303051D02*
X13110002Y11181999D01*
Y10765003D02*
Y11181999D01*
X14582999Y10658003D02*
X14620001Y10621000D01*
X13110002Y10765003D02*
X13217001Y10658003D01*
X14582999D01*
X11939001Y10621000D02*
X14620001D01*
X11761003Y10443002D02*
X11939001Y10621000D01*
X11225002Y13191292D02*
X11254288Y13162001D01*
X11761003Y10196002D02*
Y10443002D01*
X9909002Y1116000D02*
X10154001Y1360998D01*
X10704002Y1233998D02*
X11574998D01*
X10278999Y2805999D02*
X10477002Y2608001D01*
X10273000Y2805999D02*
Y2811998D01*
Y2805999D02*
X10278999D01*
X11486002Y2998003D02*
Y3031002D01*
Y2998003D02*
X11561999Y2922001D01*
Y2348001D02*
Y2922001D01*
X10977001Y1661003D02*
X11557000D01*
X10843001Y1527002D02*
X10977001Y1661003D01*
X10761000Y1608999D02*
X10843001Y1527002D01*
X11557000Y2342998D02*
X11561999Y2348001D01*
X11557000Y1661003D02*
Y2342998D01*
X12845644Y9331645D02*
X12992999Y9479001D01*
Y9815998D01*
X11218001Y12488001D02*
X11220999Y12484999D01*
Y11655288D02*
Y12484999D01*
X11191712Y11626002D02*
X11220999Y11655288D01*
X10575000Y11626002D02*
X11191712D01*
X12741001Y12507001D02*
X12850002Y12616002D01*
X11218001Y12488001D02*
X12722001D01*
X12741001Y12507001D01*
X11065998Y12488001D02*
X11218001D01*
X12749002Y14648997D02*
Y14860057D01*
X12740000Y14869058D02*
X12749002Y14860057D01*
X12740000Y14869058D02*
Y15071999D01*
X12823003Y15155000D01*
X10472100Y9588099D02*
Y9850100D01*
X10470998Y9587001D02*
X10472100Y9588099D01*
D72*
X4201998Y5442998D02*
Y8469000D01*
X12827000Y19011002D02*
X14641998D01*
X4007002Y1388293D02*
Y5254000D01*
X3724001Y8550158D02*
Y11231001D01*
X4470999Y15557002D02*
Y18335341D01*
X3323001Y1070000D02*
Y5400843D01*
X3815001Y14900999D02*
X4470999Y15557002D01*
X3724001Y14809998D02*
X3815001Y14900999D01*
X3323001Y1070000D02*
X3557001Y836000D01*
X14234000Y796003D02*
Y3427499D01*
X13931001Y3730498D02*
X14234000Y3427499D01*
X13980998Y543001D02*
X14234000Y796003D01*
X4107000Y5348000D02*
X4201998Y5442998D01*
X4101002Y5348000D02*
X4107000D01*
X4007002Y5254000D02*
X4101002Y5348000D01*
X2710999Y19576999D02*
X4383999D01*
X2133600Y18999600D02*
X2710999Y19576999D01*
X2133600Y18173000D02*
Y18999600D01*
X3977000Y8693998D02*
Y10308001D01*
X3724001Y13122401D02*
Y14809998D01*
Y13097398D02*
Y13122401D01*
X5289001Y263002D02*
X8450580D01*
X3724001Y8550158D02*
X3794577Y8479577D01*
X3920002Y7389998D02*
Y8315000D01*
Y6632001D02*
Y7389998D01*
X14641998Y19011002D02*
X14800002Y18852998D01*
Y15622002D02*
Y18852998D01*
X14620001Y15442001D02*
X14800002Y15622002D01*
X14620001Y13177901D02*
Y15442001D01*
Y10621000D02*
Y13177901D01*
Y6796999D02*
Y10621000D01*
X14527002Y6704000D02*
X14620001Y6796999D01*
X14182999Y6704000D02*
X14527002D01*
X14085500Y6606499D02*
X14182999Y6704000D01*
X13931001Y3730498D02*
Y6452001D01*
X13980998Y333294D02*
Y543001D01*
X13931001Y6452001D02*
X14085500Y6606499D01*
X13910706Y263002D02*
X13980998Y333294D01*
X3977000Y8693998D02*
X4201998Y8469000D01*
X4077294Y1318001D02*
X4274002D01*
X4460001Y1132002D01*
X8450580Y263002D02*
X9234002D01*
X13910706D01*
X8465002Y277419D02*
Y466395D01*
X8450580Y263002D02*
X8465002Y277419D01*
X4646000Y263002D02*
X5289001D01*
X4460001Y449001D02*
Y1132002D01*
Y449001D02*
X4646000Y263002D01*
X4007002Y1388293D02*
X4077294Y1318001D01*
X3774999Y8459998D02*
X3920002Y8315000D01*
X3923000Y5590296D02*
Y6628999D01*
X3850706Y5517998D02*
X3923000Y5590296D01*
X3440156Y5517998D02*
X3850706D01*
X2575001Y17101297D02*
X2822296Y16854002D01*
X2575001Y17101297D02*
Y18805708D01*
X2645293Y18875999D01*
X3373999D01*
X3440298Y18942299D01*
X8233801D01*
X3557001Y836000D02*
X4106001D01*
X3724001Y11231001D02*
Y13097398D01*
X3302000Y16924294D02*
Y17106900D01*
X2822296Y16854002D02*
X3231708D01*
X3302000Y16924294D01*
X2751999Y16031001D02*
Y16783705D01*
X2822296Y16854002D01*
X2751999Y13514999D02*
X2762499Y13525500D01*
X3087248D01*
X2751999Y13514999D02*
Y15176997D01*
X3222000D01*
X3311159Y15266158D01*
Y15540802D01*
X2751999Y15176997D02*
Y16031001D01*
X2767000Y16016000D01*
X3234837D01*
X3305134Y16086292D01*
Y16271834D01*
X3314700Y16281400D01*
X2751999Y11927002D02*
Y13514999D01*
Y11927002D02*
X2842600Y11836400D01*
X3087604D01*
X3088000Y11836004D01*
X4353844Y18452501D02*
X4470999Y18335341D01*
X3040101Y18452501D02*
X4353844D01*
X3323001Y5400843D02*
X3440156Y5517998D01*
D73*
X4989000Y18260579D02*
Y18423000D01*
X5047579Y18202000D02*
X8888000D01*
X4989000Y18260579D02*
X5047579Y18202000D01*
X8888000D02*
X8889000Y18200999D01*
X7262000Y13459000D02*
X8249000D01*
X7230000Y13491000D02*
X7262000Y13459000D01*
X8249000D02*
X8304000Y13403999D01*
X4461000Y13485001D02*
X4879000D01*
X7409000Y12227290D02*
X7505290Y12131000D01*
X8313000D01*
X5593999Y12441001D02*
X5829000D01*
X5563000Y12472000D02*
X5593999Y12441001D01*
X5563000Y12472000D02*
Y13065710D01*
X5533711Y13095000D02*
X5563000Y13065710D01*
X5084999Y13095000D02*
X5533711D01*
X3726398D02*
X5084999D01*
X7153910Y2974091D02*
X7926822Y3746998D01*
X11254288Y13162001D02*
X14604102D01*
X11225002Y13191292D02*
Y13848000D01*
X12717998Y8112999D02*
Y8415000D01*
X12785999Y8483001D01*
X3292175Y11231001D02*
X3724001D01*
X3233598Y11172424D02*
X3292175Y11231001D01*
X3233598Y10886999D02*
Y11172424D01*
D74*
X3022600Y18470001D02*
Y18497198D01*
Y18470001D02*
X3040101Y18452501D01*
D77*
X1480002Y3239501D02*
Y4840000D01*
X1472001Y5771998D02*
Y10751998D01*
X1480002Y1639001D02*
Y3239501D01*
X1472001Y5771998D02*
X1480002Y5764002D01*
Y4840000D02*
Y5764002D01*
Y1639001D02*
X1513002Y1606001D01*
X303002Y11169000D02*
X423001Y11289000D01*
X303002Y8384002D02*
Y11169000D01*
X423001Y11289000D02*
X2330999D01*
X1606997Y10886999D02*
X1963598D01*
X1472001Y10751998D02*
X1606997Y10886999D01*
X303002Y8384002D02*
X443001Y8244002D01*
X924001D01*
X303002Y7658999D02*
X479999Y7482002D01*
X924001D01*
X303002Y7658999D02*
Y8384002D01*
Y6898000D02*
X481000Y6720002D01*
X924001D01*
X303002Y6898000D02*
Y7658999D01*
Y5876000D02*
X471998Y5706999D01*
X922000D01*
X303002Y5876000D02*
Y6898000D01*
Y5088001D02*
X445999Y4944999D01*
X922000D01*
X303002Y5088001D02*
Y5876000D01*
Y4341998D02*
X462001Y4182999D01*
X922000D01*
X303002Y4341998D02*
Y5088001D01*
Y3315000D02*
X446999Y3171002D01*
X919002D01*
X303002Y3315000D02*
Y4341998D01*
Y2595001D02*
X489001Y2409002D01*
X919002D01*
X303002Y2595001D02*
Y3315000D01*
X2471598Y10886999D02*
Y11148400D01*
X2330999Y11289000D02*
X2471598Y11148400D01*
X303002Y1909999D02*
Y2595001D01*
Y1909999D02*
X565998Y1647002D01*
X919002D01*
D78*
X11411001Y8953998D02*
X11420003Y8963000D01*
X11057575Y8953998D02*
X11411001D01*
X11039998Y8971575D02*
X11057575Y8953998D01*
X11039998Y8971575D02*
Y9627001D01*
D79*
X6399534Y7263466D02*
D03*
X6054466Y7608534D02*
D03*
X8428533Y3511535D02*
D03*
X8083464Y3166466D02*
D03*
D80*
X5545611Y8045456D02*
D03*
X5634000Y7957068D02*
D03*
D81*
X2471598Y10886999D02*
D03*
X1963598D02*
D03*
X3233598D02*
D03*
D82*
X3487598D02*
D03*
D83*
X1533159Y15540802D02*
D03*
X2295159D02*
D03*
X3057159D02*
D03*
X3311159D02*
D03*
X1532875Y16285225D02*
D03*
X2294875D02*
D03*
X3056875D02*
D03*
X3310875D02*
D03*
X3302000Y17106900D02*
D03*
X3048000D02*
D03*
X2286000D02*
D03*
X1524000D02*
D03*
D84*
X919002Y2790002D02*
D03*
Y1266002D02*
D03*
Y1647002D02*
D03*
Y2028002D02*
D03*
Y2409002D02*
D03*
Y3171002D02*
D03*
X939800Y16814799D02*
D03*
Y15290800D02*
D03*
Y15671800D02*
D03*
Y16052800D02*
D03*
Y16433800D02*
D03*
Y17195799D02*
D03*
X939002Y14267001D02*
D03*
Y12743002D02*
D03*
Y13124002D02*
D03*
Y13505002D02*
D03*
Y13886002D02*
D03*
Y14648003D02*
D03*
X14118001Y13470001D02*
D03*
Y14232001D02*
D03*
Y14613000D02*
D03*
Y14994000D02*
D03*
Y15375002D02*
D03*
Y13851001D02*
D03*
X14115999Y10915000D02*
D03*
Y11677000D02*
D03*
Y12058000D02*
D03*
Y12439000D02*
D03*
Y12820000D02*
D03*
Y11296000D02*
D03*
X14113002Y10265999D02*
D03*
Y9884999D02*
D03*
Y9503999D02*
D03*
X14120003Y6943999D02*
D03*
Y7705999D02*
D03*
Y8086999D02*
D03*
Y8467999D02*
D03*
Y8848999D02*
D03*
Y7324999D02*
D03*
X924001Y10777002D02*
D03*
Y10015002D02*
D03*
Y9634002D02*
D03*
Y9253002D02*
D03*
Y8872002D02*
D03*
Y10396002D02*
D03*
Y8244002D02*
D03*
Y7482002D02*
D03*
Y7101002D02*
D03*
Y6720002D02*
D03*
Y6339002D02*
D03*
Y7863002D02*
D03*
X922000Y5325999D02*
D03*
Y3801999D02*
D03*
Y4182999D02*
D03*
Y4563999D02*
D03*
Y4944999D02*
D03*
Y5706999D02*
D03*
D85*
X13137199Y17255414D02*
D03*
X13337199D02*
D03*
X13537199D02*
D03*
X13737199D02*
D03*
D86*
X13082199Y17525417D02*
D03*
Y16985417D02*
D03*
X13792200Y17525417D02*
D03*
Y16985417D02*
D03*
D87*
X6632000Y16482001D02*
D03*
D88*
X6886000D02*
D03*
X7140000D02*
D03*
X7394000D02*
D03*
D89*
X5913002Y16431998D02*
D03*
X8112998D02*
D03*
Y14232002D02*
D03*
X5913002D02*
D03*
D90*
X5829000Y12441001D02*
D03*
Y12241002D02*
D03*
Y12041002D02*
D03*
Y12641001D02*
D03*
Y12841000D02*
D03*
X5084999Y13095000D02*
D03*
Y12495002D02*
D03*
Y12295002D02*
D03*
Y12095002D02*
D03*
Y12695001D02*
D03*
Y12895001D02*
D03*
D91*
X5458000Y11153069D02*
D03*
X5758000D02*
D03*
D92*
X12794198Y1606784D02*
D03*
D93*
X12540198Y1733784D02*
D03*
X12794198Y1860784D02*
D03*
X12540198Y1987784D02*
D03*
X12794198Y2114784D02*
D03*
X12540198Y2241784D02*
D03*
X12794198Y2368784D02*
D03*
X12540198Y2495784D02*
D03*
D94*
X13919200Y1389283D02*
D03*
Y1643283D02*
D03*
Y2714285D02*
D03*
Y2460285D02*
D03*
D95*
X13124200Y1277285D02*
D03*
Y2826283D02*
D03*
D96*
X13429198Y2623287D02*
D03*
Y1480287D02*
D03*
D97*
X558800Y18580099D02*
D03*
Y18072099D02*
D03*
D98*
X2133600Y19673001D02*
D03*
Y18173000D02*
D03*
D99*
X3022600Y19247202D02*
D03*
Y18497198D02*
D03*
D100*
X3087248Y14725504D02*
D03*
Y13525500D02*
D03*
X3088000Y13036002D02*
D03*
Y11836004D02*
D03*
D101*
X1867251Y13525500D02*
D03*
Y14725504D02*
D03*
X1867997Y11836004D02*
D03*
Y13036002D02*
D03*
X9652000Y5981700D02*
D03*
X9906000D02*
D03*
X9652000Y5727700D02*
D03*
X9906000D02*
D03*
X9652000Y5473700D02*
D03*
X9906000D02*
D03*
X9652000Y5219700D02*
D03*
X9906000D02*
D03*
X9652000Y4965700D02*
D03*
D102*
X3287248Y14137498D02*
D03*
X3288000Y12448002D02*
D03*
D103*
X399999Y398100D02*
D03*
X14566901Y3771900D02*
D03*
X14554201Y5930900D02*
D03*
X399999Y19600002D02*
D03*
X14600002D02*
D03*
Y399999D02*
D03*
D104*
X9906000Y4965700D02*
D03*
D105*
X7756000Y10635000D02*
D03*
X4018001Y1432001D02*
D03*
X4000998Y2197999D02*
D03*
X4005001Y2998998D02*
D03*
X4007998Y3797000D02*
D03*
X4017000Y4634001D02*
D03*
X4107000Y5348000D02*
D03*
X4221998Y5920999D02*
D03*
X4186001Y6761002D02*
D03*
Y7514001D02*
D03*
X4309898Y7439000D02*
D03*
X4819860Y7422573D02*
D03*
X3955999Y8701999D02*
D03*
X3730000Y9225000D02*
D03*
X3977000Y10308001D02*
D03*
X3719000Y11158000D02*
D03*
X4423000Y11906000D02*
D03*
X3724001Y13122401D02*
D03*
X8816000Y14666000D02*
D03*
X8796000Y6954000D02*
D03*
X8721000Y7030000D02*
D03*
X8692663Y6942000D02*
D03*
X5065000Y8250400D02*
D03*
X6275000Y8527000D02*
D03*
X8527000Y6990000D02*
D03*
X8423000Y6989000D02*
D03*
X8385000Y6090000D02*
D03*
X8484000D02*
D03*
X8738000Y6248000D02*
D03*
X8567000Y6246000D02*
D03*
X8658000Y6248000D02*
D03*
X10038000Y6645000D02*
D03*
X9483000Y6546000D02*
D03*
X8285000Y7859000D02*
D03*
X5350000Y7288000D02*
D03*
X6529000Y7668000D02*
D03*
X14283000Y18192999D02*
D03*
X9906000Y15150999D02*
D03*
X10231000Y14783398D02*
D03*
X10697774Y11888998D02*
D03*
X10128920Y11871000D02*
D03*
X9940000Y8888999D02*
D03*
X9839000Y9657000D02*
D03*
X9940000Y9655000D02*
D03*
X10305400Y9287002D02*
D03*
X10327377Y9566344D02*
D03*
X10920902Y7074002D02*
D03*
X10182000Y6563000D02*
D03*
X5022000Y6451000D02*
D03*
X13345000Y11858000D02*
D03*
X13342999Y11149000D02*
D03*
X10026000Y3598000D02*
D03*
X12527000Y15694000D02*
D03*
X12467600Y16644000D02*
D03*
X7153910Y2974091D02*
D03*
X12119000Y15700000D02*
D03*
X12283500Y15988000D02*
D03*
X13626807Y18083000D02*
D03*
X14032001Y18727000D02*
D03*
X12428699Y15980750D02*
D03*
X14282001Y17794000D02*
D03*
X8889000Y18200999D02*
D03*
X4989000Y18423000D02*
D03*
X8304000Y13403999D02*
D03*
X7230000Y13491000D02*
D03*
X4883000Y13481000D02*
D03*
X4461000Y13485001D02*
D03*
X8942000Y15983600D02*
D03*
X9390000Y15655000D02*
D03*
X9085000Y15918401D02*
D03*
X9529000Y15874001D02*
D03*
X9428447Y15132446D02*
D03*
X10345000Y14777000D02*
D03*
X9521852Y14776678D02*
D03*
X10243000Y14562601D02*
D03*
X9536699Y14230000D02*
D03*
X9532000Y14464000D02*
D03*
X10189700Y14470000D02*
D03*
X10280500Y14239000D02*
D03*
X9199000Y14347000D02*
D03*
X8431551Y13864999D02*
D03*
X11160000Y15902000D02*
D03*
X10707000Y16007001D02*
D03*
X10787000Y17289999D02*
D03*
X10682000Y16353000D02*
D03*
X10754900Y16478001D02*
D03*
X8864000Y14503000D02*
D03*
X6235599Y12037000D02*
D03*
X6356799D02*
D03*
X5670000Y11661000D02*
D03*
X7012000Y5969000D02*
D03*
X6727000Y6438000D02*
D03*
X6929000Y6767000D02*
D03*
X7409000Y12233000D02*
D03*
X8313000Y12131000D02*
D03*
X5717000Y9166000D02*
D03*
X9489000Y8657000D02*
D03*
X8465000Y7571000D02*
D03*
X9300000Y8937000D02*
D03*
X5970001Y9618502D02*
D03*
X6350000Y9211000D02*
D03*
X6339000Y12645000D02*
D03*
X8855000Y12631000D02*
D03*
X3821000Y14895000D02*
D03*
X4487000Y15860001D02*
D03*
X10150000Y16313000D02*
D03*
X7233001Y8077002D02*
D03*
X7389998Y8061000D02*
D03*
X10702559Y8862644D02*
D03*
X5351998Y1652001D02*
D03*
X6068101Y10130998D02*
D03*
X5411003Y10456001D02*
D03*
X5505999Y10922000D02*
D03*
X4961001Y10454000D02*
D03*
X4821001Y10210998D02*
D03*
X5402001Y9779599D02*
D03*
X5504002Y9534002D02*
D03*
X10460243Y1138108D02*
D03*
X10214000Y906998D02*
D03*
X10422001Y1628999D02*
D03*
X10764002Y2418999D02*
D03*
X4383999Y19576999D02*
D03*
X7951003Y3746998D02*
D03*
X9334002Y3692002D02*
D03*
X3955999Y9507002D02*
D03*
X11411001Y11312002D02*
D03*
X11225002Y13848000D02*
D03*
X10413949Y11303051D02*
D03*
X11761003Y10196002D02*
D03*
X10636001Y10205999D02*
D03*
X11340998Y7067001D02*
D03*
X8465002Y466395D02*
D03*
X9909002Y1116000D02*
D03*
X10154001Y1360998D02*
D03*
X9949002Y3130001D02*
D03*
X11574998Y1233998D02*
D03*
X10477002Y2608001D02*
D03*
X10244231Y2832136D02*
D03*
X11486002Y3031002D02*
D03*
X10843001Y1527002D02*
D03*
X10761000Y2741000D02*
D03*
X11561999Y2348001D02*
D03*
X11557000Y1661003D02*
D03*
X9648048Y16616051D02*
D03*
X10016998Y15818999D02*
D03*
X14162000Y17992999D02*
D03*
X14157001Y18258003D02*
D03*
X10472100Y9850100D02*
D03*
X10470998Y9587001D02*
D03*
X13264001Y7801000D02*
D03*
X13259999Y6951000D02*
D03*
X9971999Y15031999D02*
D03*
X9509999Y15036002D02*
D03*
X12256999Y16644000D02*
D03*
X12634001D02*
D03*
X12626000Y15983002D02*
D03*
X10387899Y6707002D02*
D03*
X10735899Y6813001D02*
D03*
X10813999Y6714998D02*
D03*
X10853100Y6968002D02*
D03*
X10384998Y7048002D02*
D03*
X10386228Y6938777D02*
D03*
X10385999Y6821002D02*
D03*
X11186003Y14595998D02*
D03*
X11004001Y14588998D02*
D03*
X13381000Y14452000D02*
D03*
X13399998Y13690001D02*
D03*
X11420003Y8963000D02*
D03*
X11039998Y9627001D02*
D03*
D106*
X13717000Y1118000D02*
D03*
X7399000Y8743000D02*
D03*
X5201001Y2282998D02*
D03*
X6174999Y12859000D02*
D03*
X5678002Y2367001D02*
D03*
X12827000Y19011002D02*
D03*
X9386001Y3383001D02*
D03*
X9529999Y3299998D02*
D03*
X3920002Y7389998D02*
D03*
X3923000Y6628999D02*
D03*
X5272999Y2122998D02*
D03*
X8233801Y18942299D02*
D03*
X12845644Y9331645D02*
D03*
X12992999Y9815998D02*
D03*
X10575000Y11626002D02*
D03*
X11065998Y12488001D02*
D03*
X12749002Y14648997D02*
D03*
X12823003Y15155000D02*
D03*
X12741001Y12189998D02*
D03*
X12850002Y12616002D02*
D03*
X12717998Y8112999D02*
D03*
X12785999Y8483001D02*
D03*
X3352002Y1089000D02*
D03*
X3339998Y1913001D02*
D03*
X3322000Y2730998D02*
D03*
X3339998Y3506998D02*
D03*
X3322000Y4336999D02*
D03*
X3339998Y5149002D02*
D03*
X3774999Y8459998D02*
D03*
X3701999Y9975002D02*
D03*
X4527001Y16872002D02*
D03*
X4479000Y17961000D02*
D03*
X4106001Y836000D02*
D03*
X13504001Y3071002D02*
D03*
X11387999Y1039998D02*
D03*
X11368999Y784001D02*
D03*
X12263999Y2132000D02*
D03*
X12163491Y1904507D02*
D03*
X12660000Y1003000D02*
D03*
X12463998Y1010001D02*
D03*
X1485001Y2429002D02*
D03*
X1480002Y3239501D02*
D03*
X1480998Y4033002D02*
D03*
X1480002Y4840000D02*
D03*
X1480998Y5771998D02*
D03*
X1485001Y6604000D02*
D03*
X1480002Y7390999D02*
D03*
X1513002Y1606001D02*
D03*
%TF.MD5,f7f944183c891e7e8a78080b1468a7e5*%
M02*
