%TF.GenerationSoftware,Altium Limited,Altium Designer,25.4.2 (15)*%
G04 Layer_Color=16711935*
%FSLAX45Y45*%
%MOMM*%
%TF.SameCoordinates,8E466B79-A9E7-4DE5-A807-E3C68754EB8E*%
%TF.FilePolarity,Negative*%
%TF.FileFunction,Soldermask,Bot*%
%TF.Part,Single*%
G01*
G75*
%TA.AperFunction,ComponentPad*%
%ADD91C,0.90000*%
%ADD177C,1.23320*%
%ADD178C,1.23820*%
%ADD179C,1.53120*%
%ADD180R,1.53120X1.53120*%
%ADD181C,1.90320*%
%ADD182C,2.45320*%
%ADD183O,2.00320X1.10320*%
%ADD184C,2.90320*%
%ADD185R,1.71120X1.71120*%
%ADD186C,1.71120*%
%ADD187C,3.20320*%
%ADD188O,2.20320X1.70320*%
%ADD189R,1.60120X1.60120*%
%ADD190C,1.60120*%
%ADD191C,1.73320*%
%ADD192C,2.64820*%
%ADD193C,3.45320*%
%ADD194C,2.40320*%
%ADD195C,1.60320*%
%ADD196O,1.85320X3.50320*%
%ADD197C,1.51120*%
%ADD198C,2.00320*%
%ADD199C,2.15320*%
%ADD200C,3.95320*%
%ADD201R,2.00320X2.00320*%
%TA.AperFunction,ViaPad*%
%ADD202C,0.65320*%
%ADD203C,1.00320*%
D91*
X5458000Y11153069D02*
D03*
X5758000D02*
D03*
D177*
X6399534Y7263466D02*
D03*
X6054466Y7608534D02*
D03*
X8428533Y3511535D02*
D03*
X8083464Y3166466D02*
D03*
D178*
X5545611Y8045456D02*
D03*
X5634000Y7957068D02*
D03*
D179*
X2471598Y10886999D02*
D03*
X1963598D02*
D03*
X3233598D02*
D03*
D180*
X3487598D02*
D03*
D181*
X1533159Y15540802D02*
D03*
X2295159D02*
D03*
X3057159D02*
D03*
X3311159D02*
D03*
X1532875Y16285225D02*
D03*
X2294875D02*
D03*
X3056875D02*
D03*
X3310875D02*
D03*
X3302000Y17106900D02*
D03*
X3048000D02*
D03*
X2286000D02*
D03*
X1524000D02*
D03*
D182*
X919002Y2790002D02*
D03*
Y1266002D02*
D03*
Y1647002D02*
D03*
Y2028002D02*
D03*
Y2409002D02*
D03*
Y3171002D02*
D03*
X939800Y16814799D02*
D03*
Y15290800D02*
D03*
Y15671800D02*
D03*
Y16052800D02*
D03*
Y16433800D02*
D03*
Y17195799D02*
D03*
X939002Y14267001D02*
D03*
Y12743002D02*
D03*
Y13124002D02*
D03*
Y13505002D02*
D03*
Y13886002D02*
D03*
Y14648003D02*
D03*
X14118001Y13470001D02*
D03*
Y14232001D02*
D03*
Y14613000D02*
D03*
Y14994000D02*
D03*
Y15375002D02*
D03*
Y13851001D02*
D03*
X14115999Y10915000D02*
D03*
Y11677000D02*
D03*
Y12058000D02*
D03*
Y12439000D02*
D03*
Y12820000D02*
D03*
Y11296000D02*
D03*
X14113002Y10265999D02*
D03*
Y9884999D02*
D03*
Y9503999D02*
D03*
X14120003Y6943999D02*
D03*
Y7705999D02*
D03*
Y8086999D02*
D03*
Y8467999D02*
D03*
Y8848999D02*
D03*
Y7324999D02*
D03*
X924001Y10777002D02*
D03*
Y10015002D02*
D03*
Y9634002D02*
D03*
Y9253002D02*
D03*
Y8872002D02*
D03*
Y10396002D02*
D03*
Y8244002D02*
D03*
Y7482002D02*
D03*
Y7101002D02*
D03*
Y6720002D02*
D03*
Y6339002D02*
D03*
Y7863002D02*
D03*
X922000Y5325999D02*
D03*
Y3801999D02*
D03*
Y4182999D02*
D03*
Y4563999D02*
D03*
Y4944999D02*
D03*
Y5706999D02*
D03*
D183*
X13137199Y17255414D02*
D03*
X13337199D02*
D03*
X13537199D02*
D03*
X13737199D02*
D03*
D184*
X13082199Y17525417D02*
D03*
Y16985417D02*
D03*
X13792200Y17525417D02*
D03*
Y16985417D02*
D03*
D185*
X6632000Y16482001D02*
D03*
D186*
X6886000D02*
D03*
X7140000D02*
D03*
X7394000D02*
D03*
D187*
X5913002Y16431998D02*
D03*
X8112998D02*
D03*
Y14232002D02*
D03*
X5913002D02*
D03*
D188*
X5829000Y12441001D02*
D03*
Y12241002D02*
D03*
Y12041002D02*
D03*
Y12641001D02*
D03*
Y12841000D02*
D03*
X5084999Y13095000D02*
D03*
Y12495002D02*
D03*
Y12295002D02*
D03*
Y12095002D02*
D03*
Y12695001D02*
D03*
Y12895001D02*
D03*
D189*
X12794198Y1606784D02*
D03*
D190*
X12540198Y1733784D02*
D03*
X12794198Y1860784D02*
D03*
X12540198Y1987784D02*
D03*
X12794198Y2114784D02*
D03*
X12540198Y2241784D02*
D03*
X12794198Y2368784D02*
D03*
X12540198Y2495784D02*
D03*
D191*
X13919200Y1389283D02*
D03*
Y1643283D02*
D03*
Y2714285D02*
D03*
Y2460285D02*
D03*
D192*
X13124200Y1277285D02*
D03*
Y2826283D02*
D03*
D193*
X13429198Y2623287D02*
D03*
Y1480287D02*
D03*
D194*
X558800Y18580099D02*
D03*
Y18072099D02*
D03*
D195*
X2133600Y19673001D02*
D03*
Y18173000D02*
D03*
D196*
X3022600Y19247202D02*
D03*
Y18497198D02*
D03*
D197*
X3087248Y14725504D02*
D03*
Y13525500D02*
D03*
X3088000Y13036002D02*
D03*
Y11836004D02*
D03*
D198*
X1867251Y13525500D02*
D03*
Y14725504D02*
D03*
X1867997Y11836004D02*
D03*
Y13036002D02*
D03*
X9652000Y5981700D02*
D03*
X9906000D02*
D03*
X9652000Y5727700D02*
D03*
X9906000D02*
D03*
X9652000Y5473700D02*
D03*
X9906000D02*
D03*
X9652000Y5219700D02*
D03*
X9906000D02*
D03*
X9652000Y4965700D02*
D03*
D199*
X3287248Y14137498D02*
D03*
X3288000Y12448002D02*
D03*
D200*
X399999Y398100D02*
D03*
X14566901Y3771900D02*
D03*
X14554201Y5930900D02*
D03*
X399999Y19600002D02*
D03*
X14600002D02*
D03*
Y399999D02*
D03*
D201*
X9906000Y4965700D02*
D03*
D202*
X7756000Y10635000D02*
D03*
X4018001Y1432001D02*
D03*
X4000998Y2197999D02*
D03*
X4005001Y2998998D02*
D03*
X4007998Y3797000D02*
D03*
X4017000Y4634001D02*
D03*
X4107000Y5348000D02*
D03*
X4221998Y5920999D02*
D03*
X4186001Y6761002D02*
D03*
Y7514001D02*
D03*
X4309898Y7439000D02*
D03*
X4819860Y7422573D02*
D03*
X3955999Y8701999D02*
D03*
X3730000Y9225000D02*
D03*
X3977000Y10308001D02*
D03*
X3719000Y11158000D02*
D03*
X4423000Y11906000D02*
D03*
X3724001Y13122401D02*
D03*
X8816000Y14666000D02*
D03*
X8796000Y6954000D02*
D03*
X8721000Y7030000D02*
D03*
X8692663Y6942000D02*
D03*
X5065000Y8250400D02*
D03*
X6275000Y8527000D02*
D03*
X8527000Y6990000D02*
D03*
X8423000Y6989000D02*
D03*
X8385000Y6090000D02*
D03*
X8484000D02*
D03*
X8738000Y6248000D02*
D03*
X8567000Y6246000D02*
D03*
X8658000Y6248000D02*
D03*
X10038000Y6645000D02*
D03*
X9483000Y6546000D02*
D03*
X8285000Y7859000D02*
D03*
X5350000Y7288000D02*
D03*
X6529000Y7668000D02*
D03*
X14283000Y18192999D02*
D03*
X9906000Y15150999D02*
D03*
X10231000Y14783398D02*
D03*
X10697774Y11888998D02*
D03*
X10128920Y11871000D02*
D03*
X9940000Y8888999D02*
D03*
X9839000Y9657000D02*
D03*
X9940000Y9655000D02*
D03*
X10305400Y9287002D02*
D03*
X10327377Y9566344D02*
D03*
X10920902Y7074002D02*
D03*
X10182000Y6563000D02*
D03*
X5022000Y6451000D02*
D03*
X13345000Y11858000D02*
D03*
X13342999Y11149000D02*
D03*
X10026000Y3598000D02*
D03*
X12527000Y15694000D02*
D03*
X12467600Y16644000D02*
D03*
X7153910Y2974091D02*
D03*
X12119000Y15700000D02*
D03*
X12283500Y15988000D02*
D03*
X13626807Y18083000D02*
D03*
X14032001Y18727000D02*
D03*
X12428699Y15980750D02*
D03*
X14282001Y17794000D02*
D03*
X8889000Y18200999D02*
D03*
X4989000Y18423000D02*
D03*
X8304000Y13403999D02*
D03*
X7230000Y13491000D02*
D03*
X4883000Y13481000D02*
D03*
X4461000Y13485001D02*
D03*
X8942000Y15983600D02*
D03*
X9390000Y15655000D02*
D03*
X9085000Y15918401D02*
D03*
X9529000Y15874001D02*
D03*
X9428447Y15132446D02*
D03*
X10345000Y14777000D02*
D03*
X9521852Y14776678D02*
D03*
X10243000Y14562601D02*
D03*
X9536699Y14230000D02*
D03*
X9532000Y14464000D02*
D03*
X10189700Y14470000D02*
D03*
X10280500Y14239000D02*
D03*
X9199000Y14347000D02*
D03*
X8431551Y13864999D02*
D03*
X11160000Y15902000D02*
D03*
X10707000Y16007001D02*
D03*
X10787000Y17289999D02*
D03*
X10682000Y16353000D02*
D03*
X10754900Y16478001D02*
D03*
X8864000Y14503000D02*
D03*
X6235599Y12037000D02*
D03*
X6356799D02*
D03*
X5670000Y11661000D02*
D03*
X7012000Y5969000D02*
D03*
X6727000Y6438000D02*
D03*
X6929000Y6767000D02*
D03*
X7409000Y12233000D02*
D03*
X8313000Y12131000D02*
D03*
X5717000Y9166000D02*
D03*
X9489000Y8657000D02*
D03*
X8465000Y7571000D02*
D03*
X9300000Y8937000D02*
D03*
X5970001Y9618502D02*
D03*
X6350000Y9211000D02*
D03*
X6339000Y12645000D02*
D03*
X8855000Y12631000D02*
D03*
X3821000Y14895000D02*
D03*
X4487000Y15860001D02*
D03*
X10150000Y16313000D02*
D03*
X7233001Y8077002D02*
D03*
X7389998Y8061000D02*
D03*
X10702559Y8862644D02*
D03*
X5351998Y1652001D02*
D03*
X6068101Y10130998D02*
D03*
X5411003Y10456001D02*
D03*
X5505999Y10922000D02*
D03*
X4961001Y10454000D02*
D03*
X4821001Y10210998D02*
D03*
X5402001Y9779599D02*
D03*
X5504002Y9534002D02*
D03*
X10460243Y1138108D02*
D03*
X10214000Y906998D02*
D03*
X10422001Y1628999D02*
D03*
X10764002Y2418999D02*
D03*
X4383999Y19576999D02*
D03*
X7951003Y3746998D02*
D03*
X9334002Y3692002D02*
D03*
X3955999Y9507002D02*
D03*
X11411001Y11312002D02*
D03*
X11225002Y13848000D02*
D03*
X10413949Y11303051D02*
D03*
X11761003Y10196002D02*
D03*
X10636001Y10205999D02*
D03*
X11340998Y7067001D02*
D03*
X8465002Y466395D02*
D03*
X9909002Y1116000D02*
D03*
X10154001Y1360998D02*
D03*
X9949002Y3130001D02*
D03*
X11574998Y1233998D02*
D03*
X10477002Y2608001D02*
D03*
X10244231Y2832136D02*
D03*
X11486002Y3031002D02*
D03*
X10843001Y1527002D02*
D03*
X10761000Y2741000D02*
D03*
X11561999Y2348001D02*
D03*
X11557000Y1661003D02*
D03*
X9648048Y16616051D02*
D03*
X10016998Y15818999D02*
D03*
X14162000Y17992999D02*
D03*
X14157001Y18258003D02*
D03*
X10472100Y9850100D02*
D03*
X10470998Y9587001D02*
D03*
X13264001Y7801000D02*
D03*
X13259999Y6951000D02*
D03*
X9971999Y15031999D02*
D03*
X9509999Y15036002D02*
D03*
X12256999Y16644000D02*
D03*
X12634001D02*
D03*
X12626000Y15983002D02*
D03*
X10387899Y6707002D02*
D03*
X10735899Y6813001D02*
D03*
X10813999Y6714998D02*
D03*
X10853100Y6968002D02*
D03*
X10384998Y7048002D02*
D03*
X10386228Y6938777D02*
D03*
X10385999Y6821002D02*
D03*
X11186003Y14595998D02*
D03*
X11004001Y14588998D02*
D03*
X13381000Y14452000D02*
D03*
X13399998Y13690001D02*
D03*
X11420003Y8963000D02*
D03*
X11039998Y9627001D02*
D03*
D203*
X13717000Y1118000D02*
D03*
X7399000Y8743000D02*
D03*
X5201001Y2282998D02*
D03*
X6174999Y12859000D02*
D03*
X5678002Y2367001D02*
D03*
X12827000Y19011002D02*
D03*
X9386001Y3383001D02*
D03*
X9529999Y3299998D02*
D03*
X3920002Y7389998D02*
D03*
X3923000Y6628999D02*
D03*
X5272999Y2122998D02*
D03*
X8233801Y18942299D02*
D03*
X12845644Y9331645D02*
D03*
X12992999Y9815998D02*
D03*
X10575000Y11626002D02*
D03*
X11065998Y12488001D02*
D03*
X12749002Y14648997D02*
D03*
X12823003Y15155000D02*
D03*
X12741001Y12189998D02*
D03*
X12850002Y12616002D02*
D03*
X12717998Y8112999D02*
D03*
X12785999Y8483001D02*
D03*
X3352002Y1089000D02*
D03*
X3339998Y1913001D02*
D03*
X3322000Y2730998D02*
D03*
X3339998Y3506998D02*
D03*
X3322000Y4336999D02*
D03*
X3339998Y5149002D02*
D03*
X3774999Y8459998D02*
D03*
X3701999Y9975002D02*
D03*
X4527001Y16872002D02*
D03*
X4479000Y17961000D02*
D03*
X4106001Y836000D02*
D03*
X13504001Y3071002D02*
D03*
X11387999Y1039998D02*
D03*
X11368999Y784001D02*
D03*
X12263999Y2132000D02*
D03*
X12163491Y1904507D02*
D03*
X12660000Y1003000D02*
D03*
X12463998Y1010001D02*
D03*
X1485001Y2429002D02*
D03*
X1480002Y3239501D02*
D03*
X1480998Y4033002D02*
D03*
X1480002Y4840000D02*
D03*
X1480998Y5771998D02*
D03*
X1485001Y6604000D02*
D03*
X1480002Y7390999D02*
D03*
X1513002Y1606001D02*
D03*
%TF.MD5,1262a728e2961a98f9c9f93e8d46ec7b*%
M02*
