G04 DesignSpark PCB Gerber Version 13.0 Build *
%FSLAX35Y35*%
%MOIN*%
%ADD110R,0.00581X0.05207*%
%ADD113R,0.01959X0.05404*%
%ADD112R,0.04900X0.05400*%
%ADD109R,0.05207X0.00581*%
%ADD111R,0.05400X0.04900*%
X0Y0D02*
D02*
D109*
X527659Y234078D03*
Y236046D03*
Y238015D03*
Y239983D03*
Y241952D03*
Y243920D03*
Y245889D03*
Y247857D03*
Y249826D03*
Y251794D03*
Y253763D03*
Y255731D03*
Y257700D03*
Y259668D03*
Y261637D03*
Y263605D03*
X572841Y234078D03*
Y236046D03*
Y238015D03*
Y239983D03*
Y241952D03*
Y243920D03*
Y245889D03*
Y247857D03*
Y249826D03*
Y251794D03*
Y253763D03*
Y255731D03*
Y257700D03*
Y259668D03*
Y261637D03*
Y263605D03*
D02*
D110*
X535486Y226251D03*
Y271432D03*
X537455Y226251D03*
Y271432D03*
X539423Y226251D03*
Y271432D03*
X541392Y226251D03*
Y271432D03*
X543360Y226251D03*
Y271432D03*
X545329Y226251D03*
Y271432D03*
X547297Y226251D03*
Y271432D03*
X549266Y226251D03*
Y271432D03*
X551234Y226251D03*
Y271432D03*
X553203Y226251D03*
Y271432D03*
X555171Y226251D03*
Y271432D03*
X557140Y226251D03*
Y271432D03*
X559108Y226251D03*
Y271432D03*
X561077Y226251D03*
Y271432D03*
X563045Y226251D03*
Y271432D03*
X565014Y226251D03*
Y271432D03*
D02*
D111*
X204904Y183471D03*
X213904D03*
X252837Y179223D03*
X261837D03*
X267959Y63704D03*
X268191Y106282D03*
X272522Y179290D03*
X276959Y63704D03*
X277191Y106282D03*
X281522Y179290D03*
X322581Y180747D03*
X331581D03*
X337482Y68093D03*
X339451Y111007D03*
X342644Y180684D03*
X346482Y68093D03*
X348451Y111007D03*
X351644Y180684D03*
X392663Y181046D03*
X401663D03*
X406281Y67664D03*
X407620Y111400D03*
X412325Y181314D03*
X415281Y67664D03*
X416620Y111400D03*
X421325Y181314D03*
X463073Y185416D03*
X472073D03*
X478837Y291011D03*
X479510Y245404D03*
Y275133D03*
X479581Y235141D03*
X479596Y266389D03*
X483545Y186204D03*
X487837Y291011D03*
X488510Y245404D03*
Y275133D03*
X488581Y235141D03*
X488596Y266389D03*
X489738Y70940D03*
X490959Y108806D03*
X492545Y186204D03*
X498738Y70940D03*
X499959Y108806D03*
X663443Y257333D03*
X672443D03*
X679077Y135853D03*
X688077D03*
D02*
D112*
X523439Y285109D03*
Y294109D03*
X535683Y180924D03*
Y189924D03*
X564360Y66794D03*
Y75794D03*
X571490Y181259D03*
Y190259D03*
X573085Y287215D03*
Y296215D03*
X581333Y181259D03*
Y190259D03*
X637132Y67404D03*
Y76404D03*
D02*
D113*
X608301Y143436D03*
Y164790D03*
X613301Y143436D03*
Y164790D03*
X618301Y143436D03*
Y164790D03*
X623301Y143436D03*
Y164790D03*
X0Y0D02*
M02*
