G04 DesignSpark PCB Gerber Version 13.0 Build *
%FSLAX35Y35*%
%MOIN*%
%ADD10C,0.00500*%
%ADD201C,0.10000*%
X0Y0D02*
D02*
D10*
X33454Y29380D02*
X33141Y29068D01*
X32516Y28755D01*
X31579D01*
X30954Y29068D01*
X30641Y29380D01*
X30329Y30005D01*
Y31255D01*
X30641Y31880D01*
X30954Y32193D01*
X31579Y32505D01*
X32516D01*
X33141Y32193D01*
X33454Y31880D01*
X33848Y304183D02*
X33535Y303871D01*
X32910Y303558D01*
X31972D01*
X31348Y303871D01*
X31035Y304183D01*
X30722Y304808D01*
Y306058D01*
X31035Y306683D01*
X31348Y306996D01*
X31972Y307308D01*
X32910D01*
X33535Y306996D01*
X33848Y306683D01*
X47502Y72411D02*
Y73661D01*
X47815Y74286D01*
X48127Y74598D01*
X48752Y74911D01*
X49377D01*
X50002Y74598D01*
X50315Y74286D01*
X50627Y73661D01*
Y72411D01*
X50315Y71786D01*
X50002Y71473D01*
X49377Y71161D01*
X48752D01*
X48127Y71473D01*
X47815Y71786D01*
X47502Y72411D01*
X49689Y72098D02*
X50627Y71161D01*
X59632Y49678D02*
Y50928D01*
X59944Y51554D01*
X60257Y51866D01*
X60882Y52178D01*
X61507D01*
X62132Y51866D01*
X62444Y51554D01*
X62757Y50928D01*
Y49678D01*
X62444Y49054D01*
X62132Y48741D01*
X61507Y48428D01*
X60882D01*
X60257Y48741D01*
X59944Y49054D01*
X59632Y49678D01*
X61819Y49366D02*
X62757Y48428D01*
X63400Y225960D02*
Y229710D01*
X66525D01*
X65900Y227835D02*
X63400D01*
Y225960D02*
X66525D01*
X63400Y240960D02*
Y244710D01*
X66525D01*
X65900Y242835D02*
X63400D01*
Y240960D02*
X66525D01*
X66549Y98007D02*
Y101757D01*
X69674D01*
X69049Y99882D02*
X66549D01*
Y98007D02*
X69674D01*
X66549Y113007D02*
Y116757D01*
X69674D01*
X69049Y114882D02*
X66549D01*
Y113007D02*
X69674D01*
X89159Y41804D02*
Y43054D01*
X89472Y43680D01*
X89785Y43992D01*
X90409Y44304D01*
X91035D01*
X91659Y43992D01*
X91972Y43680D01*
X92285Y43054D01*
Y41804D01*
X91972Y41180D01*
X91659Y40867D01*
X91035Y40554D01*
X90409D01*
X89785Y40867D01*
X89472Y41180D01*
X89159Y41804D01*
X91347Y41492D02*
X92285Y40554D01*
X92140Y167338D02*
X93702Y171088D01*
X95265Y167338D01*
X92765Y168900D02*
X94640D01*
X102376Y225999D02*
X103939Y229749D01*
X105501Y225999D01*
X103001Y227562D02*
X104876D01*
X106557Y72411D02*
Y73661D01*
X106870Y74286D01*
X107182Y74598D01*
X107807Y74911D01*
X108432D01*
X109057Y74598D01*
X109370Y74286D01*
X109682Y73661D01*
Y72411D01*
X109370Y71786D01*
X109057Y71473D01*
X108432Y71161D01*
X107807D01*
X107182Y71473D01*
X106870Y71786D01*
X106557Y72411D01*
X108744Y72098D02*
X109682Y71161D01*
X107392Y25212D02*
Y28962D01*
Y27087D02*
X110517D01*
Y25212D02*
Y28962D01*
X124297Y297200D02*
X125860Y300950D01*
X127422Y297200D01*
X124922Y298763D02*
X126797D01*
X127392Y25212D02*
Y28962D01*
Y27087D02*
X130517D01*
Y25212D02*
Y28962D01*
X135502Y259078D02*
X137065Y262828D01*
X138627Y259078D01*
X136127Y260641D02*
X138002D01*
X147392Y25212D02*
Y28962D01*
Y27087D02*
X150517D01*
Y25212D02*
Y28962D01*
X152237Y138991D02*
X153799Y142741D01*
X155362Y138991D01*
X152862Y140554D02*
X154737D01*
X169411Y192155D02*
Y193405D01*
X169724Y194030D01*
X170037Y194343D01*
X170661Y194655D01*
X171287D01*
X171911Y194343D01*
X172224Y194030D01*
X172537Y193405D01*
Y192155D01*
X172224Y191530D01*
X171911Y191217D01*
X171287Y190905D01*
X170661D01*
X170037Y191217D01*
X169724Y191530D01*
X169411Y192155D01*
X174498Y64821D02*
X174811Y64509D01*
X175435Y64196D01*
X176061Y64509D01*
X176373Y64821D01*
Y67946D01*
X176998D01*
X176373D02*
X175123D01*
X174498Y112853D02*
X174811Y112540D01*
X175435Y112228D01*
X176061Y112540D01*
X176373Y112853D01*
Y115978D01*
X176998D01*
X176373D02*
X175123D01*
X178274Y19598D02*
Y23348D01*
Y21473D02*
X181399D01*
Y19598D02*
Y23348D01*
X182502Y294338D02*
X184065Y298088D01*
X185627Y294338D01*
X183127Y295900D02*
X185002D01*
X186096Y215291D02*
Y219041D01*
Y217166D02*
X187034D01*
X189222Y219041D01*
X187034Y217166D02*
X189222Y215291D01*
X186096Y235054D02*
Y238804D01*
Y236930D02*
X187034D01*
X189222Y238804D01*
X187034Y236930D02*
X189222Y235054D01*
X186490Y158991D02*
Y162741D01*
Y160867D02*
X187428D01*
X189615Y162741D01*
X187428Y160867D02*
X189615Y158991D01*
X186490Y178755D02*
Y182505D01*
Y180630D02*
X187428D01*
X189615Y182505D01*
X187428Y180630D02*
X189615Y178755D01*
X196876Y198651D02*
Y199901D01*
X197189Y200526D01*
X197501Y200839D01*
X198126Y201151D01*
X198751D01*
X199376Y200839D01*
X199689Y200526D01*
X200001Y199901D01*
Y198651D01*
X199689Y198026D01*
X199376Y197713D01*
X198751Y197401D01*
X198126D01*
X197501Y197713D01*
X197189Y198026D01*
X196876Y198651D01*
X198120Y120727D02*
X198433Y120414D01*
X199057Y120102D01*
X199683Y120414D01*
X199995Y120727D01*
Y123852D01*
X200620D01*
X199995D02*
X198745D01*
X198274Y19598D02*
Y23348D01*
Y21473D02*
X201399D01*
Y19598D02*
Y23348D01*
X201093Y250991D02*
X202655Y254741D01*
X204218Y250991D01*
X201718Y252554D02*
X203593D01*
X205313Y198651D02*
Y199901D01*
X205626Y200526D01*
X205938Y200839D01*
X206563Y201151D01*
X207188D01*
X207813Y200839D01*
X208126Y200526D01*
X208438Y199901D01*
Y198651D01*
X208126Y198026D01*
X207813Y197713D01*
X207188Y197401D01*
X206563D01*
X205938Y197713D01*
X205626Y198026D01*
X205313Y198651D01*
X218274Y19598D02*
Y23348D01*
Y21473D02*
X221399D01*
Y19598D02*
Y23348D01*
X221742Y64821D02*
X222055Y64509D01*
X222680Y64196D01*
X223305Y64509D01*
X223617Y64821D01*
Y67946D01*
X224242D01*
X223617D02*
X222367D01*
X221742Y112853D02*
X222055Y112540D01*
X222680Y112228D01*
X223305Y112540D01*
X223617Y112853D01*
Y115978D01*
X224242D01*
X223617D02*
X222367D01*
X224817Y281905D02*
Y285655D01*
X227942Y281905D01*
Y285655D01*
X224817Y291747D02*
Y295497D01*
X227942Y291747D01*
Y295497D01*
X224817Y301590D02*
Y305340D01*
X227942Y301590D01*
Y305340D01*
X236096Y215291D02*
Y219041D01*
Y217166D02*
X237034D01*
X239222Y219041D01*
X237034Y217166D02*
X239222Y215291D01*
X236096Y235054D02*
Y238804D01*
Y236930D02*
X237034D01*
X239222Y238804D01*
X237034Y236930D02*
X239222Y235054D01*
X236490Y158991D02*
Y162741D01*
Y160867D02*
X237428D01*
X239615Y162741D01*
X237428Y160867D02*
X239615Y158991D01*
X236490Y178755D02*
Y182505D01*
Y180630D02*
X237428D01*
X239615Y182505D01*
X237428Y180630D02*
X239615Y178755D01*
X238242Y82082D02*
X239805Y85832D01*
X241367Y82082D01*
X238867Y83644D02*
X240742D01*
X247368Y121609D02*
X248931Y125359D01*
X250493Y121609D01*
X247993Y123172D02*
X249868D01*
X252935Y195989D02*
Y197239D01*
X253248Y197865D01*
X253560Y198177D01*
X254185Y198489D01*
X254810D01*
X255435Y198177D01*
X255748Y197865D01*
X256060Y197239D01*
Y195989D01*
X255748Y195365D01*
X255435Y195052D01*
X254810Y194739D01*
X254185D01*
X253560Y195052D01*
X253248Y195365D01*
X252935Y195989D01*
X253057Y208100D02*
Y209350D01*
X253370Y209975D01*
X253682Y210287D01*
X254307Y210600D01*
X254932D01*
X255557Y210287D01*
X255870Y209975D01*
X256182Y209350D01*
Y208100D01*
X255870Y207475D01*
X255557Y207162D01*
X254932Y206850D01*
X254307D01*
X253682Y207162D01*
X253370Y207475D01*
X253057Y208100D01*
X255167Y190241D02*
Y191491D01*
X255480Y192117D01*
X255793Y192429D01*
X256417Y192741D01*
X257043D01*
X257667Y192429D01*
X257980Y192117D01*
X258293Y191491D01*
Y190241D01*
X257980Y189617D01*
X257667Y189304D01*
X257043Y188991D01*
X256417D01*
X255793Y189304D01*
X255480Y189617D01*
X255167Y190241D01*
X258829Y231838D02*
X260391Y235588D01*
X261954Y231838D01*
X259454Y233400D02*
X261329D01*
X263198Y90991D02*
X262885Y90678D01*
X262260Y90365D01*
X261323D01*
X260698Y90678D01*
X260385Y90991D01*
X260073Y91615D01*
Y92865D01*
X260385Y93491D01*
X260698Y93803D01*
X261323Y94115D01*
X262260D01*
X262885Y93803D01*
X263198Y93491D01*
Y301620D02*
X262885Y301308D01*
X262260Y300995D01*
X261323D01*
X260698Y301308D01*
X260385Y301620D01*
X260073Y302245D01*
Y303495D01*
X260385Y304120D01*
X260698Y304433D01*
X261323Y304745D01*
X262260D01*
X262885Y304433D01*
X263198Y304120D01*
X260974Y20881D02*
Y24631D01*
Y22756D02*
X264100D01*
Y20881D02*
Y24631D01*
X261022Y157978D02*
Y159228D01*
X261334Y159853D01*
X261647Y160165D01*
X262272Y160478D01*
X262897D01*
X263522Y160165D01*
X263834Y159853D01*
X264147Y159228D01*
Y157978D01*
X263834Y157353D01*
X263522Y157040D01*
X262897Y156728D01*
X262272D01*
X261647Y157040D01*
X261334Y157353D01*
X261022Y157978D01*
X263933Y175593D02*
X264871D01*
Y175281D01*
X264559Y174656D01*
X264246Y174343D01*
X263621Y174031D01*
X262996D01*
X262371Y174343D01*
X262059Y174656D01*
X261746Y175281D01*
Y176531D01*
X262059Y177156D01*
X262371Y177469D01*
X262996Y177781D01*
X263621D01*
X264246Y177469D01*
X264559Y177156D01*
X264871Y176531D01*
X262219Y111200D02*
Y114950D01*
X265344D01*
X264719Y113075D02*
X262219D01*
Y111200D02*
X265344D01*
X268065Y62846D02*
X269628Y66596D01*
X271190Y62846D01*
X268690Y64408D02*
X270565D01*
X273933Y175593D02*
X274871D01*
Y175281D01*
X274559Y174656D01*
X274246Y174343D01*
X273621Y174031D01*
X272996D01*
X272371Y174343D01*
X272059Y174656D01*
X271746Y175281D01*
Y176531D01*
X272059Y177156D01*
X272371Y177469D01*
X272996Y177781D01*
X273621D01*
X274246Y177469D01*
X274559Y177156D01*
X274871Y176531D01*
X276474Y165044D02*
Y166294D01*
X276787Y166920D01*
X277100Y167232D01*
X277724Y167544D01*
X278350D01*
X278974Y167232D01*
X279287Y166920D01*
X279600Y166294D01*
Y165044D01*
X279287Y164420D01*
X278974Y164107D01*
X278350Y163794D01*
X277724D01*
X277100Y164107D01*
X276787Y164420D01*
X276474Y165044D01*
X280974Y20881D02*
Y24631D01*
Y22756D02*
X284100D01*
Y20881D02*
Y24631D01*
X283933Y175593D02*
X284871D01*
Y175281D01*
X284559Y174656D01*
X284246Y174343D01*
X283621Y174031D01*
X282996D01*
X282371Y174343D01*
X282059Y174656D01*
X281746Y175281D01*
Y176531D01*
X282059Y177156D01*
X282371Y177469D01*
X282996Y177781D01*
X283621D01*
X284246Y177469D01*
X284559Y177156D01*
X284871Y176531D01*
X284537Y143588D02*
Y144838D01*
X284850Y145463D01*
X285163Y145776D01*
X285787Y146088D01*
X286413D01*
X287037Y145776D01*
X287350Y145463D01*
X287663Y144838D01*
Y143588D01*
X287350Y142963D01*
X287037Y142650D01*
X286413Y142338D01*
X285787D01*
X285163Y142650D01*
X284850Y142963D01*
X284537Y143588D01*
X287851Y306495D02*
X288789D01*
Y306182D01*
X288476Y305557D01*
X288163Y305245D01*
X287539Y304932D01*
X286913D01*
X286289Y305245D01*
X285976Y305557D01*
X285663Y306182D01*
Y307432D01*
X285976Y308057D01*
X286289Y308370D01*
X286913Y308682D01*
X287539D01*
X288163Y308370D01*
X288476Y308057D01*
X288789Y307432D01*
X286762Y193151D02*
Y194401D01*
X287074Y195026D01*
X287387Y195339D01*
X288012Y195651D01*
X288637D01*
X289262Y195339D01*
X289574Y195026D01*
X289887Y194401D01*
Y193151D01*
X289574Y192526D01*
X289262Y192213D01*
X288637Y191901D01*
X288012D01*
X287387Y192213D01*
X287074Y192526D01*
X286762Y193151D01*
X289514Y211188D02*
X291076Y214938D01*
X292639Y211188D01*
X290139Y212751D02*
X292014D01*
X293933Y175593D02*
X294871D01*
Y175281D01*
X294559Y174656D01*
X294246Y174343D01*
X293621Y174031D01*
X292996D01*
X292371Y174343D01*
X292059Y174656D01*
X291746Y175281D01*
Y176531D01*
X292059Y177156D01*
X292371Y177469D01*
X292996Y177781D01*
X293621D01*
X294246Y177469D01*
X294559Y177156D01*
X294871Y176531D01*
X297851Y306495D02*
X298789D01*
Y306182D01*
X298476Y305557D01*
X298163Y305245D01*
X297539Y304932D01*
X296913D01*
X296289Y305245D01*
X295976Y305557D01*
X295663Y306182D01*
Y307432D01*
X295976Y308057D01*
X296289Y308370D01*
X296913Y308682D01*
X297539D01*
X298163Y308370D01*
X298476Y308057D01*
X298789Y307432D01*
X297970Y63259D02*
X299533Y67009D01*
X301096Y63259D01*
X298596Y64822D02*
X300470D01*
X298778Y181198D02*
Y182448D01*
X299090Y183073D01*
X299403Y183386D01*
X300028Y183698D01*
X300653D01*
X301278Y183386D01*
X301590Y183073D01*
X301903Y182448D01*
Y181198D01*
X301590Y180573D01*
X301278Y180261D01*
X300653Y179948D01*
X300028D01*
X299403Y180261D01*
X299090Y180573D01*
X298778Y181198D01*
X298829Y145690D02*
Y146940D01*
X299141Y147565D01*
X299454Y147878D01*
X300079Y148190D01*
X300704D01*
X301329Y147878D01*
X301641Y147565D01*
X301954Y146940D01*
Y145690D01*
X301641Y145065D01*
X301329Y144753D01*
X300704Y144440D01*
X300079D01*
X299454Y144753D01*
X299141Y145065D01*
X298829Y145690D01*
X300974Y20881D02*
Y24631D01*
Y22756D02*
X304100D01*
Y20881D02*
Y24631D01*
X302219Y111200D02*
Y114950D01*
X305344D01*
X304719Y113075D02*
X302219D01*
Y111200D02*
X305344D01*
X302860Y201503D02*
X304423Y205253D01*
X305985Y201503D01*
X303485Y203066D02*
X305360D01*
X307851Y306495D02*
X308789D01*
Y306182D01*
X308476Y305557D01*
X308163Y305245D01*
X307539Y304932D01*
X306913D01*
X306289Y305245D01*
X305976Y305557D01*
X305663Y306182D01*
Y307432D01*
X305976Y308057D01*
X306289Y308370D01*
X306913Y308682D01*
X307539D01*
X308163Y308370D01*
X308476Y308057D01*
X308789Y307432D01*
X313939Y73535D02*
X315502Y77285D01*
X317064Y73535D01*
X314564Y75097D02*
X316439D01*
X314852Y281972D02*
X316415Y285722D01*
X317978Y281972D01*
X315478Y283534D02*
X317352D01*
X317851Y306495D02*
X318789D01*
Y306182D01*
X318476Y305557D01*
X318163Y305245D01*
X317539Y304932D01*
X316913D01*
X316289Y305245D01*
X315976Y305557D01*
X315663Y306182D01*
Y307432D01*
X315976Y308057D01*
X316289Y308370D01*
X316913Y308682D01*
X317539D01*
X318163Y308370D01*
X318476Y308057D01*
X318789Y307432D01*
X320904Y86176D02*
X322466Y89926D01*
X324029Y86176D01*
X321529Y87739D02*
X323404D01*
X320904Y123767D02*
X322466Y127517D01*
X324029Y123767D01*
X321529Y125330D02*
X323404D01*
X323278Y211188D02*
X324840Y214938D01*
X326403Y211188D01*
X323903Y212751D02*
X325778D01*
X327851Y306495D02*
X328789D01*
Y306182D01*
X328476Y305557D01*
X328163Y305245D01*
X327539Y304932D01*
X326913D01*
X326289Y305245D01*
X325976Y305557D01*
X325663Y306182D01*
Y307432D01*
X325976Y308057D01*
X326289Y308370D01*
X326913Y308682D01*
X327539D01*
X328163Y308370D01*
X328476Y308057D01*
X328789Y307432D01*
X328246Y20881D02*
Y24631D01*
Y22756D02*
X331371D01*
Y20881D02*
Y24631D01*
X331140Y283070D02*
X332702Y286820D01*
X334265Y283070D01*
X331765Y284633D02*
X333640D01*
X331707Y160584D02*
Y161834D01*
X332019Y162459D01*
X332332Y162772D01*
X332957Y163084D01*
X333582D01*
X334207Y162772D01*
X334519Y162459D01*
X334832Y161834D01*
Y160584D01*
X334519Y159959D01*
X334207Y159646D01*
X333582Y159334D01*
X332957D01*
X332332Y159646D01*
X332019Y159959D01*
X331707Y160584D01*
X334800Y175452D02*
X335737D01*
Y175139D01*
X335425Y174514D01*
X335112Y174202D01*
X334487Y173889D01*
X333862D01*
X333237Y174202D01*
X332925Y174514D01*
X332612Y175139D01*
Y176389D01*
X332925Y177014D01*
X333237Y177327D01*
X333862Y177639D01*
X334487D01*
X335112Y177327D01*
X335425Y177014D01*
X335737Y176389D01*
X334801Y67200D02*
X336364Y70950D01*
X337926Y67200D01*
X335426Y68763D02*
X337301D01*
X335447Y116157D02*
Y119907D01*
X338572D01*
X337947Y118032D02*
X335447D01*
Y116157D02*
X338572D01*
X337851Y306495D02*
X338789D01*
Y306182D01*
X338476Y305557D01*
X338163Y305245D01*
X337539Y304932D01*
X336913D01*
X336289Y305245D01*
X335976Y305557D01*
X335663Y306182D01*
Y307432D01*
X335976Y308057D01*
X336289Y308370D01*
X336913Y308682D01*
X337539D01*
X338163Y308370D01*
X338476Y308057D01*
X338789Y307432D01*
X344800Y175452D02*
X345737D01*
Y175139D01*
X345425Y174514D01*
X345112Y174202D01*
X344487Y173889D01*
X343862D01*
X343237Y174202D01*
X342925Y174514D01*
X342612Y175139D01*
Y176389D01*
X342925Y177014D01*
X343237Y177327D01*
X343862Y177639D01*
X344487D01*
X345112Y177327D01*
X345425Y177014D01*
X345737Y176389D01*
X347851Y306495D02*
X348789D01*
Y306182D01*
X348476Y305557D01*
X348163Y305245D01*
X347539Y304932D01*
X346913D01*
X346289Y305245D01*
X345976Y305557D01*
X345663Y306182D01*
Y307432D01*
X345976Y308057D01*
X346289Y308370D01*
X346913Y308682D01*
X347539D01*
X348163Y308370D01*
X348476Y308057D01*
X348789Y307432D01*
X347341Y168379D02*
Y169629D01*
X347653Y170254D01*
X347966Y170567D01*
X348591Y170879D01*
X349216D01*
X349841Y170567D01*
X350153Y170254D01*
X350466Y169629D01*
Y168379D01*
X350153Y167754D01*
X349841Y167442D01*
X349216Y167129D01*
X348591D01*
X347966Y167442D01*
X347653Y167754D01*
X347341Y168379D01*
X348246Y20881D02*
Y24631D01*
Y22756D02*
X351371D01*
Y20881D02*
Y24631D01*
X354800Y175452D02*
X355737D01*
Y175139D01*
X355425Y174514D01*
X355112Y174202D01*
X354487Y173889D01*
X353862D01*
X353237Y174202D01*
X352925Y174514D01*
X352612Y175139D01*
Y176389D01*
X352925Y177014D01*
X353237Y177327D01*
X353862Y177639D01*
X354487D01*
X355112Y177327D01*
X355425Y177014D01*
X355737Y176389D01*
X355577Y196237D02*
Y197487D01*
X355889Y198113D01*
X356202Y198425D01*
X356827Y198737D01*
X357452D01*
X358077Y198425D01*
X358389Y198113D01*
X358702Y197487D01*
Y196237D01*
X358389Y195613D01*
X358077Y195300D01*
X357452Y194987D01*
X356827D01*
X356202Y195300D01*
X355889Y195613D01*
X355577Y196237D01*
X357851Y306495D02*
X358789D01*
Y306182D01*
X358476Y305557D01*
X358163Y305245D01*
X357539Y304932D01*
X356913D01*
X356289Y305245D01*
X355976Y305557D01*
X355663Y306182D01*
Y307432D01*
X355976Y308057D01*
X356289Y308370D01*
X356913Y308682D01*
X357539D01*
X358163Y308370D01*
X358476Y308057D01*
X358789Y307432D01*
X360321Y244298D02*
X361883Y248048D01*
X363446Y244298D01*
X360946Y245861D02*
X362821D01*
X360750Y211188D02*
X362313Y214938D01*
X363875Y211188D01*
X361375Y212751D02*
X363250D01*
X364800Y175452D02*
X365737D01*
Y175139D01*
X365425Y174514D01*
X365112Y174202D01*
X364487Y173889D01*
X363862D01*
X363237Y174202D01*
X362925Y174514D01*
X362612Y175139D01*
Y176389D01*
X362925Y177014D01*
X363237Y177327D01*
X363862Y177639D01*
X364487D01*
X365112Y177327D01*
X365425Y177014D01*
X365737Y176389D01*
X367851Y306495D02*
X368789D01*
Y306182D01*
X368476Y305557D01*
X368163Y305245D01*
X367539Y304932D01*
X366913D01*
X366289Y305245D01*
X365976Y305557D01*
X365663Y306182D01*
Y307432D01*
X365976Y308057D01*
X366289Y308370D01*
X366913Y308682D01*
X367539D01*
X368163Y308370D01*
X368476Y308057D01*
X368789Y307432D01*
X366152Y144909D02*
X367714Y148659D01*
X369277Y144909D01*
X366777Y146471D02*
X368652D01*
X367329Y67334D02*
X368891Y71084D01*
X370454Y67334D01*
X367954Y68896D02*
X369829D01*
X368246Y20881D02*
Y24631D01*
Y22756D02*
X371371D01*
Y20881D02*
Y24631D01*
X370400Y183946D02*
Y185196D01*
X370712Y185821D01*
X371025Y186134D01*
X371650Y186446D01*
X372275D01*
X372900Y186134D01*
X373212Y185821D01*
X373525Y185196D01*
Y183946D01*
X373212Y183321D01*
X372900Y183009D01*
X372275Y182696D01*
X371650D01*
X371025Y183009D01*
X370712Y183321D01*
X370400Y183946D01*
X374045Y201503D02*
X375608Y205253D01*
X377170Y201503D01*
X374670Y203066D02*
X376545D01*
X375447Y116157D02*
Y119907D01*
X378572D01*
X377947Y118032D02*
X375447D01*
Y116157D02*
X378572D01*
X377851Y306495D02*
X378789D01*
Y306182D01*
X378476Y305557D01*
X378163Y305245D01*
X377539Y304932D01*
X376913D01*
X376289Y305245D01*
X375976Y305557D01*
X375663Y306182D01*
Y307432D01*
X375976Y308057D01*
X376289Y308370D01*
X376913Y308682D01*
X377539D01*
X378163Y308370D01*
X378476Y308057D01*
X378789Y307432D01*
X377644Y244298D02*
X379206Y248048D01*
X380769Y244298D01*
X378269Y245861D02*
X380144D01*
X385179Y74220D02*
X386742Y77970D01*
X388304Y74220D01*
X385804Y75782D02*
X387679D01*
X387851Y306495D02*
X388789D01*
Y306182D01*
X388476Y305557D01*
X388163Y305245D01*
X387539Y304932D01*
X386913D01*
X386289Y305245D01*
X385976Y305557D01*
X385663Y306182D01*
Y307432D01*
X385976Y308057D01*
X386289Y308370D01*
X386913Y308682D01*
X387539D01*
X388163Y308370D01*
X388476Y308057D01*
X388789Y307432D01*
X386337Y182489D02*
Y183739D01*
X386649Y184365D01*
X386962Y184677D01*
X387587Y184989D01*
X388212D01*
X388837Y184677D01*
X389149Y184365D01*
X389462Y183739D01*
Y182489D01*
X389149Y181865D01*
X388837Y181552D01*
X388212Y181239D01*
X387587D01*
X386962Y181552D01*
X386649Y181865D01*
X386337Y182489D01*
X391435Y125964D02*
X392998Y129714D01*
X394560Y125964D01*
X392060Y127526D02*
X393935D01*
X391750Y85338D02*
X393313Y89088D01*
X394875Y85338D01*
X392375Y86900D02*
X394250D01*
X392431Y211279D02*
X393994Y215029D01*
X395556Y211279D01*
X393056Y212841D02*
X394931D01*
X394270Y20802D02*
Y24552D01*
Y22678D02*
X397395D01*
Y20802D02*
Y24552D01*
X397851Y306495D02*
X398789D01*
Y306182D01*
X398476Y305557D01*
X398163Y305245D01*
X397539Y304932D01*
X396913D01*
X396289Y305245D01*
X395976Y305557D01*
X395663Y306182D01*
Y307432D01*
X395976Y308057D01*
X396289Y308370D01*
X396913Y308682D01*
X397539D01*
X398163Y308370D01*
X398476Y308057D01*
X398789Y307432D01*
X397120Y249078D02*
Y252828D01*
X398995D01*
X399620Y252516D01*
X399933Y252203D01*
X400245Y251578D01*
Y250328D01*
X399933Y249703D01*
X399620Y249391D01*
X398995Y249078D01*
X397120D01*
X405666Y177562D02*
X406604D01*
Y177249D01*
X406291Y176624D01*
X405978Y176312D01*
X405354Y175999D01*
X404728D01*
X404104Y176312D01*
X403791Y176624D01*
X403478Y177249D01*
Y178499D01*
X403791Y179124D01*
X404104Y179437D01*
X404728Y179749D01*
X405354D01*
X405978Y179437D01*
X406291Y179124D01*
X406604Y178499D01*
X404242Y116239D02*
Y119989D01*
X407367D01*
X406742Y118115D02*
X404242D01*
Y116239D02*
X407367D01*
X407851Y306495D02*
X408789D01*
Y306182D01*
X408476Y305557D01*
X408163Y305245D01*
X407539Y304932D01*
X406913D01*
X406289Y305245D01*
X405976Y305557D01*
X405663Y306182D01*
Y307432D01*
X405976Y308057D01*
X406289Y308370D01*
X406913Y308682D01*
X407539D01*
X408163Y308370D01*
X408476Y308057D01*
X408789Y307432D01*
X405998Y66235D02*
X407561Y69985D01*
X409123Y66235D01*
X406623Y67798D02*
X408498D01*
X406313Y161895D02*
Y163145D01*
X406626Y163770D01*
X406938Y164083D01*
X407563Y164395D01*
X408188D01*
X408813Y164083D01*
X409126Y163770D01*
X409438Y163145D01*
Y161895D01*
X409126Y161270D01*
X408813Y160957D01*
X408188Y160645D01*
X407563D01*
X406938Y160957D01*
X406626Y161270D01*
X406313Y161895D01*
X411884Y275413D02*
X413446Y279163D01*
X415009Y275413D01*
X412509Y276975D02*
X414384D01*
X415666Y177562D02*
X416604D01*
Y177249D01*
X416291Y176624D01*
X415978Y176312D01*
X415354Y175999D01*
X414728D01*
X414104Y176312D01*
X413791Y176624D01*
X413478Y177249D01*
Y178499D01*
X413791Y179124D01*
X414104Y179437D01*
X414728Y179749D01*
X415354D01*
X415978Y179437D01*
X416291Y179124D01*
X416604Y178499D01*
X414270Y20802D02*
Y24552D01*
Y22678D02*
X417395D01*
Y20802D02*
Y24552D01*
X417851Y306495D02*
X418789D01*
Y306182D01*
X418476Y305557D01*
X418163Y305245D01*
X417539Y304932D01*
X416913D01*
X416289Y305245D01*
X415976Y305557D01*
X415663Y306182D01*
Y307432D01*
X415976Y308057D01*
X416289Y308370D01*
X416913Y308682D01*
X417539D01*
X418163Y308370D01*
X418476Y308057D01*
X418789Y307432D01*
X420281Y168714D02*
Y169964D01*
X420594Y170589D01*
X420907Y170902D01*
X421531Y171214D01*
X422157D01*
X422781Y170902D01*
X423094Y170589D01*
X423407Y169964D01*
Y168714D01*
X423094Y168089D01*
X422781Y167776D01*
X422157Y167464D01*
X421531D01*
X420907Y167776D01*
X420594Y168089D01*
X420281Y168714D01*
X425666Y177562D02*
X426604D01*
Y177249D01*
X426291Y176624D01*
X425978Y176312D01*
X425354Y175999D01*
X424728D01*
X424104Y176312D01*
X423791Y176624D01*
X423478Y177249D01*
Y178499D01*
X423791Y179124D01*
X424104Y179437D01*
X424728Y179749D01*
X425354D01*
X425978Y179437D01*
X426291Y179124D01*
X426604Y178499D01*
X424927Y144265D02*
Y145515D01*
X425240Y146140D01*
X425552Y146453D01*
X426177Y146765D01*
X426802D01*
X427427Y146453D01*
X427740Y146140D01*
X428052Y145515D01*
Y144265D01*
X427740Y143640D01*
X427427Y143328D01*
X426802Y143015D01*
X426177D01*
X425552Y143328D01*
X425240Y143640D01*
X424927Y144265D01*
X427851Y306495D02*
X428789D01*
Y306182D01*
X428476Y305557D01*
X428163Y305245D01*
X427539Y304932D01*
X426913D01*
X426289Y305245D01*
X425976Y305557D01*
X425663Y306182D01*
Y307432D01*
X425976Y308057D01*
X426289Y308370D01*
X426913Y308682D01*
X427539D01*
X428163Y308370D01*
X428476Y308057D01*
X428789Y307432D01*
X426144Y241102D02*
X427706Y244852D01*
X429269Y241102D01*
X426769Y242664D02*
X428644D01*
X426679Y196363D02*
Y197613D01*
X426992Y198239D01*
X427304Y198551D01*
X427929Y198863D01*
X428554D01*
X429179Y198551D01*
X429492Y198239D01*
X429804Y197613D01*
Y196363D01*
X429492Y195739D01*
X429179Y195426D01*
X428554Y195113D01*
X427929D01*
X427304Y195426D01*
X426992Y195739D01*
X426679Y196363D01*
X435666Y177562D02*
X436604D01*
Y177249D01*
X436291Y176624D01*
X435978Y176312D01*
X435354Y175999D01*
X434728D01*
X434104Y176312D01*
X433791Y176624D01*
X433478Y177249D01*
Y178499D01*
X433791Y179124D01*
X434104Y179437D01*
X434728Y179749D01*
X435354D01*
X435978Y179437D01*
X436291Y179124D01*
X436604Y178499D01*
X433478Y211279D02*
X435041Y215029D01*
X436604Y211279D01*
X434104Y212841D02*
X435978D01*
X434270Y20802D02*
Y24552D01*
Y22678D02*
X437395D01*
Y20802D02*
Y24552D01*
X437851Y306495D02*
X438789D01*
Y306182D01*
X438476Y305557D01*
X438163Y305245D01*
X437539Y304932D01*
X436913D01*
X436289Y305245D01*
X435976Y305557D01*
X435663Y306182D01*
Y307432D01*
X435976Y308057D01*
X436289Y308370D01*
X436913Y308682D01*
X437539D01*
X438163Y308370D01*
X438476Y308057D01*
X438789Y307432D01*
X437470Y292669D02*
X439033Y296419D01*
X440596Y292669D01*
X438096Y294231D02*
X439970D01*
X438250Y68271D02*
X439813Y72021D01*
X441375Y68271D01*
X438875Y69833D02*
X440750D01*
X441856Y182745D02*
Y183995D01*
X442169Y184620D01*
X442481Y184933D01*
X443106Y185245D01*
X443731D01*
X444356Y184933D01*
X444669Y184620D01*
X444981Y183995D01*
Y182745D01*
X444669Y182120D01*
X444356Y181808D01*
X443731Y181495D01*
X443106D01*
X442481Y181808D01*
X442169Y182120D01*
X441856Y182745D01*
X443262Y143424D02*
X444824Y147174D01*
X446387Y143424D01*
X443887Y144987D02*
X445762D01*
X444242Y116239D02*
Y119989D01*
X447367D01*
X446742Y118115D02*
X444242D01*
Y116239D02*
X447367D01*
X447333Y201503D02*
X448895Y205253D01*
X450458Y201503D01*
X447958Y203066D02*
X449833D01*
X458758Y76098D02*
X460320Y79848D01*
X461883Y76098D01*
X459383Y77660D02*
X461258D01*
X459860Y20881D02*
Y24631D01*
Y22756D02*
X462985D01*
Y20881D02*
Y24631D01*
X460526Y178793D02*
Y180043D01*
X460838Y180668D01*
X461151Y180980D01*
X461776Y181293D01*
X462401D01*
X463026Y180980D01*
X463338Y180668D01*
X463651Y180043D01*
Y178793D01*
X463338Y178168D01*
X463026Y177855D01*
X462401Y177543D01*
X461776D01*
X461151Y177855D01*
X460838Y178168D01*
X460526Y178793D01*
X462569Y319897D02*
X464131Y323647D01*
X465694Y319897D01*
X463194Y321459D02*
X465069D01*
X465644Y88590D02*
X467206Y92340D01*
X468769Y88590D01*
X466269Y90152D02*
X468144D01*
X466030Y129838D02*
X467592Y133588D01*
X469155Y129838D01*
X466655Y131400D02*
X468530D01*
X475115Y177326D02*
X476052D01*
Y177013D01*
X475740Y176388D01*
X475427Y176076D01*
X474802Y175763D01*
X474177D01*
X473552Y176076D01*
X473240Y176388D01*
X472927Y177013D01*
Y178263D01*
X473240Y178888D01*
X473552Y179201D01*
X474177Y179513D01*
X474802D01*
X475427Y179201D01*
X475740Y178888D01*
X476052Y178263D01*
X477199Y249078D02*
Y252828D01*
X479074D01*
X479699Y252516D01*
X480011Y252203D01*
X480324Y251578D01*
Y250328D01*
X480011Y249703D01*
X479699Y249391D01*
X479074Y249078D01*
X477199D01*
X479860Y20881D02*
Y24631D01*
Y22756D02*
X482985D01*
Y20881D02*
Y24631D01*
X482478Y314422D02*
Y310672D01*
X485604D01*
X482927Y158578D02*
X484490Y162328D01*
X486052Y158578D01*
X483552Y160141D02*
X485427D01*
X485115Y177326D02*
X486052D01*
Y177013D01*
X485740Y176388D01*
X485427Y176076D01*
X484802Y175763D01*
X484177D01*
X483552Y176076D01*
X483240Y176388D01*
X482927Y177013D01*
Y178263D01*
X483240Y178888D01*
X483552Y179201D01*
X484177Y179513D01*
X484802D01*
X485427Y179201D01*
X485740Y178888D01*
X486052Y178263D01*
X487415Y115369D02*
Y119119D01*
X490541D01*
X489915Y117244D02*
X487415D01*
Y115369D02*
X490541D01*
X487900Y211031D02*
X489462Y214781D01*
X491025Y211031D01*
X488525Y212593D02*
X490400D01*
X488238Y164934D02*
Y166184D01*
X488551Y166809D01*
X488863Y167122D01*
X489488Y167434D01*
X490113D01*
X490738Y167122D01*
X491051Y166809D01*
X491363Y166184D01*
Y164934D01*
X491051Y164309D01*
X490738Y163997D01*
X490113Y163684D01*
X489488D01*
X488863Y163997D01*
X488551Y164309D01*
X488238Y164934D01*
X488813Y69464D02*
X490376Y73214D01*
X491938Y69464D01*
X489438Y71026D02*
X491313D01*
X492478Y314422D02*
Y310672D01*
X495604D01*
X495115Y177326D02*
X496052D01*
Y177013D01*
X495740Y176388D01*
X495427Y176076D01*
X494802Y175763D01*
X494177D01*
X493552Y176076D01*
X493240Y176388D01*
X492927Y177013D01*
Y178263D01*
X493240Y178888D01*
X493552Y179201D01*
X494177Y179513D01*
X494802D01*
X495427Y179201D01*
X495740Y178888D01*
X496052Y178263D01*
X499860Y20881D02*
Y24631D01*
Y22756D02*
X502985D01*
Y20881D02*
Y24631D01*
X502478Y314422D02*
Y310672D01*
X505604D01*
X502545Y202357D02*
X504108Y206107D01*
X505670Y202357D01*
X503170Y203920D02*
X505045D01*
X505115Y177326D02*
X506052D01*
Y177013D01*
X505740Y176388D01*
X505427Y176076D01*
X504802Y175763D01*
X504177D01*
X503552Y176076D01*
X503240Y176388D01*
X502927Y177013D01*
Y178263D01*
X503240Y178888D01*
X503552Y179201D01*
X504177Y179513D01*
X504802D01*
X505427Y179201D01*
X505740Y178888D01*
X506052Y178263D01*
X503896Y225320D02*
Y226570D01*
X504208Y227195D01*
X504521Y227508D01*
X505146Y227820D01*
X505771D01*
X506396Y227508D01*
X506708Y227195D01*
X507021Y226570D01*
Y225320D01*
X506708Y224695D01*
X506396Y224383D01*
X505771Y224070D01*
X505146D01*
X504521Y224383D01*
X504208Y224695D01*
X503896Y225320D01*
X505557Y142419D02*
Y143669D01*
X505870Y144294D01*
X506182Y144606D01*
X506807Y144919D01*
X507432D01*
X508057Y144606D01*
X508370Y144294D01*
X508682Y143669D01*
Y142419D01*
X508370Y141794D01*
X508057Y141481D01*
X507432Y141169D01*
X506807D01*
X506182Y141481D01*
X505870Y141794D01*
X505557Y142419D01*
X509203Y252566D02*
Y256316D01*
X512328D01*
X511703Y254441D02*
X509203D01*
Y252566D02*
X512328D01*
X509203Y272566D02*
Y276316D01*
X512328D01*
X511703Y274441D02*
X509203D01*
Y272566D02*
X512328D01*
X509384Y181155D02*
Y182405D01*
X509696Y183030D01*
X510009Y183343D01*
X510634Y183655D01*
X511259D01*
X511884Y183343D01*
X512196Y183030D01*
X512509Y182405D01*
Y181155D01*
X512196Y180530D01*
X511884Y180217D01*
X511259Y179905D01*
X510634D01*
X510009Y180217D01*
X509696Y180530D01*
X509384Y181155D01*
Y192883D02*
Y194133D01*
X509696Y194758D01*
X510009Y195071D01*
X510634Y195383D01*
X511259D01*
X511884Y195071D01*
X512196Y194758D01*
X512509Y194133D01*
Y192883D01*
X512196Y192258D01*
X511884Y191946D01*
X511259Y191633D01*
X510634D01*
X510009Y191946D01*
X509696Y192258D01*
X509384Y192883D01*
X510463Y282960D02*
Y286710D01*
X513588D01*
X512963Y284835D02*
X510463D01*
Y292960D02*
Y296710D01*
X513588D01*
X512963Y294835D02*
X510463D01*
X512478Y314422D02*
Y310672D01*
X515604D01*
X514053Y228367D02*
Y229617D01*
X514366Y230243D01*
X514678Y230555D01*
X515303Y230867D01*
X515928D01*
X516553Y230555D01*
X516866Y230243D01*
X517178Y229617D01*
Y228367D01*
X516866Y227743D01*
X516553Y227430D01*
X515928Y227117D01*
X515303D01*
X514678Y227430D01*
X514366Y227743D01*
X514053Y228367D01*
X517002Y257356D02*
Y258606D01*
X517315Y259231D01*
X517627Y259543D01*
X518252Y259856D01*
X518877D01*
X519502Y259543D01*
X519815Y259231D01*
X520127Y258606D01*
Y257356D01*
X519815Y256731D01*
X519502Y256418D01*
X518877Y256106D01*
X518252D01*
X517627Y256418D01*
X517315Y256731D01*
X517002Y257356D01*
X520581Y143578D02*
X522143Y147328D01*
X523706Y143578D01*
X521206Y145141D02*
X523081D01*
X520679Y71838D02*
X522242Y75588D01*
X523804Y71838D01*
X521304Y73400D02*
X523179D01*
X522478Y314422D02*
Y310672D01*
X525604D01*
X526801Y274086D02*
X528364Y277836D01*
X529926Y274086D01*
X527426Y275648D02*
X529301D01*
X526852Y210670D02*
Y211920D01*
X527165Y212546D01*
X527478Y212858D01*
X528102Y213170D01*
X528728D01*
X529352Y212858D01*
X529665Y212546D01*
X529978Y211920D01*
Y210670D01*
X529665Y210046D01*
X529352Y209733D01*
X528728Y209420D01*
X528102D01*
X527478Y209733D01*
X527165Y210046D01*
X526852Y210670D01*
X527415Y115369D02*
Y119119D01*
X530541D01*
X529915Y117244D02*
X527415D01*
Y115369D02*
X530541D01*
X530730Y207639D02*
Y208889D01*
X531043Y209514D01*
X531356Y209827D01*
X531980Y210139D01*
X532606D01*
X533230Y209827D01*
X533543Y209514D01*
X533856Y208889D01*
Y207639D01*
X533543Y207014D01*
X533230Y206702D01*
X532606Y206389D01*
X531980D01*
X531356Y206702D01*
X531043Y207014D01*
X530730Y207639D01*
X531073Y213710D02*
Y214960D01*
X531385Y215585D01*
X531698Y215898D01*
X532323Y216210D01*
X532948D01*
X533573Y215898D01*
X533885Y215585D01*
X534198Y214960D01*
Y213710D01*
X533885Y213085D01*
X533573Y212772D01*
X532948Y212460D01*
X532323D01*
X531698Y212772D01*
X531385Y213085D01*
X531073Y213710D01*
X535014Y78176D02*
X536576Y81926D01*
X538139Y78176D01*
X535639Y79739D02*
X537514D01*
X537006Y188119D02*
Y189369D01*
X537319Y189994D01*
X537631Y190307D01*
X538256Y190619D01*
X538881D01*
X539506Y190307D01*
X539819Y189994D01*
X540131Y189369D01*
Y188119D01*
X539819Y187494D01*
X539506Y187182D01*
X538881Y186869D01*
X538256D01*
X537631Y187182D01*
X537319Y187494D01*
X537006Y188119D01*
X541797Y150783D02*
X543360Y154533D01*
X544922Y150783D01*
X542422Y152345D02*
X544297D01*
X545179Y160428D02*
X546742Y164178D01*
X548304Y160428D01*
X545804Y161991D02*
X547679D01*
X547896Y297239D02*
Y300989D01*
X551021D01*
X550396Y299115D02*
X547896D01*
X550699Y19696D02*
Y23446D01*
Y21571D02*
X553824D01*
Y19696D02*
Y23446D01*
X554317Y54165D02*
X555567D01*
X554943D02*
Y57915D01*
X554317D02*
X555567D01*
X554317Y84165D02*
X555567D01*
X554943D02*
Y87915D01*
X554317D02*
X555567D01*
X556856Y112277D02*
Y113527D01*
X557169Y114152D01*
X557481Y114465D01*
X558106Y114777D01*
X558731D01*
X559356Y114465D01*
X559669Y114152D01*
X559981Y113527D01*
Y112277D01*
X559669Y111652D01*
X559356Y111339D01*
X558731Y111027D01*
X558106D01*
X557481Y111339D01*
X557169Y111652D01*
X556856Y112277D01*
X556864Y96155D02*
Y97405D01*
X557177Y98030D01*
X557489Y98343D01*
X558114Y98655D01*
X558739D01*
X559364Y98343D01*
X559677Y98030D01*
X559989Y97405D01*
Y96155D01*
X559677Y95530D01*
X559364Y95217D01*
X558739Y94905D01*
X558114D01*
X557489Y95217D01*
X557177Y95530D01*
X556864Y96155D01*
X557738Y297239D02*
Y300989D01*
X560863D01*
X560238Y299115D02*
X557738D01*
X559317Y290395D02*
Y291645D01*
X559630Y292270D01*
X559942Y292583D01*
X560567Y292895D01*
X561192D01*
X561817Y292583D01*
X562130Y292270D01*
X562442Y291645D01*
Y290395D01*
X562130Y289770D01*
X561817Y289457D01*
X561192Y289145D01*
X560567D01*
X559942Y289457D01*
X559630Y289770D01*
X559317Y290395D01*
X561360Y116009D02*
Y117259D01*
X561673Y117884D01*
X561985Y118197D01*
X562610Y118509D01*
X563235D01*
X563860Y118197D01*
X564173Y117884D01*
X564485Y117259D01*
Y116009D01*
X564173Y115384D01*
X563860Y115072D01*
X563235Y114759D01*
X562610D01*
X561985Y115072D01*
X561673Y115384D01*
X561360Y116009D01*
X561781Y97749D02*
Y98999D01*
X562094Y99624D01*
X562407Y99937D01*
X563031Y100249D01*
X563657D01*
X564281Y99937D01*
X564594Y99624D01*
X564907Y98999D01*
Y97749D01*
X564594Y97124D01*
X564281Y96812D01*
X563657Y96499D01*
X563031D01*
X562407Y96812D01*
X562094Y97124D01*
X561781Y97749D01*
X564317Y54165D02*
X565567D01*
X564943D02*
Y57915D01*
X564317D02*
X565567D01*
X564317Y84165D02*
X565567D01*
X564943D02*
Y87915D01*
X564317D02*
X565567D01*
X564876Y208230D02*
Y209480D01*
X565189Y210105D01*
X565501Y210417D01*
X566126Y210730D01*
X566751D01*
X567376Y210417D01*
X567689Y210105D01*
X568001Y209480D01*
Y208230D01*
X567689Y207605D01*
X567376Y207292D01*
X566751Y206980D01*
X566126D01*
X565501Y207292D01*
X565189Y207605D01*
X564876Y208230D01*
X564955Y213115D02*
Y214365D01*
X565267Y214991D01*
X565580Y215303D01*
X566205Y215615D01*
X566830D01*
X567455Y215303D01*
X567767Y214991D01*
X568080Y214365D01*
Y213115D01*
X567767Y212491D01*
X567455Y212178D01*
X566830Y211865D01*
X566205D01*
X565580Y212178D01*
X565267Y212491D01*
X564955Y213115D01*
X566793Y263702D02*
Y264952D01*
X567106Y265577D01*
X567419Y265890D01*
X568043Y266202D01*
X568669D01*
X569293Y265890D01*
X569606Y265577D01*
X569919Y264952D01*
Y263702D01*
X569606Y263077D01*
X569293Y262765D01*
X568669Y262452D01*
X568043D01*
X567419Y262765D01*
X567106Y263077D01*
X566793Y263702D01*
X567581Y297239D02*
Y300989D01*
X570706D01*
X570081Y299115D02*
X567581D01*
X569659Y205127D02*
Y206377D01*
X569972Y207002D01*
X570285Y207315D01*
X570909Y207627D01*
X571535D01*
X572159Y207315D01*
X572472Y207002D01*
X572785Y206377D01*
Y205127D01*
X572472Y204502D01*
X572159Y204190D01*
X571535Y203877D01*
X570909D01*
X570285Y204190D01*
X569972Y204502D01*
X569659Y205127D01*
X570569Y290088D02*
Y291338D01*
X570881Y291963D01*
X571194Y292276D01*
X571819Y292588D01*
X572444D01*
X573069Y292276D01*
X573381Y291963D01*
X573694Y291338D01*
Y290088D01*
X573381Y289463D01*
X573069Y289150D01*
X572444Y288838D01*
X571819D01*
X571194Y289150D01*
X570881Y289463D01*
X570569Y290088D01*
X570663Y136674D02*
Y137924D01*
X570976Y138550D01*
X571289Y138862D01*
X571913Y139174D01*
X572539D01*
X573163Y138862D01*
X573476Y138550D01*
X573789Y137924D01*
Y136674D01*
X573476Y136050D01*
X573163Y135737D01*
X572539Y135424D01*
X571913D01*
X571289Y135737D01*
X570976Y136050D01*
X570663Y136674D01*
X570699Y19696D02*
Y23446D01*
Y21571D02*
X573824D01*
Y19696D02*
Y23446D01*
X575644Y136127D02*
Y137377D01*
X575956Y138002D01*
X576269Y138315D01*
X576894Y138627D01*
X577519D01*
X578144Y138315D01*
X578456Y138002D01*
X578769Y137377D01*
Y136127D01*
X578456Y135502D01*
X578144Y135190D01*
X577519Y134877D01*
X576894D01*
X576269Y135190D01*
X575956Y135502D01*
X575644Y136127D01*
X576781Y90789D02*
Y92039D01*
X577094Y92664D01*
X577407Y92976D01*
X578031Y93289D01*
X578657D01*
X579281Y92976D01*
X579594Y92664D01*
X579907Y92039D01*
Y90789D01*
X579594Y90164D01*
X579281Y89851D01*
X578657Y89539D01*
X578031D01*
X577407Y89851D01*
X577094Y90164D01*
X576781Y90789D01*
X579907Y170131D02*
Y171381D01*
X580220Y172006D01*
X580533Y172319D01*
X581157Y172631D01*
X581783D01*
X582407Y172319D01*
X582720Y172006D01*
X583033Y171381D01*
Y170131D01*
X582720Y169506D01*
X582407Y169194D01*
X581783Y168881D01*
X581157D01*
X580533Y169194D01*
X580220Y169506D01*
X579907Y170131D01*
X581372Y315367D02*
Y316617D01*
X581685Y317243D01*
X581997Y317555D01*
X582622Y317867D01*
X583247D01*
X583872Y317555D01*
X584185Y317243D01*
X584497Y316617D01*
Y315367D01*
X584185Y314743D01*
X583872Y314430D01*
X583247Y314117D01*
X582622D01*
X581997Y314430D01*
X581685Y314743D01*
X581372Y315367D01*
X581801Y139491D02*
X583364Y143241D01*
X584926Y139491D01*
X582426Y141054D02*
X584301D01*
X589506Y150294D02*
X591069Y154044D01*
X592631Y150294D01*
X590131Y151857D02*
X592006D01*
X590455Y310200D02*
X592017Y313950D01*
X593580Y310200D01*
X591080Y311763D02*
X592955D01*
X590699Y19696D02*
Y23446D01*
Y21571D02*
X593824D01*
Y19696D02*
Y23446D01*
X596211Y53027D02*
X597461D01*
X596836D02*
Y56777D01*
X596211D02*
X597461D01*
X596211Y83027D02*
X597461D01*
X596836D02*
Y86777D01*
X596211D02*
X597461D01*
X598852Y280832D02*
Y282082D01*
X599165Y282707D01*
X599478Y283020D01*
X600102Y283332D01*
X600728D01*
X601352Y283020D01*
X601665Y282707D01*
X601978Y282082D01*
Y280832D01*
X601665Y280207D01*
X601352Y279894D01*
X600728Y279582D01*
X600102D01*
X599478Y279894D01*
X599165Y280207D01*
X598852Y280832D01*
X601656Y170131D02*
Y171381D01*
X601968Y172006D01*
X602281Y172319D01*
X602906Y172631D01*
X603531D01*
X604156Y172319D01*
X604468Y172006D01*
X604781Y171381D01*
Y170131D01*
X604468Y169506D01*
X604156Y169194D01*
X603531Y168881D01*
X602906D01*
X602281Y169194D01*
X601968Y169506D01*
X601656Y170131D01*
X606211Y53027D02*
X607461D01*
X606836D02*
Y56777D01*
X606211D02*
X607461D01*
X606211Y83027D02*
X607461D01*
X606836D02*
Y86777D01*
X606211D02*
X607461D01*
X607888Y118332D02*
Y114582D01*
X611013D01*
X607888Y128174D02*
Y124424D01*
X611013D01*
X609380Y19692D02*
Y23442D01*
Y21567D02*
X612505D01*
Y19692D02*
Y23442D01*
X610994Y286550D02*
Y290300D01*
X613181D01*
X613807Y289988D01*
X614119Y289363D01*
X613807Y288738D01*
X613181Y288426D01*
X610994D01*
X611490Y170131D02*
Y171381D01*
X611803Y172006D01*
X612115Y172319D01*
X612740Y172631D01*
X613365D01*
X613990Y172319D01*
X614303Y172006D01*
X614615Y171381D01*
Y170131D01*
X614303Y169506D01*
X613990Y169194D01*
X613365Y168881D01*
X612740D01*
X612115Y169194D01*
X611803Y169506D01*
X611490Y170131D01*
X611565Y203728D02*
X613128Y207478D01*
X614690Y203728D01*
X612190Y205290D02*
X614065D01*
X611848Y158832D02*
Y160082D01*
X612161Y160707D01*
X612474Y161020D01*
X613098Y161332D01*
X613724D01*
X614348Y161020D01*
X614661Y160707D01*
X614974Y160082D01*
Y158832D01*
X614661Y158207D01*
X614348Y157894D01*
X613724Y157582D01*
X613098D01*
X612474Y157894D01*
X612161Y158207D01*
X611848Y158832D01*
X613018Y178092D02*
Y179342D01*
X613330Y179967D01*
X613643Y180280D01*
X614268Y180592D01*
X614893D01*
X615518Y180280D01*
X615830Y179967D01*
X616143Y179342D01*
Y178092D01*
X615830Y177467D01*
X615518Y177154D01*
X614893Y176842D01*
X614268D01*
X613643Y177154D01*
X613330Y177467D01*
X613018Y178092D01*
X617888Y118332D02*
Y114582D01*
X621013D01*
X617888Y128174D02*
Y124424D01*
X621013D01*
X621085Y181198D02*
Y182448D01*
X621397Y183073D01*
X621710Y183386D01*
X622335Y183698D01*
X622960D01*
X623585Y183386D01*
X623897Y183073D01*
X624210Y182448D01*
Y181198D01*
X623897Y180573D01*
X623585Y180261D01*
X622960Y179948D01*
X622335D01*
X621710Y180261D01*
X621397Y180573D01*
X621085Y181198D01*
X622226Y236619D02*
Y237869D01*
X622539Y238494D01*
X622852Y238807D01*
X623476Y239119D01*
X624102D01*
X624726Y238807D01*
X625039Y238494D01*
X625352Y237869D01*
Y236619D01*
X625039Y235994D01*
X624726Y235682D01*
X624102Y235369D01*
X623476D01*
X622852Y235682D01*
X622539Y235994D01*
X622226Y236619D01*
X630600Y90991D02*
X630287Y90678D01*
X629662Y90365D01*
X628724D01*
X628100Y90678D01*
X627787Y90991D01*
X627474Y91615D01*
Y92865D01*
X627787Y93491D01*
X628100Y93803D01*
X628724Y94115D01*
X629662D01*
X630287Y93803D01*
X630600Y93491D01*
Y301620D02*
X630287Y301308D01*
X629662Y300995D01*
X628724D01*
X628100Y301308D01*
X627787Y301620D01*
X627474Y302245D01*
Y303495D01*
X627787Y304120D01*
X628100Y304433D01*
X628724Y304745D01*
X629662D01*
X630287Y304433D01*
X630600Y304120D01*
X627888Y118332D02*
Y114582D01*
X631013D01*
X627888Y128174D02*
Y124424D01*
X631013D01*
X627970Y187911D02*
Y189161D01*
X628283Y189786D01*
X628596Y190098D01*
X629220Y190411D01*
X629846D01*
X630470Y190098D01*
X630783Y189786D01*
X631096Y189161D01*
Y187911D01*
X630783Y187286D01*
X630470Y186973D01*
X629846Y186661D01*
X629220D01*
X628596Y186973D01*
X628283Y187286D01*
X627970Y187911D01*
X629301Y267653D02*
Y271403D01*
X632426D01*
X631801Y269528D02*
X629301D01*
Y275527D02*
Y279277D01*
X632426D01*
X631801Y277402D02*
X629301D01*
X629380Y19692D02*
Y23442D01*
Y21567D02*
X632505D01*
Y19692D02*
Y23442D01*
X634470Y203395D02*
Y204645D01*
X634783Y205270D01*
X635096Y205583D01*
X635720Y205895D01*
X636346D01*
X636970Y205583D01*
X637283Y205270D01*
X637596Y204645D01*
Y203395D01*
X637283Y202770D01*
X636970Y202457D01*
X636346Y202145D01*
X635720D01*
X635096Y202457D01*
X634783Y202770D01*
X634470Y203395D01*
X636179Y187863D02*
Y189113D01*
X636492Y189739D01*
X636804Y190051D01*
X637429Y190363D01*
X638054D01*
X638679Y190051D01*
X638992Y189739D01*
X639304Y189113D01*
Y187863D01*
X638992Y187239D01*
X638679Y186926D01*
X638054Y186613D01*
X637429D01*
X636804Y186926D01*
X636492Y187239D01*
X636179Y187863D01*
X637793Y231919D02*
Y233169D01*
X638106Y233794D01*
X638419Y234106D01*
X639043Y234419D01*
X639669D01*
X640293Y234106D01*
X640606Y233794D01*
X640919Y233169D01*
Y231919D01*
X640606Y231294D01*
X640293Y230981D01*
X639669Y230669D01*
X639043D01*
X638419Y230981D01*
X638106Y231294D01*
X637793Y231919D01*
X637888Y118332D02*
Y114582D01*
X641013D01*
X637888Y128174D02*
Y124424D01*
X641013D01*
X639144Y267653D02*
Y271403D01*
X642269D01*
X641644Y269528D02*
X639144D01*
Y275527D02*
Y279277D01*
X642269D01*
X641644Y277402D02*
X639144D01*
X647888Y118332D02*
Y114582D01*
X651013D01*
X647888Y128174D02*
Y124424D01*
X651013D01*
X649380Y19692D02*
Y23442D01*
Y21567D02*
X652505D01*
Y19692D02*
Y23442D01*
X650545Y168913D02*
Y172663D01*
Y170788D02*
X651483D01*
X653670Y172663D01*
X651483Y170788D02*
X653670Y168913D01*
X650545Y188676D02*
Y192426D01*
Y190552D02*
X651483D01*
X653670Y192426D01*
X651483Y190552D02*
X653670Y188676D01*
X650939Y225999D02*
Y229749D01*
Y227874D02*
X651876D01*
X654064Y229749D01*
X651876Y227874D02*
X654064Y225999D01*
X650939Y245763D02*
Y249513D01*
Y247638D02*
X651876D01*
X654064Y249513D01*
X651876Y247638D02*
X654064Y245763D01*
X657451Y286550D02*
Y290300D01*
X659638D01*
X660263Y289988D01*
X660576Y289363D01*
X660263Y288738D01*
X659638Y288426D01*
X657451D01*
X688914Y88546D02*
X689852D01*
Y88233D01*
X689539Y87609D01*
X689226Y87296D01*
X688602Y86983D01*
X687976D01*
X687352Y87296D01*
X687039Y87609D01*
X686726Y88233D01*
Y89483D01*
X687039Y90109D01*
X687352Y90421D01*
X687976Y90733D01*
X688602D01*
X689226Y90421D01*
X689539Y90109D01*
X689852Y89483D01*
X688914Y98546D02*
X689852D01*
Y98233D01*
X689539Y97609D01*
X689226Y97296D01*
X688602Y96983D01*
X687976D01*
X687352Y97296D01*
X687039Y97609D01*
X686726Y98233D01*
Y99483D01*
X687039Y100109D01*
X687352Y100421D01*
X687976Y100733D01*
X688602D01*
X689226Y100421D01*
X689539Y100109D01*
X689852Y99483D01*
X688914Y108546D02*
X689852D01*
Y108233D01*
X689539Y107609D01*
X689226Y107296D01*
X688602Y106983D01*
X687976D01*
X687352Y107296D01*
X687039Y107609D01*
X686726Y108233D01*
Y109483D01*
X687039Y110109D01*
X687352Y110421D01*
X687976Y110733D01*
X688602D01*
X689226Y110421D01*
X689539Y110109D01*
X689852Y109483D01*
X688914Y118546D02*
X689852D01*
Y118233D01*
X689539Y117609D01*
X689226Y117296D01*
X688602Y116983D01*
X687976D01*
X687352Y117296D01*
X687039Y117609D01*
X686726Y118233D01*
Y119483D01*
X687039Y120109D01*
X687352Y120421D01*
X687976Y120733D01*
X688602D01*
X689226Y120421D01*
X689539Y120109D01*
X689852Y119483D01*
X699832Y304459D02*
X699519Y304146D01*
X698894Y303834D01*
X697957D01*
X697332Y304146D01*
X697019Y304459D01*
X696707Y305084D01*
Y306334D01*
X697019Y306959D01*
X697332Y307272D01*
X697957Y307584D01*
X698894D01*
X699519Y307272D01*
X699832Y306959D01*
X700737Y31191D02*
X700425Y30879D01*
X699800Y30566D01*
X698862D01*
X698237Y30879D01*
X697925Y31191D01*
X697612Y31816D01*
Y33066D01*
X697925Y33691D01*
X698237Y34004D01*
X698862Y34316D01*
X699800D01*
X700425Y34004D01*
X700737Y33691D01*
X700545Y168913D02*
Y172663D01*
Y170788D02*
X701483D01*
X703670Y172663D01*
X701483Y170788D02*
X703670Y168913D01*
X700545Y188676D02*
Y192426D01*
Y190552D02*
X701483D01*
X703670Y192426D01*
X701483Y190552D02*
X703670Y188676D01*
X700939Y225999D02*
Y229749D01*
Y227874D02*
X701876D01*
X704064Y229749D01*
X701876Y227874D02*
X704064Y225999D01*
X700939Y245763D02*
Y249513D01*
Y247638D02*
X701876D01*
X704064Y249513D01*
X701876Y247638D02*
X704064Y245763D01*
D02*
D201*
X20329Y22818D03*
X20722Y297621D03*
X37502Y65223D03*
X49632Y42491D03*
X53400Y220022D03*
Y235022D03*
X56549Y92070D03*
Y107070D03*
X79159Y34617D03*
X82140Y161400D03*
X92376Y220062D03*
X96557Y65223D03*
X97392Y19274D03*
X114297Y291263D03*
X117392Y19274D03*
X125502Y253141D03*
X137392Y19274D03*
X142237Y133054D03*
X159411Y184967D03*
X164498Y58259D03*
Y106290D03*
X168274Y13660D03*
X172502Y288400D03*
X176096Y209353D03*
Y229117D03*
X176490Y153054D03*
Y172818D03*
X186876Y191463D03*
X188120Y114164D03*
X188274Y13660D03*
X191093Y245054D03*
X195313Y191463D03*
X208274Y13660D03*
X211742Y58259D03*
Y106290D03*
X214817Y275967D03*
Y285810D03*
Y295652D03*
X226096Y209353D03*
Y229117D03*
X226490Y153054D03*
Y172818D03*
X228242Y76144D03*
X237368Y115672D03*
X242935Y188802D03*
X243057Y200912D03*
X245167Y183054D03*
X248829Y225900D03*
X250073Y84428D03*
Y295058D03*
X250974Y14944D03*
X251022Y150790D03*
X251746Y168093D03*
X252219Y105263D03*
X258065Y56908D03*
X261746Y168093D03*
X266474Y157857D03*
X270974Y14944D03*
X271746Y168093D03*
X274537Y136400D03*
X275663Y298995D03*
X276762Y185963D03*
X279514Y205251D03*
X281746Y168093D03*
X285663Y298995D03*
X287970Y57322D03*
X288778Y174011D03*
X288829Y138503D03*
X290974Y14944D03*
X292219Y105263D03*
X292860Y195566D03*
X295663Y298995D03*
X303939Y67597D03*
X304852Y276034D03*
X305663Y298995D03*
X310904Y80239D03*
Y117830D03*
X313278Y205251D03*
X315663Y298995D03*
X318246Y14944D03*
X321140Y277133D03*
X321707Y153396D03*
X322612Y167952D03*
X324801Y61263D03*
X325447Y110219D03*
X325663Y298995D03*
X332612Y167952D03*
X335663Y298995D03*
X337341Y161192D03*
X338246Y14944D03*
X342612Y167952D03*
X345577Y189050D03*
X345663Y298995D03*
X350321Y238361D03*
X350750Y205251D03*
X352612Y167952D03*
X355663Y298995D03*
X356152Y138971D03*
X357329Y61396D03*
X358246Y14944D03*
X360400Y176759D03*
X364045Y195566D03*
X365447Y110219D03*
X365663Y298995D03*
X367644Y238361D03*
X375179Y68282D03*
X375663Y298995D03*
X376337Y175302D03*
X381435Y120026D03*
X381750Y79400D03*
X382431Y205341D03*
X384270Y14865D03*
X385663Y298995D03*
X387120Y243141D03*
X393478Y170062D03*
X394242Y110302D03*
X395663Y298995D03*
X395998Y60298D03*
X396313Y154707D03*
X401884Y269475D03*
X403478Y170062D03*
X404270Y14865D03*
X405663Y298995D03*
X410281Y161526D03*
X413478Y170062D03*
X414927Y137078D03*
X415663Y298995D03*
X416144Y235164D03*
X416679Y189176D03*
X423478Y170062D03*
Y205341D03*
X424270Y14865D03*
X425663Y298995D03*
X427470Y286731D03*
X428250Y62333D03*
X431856Y175558D03*
X433262Y137487D03*
X434242Y110302D03*
X437333Y195566D03*
X448758Y70160D03*
X449860Y14944D03*
X450526Y171605D03*
X452569Y313959D03*
X455644Y82652D03*
X456030Y123900D03*
X462927Y169826D03*
X467199Y243141D03*
X469860Y14944D03*
X472478Y304735D03*
X472927Y152641D03*
Y169826D03*
X477415Y109432D03*
X477900Y205093D03*
X478238Y157747D03*
X478813Y63526D03*
X482478Y304735D03*
X482927Y169826D03*
X489860Y14944D03*
X492478Y304735D03*
X492545Y196420D03*
X492927Y169826D03*
X493896Y218133D03*
X495557Y135231D03*
X499203Y246629D03*
Y266629D03*
X499384Y173967D03*
Y185696D03*
X500463Y277022D03*
Y287022D03*
X502478Y304735D03*
X504053Y221180D03*
X507002Y250168D03*
X510581Y137641D03*
X510679Y65900D03*
X512478Y304735D03*
X516801Y268148D03*
X516852Y203483D03*
X517415Y109432D03*
X520730Y200452D03*
X521073Y206522D03*
X525014Y72239D03*
X527006Y180932D03*
X531797Y144845D03*
X535179Y154491D03*
X537896Y291302D03*
X540699Y13759D03*
X543380Y48227D03*
Y78227D03*
X546856Y105089D03*
X546864Y88967D03*
X547738Y291302D03*
X549317Y283207D03*
X551360Y108822D03*
X551781Y90562D03*
X553380Y48227D03*
Y78227D03*
X554876Y201042D03*
X554955Y205928D03*
X556793Y256515D03*
X557581Y291302D03*
X559659Y197940D03*
X560569Y282900D03*
X560663Y129487D03*
X560699Y13759D03*
X565644Y128940D03*
X566781Y83601D03*
X569907Y162944D03*
X571372Y308180D03*
X571801Y133554D03*
X579506Y144357D03*
X580455Y304263D03*
X580699Y13759D03*
X585274Y47089D03*
Y77089D03*
X588852Y273644D03*
X591656Y162944D03*
X595274Y47089D03*
Y77089D03*
X597888Y108644D03*
Y118487D03*
X599380Y13755D03*
X600994Y280613D03*
X601490Y162944D03*
X601565Y197790D03*
X601848Y151644D03*
X603018Y170904D03*
X607888Y108644D03*
Y118487D03*
X611085Y174011D03*
X612226Y229432D03*
X617474Y84428D03*
Y295058D03*
X617888Y108644D03*
Y118487D03*
X617970Y180723D03*
X619301Y261715D03*
Y269589D03*
X619380Y13755D03*
X624470Y196207D03*
X626179Y180676D03*
X627793Y224731D03*
X627888Y108644D03*
Y118487D03*
X629144Y261715D03*
Y269589D03*
X637888Y108644D03*
Y118487D03*
X639380Y13755D03*
X640545Y162975D03*
Y182739D03*
X640939Y220062D03*
Y239826D03*
X647451Y280613D03*
X676726Y81046D03*
Y91046D03*
Y101046D03*
Y111046D03*
X686707Y297896D03*
X687612Y24629D03*
X690545Y162975D03*
Y182739D03*
X690939Y220062D03*
Y239826D03*
X0Y0D02*
M02*
