G05
M48
;#@! TF.GenerationSoftware,DesignSpark,DesignSpark PCB,13.0.
;#@! TF.CreationDate,2026-07-17T04:45:44--5:-30*
;#@! TF.FileFunction,Plated,1,2,PTH
;FILE_FORMAT=3:5
;TYPE=PLATED
INCH,TZ
FMAT,2
T1C000.01575
T2C000.02400
T3C000.02756
T4C000.03150
T5C000.03200
T6C000.03500
T7C000.03543
T8C000.03937
T9C000.04134
T10C000.04331
T11C000.05512
T12C000.05906
T13C000.06693
T14C000.07874
T15C000.13780
%
T001
X1.59411Y1.84967
X1.86876Y1.91463
X1.95313Y1.91463
X2.42935Y1.88802
X2.43057Y2.00912
X2.45167Y1.83054
X2.51022Y1.50790
X2.66474Y1.57857
X2.74537Y1.36400
X2.76762Y1.85963
X2.88778Y1.74011
X2.88829Y1.38503
X3.21707Y1.53396
X3.37341Y1.61192
X3.45577Y1.89050
X3.60400Y1.76759
X3.76337Y1.75302
X3.96313Y1.54707
X4.10281Y1.61526
X4.14927Y1.37078
X4.16679Y1.89176
X4.31856Y1.75558
X4.50526Y1.71605
X4.78238Y1.57747
X4.93896Y2.18133
X4.95557Y1.35231
X4.99384Y1.73967
X4.99384Y1.85696
X5.04053Y2.21180
X5.07002Y2.50168
X5.16852Y2.03483
X5.20730Y2.00452
X5.21073Y2.06522
X5.27006Y1.80932
X5.46856Y1.05089
X5.46864Y0.88967
X5.49317Y2.83207
X5.51360Y1.08822
X5.51781Y0.90562
X5.54876Y2.01042
X5.54955Y2.05928
X5.56793Y2.56515
X5.59659Y1.97940
X5.60569Y2.82900
X5.60663Y1.29487
X5.65644Y1.28940
X5.66781Y0.83601
X5.69907Y1.62944
X5.71372Y3.08180
X5.88852Y2.73644
X5.91656Y1.62944
X6.01490Y1.62944
X6.01848Y1.51644
X6.03018Y1.70904
X6.11085Y1.74011
X6.12226Y2.29432
X6.17970Y1.80723
X6.24470Y1.96207
X6.26179Y1.80676
X6.27793Y2.24731
T002
X0.82140Y1.61400
X0.92376Y2.20062
X1.14297Y2.91263
X1.25502Y2.53141
X1.42237Y1.33054
X1.72502Y2.88400
X1.91093Y2.45054
X2.28242Y0.76144
X2.37368Y1.15672
X2.48829Y2.25900
X2.58065Y0.56908
X2.79514Y2.05251
X2.87970Y0.57322
X2.92860Y1.95566
X3.03939Y0.67597
X3.04852Y2.76034
X3.10904Y0.80239
X3.10904Y1.17830
X3.13278Y2.05251
X3.21140Y2.77133
X3.24801Y0.61263
X3.50321Y2.38361
X3.50750Y2.05251
X3.56152Y1.38971
X3.57329Y0.61396
X3.64045Y1.95566
X3.67644Y2.38361
X3.75179Y0.68282
X3.81435Y1.20026
X3.81750Y0.79400
X3.82431Y2.05341
X3.95998Y0.60298
X4.01884Y2.69475
X4.16144Y2.35164
X4.23478Y2.05341
X4.27470Y2.86731
X4.28250Y0.62333
X4.33262Y1.37487
X4.37333Y1.95566
X4.48758Y0.70160
X4.52569Y3.13959
X4.55644Y0.82652
X4.56030Y1.23900
X4.72927Y1.52641
X4.77900Y2.05093
X4.78813Y0.63526
X4.92545Y1.96420
X5.10581Y1.37641
X5.10679Y0.65900
X5.16801Y2.68148
X5.25014Y0.72239
X5.31797Y1.44845
X5.35179Y1.54491
X5.71801Y1.33554
X5.79506Y1.44357
X5.80455Y3.04263
X6.01565Y1.97790
T003
X2.14817Y2.75967
X2.14817Y2.85810
X2.14817Y2.95652
T004
X5.43380Y0.48227
X5.43380Y0.78227
X5.53380Y0.48227
X5.53380Y0.78227
X5.85274Y0.47089
X5.85274Y0.77089
X5.95274Y0.47089
X5.95274Y0.77089
T005
X0.53400Y2.20022
X0.53400Y2.35022
X0.56549Y0.92070
X0.56549Y1.07070
X2.52219Y1.05263
X2.92219Y1.05263
X3.25447Y1.10219
X3.65447Y1.10219
X3.94242Y1.10302
X4.34242Y1.10302
X4.77415Y1.09432
X4.99203Y2.46629
X4.99203Y2.66629
X5.17415Y1.09432
T006
X4.72478Y3.04735
X4.82478Y3.04735
X4.92478Y3.04735
X5.02478Y3.04735
X5.12478Y3.04735
X5.97888Y1.08644
X5.97888Y1.18487
X6.07888Y1.08644
X6.07888Y1.18487
X6.17888Y1.08644
X6.17888Y1.18487
X6.27888Y1.08644
X6.27888Y1.18487
X6.37888Y1.08644
X6.37888Y1.18487
T007
X5.00463Y2.77022
X5.00463Y2.87022
X5.37896Y2.91302
X5.47738Y2.91302
X5.57581Y2.91302
X6.19301Y2.61715
X6.19301Y2.69589
X6.29144Y2.61715
X6.29144Y2.69589
T008
X2.51746Y1.68093
X2.61746Y1.68093
X2.71746Y1.68093
X2.75663Y2.98995
X2.81746Y1.68093
X2.85663Y2.98995
X2.95663Y2.98995
X3.05663Y2.98995
X3.15663Y2.98995
X3.22612Y1.67952
X3.25663Y2.98995
X3.32612Y1.67952
X3.35663Y2.98995
X3.42612Y1.67952
X3.45663Y2.98995
X3.52612Y1.67952
X3.55663Y2.98995
X3.65663Y2.98995
X3.75663Y2.98995
X3.85663Y2.98995
X3.93478Y1.70062
X3.95663Y2.98995
X4.03478Y1.70062
X4.05663Y2.98995
X4.13478Y1.70062
X4.15663Y2.98995
X4.23478Y1.70062
X4.25663Y2.98995
X4.62927Y1.69826
X4.72927Y1.69826
X4.82927Y1.69826
X4.92927Y1.69826
X6.76726Y0.81046
X6.76726Y0.91046
X6.76726Y1.01046
X6.76726Y1.11046
T009
X0.37502Y0.65223
X0.49632Y0.42491
X0.79159Y0.34617
X0.96557Y0.65223
T010
X3.87120Y2.43141
X4.67199Y2.43141
T011
X1.76096Y2.09353
X1.76096Y2.29117
X1.76490Y1.53054
X1.76490Y1.72818
X2.26096Y2.09353
X2.26096Y2.29117
X2.26490Y1.53054
X2.26490Y1.72818
X6.40545Y1.62975
X6.40545Y1.82739
X6.40939Y2.20062
X6.40939Y2.39826
X6.90545Y1.62975
X6.90545Y1.82739
X6.90939Y2.20062
X6.90939Y2.39826
T012
X1.64498Y0.58259
X1.64498Y1.06290
X1.88120Y1.14164
X2.11742Y0.58259
X2.11742Y1.06290
T013
X0.97392Y0.19274
X1.17392Y0.19274
X1.37392Y0.19274
X1.68274Y0.13660
X1.88274Y0.13660
X2.08274Y0.13660
X2.50974Y0.14944
X2.70974Y0.14944
X2.90974Y0.14944
X3.18246Y0.14944
X3.38246Y0.14944
X3.58246Y0.14944
X3.84270Y0.14865
X4.04270Y0.14865
X4.24270Y0.14865
X4.49860Y0.14944
X4.69860Y0.14944
X4.89860Y0.14944
X5.40699Y0.13759
X5.60699Y0.13759
X5.80699Y0.13759
X5.99380Y0.13755
X6.19380Y0.13755
X6.39380Y0.13755
T014
X6.00994Y2.80613
X6.47451Y2.80613
T015
X0.20329Y0.22818
X0.20722Y2.97621
X2.50073Y0.84428
X2.50073Y2.95058
X6.17474Y0.84428
X6.17474Y2.95058
X6.86707Y2.97896
X6.87612Y0.24629
M30
