G04 DesignSpark PCB Gerber Version 13.0 Build *
%FSLAX35Y35*%
%MOIN*%
%ADD23R,0.01181X0.05807*%
%ADD29R,0.02559X0.06004*%
%ADD26R,0.05500X0.06000*%
%ADD74R,0.04724X0.04724*%
%ADD82R,0.05543X0.05543*%
%ADD78R,0.06000X0.06000*%
%ADD79R,0.07087X0.07087*%
%ADD11C,0.00001*%
%ADD12C,0.00100*%
%ADD16C,0.01000*%
%ADD19C,0.01500*%
%ADD20C,0.02500*%
%ADD18C,0.03150*%
%ADD75C,0.04724*%
%ADD70C,0.04800*%
%ADD71C,0.05000*%
%ADD85C,0.05512*%
%ADD83C,0.05543*%
%ADD72C,0.05906*%
%ADD27C,0.06000*%
%ADD84C,0.06299*%
%ADD80C,0.07087*%
%ADD77C,0.08268*%
%ADD28C,0.08661*%
%ADD76C,0.08858*%
%ADD73C,0.11024*%
%ADD24C,0.11811*%
%ADD81C,0.15748*%
%ADD21C,0.23622*%
%ADD22R,0.05807X0.01181*%
%ADD25R,0.06000X0.05500*%
X0Y0D02*
D02*
D11*
X16432Y252619D02*
G75*
G02*
X16462Y252571I-87J-87D01*
G01*
G75*
G02*
X16489Y252477I-957J-327D01*
G01*
G75*
G02*
X16510Y252362I-1177J-277D01*
G01*
G75*
G02*
X16521Y252240I-1460J-193D01*
G01*
G75*
G03*
X16537Y252117I793J41D01*
G01*
G75*
G03*
X16572Y251999I742J154D01*
G01*
G75*
G03*
X16619Y251903I569J220D01*
G01*
G75*
G03*
X16673Y251848I143J87D01*
G01*
G75*
G02*
X16719Y251815I-263J-413D01*
G01*
G75*
G02*
X16741Y251787I-52J-63D01*
G01*
G75*
G02*
X16738Y251769I-13J-7D01*
G01*
G75*
G02*
X16715Y251760I-23J27D01*
G01*
G75*
G03*
X16685Y251691I1J-42D01*
G01*
G75*
G03*
X16944Y251425I2836J2509D01*
G01*
G75*
G03*
X17289Y251136I3126J3373D01*
G01*
G75*
G03*
X17600Y250939I1277J1678D01*
G01*
G75*
G03*
X17924Y250825I578J1126D01*
G01*
G75*
G03*
X18355Y250767I650J3163D01*
G01*
G75*
G03*
X19083Y250737I876J12784D01*
G01*
G75*
G03*
X20752Y250723I3103J267215D01*
G01*
X23512Y250709D01*
X24010Y250964D01*
G75*
G03*
X24453Y251261I-1055J2050D01*
G01*
G75*
G03*
X24789Y251638I-1207J1416D01*
G01*
G75*
G03*
X25037Y252126I-1867J1256D01*
G01*
G75*
G03*
X25217Y252759I-4346J1575D01*
G01*
G75*
G03*
X25315Y253735I-4574J956D01*
G01*
G75*
G03*
X25205Y254696I-4413J-21D01*
G01*
G75*
G03*
X24909Y255522I-3570J-813D01*
G01*
G75*
G03*
X24456Y256096I-1619J-811D01*
G01*
G75*
G03*
X24320Y256201I-1302J-1550D01*
G01*
G75*
G03*
X24171Y256298I-1356J-1921D01*
G01*
G75*
G03*
X24031Y256374I-1064J-1777D01*
G01*
G75*
G03*
X23926Y256413I-231J-463D01*
G01*
G75*
G03*
X23762Y256434I-171J-688D01*
G01*
G75*
G03*
X22861Y256443I-2599J-223421D01*
G01*
G75*
G03*
X21811Y256446I-796J-103051D01*
G01*
G75*
G03*
X20606Y256438I502J-177904D01*
G01*
G75*
G03*
X18613Y256415I4306J-455023D01*
G01*
G75*
G03*
X17885Y256383I172J-12244D01*
G01*
G75*
G03*
X17489Y256319I170J-2317D01*
G01*
G75*
G03*
X17225Y256190I171J-683D01*
G01*
G75*
G03*
X16926Y255921I1911J-2428D01*
G01*
G75*
G03*
X16705Y255646I1311J-1282D01*
G01*
G75*
G03*
X16565Y255369I1168J-765D01*
G01*
G75*
G03*
X16506Y255094I888J-333D01*
G01*
G75*
G02*
X16493Y254958I-2141J130D01*
G01*
G75*
G02*
X16473Y254834I-1568J194D01*
G01*
G75*
G02*
X16448Y254732I-1384J289D01*
G01*
G75*
G02*
X16422Y254689I-97J28D01*
G01*
G75*
G03*
X16362Y254544I146J-146D01*
G01*
G75*
G03*
X16360Y253654I68951J-567D01*
G01*
G75*
G03*
X16370Y252764I68250J340D01*
G01*
G75*
G03*
X16432Y252619I211J4D01*
G01*
X16443Y239973D02*
G75*
G02*
X16474Y239907I-211J-140D01*
G01*
G75*
G02*
X16493Y239822I-486J-153D01*
G01*
G75*
G02*
X16498Y239732I-537J-71D01*
G01*
G75*
G02*
X16486Y239652I-369J13D01*
G01*
G75*
G03*
X16499Y239364I469J-122D01*
G01*
G75*
G03*
X16689Y238958I2375J863D01*
G01*
G75*
G03*
X16966Y238565I2337J1356D01*
G01*
G75*
G03*
X17269Y238302I1011J858D01*
G01*
G75*
G03*
X17503Y238177I1000J1584D01*
G01*
G75*
G03*
X17724Y238105I451J1010D01*
G01*
G75*
G03*
X17996Y238069I356J1671D01*
G01*
G75*
G03*
X18410Y238059I413J8332D01*
G01*
G75*
G03*
X19266Y238157I1J3791D01*
G01*
G75*
G03*
X19904Y238452I-390J1682D01*
G01*
G75*
G03*
X20553Y239076I-2087J2817D01*
G01*
G75*
G03*
X21552Y240388I-26551J21269D01*
G01*
G75*
G02*
X22010Y240954I5604J-4061D01*
G01*
G75*
G02*
X22443Y241348I2165J-1945D01*
G01*
G75*
G02*
X22859Y241580I1107J-1496D01*
G01*
G75*
G02*
X23269Y241659I410J-1024D01*
G01*
G75*
G02*
X23472Y241645I-2J-1490D01*
G01*
G75*
G02*
X23606Y241599I-50J-364D01*
G01*
G75*
G02*
X23714Y241505I-189J-325D01*
G01*
G75*
G02*
X23831Y241333I-1253J-982D01*
G01*
G75*
G02*
X23928Y241150I-1800J-1062D01*
G01*
G75*
G02*
X23966Y241016I-410J-191D01*
G01*
G75*
G02*
X23959Y240887I-364J-45D01*
G01*
G75*
G02*
X23907Y240724I-1049J244D01*
G01*
G75*
G02*
X23762Y240475I-964J395D01*
G01*
G75*
G02*
X23578Y240339I-338J265D01*
G01*
G75*
G02*
X23282Y240277I-347J909D01*
G01*
G75*
G02*
X22696Y240260I-615J11402D01*
G01*
G75*
G03*
X22092Y240236I10J-7865D01*
G01*
G75*
G03*
X21875Y240125I25J-316D01*
G01*
G75*
G03*
X21779Y239882I310J-263D01*
G01*
G75*
G03*
X21761Y239159I14787J-724D01*
G01*
G75*
G03*
X21782Y238415I13273J0D01*
G01*
G75*
G03*
X21895Y238180I343J19D01*
G01*
G75*
G03*
X22148Y238076I269J298D01*
G01*
G75*
G03*
X22980Y238059I828J19783D01*
G01*
G75*
G03*
X23778Y238086I2J11673D01*
G01*
G75*
G03*
X24230Y238189I-102J1490D01*
G01*
G75*
G03*
X24550Y238407I-333J834D01*
G01*
G75*
G03*
X24859Y238809I-1827J1722D01*
G01*
G75*
G03*
X25128Y239496I-1757J1085D01*
G01*
G75*
G03*
X25259Y240524I-7487J1474D01*
G01*
G75*
G03*
X25249Y241613I-8019J470D01*
G01*
G75*
G03*
X25076Y242521I-4176J-325D01*
G01*
G75*
G03*
X24791Y243113I-2101J-647D01*
G01*
G75*
G03*
X24364Y243532I-1263J-861D01*
G01*
G75*
G03*
X23772Y243783I-994J-1524D01*
G01*
G75*
G03*
X22998Y243878I-854J-3759D01*
G01*
G75*
G03*
X22128Y243790I-73J-3627D01*
G01*
G75*
G03*
X21437Y243492I446J-1981D01*
G01*
G75*
G03*
X20783Y242898I1731J-2565D01*
G01*
G75*
G03*
X20000Y241854I10701J-8837D01*
G01*
G75*
G02*
X19295Y240901I-11921J8086D01*
G01*
G75*
G02*
X18753Y240416I-1749J1410D01*
G01*
G75*
G02*
X18281Y240293I-427J671D01*
G01*
G75*
G02*
X17822Y240466I45J814D01*
G01*
G75*
G02*
X17652Y240641I573J729D01*
G01*
G75*
G02*
X17574Y240823I343J256D01*
G01*
G75*
G02*
X17581Y241037I507J88D01*
G01*
G75*
G02*
X17676Y241307I1528J-384D01*
G01*
G75*
G02*
X17801Y241485I542J-248D01*
G01*
G75*
G02*
X17973Y241590I314J-319D01*
G01*
G75*
G02*
X18257Y241648I385J-1162D01*
G01*
G75*
G02*
X18809Y241683I1140J-13591D01*
G01*
X19409Y241709D01*
X19493Y242688D01*
G75*
G03*
X19541Y243522I-15067J1293D01*
G01*
G75*
G03*
X19445Y243815I-454J14D01*
G01*
G75*
G03*
X19193Y243944I-264J-207D01*
G01*
G75*
G03*
X18512Y243938I-281J-7411D01*
G01*
G75*
G03*
X17905Y243870I287J-5298D01*
G01*
G75*
G03*
X17399Y243735I483J-2835D01*
G01*
G75*
G03*
X17037Y243554I618J-1685D01*
G01*
G75*
G03*
X16883Y243341I199J-305D01*
G01*
G75*
G02*
X16859Y243271I-484J125D01*
G01*
G75*
G02*
X16827Y243212I-319J136D01*
G01*
G75*
G02*
X16792Y243172I-193J131D01*
G01*
G75*
G02*
X16759Y243159I-33J35D01*
G01*
G75*
G03*
X16672Y243106I0J-98D01*
G01*
G75*
G03*
X16567Y242869I2111J-1085D01*
G01*
G75*
G03*
X16483Y242596I2015J-769D01*
G01*
G75*
G03*
X16454Y242359I1049J-249D01*
G01*
G75*
G02*
X16450Y242208I-5439J52D01*
G01*
G75*
G02*
X16437Y241889I-86708J3261D01*
G01*
G75*
G02*
X16421Y241510I-88851J3694D01*
G01*
G75*
G02*
X16402Y241109I-112136J5191D01*
G01*
G75*
G03*
X16389Y240716I10843J-533D01*
G01*
G75*
G03*
X16393Y240363I7080J-98D01*
G01*
G75*
G03*
X16409Y240071I7956J294D01*
G01*
G75*
G03*
X16443Y239973I202J15D01*
G01*
X16452Y226659D02*
G75*
G02*
X16485Y226640I0J-37D01*
G01*
G75*
G02*
X16505Y226585I-154J-87D01*
G01*
G75*
G02*
X16511Y226505I-345J-67D01*
G01*
G75*
G02*
X16500Y226409I-696J29D01*
G01*
G75*
G03*
X16491Y226312I619J-112D01*
G01*
G75*
G03*
X16499Y226231I303J-8D01*
G01*
G75*
G03*
X16525Y226178I145J37D01*
G01*
G75*
G03*
X16563Y226159I38J29D01*
G01*
G75*
G02*
X16600Y226153I0J-117D01*
G01*
G75*
G02*
X16624Y226135I-16J-45D01*
G01*
G75*
G02*
X16631Y226108I-32J-22D01*
G01*
G75*
G02*
X16620Y226077I-75J8D01*
G01*
G75*
G03*
X16616Y225918I135J-83D01*
G01*
G75*
G03*
X16802Y225630I1995J1089D01*
G01*
G75*
G03*
X17071Y225329I2059J1565D01*
G01*
G75*
G03*
X17372Y225088I1493J1559D01*
G01*
X17794Y224809D01*
X20552D01*
G75*
G03*
X21635Y224815I28J100942D01*
G01*
G75*
G03*
X22609Y224832I-714J66078D01*
G01*
G75*
G03*
X23428Y224857I-2194J85862D01*
G01*
G75*
G03*
X23686Y224889I-54J1498D01*
G01*
G75*
G03*
X24214Y225118I-299J1415D01*
G01*
G75*
G03*
X24683Y225559I-1277J1828D01*
G01*
G75*
G03*
X25036Y226152I-2017J1602D01*
G01*
G75*
G03*
X25226Y226826I-2505J1067D01*
G01*
G75*
G03*
X25282Y228148I-6428J936D01*
G01*
G75*
G03*
X25037Y229267I-3676J-219D01*
G01*
G75*
G03*
X24519Y230085I-2353J-917D01*
G01*
G75*
G03*
X23778Y230541I-1225J-1158D01*
G01*
G75*
G03*
X23125Y230642I-686J-2289D01*
G01*
G75*
G03*
X20815Y230659I-2618J-190719D01*
G01*
G75*
G03*
X18513Y230649I-313J-181424D01*
G01*
G75*
G03*
X17827Y230552I29J-2674D01*
G01*
G75*
G03*
X17317Y230298I402J-1450D01*
G01*
G75*
G03*
X16822Y229824I1867J-2446D01*
G01*
G75*
G03*
X16487Y229314I2006J-1678D01*
G01*
G75*
G03*
X16504Y228968I319J-159D01*
G01*
G75*
G02*
X16518Y228927I-88J-54D01*
G01*
G75*
G02*
X16515Y228882I-113J-15D01*
G01*
G75*
G02*
X16495Y228841I-117J31D01*
G01*
G75*
G02*
X16461Y228810I-100J76D01*
G01*
G75*
G03*
X16373Y228657I97J-157D01*
G01*
G75*
G03*
X16360Y227705I49713J-1134D01*
G01*
G75*
G03*
X16364Y226746I57600J-243D01*
G01*
G75*
G03*
X16452Y226659I88J1D01*
G01*
X16497Y208692D02*
G75*
G03*
X16585Y208600I94J2D01*
G01*
G75*
G03*
X16961Y208579I1911J30998D01*
G01*
G75*
G03*
X17403Y208564I727J14950D01*
G01*
G75*
G03*
X17915Y208559I502J26704D01*
G01*
G75*
G03*
X18640Y208565I1J47517D01*
G01*
G75*
G03*
X19005Y208588I-57J3715D01*
G01*
G75*
G03*
X19210Y208633I-116J1014D01*
G01*
G75*
G03*
X19298Y208717I-44J135D01*
G01*
G75*
G03*
X19323Y208843I-347J134D01*
G01*
G75*
G03*
X19341Y209898I-400198J7399D01*
G01*
G75*
G03*
X19354Y211109I-124300J1980D01*
G01*
G75*
G03*
X19359Y212515I-225697J1398D01*
G01*
Y216155D01*
X19134Y216211D01*
G75*
G03*
X18988Y216231I-172J-696D01*
G01*
G75*
G03*
X18622Y216242I-726J-19416D01*
G01*
G75*
G03*
X18185Y216245I-349J-18079D01*
G01*
G75*
G03*
X17709Y216238I139J-25346D01*
G01*
X16509Y216209D01*
X16483Y212452D01*
G75*
G03*
X16478Y211006I212325J-1474D01*
G01*
G75*
G03*
X16484Y209778I111150J-8D01*
G01*
G75*
G03*
X16497Y208692I628879J6748D01*
G01*
X16531Y203884D02*
X16562Y200959D01*
X16785Y200960D01*
G75*
G03*
X16904Y200964I-19J2633D01*
G01*
G75*
G03*
X16935Y200981I-2J42D01*
G01*
G75*
G03*
X16932Y201007I-15J11D01*
G01*
G75*
G03*
X16859Y201059I-612J-779D01*
G01*
G75*
G02*
X16805Y201098I359J558D01*
G01*
G75*
G02*
X16768Y201134I160J198D01*
G01*
G75*
G02*
X16752Y201163I68J57D01*
G01*
G75*
G02*
X16759Y201180I13J4D01*
G01*
G75*
G02*
X16802Y201189I44J-95D01*
G01*
G75*
G02*
X17969Y201212I76217J-3935591D01*
G01*
G75*
G02*
X19272Y201234I6936J-371231D01*
G01*
G75*
G02*
X20809Y201256I11039J-715957D01*
G01*
X24809Y201309D01*
X24835Y206452D01*
X24861Y211596D01*
X24591Y211878D01*
G75*
G03*
X24309Y212074I-627J-601D01*
G01*
G75*
G03*
X23988Y212131I-284J-654D01*
G01*
G75*
G03*
X23668Y212041I39J-748D01*
G01*
G75*
G03*
X23389Y211815I481J-880D01*
G01*
G75*
G03*
X23251Y211554I500J-430D01*
G01*
G75*
G03*
X23187Y211165I1943J-518D01*
G01*
G75*
G03*
X23163Y210432I12148J-771D01*
G01*
G75*
G03*
X23159Y208223I614412J-2309D01*
G01*
G75*
G02*
X23153Y206615I-223659J-38D01*
G01*
G75*
G02*
X23132Y205615I-36217J269D01*
G01*
G75*
G02*
X23101Y204919I-36436J1259D01*
G01*
G75*
G02*
X23039Y204779I-214J11D01*
G01*
G75*
G02*
X22759Y204661I-285J285D01*
G01*
G75*
G02*
X21141Y204651I-1477J109813D01*
G01*
G75*
G02*
X19507Y204663I180J129305D01*
G01*
G75*
G02*
X19290Y204784I4J264D01*
G01*
G75*
G02*
X19256Y204879I185J120D01*
G01*
G75*
G02*
X19218Y205239I18782J2151D01*
G01*
G75*
G02*
X19184Y205671I13309J1274D01*
G01*
G75*
G02*
X19159Y206159I21636J1361D01*
G01*
X19109Y207409D01*
X16509D01*
X16505Y207109D01*
G75*
G03*
X16505Y206895I10688J-126D01*
G01*
G75*
G03*
X16511Y206038I1327841J9935D01*
G01*
G75*
G03*
X16520Y205026I816201J6802D01*
G01*
G75*
G03*
X16531Y203884I1335956J12319D01*
G01*
X16533Y231509D02*
G75*
G03*
X16625Y231462I94J70D01*
G01*
G75*
G03*
X17526Y231447I2805J141781D01*
G01*
G75*
G03*
X18674Y231443I796J58778D01*
G01*
G75*
G03*
X20267Y231459I-1349J211764D01*
G01*
X23924Y231509D01*
X24330Y231777D01*
G75*
G03*
X24896Y232408I-931J1405D01*
G01*
G75*
G03*
X25235Y233387I-3215J1663D01*
G01*
G75*
G03*
X25313Y234571I-4680J901D01*
G01*
G75*
G03*
X25106Y235810I-5942J-353D01*
G01*
G75*
G03*
X24946Y236202I-1731J-481D01*
G01*
G75*
G03*
X24692Y236564I-1865J-1036D01*
G01*
G75*
G03*
X24370Y236865I-1598J-1387D01*
G01*
G75*
G03*
X24009Y237075I-1041J-1376D01*
G01*
G75*
G03*
X23378Y237211I-666J-1556D01*
G01*
G75*
G03*
X20117Y237268I-8847J-418064D01*
G01*
G75*
G03*
X16704Y237308I-13880J-1034396D01*
G01*
G75*
G03*
X16510Y237176I-2J-206D01*
G01*
G75*
G03*
X16461Y236915I697J-267D01*
G01*
G75*
G03*
X16462Y236107I38381J-329D01*
G01*
G75*
G03*
X16478Y235275I57461J698D01*
G01*
G75*
G03*
X16535Y235109I294J8D01*
G01*
G75*
G03*
X16623Y235063I92J67D01*
G01*
G75*
G03*
X17504Y235035I4901J142594D01*
G01*
G75*
G03*
X18607Y235015I1566J55725D01*
G01*
G75*
G03*
X20093Y235009I1455J179220D01*
G01*
X23577D01*
X23776Y234763D01*
G75*
G02*
X23889Y234544I-476J-385D01*
G01*
G75*
G02*
X23923Y234274I-875J-247D01*
G01*
G75*
G02*
X23876Y234010I-876J21D01*
G01*
G75*
G02*
X23752Y233812I-492J170D01*
G01*
G75*
G02*
X23643Y233764I-117J117D01*
G01*
G75*
G02*
X22735Y233723I-6547J135089D01*
G01*
G75*
G02*
X21598Y233687I-2442J58817D01*
G01*
G75*
G02*
X20079Y233659I-4076J182767D01*
G01*
X16509Y233609D01*
X16483Y232609D01*
G75*
G03*
X16479Y232219I13485J-345D01*
G01*
G75*
G03*
X16488Y231873I8267J35D01*
G01*
G75*
G03*
X16505Y231586I11059J508D01*
G01*
G75*
G03*
X16533Y231509I145J10D01*
G01*
X16534Y246534D02*
X16563Y244459D01*
X16854D01*
G75*
G03*
X16984Y244466I2J1221D01*
G01*
G75*
G03*
X17134Y244487I-238J2219D01*
G01*
G75*
G03*
X17280Y244518I-383J2156D01*
G01*
G75*
G03*
X17398Y244555I-244J993D01*
G01*
G75*
G03*
X17539Y244637I-180J472D01*
G01*
G75*
G03*
X17616Y244747I-156J190D01*
G01*
G75*
G03*
X17655Y244940I-724J248D01*
G01*
G75*
G03*
X17680Y245380I-14496J1026D01*
G01*
X17709Y246109D01*
X25109Y246209D01*
X25165Y248456D01*
X17709Y248509D01*
X17680Y249293D01*
G75*
G03*
X17659Y249702I-15169J-569D01*
G01*
G75*
G03*
X17628Y249910I-1261J-82D01*
G01*
G75*
G03*
X17579Y250005I-213J-50D01*
G01*
G75*
G03*
X17508Y250022I-48J-42D01*
G01*
G75*
G02*
X17448Y250009I-75J194D01*
G01*
G75*
G02*
X17389Y250014I-14J200D01*
G01*
G75*
G02*
X17337Y250035I39J167D01*
G01*
G75*
G02*
X17302Y250070I56J91D01*
G01*
G75*
G03*
X17189Y250139I-125J-78D01*
G01*
G75*
G03*
X16927Y250140I-138J-1631D01*
G01*
G75*
G03*
X16664Y250098I124J-1617D01*
G01*
G75*
G03*
X16535Y250011I54J-218D01*
G01*
G75*
G03*
X16507Y249939I124J-90D01*
G01*
G75*
G03*
X16490Y249748I4054J-472D01*
G01*
G75*
G03*
X16480Y249515I3985J-278D01*
G01*
G75*
G03*
X16483Y249259I5865J-65D01*
G01*
G75*
G02*
X16493Y248885I-30930J-1034D01*
G01*
G75*
G02*
X16507Y248190I-321254J-6533D01*
G01*
G75*
G02*
X16521Y247376I-348117J-6467D01*
G01*
G75*
G02*
X16534Y246534I-398756J-6573D01*
G01*
X16559Y257316D02*
G75*
G03*
X16602Y257306I43J87D01*
G01*
G75*
G03*
X17843Y257302I14719J4443804D01*
G01*
G75*
G03*
X19226Y257300I1130J384679D01*
G01*
G75*
G03*
X20859Y257303I-257J742605D01*
G01*
X25109Y257314D01*
Y259009D01*
X22959Y258991D01*
G75*
G03*
X22039Y258979I950J-113619D01*
G01*
G75*
G03*
X21051Y258959I2514J-150873D01*
G01*
G75*
G03*
X20141Y258935I3175J-137677D01*
G01*
G75*
G03*
X19484Y258910I1143J-38366D01*
G01*
X18159Y258848D01*
Y259104D01*
G75*
G02*
X18161Y259202I2672J-5D01*
G01*
G75*
G02*
X18166Y259284I1370J-50D01*
G01*
G75*
G02*
X18174Y259351I1891J-190D01*
G01*
G75*
G02*
X18184Y259360I10J-1D01*
G01*
G75*
G03*
X18904Y259452I-177J4246D01*
G01*
G75*
G03*
X21757Y260077I-111148J514307D01*
G01*
G75*
G03*
X24763Y260748I-292087J1315380D01*
G01*
G75*
G03*
X25034Y260880I-142J633D01*
G01*
G75*
G03*
X25122Y261043I-157J191D01*
G01*
G75*
G03*
X25153Y261473I-5029J580D01*
G01*
G75*
G03*
X25147Y262084I-7898J229D01*
G01*
G75*
G03*
X25093Y262934I-28962J-1411D01*
G01*
X25029Y263759D01*
X24652D01*
G75*
G03*
X24505Y263750I3J-1300D01*
G01*
G75*
G03*
X24375Y263725I97J-848D01*
G01*
G75*
G03*
X24276Y263689I161J-587D01*
G01*
G75*
G03*
X24237Y263644I32J-68D01*
G01*
G75*
G02*
X24012Y263481I-227J76D01*
G01*
G75*
G02*
X22224Y263485I-628J100402D01*
G01*
G75*
G02*
X20007Y263555I653J56102D01*
G01*
G75*
G02*
X17219Y263726I7114J139237D01*
G01*
X16428Y263782D01*
X16493Y263245D01*
G75*
G02*
X16517Y263017I-9844J-1187D01*
G01*
G75*
G02*
X16539Y262775I-12409J-1211D01*
G01*
G75*
G02*
X16553Y262554I-11241J-851D01*
G01*
G75*
G02*
X16558Y262398I-2871J-165D01*
G01*
X16559Y262087D01*
X19384Y262136D01*
G75*
G03*
X20655Y262165I-2331J131212D01*
G01*
G75*
G03*
X21532Y262201I-844J31111D01*
G01*
G75*
G03*
X22188Y262242I-2594J46792D01*
G01*
G75*
G03*
X22282Y262298I-9J123D01*
G01*
G75*
G02*
X22310Y262314I31J-21D01*
G01*
G75*
G02*
X22335Y262300I2J-25D01*
G01*
G75*
G02*
X22352Y262241I-156J-77D01*
G01*
G75*
G02*
X22357Y262146I-944J-102D01*
G01*
G75*
G02*
X22348Y262038I-626J-2D01*
G01*
G75*
G02*
X22321Y261930I-687J115D01*
G01*
G75*
G02*
X22280Y261837I-562J193D01*
G01*
G75*
G02*
X22232Y261778I-178J96D01*
G01*
G75*
G02*
X22129Y261726I-164J198D01*
G01*
G75*
G02*
X21648Y261612I-8956J36794D01*
G01*
G75*
G02*
X21076Y261488I-5087J22067D01*
G01*
G75*
G02*
X20422Y261361I-7561J37277D01*
G01*
G75*
G03*
X19696Y261221I8496J-45829D01*
G01*
G75*
G03*
X18906Y261057I13043J-64757D01*
G01*
G75*
G03*
X18169Y260894I12808J-59808D01*
G01*
G75*
G03*
X17624Y260762I4223J-18581D01*
G01*
X16509Y260474D01*
Y258907D01*
G75*
G03*
X16513Y258305I50385J28D01*
G01*
G75*
G03*
X16524Y257794I26308J311D01*
G01*
G75*
G03*
X16539Y257348I105617J3319D01*
G01*
G75*
G03*
X16559Y257316I37J1D01*
G01*
X16581Y218240D02*
G75*
G03*
X16761Y218141I204J157D01*
G01*
G75*
G03*
X17361Y218104I967J10688D01*
G01*
G75*
G03*
X18418Y218086I1048J30340D01*
G01*
G75*
G03*
X20909Y218092I-405J696200D01*
G01*
X25109Y218109D01*
Y220400D01*
X21009Y220409D01*
X20979Y221084D01*
X20950Y221759D01*
X23002D01*
G75*
G03*
X24628Y221771I16J106232D01*
G01*
G75*
G03*
X24986Y221877I-11J694D01*
G01*
G75*
G03*
X25140Y222146I-175J279D01*
G01*
G75*
G03*
X25138Y223098I-15341J444D01*
G01*
X25109Y223987D01*
X16509Y223967D01*
X16481Y222863D01*
X16452Y221759D01*
X19668D01*
X19639Y221084D01*
X19609Y220409D01*
X18059Y220405D01*
X16509Y220401D01*
X16481Y219404D01*
G75*
G03*
X16475Y218938I14772J-420D01*
G01*
G75*
G03*
X16490Y218604I4051J14D01*
G01*
G75*
G03*
X16523Y218368I2221J191D01*
G01*
G75*
G03*
X16581Y218240I298J58D01*
G01*
X17635Y254019D02*
G75*
G02*
X17878Y254205I396J-264D01*
G01*
G75*
G02*
X18319Y254302I656J-1925D01*
G01*
G75*
G02*
X19108Y254349I887J-8344D01*
G01*
G75*
G02*
X20833Y254359I1743J-148411D01*
G01*
G75*
G02*
X22817Y254347I-11J-168399D01*
G01*
G75*
G02*
X23488Y254277I-43J-3636D01*
G01*
G75*
G02*
X23783Y254091I-96J-480D01*
G01*
G75*
G02*
X23899Y253745I-460J-346D01*
G01*
G75*
G02*
X23817Y253323I-1126J0D01*
G01*
G75*
G02*
X23587Y253128I-300J121D01*
G01*
G75*
G02*
X23041Y253067I-563J2530D01*
G01*
G75*
G02*
X20818Y253059I-2213J327512D01*
G01*
G75*
G02*
X18868Y253063I-88J487793D01*
G01*
G75*
G02*
X18224Y253087I40J9546D01*
G01*
G75*
G02*
X17897Y253148I106J1469D01*
G01*
G75*
G02*
X17715Y253281I102J332D01*
G01*
G75*
G02*
X17616Y253467I694J486D01*
G01*
G75*
G02*
X17567Y253671I770J293D01*
G01*
G75*
G02*
X17574Y253864I697J74D01*
G01*
G75*
G02*
X17635Y254019I396J-68D01*
G01*
X17715Y228137D02*
G75*
G02*
X17896Y228269I285J-200D01*
G01*
G75*
G02*
X18218Y228331I426J-1361D01*
G01*
G75*
G02*
X18851Y228355I672J-9202D01*
G01*
G75*
G02*
X20762Y228359I1915J-465928D01*
G01*
X23654D01*
X23812Y228119D01*
G75*
G02*
X23911Y227885I-603J-395D01*
G01*
G75*
G02*
X23935Y227611I-953J-219D01*
G01*
G75*
G02*
X23881Y227358I-864J50D01*
G01*
G75*
G02*
X23759Y227187I-375J139D01*
G01*
G75*
G02*
X23488Y227089I-276J340D01*
G01*
G75*
G02*
X20841Y227060I-8272J640063D01*
G01*
G75*
G02*
X18204Y227043I-5150J583260D01*
G01*
G75*
G02*
X17900Y227135I-2J537D01*
G01*
G75*
G02*
X17788Y227243I262J387D01*
G01*
G75*
G02*
X17676Y227418I1146J855D01*
G01*
G75*
G02*
X17591Y227607I1256J681D01*
G01*
G75*
G02*
X17562Y227761I448J163D01*
G01*
G75*
G02*
X17571Y227835I254J5D01*
G01*
G75*
G02*
X17606Y227935I909J-259D01*
G01*
G75*
G02*
X17655Y228040I1009J-410D01*
G01*
G75*
G02*
X17715Y228137I851J-458D01*
G01*
X20457Y205921D02*
G75*
G03*
X20587Y205639I1190J376D01*
G01*
G75*
G03*
X20785Y205390I1158J719D01*
G01*
G75*
G03*
X21011Y205217I790J796D01*
G01*
G75*
G03*
X21225Y205159I213J367D01*
G01*
G75*
G03*
X21336Y205179I1J319D01*
G01*
G75*
G03*
X21484Y205244I-443J1196D01*
G01*
G75*
G03*
X21640Y205339I-700J1333D01*
G01*
G75*
G03*
X21782Y205450I-815J1185D01*
G01*
X22109Y205742D01*
X22209Y212809D01*
X24022Y212836D01*
G75*
G02*
X25106Y212848I1863J-125449D01*
G01*
G75*
G02*
X25562Y212831I35J-5330D01*
G01*
G75*
G02*
X25803Y212785I-88J-1103D01*
G01*
G75*
G02*
X25913Y212686I-52J-169D01*
G01*
G75*
G02*
X25944Y212554I-369J-159D01*
G01*
G75*
G02*
X25980Y211980I-56647J-3826D01*
G01*
G75*
G02*
X26012Y211302I-33987J-1938D01*
G01*
G75*
G02*
X26036Y210531I-56439J-2116D01*
G01*
X26082Y208553D01*
X27346Y208581D01*
X28609Y208609D01*
Y216209D01*
X24659Y216233D01*
G75*
G03*
X23093Y216236I-1168J-191278D01*
G01*
G75*
G03*
X21796Y216224I203J-90509D01*
G01*
G75*
G03*
X20691Y216204I4471J-276510D01*
G01*
G75*
G03*
X20566Y216166I6J-242D01*
G01*
G75*
G03*
X20481Y216021I98J-155D01*
G01*
G75*
G03*
X20444Y215181I39876J-2197D01*
G01*
G75*
G03*
X20415Y213846I53942J-1845D01*
G01*
G75*
G03*
X20394Y211142I744925J-6883D01*
G01*
G75*
G03*
X20390Y209204I286208J-1609D01*
G01*
G75*
G03*
X20401Y207554I151023J184D01*
G01*
G75*
G03*
X20421Y206147I354965J4265D01*
G01*
G75*
G03*
X20457Y205921I794J12D01*
G01*
X26159Y201059D02*
G75*
G03*
X26207Y200989I1117J725D01*
G01*
G75*
G03*
X26234Y200972I35J26D01*
G01*
G75*
G03*
X26252Y200984I3J15D01*
G01*
G75*
G03*
X26257Y201041I-333J61D01*
G01*
G75*
G02*
X26304Y201104I68J-1D01*
G01*
G75*
G02*
X26462Y201137I233J-717D01*
G01*
G75*
G02*
X26741Y201150I248J-2483D01*
G01*
G75*
G02*
X27234Y201137I-289J-21664D01*
G01*
G75*
G02*
X27619Y201119I-506J-14242D01*
G01*
G75*
G02*
X27970Y201091I-609J-9865D01*
G01*
G75*
G02*
X28261Y201058I-1056J-10730D01*
G01*
G75*
G02*
X28369Y201026I-44J-348D01*
G01*
G75*
G03*
X28522Y201101I47J98D01*
G01*
G75*
G03*
X28602Y201645I-3954J859D01*
G01*
G75*
G03*
X28647Y202663I-15059J1174D01*
G01*
G75*
G03*
X28658Y204734I-210329J2115D01*
G01*
X28659Y207459D01*
X26059D01*
X26060Y204334D01*
G75*
G03*
X26068Y203064I123513J93D01*
G01*
G75*
G03*
X26089Y202038I53276J570D01*
G01*
G75*
G03*
X26117Y201191I112853J3406D01*
G01*
G75*
G03*
X26159Y201059I261J9D01*
G01*
X26258Y239759D02*
G75*
G02*
X26343Y239744I-1J-256D01*
G01*
G75*
G02*
X26435Y239700I-161J-455D01*
G01*
G75*
G02*
X26520Y239635I-271J-441D01*
G01*
G75*
G02*
X26582Y239559I-268J-281D01*
G01*
G75*
G03*
X26635Y239482I920J575D01*
G01*
G75*
G03*
X26689Y239418I596J446D01*
G01*
G75*
G03*
X26739Y239370I442J417D01*
G01*
G75*
G03*
X26771Y239359I32J39D01*
G01*
G75*
G03*
X26800Y239372I0J37D01*
G01*
G75*
G03*
X26832Y239418I-238J201D01*
G01*
G75*
G03*
X26863Y239482I-390J228D01*
G01*
G75*
G03*
X26888Y239559I-667J258D01*
G01*
G75*
G02*
X27056Y239725I224J-59D01*
G01*
G75*
G02*
X27255Y239753I225J-895D01*
G01*
G75*
G02*
X27684Y239759I438J-15211D01*
G01*
G75*
G03*
X28220Y239789I1J4860D01*
G01*
G75*
G03*
X28534Y239894I-86J776D01*
G01*
G75*
G03*
X28709Y240094I-221J371D01*
G01*
G75*
G03*
X28788Y240418I-919J395D01*
G01*
G75*
G03*
X28757Y240636I-517J37D01*
G01*
G75*
G03*
X28638Y240730I-138J-51D01*
G01*
G75*
G03*
X28437Y240689I-40J-317D01*
G01*
G75*
G03*
X28163Y240497I974J-1676D01*
G01*
G75*
G02*
X28002Y240370I-1975J2348D01*
G01*
G75*
G02*
X27894Y240313I-252J344D01*
G01*
G75*
G02*
X27819Y240311I-41J116D01*
G01*
G75*
G02*
X27762Y240353I26J94D01*
G01*
G75*
G03*
X27709Y240404I-122J-75D01*
G01*
G75*
G03*
X27627Y240431I-122J-226D01*
G01*
G75*
G03*
X27517Y240435I-69J-438D01*
G01*
G75*
G03*
X27380Y240413I106J-1117D01*
G01*
G75*
G02*
X27217Y240387I-335J1531D01*
G01*
G75*
G02*
X27121Y240398I-23J205D01*
G01*
G75*
G02*
X27059Y240450I46J119D01*
G01*
G75*
G02*
X27011Y240553I377J239D01*
G01*
G75*
G03*
X26916Y240701I-324J-102D01*
G01*
G75*
G03*
X26777Y240747I-121J-132D01*
G01*
G75*
G03*
X26589Y240677I42J-403D01*
G01*
G75*
G03*
X26350Y240484I1145J-1660D01*
G01*
G75*
G03*
X26149Y240242I879J-932D01*
G01*
G75*
G03*
X26062Y240000I494J-315D01*
G01*
G75*
G03*
X26109Y239831I225J-28D01*
G01*
G75*
G03*
X26258Y239759I149J117D01*
G01*
X26552Y255467D02*
G75*
G02*
X26583Y255374I-180J-114D01*
G01*
G75*
G02*
X26599Y255156I-3822J-379D01*
G01*
G75*
G02*
X26601Y254891I-4065J-163D01*
G01*
G75*
G02*
X26587Y254605I-5622J135D01*
G01*
G75*
G03*
X26570Y254302I6559J-502D01*
G01*
G75*
G03*
X26568Y253989I7482J-222D01*
G01*
G75*
G03*
X26577Y253709I6660J84D01*
G01*
G75*
G03*
X26600Y253521I1444J80D01*
G01*
X26668Y253159D01*
X27652D01*
G75*
G03*
X28251Y253164I5J34529D01*
G01*
G75*
G03*
X28495Y253191I-23J1350D01*
G01*
G75*
G03*
X28620Y253253I-52J261D01*
G01*
G75*
G03*
X28691Y253369I-156J175D01*
G01*
G75*
G03*
X28717Y253622I-816J213D01*
G01*
G75*
G03*
X28635Y253768I-185J-9D01*
G01*
G75*
G03*
X28420Y253841I-247J-371D01*
G01*
G75*
G03*
X27955Y253859I-470J-6224D01*
G01*
G75*
G02*
X27468Y253886I0J4437D01*
G01*
G75*
G02*
X27175Y253980I85J770D01*
G01*
G75*
G02*
X27016Y254152I183J328D01*
G01*
G75*
G02*
X26959Y254416I580J265D01*
G01*
G75*
G02*
X26989Y254556I343J-1D01*
G01*
G75*
G02*
X27070Y254627I117J-52D01*
G01*
G75*
G02*
X27254Y254654I195J-677D01*
G01*
G75*
G02*
X27798Y254659I551J-32135D01*
G01*
G75*
G03*
X28225Y254665I8J13927D01*
G01*
G75*
G03*
X28475Y254690I-58J1861D01*
G01*
G75*
G03*
X28624Y254735I-102J617D01*
G01*
G75*
G03*
X28695Y254809I-54J122D01*
G01*
G75*
G03*
X28725Y255026I-450J172D01*
G01*
G75*
G03*
X28636Y255166I-180J-16D01*
G01*
G75*
G03*
X28398Y255241I-283J-485D01*
G01*
G75*
G03*
X27923Y255260I-488J-6028D01*
G01*
G75*
G02*
X27376Y255278I26J9459D01*
G01*
G75*
G02*
X27115Y255346I41J691D01*
G01*
G75*
G02*
X26997Y255484I99J204D01*
G01*
G75*
G02*
X26976Y255720I559J169D01*
G01*
X27009Y256009D01*
X27796Y256023D01*
G75*
G03*
X28332Y256049I-155J8736D01*
G01*
G75*
G03*
X28587Y256123I-52J651D01*
G01*
G75*
G03*
X28713Y256272I-124J233D01*
G01*
G75*
G03*
X28757Y256534I-789J269D01*
G01*
G75*
G03*
X28724Y256660I-250J2D01*
G01*
G75*
G03*
X28635Y256728I-124J-72D01*
G01*
G75*
G03*
X28434Y256754I-215J-849D01*
G01*
G75*
G03*
X27868Y256759I-572J-34676D01*
G01*
G75*
G03*
X27298Y256752I10J-23723D01*
G01*
G75*
G03*
X27061Y256718I24J-1011D01*
G01*
G75*
G03*
X26899Y256633I108J-402D01*
G01*
G75*
G03*
X26718Y256451I994J-1170D01*
G01*
G75*
G03*
X26560Y256207I893J-750D01*
G01*
G75*
G03*
X26475Y255941I896J-433D01*
G01*
G75*
G03*
X26472Y255684I820J-139D01*
G01*
G75*
G03*
X26552Y255467I546J78D01*
G01*
X26585Y225159D02*
G75*
G03*
X26775Y225194I0J537D01*
G01*
G75*
G03*
X27257Y225384I-6484J17137D01*
G01*
G75*
G03*
X27753Y225600I-4863J11817D01*
G01*
G75*
G03*
X28140Y225798I-2254J4886D01*
G01*
X28691Y226109D01*
X29015Y225784D01*
G75*
G03*
X29280Y225565I1258J1255D01*
G01*
G75*
G03*
X29524Y225466I356J530D01*
G01*
G75*
G03*
X29687Y225506I37J204D01*
G01*
G75*
G03*
X29759Y225651I-112J145D01*
G01*
G75*
G03*
X29694Y225883I-446J0D01*
G01*
G75*
G03*
X29487Y226155I-1417J-865D01*
G01*
G75*
G03*
X29190Y226417I-1546J-1454D01*
G01*
G75*
G03*
X28844Y226625I-1344J-1843D01*
G01*
G75*
G03*
X27810Y227121I-43777J-89912D01*
G01*
G75*
G03*
X27171Y227405I-6462J-13674D01*
G01*
G75*
G03*
X26733Y227577I-4394J-10554D01*
G01*
G75*
G03*
X26618Y227553I-39J-105D01*
G01*
G75*
G03*
X26587Y227497I72J-76D01*
G01*
G75*
G03*
X26579Y227400I478J-91D01*
G01*
G75*
G03*
X26591Y227278I748J10D01*
G01*
G75*
G03*
X26623Y227138I1334J235D01*
G01*
G75*
G03*
X26698Y226937I1335J388D01*
G01*
G75*
G03*
X26785Y226851I161J76D01*
G01*
G75*
G03*
X26934Y226816I162J350D01*
G01*
G75*
G03*
X27333Y226809I387J11890D01*
G01*
X27948Y226810D01*
X27741Y226590D01*
G75*
G03*
X27666Y226494I498J-469D01*
G01*
G75*
G03*
X27611Y226389I509J-331D01*
G01*
G75*
G03*
X27584Y226291I435J-173D01*
G01*
G75*
G03*
X27592Y226218I139J-23D01*
G01*
G75*
G02*
X27596Y226144I-114J-44D01*
G01*
G75*
G02*
X27556Y226087I-95J25D01*
G01*
G75*
G02*
X27457Y226043I-172J253D01*
G01*
G75*
G02*
X27279Y226007I-528J2165D01*
G01*
G75*
G03*
X26932Y225934I568J-3567D01*
G01*
G75*
G03*
X26739Y225840I140J-533D01*
G01*
G75*
G03*
X26631Y225697I200J-262D01*
G01*
G75*
G03*
X26578Y225474I790J-307D01*
G01*
G75*
G03*
X26568Y225353I2643J-268D01*
G01*
G75*
G03*
X26567Y225251I1332J-72D01*
G01*
G75*
G03*
X26571Y225172I1431J38D01*
G01*
G75*
G03*
X26585Y225159I14J1D01*
G01*
X26601Y246400D02*
G75*
G03*
X26886Y246000I1091J475D01*
G01*
G75*
G03*
X27319Y245730I931J1010D01*
G01*
G75*
G03*
X27809Y245642I471J1212D01*
G01*
G75*
G03*
X28256Y245757I-15J978D01*
G01*
G75*
G03*
X28479Y245943I-339J634D01*
G01*
G75*
G03*
X28675Y246249I-1366J1092D01*
G01*
G75*
G03*
X28813Y246608I-1713J861D01*
G01*
G75*
G03*
X28859Y246956I-1280J346D01*
G01*
G75*
G03*
X28843Y247189I-1739J3D01*
G01*
G75*
G03*
X28794Y247363I-633J-86D01*
G01*
G75*
G03*
X28694Y247524I-656J-293D01*
G01*
G75*
G03*
X28519Y247719I-1988J-1615D01*
G01*
G75*
G03*
X28310Y247907I-1924J-1923D01*
G01*
G75*
G03*
X28145Y248002I-383J-473D01*
G01*
G75*
G03*
X27952Y248046I-248J-643D01*
G01*
G75*
G03*
X27636Y248059I-318J-4012D01*
G01*
G75*
G03*
X27350Y248049I2J-4054D01*
G01*
G75*
G03*
X27161Y248014I61J-866D01*
G01*
G75*
G03*
X27019Y247946I150J-500D01*
G01*
G75*
G03*
X26889Y247834I410J-602D01*
G01*
G75*
G03*
X26620Y247476I1757J-1601D01*
G01*
G75*
G03*
X26487Y247139I882J-541D01*
G01*
G75*
G03*
X26483Y246791I919J-184D01*
G01*
G75*
G03*
X26601Y246400I1708J303D01*
G01*
X26637Y232909D02*
G75*
G03*
X26722Y232783I1861J1170D01*
G01*
G75*
G03*
X26823Y232654I2380J1747D01*
G01*
G75*
G03*
X26922Y232539I2084J1711D01*
G01*
G75*
G03*
X27004Y232462I605J557D01*
G01*
G75*
G03*
X27113Y232394I311J377D01*
G01*
G75*
G03*
X27199Y232391I46J102D01*
G01*
G75*
G03*
X27296Y232454I-95J253D01*
G01*
G75*
G03*
X27469Y232637I-3372J3343D01*
G01*
G75*
G03*
X27587Y232793I-919J824D01*
G01*
G75*
G03*
X27705Y232996I-2159J1385D01*
G01*
G75*
G03*
X27805Y233213I-2322J1208D01*
G01*
G75*
G03*
X27869Y233409I-1354J552D01*
G01*
G75*
G02*
X27939Y233651I3447J-867D01*
G01*
G75*
G02*
X28006Y233776I387J-127D01*
G01*
G75*
G02*
X28094Y233837I148J-117D01*
G01*
G75*
G02*
X28224Y233859I131J-383D01*
G01*
G75*
G02*
X28419Y233814I0J-447D01*
G01*
G75*
G02*
X28519Y233693I-83J-170D01*
G01*
G75*
G02*
X28503Y233517I-247J-67D01*
G01*
G75*
G02*
X28369Y233320I-693J327D01*
G01*
G75*
G03*
X28179Y233061I967J-909D01*
G01*
G75*
G03*
X28057Y232764I1147J-643D01*
G01*
G75*
G03*
X28029Y232513I793J-218D01*
G01*
G75*
G03*
X28116Y232393I135J6D01*
G01*
G75*
G03*
X28357Y232424I92J238D01*
G01*
G75*
G03*
X28606Y232684I-590J814D01*
G01*
G75*
G03*
X28794Y233084I-1285J849D01*
G01*
G75*
G03*
X28859Y233517I-1420J433D01*
G01*
G75*
G03*
X28777Y233954I-1203J0D01*
G01*
G75*
G03*
X28536Y234388I-1731J-674D01*
G01*
G75*
G03*
X28241Y234674I-1022J-760D01*
G01*
G75*
G03*
X27996Y234677I-124J-179D01*
G01*
G75*
G03*
X27865Y234541I241J-362D01*
G01*
G75*
G03*
X27665Y234188I6134J-3725D01*
G01*
G75*
G03*
X27479Y233809I5301J-2825D01*
G01*
G75*
G03*
X27374Y233509I1801J-803D01*
G01*
G75*
G02*
X27333Y233394I-706J187D01*
G01*
G75*
G02*
X27276Y233297I-486J220D01*
G01*
G75*
G02*
X27212Y233230I-295J218D01*
G01*
G75*
G02*
X27152Y233209I-60J75D01*
G01*
G75*
G02*
X27036Y233274I0J135D01*
G01*
G75*
G02*
X26981Y233445I329J200D01*
G01*
G75*
G02*
X27004Y233672I658J48D01*
G01*
G75*
G02*
X27102Y233880I657J-184D01*
G01*
G75*
G03*
X27261Y234204I-960J674D01*
G01*
G75*
G03*
X27225Y234441I-262J81D01*
G01*
G75*
G03*
X27044Y234498I-127J-88D01*
G01*
G75*
G03*
X26787Y234333I252J-674D01*
G01*
G75*
G03*
X26586Y234033I662J-662D01*
G01*
G75*
G03*
X26487Y233648I1259J-528D01*
G01*
G75*
G03*
X26504Y233249I1369J-144D01*
G01*
G75*
G03*
X26637Y232909I958J180D01*
G01*
X26643Y262309D02*
G75*
G03*
X26726Y262183I1771J1082D01*
G01*
G75*
G03*
X26825Y262054I2273J1630D01*
G01*
G75*
G03*
X26923Y261939I1989J1603D01*
G01*
G75*
G03*
X27004Y261862I584J533D01*
G01*
G75*
G03*
X27113Y261794I311J377D01*
G01*
G75*
G03*
X27199Y261791I46J102D01*
G01*
G75*
G03*
X27296Y261854I-95J253D01*
G01*
G75*
G03*
X27469Y262037I-3372J3343D01*
G01*
G75*
G03*
X27587Y262193I-919J824D01*
G01*
G75*
G03*
X27705Y262396I-2159J1385D01*
G01*
G75*
G03*
X27805Y262613I-2322J1208D01*
G01*
G75*
G03*
X27869Y262809I-1354J552D01*
G01*
G75*
G02*
X27928Y263003I2154J-541D01*
G01*
G75*
G02*
X27993Y263143I733J-257D01*
G01*
G75*
G02*
X28064Y263230I333J-200D01*
G01*
G75*
G02*
X28138Y263259I74J-80D01*
G01*
G75*
G03*
X28210Y263270I1J230D01*
G01*
G75*
G03*
X28302Y263308I-227J685D01*
G01*
G75*
G03*
X28396Y263362I-364J744D01*
G01*
G75*
G03*
X28478Y263426I-390J585D01*
G01*
G75*
G02*
X28590Y263521I1484J-1640D01*
G01*
G75*
G02*
X28616Y263510I10J-13D01*
G01*
G75*
G02*
X28609Y263447I-142J-17D01*
G01*
G75*
G02*
X28509Y263159I-28480J9735D01*
G01*
G75*
G02*
X28443Y262984I-4033J1422D01*
G01*
G75*
G02*
X28371Y262817I-3574J1440D01*
G01*
G75*
G02*
X28302Y262676I-3118J1433D01*
G01*
G75*
G02*
X28253Y262602I-365J189D01*
G01*
G75*
G03*
X28142Y262416I542J-449D01*
G01*
G75*
G03*
X28059Y262152I1670J-674D01*
G01*
G75*
G03*
X28018Y261902I1809J-422D01*
G01*
G75*
G03*
X28067Y261804I104J-9D01*
G01*
G75*
G03*
X28320Y261800I130J210D01*
G01*
G75*
G03*
X28586Y262044I-414J718D01*
G01*
G75*
G03*
X28789Y262465I-1215J846D01*
G01*
G75*
G03*
X28859Y262940I-1585J475D01*
G01*
G75*
G03*
X28816Y263300I-1541J1D01*
G01*
G75*
G03*
X28687Y263556I-601J-144D01*
G01*
G75*
G03*
X28469Y263706I-389J-330D01*
G01*
G75*
G03*
X28165Y263759I-305J-854D01*
G01*
G75*
G03*
X27878Y263711I1J-888D01*
G01*
G75*
G03*
X27669Y263574I160J-472D01*
G01*
G75*
G03*
X27507Y263313I634J-571D01*
G01*
G75*
G03*
X27361Y262869I3982J-1556D01*
G01*
G75*
G02*
X27308Y262702I-1726J463D01*
G01*
G75*
G02*
X27246Y262576I-710J269D01*
G01*
G75*
G02*
X27184Y262498I-331J200D01*
G01*
G75*
G02*
X27128Y262485I-38J40D01*
G01*
G75*
G02*
X27020Y262600I52J157D01*
G01*
G75*
G02*
X26980Y262871I1137J305D01*
G01*
G75*
G02*
X27006Y263177I1374J39D01*
G01*
G75*
G02*
X27102Y263413I653J-129D01*
G01*
G75*
G03*
X27234Y263626I-3966J2603D01*
G01*
G75*
G03*
X27241Y263706I-83J48D01*
G01*
G75*
G03*
X27185Y263750I-62J-22D01*
G01*
G75*
G03*
X26979Y263759I-207J-2371D01*
G01*
G75*
G03*
X26831Y263743I0J-688D01*
G01*
G75*
G03*
X26730Y263693I52J-233D01*
G01*
G75*
G03*
X26653Y263597I197J-237D01*
G01*
G75*
G03*
X26579Y263427I1294J-664D01*
G01*
G75*
G03*
X26488Y263103I2159J-781D01*
G01*
G75*
G03*
X26468Y262826I1060J-216D01*
G01*
G75*
G03*
X26519Y262569I935J53D01*
G01*
G75*
G03*
X26643Y262309I1289J454D01*
G01*
X26679Y218559D02*
G75*
G03*
X26999Y218239I999J679D01*
G01*
G75*
G03*
X27310Y218207I186J273D01*
G01*
G75*
G03*
X27592Y218464I-211J515D01*
G01*
G75*
G03*
X27818Y219026I-2711J1417D01*
G01*
G75*
G02*
X27912Y219319I5412J-1575D01*
G01*
G75*
G02*
X27989Y219463I510J-180D01*
G01*
G75*
G02*
X28082Y219534I170J-126D01*
G01*
G75*
G02*
X28216Y219559I135J-346D01*
G01*
G75*
G02*
X28379Y219502I0J-262D01*
G01*
G75*
G02*
X28461Y219359I-139J-176D01*
G01*
G75*
G02*
X28436Y219159I-369J-55D01*
G01*
G75*
G02*
X28306Y218956I-667J283D01*
G01*
G75*
G03*
X28169Y218750I629J-570D01*
G01*
G75*
G03*
X28065Y218473I1574J-748D01*
G01*
G75*
G03*
X28014Y218213I1587J-445D01*
G01*
G75*
G03*
X28067Y218104I113J-13D01*
G01*
G75*
G03*
X28323Y218100I131J212D01*
G01*
G75*
G03*
X28588Y218347I-409J704D01*
G01*
G75*
G03*
X28790Y218777I-1242J844D01*
G01*
G75*
G03*
X28859Y219269I-1716J491D01*
G01*
G75*
G03*
X28796Y219633I-1096J0D01*
G01*
G75*
G03*
X28613Y219996I-1504J-530D01*
G01*
G75*
G03*
X28368Y220269I-1100J-744D01*
G01*
G75*
G03*
X28122Y220358I-245J-291D01*
G01*
G75*
G03*
X27928Y220274I1J-268D01*
G01*
G75*
G03*
X27693Y219977I1612J-1518D01*
G01*
G75*
G03*
X27485Y219595I2129J-1409D01*
G01*
G75*
G03*
X27362Y219209I1756J-772D01*
G01*
G75*
G02*
X27272Y218972I-778J159D01*
G01*
G75*
G02*
X27129Y218869I-187J108D01*
G01*
G75*
G02*
X27008Y218927I-22J108D01*
G01*
G75*
G02*
X26963Y219126I385J193D01*
G01*
G75*
G02*
X26974Y219253I797J-8D01*
G01*
G75*
G02*
X27007Y219399I1532J-265D01*
G01*
G75*
G02*
X27054Y219543I1509J-418D01*
G01*
G75*
G02*
X27109Y219659I781J-296D01*
G01*
G75*
G03*
X27263Y220013I-1533J878D01*
G01*
G75*
G03*
X27215Y220215I-194J60D01*
G01*
G75*
G03*
X27037Y220237I-103J-99D01*
G01*
G75*
G03*
X26765Y220015I695J-1131D01*
G01*
G75*
G03*
X26565Y219700I722J-678D01*
G01*
G75*
G03*
X26480Y219314I1168J-461D01*
G01*
G75*
G03*
X26519Y218913I1295J-77D01*
G01*
G75*
G03*
X26679Y218559I1097J283D01*
G01*
X27184Y247340D02*
G75*
G02*
X27272Y247333I32J-165D01*
G01*
G75*
G02*
X27326Y247282I-31J-87D01*
G01*
G75*
G02*
X27353Y247163I-330J-137D01*
G01*
G75*
G02*
X27359Y246916I-4937J-242D01*
G01*
G75*
G02*
X27352Y246661I-4783J-2D01*
G01*
G75*
G02*
X27322Y246539I-339J19D01*
G01*
G75*
G02*
X27261Y246480I-105J47D01*
G01*
G75*
G02*
X27153Y246459I-107J265D01*
G01*
G75*
G02*
X27045Y246478I0J324D01*
G01*
G75*
G02*
X26988Y246531I32J91D01*
G01*
G75*
G02*
X26967Y246642I256J106D01*
G01*
G75*
G02*
X26978Y246883I4501J-85D01*
G01*
G75*
G02*
X27002Y247086I2339J-170D01*
G01*
G75*
G02*
X27041Y247219I521J-84D01*
G01*
G75*
G02*
X27101Y247300I219J-99D01*
G01*
G75*
G02*
X27184Y247340I115J-130D01*
G01*
X27800Y247859D02*
G75*
G02*
X27865Y247824I0J-79D01*
G01*
G75*
G02*
X28152Y247386I-39735J-26398D01*
G01*
G75*
G02*
X28426Y246956I-26406J-17108D01*
G01*
G75*
G02*
X28459Y246842I-183J-114D01*
G01*
G75*
G02*
X28420Y246735I-165J0D01*
G01*
G75*
G02*
X28256Y246558I-1938J1631D01*
G01*
G75*
G02*
X28075Y246397I-1754J1788D01*
G01*
G75*
G02*
X27966Y246359I-109J135D01*
G01*
G75*
G02*
X27928Y246372I0J65D01*
G01*
G75*
G02*
X27887Y246410I123J169D01*
G01*
G75*
G02*
X27852Y246467I231J184D01*
G01*
G75*
G02*
X27828Y246534I346J162D01*
G01*
G75*
G02*
X27790Y246779I1179J309D01*
G01*
G75*
G02*
X27772Y247280I16588J850D01*
G01*
G75*
G02*
X27763Y247822I56389J1214D01*
G01*
G75*
G02*
X27800Y247859I37J0D01*
G01*
D02*
D12*
X8617Y53371D02*
Y56434D01*
X6728D01*
X6609D01*
X6496Y56428D01*
X6400Y56423D01*
X6308Y56418D01*
X6233Y56407D01*
X6163Y56396D01*
X6109Y56385D01*
X6060Y56369D01*
X6007Y56342D01*
X5953Y56294D01*
X5899Y56240D01*
X5856Y56165D01*
X5802Y56062D01*
X5770Y55949D01*
X5743Y55842D01*
X5737Y55723D01*
Y55492D01*
X5560D01*
Y58307D01*
X5737D01*
Y58076D01*
X5743Y57957D01*
X5764Y57849D01*
X5802Y57736D01*
X5850Y57634D01*
X5894Y57559D01*
X5947Y57500D01*
X6012Y57456D01*
X6087Y57419D01*
X6130Y57408D01*
X6184Y57397D01*
X6249Y57387D01*
X6324Y57381D01*
X6410Y57376D01*
X6507Y57370D01*
X6609Y57365D01*
X6728D01*
X10980D01*
X11098D01*
X11211Y57370D01*
X11308Y57376D01*
X11400Y57381D01*
X11475Y57392D01*
X11540Y57403D01*
X11599Y57413D01*
X11642Y57430D01*
X11701Y57456D01*
X11755Y57505D01*
X11809Y57559D01*
X11852Y57629D01*
X11906Y57736D01*
X11944Y57844D01*
X11965Y57957D01*
X11970Y58076D01*
Y58307D01*
X12148D01*
Y55492D01*
X11970D01*
Y55723D01*
X11965Y55820D01*
X11954Y55911D01*
X11938Y55998D01*
X11911Y56073D01*
X11879Y56143D01*
X11836Y56207D01*
X11787Y56261D01*
X11734Y56310D01*
X11685Y56342D01*
X11626Y56364D01*
X11551Y56385D01*
X11465Y56402D01*
X11368Y56418D01*
X11249Y56428D01*
X11120Y56434D01*
X10980D01*
X8978D01*
Y53371D01*
X10980D01*
X11098D01*
X11211Y53376D01*
X11308Y53382D01*
X11400Y53387D01*
X11475Y53398D01*
X11540Y53409D01*
X11599Y53419D01*
X11642Y53435D01*
X11701Y53463D01*
X11755Y53511D01*
X11809Y53565D01*
X11852Y53635D01*
X11906Y53743D01*
X11944Y53850D01*
X11965Y53963D01*
X11970Y54076D01*
Y54313D01*
X12148D01*
Y51498D01*
X11970D01*
Y51729D01*
X11965Y51831D01*
X11954Y51923D01*
X11938Y52004D01*
X11911Y52085D01*
X11879Y52154D01*
X11836Y52219D01*
X11787Y52273D01*
X11734Y52321D01*
X11685Y52348D01*
X11626Y52375D01*
X11551Y52397D01*
X11465Y52413D01*
X11368Y52424D01*
X11249Y52434D01*
X11120Y52440D01*
X10980D01*
X6728D01*
X6609D01*
X6496Y52434D01*
X6400Y52429D01*
X6308Y52424D01*
X6233Y52413D01*
X6163Y52402D01*
X6109Y52391D01*
X6060Y52375D01*
X6007Y52348D01*
X5953Y52305D01*
X5899Y52246D01*
X5856Y52176D01*
X5802Y52069D01*
X5770Y51961D01*
X5743Y51848D01*
X5737Y51729D01*
Y51498D01*
X5560D01*
Y54313D01*
X5737D01*
Y54076D01*
X5743Y53963D01*
X5764Y53850D01*
X5802Y53743D01*
X5850Y53635D01*
X5894Y53570D01*
X5947Y53511D01*
X6012Y53463D01*
X6087Y53430D01*
X6130Y53414D01*
X6184Y53403D01*
X6249Y53393D01*
X6324Y53387D01*
X6410Y53382D01*
X6507Y53376D01*
X6609Y53371D01*
X6728D01*
X8617D01*
X5409Y62150D02*
X5415Y62311D01*
X5425Y62468D01*
X5441Y62619D01*
X5468Y62769D01*
X5506Y62920D01*
X5549Y63065D01*
X5598Y63211D01*
X5651Y63350D01*
X5716Y63485D01*
X5791Y63620D01*
X5872Y63754D01*
X5958Y63883D01*
X6055Y64013D01*
X6157Y64136D01*
X6265Y64255D01*
X6383Y64373D01*
X6507Y64491D01*
X6636Y64594D01*
X6765Y64696D01*
X6900Y64787D01*
X7040Y64868D01*
X7180Y64949D01*
X7331Y65019D01*
X7481Y65078D01*
X7632Y65137D01*
X7788Y65180D01*
X7950Y65224D01*
X8117Y65256D01*
X8283Y65283D01*
X8461Y65299D01*
X8633Y65310D01*
X8816Y65315D01*
X8999Y65310D01*
X9182Y65299D01*
X9360Y65283D01*
X9532Y65256D01*
X9704Y65224D01*
X9871Y65180D01*
X10033Y65132D01*
X10189Y65078D01*
X10345Y65014D01*
X10496Y64944D01*
X10641Y64868D01*
X10781Y64782D01*
X10921Y64691D01*
X11050Y64589D01*
X11185Y64481D01*
X11308Y64368D01*
X11427Y64249D01*
X11540Y64126D01*
X11648Y63996D01*
X11744Y63867D01*
X11831Y63738D01*
X11911Y63604D01*
X11987Y63463D01*
X12051Y63318D01*
X12111Y63173D01*
X12159Y63028D01*
X12202Y62877D01*
X12240Y62720D01*
X12267Y62565D01*
X12283Y62403D01*
X12293Y62242D01*
X12299Y62075D01*
X12293Y61908D01*
X12283Y61741D01*
X12267Y61580D01*
X12240Y61418D01*
X12207Y61267D01*
X12164Y61117D01*
X12116Y60966D01*
X12057Y60820D01*
X11992Y60681D01*
X11922Y60541D01*
X11841Y60406D01*
X11755Y60277D01*
X11664Y60148D01*
X11561Y60024D01*
X11448Y59906D01*
X11330Y59787D01*
X11211Y59674D01*
X11082Y59572D01*
X10948Y59475D01*
X10813Y59383D01*
X10673Y59297D01*
X10528Y59222D01*
X10377Y59152D01*
X10221Y59093D01*
X10065Y59039D01*
X9904Y58991D01*
X9737Y58953D01*
X9565Y58920D01*
X9387Y58894D01*
X9204Y58878D01*
X9021Y58867D01*
X8832Y58861D01*
X8639Y58867D01*
X8445Y58878D01*
X8262Y58899D01*
X8084Y58926D01*
X7907Y58963D01*
X7734Y59012D01*
X7567Y59066D01*
X7406Y59130D01*
X7250Y59200D01*
X7094Y59281D01*
X6943Y59367D01*
X6803Y59464D01*
X6663Y59567D01*
X6529Y59680D01*
X6394Y59803D01*
X6270Y59932D01*
X6163Y60045D01*
X6066Y60169D01*
X5980Y60293D01*
X5894Y60417D01*
X5818Y60546D01*
X5743Y60681D01*
X5683Y60815D01*
X5624Y60950D01*
X5576Y61090D01*
X5533Y61235D01*
X5495Y61380D01*
X5463Y61526D01*
X5441Y61682D01*
X5425Y61833D01*
X5415Y61989D01*
X5409Y62150D01*
X5764Y62059D02*
X5775Y61843D01*
X5807Y61639D01*
X5856Y61445D01*
X5931Y61262D01*
X6023Y61090D01*
X6136Y60928D01*
X6265Y60778D01*
X6421Y60643D01*
X6523Y60562D01*
X6636Y60487D01*
X6755Y60417D01*
X6878Y60352D01*
X7008Y60288D01*
X7142Y60234D01*
X7282Y60185D01*
X7428Y60143D01*
X7578Y60105D01*
X7740Y60067D01*
X7901Y60040D01*
X8074Y60019D01*
X8246Y59997D01*
X8429Y59986D01*
X8617Y59981D01*
X8811Y59976D01*
X9010Y59981D01*
X9204Y59986D01*
X9392Y60002D01*
X9570Y60019D01*
X9748Y60045D01*
X9914Y60072D01*
X10081Y60110D01*
X10237Y60148D01*
X10393Y60196D01*
X10539Y60244D01*
X10679Y60304D01*
X10813Y60363D01*
X10943Y60433D01*
X11066Y60503D01*
X11185Y60584D01*
X11292Y60665D01*
X11448Y60804D01*
X11583Y60950D01*
X11696Y61111D01*
X11787Y61278D01*
X11863Y61461D01*
X11911Y61650D01*
X11944Y61854D01*
X11954Y62064D01*
Y62177D01*
X11944Y62290D01*
X11928Y62403D01*
X11911Y62505D01*
X11884Y62613D01*
X11852Y62715D01*
X11815Y62812D01*
X11771Y62909D01*
X11728Y63006D01*
X11674Y63097D01*
X11615Y63189D01*
X11545Y63275D01*
X11475Y63356D01*
X11400Y63442D01*
X11319Y63517D01*
X11233Y63598D01*
X11136Y63668D01*
X11039Y63738D01*
X10931Y63802D01*
X10819Y63862D01*
X10695Y63916D01*
X10571Y63964D01*
X10437Y64007D01*
X10296Y64050D01*
X10151Y64088D01*
X10000Y64115D01*
X9839Y64142D01*
X9678Y64163D01*
X9505Y64179D01*
X9322Y64190D01*
X9139Y64201D01*
X8945D01*
X8741D01*
X8536Y64190D01*
X8343Y64179D01*
X8154Y64158D01*
X7977Y64136D01*
X7799Y64109D01*
X7632Y64072D01*
X7470Y64034D01*
X7315Y63991D01*
X7169Y63943D01*
X7029Y63889D01*
X6895Y63830D01*
X6765Y63759D01*
X6647Y63689D01*
X6534Y63614D01*
X6426Y63533D01*
X6270Y63393D01*
X6136Y63243D01*
X6023Y63076D01*
X5931Y62898D01*
X5856Y62710D01*
X5807Y62505D01*
X5775Y62290D01*
X5764Y62059D01*
X5737Y70450D02*
X5560D01*
Y72770D01*
X5737D01*
Y72522D01*
X5743Y72431D01*
X5759Y72339D01*
X5786Y72259D01*
X5818Y72183D01*
X5867Y72108D01*
X5920Y72043D01*
X5991Y71984D01*
X6066Y71930D01*
X6109Y71904D01*
X6163Y71887D01*
X6233Y71866D01*
X6313Y71855D01*
X6410Y71844D01*
X6518Y71833D01*
X6636Y71828D01*
X6765D01*
X9435D01*
X9678Y71823D01*
X9904Y71817D01*
X10113Y71801D01*
X10313Y71780D01*
X10501Y71753D01*
X10673Y71715D01*
X10830Y71677D01*
X10969Y71629D01*
X11104Y71575D01*
X11233Y71511D01*
X11357Y71430D01*
X11481Y71338D01*
X11594Y71236D01*
X11701Y71123D01*
X11809Y70999D01*
X11906Y70859D01*
X11997Y70708D01*
X12078Y70547D01*
X12148Y70369D01*
X12202Y70181D01*
X12245Y69976D01*
X12272Y69761D01*
X12293Y69535D01*
X12299Y69293D01*
X12293Y69029D01*
X12277Y68787D01*
X12245Y68556D01*
X12207Y68345D01*
X12154Y68146D01*
X12089Y67969D01*
X12013Y67802D01*
X11928Y67656D01*
X11831Y67522D01*
X11723Y67398D01*
X11610Y67285D01*
X11486Y67178D01*
X11357Y67086D01*
X11222Y67000D01*
X11077Y66930D01*
X10921Y66865D01*
X10862Y66844D01*
X10802Y66828D01*
X10733Y66811D01*
X10657Y66795D01*
X10576Y66785D01*
X10490Y66769D01*
X10399Y66757D01*
X10302Y66747D01*
X10194Y66741D01*
X10087Y66731D01*
X9968Y66725D01*
X9850Y66720D01*
X9720Y66715D01*
X9586Y66709D01*
X9446D01*
X9301D01*
X6728D01*
X6583D01*
X6448Y66698D01*
X6330Y66688D01*
X6222Y66666D01*
X6130Y66644D01*
X6050Y66612D01*
X5985Y66580D01*
X5926Y66542D01*
X5883Y66494D01*
X5845Y66445D01*
X5813Y66386D01*
X5786Y66322D01*
X5764Y66252D01*
X5748Y66171D01*
X5743Y66090D01*
X5737Y65999D01*
Y65751D01*
X5560D01*
Y68598D01*
X5737D01*
Y68345D01*
X5743Y68248D01*
X5754Y68157D01*
X5775Y68071D01*
X5802Y67996D01*
X5840Y67926D01*
X5883Y67867D01*
X5937Y67807D01*
X5996Y67764D01*
X6044Y67732D01*
X6109Y67710D01*
X6184Y67689D01*
X6265Y67672D01*
X6367Y67656D01*
X6475Y67646D01*
X6593Y67640D01*
X6728D01*
X9597D01*
X9796Y67646D01*
X10006Y67656D01*
X10232Y67678D01*
X10474Y67710D01*
X10593Y67732D01*
X10706Y67754D01*
X10813Y67780D01*
X10915Y67813D01*
X11007Y67845D01*
X11093Y67883D01*
X11174Y67920D01*
X11244Y67969D01*
X11378Y68071D01*
X11497Y68189D01*
X11604Y68335D01*
X11701Y68496D01*
X11744Y68588D01*
X11777Y68679D01*
X11809Y68781D01*
X11836Y68884D01*
X11852Y68997D01*
X11868Y69110D01*
X11879Y69228D01*
Y69352D01*
X11874Y69508D01*
X11863Y69664D01*
X11841Y69815D01*
X11809Y69966D01*
X11771Y70106D01*
X11723Y70246D01*
X11664Y70380D01*
X11599Y70509D01*
X11524Y70628D01*
X11448Y70741D01*
X11368Y70843D01*
X11276Y70940D01*
X11185Y71020D01*
X11088Y71091D01*
X10985Y71155D01*
X10878Y71204D01*
X10759Y71247D01*
X10619Y71284D01*
X10463Y71317D01*
X10286Y71344D01*
X10092Y71365D01*
X9877Y71381D01*
X9645Y71387D01*
X9392Y71392D01*
X6728D01*
X6583D01*
X6448Y71381D01*
X6330Y71370D01*
X6227Y71360D01*
X6136Y71338D01*
X6060Y71317D01*
X6001Y71290D01*
X5953Y71257D01*
X5904Y71209D01*
X5861Y71150D01*
X5824Y71091D01*
X5791Y71020D01*
X5770Y70951D01*
X5754Y70870D01*
X5743Y70789D01*
X5737Y70698D01*
Y70450D01*
X5409Y77458D02*
X7686D01*
Y77281D01*
X7524Y77259D01*
X7374Y77227D01*
X7234Y77194D01*
X7099Y77157D01*
X6970Y77119D01*
X6852Y77071D01*
X6744Y77022D01*
X6642Y76969D01*
X6550Y76909D01*
X6459Y76839D01*
X6372Y76769D01*
X6292Y76694D01*
X6217Y76608D01*
X6152Y76516D01*
X6087Y76425D01*
X6023Y76322D01*
X5974Y76215D01*
X5926Y76107D01*
X5888Y76000D01*
X5856Y75892D01*
X5829Y75784D01*
X5813Y75677D01*
X5802Y75563D01*
X5796Y75450D01*
X5802Y75327D01*
X5818Y75208D01*
X5840Y75095D01*
X5872Y74988D01*
X5920Y74885D01*
X5969Y74789D01*
X6033Y74702D01*
X6104Y74616D01*
X6184Y74535D01*
X6265Y74471D01*
X6351Y74412D01*
X6437Y74363D01*
X6523Y74331D01*
X6615Y74304D01*
X6712Y74288D01*
X6809Y74283D01*
X6884Y74288D01*
X6954Y74293D01*
X7029Y74315D01*
X7094Y74336D01*
X7164Y74363D01*
X7228Y74401D01*
X7293Y74444D01*
X7357Y74493D01*
X7406Y74535D01*
X7454Y74579D01*
X7503Y74632D01*
X7557Y74697D01*
X7611Y74761D01*
X7665Y74837D01*
X7724Y74918D01*
X7783Y75004D01*
X7847Y75095D01*
X7907Y75192D01*
X7971Y75300D01*
X8041Y75413D01*
X8111Y75531D01*
X8181Y75655D01*
X8256Y75790D01*
X8332Y75930D01*
X8450Y76150D01*
X8563Y76355D01*
X8671Y76538D01*
X8768Y76705D01*
X8859Y76856D01*
X8945Y76985D01*
X9021Y77098D01*
X9091Y77189D01*
X9231Y77351D01*
X9381Y77491D01*
X9543Y77609D01*
X9715Y77711D01*
X9807Y77754D01*
X9898Y77792D01*
X9990Y77824D01*
X10081Y77851D01*
X10178Y77867D01*
X10275Y77883D01*
X10372Y77894D01*
X10469D01*
X10652Y77883D01*
X10830Y77857D01*
X11002Y77813D01*
X11163Y77749D01*
X11324Y77668D01*
X11475Y77566D01*
X11620Y77448D01*
X11755Y77313D01*
X11884Y77162D01*
X11997Y77001D01*
X12089Y76828D01*
X12164Y76651D01*
X12224Y76457D01*
X12267Y76252D01*
X12288Y76043D01*
X12299Y75817D01*
Y75677D01*
X12288Y75537D01*
X12272Y75407D01*
X12256Y75278D01*
X12245Y75235D01*
X12234Y75181D01*
X12218Y75117D01*
X12196Y75047D01*
X12175Y74961D01*
X12148Y74869D01*
X12116Y74767D01*
X12078Y74654D01*
X12041Y74541D01*
X12008Y74439D01*
X11981Y74347D01*
X11960Y74267D01*
X11944Y74196D01*
X11933Y74137D01*
X11928Y74089D01*
X11922Y74051D01*
X11928Y73992D01*
X11944Y73943D01*
X11965Y73900D01*
X11997Y73857D01*
X12041Y73825D01*
X12111Y73798D01*
X12196Y73776D01*
X12299Y73755D01*
Y73578D01*
X10038D01*
Y73755D01*
X10210Y73787D01*
X10372Y73825D01*
X10522Y73863D01*
X10663Y73906D01*
X10786Y73949D01*
X10905Y73992D01*
X11007Y74046D01*
X11104Y74094D01*
X11190Y74153D01*
X11271Y74218D01*
X11352Y74288D01*
X11427Y74369D01*
X11497Y74449D01*
X11567Y74546D01*
X11626Y74643D01*
X11691Y74751D01*
X11744Y74858D01*
X11793Y74977D01*
X11831Y75090D01*
X11863Y75214D01*
X11890Y75332D01*
X11906Y75456D01*
X11917Y75585D01*
X11922Y75714D01*
X11917Y75865D01*
X11900Y76005D01*
X11879Y76134D01*
X11841Y76258D01*
X11798Y76376D01*
X11744Y76484D01*
X11674Y76581D01*
X11599Y76678D01*
X11519Y76759D01*
X11432Y76828D01*
X11346Y76888D01*
X11249Y76941D01*
X11152Y76979D01*
X11056Y77006D01*
X10948Y77022D01*
X10840Y77028D01*
X10722Y77017D01*
X10598Y76995D01*
X10474Y76952D01*
X10350Y76893D01*
X10226Y76818D01*
X10108Y76726D01*
X9995Y76613D01*
X9887Y76479D01*
X9844Y76419D01*
X9796Y76344D01*
X9731Y76247D01*
X9661Y76123D01*
X9575Y75983D01*
X9484Y75827D01*
X9381Y75644D01*
X9269Y75440D01*
X9156Y75241D01*
X9043Y75047D01*
X8940Y74874D01*
X8843Y74719D01*
X8752Y74573D01*
X8666Y74444D01*
X8590Y74331D01*
X8515Y74234D01*
X8445Y74148D01*
X8370Y74067D01*
X8294Y73992D01*
X8219Y73922D01*
X8138Y73857D01*
X8057Y73798D01*
X7977Y73744D01*
X7891Y73691D01*
X7804Y73647D01*
X7718Y73610D01*
X7627Y73578D01*
X7535Y73556D01*
X7438Y73534D01*
X7341Y73518D01*
X7244Y73513D01*
X7142Y73507D01*
X6970Y73518D01*
X6803Y73540D01*
X6642Y73583D01*
X6485Y73642D01*
X6335Y73723D01*
X6189Y73814D01*
X6055Y73927D01*
X5920Y74051D01*
X5802Y74196D01*
X5700Y74347D01*
X5608Y74503D01*
X5538Y74676D01*
X5479Y74853D01*
X5441Y75041D01*
X5420Y75235D01*
X5409Y75445D01*
X5415Y75574D01*
X5425Y75709D01*
X5447Y75849D01*
X5474Y75983D01*
X5511Y76123D01*
X5554Y76269D01*
X5603Y76414D01*
X5667Y76559D01*
X5716Y76683D01*
X5754Y76791D01*
X5780Y76877D01*
X5786Y76947D01*
X5780Y77006D01*
X5770Y77060D01*
X5743Y77108D01*
X5711Y77152D01*
X5662Y77189D01*
X5598Y77227D01*
X5511Y77254D01*
X5409Y77281D01*
Y77458D01*
X5560Y83158D02*
Y85462D01*
X5737D01*
Y85333D01*
X5743Y85263D01*
X5764Y85182D01*
X5802Y85080D01*
X5850Y84967D01*
X5910Y84848D01*
X5985Y84735D01*
X6071Y84628D01*
X6173Y84526D01*
X6227Y84472D01*
X6292Y84418D01*
X6367Y84359D01*
X6448Y84300D01*
X6539Y84241D01*
X6636Y84170D01*
X6739Y84106D01*
X6857Y84030D01*
X9349Y82443D01*
X11007D01*
X11152D01*
X11281Y82453D01*
X11400Y82464D01*
X11502Y82475D01*
X11588Y82496D01*
X11664Y82518D01*
X11723Y82545D01*
X11766Y82577D01*
X11815Y82626D01*
X11857Y82685D01*
X11890Y82744D01*
X11922Y82814D01*
X11944Y82895D01*
X11960Y82976D01*
X11965Y83061D01*
X11970Y83158D01*
Y83374D01*
X12148D01*
Y80580D01*
X11970D01*
Y80812D01*
X11965Y80914D01*
X11954Y81006D01*
X11933Y81091D01*
X11906Y81167D01*
X11874Y81242D01*
X11831Y81302D01*
X11777Y81355D01*
X11718Y81404D01*
X11674Y81431D01*
X11615Y81452D01*
X11545Y81469D01*
X11465Y81485D01*
X11368Y81495D01*
X11260Y81506D01*
X11142Y81511D01*
X11007D01*
X9452D01*
X6685Y79708D01*
X6567Y79633D01*
X6464Y79563D01*
X6372Y79498D01*
X6292Y79439D01*
X6222Y79391D01*
X6163Y79342D01*
X6114Y79304D01*
X6076Y79272D01*
X6044Y79240D01*
X6012Y79202D01*
X5980Y79154D01*
X5942Y79100D01*
X5904Y79035D01*
X5867Y78965D01*
X5829Y78885D01*
X5786Y78798D01*
X5764Y78745D01*
X5748Y78680D01*
X5743Y78605D01*
X5737Y78519D01*
X5560D01*
Y81328D01*
X5737D01*
Y81183D01*
X5743Y81075D01*
X5764Y80968D01*
X5796Y80860D01*
X5845Y80763D01*
X5872Y80720D01*
X5904Y80682D01*
X5942Y80645D01*
X5980Y80618D01*
X6023Y80602D01*
X6066Y80585D01*
X6114Y80575D01*
X6168D01*
X6217D01*
X6270Y80591D01*
X6335Y80613D01*
X6410Y80645D01*
X6496Y80688D01*
X6588Y80742D01*
X6690Y80801D01*
X6798Y80871D01*
X8924Y82243D01*
X6889Y83535D01*
X6781Y83605D01*
X6680Y83665D01*
X6583Y83713D01*
X6491Y83756D01*
X6410Y83783D01*
X6335Y83810D01*
X6270Y83820D01*
X6211Y83826D01*
X6146Y83820D01*
X6082Y83810D01*
X6023Y83788D01*
X5969Y83756D01*
X5915Y83718D01*
X5872Y83670D01*
X5834Y83616D01*
X5796Y83552D01*
X5770Y83481D01*
X5754Y83390D01*
X5743Y83282D01*
X5737Y83158D01*
X5560D01*
X5409Y90178D02*
X7686D01*
Y90000D01*
X7524Y89978D01*
X7374Y89946D01*
X7234Y89914D01*
X7099Y89876D01*
X6970Y89838D01*
X6852Y89790D01*
X6744Y89741D01*
X6642Y89687D01*
X6550Y89628D01*
X6459Y89558D01*
X6372Y89489D01*
X6292Y89413D01*
X6217Y89327D01*
X6152Y89235D01*
X6087Y89144D01*
X6023Y89042D01*
X5974Y88934D01*
X5926Y88826D01*
X5888Y88719D01*
X5856Y88611D01*
X5829Y88504D01*
X5813Y88396D01*
X5802Y88283D01*
X5796Y88170D01*
X5802Y88046D01*
X5818Y87928D01*
X5840Y87815D01*
X5872Y87707D01*
X5920Y87604D01*
X5969Y87507D01*
X6033Y87422D01*
X6104Y87335D01*
X6184Y87255D01*
X6265Y87190D01*
X6351Y87131D01*
X6437Y87082D01*
X6523Y87050D01*
X6615Y87023D01*
X6712Y87007D01*
X6809Y87002D01*
X6884Y87007D01*
X6954Y87013D01*
X7029Y87034D01*
X7094Y87056D01*
X7164Y87082D01*
X7228Y87120D01*
X7293Y87163D01*
X7357Y87211D01*
X7406Y87255D01*
X7454Y87298D01*
X7503Y87352D01*
X7557Y87416D01*
X7611Y87481D01*
X7665Y87556D01*
X7724Y87637D01*
X7783Y87723D01*
X7847Y87815D01*
X7907Y87911D01*
X7971Y88019D01*
X8041Y88132D01*
X8111Y88250D01*
X8181Y88374D01*
X8256Y88509D01*
X8332Y88649D01*
X8450Y88869D01*
X8563Y89074D01*
X8671Y89257D01*
X8768Y89424D01*
X8859Y89574D01*
X8945Y89704D01*
X9021Y89817D01*
X9091Y89908D01*
X9231Y90070D01*
X9381Y90210D01*
X9543Y90328D01*
X9715Y90430D01*
X9807Y90474D01*
X9898Y90511D01*
X9990Y90543D01*
X10081Y90570D01*
X10178Y90587D01*
X10275Y90603D01*
X10372Y90613D01*
X10469D01*
X10652Y90603D01*
X10830Y90576D01*
X11002Y90533D01*
X11163Y90468D01*
X11324Y90387D01*
X11475Y90285D01*
X11620Y90167D01*
X11755Y90032D01*
X11884Y89881D01*
X11997Y89720D01*
X12089Y89548D01*
X12164Y89370D01*
X12224Y89176D01*
X12267Y88972D01*
X12288Y88762D01*
X12299Y88536D01*
Y88396D01*
X12288Y88256D01*
X12272Y88127D01*
X12256Y87997D01*
X12245Y87954D01*
X12234Y87900D01*
X12218Y87836D01*
X12196Y87766D01*
X12175Y87680D01*
X12148Y87588D01*
X12116Y87486D01*
X12078Y87373D01*
X12041Y87260D01*
X12008Y87158D01*
X11981Y87066D01*
X11960Y86985D01*
X11944Y86915D01*
X11933Y86856D01*
X11928Y86808D01*
X11922Y86770D01*
X11928Y86711D01*
X11944Y86663D01*
X11965Y86619D01*
X11997Y86576D01*
X12041Y86544D01*
X12111Y86517D01*
X12196Y86496D01*
X12299Y86474D01*
Y86296D01*
X10038D01*
Y86474D01*
X10210Y86506D01*
X10372Y86544D01*
X10522Y86582D01*
X10663Y86625D01*
X10786Y86668D01*
X10905Y86711D01*
X11007Y86765D01*
X11104Y86813D01*
X11190Y86872D01*
X11271Y86937D01*
X11352Y87007D01*
X11427Y87088D01*
X11497Y87169D01*
X11567Y87265D01*
X11626Y87362D01*
X11691Y87470D01*
X11744Y87578D01*
X11793Y87696D01*
X11831Y87809D01*
X11863Y87933D01*
X11890Y88051D01*
X11906Y88175D01*
X11917Y88304D01*
X11922Y88433D01*
X11917Y88584D01*
X11900Y88724D01*
X11879Y88853D01*
X11841Y88977D01*
X11798Y89096D01*
X11744Y89203D01*
X11674Y89300D01*
X11599Y89397D01*
X11519Y89478D01*
X11432Y89548D01*
X11346Y89607D01*
X11249Y89661D01*
X11152Y89698D01*
X11056Y89725D01*
X10948Y89741D01*
X10840Y89747D01*
X10722Y89736D01*
X10598Y89715D01*
X10474Y89671D01*
X10350Y89612D01*
X10226Y89537D01*
X10108Y89445D01*
X9995Y89332D01*
X9887Y89198D01*
X9844Y89139D01*
X9796Y89063D01*
X9731Y88966D01*
X9661Y88843D01*
X9575Y88703D01*
X9484Y88546D01*
X9381Y88363D01*
X9269Y88159D01*
X9156Y87960D01*
X9043Y87766D01*
X8940Y87594D01*
X8843Y87438D01*
X8752Y87292D01*
X8666Y87163D01*
X8590Y87050D01*
X8515Y86953D01*
X8445Y86867D01*
X8370Y86786D01*
X8294Y86711D01*
X8219Y86641D01*
X8138Y86576D01*
X8057Y86517D01*
X7977Y86463D01*
X7891Y86409D01*
X7804Y86367D01*
X7718Y86329D01*
X7627Y86296D01*
X7535Y86275D01*
X7438Y86254D01*
X7341Y86237D01*
X7244Y86232D01*
X7142Y86226D01*
X6970Y86237D01*
X6803Y86259D01*
X6642Y86302D01*
X6485Y86361D01*
X6335Y86442D01*
X6189Y86533D01*
X6055Y86646D01*
X5920Y86770D01*
X5802Y86915D01*
X5700Y87066D01*
X5608Y87222D01*
X5538Y87394D01*
X5479Y87572D01*
X5441Y87761D01*
X5420Y87954D01*
X5409Y88164D01*
X5415Y88293D01*
X5425Y88428D01*
X5447Y88568D01*
X5474Y88703D01*
X5511Y88843D01*
X5554Y88988D01*
X5603Y89133D01*
X5667Y89278D01*
X5716Y89402D01*
X5754Y89510D01*
X5780Y89596D01*
X5786Y89666D01*
X5780Y89725D01*
X5770Y89779D01*
X5743Y89828D01*
X5711Y89870D01*
X5662Y89908D01*
X5598Y89946D01*
X5511Y89973D01*
X5409Y90000D01*
Y90178D01*
X14291Y96200D02*
Y91055D01*
X13881D01*
Y96200D01*
X14291D01*
X9064Y98154D02*
X10980D01*
X11131D01*
X11265Y98165D01*
X11384Y98176D01*
X11486Y98187D01*
X11578Y98208D01*
X11653Y98230D01*
X11712Y98257D01*
X11755Y98289D01*
X11809Y98337D01*
X11852Y98391D01*
X11884Y98456D01*
X11917Y98520D01*
X11938Y98591D01*
X11960Y98671D01*
X11965Y98757D01*
X11970Y98843D01*
Y99096D01*
X12148D01*
Y96281D01*
X11970D01*
Y96529D01*
X11965Y96631D01*
X11954Y96723D01*
X11933Y96809D01*
X11900Y96889D01*
X11863Y96959D01*
X11820Y97024D01*
X11761Y97078D01*
X11696Y97126D01*
X11653Y97148D01*
X11594Y97169D01*
X11524Y97185D01*
X11443Y97202D01*
X11346Y97207D01*
X11239Y97218D01*
X11115Y97223D01*
X10980D01*
X6728D01*
X6577D01*
X6448Y97218D01*
X6324Y97207D01*
X6222Y97191D01*
X6130Y97175D01*
X6055Y97148D01*
X5996Y97121D01*
X5953Y97094D01*
X5904Y97040D01*
X5861Y96987D01*
X5824Y96922D01*
X5791Y96857D01*
X5770Y96782D01*
X5754Y96707D01*
X5743Y96620D01*
X5737Y96529D01*
Y96281D01*
X5560D01*
Y98693D01*
X5565Y98908D01*
X5570Y99113D01*
X5587Y99306D01*
X5608Y99484D01*
X5630Y99656D01*
X5662Y99812D01*
X5700Y99957D01*
X5743Y100087D01*
X5791Y100216D01*
X5850Y100334D01*
X5915Y100448D01*
X5985Y100561D01*
X6066Y100663D01*
X6157Y100765D01*
X6254Y100857D01*
X6356Y100948D01*
X6469Y101029D01*
X6583Y101104D01*
X6706Y101163D01*
X6830Y101212D01*
X6959Y101250D01*
X7094Y101276D01*
X7234Y101293D01*
X7385Y101298D01*
X7578Y101287D01*
X7767Y101266D01*
X7944Y101222D01*
X8111Y101163D01*
X8273Y101088D01*
X8423Y100996D01*
X8563Y100889D01*
X8693Y100765D01*
X8811Y100625D01*
X8913Y100474D01*
X8999Y100307D01*
X9075Y100124D01*
X9128Y99931D01*
X9166Y99721D01*
X9193Y99500D01*
X9198Y99263D01*
X9188Y99016D01*
X9166Y98746D01*
X9123Y98461D01*
X9064Y98154D01*
X8784D02*
X8806Y98278D01*
X8827Y98397D01*
X8843Y98504D01*
X8859Y98612D01*
X8870Y98704D01*
X8876Y98795D01*
X8881Y98876D01*
Y98951D01*
X8876Y99075D01*
X8859Y99193D01*
X8827Y99306D01*
X8784Y99419D01*
X8730Y99527D01*
X8660Y99629D01*
X8580Y99726D01*
X8488Y99818D01*
X8391Y99904D01*
X8278Y99979D01*
X8165Y100044D01*
X8041Y100092D01*
X7912Y100130D01*
X7772Y100162D01*
X7632Y100178D01*
X7476Y100184D01*
X7374D01*
X7266Y100173D01*
X7164Y100157D01*
X7067Y100141D01*
X6970Y100114D01*
X6873Y100087D01*
X6776Y100049D01*
X6685Y100011D01*
X6593Y99963D01*
X6513Y99915D01*
X6437Y99861D01*
X6362Y99802D01*
X6297Y99737D01*
X6238Y99667D01*
X6184Y99592D01*
X6136Y99516D01*
X6093Y99435D01*
X6055Y99349D01*
X6023Y99263D01*
X6001Y99172D01*
X5980Y99080D01*
X5963Y98989D01*
X5958Y98892D01*
X5953Y98790D01*
X5958Y98655D01*
X5974Y98504D01*
X6007Y98337D01*
X6044Y98154D01*
X8784D01*
X5409Y107752D02*
X7487Y107924D01*
Y107752D01*
X7298Y107687D01*
X7126Y107612D01*
X6959Y107536D01*
X6809Y107456D01*
X6669Y107370D01*
X6539Y107283D01*
X6426Y107187D01*
X6319Y107084D01*
X6189Y106933D01*
X6071Y106772D01*
X5974Y106600D01*
X5894Y106417D01*
X5834Y106223D01*
X5791Y106019D01*
X5764Y105803D01*
X5754Y105577D01*
X5759Y105421D01*
X5770Y105270D01*
X5791Y105125D01*
X5818Y104985D01*
X5850Y104845D01*
X5894Y104716D01*
X5942Y104592D01*
X6001Y104468D01*
X6071Y104350D01*
X6141Y104237D01*
X6227Y104129D01*
X6313Y104027D01*
X6410Y103930D01*
X6518Y103833D01*
X6631Y103747D01*
X6749Y103661D01*
X6965Y103532D01*
X7191Y103419D01*
X7428Y103327D01*
X7670Y103252D01*
X7923Y103187D01*
X8192Y103144D01*
X8467Y103122D01*
X8752Y103112D01*
X8983Y103117D01*
X9209Y103133D01*
X9435Y103166D01*
X9651Y103204D01*
X9866Y103252D01*
X10070Y103317D01*
X10275Y103392D01*
X10469Y103478D01*
X10657Y103569D01*
X10835Y103672D01*
X10996Y103779D01*
X11142Y103898D01*
X11281Y104022D01*
X11400Y104151D01*
X11513Y104285D01*
X11610Y104431D01*
X11696Y104581D01*
X11766Y104727D01*
X11831Y104877D01*
X11879Y105028D01*
X11922Y105179D01*
X11949Y105335D01*
X11965Y105485D01*
X11970Y105642D01*
X11965Y105825D01*
X11949Y106002D01*
X11917Y106174D01*
X11879Y106347D01*
X11825Y106514D01*
X11766Y106681D01*
X11691Y106842D01*
X11604Y107004D01*
X9699D01*
X9581D01*
X9473Y106998D01*
X9376Y106993D01*
X9285Y106987D01*
X9209Y106977D01*
X9144Y106961D01*
X9091Y106944D01*
X9048Y106928D01*
X8972Y106885D01*
X8913Y106831D01*
X8854Y106767D01*
X8811Y106697D01*
X8795Y106654D01*
X8779Y106600D01*
X8763Y106541D01*
X8752Y106476D01*
X8741Y106401D01*
X8735Y106320D01*
X8730Y106234D01*
Y106137D01*
X8552D01*
Y108688D01*
X8730D01*
Y108565D01*
X8735Y108478D01*
X8746Y108392D01*
X8768Y108317D01*
X8795Y108247D01*
X8832Y108188D01*
X8876Y108134D01*
X8924Y108085D01*
X8983Y108048D01*
X9037Y108026D01*
X9096Y108005D01*
X9172Y107989D01*
X9252Y107978D01*
X9349Y107967D01*
X9457Y107956D01*
X9570Y107951D01*
X9699D01*
X11718D01*
X11857Y107671D01*
X11976Y107396D01*
X12078Y107122D01*
X12159Y106847D01*
X12218Y106567D01*
X12267Y106277D01*
X12288Y105965D01*
X12299Y105642D01*
X12293Y105405D01*
X12277Y105179D01*
X12256Y104958D01*
X12224Y104743D01*
X12180Y104538D01*
X12127Y104339D01*
X12067Y104145D01*
X11992Y103962D01*
X11911Y103785D01*
X11820Y103613D01*
X11723Y103451D01*
X11610Y103295D01*
X11491Y103144D01*
X11362Y103004D01*
X11222Y102870D01*
X11077Y102741D01*
X10959Y102649D01*
X10840Y102568D01*
X10722Y102487D01*
X10598Y102417D01*
X10474Y102348D01*
X10345Y102288D01*
X10216Y102235D01*
X10087Y102186D01*
X9952Y102138D01*
X9817Y102100D01*
X9678Y102073D01*
X9537Y102046D01*
X9398Y102024D01*
X9252Y102008D01*
X9107Y102003D01*
X8956Y101998D01*
X8741Y102003D01*
X8526Y102024D01*
X8316Y102057D01*
X8106Y102100D01*
X7896Y102159D01*
X7691Y102235D01*
X7492Y102315D01*
X7288Y102417D01*
X7061Y102547D01*
X6841Y102687D01*
X6642Y102837D01*
X6453Y103004D01*
X6276Y103176D01*
X6114Y103365D01*
X5969Y103564D01*
X5834Y103774D01*
X5732Y103962D01*
X5646Y104156D01*
X5576Y104355D01*
X5517Y104565D01*
X5468Y104780D01*
X5436Y105007D01*
X5415Y105243D01*
X5409Y105485D01*
X5415Y105663D01*
X5425Y105830D01*
X5441Y105986D01*
X5468Y106137D01*
X5484Y106218D01*
X5506Y106298D01*
X5533Y106395D01*
X5560Y106492D01*
X5598Y106600D01*
X5635Y106718D01*
X5678Y106842D01*
X5727Y106971D01*
X5754Y107036D01*
X5770Y107095D01*
X5791Y107149D01*
X5802Y107197D01*
X5813Y107240D01*
X5824Y107278D01*
X5829Y107310D01*
Y107337D01*
X5824Y107380D01*
X5807Y107423D01*
X5780Y107461D01*
X5743Y107493D01*
X5689Y107526D01*
X5619Y107547D01*
X5522Y107563D01*
X5409Y107574D01*
Y107752D01*
Y113409D02*
X7686D01*
Y113231D01*
X7524Y113210D01*
X7374Y113178D01*
X7234Y113145D01*
X7099Y113107D01*
X6970Y113070D01*
X6852Y113021D01*
X6744Y112973D01*
X6642Y112919D01*
X6550Y112860D01*
X6459Y112790D01*
X6372Y112720D01*
X6292Y112644D01*
X6217Y112558D01*
X6152Y112467D01*
X6087Y112375D01*
X6023Y112273D01*
X5974Y112165D01*
X5926Y112058D01*
X5888Y111950D01*
X5856Y111843D01*
X5829Y111735D01*
X5813Y111627D01*
X5802Y111514D01*
X5796Y111401D01*
X5802Y111277D01*
X5818Y111159D01*
X5840Y111046D01*
X5872Y110938D01*
X5920Y110836D01*
X5969Y110739D01*
X6033Y110653D01*
X6104Y110567D01*
X6184Y110486D01*
X6265Y110422D01*
X6351Y110362D01*
X6437Y110314D01*
X6523Y110281D01*
X6615Y110255D01*
X6712Y110239D01*
X6809Y110233D01*
X6884Y110239D01*
X6954Y110244D01*
X7029Y110265D01*
X7094Y110287D01*
X7164Y110314D01*
X7228Y110352D01*
X7293Y110394D01*
X7357Y110443D01*
X7406Y110486D01*
X7454Y110529D01*
X7503Y110583D01*
X7557Y110648D01*
X7611Y110712D01*
X7665Y110787D01*
X7724Y110868D01*
X7783Y110954D01*
X7847Y111046D01*
X7907Y111143D01*
X7971Y111250D01*
X8041Y111363D01*
X8111Y111482D01*
X8181Y111606D01*
X8256Y111740D01*
X8332Y111880D01*
X8450Y112101D01*
X8563Y112306D01*
X8671Y112489D01*
X8768Y112655D01*
X8859Y112806D01*
X8945Y112935D01*
X9021Y113048D01*
X9091Y113140D01*
X9231Y113301D01*
X9381Y113441D01*
X9543Y113559D01*
X9715Y113662D01*
X9807Y113705D01*
X9898Y113743D01*
X9990Y113775D01*
X10081Y113802D01*
X10178Y113818D01*
X10275Y113834D01*
X10372Y113845D01*
X10469D01*
X10652Y113834D01*
X10830Y113807D01*
X11002Y113764D01*
X11163Y113700D01*
X11324Y113619D01*
X11475Y113517D01*
X11620Y113398D01*
X11755Y113263D01*
X11884Y113113D01*
X11997Y112951D01*
X12089Y112779D01*
X12164Y112602D01*
X12224Y112407D01*
X12267Y112203D01*
X12288Y111993D01*
X12299Y111767D01*
Y111627D01*
X12288Y111487D01*
X12272Y111358D01*
X12256Y111229D01*
X12245Y111186D01*
X12234Y111132D01*
X12218Y111067D01*
X12196Y110997D01*
X12175Y110911D01*
X12148Y110820D01*
X12116Y110717D01*
X12078Y110604D01*
X12041Y110491D01*
X12008Y110389D01*
X11981Y110298D01*
X11960Y110217D01*
X11944Y110147D01*
X11933Y110088D01*
X11928Y110039D01*
X11922Y110002D01*
X11928Y109943D01*
X11944Y109894D01*
X11965Y109851D01*
X11997Y109808D01*
X12041Y109776D01*
X12111Y109749D01*
X12196Y109727D01*
X12299Y109706D01*
Y109528D01*
X10038D01*
Y109706D01*
X10210Y109738D01*
X10372Y109776D01*
X10522Y109813D01*
X10663Y109856D01*
X10786Y109899D01*
X10905Y109943D01*
X11007Y109996D01*
X11104Y110044D01*
X11190Y110104D01*
X11271Y110169D01*
X11352Y110239D01*
X11427Y110319D01*
X11497Y110400D01*
X11567Y110497D01*
X11626Y110594D01*
X11691Y110701D01*
X11744Y110809D01*
X11793Y110928D01*
X11831Y111041D01*
X11863Y111164D01*
X11890Y111283D01*
X11906Y111406D01*
X11917Y111536D01*
X11922Y111665D01*
X11917Y111816D01*
X11900Y111956D01*
X11879Y112085D01*
X11841Y112209D01*
X11798Y112327D01*
X11744Y112435D01*
X11674Y112531D01*
X11599Y112628D01*
X11519Y112709D01*
X11432Y112779D01*
X11346Y112838D01*
X11249Y112892D01*
X11152Y112930D01*
X11056Y112957D01*
X10948Y112973D01*
X10840Y112978D01*
X10722Y112967D01*
X10598Y112946D01*
X10474Y112903D01*
X10350Y112844D01*
X10226Y112768D01*
X10108Y112677D01*
X9995Y112564D01*
X9887Y112429D01*
X9844Y112370D01*
X9796Y112294D01*
X9731Y112198D01*
X9661Y112074D01*
X9575Y111934D01*
X9484Y111778D01*
X9381Y111595D01*
X9269Y111390D01*
X9156Y111191D01*
X9043Y110997D01*
X8940Y110825D01*
X8843Y110669D01*
X8752Y110524D01*
X8666Y110394D01*
X8590Y110281D01*
X8515Y110185D01*
X8445Y110098D01*
X8370Y110018D01*
X8294Y109943D01*
X8219Y109872D01*
X8138Y109808D01*
X8057Y109749D01*
X7977Y109695D01*
X7891Y109641D01*
X7804Y109598D01*
X7718Y109560D01*
X7627Y109528D01*
X7535Y109506D01*
X7438Y109485D01*
X7341Y109469D01*
X7244Y109463D01*
X7142Y109458D01*
X6970Y109469D01*
X6803Y109490D01*
X6642Y109533D01*
X6485Y109593D01*
X6335Y109673D01*
X6189Y109765D01*
X6055Y109878D01*
X5920Y110002D01*
X5802Y110147D01*
X5700Y110298D01*
X5608Y110454D01*
X5538Y110626D01*
X5479Y110804D01*
X5441Y110992D01*
X5420Y111186D01*
X5409Y111396D01*
X5415Y111525D01*
X5425Y111659D01*
X5447Y111800D01*
X5474Y111934D01*
X5511Y112074D01*
X5554Y112219D01*
X5603Y112365D01*
X5667Y112510D01*
X5716Y112634D01*
X5754Y112741D01*
X5780Y112828D01*
X5786Y112898D01*
X5780Y112957D01*
X5770Y113011D01*
X5743Y113059D01*
X5711Y113102D01*
X5662Y113140D01*
X5598Y113178D01*
X5511Y113204D01*
X5409Y113231D01*
Y113409D01*
X14291Y119432D02*
Y114286D01*
X13881D01*
Y119432D01*
X14291D01*
X5560Y126408D02*
X5737D01*
X5775Y126241D01*
X5824Y126101D01*
X5888Y125977D01*
X5963Y125875D01*
X6023Y125810D01*
X6098Y125751D01*
X6173Y125692D01*
X6259Y125633D01*
X6356Y125579D01*
X6459Y125525D01*
X6572Y125471D01*
X6690Y125417D01*
X12299Y123130D01*
Y122952D01*
X6615Y120481D01*
X6513Y120439D01*
X6421Y120396D01*
X6335Y120358D01*
X6265Y120320D01*
X6206Y120288D01*
X6152Y120261D01*
X6114Y120239D01*
X6082Y120218D01*
X6012Y120153D01*
X5947Y120083D01*
X5894Y120002D01*
X5845Y119917D01*
X5807Y119820D01*
X5775Y119707D01*
X5754Y119583D01*
X5737Y119437D01*
X5560D01*
Y122129D01*
X5737D01*
X5748Y122021D01*
X5764Y121919D01*
X5780Y121833D01*
X5796Y121752D01*
X5818Y121682D01*
X5840Y121623D01*
X5867Y121574D01*
X5894Y121537D01*
X5953Y121478D01*
X6023Y121434D01*
X6098Y121407D01*
X6179Y121396D01*
X6243Y121402D01*
X6319Y121413D01*
X6400Y121429D01*
X6491Y121456D01*
X6588Y121488D01*
X6696Y121526D01*
X6814Y121569D01*
X6938Y121623D01*
X10802Y123302D01*
X6986Y124852D01*
X6852Y124906D01*
X6728Y124955D01*
X6615Y124992D01*
X6507Y125024D01*
X6416Y125052D01*
X6335Y125068D01*
X6265Y125078D01*
X6206D01*
X6136Y125073D01*
X6066Y125046D01*
X6001Y125003D01*
X5937Y124939D01*
X5904Y124901D01*
X5878Y124857D01*
X5850Y124809D01*
X5824Y124750D01*
X5802Y124685D01*
X5786Y124621D01*
X5764Y124546D01*
X5754Y124465D01*
X5748Y124432D01*
X5737Y124379D01*
X5560D01*
Y126408D01*
X8892Y126892D02*
X8617Y126898D01*
X8348Y126914D01*
X8090Y126941D01*
X7842Y126978D01*
X7605Y127027D01*
X7379Y127086D01*
X7158Y127151D01*
X6954Y127231D01*
X6755Y127323D01*
X6572Y127415D01*
X6400Y127522D01*
X6243Y127630D01*
X6098Y127748D01*
X5969Y127867D01*
X5845Y128001D01*
X5743Y128136D01*
X5667Y128249D01*
X5603Y128356D01*
X5549Y128469D01*
X5506Y128582D01*
X5468Y128696D01*
X5447Y128809D01*
X5431Y128927D01*
X5425Y129040D01*
X5431Y129137D01*
X5436Y129228D01*
X5452Y129320D01*
X5474Y129411D01*
X5500Y129498D01*
X5533Y129589D01*
X5576Y129675D01*
X5619Y129761D01*
X5667Y129847D01*
X5727Y129928D01*
X5791Y130009D01*
X5861Y130090D01*
X5937Y130170D01*
X6017Y130251D01*
X6104Y130326D01*
X6195Y130402D01*
X6319Y130493D01*
X6448Y130580D01*
X6583Y130660D01*
X6717Y130730D01*
X6862Y130800D01*
X7013Y130859D01*
X7164Y130919D01*
X7325Y130967D01*
X7487Y131010D01*
X7659Y131048D01*
X7837Y131080D01*
X8014Y131107D01*
X8203Y131128D01*
X8391Y131144D01*
X8590Y131150D01*
X8789Y131156D01*
X9069Y131150D01*
X9344Y131134D01*
X9602Y131107D01*
X9850Y131075D01*
X10087Y131026D01*
X10318Y130972D01*
X10533Y130902D01*
X10738Y130827D01*
X10931Y130741D01*
X11109Y130649D01*
X11276Y130552D01*
X11427Y130450D01*
X11567Y130343D01*
X11691Y130224D01*
X11804Y130106D01*
X11900Y129982D01*
X11987Y129853D01*
X12057Y129729D01*
X12121Y129600D01*
X12170Y129476D01*
X12213Y129357D01*
X12240Y129234D01*
X12256Y129110D01*
X12261Y128991D01*
X12256Y128873D01*
X12245Y128760D01*
X12224Y128652D01*
X12191Y128539D01*
X12154Y128432D01*
X12105Y128330D01*
X12051Y128227D01*
X11981Y128130D01*
X11911Y128033D01*
X11825Y127937D01*
X11734Y127845D01*
X11637Y127754D01*
X11529Y127667D01*
X11411Y127587D01*
X11281Y127500D01*
X11147Y127420D01*
X10910Y127296D01*
X10657Y127188D01*
X10393Y127097D01*
X10119Y127027D01*
X9828Y126968D01*
X9527Y126924D01*
X9215Y126903D01*
X8892Y126892D01*
X9015Y127845D02*
X9344Y127850D01*
X9661Y127867D01*
X9963Y127893D01*
X10248Y127931D01*
X10517Y127974D01*
X10770Y128033D01*
X11007Y128104D01*
X11233Y128179D01*
X11319Y128217D01*
X11400Y128254D01*
X11475Y128292D01*
X11551Y128335D01*
X11615Y128378D01*
X11674Y128426D01*
X11728Y128475D01*
X11777Y128523D01*
X11815Y128577D01*
X11852Y128631D01*
X11884Y128690D01*
X11911Y128749D01*
X11928Y128809D01*
X11944Y128873D01*
X11954Y128938D01*
Y129008D01*
X11949Y129072D01*
X11938Y129137D01*
X11922Y129207D01*
X11895Y129277D01*
X11863Y129341D01*
X11820Y129411D01*
X11777Y129481D01*
X11718Y129551D01*
X11653Y129621D01*
X11583Y129686D01*
X11497Y129745D01*
X11406Y129799D01*
X11303Y129853D01*
X11190Y129896D01*
X11066Y129939D01*
X10931Y129976D01*
X10711Y130030D01*
X10469Y130079D01*
X10210Y130117D01*
X9925Y130149D01*
X9618Y130170D01*
X9295Y130187D01*
X8945Y130197D01*
X8580Y130203D01*
X8300Y130197D01*
X8036Y130187D01*
X7788Y130170D01*
X7546Y130143D01*
X7315Y130111D01*
X7099Y130074D01*
X6895Y130025D01*
X6701Y129971D01*
X6567Y129923D01*
X6443Y129874D01*
X6330Y129826D01*
X6222Y129767D01*
X6130Y129713D01*
X6044Y129648D01*
X5974Y129583D01*
X5910Y129519D01*
X5840Y129411D01*
X5791Y129298D01*
X5759Y129174D01*
X5748Y129035D01*
X5754Y128954D01*
X5770Y128873D01*
X5791Y128798D01*
X5824Y128722D01*
X5867Y128652D01*
X5915Y128582D01*
X5974Y128513D01*
X6044Y128448D01*
X6152Y128362D01*
X6276Y128286D01*
X6410Y128217D01*
X6561Y128152D01*
X6728Y128098D01*
X6906Y128050D01*
X7105Y128007D01*
X7309Y127974D01*
X7740Y127915D01*
X8170Y127877D01*
X8596Y127856D01*
X9015Y127845D01*
X6206Y132673D02*
X5425Y134277D01*
Y134439D01*
X10985D01*
X11120D01*
X11239Y134444D01*
X11346D01*
X11438Y134450D01*
X11519Y134455D01*
X11583Y134466D01*
X11637Y134476D01*
X11680Y134487D01*
X11744Y134514D01*
X11798Y134557D01*
X11847Y134611D01*
X11890Y134676D01*
X11906Y134719D01*
X11922Y134767D01*
X11933Y134826D01*
X11944Y134896D01*
X11954Y134977D01*
X11960Y135063D01*
X11965Y135160D01*
X11970Y135268D01*
X12148D01*
Y132792D01*
X11970D01*
X11965Y132905D01*
X11960Y133007D01*
X11954Y133093D01*
X11944Y133174D01*
X11933Y133244D01*
X11922Y133303D01*
X11906Y133357D01*
X11890Y133394D01*
X11852Y133459D01*
X11809Y133507D01*
X11755Y133551D01*
X11701Y133583D01*
X11664Y133594D01*
X11610Y133604D01*
X11545Y133615D01*
X11465Y133626D01*
X11368Y133631D01*
X11255D01*
X11126Y133637D01*
X10985D01*
X7433D01*
X7261D01*
X7105Y133631D01*
X6965D01*
X6841Y133626D01*
X6733Y133620D01*
X6642Y133610D01*
X6567Y133599D01*
X6507Y133588D01*
X6437Y133567D01*
X6372Y133540D01*
X6319Y133507D01*
X6281Y133465D01*
X6249Y133416D01*
X6227Y133368D01*
X6211Y133308D01*
X6206Y133249D01*
X6217Y133147D01*
X6243Y133034D01*
X6292Y132899D01*
X6356Y132748D01*
X6206Y132673D01*
X5560Y51513D02*
X5737D01*
X11970D02*
X12148D01*
X5560Y51607D02*
X5737D01*
X11970D02*
X12148D01*
X5560Y51700D02*
X5737D01*
X11970D02*
X12148D01*
X5560Y51794D02*
X5741D01*
X11967D02*
X12148D01*
X5560Y51888D02*
X5752D01*
X11958D02*
X12148D01*
X5560Y51981D02*
X5776D01*
X11943D02*
X12148D01*
X5560Y52075D02*
X5806D01*
X11915D02*
X12148D01*
X5560Y52169D02*
X5852D01*
X11869D02*
X12148D01*
X5560Y52263D02*
X5914D01*
X11797D02*
X12148D01*
X5560Y52356D02*
X6022D01*
X11668D02*
X12148D01*
X5560Y52450D02*
X12148D01*
X5560Y52544D02*
X12148D01*
X5560Y52637D02*
X12148D01*
X5560Y52731D02*
X12148D01*
X5560Y52825D02*
X12148D01*
X5560Y52919D02*
X12148D01*
X5560Y53012D02*
X12148D01*
X5560Y53106D02*
X12148D01*
X5560Y53200D02*
X12148D01*
X5560Y53293D02*
X12148D01*
X5560Y53387D02*
X6324D01*
X8617D02*
X8978D01*
X11400D02*
X12148D01*
X5560Y53481D02*
X5988D01*
X8617D02*
X8978D01*
X11721D02*
X12148D01*
X5560Y53574D02*
X5891D01*
X8617D02*
X8978D01*
X11815D02*
X12148D01*
X5560Y53668D02*
X5835D01*
X8617D02*
X8978D01*
X11869D02*
X12148D01*
X5560Y53762D02*
X5795D01*
X8617D02*
X8978D01*
X11913D02*
X12148D01*
X5560Y53856D02*
X5763D01*
X8617D02*
X8978D01*
X11945D02*
X12148D01*
X5560Y53949D02*
X5746D01*
X8617D02*
X8978D01*
X11962D02*
X12148D01*
X5560Y54043D02*
X5739D01*
X8617D02*
X8978D01*
X11969D02*
X12148D01*
X5560Y54137D02*
X5737D01*
X8617D02*
X8978D01*
X11970D02*
X12148D01*
X5560Y54230D02*
X5737D01*
X8617D02*
X8978D01*
X11970D02*
X12148D01*
X8617Y54324D02*
X8978D01*
X8617Y54418D02*
X8978D01*
X8617Y54511D02*
X8978D01*
X8617Y54605D02*
X8978D01*
X8617Y54699D02*
X8978D01*
X8617Y54793D02*
X8978D01*
X8617Y54886D02*
X8978D01*
X8617Y54980D02*
X8978D01*
X8617Y55074D02*
X8978D01*
X8617Y55167D02*
X8978D01*
X8617Y55261D02*
X8978D01*
X8617Y55355D02*
X8978D01*
X8617Y55448D02*
X8978D01*
X5560Y55542D02*
X5737D01*
X8617D02*
X8978D01*
X11970D02*
X12148D01*
X5560Y55636D02*
X5737D01*
X8617D02*
X8978D01*
X11970D02*
X12148D01*
X5560Y55730D02*
X5738D01*
X8617D02*
X8978D01*
X11970D02*
X12148D01*
X5560Y55823D02*
X5742D01*
X8617D02*
X8978D01*
X11965D02*
X12148D01*
X5560Y55917D02*
X5762D01*
X8617D02*
X8978D01*
X11953D02*
X12148D01*
X5560Y56011D02*
X5787D01*
X8617D02*
X8978D01*
X11933D02*
X12148D01*
X5560Y56104D02*
X5824D01*
X8617D02*
X8978D01*
X11897D02*
X12148D01*
X5560Y56198D02*
X5875D01*
X8617D02*
X8978D01*
X11842D02*
X12148D01*
X5560Y56292D02*
X5951D01*
X8617D02*
X8978D01*
X11754D02*
X12148D01*
X5560Y56385D02*
X6109D01*
X8617D02*
X8978D01*
X11551D02*
X12148D01*
X5560Y56479D02*
X12148D01*
X5560Y56573D02*
X12148D01*
X5560Y56667D02*
X12148D01*
X5560Y56760D02*
X12148D01*
X5560Y56854D02*
X12148D01*
X5560Y56948D02*
X12148D01*
X5560Y57041D02*
X12148D01*
X5560Y57135D02*
X12148D01*
X5560Y57229D02*
X12148D01*
X5560Y57322D02*
X12148D01*
X5560Y57416D02*
X6098D01*
X11607D02*
X12148D01*
X5560Y57510D02*
X5938D01*
X11760D02*
X12148D01*
X5560Y57604D02*
X5868D01*
X11837D02*
X12148D01*
X5560Y57697D02*
X5820D01*
X11886D02*
X12148D01*
X5560Y57791D02*
X5784D01*
X11925D02*
X12148D01*
X5560Y57885D02*
X5757D01*
X11951D02*
X12148D01*
X5560Y57978D02*
X5742D01*
X11966D02*
X12148D01*
X5560Y58072D02*
X5737D01*
X11970D02*
X12148D01*
X5560Y58166D02*
X5737D01*
X11970D02*
X12148D01*
X5560Y58259D02*
X5737D01*
X11970D02*
X12148D01*
X8154Y58915D02*
X9531D01*
X7744Y59009D02*
X9965D01*
X7475Y59103D02*
X10247D01*
X7259Y59196D02*
X10473D01*
X7078Y59290D02*
X10659D01*
X6919Y59384D02*
X10813D01*
X6785Y59478D02*
X10952D01*
X6658Y59571D02*
X11082D01*
X6546Y59665D02*
X11200D01*
X6443Y59759D02*
X11300D01*
X6347Y59852D02*
X11395D01*
X6257Y59946D02*
X11487D01*
X6168Y60040D02*
X7901D01*
X9711D02*
X11574D01*
X6094Y60133D02*
X7464D01*
X10178D02*
X11652D01*
X6025Y60227D02*
X7161D01*
X10487D02*
X11720D01*
X5960Y60321D02*
X6941D01*
X10717D02*
X11785D01*
X5895Y60415D02*
X6759D01*
X10908D02*
X11846D01*
X5840Y60508D02*
X6604D01*
X11074D02*
X11903D01*
X5787Y60602D02*
X6473D01*
X11209D02*
X11953D01*
X5736Y60696D02*
X6360D01*
X11327D02*
X11999D01*
X5695Y60789D02*
X6255D01*
X11432D02*
X12043D01*
X5654Y60883D02*
X6174D01*
X11521D02*
X12082D01*
X5615Y60977D02*
X6102D01*
X11602D02*
X12119D01*
X5583Y61070D02*
X6036D01*
X11668D02*
X12149D01*
X5554Y61164D02*
X5983D01*
X11725D02*
X12178D01*
X5527Y61258D02*
X5933D01*
X11776D02*
X12205D01*
X5503Y61352D02*
X5894D01*
X11818D02*
X12226D01*
X5481Y61445D02*
X5856D01*
X11856D02*
X12244D01*
X5461Y61539D02*
X5832D01*
X11883D02*
X12260D01*
X5448Y61633D02*
X5809D01*
X11907D02*
X12272D01*
X5437Y61726D02*
X5794D01*
X11924D02*
X12281D01*
X5426Y61820D02*
X5779D01*
X11938D02*
X12288D01*
X5420Y61914D02*
X5772D01*
X11947D02*
X12293D01*
X5414Y62007D02*
X5767D01*
X11952D02*
X12296D01*
X5411Y62101D02*
X5766D01*
X11954D02*
X12298D01*
X5411Y62195D02*
X5770D01*
X11953D02*
X12295D01*
X5414Y62289D02*
X5775D01*
X11944D02*
X12290D01*
X5419Y62382D02*
X5789D01*
X11931D02*
X12284D01*
X5426Y62476D02*
X5803D01*
X11916D02*
X12276D01*
X5436Y62570D02*
X5823D01*
X11895D02*
X12266D01*
X5449Y62663D02*
X5845D01*
X11869D02*
X12250D01*
X5466Y62757D02*
X5875D01*
X11836D02*
X12231D01*
X5489Y62851D02*
X5912D01*
X11797D02*
X12208D01*
X5513Y62944D02*
X5955D01*
X11756D02*
X12183D01*
X5541Y63038D02*
X6003D01*
X11709D02*
X12156D01*
X5572Y63132D02*
X6061D01*
X11652D02*
X12124D01*
X5604Y63226D02*
X6124D01*
X11585D02*
X12089D01*
X5639Y63319D02*
X6204D01*
X11507D02*
X12051D01*
X5681Y63413D02*
X6293D01*
X11425D02*
X12009D01*
X5728Y63507D02*
X6396D01*
X11331D02*
X11963D01*
X5780Y63600D02*
X6515D01*
X11230D02*
X11913D01*
X5836Y63694D02*
X6655D01*
X11100D02*
X11857D01*
X5894Y63788D02*
X6818D01*
X10956D02*
X11797D01*
X5957Y63881D02*
X7013D01*
X10773D02*
X11733D01*
X6027Y63975D02*
X7267D01*
X10536D02*
X11663D01*
X6102Y64069D02*
X7620D01*
X10224D02*
X11587D01*
X6181Y64163D02*
X8196D01*
X9682D02*
X11506D01*
X6267Y64256D02*
X11420D01*
X6360Y64350D02*
X11326D01*
X6457Y64444D02*
X11225D01*
X6565Y64537D02*
X11114D01*
X6683Y64631D02*
X10996D01*
X6808Y64725D02*
X10869D01*
X6954Y64819D02*
X10722D01*
X7116Y64912D02*
X10556D01*
X7303Y65006D02*
X10362D01*
X7536Y65100D02*
X10127D01*
X7837Y65193D02*
X9821D01*
X8331Y65287D02*
X9312D01*
X5560Y65756D02*
X5737D01*
X5560Y65849D02*
X5737D01*
X5560Y65943D02*
X5737D01*
X5560Y66037D02*
X5740D01*
X5560Y66130D02*
X5745D01*
X5560Y66224D02*
X5759D01*
X5560Y66318D02*
X5785D01*
X5560Y66411D02*
X5826D01*
X5560Y66505D02*
X5893D01*
X5560Y66599D02*
X6023D01*
X5560Y66693D02*
X6382D01*
X5560Y66786D02*
X10576D01*
X5560Y66880D02*
X10956D01*
X5560Y66974D02*
X11168D01*
X5560Y67067D02*
X11328D01*
X5560Y67161D02*
X11463D01*
X5560Y67255D02*
X11575D01*
X5560Y67348D02*
X11673D01*
X5560Y67442D02*
X11761D01*
X5560Y67536D02*
X11841D01*
X5560Y67630D02*
X11908D01*
X5560Y67723D02*
X6070D01*
X10545D02*
X11967D01*
X5560Y67817D02*
X5928D01*
X10928D02*
X12020D01*
X5560Y67911D02*
X5851D01*
X11154D02*
X12063D01*
X5560Y68004D02*
X5799D01*
X11291D02*
X12102D01*
X5560Y68098D02*
X5769D01*
X11406D02*
X12136D01*
X5560Y68192D02*
X5750D01*
X11498D02*
X12166D01*
X5560Y68285D02*
X5741D01*
X11568D02*
X12191D01*
X5560Y68379D02*
X5737D01*
X11631D02*
X12213D01*
X5560Y68473D02*
X5737D01*
X11687D02*
X12230D01*
X5560Y68567D02*
X5737D01*
X11735D02*
X12246D01*
X11770Y68660D02*
X12259D01*
X11800Y68754D02*
X12272D01*
X11826Y68848D02*
X12281D01*
X11844Y68941D02*
X12287D01*
X11857Y69035D02*
X12293D01*
X11870Y69129D02*
X12295D01*
X11879Y69222D02*
X12297D01*
X11879Y69316D02*
X12298D01*
X11877Y69410D02*
X12296D01*
X11874Y69504D02*
X12294D01*
X11868Y69597D02*
X12287D01*
X11859Y69691D02*
X12279D01*
X11846Y69785D02*
X12269D01*
X11828Y69878D02*
X12257D01*
X11807Y69972D02*
X12245D01*
X11782Y70066D02*
X12226D01*
X11753Y70159D02*
X12207D01*
X11720Y70253D02*
X12181D01*
X11678Y70347D02*
X12154D01*
X11633Y70441D02*
X12120D01*
X5560Y70534D02*
X5737D01*
X11583D02*
X12083D01*
X5560Y70628D02*
X5737D01*
X11523D02*
X12037D01*
X5560Y70722D02*
X5739D01*
X11461D02*
X11989D01*
X5560Y70815D02*
X5746D01*
X11389D02*
X11932D01*
X5560Y70909D02*
X5761D01*
X11305D02*
X11871D01*
X5560Y71003D02*
X5786D01*
X11205D02*
X11806D01*
X5560Y71096D02*
X5828D01*
X11078D02*
X11724D01*
X5560Y71190D02*
X5891D01*
X10907D02*
X11637D01*
X5560Y71284D02*
X5992D01*
X10621D02*
X11541D01*
X5560Y71378D02*
X6409D01*
X9924D02*
X11427D01*
X5560Y71471D02*
X11293D01*
X5560Y71565D02*
X11124D01*
X5560Y71659D02*
X10883D01*
X5560Y71752D02*
X10501D01*
X5560Y71846D02*
X6393D01*
X5560Y71940D02*
X6053D01*
X5560Y72033D02*
X5932D01*
X5560Y72127D02*
X5854D01*
X5560Y72221D02*
X5802D01*
X5560Y72315D02*
X5767D01*
X5560Y72408D02*
X5747D01*
X5560Y72502D02*
X5739D01*
X5560Y72596D02*
X5737D01*
X5560Y72689D02*
X5737D01*
X6858Y73533D02*
X7438D01*
X6527Y73626D02*
X7756D01*
X10038D02*
X12299D01*
X6340Y73720D02*
X7938D01*
X10038D02*
X12299D01*
X6190Y73814D02*
X8079D01*
X10324D02*
X12069D01*
X6078Y73907D02*
X8201D01*
X10667D02*
X11961D01*
X5975Y74001D02*
X8304D01*
X10923D02*
X11927D01*
X5885Y74095D02*
X8395D01*
X11105D02*
X11928D01*
X5808Y74189D02*
X8478D01*
X11235D02*
X11942D01*
X5744Y74282D02*
X6803D01*
X6809D02*
X8552D01*
X11345D02*
X11964D01*
X5683Y74376D02*
X6415D01*
X7185D02*
X8620D01*
X11433D02*
X11990D01*
X5628Y74470D02*
X6265D01*
X7327D02*
X8683D01*
X11512D02*
X12018D01*
X5584Y74563D02*
X6156D01*
X7437D02*
X8745D01*
X11578D02*
X12048D01*
X5546Y74657D02*
X6070D01*
X7524D02*
X8804D01*
X11634D02*
X12080D01*
X5513Y74751D02*
X5997D01*
X7602D02*
X8863D01*
X11691D02*
X12110D01*
X5482Y74844D02*
X5941D01*
X7670D02*
X8922D01*
X11737D02*
X12140D01*
X5462Y74938D02*
X5896D01*
X7738D02*
X8978D01*
X11777D02*
X12169D01*
X5443Y75032D02*
X5859D01*
X7802D02*
X9033D01*
X11811D02*
X12193D01*
X5432Y75126D02*
X5834D01*
X7866D02*
X9089D01*
X11840D02*
X12220D01*
X5421Y75219D02*
X5817D01*
X7923D02*
X9143D01*
X11864D02*
X12242D01*
X5416Y75313D02*
X5804D01*
X7979D02*
X9196D01*
X11885D02*
X12260D01*
X5411Y75407D02*
X5798D01*
X8037D02*
X9250D01*
X11900D02*
X12272D01*
X5411Y75500D02*
X5799D01*
X8093D02*
X9302D01*
X11909D02*
X12283D01*
X5416Y75594D02*
X5805D01*
X8146D02*
X9354D01*
X11917D02*
X12293D01*
X5424Y75688D02*
X5814D01*
X8199D02*
X9406D01*
X11921D02*
X12299D01*
X5437Y75781D02*
X5828D01*
X8252D02*
X9458D01*
X11920D02*
X12299D01*
X5452Y75875D02*
X5852D01*
X8302D02*
X9512D01*
X11915D02*
X12296D01*
X5471Y75969D02*
X5879D01*
X8353D02*
X9567D01*
X11905D02*
X12292D01*
X5495Y76063D02*
X5910D01*
X8403D02*
X9624D01*
X11891D02*
X12286D01*
X5521Y76156D02*
X5948D01*
X8454D02*
X9680D01*
X11872D02*
X12276D01*
X5549Y76250D02*
X5990D01*
X8506D02*
X9733D01*
X11844D02*
X12267D01*
X5579Y76344D02*
X6036D01*
X8557D02*
X9796D01*
X11810D02*
X12247D01*
X5613Y76437D02*
X6096D01*
X8612D02*
X9857D01*
X11768D02*
X12228D01*
X5655Y76531D02*
X6163D01*
X8667D02*
X9930D01*
X11710D02*
X12201D01*
X5693Y76625D02*
X6231D01*
X8721D02*
X10007D01*
X11640D02*
X12172D01*
X5728Y76719D02*
X6318D01*
X8776D02*
X10100D01*
X11559D02*
X12135D01*
X5760Y76812D02*
X6425D01*
X8833D02*
X10219D01*
X11452D02*
X12096D01*
X5783Y76906D02*
X6546D01*
X8893D02*
X10378D01*
X11313D02*
X12048D01*
X5781Y77000D02*
X6701D01*
X8955D02*
X10623D01*
X11080D02*
X11997D01*
X5751Y77093D02*
X6906D01*
X9018D02*
X11932D01*
X5665Y77187D02*
X7207D01*
X9089D02*
X11863D01*
X5409Y77281D02*
X7686D01*
X9170D02*
X11783D01*
X5409Y77374D02*
X7686D01*
X9256D02*
X11694D01*
X9357Y77468D02*
X11595D01*
X9479Y77562D02*
X11480D01*
X9621Y77656D02*
X11343D01*
X9796Y77749D02*
X11163D01*
X10053Y77843D02*
X10884D01*
X5560Y78593D02*
X5742D01*
X5560Y78686D02*
X5750D01*
X5560Y78780D02*
X5778D01*
X5560Y78874D02*
X5823D01*
X5560Y78967D02*
X5868D01*
X5560Y79061D02*
X5919D01*
X5560Y79155D02*
X5980D01*
X5560Y79248D02*
X6053D01*
X5560Y79342D02*
X6163D01*
X5560Y79436D02*
X6287D01*
X5560Y79530D02*
X6417D01*
X5560Y79623D02*
X6553D01*
X5560Y79717D02*
X6698D01*
X5560Y79811D02*
X6842D01*
X5560Y79904D02*
X6985D01*
X5560Y79998D02*
X7129D01*
X5560Y80092D02*
X7273D01*
X5560Y80185D02*
X7417D01*
X5560Y80279D02*
X7561D01*
X5560Y80373D02*
X7704D01*
X5560Y80467D02*
X7848D01*
X5560Y80560D02*
X7992D01*
X5560Y80654D02*
X5933D01*
X6428D02*
X8136D01*
X11970D02*
X12148D01*
X5560Y80748D02*
X5855D01*
X6598D02*
X8280D01*
X11970D02*
X12148D01*
X5560Y80841D02*
X5806D01*
X6752D02*
X8423D01*
X11969D02*
X12148D01*
X5560Y80935D02*
X5774D01*
X6897D02*
X8567D01*
X11963D02*
X12148D01*
X5560Y81029D02*
X5752D01*
X7042D02*
X8711D01*
X11948D02*
X12148D01*
X5560Y81122D02*
X5741D01*
X7187D02*
X8855D01*
X11922D02*
X12148D01*
X5560Y81216D02*
X5737D01*
X7333D02*
X8998D01*
X11885D02*
X12148D01*
X5560Y81310D02*
X5737D01*
X7478D02*
X9142D01*
X11822D02*
X12148D01*
X7623Y81404D02*
X9286D01*
X11718D02*
X12148D01*
X7768Y81497D02*
X9430D01*
X11348D02*
X12148D01*
X7913Y81591D02*
X12148D01*
X8058Y81685D02*
X12148D01*
X8204Y81778D02*
X12148D01*
X8349Y81872D02*
X12148D01*
X8494Y81966D02*
X12148D01*
X8639Y82059D02*
X12148D01*
X8784Y82153D02*
X12148D01*
X8919Y82247D02*
X12148D01*
X8771Y82341D02*
X12148D01*
X8623Y82434D02*
X12148D01*
X8476Y82528D02*
X9215D01*
X11685D02*
X12148D01*
X8328Y82622D02*
X9068D01*
X11811D02*
X12148D01*
X8181Y82715D02*
X8921D01*
X11874D02*
X12148D01*
X8033Y82809D02*
X8774D01*
X11920D02*
X12148D01*
X7885Y82903D02*
X8627D01*
X11945D02*
X12148D01*
X7738Y82996D02*
X8480D01*
X11961D02*
X12148D01*
X7591Y83090D02*
X8333D01*
X11967D02*
X12148D01*
X5560Y83184D02*
X5739D01*
X7443D02*
X8186D01*
X11970D02*
X12148D01*
X5560Y83278D02*
X5743D01*
X7295D02*
X8039D01*
X11970D02*
X12148D01*
X5560Y83371D02*
X5752D01*
X7148D02*
X7891D01*
X11970D02*
X12148D01*
X5560Y83465D02*
X5767D01*
X7000D02*
X7744D01*
X5560Y83559D02*
X5801D01*
X6854D02*
X7597D01*
X5560Y83652D02*
X5860D01*
X6700D02*
X7450D01*
X5560Y83746D02*
X5955D01*
X6512D02*
X7303D01*
X5560Y83840D02*
X7156D01*
X5560Y83933D02*
X7009D01*
X5560Y84027D02*
X6862D01*
X5560Y84121D02*
X6715D01*
X5560Y84215D02*
X6575D01*
X5560Y84308D02*
X6436D01*
X5560Y84402D02*
X6312D01*
X5560Y84496D02*
X6203D01*
X5560Y84589D02*
X6110D01*
X5560Y84683D02*
X6027D01*
X5560Y84777D02*
X5957D01*
X5560Y84870D02*
X5899D01*
X5560Y84964D02*
X5852D01*
X5560Y85058D02*
X5811D01*
X5560Y85152D02*
X5776D01*
X5560Y85245D02*
X5748D01*
X5560Y85339D02*
X5737D01*
X5560Y85433D02*
X5737D01*
X6739Y86276D02*
X7535D01*
X6469Y86370D02*
X7811D01*
X10038D02*
X12299D01*
X6301Y86463D02*
X7977D01*
X10038D02*
X12299D01*
X6161Y86557D02*
X8112D01*
X10424D02*
X12023D01*
X6050Y86651D02*
X8230D01*
X10737D02*
X11950D01*
X5948Y86744D02*
X8328D01*
X10968D02*
X11924D01*
X5865Y86838D02*
X8418D01*
X11140D02*
X11931D01*
X5791Y86932D02*
X8498D01*
X11265D02*
X11948D01*
X5727Y87026D02*
X6607D01*
X7000D02*
X8571D01*
X11369D02*
X11970D01*
X5669Y87119D02*
X6371D01*
X7227D02*
X8637D01*
X11454D02*
X11997D01*
X5614Y87213D02*
X6237D01*
X7359D02*
X8699D01*
X11529D02*
X12026D01*
X5574Y87307D02*
X6132D01*
X7463D02*
X8761D01*
X11592D02*
X12056D01*
X5536Y87400D02*
X6051D01*
X7544D02*
X8820D01*
X11649D02*
X12087D01*
X5505Y87494D02*
X5979D01*
X7620D02*
X8878D01*
X11703D02*
X12118D01*
X5476Y87588D02*
X5929D01*
X7688D02*
X8937D01*
X11749D02*
X12148D01*
X5457Y87681D02*
X5884D01*
X7754D02*
X8992D01*
X11787D02*
X12175D01*
X5440Y87775D02*
X5852D01*
X7820D02*
X9048D01*
X11819D02*
X12199D01*
X5429Y87869D02*
X5830D01*
X7881D02*
X9102D01*
X11846D02*
X12226D01*
X5419Y87963D02*
X5813D01*
X7937D02*
X9157D01*
X11870D02*
X12247D01*
X5415Y88056D02*
X5802D01*
X7994D02*
X9210D01*
X11891D02*
X12263D01*
X5410Y88150D02*
X5797D01*
X8052D02*
X9263D01*
X11903D02*
X12275D01*
X5413Y88244D02*
X5800D01*
X8107D02*
X9315D01*
X11911D02*
X12287D01*
X5418Y88337D02*
X5807D01*
X8160D02*
X9367D01*
X11918D02*
X12294D01*
X5426Y88431D02*
X5818D01*
X8213D02*
X9419D01*
X11922D02*
X12299D01*
X5440Y88525D02*
X5834D01*
X8265D02*
X9472D01*
X11919D02*
X12299D01*
X5457Y88619D02*
X5858D01*
X8315D02*
X9526D01*
X11913D02*
X12295D01*
X5476Y88712D02*
X5886D01*
X8366D02*
X9581D01*
X11902D02*
X12291D01*
X5502Y88806D02*
X5919D01*
X8416D02*
X9639D01*
X11887D02*
X12283D01*
X5528Y88900D02*
X5959D01*
X8467D02*
X9694D01*
X11865D02*
X12274D01*
X5556Y88993D02*
X6001D01*
X8519D02*
X9750D01*
X11835D02*
X12262D01*
X5587Y89087D02*
X6052D01*
X8571D02*
X9811D01*
X11802D02*
X12243D01*
X5624Y89181D02*
X6113D01*
X8626D02*
X9875D01*
X11756D02*
X12222D01*
X5666Y89274D02*
X6180D01*
X8681D02*
X9949D01*
X11693D02*
X12194D01*
X5702Y89368D02*
X6253D01*
X8735D02*
X10031D01*
X11622D02*
X12165D01*
X5737Y89462D02*
X6344D01*
X8791D02*
X10130D01*
X11534D02*
X12125D01*
X5768Y89556D02*
X6455D01*
X8848D02*
X10257D01*
X11421D02*
X12085D01*
X5785Y89649D02*
X6583D01*
X8909D02*
X10428D01*
X11270D02*
X12035D01*
X5777Y89743D02*
X6744D01*
X8972D02*
X10796D01*
X10917D02*
X11981D01*
X5736Y89837D02*
X6970D01*
X9036D02*
X11916D01*
X5624Y89930D02*
X7306D01*
X9110D02*
X11843D01*
X5409Y90024D02*
X7686D01*
X9191D02*
X11762D01*
X5409Y90118D02*
X7686D01*
X9282D02*
X11669D01*
X9383Y90211D02*
X11565D01*
X9512Y90305D02*
X11446D01*
X9662Y90399D02*
X11302D01*
X9853Y90493D02*
X11102D01*
X10176Y90586D02*
X10760D01*
X13881Y91055D02*
X14291D01*
X13881Y91148D02*
X14291D01*
X13881Y91242D02*
X14291D01*
X13881Y91336D02*
X14291D01*
X13881Y91430D02*
X14291D01*
X13881Y91523D02*
X14291D01*
X13881Y91617D02*
X14291D01*
X13881Y91711D02*
X14291D01*
X13881Y91804D02*
X14291D01*
X13881Y91898D02*
X14291D01*
X13881Y91992D02*
X14291D01*
X13881Y92085D02*
X14291D01*
X13881Y92179D02*
X14291D01*
X13881Y92273D02*
X14291D01*
X13881Y92367D02*
X14291D01*
X13881Y92460D02*
X14291D01*
X13881Y92554D02*
X14291D01*
X13881Y92648D02*
X14291D01*
X13881Y92741D02*
X14291D01*
X13881Y92835D02*
X14291D01*
X13881Y92929D02*
X14291D01*
X13881Y93022D02*
X14291D01*
X13881Y93116D02*
X14291D01*
X13881Y93210D02*
X14291D01*
X13881Y93304D02*
X14291D01*
X13881Y93397D02*
X14291D01*
X13881Y93491D02*
X14291D01*
X13881Y93585D02*
X14291D01*
X13881Y93678D02*
X14291D01*
X13881Y93772D02*
X14291D01*
X13881Y93866D02*
X14291D01*
X13881Y93959D02*
X14291D01*
X13881Y94053D02*
X14291D01*
X13881Y94147D02*
X14291D01*
X13881Y94241D02*
X14291D01*
X13881Y94334D02*
X14291D01*
X13881Y94428D02*
X14291D01*
X13881Y94522D02*
X14291D01*
X13881Y94615D02*
X14291D01*
X13881Y94709D02*
X14291D01*
X13881Y94803D02*
X14291D01*
X13881Y94896D02*
X14291D01*
X13881Y94990D02*
X14291D01*
X13881Y95084D02*
X14291D01*
X13881Y95178D02*
X14291D01*
X13881Y95271D02*
X14291D01*
X13881Y95365D02*
X14291D01*
X13881Y95459D02*
X14291D01*
X13881Y95552D02*
X14291D01*
X13881Y95646D02*
X14291D01*
X13881Y95740D02*
X14291D01*
X13881Y95833D02*
X14291D01*
X13881Y95927D02*
X14291D01*
X13881Y96021D02*
X14291D01*
X13881Y96115D02*
X14291D01*
X5560Y96302D02*
X5737D01*
X11970D02*
X12148D01*
X5560Y96396D02*
X5737D01*
X11970D02*
X12148D01*
X5560Y96489D02*
X5737D01*
X11970D02*
X12148D01*
X5560Y96583D02*
X5741D01*
X11968D02*
X12148D01*
X5560Y96677D02*
X5750D01*
X11960D02*
X12148D01*
X5560Y96770D02*
X5767D01*
X11942D02*
X12148D01*
X5560Y96864D02*
X5795D01*
X11911D02*
X12148D01*
X5560Y96958D02*
X5845D01*
X11864D02*
X12148D01*
X5560Y97052D02*
X5915D01*
X11789D02*
X12148D01*
X5560Y97145D02*
X6049D01*
X11658D02*
X12148D01*
X5560Y97239D02*
X12148D01*
X5560Y97333D02*
X12148D01*
X5560Y97426D02*
X12148D01*
X5560Y97520D02*
X12148D01*
X5560Y97614D02*
X12148D01*
X5560Y97707D02*
X12148D01*
X5560Y97801D02*
X12148D01*
X5560Y97895D02*
X12148D01*
X5560Y97989D02*
X12148D01*
X5560Y98082D02*
X12148D01*
X5560Y98176D02*
X6040D01*
X8788D02*
X9068D01*
X11384D02*
X12148D01*
X5560Y98270D02*
X6020D01*
X8804D02*
X9086D01*
X11730D02*
X12148D01*
X5560Y98363D02*
X6002D01*
X8821D02*
X9104D01*
X11830D02*
X12148D01*
X5560Y98457D02*
X5983D01*
X8836D02*
X9122D01*
X11885D02*
X12148D01*
X5560Y98551D02*
X5969D01*
X8850D02*
X9137D01*
X11926D02*
X12148D01*
X5560Y98644D02*
X5959D01*
X8863D02*
X9151D01*
X11953D02*
X12148D01*
X5561Y98738D02*
X5955D01*
X8872D02*
X9165D01*
X11964D02*
X12148D01*
X5563Y98832D02*
X5955D01*
X8878D02*
X9173D01*
X11970D02*
X12148D01*
X5566Y98926D02*
X5960D01*
X8881D02*
X9181D01*
X11970D02*
X12148D01*
X5568Y99019D02*
X5969D01*
X8878D02*
X9188D01*
X11970D02*
X12148D01*
X5570Y99113D02*
X5987D01*
X8870D02*
X9192D01*
X5578Y99207D02*
X6009D01*
X8856D02*
X9196D01*
X5586Y99300D02*
X6037D01*
X8829D02*
X9198D01*
X5597Y99394D02*
X6074D01*
X8794D02*
X9195D01*
X5609Y99488D02*
X6120D01*
X8750D02*
X9193D01*
X5620Y99581D02*
X6178D01*
X8693D02*
X9183D01*
X5634Y99675D02*
X6245D01*
X8622D02*
X9172D01*
X5653Y99769D02*
X6329D01*
X8537D02*
X9157D01*
X5675Y99863D02*
X6440D01*
X8437D02*
X9141D01*
X5699Y99956D02*
X6582D01*
X8312D02*
X9121D01*
X5731Y100050D02*
X6776D01*
X8149D02*
X9095D01*
X5764Y100144D02*
X7086D01*
X7852D02*
X9067D01*
X5802Y100237D02*
X9028D01*
X5849Y100331D02*
X8987D01*
X5902Y100425D02*
X8939D01*
X5959Y100519D02*
X8883D01*
X6026Y100612D02*
X8820D01*
X6104Y100706D02*
X8743D01*
X6194Y100800D02*
X8656D01*
X6295Y100893D02*
X8558D01*
X6411Y100987D02*
X8435D01*
X6547Y101081D02*
X8285D01*
X6734Y101174D02*
X8080D01*
X7052Y101268D02*
X7746D01*
X8593Y102018D02*
X9337D01*
X8065Y102111D02*
X9858D01*
X7771Y102205D02*
X10137D01*
X7533Y102299D02*
X10368D01*
X7337Y102393D02*
X10554D01*
X7167Y102486D02*
X10722D01*
X7009Y102580D02*
X10857D01*
X6861Y102674D02*
X10991D01*
X6734Y102767D02*
X11107D01*
X6615Y102861D02*
X11213D01*
X6509Y102955D02*
X11311D01*
X6407Y103048D02*
X11403D01*
X6311Y103142D02*
X8217D01*
X9270D02*
X11489D01*
X6225Y103236D02*
X7733D01*
X9794D02*
X11563D01*
X6144Y103330D02*
X7421D01*
X10106D02*
X11635D01*
X6072Y103423D02*
X7181D01*
X10346D02*
X11703D01*
X6004Y103517D02*
X6994D01*
X10549D02*
X11763D01*
X5939Y103611D02*
X6833D01*
X10729D02*
X11819D01*
X5879Y103704D02*
X6690D01*
X10884D02*
X11869D01*
X5821Y103798D02*
X6564D01*
X11019D02*
X11917D01*
X5770Y103892D02*
X6453D01*
X11135D02*
X11960D01*
X5722Y103985D02*
X6355D01*
X11241D02*
X12002D01*
X5680Y104079D02*
X6269D01*
X11334D02*
X12040D01*
X5640Y104173D02*
X6192D01*
X11419D02*
X12076D01*
X5607Y104267D02*
X6123D01*
X11497D02*
X12105D01*
X5574Y104360D02*
X6065D01*
X11563D02*
X12133D01*
X5548Y104454D02*
X6009D01*
X11623D02*
X12157D01*
X5522Y104548D02*
X5963D01*
X11677D02*
X12182D01*
X5500Y104641D02*
X5923D01*
X11725D02*
X12202D01*
X5478Y104735D02*
X5887D01*
X11770D02*
X12222D01*
X5461Y104829D02*
X5856D01*
X11810D02*
X12237D01*
X5448Y104922D02*
X5833D01*
X11845D02*
X12250D01*
X5435Y105016D02*
X5812D01*
X11875D02*
X12261D01*
X5426Y105110D02*
X5794D01*
X11902D02*
X12270D01*
X5418Y105204D02*
X5780D01*
X11926D02*
X12279D01*
X5413Y105297D02*
X5768D01*
X11943D02*
X12285D01*
X5411Y105391D02*
X5761D01*
X11955D02*
X12292D01*
X5409Y105485D02*
X5757D01*
X11965D02*
X12295D01*
X5412Y105578D02*
X5754D01*
X11968D02*
X12297D01*
X5415Y105672D02*
X5758D01*
X11970D02*
X12298D01*
X5421Y105766D02*
X5763D01*
X11967D02*
X12295D01*
X5428Y105859D02*
X5771D01*
X11962D02*
X12292D01*
X5438Y105953D02*
X5783D01*
X11953D02*
X12289D01*
X5452Y106047D02*
X5797D01*
X11941D02*
X12283D01*
X5469Y106141D02*
X5817D01*
X8552D02*
X8730D01*
X11923D02*
X12276D01*
X5489Y106234D02*
X5838D01*
X8552D02*
X8730D01*
X11904D02*
X12269D01*
X5514Y106328D02*
X5867D01*
X8552D02*
X8736D01*
X11883D02*
X12258D01*
X5541Y106422D02*
X5896D01*
X8552D02*
X8744D01*
X11855D02*
X12243D01*
X5568Y106515D02*
X5937D01*
X8552D02*
X8758D01*
X11825D02*
X12227D01*
X5601Y106609D02*
X5980D01*
X8552D02*
X8781D01*
X11791D02*
X12209D01*
X5630Y106703D02*
X6032D01*
X8552D02*
X8815D01*
X11756D02*
X12189D01*
X5662Y106796D02*
X6089D01*
X8552D02*
X8881D01*
X11712D02*
X12170D01*
X5696Y106890D02*
X6158D01*
X8552D02*
X8981D01*
X11665D02*
X12146D01*
X5732Y106984D02*
X6233D01*
X8552D02*
X9259D01*
X11615D02*
X12119D01*
X5765Y107078D02*
X6313D01*
X8552D02*
X12091D01*
X5796Y107171D02*
X6410D01*
X8552D02*
X12060D01*
X5820Y107265D02*
X6518D01*
X8552D02*
X12025D01*
X5826Y107359D02*
X6652D01*
X8552D02*
X11990D01*
X5787Y107452D02*
X6804D01*
X8552D02*
X11952D01*
X5626Y107546D02*
X6981D01*
X8552D02*
X11911D01*
X5409Y107640D02*
X7190D01*
X8552D02*
X11871D01*
X5409Y107733D02*
X7434D01*
X8552D02*
X11826D01*
X6320Y107827D02*
X7487D01*
X8552D02*
X11780D01*
X7449Y107921D02*
X7487D01*
X8552D02*
X11733D01*
X8552Y108015D02*
X9069D01*
X8552Y108108D02*
X8901D01*
X8552Y108202D02*
X8823D01*
X8552Y108296D02*
X8776D01*
X8552Y108389D02*
X8747D01*
X8552Y108483D02*
X8735D01*
X8552Y108577D02*
X8730D01*
X8552Y108670D02*
X8730D01*
X6715Y109514D02*
X7567D01*
X6457Y109607D02*
X7823D01*
X10038D02*
X12299D01*
X6291Y109701D02*
X7986D01*
X10038D02*
X12299D01*
X6154Y109795D02*
X8120D01*
X10449D02*
X12015D01*
X6044Y109889D02*
X8236D01*
X10756D02*
X11946D01*
X5941Y109982D02*
X8334D01*
X10981D02*
X11924D01*
X5860Y110076D02*
X8424D01*
X11150D02*
X11931D01*
X5787Y110170D02*
X8503D01*
X11272D02*
X11949D01*
X5723Y110263D02*
X6585D01*
X7022D02*
X8576D01*
X11375D02*
X11972D01*
X5665Y110357D02*
X6360D01*
X7237D02*
X8641D01*
X11459D02*
X11999D01*
X5610Y110451D02*
X6229D01*
X7366D02*
X8703D01*
X11533D02*
X12028D01*
X5571Y110544D02*
X6126D01*
X7468D02*
X8765D01*
X11596D02*
X12058D01*
X5534Y110638D02*
X6045D01*
X7549D02*
X8824D01*
X11653D02*
X12089D01*
X5503Y110732D02*
X5974D01*
X7625D02*
X8882D01*
X11706D02*
X12120D01*
X5475Y110826D02*
X5926D01*
X7693D02*
X8940D01*
X11751D02*
X12150D01*
X5456Y110919D02*
X5881D01*
X7759D02*
X8996D01*
X11789D02*
X12177D01*
X5439Y111013D02*
X5850D01*
X7824D02*
X9052D01*
X11822D02*
X12201D01*
X5428Y111107D02*
X5828D01*
X7885D02*
X9106D01*
X11848D02*
X12228D01*
X5419Y111200D02*
X5813D01*
X7941D02*
X9161D01*
X11871D02*
X12249D01*
X5414Y111294D02*
X5801D01*
X7998D02*
X9214D01*
X11891D02*
X12264D01*
X5409Y111388D02*
X5797D01*
X8056D02*
X9267D01*
X11904D02*
X12276D01*
X5413Y111481D02*
X5800D01*
X8111D02*
X9319D01*
X11912D02*
X12287D01*
X5419Y111575D02*
X5808D01*
X8164D02*
X9370D01*
X11918D02*
X12295D01*
X5427Y111669D02*
X5819D01*
X8217D02*
X9423D01*
X11922D02*
X12299D01*
X5441Y111763D02*
X5836D01*
X8269D02*
X9475D01*
X11919D02*
X12299D01*
X5458Y111856D02*
X5860D01*
X8319D02*
X9530D01*
X11912D02*
X12294D01*
X5478Y111950D02*
X5888D01*
X8369D02*
X9585D01*
X11901D02*
X12290D01*
X5503Y112044D02*
X5921D01*
X8420D02*
X9643D01*
X11886D02*
X12283D01*
X5530Y112137D02*
X5962D01*
X8470D02*
X9697D01*
X11863D02*
X12273D01*
X5558Y112231D02*
X6004D01*
X8522D02*
X9754D01*
X11833D02*
X12261D01*
X5589Y112325D02*
X6056D01*
X8575D02*
X9815D01*
X11799D02*
X12241D01*
X5627Y112419D02*
X6118D01*
X8630D02*
X9880D01*
X11752D02*
X12220D01*
X5668Y112512D02*
X6184D01*
X8685D02*
X9954D01*
X11688D02*
X12192D01*
X5705Y112606D02*
X6258D01*
X8739D02*
X10037D01*
X11617D02*
X12162D01*
X5739Y112700D02*
X6351D01*
X8795D02*
X10138D01*
X11528D02*
X12123D01*
X5770Y112793D02*
X6463D01*
X8852D02*
X10268D01*
X11411D02*
X12081D01*
X5785Y112887D02*
X6593D01*
X8913D02*
X10441D01*
X11258D02*
X12031D01*
X5776Y112981D02*
X6761D01*
X8976D02*
X11976D01*
X5731Y113074D02*
X6986D01*
X9041D02*
X11911D01*
X5614Y113168D02*
X7333D01*
X9115D02*
X11837D01*
X5409Y113262D02*
X7686D01*
X9196D02*
X11755D01*
X5409Y113356D02*
X7686D01*
X9289D02*
X11663D01*
X9393Y113449D02*
X11558D01*
X9520Y113543D02*
X11436D01*
X9673Y113637D02*
X11289D01*
X9869Y113730D02*
X11086D01*
X10216Y113824D02*
X10717D01*
X13881Y114293D02*
X14291D01*
X13881Y114386D02*
X14291D01*
X13881Y114480D02*
X14291D01*
X13881Y114574D02*
X14291D01*
X13881Y114667D02*
X14291D01*
X13881Y114761D02*
X14291D01*
X13881Y114855D02*
X14291D01*
X13881Y114948D02*
X14291D01*
X13881Y115042D02*
X14291D01*
X13881Y115136D02*
X14291D01*
X13881Y115230D02*
X14291D01*
X13881Y115323D02*
X14291D01*
X13881Y115417D02*
X14291D01*
X13881Y115511D02*
X14291D01*
X13881Y115604D02*
X14291D01*
X13881Y115698D02*
X14291D01*
X13881Y115792D02*
X14291D01*
X13881Y115885D02*
X14291D01*
X13881Y115979D02*
X14291D01*
X13881Y116073D02*
X14291D01*
X13881Y116167D02*
X14291D01*
X13881Y116260D02*
X14291D01*
X13881Y116354D02*
X14291D01*
X13881Y116448D02*
X14291D01*
X13881Y116541D02*
X14291D01*
X13881Y116635D02*
X14291D01*
X13881Y116729D02*
X14291D01*
X13881Y116822D02*
X14291D01*
X13881Y116916D02*
X14291D01*
X13881Y117010D02*
X14291D01*
X13881Y117104D02*
X14291D01*
X13881Y117197D02*
X14291D01*
X13881Y117291D02*
X14291D01*
X13881Y117385D02*
X14291D01*
X13881Y117478D02*
X14291D01*
X13881Y117572D02*
X14291D01*
X13881Y117666D02*
X14291D01*
X13881Y117759D02*
X14291D01*
X13881Y117853D02*
X14291D01*
X13881Y117947D02*
X14291D01*
X13881Y118041D02*
X14291D01*
X13881Y118134D02*
X14291D01*
X13881Y118228D02*
X14291D01*
X13881Y118322D02*
X14291D01*
X13881Y118415D02*
X14291D01*
X13881Y118509D02*
X14291D01*
X13881Y118603D02*
X14291D01*
X13881Y118696D02*
X14291D01*
X13881Y118790D02*
X14291D01*
X13881Y118884D02*
X14291D01*
X13881Y118978D02*
X14291D01*
X13881Y119071D02*
X14291D01*
X13881Y119165D02*
X14291D01*
X13881Y119259D02*
X14291D01*
X13881Y119352D02*
X14291D01*
X5560Y119446D02*
X5738D01*
X5560Y119540D02*
X5749D01*
X5560Y119633D02*
X5763D01*
X5560Y119727D02*
X5781D01*
X5560Y119821D02*
X5807D01*
X5560Y119915D02*
X5844D01*
X5560Y120008D02*
X5898D01*
X5560Y120102D02*
X5965D01*
X5560Y120196D02*
X6058D01*
X5560Y120289D02*
X6206D01*
X5560Y120383D02*
X6392D01*
X5560Y120477D02*
X6604D01*
X5560Y120570D02*
X6820D01*
X5560Y120664D02*
X7035D01*
X5560Y120758D02*
X7251D01*
X5560Y120852D02*
X7466D01*
X5560Y120945D02*
X7682D01*
X5560Y121039D02*
X7897D01*
X5560Y121133D02*
X8113D01*
X5560Y121226D02*
X8328D01*
X5560Y121320D02*
X8544D01*
X5560Y121414D02*
X6080D01*
X6325D02*
X8759D01*
X5560Y121507D02*
X5923D01*
X6643D02*
X8975D01*
X5560Y121601D02*
X5852D01*
X6888D02*
X9191D01*
X5560Y121695D02*
X5814D01*
X7104D02*
X9406D01*
X5560Y121789D02*
X5789D01*
X7319D02*
X9622D01*
X5560Y121882D02*
X5771D01*
X7535D02*
X9837D01*
X5560Y121976D02*
X5755D01*
X7750D02*
X10053D01*
X5560Y122070D02*
X5743D01*
X7966D02*
X10269D01*
X8182Y122163D02*
X10484D01*
X8398Y122257D02*
X10700D01*
X8613Y122351D02*
X10915D01*
X8829Y122444D02*
X11131D01*
X9044Y122538D02*
X11346D01*
X9260Y122632D02*
X11562D01*
X9476Y122726D02*
X11777D01*
X9691Y122819D02*
X11993D01*
X9907Y122913D02*
X12208D01*
X10123Y123007D02*
X12299D01*
X10339Y123100D02*
X12299D01*
X10554Y123194D02*
X12141D01*
X10770Y123288D02*
X11912D01*
X10607Y123381D02*
X11682D01*
X10376Y123475D02*
X11452D01*
X10145Y123569D02*
X11222D01*
X9915Y123663D02*
X10993D01*
X9684Y123756D02*
X10763D01*
X9454Y123850D02*
X10533D01*
X9223Y123944D02*
X10304D01*
X8992Y124037D02*
X10074D01*
X8761Y124131D02*
X9844D01*
X8531Y124225D02*
X9614D01*
X8300Y124319D02*
X9384D01*
X5560Y124412D02*
X5744D01*
X8070D02*
X9155D01*
X5560Y124506D02*
X5759D01*
X7839D02*
X8925D01*
X5560Y124600D02*
X5780D01*
X7608D02*
X8695D01*
X5560Y124693D02*
X5805D01*
X7378D02*
X8465D01*
X5560Y124787D02*
X5841D01*
X7147D02*
X8236D01*
X5560Y124881D02*
X5892D01*
X6915D02*
X8006D01*
X5560Y124974D02*
X5972D01*
X6669D02*
X7776D01*
X5560Y125068D02*
X6124D01*
X6332D02*
X7546D01*
X5560Y125162D02*
X7317D01*
X5560Y125256D02*
X7087D01*
X5560Y125349D02*
X6857D01*
X5560Y125443D02*
X6634D01*
X5560Y125537D02*
X6437D01*
X5560Y125630D02*
X6264D01*
X5560Y125724D02*
X6133D01*
X5560Y125818D02*
X6016D01*
X5560Y125911D02*
X5937D01*
X5560Y126005D02*
X5874D01*
X5560Y126099D02*
X5825D01*
X5560Y126193D02*
X5792D01*
X5560Y126286D02*
X5765D01*
X5560Y126380D02*
X5744D01*
X8082Y126942D02*
X9650D01*
X7571Y127036D02*
X10154D01*
X7231Y127130D02*
X10488D01*
X6975Y127223D02*
X10739D01*
X6768Y127317D02*
X10950D01*
X6580Y127411D02*
X11130D01*
X6428Y127504D02*
X11287D01*
X6289Y127598D02*
X11428D01*
X6167Y127692D02*
X11559D01*
X6057Y127785D02*
X11670D01*
X5957Y127879D02*
X8148D01*
X9803D02*
X11768D01*
X5871Y127973D02*
X7309D01*
X10511D02*
X11857D01*
X5795Y128067D02*
X6843D01*
X10882D02*
X11935D01*
X5727Y128160D02*
X6542D01*
X11178D02*
X12003D01*
X5664Y128254D02*
X6338D01*
X11400D02*
X12065D01*
X5608Y128348D02*
X6175D01*
X11570D02*
X12114D01*
X5563Y128441D02*
X6052D01*
X11691D02*
X12157D01*
X5524Y128535D02*
X5955D01*
X11785D02*
X12190D01*
X5491Y128629D02*
X5883D01*
X11851D02*
X12217D01*
X5463Y128722D02*
X5824D01*
X11899D02*
X12237D01*
X5446Y128816D02*
X5786D01*
X11930D02*
X12250D01*
X5433Y128910D02*
X5762D01*
X11950D02*
X12257D01*
X5427Y129004D02*
X5750D01*
X11954D02*
X12261D01*
X5428Y129097D02*
X5753D01*
X11945D02*
X12256D01*
X5434Y129191D02*
X5763D01*
X11926D02*
X12245D01*
X5446Y129285D02*
X5788D01*
X11891D02*
X12229D01*
X5466Y129378D02*
X5826D01*
X11840D02*
X12205D01*
X5493Y129472D02*
X5879D01*
X11783D02*
X12171D01*
X5525Y129566D02*
X5957D01*
X11704D02*
X12135D01*
X5568Y129659D02*
X6059D01*
X11611D02*
X12091D01*
X5615Y129753D02*
X6199D01*
X11483D02*
X12043D01*
X5667Y129847D02*
X6378D01*
X11314D02*
X11990D01*
X5737Y129941D02*
X6616D01*
X11061D02*
X11928D01*
X5813Y130034D02*
X6934D01*
X10691D02*
X11859D01*
X5897Y130128D02*
X7436D01*
X10109D02*
X11782D01*
X5988Y130222D02*
X11693D01*
X6091Y130315D02*
X11595D01*
X6204Y130409D02*
X11480D01*
X6333Y130503D02*
X11349D01*
X6476Y130596D02*
X11200D01*
X6640Y130690D02*
X11030D01*
X6829Y130784D02*
X10835D01*
X7059Y130878D02*
X10601D01*
X7341Y130971D02*
X10318D01*
X7754Y131065D02*
X9897D01*
X6168Y132752D02*
X6355D01*
X6122Y132845D02*
X6315D01*
X11968D02*
X12148D01*
X6076Y132939D02*
X6278D01*
X11963D02*
X12148D01*
X6031Y133033D02*
X6243D01*
X11958D02*
X12148D01*
X5985Y133126D02*
X6221D01*
X11950D02*
X12148D01*
X5940Y133220D02*
X6209D01*
X11936D02*
X12148D01*
X5894Y133314D02*
X6213D01*
X11919D02*
X12148D01*
X5848Y133407D02*
X6245D01*
X11882D02*
X12148D01*
X5803Y133501D02*
X6313D01*
X11815D02*
X12148D01*
X5757Y133595D02*
X6543D01*
X11658D02*
X12148D01*
X5712Y133689D02*
X12148D01*
X5666Y133782D02*
X12148D01*
X5620Y133876D02*
X12148D01*
X5575Y133970D02*
X12148D01*
X5529Y134063D02*
X12148D01*
X5483Y134157D02*
X12148D01*
X5438Y134251D02*
X12148D01*
X5425Y134344D02*
X12148D01*
X11111Y134438D02*
X12148D01*
X11767Y134532D02*
X12148D01*
X11857Y134626D02*
X12148D01*
X11906Y134719D02*
X12148D01*
X11930Y134813D02*
X12148D01*
X11945Y134907D02*
X12148D01*
X11956Y135000D02*
X12148D01*
X11961Y135094D02*
X12148D01*
X11967Y135188D02*
X12148D01*
D02*
D16*
X186876Y191463D02*
X160860D01*
X159411Y190015D01*
Y184967D01*
X242935Y188802D02*
X197974D01*
X195313Y191463D01*
X243057Y200912D02*
X380329D01*
Y200452D01*
X520730D01*
X245167Y183054D02*
Y174597D01*
X243388Y172818D01*
X226490D01*
X500463Y287022D02*
X509841D01*
X511541Y285322D01*
Y261550D01*
X513423Y259668D01*
X527659D01*
X504053Y221180D02*
Y227121D01*
X505907Y228975D01*
Y235578D01*
X508344Y238015D01*
X527659D01*
X516801Y268148D02*
X526293D01*
X527750Y266692D01*
Y263696D01*
X527659Y263605D01*
X521073Y206522D02*
X534289D01*
X535486Y207719D01*
Y226251D01*
X523439Y294109D02*
X527785D01*
X528565Y293330D01*
Y280278D01*
X529581Y279263D01*
X536250D01*
X537451Y278062D01*
Y277467D01*
X537455Y277373D01*
Y271432D01*
X527659Y234078D02*
Y222971D01*
X525888Y221200D01*
X517841D01*
X516943Y220302D01*
Y202550D01*
X516852D01*
Y203483D01*
X527659Y236046D02*
X510337D01*
X508624Y234333D01*
Y219479D01*
X507278Y218133D01*
X493896D01*
X527659Y239983D02*
X497364D01*
X492522Y235141D01*
X488581D01*
X527659Y241952D02*
X494557D01*
X493069Y240463D01*
X479604D01*
X527659Y251794D02*
X508628D01*
X507002Y250168D01*
X527659Y253763D02*
X501104D01*
X499203Y251861D01*
Y246629D01*
X527659Y255731D02*
X500557D01*
X499203Y257085D01*
Y266629D01*
X527659Y257700D02*
X511215D01*
X509195Y259719D01*
Y275896D01*
X508069Y277022D01*
X500463D01*
X535486Y242267D02*
Y241164D01*
X534344Y240022D01*
X527856D01*
X527817Y239983D01*
X527659D01*
X535486Y262363D02*
Y242267D01*
Y271432D02*
Y262363D01*
Y271432D02*
X526222D01*
X523148Y274507D01*
Y282944D01*
X523439Y283235D01*
Y285109D01*
X537455Y226251D02*
Y198274D01*
X535033Y195853D01*
X532526D01*
X530333Y193660D01*
Y182030D01*
X531762Y180601D01*
X535360D01*
X535683Y180924D01*
X537907Y241133D02*
X537561Y241479D01*
X536274D01*
X535486Y242267D01*
X539423Y226251D02*
Y239617D01*
X537907Y241133D01*
X539423Y226251D02*
Y193664D01*
X535683Y189924D01*
X541392Y226251D02*
Y97109D01*
X544537Y93963D01*
X600006D01*
X601081Y95038D01*
Y101168D01*
X602789Y102877D01*
X605974D01*
X607888Y104790D01*
Y108644D01*
X545329Y226251D02*
Y109684D01*
X546856Y108156D01*
Y105089D01*
X547297Y226251D02*
Y206680D01*
X547293Y206676D01*
Y111601D01*
X550073Y108822D01*
X551360D01*
X547738Y291302D02*
Y289747D01*
X543360Y285369D01*
Y271432D01*
X549266Y226251D02*
Y206877D01*
X549270Y206873D01*
Y127641D01*
X551852Y125058D01*
X606148D01*
X607888Y123318D01*
Y118487D01*
X549317Y283207D02*
X545329Y279219D01*
Y271432D01*
X554876Y201042D02*
X551959D01*
X551289Y201711D01*
Y226251D01*
X551234D01*
X554955Y205928D02*
X553234D01*
X553203Y205959D01*
Y226251D01*
X556793Y256515D02*
X557085D01*
X560238Y259668D01*
X572841D01*
X557140Y226251D02*
X557211D01*
Y211200D01*
X561463Y206948D01*
Y206944D01*
X563203Y205204D01*
Y132026D01*
X560663Y129487D01*
X559108Y226251D02*
Y212373D01*
X563128Y208353D01*
Y208349D01*
X565482Y205995D01*
Y128940D01*
X565644D01*
X559659Y197940D02*
Y205912D01*
X555171Y210400D01*
Y226251D01*
X560569Y282900D02*
X553919D01*
X547297Y276278D01*
Y271432D01*
X561077Y226251D02*
Y213239D01*
X569309Y205007D01*
Y191361D01*
X571652Y189019D01*
Y190259D01*
X571490D01*
X563045Y226251D02*
X563077D01*
Y214294D01*
X571884Y205487D01*
Y197735D01*
X573439Y196180D01*
X582281D01*
X583124Y195337D01*
Y191019D01*
X582604Y190499D01*
X583124Y191030D01*
Y190259D01*
X581333D01*
X565014Y226251D02*
Y238121D01*
X563096Y240038D01*
X539002D01*
X537907Y241133D01*
X565014Y271432D02*
Y295499D01*
X561644Y298869D01*
X503805D01*
X502478Y300196D01*
Y304735D01*
X571490Y181259D02*
X572333D01*
X581333Y190259D01*
X572841Y236046D02*
X610888D01*
X612226Y234707D01*
Y229432D01*
X572841Y241952D02*
X572931D01*
X572986Y242007D01*
X614234D01*
X615439Y240802D01*
Y202286D01*
X613754Y200601D01*
Y185625D01*
X612317Y184188D01*
Y174011D01*
X611085D01*
X572841Y247857D02*
X618238D01*
X619569Y246526D01*
Y200078D01*
X618018Y198526D01*
Y180723D01*
X617970D01*
X572841Y249826D02*
Y249908D01*
X620667D01*
X622018Y248558D01*
Y199211D01*
X620852Y198046D01*
Y176621D01*
X618309Y174078D01*
X618301D01*
Y164790D01*
X572841Y253763D02*
X626112D01*
X627793Y252081D01*
Y224731D01*
X572841Y255731D02*
X589482D01*
X591766Y258015D01*
Y261290D01*
X593470Y262995D01*
X609691D01*
X612518Y263046D01*
X616085D01*
X617415Y261715D01*
X619301D01*
X572841Y257700D02*
X586573D01*
X589061Y260188D01*
Y266845D01*
X591805Y269589D01*
X619301D01*
X572841Y261637D02*
X583246D01*
X585321Y263711D01*
Y270188D01*
X588778Y273644D01*
X588852D01*
X572841Y263605D02*
X536729D01*
X535486Y262363D01*
X573085Y287215D02*
Y263849D01*
X572841Y263605D01*
X581333Y181259D02*
X584797D01*
X586486Y182948D01*
Y196625D01*
X585108Y198003D01*
X575317D01*
X574026Y199294D01*
Y206200D01*
X564982Y215243D01*
Y226251D01*
X565014D01*
X595274Y77089D02*
X595065D01*
Y82554D01*
X593691Y83928D01*
X566781D01*
Y83601D01*
X597888Y108644D02*
Y98164D01*
X596313Y96589D01*
X545321D01*
X543360Y98550D01*
Y226251D01*
X601848Y151644D02*
X600230D01*
X598230Y153644D01*
Y175601D01*
X599388Y176759D01*
X608742D01*
X610329Y178345D01*
Y185204D01*
X611900Y186774D01*
Y202062D01*
X613407Y203570D01*
Y225723D01*
X612632Y226499D01*
X609459D01*
X608746Y227211D01*
Y232389D01*
X607057Y234078D01*
X572841D01*
X603018Y170904D02*
Y170637D01*
X613254D01*
X614230Y171613D01*
Y174204D01*
X614234Y174207D01*
Y183097D01*
X615699Y184562D01*
Y199333D01*
X617376Y201011D01*
Y242656D01*
X616112Y243920D01*
X572841D01*
X617888Y108644D02*
Y101873D01*
X616490Y100475D01*
X605856D01*
X603770Y98389D01*
Y91959D01*
X602372Y90562D01*
X551781D01*
X624470Y196207D02*
Y249881D01*
X622557Y251794D01*
X572841D01*
X626179Y180676D02*
X626470D01*
Y168211D01*
X623301Y165042D01*
Y164790D01*
X627888Y108644D02*
Y99499D01*
X626100Y97711D01*
X607541D01*
X606565Y96735D01*
Y90790D01*
X602715Y86940D01*
X546864D01*
Y88967D01*
D02*
D18*
X159411Y184967D03*
X186876Y191463D03*
X195313D03*
X228242Y76144D03*
X237368Y115672D03*
X242935Y188802D03*
X243057Y200912D03*
X245167Y183054D03*
X251022Y150790D03*
X266474Y157857D03*
X274537Y136400D03*
X276762Y185963D03*
X288778Y174011D03*
X288829Y138503D03*
X321707Y153396D03*
X337341Y161192D03*
X345577Y189050D03*
X360400Y176759D03*
X376337Y175302D03*
X396313Y154707D03*
X410281Y161526D03*
X414927Y137078D03*
X416679Y189176D03*
X431856Y175558D03*
X450526Y171605D03*
X478238Y157747D03*
X493896Y218133D03*
X495557Y135231D03*
X499384Y173967D03*
Y185696D03*
X504053Y221180D03*
X507002Y250168D03*
X516852Y203483D03*
X520730Y200452D03*
X521073Y206522D03*
X527006Y180932D03*
X546856Y105089D03*
X546864Y88967D03*
X549317Y283207D03*
X551360Y108822D03*
X551781Y90562D03*
X554876Y201042D03*
X554955Y205928D03*
X556793Y256515D03*
X559659Y197940D03*
X560569Y282900D03*
X560663Y129487D03*
X565644Y128940D03*
X566781Y83601D03*
X569907Y162944D03*
X571372Y308180D03*
X588852Y273644D03*
X591656Y162944D03*
X601490D03*
X601848Y151644D03*
X603018Y170904D03*
X611085Y174011D03*
X612226Y229432D03*
X617970Y180723D03*
X624470Y196207D03*
X626179Y180676D03*
X627793Y224731D03*
D02*
D19*
X204904Y183471D02*
X195467D01*
X191093Y187845D01*
Y245054D01*
X213904Y183471D02*
Y181593D01*
X222565D01*
X225553Y178605D01*
Y171459D01*
X226490D01*
Y172818D01*
X251022Y150790D02*
X259159D01*
X261746Y153377D01*
X252219Y105263D02*
X267171D01*
X268191Y106282D01*
X266474Y157857D02*
Y139066D01*
X269140Y136400D01*
X274537D01*
X276762Y185963D02*
X286136D01*
X287758Y184341D01*
Y175030D01*
X288778Y174011D01*
X277191Y106282D02*
X291199D01*
X292219Y105263D01*
X281522Y179290D02*
Y168318D01*
X281746Y168093D01*
X287970Y57322D02*
X258478D01*
X258065Y56908D01*
X321140Y277133D02*
X326671D01*
X334329Y269475D01*
X401884D01*
X321707Y153396D02*
X330069D01*
X332612Y155940D01*
X325447Y110219D02*
X338663D01*
X339451Y111007D01*
X337341Y161192D02*
X370518D01*
X373337Y164011D01*
Y173499D01*
X375140Y175302D01*
X376337D01*
X345577Y189050D02*
X358470D01*
X359073Y188448D01*
Y178085D01*
X360400Y176759D01*
X357329Y61396D02*
X324935D01*
X324801Y61263D01*
X365447Y110219D02*
X349238D01*
X348451Y111007D01*
X367644Y238361D02*
X373793D01*
X375045Y239613D01*
Y261660D01*
X377388Y264003D01*
X412474D01*
X414278Y265806D01*
Y297609D01*
X415663Y298995D01*
X367644Y238361D02*
X350321D01*
X394242Y110302D02*
X399132D01*
Y110310D01*
X407620D01*
Y111400D01*
X396313Y154707D02*
Y153452D01*
X403478D01*
X406281Y67664D02*
X385183D01*
X381435Y71412D01*
Y79085D01*
X381750Y79400D01*
X410281Y161526D02*
Y138259D01*
X411463Y137078D01*
X414927D01*
X415281Y67664D02*
X446262D01*
X448758Y70160D01*
X416144Y235164D02*
X442797D01*
X445329Y237696D01*
Y310629D01*
X448659Y313959D01*
X416679Y189176D02*
X428596D01*
X429931Y187841D01*
Y177483D01*
X431856Y175558D01*
X423478Y170062D02*
X448982D01*
X450526Y171605D01*
X427470Y286731D02*
Y247156D01*
X422805Y242491D01*
X390026D01*
X388427Y240893D01*
Y232633D01*
X428250Y62333D02*
X398033D01*
X395998Y60298D01*
X434242Y110302D02*
Y111400D01*
X416620D01*
X477415Y109432D02*
X490333D01*
X490959Y108806D01*
X478238Y157747D02*
Y139093D01*
X482100Y135231D01*
X495557D01*
X489738Y70940D02*
X457726D01*
X455726Y72940D01*
Y80534D01*
X455644Y80617D01*
Y82652D01*
X498738Y70940D02*
X507263D01*
X508933Y72610D01*
X524643D01*
X525014Y72239D01*
X499203Y246629D02*
X489734D01*
X488510Y245404D01*
X499203Y266629D02*
X488837D01*
X488596Y266389D01*
X499384Y185696D02*
Y173967D01*
X500463Y277022D02*
X490400D01*
X488510Y275133D01*
X500463Y287022D02*
X491825D01*
X487837Y291011D01*
X510679Y65900D02*
X481187D01*
X478813Y63526D01*
X517415Y109432D02*
X500585D01*
X499959Y108806D01*
X523439Y294109D02*
X509234D01*
X507817Y295526D01*
X494226D01*
X492226Y297526D01*
X527006Y180932D02*
Y169613D01*
X528923Y167696D01*
X535683Y180924D02*
Y154995D01*
X535179Y154491D01*
X564360Y75794D02*
X555813D01*
X553380Y78227D01*
X571490Y181259D02*
X573919D01*
Y144956D01*
X574522Y144353D01*
X576230D01*
X576234Y144357D01*
X579506D01*
X571801Y133554D02*
Y134408D01*
X569246Y136963D01*
Y162944D01*
X569907D01*
X573085Y296215D02*
Y306467D01*
X571372Y308180D01*
X601490Y162944D02*
X606455D01*
X608301Y164790D01*
X601565Y197790D02*
X593305D01*
X590372Y194857D01*
Y164227D01*
X591656Y162944D01*
X608301Y143436D02*
X623301D01*
X613301D02*
Y164790D01*
X637132Y76404D02*
X630309D01*
X629400Y75495D01*
Y74456D01*
X628459Y73515D01*
X597104D01*
X595274Y75345D01*
Y77089D01*
X660705Y219607D02*
X660415Y219318D01*
X641683D01*
X640939Y220062D01*
X663443Y257333D02*
Y222345D01*
X660705Y219607D01*
X672108Y266613D02*
X672443Y266278D01*
Y257333D01*
X674474Y153912D02*
X642904D01*
X640545Y156270D01*
Y162975D01*
X674474Y153912D02*
X675620D01*
X675648Y153940D01*
X689077D01*
X690545Y155408D01*
Y162975D01*
X679077Y135853D02*
Y149310D01*
X674474Y153912D01*
X688077Y135853D02*
X703368D01*
X690939Y220062D02*
X661159D01*
X660705Y219607D01*
D02*
D70*
X82140Y161400D03*
X92376Y220062D03*
X114297Y291263D03*
X125502Y253141D03*
X142237Y133054D03*
X172502Y288400D03*
X191093Y245054D03*
X248829Y225900D03*
X258065Y56908D03*
X279514Y205251D03*
X287970Y57322D03*
X292860Y195566D03*
X303939Y67597D03*
X304852Y276034D03*
X310904Y80239D03*
Y117830D03*
X313278Y205251D03*
X321140Y277133D03*
X324801Y61263D03*
X350321Y238361D03*
X350750Y205251D03*
X356152Y138971D03*
X357329Y61396D03*
X364045Y195566D03*
X367644Y238361D03*
X375179Y68282D03*
X381435Y120026D03*
X381750Y79400D03*
X382431Y205341D03*
X395998Y60298D03*
X401884Y269475D03*
X416144Y235164D03*
X423478Y205341D03*
X427470Y286731D03*
X428250Y62333D03*
X433262Y137487D03*
X437333Y195566D03*
X448758Y70160D03*
X452569Y313959D03*
X455644Y82652D03*
X456030Y123900D03*
X472927Y152641D03*
X477900Y205093D03*
X478813Y63526D03*
X492545Y196420D03*
X510581Y137641D03*
X510679Y65900D03*
X516801Y268148D03*
X525014Y72239D03*
X531797Y144845D03*
X535179Y154491D03*
X571801Y133554D03*
X579506Y144357D03*
X580455Y304263D03*
X601565Y197790D03*
D02*
D71*
X37502Y65223D02*
Y100231D01*
X43722Y106452D01*
X55931D01*
X56549Y107070D01*
X49632Y42491D02*
Y53093D01*
X37502Y65223D01*
X56549Y92070D02*
X60447D01*
X68754Y100377D01*
Y212188D01*
X60880Y220062D01*
X53439D01*
X53400Y220022D01*
X82140Y161400D02*
X135780D01*
X142237Y154943D01*
Y133054D01*
X92376Y220062D02*
X53439D01*
X53400Y220022D01*
X114297Y291263D02*
Y311554D01*
X116703Y313959D01*
X177297D01*
X125502Y253141D02*
X161959D01*
X125502D02*
X194514D01*
X177297Y313959D02*
X448659D01*
X214817Y275967D02*
X199207D01*
X194711Y271471D01*
Y253337D01*
X194514Y253141D01*
X248829Y225900D02*
X253781D01*
X252837Y179223D02*
Y169184D01*
X251746Y168093D01*
X253781Y225900D02*
X260199D01*
X264171Y221928D01*
Y208983D01*
X267904Y205251D01*
X279514D01*
X261837Y179223D02*
Y168184D01*
X261746Y168093D01*
X267809Y195566D02*
X243065D01*
X242990Y195641D01*
X211675D01*
X211640Y195605D01*
X206789D01*
X199967Y202428D01*
Y250660D01*
X197486Y253141D01*
X194514D01*
X272522Y179290D02*
X269919D01*
X268833Y180377D01*
Y194542D01*
X267809Y195566D01*
X272522Y179290D02*
Y168869D01*
X271746Y168093D01*
X279514Y205251D02*
X313278D01*
X292860Y195566D02*
X337687D01*
X292860D02*
X272522D01*
X267809D01*
X313278Y205251D02*
X350750D01*
X322581Y180747D02*
Y167983D01*
X322612Y167952D01*
X331581Y180747D02*
Y168983D01*
X332612Y167952D01*
X342644Y180684D02*
Y181566D01*
X338348Y185861D01*
Y194904D01*
X337687Y195566D01*
X342644Y180684D02*
Y167983D01*
X342612Y167952D01*
X350750Y205251D02*
Y205341D01*
X382431D01*
X351644Y180684D02*
Y168920D01*
X352612Y167952D01*
X364045Y195566D02*
X409258D01*
X364045D02*
X341203D01*
X337687D01*
X382431Y205341D02*
X423478D01*
X393478Y170062D02*
Y180231D01*
X392663Y181046D01*
X403478Y170062D02*
Y179231D01*
X401663Y181046D01*
X412325Y181314D02*
Y183641D01*
X409864Y186101D01*
Y194959D01*
X409258Y195566D01*
X413478Y170062D02*
Y180160D01*
X412325Y181314D01*
X423478Y170062D02*
Y179160D01*
X421325Y181314D01*
X423478Y205341D02*
Y205093D01*
X477900D01*
X437333Y195566D02*
X481726D01*
X483545Y193747D01*
Y186204D01*
X437333Y195566D02*
X413951D01*
X409258D01*
X448659Y313959D02*
X452569D01*
X518211D01*
X462927Y169826D02*
Y185270D01*
X463073Y185416D01*
X472927Y169826D02*
Y184562D01*
X472073Y185416D01*
X477935Y292007D02*
Y240463D01*
X479604D01*
Y206798D01*
X477900Y205093D01*
X482927Y169826D02*
X483722Y169030D01*
Y157991D01*
X486900Y154814D01*
X522317D01*
X524738Y152393D01*
Y148408D01*
X528301Y144845D01*
X531797D01*
X482927Y169826D02*
Y185585D01*
X483545Y186204D01*
X492545D02*
Y196420D01*
X492927Y169826D02*
Y167696D01*
X528923D01*
X492927Y169826D02*
Y185822D01*
X492545Y186204D01*
X512478Y304735D02*
X512774D01*
Y311873D01*
X514860Y313959D01*
X518211D01*
X580569D01*
X528923Y167696D02*
X532435Y164184D01*
Y157235D01*
X535179Y154491D01*
X571801Y133554D02*
X640344D01*
X650108Y123790D01*
Y105971D01*
X579506Y144357D02*
X621742D01*
X622663Y143436D01*
X623301D01*
X580569Y313959D02*
X648679D01*
X658278Y304361D01*
Y273168D01*
X664833Y266613D01*
X672108D01*
X650108Y105971D02*
Y114109D01*
X645411Y118806D01*
X638207D01*
X637888Y118487D01*
X672108Y266613D02*
X701096D01*
X703368Y264341D01*
Y135853D01*
X676726Y101046D02*
X655033D01*
X650108Y105971D01*
X703368Y135853D02*
Y73684D01*
X696175Y66491D01*
X565726D01*
X565423Y66794D01*
X564360D01*
D02*
D20*
X161959Y253141D02*
X158589D01*
X154061Y248613D01*
Y94621D01*
X156821Y91861D01*
X209384D01*
X211742Y94219D01*
Y106290D01*
X172502Y288400D02*
Y309164D01*
X177297Y313959D01*
X237368Y115672D02*
Y164345D01*
X241900Y168877D01*
X250963D01*
X251746Y168093D01*
X261746D02*
Y153377D01*
X267959Y63704D02*
X230384D01*
X228781Y65306D01*
Y76144D01*
X228242D01*
X276959Y63704D02*
X300045D01*
X303939Y67597D01*
X288829Y138503D02*
X292187D01*
X294073Y136617D01*
Y117286D01*
X303939Y107420D01*
Y67597D01*
X288829Y138503D02*
Y136093D01*
X284632Y131896D01*
X264498D01*
X261699Y134696D01*
Y142022D01*
X261726Y143133D01*
X261746Y143152D01*
Y153377D01*
X295663Y298995D02*
Y285211D01*
X292179Y281727D01*
X237522D01*
X233439Y285810D01*
X214817D01*
X303939Y67597D02*
Y50089D01*
X300967Y47117D01*
X253325D01*
X250510Y44302D01*
Y15735D01*
X250974Y15270D01*
Y14944D01*
X304852Y276034D02*
Y229936D01*
X300955Y226038D01*
X258719D01*
X258581Y225900D01*
X253781D01*
X322612Y167952D02*
Y169908D01*
X312167D01*
X309612Y167353D01*
Y118070D01*
X310904Y117830D01*
X332612Y155940D02*
Y141144D01*
X334785Y138971D01*
X356152D01*
X332612Y167952D02*
Y155940D01*
X337482Y68093D02*
X314065D01*
X310923Y71235D01*
Y79436D01*
X310904Y79456D01*
Y80239D01*
X346482Y68093D02*
X374990D01*
X375179Y68282D01*
X356152Y138971D02*
X364687D01*
X367348Y136310D01*
Y119326D01*
X375179Y111495D01*
Y68282D01*
Y53826D01*
X372671Y51318D01*
X321545D01*
X318246Y48019D01*
Y14944D01*
X384270Y14865D02*
X383632D01*
X383644Y19133D01*
Y48345D01*
X387470Y52172D01*
X444372D01*
X448758Y56558D01*
Y70160D01*
X388427Y232633D02*
Y241833D01*
X387120Y243141D01*
X393478Y170062D02*
X383171D01*
X381435Y168326D01*
Y120026D01*
X403478Y170062D02*
Y153452D01*
X423478Y205341D02*
X392931D01*
X388427Y209845D01*
Y232633D01*
X433262Y137487D02*
Y135294D01*
X428900Y130932D01*
X407451D01*
X403451Y134932D01*
Y144019D01*
X403478Y144046D01*
Y153452D01*
X433262Y137487D02*
X438116D01*
X441557Y134046D01*
Y120105D01*
X448758Y112904D01*
Y70160D01*
X462927Y169826D02*
X459656D01*
X455990Y166160D01*
Y128763D01*
X456030Y128723D01*
Y123900D01*
X472927Y152641D02*
Y169826D01*
X492226Y297526D02*
X492478D01*
Y304735D01*
X492226Y297526D02*
Y297054D01*
X482982D01*
X477935Y292007D01*
X510581Y137641D02*
Y130869D01*
X507982Y128270D01*
X475400D01*
X472927Y130743D01*
Y152641D01*
X525014Y72239D02*
Y118660D01*
X525006Y118668D01*
Y134038D01*
X521404Y137641D01*
X510581D01*
X525014Y72239D02*
Y44818D01*
X518656Y38459D01*
X453171D01*
X453167Y38463D01*
X451911D01*
X449856Y36408D01*
Y28637D01*
X449860Y28633D01*
Y14944D01*
X573085Y287215D02*
X579053D01*
X580455Y288617D01*
Y304263D01*
Y309113D01*
X580569D01*
Y313959D01*
D02*
D21*
X20329Y22818D03*
X20722Y297621D03*
X686707Y297896D03*
X687612Y24629D03*
D02*
D22*
X527659Y234078D03*
Y236046D03*
Y238015D03*
Y239983D03*
Y241952D03*
Y243920D03*
Y245889D03*
Y247857D03*
Y249826D03*
Y251794D03*
Y253763D03*
Y255731D03*
Y257700D03*
Y259668D03*
Y261637D03*
Y263605D03*
X572841Y234078D03*
Y236046D03*
Y238015D03*
Y239983D03*
Y241952D03*
Y243920D03*
Y245889D03*
Y247857D03*
Y249826D03*
Y251794D03*
Y253763D03*
Y255731D03*
Y257700D03*
Y259668D03*
Y261637D03*
Y263605D03*
D02*
D23*
X535486Y226251D03*
Y271432D03*
X537455Y226251D03*
Y271432D03*
X539423Y226251D03*
Y271432D03*
X541392Y226251D03*
Y271432D03*
X543360Y226251D03*
Y271432D03*
X545329Y226251D03*
Y271432D03*
X547297Y226251D03*
Y271432D03*
X549266Y226251D03*
Y271432D03*
X551234Y226251D03*
Y271432D03*
X553203Y226251D03*
Y271432D03*
X555171Y226251D03*
Y271432D03*
X557140Y226251D03*
Y271432D03*
X559108Y226251D03*
Y271432D03*
X561077Y226251D03*
Y271432D03*
X563045Y226251D03*
Y271432D03*
X565014Y226251D03*
Y271432D03*
D02*
D24*
X387120Y243141D03*
X467199D03*
X600994Y280613D03*
X647451D03*
D02*
D25*
X204904Y183471D03*
X213904D03*
X252837Y179223D03*
X261837D03*
X267959Y63704D03*
X268191Y106282D03*
X272522Y179290D03*
X276959Y63704D03*
X277191Y106282D03*
X281522Y179290D03*
X322581Y180747D03*
X331581D03*
X337482Y68093D03*
X339451Y111007D03*
X342644Y180684D03*
X346482Y68093D03*
X348451Y111007D03*
X351644Y180684D03*
X392663Y181046D03*
X401663D03*
X406281Y67664D03*
X407620Y111400D03*
X412325Y181314D03*
X415281Y67664D03*
X416620Y111400D03*
X421325Y181314D03*
X463073Y185416D03*
X472073D03*
X478837Y291011D03*
X479510Y245404D03*
Y275133D03*
X479581Y235141D03*
X479596Y266389D03*
X483545Y186204D03*
X487837Y291011D03*
X488510Y245404D03*
Y275133D03*
X488581Y235141D03*
X488596Y266389D03*
X489738Y70940D03*
X490959Y108806D03*
X492545Y186204D03*
X498738Y70940D03*
X499959Y108806D03*
X663443Y257333D03*
X672443D03*
X679077Y135853D03*
X688077D03*
D02*
D26*
X523439Y285109D03*
Y294109D03*
X535683Y180924D03*
Y189924D03*
X564360Y66794D03*
Y75794D03*
X571490Y181259D03*
Y190259D03*
X573085Y287215D03*
Y296215D03*
X581333Y181259D03*
Y190259D03*
X637132Y67404D03*
Y76404D03*
D02*
D27*
X53400Y220022D03*
Y235022D03*
X56549Y92070D03*
Y107070D03*
X252219Y105263D03*
X292219D03*
X325447Y110219D03*
X365447D03*
X394242Y110302D03*
X434242D03*
X477415Y109432D03*
X499203Y246629D03*
Y266629D03*
X517415Y109432D03*
D02*
D28*
X500463Y277022D03*
Y287022D03*
D02*
D29*
X608301Y143436D03*
Y164790D03*
X613301Y143436D03*
Y164790D03*
X618301Y143436D03*
Y164790D03*
X623301Y143436D03*
Y164790D03*
D02*
D72*
X251746Y168093D03*
X261746D03*
X271746D03*
X281746D03*
X322612Y167952D03*
X332612D03*
X342612D03*
X352612D03*
X393478Y170062D03*
X403478D03*
X413478D03*
X423478D03*
X462927Y169826D03*
X472927D03*
X482927D03*
X492927D03*
X676726Y81046D03*
Y91046D03*
Y101046D03*
Y111046D03*
D02*
D73*
X97392Y19274D03*
X117392D03*
X137392D03*
X168274Y13660D03*
X188274D03*
X208274D03*
X250974Y14944D03*
X270974D03*
X290974D03*
X318246D03*
X338246D03*
X358246D03*
X384270Y14865D03*
X404270D03*
X424270D03*
X449860Y14944D03*
X469860D03*
X489860D03*
X540699Y13759D03*
X560699D03*
X580699D03*
X599380Y13755D03*
X619380D03*
X639380D03*
D02*
D74*
X214817Y275967D03*
X553380Y48227D03*
X595274Y47089D03*
D02*
D75*
X214817Y285810D03*
Y295652D03*
X543380Y48227D03*
Y78227D03*
X553380D03*
X585274Y47089D03*
Y77089D03*
X595274D03*
D02*
D76*
X164498Y58259D03*
Y106290D03*
X188120Y114164D03*
X211742Y58259D03*
Y106290D03*
D02*
D77*
X176096Y209353D03*
Y229117D03*
X176490Y153054D03*
Y172818D03*
X226096Y209353D03*
Y229117D03*
X226490Y153054D03*
Y172818D03*
X640545Y162975D03*
Y182739D03*
X640939Y220062D03*
Y239826D03*
X690545Y162975D03*
Y182739D03*
X690939Y220062D03*
Y239826D03*
D02*
D78*
X472478Y304735D03*
X482478D03*
X492478D03*
X502478D03*
X512478D03*
X597888Y108644D03*
Y118487D03*
X607888Y108644D03*
Y118487D03*
X617888Y108644D03*
Y118487D03*
X627888Y108644D03*
Y118487D03*
X637888Y108644D03*
Y118487D03*
D02*
D79*
X275663Y298995D03*
D02*
D80*
X285663D03*
X295663D03*
X305663D03*
X315663D03*
X325663D03*
X335663D03*
X345663D03*
X355663D03*
X365663D03*
X375663D03*
X385663D03*
X395663D03*
X405663D03*
X415663D03*
X425663D03*
D02*
D81*
X250073Y84428D03*
Y295058D03*
X617474Y84428D03*
Y295058D03*
D02*
D82*
X537896Y291302D03*
X629144Y261715D03*
D02*
D83*
X547738Y291302D03*
X557581D03*
X619301Y261715D03*
Y269589D03*
X629144D03*
D02*
D84*
X49632Y42491D03*
X79159Y34617D03*
D02*
D85*
X37502Y65223D03*
X96557D03*
X0Y0D02*
M02*
