G04 DesignSpark PCB Gerber Version 13.0 Build *
%FSLAX35Y35*%
%MOIN*%
%ADD183R,0.01800X0.08100*%
%ADD189R,0.01959X0.03140*%
%ADD113R,0.01959X0.05404*%
%ADD184R,0.01959X0.05502*%
%ADD185R,0.03731X0.05109*%
%ADD200R,0.03888X0.06014*%
%ADD112R,0.04900X0.05400*%
%ADD181R,0.05502X0.08652*%
%ADD199R,0.06880X0.11998*%
%ADD197R,0.11998X0.13376*%
%ADD182R,0.05700X0.05700*%
%ADD12C,0.00100*%
%ADD186R,0.04518X0.01762*%
%ADD194R,0.04400X0.01900*%
%ADD192R,0.03140X0.01959*%
%ADD191R,0.07077X0.02156*%
%ADD198R,0.06880X0.03140*%
%ADD193R,0.07904X0.03613*%
%ADD188R,0.05109X0.03731*%
%ADD187R,0.06014X0.03888*%
%ADD111R,0.05400X0.04900*%
%ADD190R,0.08652X0.05502*%
%ADD195R,0.11211X0.05699*%
%ADD196R,0.23809X0.22235*%
X0Y0D02*
D02*
D12*
X18754Y160692D02*
X8518D01*
Y150456D01*
X18754D01*
Y160692D01*
G36*
X18754Y160692D02*
X8518D01*
Y150456D01*
X18754D01*
Y160692D01*
G37*
Y177857D02*
X8518D01*
Y167621D01*
X18754D01*
Y177857D01*
G36*
X18754Y177857D02*
X8518D01*
Y167621D01*
X18754D01*
Y177857D01*
G37*
X33715Y160692D02*
X23478D01*
Y150456D01*
X33715D01*
Y160692D01*
G36*
X33715Y160692D02*
X23478D01*
Y150456D01*
X33715D01*
Y160692D01*
G37*
Y177857D02*
X23478D01*
Y167621D01*
X33715D01*
Y177857D01*
G36*
X33715Y177857D02*
X23478D01*
Y167621D01*
X33715D01*
Y177857D01*
G37*
D02*
D111*
X125108Y297227D03*
X125502Y268487D03*
X134108Y297227D03*
X134502Y268487D03*
X221018Y255223D03*
X230018D03*
X251656Y157857D03*
X260656D03*
X267683Y38408D03*
X276459Y282660D03*
X276683Y38408D03*
X278219Y255259D03*
X278254Y246849D03*
X278356Y238239D03*
X285459Y282660D03*
X287219Y255259D03*
X287254Y246849D03*
X287356Y238239D03*
X318278Y159192D03*
X327278D03*
X337089Y38566D03*
X346089D03*
X362321Y254333D03*
X362447Y246184D03*
X371321Y254333D03*
X371447Y246184D03*
X393719Y161526D03*
X402719D03*
X405986Y40141D03*
X410663Y277932D03*
X410719Y269475D03*
X414986Y40141D03*
X419663Y277932D03*
X419719Y269475D03*
X462541Y160019D03*
X471541D03*
X490093Y43688D03*
X499093D03*
X527128Y309290D03*
X536128D03*
X549100Y309341D03*
X558100D03*
D02*
D112*
X35793Y97845D03*
Y106845D03*
X53400Y255719D03*
Y264719D03*
X62848Y256113D03*
Y265113D03*
X74419Y223042D03*
Y232042D03*
X80171Y139971D03*
Y148971D03*
Y175011D03*
Y184011D03*
X90014Y139971D03*
Y148971D03*
Y175011D03*
Y184011D03*
X160344Y159822D03*
Y168822D03*
X237758Y55952D03*
Y64952D03*
X244856Y125503D03*
Y134503D03*
X245766Y55928D03*
Y64928D03*
X290014Y76192D03*
Y85192D03*
X297494Y129735D03*
Y138735D03*
X298281Y76192D03*
Y85192D03*
X311667Y129735D03*
Y138735D03*
X317179Y79341D03*
Y88341D03*
X325841Y78948D03*
Y87948D03*
X360486Y78554D03*
Y87554D03*
X365211Y130522D03*
Y139522D03*
X368754Y78554D03*
Y87554D03*
X384502Y130129D03*
Y139129D03*
X387907Y77767D03*
Y86767D03*
X396104Y77767D03*
Y86767D03*
X414061Y242282D03*
Y251282D03*
X429502Y78561D03*
Y87561D03*
X438557Y78561D03*
Y87561D03*
X442821Y129341D03*
Y138341D03*
X461703Y296814D03*
Y305814D03*
X463596Y128007D03*
Y137007D03*
X467585Y79743D03*
Y88743D03*
X475852Y80137D03*
Y89137D03*
X511679Y79743D03*
Y88743D03*
X517770Y130763D03*
Y139763D03*
X519553Y80137D03*
Y89137D03*
X574404Y48487D03*
Y57487D03*
X623596Y47940D03*
Y56940D03*
D02*
D113*
X294719Y164896D03*
Y186251D03*
X299719Y164896D03*
Y186251D03*
X304719Y164896D03*
Y186251D03*
X309719Y164896D03*
Y186251D03*
X365978Y165684D03*
Y187038D03*
X370978Y165684D03*
Y187038D03*
X375978Y165684D03*
Y187038D03*
X380978Y165684D03*
Y187038D03*
X436057Y162353D03*
Y183707D03*
X441057Y162353D03*
Y183707D03*
X446057Y162353D03*
Y183707D03*
X451057Y162353D03*
Y183707D03*
X506285Y162877D03*
Y184231D03*
X511285Y162877D03*
Y184231D03*
X516285Y162877D03*
Y184231D03*
X521285Y162877D03*
Y184231D03*
D02*
D181*
X24604Y90337D03*
Y107267D03*
X435589Y238369D03*
Y255298D03*
X449514Y238101D03*
Y255030D03*
D02*
D182*
X125664Y278330D03*
Y287778D03*
X139064Y278330D03*
Y287778D03*
X276621Y272818D03*
X290021D03*
X424451Y240956D03*
Y254356D03*
D02*
D183*
X265211Y73543D03*
Y94022D03*
X270211Y73543D03*
Y94022D03*
X275211Y73543D03*
Y94022D03*
X280211Y73543D03*
Y94022D03*
X336077Y79109D03*
Y99589D03*
X341077Y79109D03*
Y99589D03*
X346077Y79109D03*
Y99589D03*
X351077Y79109D03*
Y99589D03*
X403911Y79117D03*
Y99597D03*
X408911Y79117D03*
Y99597D03*
X413911Y79117D03*
Y99597D03*
X418911Y79117D03*
Y99597D03*
X485695Y79117D03*
Y99597D03*
X490695Y79117D03*
Y99597D03*
X495695Y79117D03*
Y99597D03*
X500695Y79117D03*
Y99597D03*
D02*
D184*
X254049Y122601D03*
Y144058D03*
X259049Y122601D03*
Y144058D03*
X264049Y122601D03*
Y144058D03*
X269049Y122601D03*
Y144058D03*
X274049Y122601D03*
Y144058D03*
X279049Y122601D03*
Y144058D03*
X284049Y122601D03*
Y144058D03*
X320683Y125869D03*
Y147326D03*
X325683Y125869D03*
Y147326D03*
X330683Y125869D03*
Y147326D03*
X335683Y125869D03*
Y147326D03*
X340683Y125869D03*
Y147326D03*
X345683Y125869D03*
Y147326D03*
X350683Y125869D03*
Y147326D03*
X395486Y125869D03*
Y147326D03*
X400486Y125869D03*
Y147326D03*
X405486Y125869D03*
Y147326D03*
X410486Y125869D03*
Y147326D03*
X415486Y125869D03*
Y147326D03*
X420486Y125869D03*
Y147326D03*
X425486Y125869D03*
Y147326D03*
X475998Y123747D03*
Y145204D03*
X480998Y123747D03*
Y145204D03*
X485998Y123747D03*
Y145204D03*
X490998Y123747D03*
Y145204D03*
X495998Y123747D03*
Y145204D03*
X500998Y123747D03*
Y145204D03*
X505998Y123747D03*
Y145204D03*
D02*
D185*
X240407Y143290D03*
X247494D03*
X291589Y148015D03*
X298675D03*
X306549Y148176D03*
X313636D03*
X359699Y148015D03*
X366785D03*
X379065Y148408D03*
X386152D03*
X435301Y146971D03*
X442388D03*
X456746Y145499D03*
X463833D03*
X514620Y147861D03*
X521707D03*
D02*
D186*
X289640Y44648D03*
Y52129D03*
X297907Y48389D03*
X360215Y47389D03*
Y54869D03*
X368482Y51129D03*
X430191Y48637D03*
Y56117D03*
X438459Y52377D03*
X513467Y51664D03*
Y59144D03*
X521734Y55404D03*
D02*
D187*
X267573Y46644D03*
Y57629D03*
X277022Y46644D03*
Y57629D03*
X336864Y48034D03*
Y59019D03*
X345919Y48428D03*
Y59412D03*
X405368Y48822D03*
Y59806D03*
X415604Y48822D03*
Y59806D03*
X490026Y52373D03*
Y63357D03*
X499474Y52373D03*
Y63357D03*
D02*
D188*
X72297Y256282D03*
Y263369D03*
X564998Y49440D03*
Y56526D03*
X612195Y47637D03*
Y54723D03*
D02*
D189*
X159978Y144483D03*
X163719Y134641D03*
X167459Y144483D03*
D02*
D190*
X180411Y132211D03*
X197341D03*
D02*
D191*
X312750Y245164D03*
Y250164D03*
Y255164D03*
Y260164D03*
Y265164D03*
Y270164D03*
Y275164D03*
Y280164D03*
X349955Y245164D03*
Y250164D03*
Y255164D03*
Y260164D03*
Y265164D03*
Y270164D03*
Y275164D03*
Y280164D03*
D02*
D192*
X429892Y271306D03*
Y278786D03*
X439734Y275046D03*
D02*
D193*
X61805Y150770D03*
Y157463D03*
Y164156D03*
Y170849D03*
Y177542D03*
D02*
D194*
X21116Y164156D03*
D02*
D195*
X99935Y98074D03*
Y116066D03*
D02*
D196*
X128203Y107070D03*
D02*
D197*
X121510Y144078D03*
Y179511D03*
D02*
D198*
X104778Y278330D03*
Y287385D03*
Y296440D03*
D02*
D199*
X81549Y287385D03*
D02*
D200*
X62789Y19251D03*
X73774D03*
X0Y0D02*
M02*
