G04 DesignSpark PCB Gerber Version 13.0 Build *
%FSLAX35Y35*%
%MOIN*%
%ADD88R,0.02181X0.06807*%
%ADD94R,0.03559X0.07004*%
%ADD91R,0.06500X0.07000*%
%ADD97R,0.05724X0.05724*%
%ADD105R,0.06543X0.06543*%
%ADD101R,0.07000X0.07000*%
%ADD102R,0.08087X0.08087*%
%ADD98C,0.05724*%
%ADD108C,0.06512*%
%ADD106C,0.06543*%
%ADD95C,0.06906*%
%ADD92C,0.07000*%
%ADD107C,0.07299*%
%ADD103C,0.08087*%
%ADD100C,0.09268*%
%ADD93C,0.09661*%
%ADD99C,0.09858*%
%ADD96C,0.12024*%
%ADD89C,0.12811*%
%ADD104C,0.16748*%
%ADD87R,0.06807X0.02181*%
%ADD86C,0.24622*%
%ADD90R,0.07000X0.06500*%
X0Y0D02*
D02*
D86*
X20329Y22818D03*
X20722Y297621D03*
X686707Y297896D03*
X687612Y24629D03*
D02*
D87*
X527659Y234078D03*
Y236046D03*
Y238015D03*
Y239983D03*
Y241952D03*
Y243920D03*
Y245889D03*
Y247857D03*
Y249826D03*
Y251794D03*
Y253763D03*
Y255731D03*
Y257700D03*
Y259668D03*
Y261637D03*
Y263605D03*
X572841Y234078D03*
Y236046D03*
Y238015D03*
Y239983D03*
Y241952D03*
Y243920D03*
Y245889D03*
Y247857D03*
Y249826D03*
Y251794D03*
Y253763D03*
Y255731D03*
Y257700D03*
Y259668D03*
Y261637D03*
Y263605D03*
D02*
D88*
X535486Y226251D03*
Y271432D03*
X537455Y226251D03*
Y271432D03*
X539423Y226251D03*
Y271432D03*
X541392Y226251D03*
Y271432D03*
X543360Y226251D03*
Y271432D03*
X545329Y226251D03*
Y271432D03*
X547297Y226251D03*
Y271432D03*
X549266Y226251D03*
Y271432D03*
X551234Y226251D03*
Y271432D03*
X553203Y226251D03*
Y271432D03*
X555171Y226251D03*
Y271432D03*
X557140Y226251D03*
Y271432D03*
X559108Y226251D03*
Y271432D03*
X561077Y226251D03*
Y271432D03*
X563045Y226251D03*
Y271432D03*
X565014Y226251D03*
Y271432D03*
D02*
D89*
X387120Y243141D03*
X467199D03*
X600994Y280613D03*
X647451D03*
D02*
D90*
X204904Y183471D03*
X213904D03*
X252837Y179223D03*
X261837D03*
X267959Y63704D03*
X268191Y106282D03*
X272522Y179290D03*
X276959Y63704D03*
X277191Y106282D03*
X281522Y179290D03*
X322581Y180747D03*
X331581D03*
X337482Y68093D03*
X339451Y111007D03*
X342644Y180684D03*
X346482Y68093D03*
X348451Y111007D03*
X351644Y180684D03*
X392663Y181046D03*
X401663D03*
X406281Y67664D03*
X407620Y111400D03*
X412325Y181314D03*
X415281Y67664D03*
X416620Y111400D03*
X421325Y181314D03*
X463073Y185416D03*
X472073D03*
X478837Y291011D03*
X479510Y245404D03*
Y275133D03*
X479581Y235141D03*
X479596Y266389D03*
X483545Y186204D03*
X487837Y291011D03*
X488510Y245404D03*
Y275133D03*
X488581Y235141D03*
X488596Y266389D03*
X489738Y70940D03*
X490959Y108806D03*
X492545Y186204D03*
X498738Y70940D03*
X499959Y108806D03*
X663443Y257333D03*
X672443D03*
X679077Y135853D03*
X688077D03*
D02*
D91*
X523439Y285109D03*
Y294109D03*
X535683Y180924D03*
Y189924D03*
X564360Y66794D03*
Y75794D03*
X571490Y181259D03*
Y190259D03*
X573085Y287215D03*
Y296215D03*
X581333Y181259D03*
Y190259D03*
X637132Y67404D03*
Y76404D03*
D02*
D92*
X53400Y220022D03*
Y235022D03*
X56549Y92070D03*
Y107070D03*
X252219Y105263D03*
X292219D03*
X325447Y110219D03*
X365447D03*
X394242Y110302D03*
X434242D03*
X477415Y109432D03*
X499203Y246629D03*
Y266629D03*
X517415Y109432D03*
D02*
D93*
X500463Y277022D03*
Y287022D03*
D02*
D94*
X608301Y143436D03*
Y164790D03*
X613301Y143436D03*
Y164790D03*
X618301Y143436D03*
Y164790D03*
X623301Y143436D03*
Y164790D03*
D02*
D95*
X251746Y168093D03*
X261746D03*
X271746D03*
X281746D03*
X322612Y167952D03*
X332612D03*
X342612D03*
X352612D03*
X393478Y170062D03*
X403478D03*
X413478D03*
X423478D03*
X462927Y169826D03*
X472927D03*
X482927D03*
X492927D03*
X676726Y81046D03*
Y91046D03*
Y101046D03*
Y111046D03*
D02*
D96*
X97392Y19274D03*
X117392D03*
X137392D03*
X168274Y13660D03*
X188274D03*
X208274D03*
X250974Y14944D03*
X270974D03*
X290974D03*
X318246D03*
X338246D03*
X358246D03*
X384270Y14865D03*
X404270D03*
X424270D03*
X449860Y14944D03*
X469860D03*
X489860D03*
X540699Y13759D03*
X560699D03*
X580699D03*
X599380Y13755D03*
X619380D03*
X639380D03*
D02*
D97*
X214817Y275967D03*
X553380Y48227D03*
X595274Y47089D03*
D02*
D98*
X214817Y285810D03*
Y295652D03*
X543380Y48227D03*
Y78227D03*
X553380D03*
X585274Y47089D03*
Y77089D03*
X595274D03*
D02*
D99*
X164498Y58259D03*
Y106290D03*
X188120Y114164D03*
X211742Y58259D03*
Y106290D03*
D02*
D100*
X176096Y209353D03*
Y229117D03*
X176490Y153054D03*
Y172818D03*
X226096Y209353D03*
Y229117D03*
X226490Y153054D03*
Y172818D03*
X640545Y162975D03*
Y182739D03*
X640939Y220062D03*
Y239826D03*
X690545Y162975D03*
Y182739D03*
X690939Y220062D03*
Y239826D03*
D02*
D101*
X472478Y304735D03*
X482478D03*
X492478D03*
X502478D03*
X512478D03*
X597888Y108644D03*
Y118487D03*
X607888Y108644D03*
Y118487D03*
X617888Y108644D03*
Y118487D03*
X627888Y108644D03*
Y118487D03*
X637888Y108644D03*
Y118487D03*
D02*
D102*
X275663Y298995D03*
D02*
D103*
X285663D03*
X295663D03*
X305663D03*
X315663D03*
X325663D03*
X335663D03*
X345663D03*
X355663D03*
X365663D03*
X375663D03*
X385663D03*
X395663D03*
X405663D03*
X415663D03*
X425663D03*
D02*
D104*
X250073Y84428D03*
Y295058D03*
X617474Y84428D03*
Y295058D03*
D02*
D105*
X537896Y291302D03*
X629144Y261715D03*
D02*
D106*
X547738Y291302D03*
X557581D03*
X619301Y261715D03*
Y269589D03*
X629144D03*
D02*
D107*
X49632Y42491D03*
X79159Y34617D03*
D02*
D108*
X37502Y65223D03*
X96557D03*
X0Y0D02*
M02*
