G04 DesignSpark PCB Gerber Version 13.0 Build *
%FSLAX35Y35*%
%MOIN*%
%ADD147R,0.03000X0.09300*%
%ADD160R,0.03159X0.04340*%
%ADD148R,0.03159X0.06604*%
%ADD150R,0.03159X0.06702*%
%ADD151R,0.04931X0.06309*%
%ADD180R,0.05088X0.07214*%
%ADD143R,0.06100X0.06600*%
%ADD142R,0.06702X0.09852*%
%ADD175R,0.08080X0.13198*%
%ADD173R,0.13198X0.14576*%
%ADD156R,0.05324X0.05324*%
%ADD176R,0.06143X0.06143*%
%ADD163R,0.06600X0.06600*%
%ADD144R,0.06900X0.06900*%
%ADD164R,0.07687X0.07687*%
%ADD138C,0.03750*%
%ADD157C,0.05324*%
%ADD139C,0.05400*%
%ADD179C,0.06112*%
%ADD177C,0.06143*%
%ADD149C,0.06506*%
%ADD145C,0.06600*%
%ADD178C,0.06899*%
%ADD165C,0.07687*%
%ADD162C,0.08868*%
%ADD146C,0.09261*%
%ADD159C,0.09458*%
%ADD155C,0.11624*%
%ADD141C,0.12411*%
%ADD166C,0.16348*%
%ADD153R,0.05718X0.02962*%
%ADD170R,0.05600X0.03100*%
%ADD168R,0.04340X0.03159*%
%ADD167R,0.08277X0.03356*%
%ADD174R,0.08080X0.04340*%
%ADD169R,0.09104X0.04813*%
%ADD158R,0.06309X0.04931*%
%ADD154R,0.07214X0.05088*%
%ADD140C,0.24222*%
%ADD152R,0.06600X0.06100*%
%ADD161R,0.09852X0.06702*%
%ADD171R,0.12411X0.06899*%
%ADD172R,0.25009X0.23435*%
X0Y0D02*
D02*
D138*
X159411Y184967D03*
X186876Y191463D03*
X195313D03*
X228242Y76144D03*
X237368Y115672D03*
X242935Y188802D03*
X243057Y200912D03*
X245167Y183054D03*
X251022Y150790D03*
X266474Y157857D03*
X274537Y136400D03*
X276762Y185963D03*
X288778Y174011D03*
X288829Y138503D03*
X321707Y153396D03*
X337341Y161192D03*
X345577Y189050D03*
X360400Y176759D03*
X376337Y175302D03*
X396313Y154707D03*
X410281Y161526D03*
X414927Y137078D03*
X416679Y189176D03*
X431856Y175558D03*
X450526Y171605D03*
X478238Y157747D03*
X493896Y218133D03*
X495557Y135231D03*
X499384Y173967D03*
Y185696D03*
X504053Y221180D03*
X507002Y250168D03*
X516852Y203483D03*
X520730Y200452D03*
X521073Y206522D03*
X527006Y180932D03*
X546856Y105089D03*
X546864Y88967D03*
X549317Y283207D03*
X551360Y108822D03*
X551781Y90562D03*
X554876Y201042D03*
X554955Y205928D03*
X556793Y256515D03*
X559659Y197940D03*
X560569Y282900D03*
X560663Y129487D03*
X565644Y128940D03*
X566781Y83601D03*
X569907Y162944D03*
X571372Y308180D03*
X588852Y273644D03*
X591656Y162944D03*
X601490D03*
X601848Y151644D03*
X603018Y170904D03*
X611085Y174011D03*
X612226Y229432D03*
X617970Y180723D03*
X624470Y196207D03*
X626179Y180676D03*
X627793Y224731D03*
D02*
D139*
X82140Y161400D03*
X92376Y220062D03*
X114297Y291263D03*
X125502Y253141D03*
X142237Y133054D03*
X172502Y288400D03*
X191093Y245054D03*
X248829Y225900D03*
X258065Y56908D03*
X279514Y205251D03*
X287970Y57322D03*
X292860Y195566D03*
X303939Y67597D03*
X304852Y276034D03*
X310904Y80239D03*
Y117830D03*
X313278Y205251D03*
X321140Y277133D03*
X324801Y61263D03*
X350321Y238361D03*
X350750Y205251D03*
X356152Y138971D03*
X357329Y61396D03*
X364045Y195566D03*
X367644Y238361D03*
X375179Y68282D03*
X381435Y120026D03*
X381750Y79400D03*
X382431Y205341D03*
X395998Y60298D03*
X401884Y269475D03*
X416144Y235164D03*
X423478Y205341D03*
X427470Y286731D03*
X428250Y62333D03*
X433262Y137487D03*
X437333Y195566D03*
X448758Y70160D03*
X452569Y313959D03*
X455644Y82652D03*
X456030Y123900D03*
X472927Y152641D03*
X477900Y205093D03*
X478813Y63526D03*
X492545Y196420D03*
X510581Y137641D03*
X510679Y65900D03*
X516801Y268148D03*
X525014Y72239D03*
X531797Y144845D03*
X535179Y154491D03*
X571801Y133554D03*
X579506Y144357D03*
X580455Y304263D03*
X601565Y197790D03*
D02*
D140*
X20329Y22818D03*
X20722Y297621D03*
X686707Y297896D03*
X687612Y24629D03*
D02*
D141*
X387120Y243141D03*
X467199D03*
X600994Y280613D03*
X647451D03*
D02*
D142*
X24604Y90337D03*
Y107267D03*
X435589Y238369D03*
Y255298D03*
X449514Y238101D03*
Y255030D03*
D02*
D143*
X35793Y97845D03*
Y106845D03*
X53400Y255719D03*
Y264719D03*
X62848Y256113D03*
Y265113D03*
X74419Y223042D03*
Y232042D03*
X80171Y139971D03*
Y148971D03*
Y175011D03*
Y184011D03*
X90014Y139971D03*
Y148971D03*
Y175011D03*
Y184011D03*
X160344Y159822D03*
Y168822D03*
X237758Y55952D03*
Y64952D03*
X244856Y125503D03*
Y134503D03*
X245766Y55928D03*
Y64928D03*
X290014Y76192D03*
Y85192D03*
X297494Y129735D03*
Y138735D03*
X298281Y76192D03*
Y85192D03*
X311667Y129735D03*
Y138735D03*
X317179Y79341D03*
Y88341D03*
X325841Y78948D03*
Y87948D03*
X360486Y78554D03*
Y87554D03*
X365211Y130522D03*
Y139522D03*
X368754Y78554D03*
Y87554D03*
X384502Y130129D03*
Y139129D03*
X387907Y77767D03*
Y86767D03*
X396104Y77767D03*
Y86767D03*
X414061Y242282D03*
Y251282D03*
X429502Y78561D03*
Y87561D03*
X438557Y78561D03*
Y87561D03*
X442821Y129341D03*
Y138341D03*
X461703Y296814D03*
Y305814D03*
X463596Y128007D03*
Y137007D03*
X467585Y79743D03*
Y88743D03*
X475852Y80137D03*
Y89137D03*
X511679Y79743D03*
Y88743D03*
X517770Y130763D03*
Y139763D03*
X519553Y80137D03*
Y89137D03*
X574404Y48487D03*
Y57487D03*
X623596Y47940D03*
Y56940D03*
D02*
D144*
X125664Y278330D03*
Y287778D03*
X139064Y278330D03*
Y287778D03*
X276621Y272818D03*
X290021D03*
X424451Y240956D03*
Y254356D03*
D02*
D145*
X53400Y220022D03*
Y235022D03*
X56549Y92070D03*
Y107070D03*
X252219Y105263D03*
X292219D03*
X325447Y110219D03*
X365447D03*
X394242Y110302D03*
X434242D03*
X477415Y109432D03*
X499203Y246629D03*
Y266629D03*
X517415Y109432D03*
D02*
D146*
X500463Y277022D03*
Y287022D03*
D02*
D147*
X265211Y73543D03*
Y94022D03*
X270211Y73543D03*
Y94022D03*
X275211Y73543D03*
Y94022D03*
X280211Y73543D03*
Y94022D03*
X336077Y79109D03*
Y99589D03*
X341077Y79109D03*
Y99589D03*
X346077Y79109D03*
Y99589D03*
X351077Y79109D03*
Y99589D03*
X403911Y79117D03*
Y99597D03*
X408911Y79117D03*
Y99597D03*
X413911Y79117D03*
Y99597D03*
X418911Y79117D03*
Y99597D03*
X485695Y79117D03*
Y99597D03*
X490695Y79117D03*
Y99597D03*
X495695Y79117D03*
Y99597D03*
X500695Y79117D03*
Y99597D03*
D02*
D148*
X294719Y164896D03*
Y186251D03*
X299719Y164896D03*
Y186251D03*
X304719Y164896D03*
Y186251D03*
X309719Y164896D03*
Y186251D03*
X365978Y165684D03*
Y187038D03*
X370978Y165684D03*
Y187038D03*
X375978Y165684D03*
Y187038D03*
X380978Y165684D03*
Y187038D03*
X436057Y162353D03*
Y183707D03*
X441057Y162353D03*
Y183707D03*
X446057Y162353D03*
Y183707D03*
X451057Y162353D03*
Y183707D03*
X506285Y162877D03*
Y184231D03*
X511285Y162877D03*
Y184231D03*
X516285Y162877D03*
Y184231D03*
X521285Y162877D03*
Y184231D03*
D02*
D149*
X251746Y168093D03*
X261746D03*
X271746D03*
X281746D03*
X322612Y167952D03*
X332612D03*
X342612D03*
X352612D03*
X393478Y170062D03*
X403478D03*
X413478D03*
X423478D03*
X462927Y169826D03*
X472927D03*
X482927D03*
X492927D03*
X676726Y81046D03*
Y91046D03*
Y101046D03*
Y111046D03*
D02*
D150*
X254049Y122601D03*
Y144058D03*
X259049Y122601D03*
Y144058D03*
X264049Y122601D03*
Y144058D03*
X269049Y122601D03*
Y144058D03*
X274049Y122601D03*
Y144058D03*
X279049Y122601D03*
Y144058D03*
X284049Y122601D03*
Y144058D03*
X320683Y125869D03*
Y147326D03*
X325683Y125869D03*
Y147326D03*
X330683Y125869D03*
Y147326D03*
X335683Y125869D03*
Y147326D03*
X340683Y125869D03*
Y147326D03*
X345683Y125869D03*
Y147326D03*
X350683Y125869D03*
Y147326D03*
X395486Y125869D03*
Y147326D03*
X400486Y125869D03*
Y147326D03*
X405486Y125869D03*
Y147326D03*
X410486Y125869D03*
Y147326D03*
X415486Y125869D03*
Y147326D03*
X420486Y125869D03*
Y147326D03*
X425486Y125869D03*
Y147326D03*
X475998Y123747D03*
Y145204D03*
X480998Y123747D03*
Y145204D03*
X485998Y123747D03*
Y145204D03*
X490998Y123747D03*
Y145204D03*
X495998Y123747D03*
Y145204D03*
X500998Y123747D03*
Y145204D03*
X505998Y123747D03*
Y145204D03*
D02*
D151*
X240407Y143290D03*
X247494D03*
X291589Y148015D03*
X298675D03*
X306549Y148176D03*
X313636D03*
X359699Y148015D03*
X366785D03*
X379065Y148408D03*
X386152D03*
X435301Y146971D03*
X442388D03*
X456746Y145499D03*
X463833D03*
X514620Y147861D03*
X521707D03*
D02*
D152*
X125108Y297227D03*
X125502Y268487D03*
X134108Y297227D03*
X134502Y268487D03*
X221018Y255223D03*
X230018D03*
X251656Y157857D03*
X260656D03*
X267683Y38408D03*
X276459Y282660D03*
X276683Y38408D03*
X278219Y255259D03*
X278254Y246849D03*
X278356Y238239D03*
X285459Y282660D03*
X287219Y255259D03*
X287254Y246849D03*
X287356Y238239D03*
X318278Y159192D03*
X327278D03*
X337089Y38566D03*
X346089D03*
X362321Y254333D03*
X362447Y246184D03*
X371321Y254333D03*
X371447Y246184D03*
X393719Y161526D03*
X402719D03*
X405986Y40141D03*
X410663Y277932D03*
X410719Y269475D03*
X414986Y40141D03*
X419663Y277932D03*
X419719Y269475D03*
X462541Y160019D03*
X471541D03*
X490093Y43688D03*
X499093D03*
X527128Y309290D03*
X536128D03*
X549100Y309341D03*
X558100D03*
D02*
D153*
X289640Y44648D03*
Y52129D03*
X297907Y48389D03*
X360215Y47389D03*
Y54869D03*
X368482Y51129D03*
X430191Y48637D03*
Y56117D03*
X438459Y52377D03*
X513467Y51664D03*
Y59144D03*
X521734Y55404D03*
D02*
D154*
X267573Y46644D03*
Y57629D03*
X277022Y46644D03*
Y57629D03*
X336864Y48034D03*
Y59019D03*
X345919Y48428D03*
Y59412D03*
X405368Y48822D03*
Y59806D03*
X415604Y48822D03*
Y59806D03*
X490026Y52373D03*
Y63357D03*
X499474Y52373D03*
Y63357D03*
D02*
D155*
X97392Y19274D03*
X117392D03*
X137392D03*
X168274Y13660D03*
X188274D03*
X208274D03*
X250974Y14944D03*
X270974D03*
X290974D03*
X318246D03*
X338246D03*
X358246D03*
X384270Y14865D03*
X404270D03*
X424270D03*
X449860Y14944D03*
X469860D03*
X489860D03*
X540699Y13759D03*
X560699D03*
X580699D03*
X599380Y13755D03*
X619380D03*
X639380D03*
D02*
D156*
X214817Y275967D03*
X553380Y48227D03*
X595274Y47089D03*
D02*
D157*
X214817Y285810D03*
Y295652D03*
X543380Y48227D03*
Y78227D03*
X553380D03*
X585274Y47089D03*
Y77089D03*
X595274D03*
D02*
D158*
X72297Y256282D03*
Y263369D03*
X564998Y49440D03*
Y56526D03*
X612195Y47637D03*
Y54723D03*
D02*
D159*
X164498Y58259D03*
Y106290D03*
X188120Y114164D03*
X211742Y58259D03*
Y106290D03*
D02*
D160*
X159978Y144483D03*
X163719Y134641D03*
X167459Y144483D03*
D02*
D161*
X180411Y132211D03*
X197341D03*
D02*
D162*
X176096Y209353D03*
Y229117D03*
X176490Y153054D03*
Y172818D03*
X226096Y209353D03*
Y229117D03*
X226490Y153054D03*
Y172818D03*
X640545Y162975D03*
Y182739D03*
X640939Y220062D03*
Y239826D03*
X690545Y162975D03*
Y182739D03*
X690939Y220062D03*
Y239826D03*
D02*
D163*
X472478Y304735D03*
X482478D03*
X492478D03*
X502478D03*
X512478D03*
X597888Y108644D03*
Y118487D03*
X607888Y108644D03*
Y118487D03*
X617888Y108644D03*
Y118487D03*
X627888Y108644D03*
Y118487D03*
X637888Y108644D03*
Y118487D03*
D02*
D164*
X275663Y298995D03*
D02*
D165*
X285663D03*
X295663D03*
X305663D03*
X315663D03*
X325663D03*
X335663D03*
X345663D03*
X355663D03*
X365663D03*
X375663D03*
X385663D03*
X395663D03*
X405663D03*
X415663D03*
X425663D03*
D02*
D166*
X250073Y84428D03*
Y295058D03*
X617474Y84428D03*
Y295058D03*
D02*
D167*
X312750Y245164D03*
Y250164D03*
Y255164D03*
Y260164D03*
Y265164D03*
Y270164D03*
Y275164D03*
Y280164D03*
X349955Y245164D03*
Y250164D03*
Y255164D03*
Y260164D03*
Y265164D03*
Y270164D03*
Y275164D03*
Y280164D03*
D02*
D168*
X429892Y271306D03*
Y278786D03*
X439734Y275046D03*
D02*
D169*
X61805Y150770D03*
Y157463D03*
Y164156D03*
Y170849D03*
Y177542D03*
D02*
D170*
X21116Y164156D03*
D02*
D171*
X99935Y98074D03*
Y116066D03*
D02*
D172*
X128203Y107070D03*
D02*
D173*
X121510Y144078D03*
Y179511D03*
D02*
D174*
X104778Y278330D03*
Y287385D03*
Y296440D03*
D02*
D175*
X81549Y287385D03*
D02*
D176*
X537896Y291302D03*
X629144Y261715D03*
D02*
D177*
X547738Y291302D03*
X557581D03*
X619301Y261715D03*
Y269589D03*
X629144D03*
D02*
D178*
X49632Y42491D03*
X79159Y34617D03*
D02*
D179*
X37502Y65223D03*
X96557D03*
D02*
D180*
X62789Y19251D03*
X73774D03*
X0Y0D02*
M02*
