G04 DesignSpark PCB Gerber Version 13.0 Build *
%FSLAX35Y35*%
%MOIN*%
%ADD12C,0.00100*%
%ADD17C,0.00197*%
%ADD15C,0.00394*%
%ADD10C,0.00500*%
%ADD13C,0.00787*%
X0Y0D02*
D02*
D10*
X45270Y144156D02*
Y184156D01*
X6018D01*
Y144156D01*
X45270D01*
X101478Y51444D02*
Y79003D01*
X32581D01*
Y51444D01*
X101478D01*
X522148Y303310D02*
Y279294D01*
X573329D01*
Y303310D01*
X522148D01*
X600404Y256597D02*
X648041D01*
Y321558D01*
X600404D01*
Y256597D01*
D02*
D12*
X69935Y257857D02*
Y255889D01*
X74659D01*
Y257857D01*
X69935D01*
G36*
X69935Y257857D02*
Y255889D01*
X74659D01*
Y257857D01*
X69935D01*
G37*
Y263763D02*
Y261794D01*
X74659D01*
Y263763D01*
X69935D01*
G36*
X69935Y263763D02*
Y261794D01*
X74659D01*
Y263763D01*
X69935D01*
G37*
X240014Y140928D02*
X241982D01*
Y145652D01*
X240014D01*
Y140928D01*
G36*
X240014Y140928D02*
X241982D01*
Y145652D01*
X240014D01*
Y140928D01*
G37*
X245919D02*
X247888D01*
Y145652D01*
X245919D01*
Y140928D01*
G36*
X245919Y140928D02*
X247888D01*
Y145652D01*
X245919D01*
Y140928D01*
G37*
X291195Y145652D02*
X293163D01*
Y150377D01*
X291195D01*
Y145652D01*
G36*
X291195Y145652D02*
X293163D01*
Y150377D01*
X291195D01*
Y145652D01*
G37*
X297100D02*
X299069D01*
Y150377D01*
X297100D01*
Y145652D01*
G36*
X297100Y145652D02*
X299069D01*
Y150377D01*
X297100D01*
Y145652D01*
G37*
X308124Y150538D02*
X306156D01*
Y145814D01*
X308124D01*
Y150538D01*
G36*
X308124Y150538D02*
X306156D01*
Y145814D01*
X308124D01*
Y150538D01*
G37*
X314030D02*
X312061D01*
Y145814D01*
X314030D01*
Y150538D01*
G36*
X314030Y150538D02*
X312061D01*
Y145814D01*
X314030D01*
Y150538D01*
G37*
X359305Y145652D02*
X361274D01*
Y150377D01*
X359305D01*
Y145652D01*
G36*
X359305Y145652D02*
X361274D01*
Y150377D01*
X359305D01*
Y145652D01*
G37*
X365211D02*
X367179D01*
Y150377D01*
X365211D01*
Y145652D01*
G36*
X365211Y145652D02*
X367179D01*
Y150377D01*
X365211D01*
Y145652D01*
G37*
X380640Y150770D02*
X378671D01*
Y146046D01*
X380640D01*
Y150770D01*
G36*
X380640Y150770D02*
X378671D01*
Y146046D01*
X380640D01*
Y150770D01*
G37*
X386545D02*
X384577D01*
Y146046D01*
X386545D01*
Y150770D01*
G36*
X386545Y150770D02*
X384577D01*
Y146046D01*
X386545D01*
Y150770D01*
G37*
X434907Y144609D02*
X436876D01*
Y149333D01*
X434907D01*
Y144609D01*
G36*
X434907Y144609D02*
X436876D01*
Y149333D01*
X434907D01*
Y144609D01*
G37*
X440813D02*
X442781D01*
Y149333D01*
X440813D01*
Y144609D01*
G36*
X440813Y144609D02*
X442781D01*
Y149333D01*
X440813D01*
Y144609D01*
G37*
X456352Y143137D02*
X458321D01*
Y147861D01*
X456352D01*
Y143137D01*
G36*
X456352Y143137D02*
X458321D01*
Y147861D01*
X456352D01*
Y143137D01*
G37*
X462258D02*
X464226D01*
Y147861D01*
X462258D01*
Y143137D01*
G36*
X462258Y143137D02*
X464226D01*
Y147861D01*
X462258D01*
Y143137D01*
G37*
X514226Y145499D02*
X516195D01*
Y150223D01*
X514226D01*
Y145499D01*
G36*
X514226Y145499D02*
X516195D01*
Y150223D01*
X514226D01*
Y145499D01*
G37*
X520132D02*
X522100D01*
Y150223D01*
X520132D01*
Y145499D01*
G36*
X520132Y145499D02*
X522100D01*
Y150223D01*
X520132D01*
Y145499D01*
G37*
X567360Y49046D02*
Y51015D01*
X562636D01*
Y49046D01*
X567360D01*
G36*
X567360Y49046D02*
Y51015D01*
X562636D01*
Y49046D01*
X567360D01*
G37*
Y54952D02*
Y56920D01*
X562636D01*
Y54952D01*
X567360D01*
G36*
X567360Y54952D02*
Y56920D01*
X562636D01*
Y54952D01*
X567360D01*
G37*
X614557Y47243D02*
Y49211D01*
X609833D01*
Y47243D01*
X614557D01*
G36*
X614557Y47243D02*
Y49211D01*
X609833D01*
Y47243D01*
X614557D01*
G37*
Y53148D02*
Y55117D01*
X609833D01*
Y53148D01*
X614557D01*
G36*
X614557Y53148D02*
Y55117D01*
X609833D01*
Y53148D01*
X614557D01*
G37*
D02*
D13*
X68754Y177542D02*
G75*
G02*
X69541I394J0D01*
G01*
G75*
G02*
X68754I-394J0D01*
G01*
X69935Y263763D02*
Y255889D01*
X74659D01*
Y263763D01*
X69935D01*
X240014Y140928D02*
X247888D01*
Y145652D01*
X240014D01*
Y140928D01*
X291195Y145652D02*
X299069D01*
Y150377D01*
X291195D01*
Y145652D01*
X314030Y150538D02*
X306156D01*
Y145814D01*
X314030D01*
Y150538D01*
X359305Y145652D02*
X367179D01*
Y150377D01*
X359305D01*
Y145652D01*
X386545Y150770D02*
X378671D01*
Y146046D01*
X386545D01*
Y150770D01*
X434907Y144609D02*
X442781D01*
Y149333D01*
X434907D01*
Y144609D01*
X456352Y143137D02*
X464226D01*
Y147861D01*
X456352D01*
Y143137D01*
X514226Y145499D02*
X522100D01*
Y150223D01*
X514226D01*
Y145499D01*
X567360Y49046D02*
Y56920D01*
X562636D01*
Y49046D01*
X567360D01*
X614557Y47243D02*
Y55117D01*
X609833D01*
Y47243D01*
X614557D01*
X629537Y254038D02*
G75*
G02*
X628750I-394J0D01*
G01*
G75*
G02*
X629537I394J0D01*
G01*
D02*
D15*
X144030Y123802D02*
X86762D01*
Y90337D01*
X144030D01*
Y123802D01*
X201431Y263172D02*
Y308448D01*
X228990D01*
Y263172D01*
X201431D01*
X224537Y131093D02*
Y31684D01*
X151703D01*
Y131093D01*
X224537D01*
D02*
D17*
X77002Y23542D02*
X59561D01*
Y14959D01*
X77002D01*
Y23542D01*
X109502Y300967D02*
X76825D01*
Y273802D01*
X109502D01*
Y300967D01*
X142770Y136105D02*
Y187483D01*
X100250D01*
Y136105D01*
X142770D01*
X170864Y147337D02*
Y131786D01*
X156573D01*
Y147337D01*
X170864D01*
X250447Y148093D02*
Y118566D01*
X287652D01*
Y148093D01*
X250447D01*
X263281Y60857D02*
Y43416D01*
X271864D01*
Y60857D01*
X263281D01*
X272730D02*
Y43416D01*
X281313D01*
Y60857D01*
X272730D01*
X286096Y41420D02*
X301451D01*
Y55357D01*
X286096D01*
Y41420D01*
X291392Y190239D02*
Y160908D01*
X313045D01*
Y190239D01*
X291392D01*
X307927Y241011D02*
X354778D01*
Y284318D01*
X307927D01*
Y241011D01*
X317081Y151361D02*
Y121833D01*
X354285D01*
Y151361D01*
X317081D01*
X332573Y62247D02*
Y44806D01*
X341156D01*
Y62247D01*
X332573D01*
X341628Y62641D02*
Y45200D01*
X350211D01*
Y62641D01*
X341628D01*
X356671Y44160D02*
X372026D01*
Y58097D01*
X356671D01*
Y44160D01*
X362652Y191026D02*
Y161696D01*
X384305D01*
Y191026D01*
X362652D01*
X391884Y151361D02*
Y121833D01*
X429089D01*
Y151361D01*
X391884D01*
X401077Y63034D02*
Y45593D01*
X409659D01*
Y63034D01*
X401077D01*
X411313D02*
Y45593D01*
X419896D01*
Y63034D01*
X411313D01*
X426648Y45408D02*
X442002D01*
Y59345D01*
X426648D01*
Y45408D01*
X427037Y282192D02*
X442589D01*
Y267900D01*
X427037D01*
Y282192D01*
X432730Y187696D02*
Y158365D01*
X454384D01*
Y187696D01*
X432730D01*
X472396Y149239D02*
Y119711D01*
X509600D01*
Y149239D01*
X472396D01*
X485734Y66585D02*
Y49144D01*
X494317D01*
Y66585D01*
X485734D01*
X495183D02*
Y49144D01*
X503766D01*
Y66585D01*
X495183D01*
X502959Y188219D02*
Y158889D01*
X524612D01*
Y188219D01*
X502959D01*
X509923Y48436D02*
X525278D01*
Y62373D01*
X509923D01*
Y48436D01*
X559404Y44290D02*
Y82164D01*
X537356D01*
Y44290D01*
X559404D01*
X601297Y43152D02*
Y81026D01*
X579250D01*
Y43152D01*
X601297D01*
X0Y0D02*
M02*
