G04 DesignSpark PCB Gerber Version 13.0 Build *
%FSLAX35Y35*%
%MOIN*%
%ADD83R,0.03362X0.06807*%
%ADD97R,0.05921X0.12811*%
%ADD91R,0.06500X0.07000*%
%ADD85R,0.06394X0.06394*%
%ADD92R,0.07000X0.07000*%
%ADD86C,0.06394*%
%ADD93C,0.07000*%
%ADD95C,0.07299*%
%ADD87C,0.12024*%
%ADD90R,0.06118X0.03362*%
%ADD84R,0.06807X0.03362*%
%ADD89R,0.09700X0.03400*%
%ADD82C,0.24622*%
%ADD88R,0.07000X0.06500*%
%ADD96R,0.09000X0.07000*%
%ADD94R,0.10252X0.07102*%
X0Y0D02*
D02*
D82*
X19695Y19766D03*
X20108Y216604D03*
X256250Y19852D03*
X256313Y217888D03*
D02*
D83*
X133872Y122069D03*
Y155439D03*
X137022Y122069D03*
Y155439D03*
X140171Y122069D03*
Y155439D03*
X143321Y122069D03*
Y155439D03*
X146470Y122069D03*
Y155439D03*
X149620Y122069D03*
Y155439D03*
X152770Y122069D03*
Y155439D03*
X155919Y122069D03*
Y155439D03*
D02*
D84*
X128211Y127730D03*
Y130880D03*
Y134030D03*
Y137179D03*
Y140329D03*
Y143478D03*
Y146628D03*
Y149778D03*
X161581Y127730D03*
Y130880D03*
Y134030D03*
Y137179D03*
Y140329D03*
Y143478D03*
Y146628D03*
Y149778D03*
D02*
D85*
X29935Y85998D03*
X84856Y87219D03*
D02*
D86*
X19935Y85998D03*
Y95998D03*
Y105998D03*
Y115998D03*
Y125998D03*
Y135998D03*
Y145998D03*
Y155998D03*
X29935Y95998D03*
Y105998D03*
Y115998D03*
Y125998D03*
Y135998D03*
Y145998D03*
Y155998D03*
X74856Y87219D03*
Y97219D03*
Y107219D03*
Y117219D03*
Y127219D03*
Y137219D03*
Y147219D03*
Y157219D03*
X84856Y97219D03*
Y107219D03*
Y117219D03*
Y127219D03*
Y137219D03*
Y147219D03*
Y157219D03*
D02*
D87*
X255919Y56502D03*
Y76502D03*
Y96502D03*
X256313Y126970D03*
Y146970D03*
Y166970D03*
D02*
D88*
X169530Y173793D03*
X178530D03*
X183112Y23010D03*
X186065Y135604D03*
X186459Y126943D03*
X192112Y23010D03*
X195065Y135604D03*
X195459Y126943D03*
X199844Y208045D03*
X202994Y173793D03*
X208844Y208045D03*
X210474Y141510D03*
X211994Y173793D03*
X219474Y141510D03*
X221104Y98041D03*
X230104D03*
D02*
D89*
X162219Y184384D03*
Y189384D03*
Y194384D03*
Y199384D03*
X182698Y184384D03*
Y189384D03*
Y194384D03*
Y199384D03*
D02*
D90*
X204541Y187967D03*
X212809Y184226D03*
Y191707D03*
D02*
D91*
X128754Y31049D03*
Y40049D03*
X138990Y31049D03*
Y40049D03*
X152612Y30459D03*
Y39459D03*
X162612Y30459D03*
Y39459D03*
X210250Y151577D03*
Y160577D03*
X220093Y151577D03*
Y160577D03*
D02*
D92*
X119262Y55069D03*
X129262D03*
X139262D03*
X149262D03*
X159262D03*
D02*
D93*
X191352Y38715D03*
Y53715D03*
D02*
D94*
X188006Y81234D03*
X204935D03*
D02*
D95*
X215061Y64352D03*
X222935Y34825D03*
D02*
D96*
X152612Y8900D03*
Y18900D03*
D02*
D97*
X188250Y95167D03*
X208919D03*
X0Y0D02*
M02*
