G04 DesignSpark PCB Gerber Version 13.0 Build *
%FSLAX35Y35*%
%MOIN*%
%ADD98R,0.01762X0.05207*%
%ADD105R,0.04321X0.11211*%
%ADD103R,0.04900X0.05400*%
%ADD102R,0.04518X0.01762*%
%ADD99R,0.05207X0.01762*%
%ADD101R,0.08100X0.01800*%
%ADD100R,0.05400X0.04900*%
%ADD104R,0.08652X0.05502*%
X0Y0D02*
D02*
D98*
X133872Y122069D03*
Y155439D03*
X137022Y122069D03*
Y155439D03*
X140171Y122069D03*
Y155439D03*
X143321Y122069D03*
Y155439D03*
X146470Y122069D03*
Y155439D03*
X149620Y122069D03*
Y155439D03*
X152770Y122069D03*
Y155439D03*
X155919Y122069D03*
Y155439D03*
D02*
D99*
X128211Y127730D03*
Y130880D03*
Y134030D03*
Y137179D03*
Y140329D03*
Y143478D03*
Y146628D03*
Y149778D03*
X161581Y127730D03*
Y130880D03*
Y134030D03*
Y137179D03*
Y140329D03*
Y143478D03*
Y146628D03*
Y149778D03*
D02*
D100*
X169530Y173793D03*
X178530D03*
X183112Y23010D03*
X186065Y135604D03*
X186459Y126943D03*
X192112Y23010D03*
X195065Y135604D03*
X195459Y126943D03*
X199844Y208045D03*
X202994Y173793D03*
X208844Y208045D03*
X210474Y141510D03*
X211994Y173793D03*
X219474Y141510D03*
X221104Y98041D03*
X230104D03*
D02*
D101*
X162219Y184384D03*
Y189384D03*
Y194384D03*
Y199384D03*
X182698Y184384D03*
Y189384D03*
Y194384D03*
Y199384D03*
D02*
D102*
X204541Y187967D03*
X212809Y184226D03*
Y191707D03*
D02*
D103*
X128754Y31049D03*
Y40049D03*
X138990Y31049D03*
Y40049D03*
X152612Y30459D03*
Y39459D03*
X162612Y30459D03*
Y39459D03*
X210250Y151577D03*
Y160577D03*
X220093Y151577D03*
Y160577D03*
D02*
D104*
X188006Y81234D03*
X204935D03*
D02*
D105*
X188250Y95167D03*
X208919D03*
X0Y0D02*
M02*
