G04 DesignSpark PCB Gerber Version 13.0 Build *
%FSLAX35Y35*%
%MOIN*%
%ADD110R,0.05994X0.05994*%
%ADD113R,0.06600X0.06600*%
%ADD106C,0.03750*%
%ADD108C,0.03800*%
%ADD107C,0.05400*%
%ADD111C,0.05994*%
%ADD114C,0.06600*%
%ADD115C,0.06899*%
%ADD112C,0.11624*%
%ADD109C,0.24222*%
%ADD116R,0.08600X0.06600*%
X0Y0D02*
D02*
D106*
X52770Y117230D03*
X58860Y171431D03*
X95608Y157219D03*
X99226Y184030D03*
X103163Y151352D03*
X103400Y78293D03*
X109467Y87179D03*
X114187Y98203D03*
X115762Y74833D03*
X116549Y151352D03*
X127762Y157219D03*
X134266Y171431D03*
X138203Y141904D03*
X139463Y105722D03*
X139778Y94600D03*
X146470Y95931D03*
X147258Y177730D03*
X152376Y189384D03*
X152770Y97809D03*
X155919Y178518D03*
X157494Y105289D03*
X159069Y92691D03*
X174423Y161982D03*
X175604Y140329D03*
X194502Y173400D03*
X198439Y189935D03*
Y199384D03*
X200014Y163557D03*
D02*
D107*
X180722Y206470D03*
X185841Y113163D03*
Y146234D03*
X195289Y107652D03*
X199226Y151577D03*
D02*
D108*
X111289Y44549D03*
X131596Y23463D03*
X145352Y37037D03*
D02*
D109*
X19695Y19766D03*
X20108Y216604D03*
X256250Y19852D03*
X256313Y217888D03*
D02*
D110*
X29935Y85998D03*
X84856Y87219D03*
D02*
D111*
X19935Y85998D03*
Y95998D03*
Y105998D03*
Y115998D03*
Y125998D03*
Y135998D03*
Y145998D03*
Y155998D03*
X29935Y95998D03*
Y105998D03*
Y115998D03*
Y125998D03*
Y135998D03*
Y145998D03*
Y155998D03*
X74856Y87219D03*
Y97219D03*
Y107219D03*
Y117219D03*
Y127219D03*
Y137219D03*
Y147219D03*
Y157219D03*
X84856Y97219D03*
Y107219D03*
Y117219D03*
Y127219D03*
Y137219D03*
Y147219D03*
Y157219D03*
D02*
D112*
X255919Y56502D03*
Y76502D03*
Y96502D03*
X256313Y126970D03*
Y146970D03*
Y166970D03*
D02*
D113*
X119262Y55069D03*
X129262D03*
X139262D03*
X149262D03*
X159262D03*
D02*
D114*
X191352Y38715D03*
Y53715D03*
D02*
D115*
X215061Y64352D03*
X222935Y34825D03*
D02*
D116*
X152612Y8900D03*
Y18900D03*
X0Y0D02*
M02*
