G04 DesignSpark PCB Gerber Version 13.0 Build *
%FSLAX35Y35*%
%MOIN*%
%ADD10C,0.00001*%
%ADD11C,0.00100*%
X0Y0D02*
D02*
D10*
X64567Y208170D02*
G75*
G03*
X64497Y208122I725J-1117D01*
G01*
G75*
G03*
X64480Y208094I26J-35D01*
G01*
G75*
G03*
X64492Y208077I15J-3D01*
G01*
G75*
G03*
X64548Y208071I61J333D01*
G01*
G75*
G02*
X64612Y208024I-1J-68D01*
G01*
G75*
G02*
X64645Y207867I-717J-233D01*
G01*
G75*
G02*
X64657Y207588I-2483J-248D01*
G01*
G75*
G02*
X64645Y207095I-21664J289D01*
G01*
G75*
G02*
X64626Y206710I-14242J506D01*
G01*
G75*
G02*
X64598Y206359I-9865J609D01*
G01*
G75*
G02*
X64566Y206068I-10730J1056D01*
G01*
G75*
G02*
X64534Y205959I-348J44D01*
G01*
G75*
G03*
X64609Y205806I98J-47D01*
G01*
G75*
G03*
X65153Y205726I859J3954D01*
G01*
G75*
G03*
X66171Y205681I1174J15059D01*
G01*
G75*
G03*
X68242Y205671I2115J210329D01*
G01*
X70967Y205670D01*
Y208270D01*
X67842Y208269D01*
G75*
G03*
X66572Y208261I93J-123513D01*
G01*
G75*
G03*
X65546Y208240I570J-53276D01*
G01*
G75*
G03*
X64699Y208211I3406J-112853D01*
G01*
G75*
G03*
X64567Y208170I9J-261D01*
G01*
X67392Y217797D02*
X64467Y217767D01*
X64468Y217543D01*
G75*
G03*
X64472Y217424I2633J19D01*
G01*
G75*
G03*
X64489Y217393I42J2D01*
G01*
G75*
G03*
X64515Y217397I11J15D01*
G01*
G75*
G03*
X64567Y217470I-779J612D01*
G01*
G75*
G02*
X64606Y217524I558J-359D01*
G01*
G75*
G02*
X64642Y217561I198J-160D01*
G01*
G75*
G02*
X64670Y217577I57J-68D01*
G01*
G75*
G02*
X64687Y217570I4J-13D01*
G01*
G75*
G02*
X64697Y217527I-95J-44D01*
G01*
G75*
G02*
X64720Y216359I-3935591J-76217D01*
G01*
G75*
G02*
X64742Y215057I-371231J-6936D01*
G01*
G75*
G02*
X64764Y213520I-715957J-11039D01*
G01*
X64817Y209520D01*
X69960Y209494D01*
X75104Y209468D01*
X75385Y209738D01*
G75*
G03*
X75581Y210020I-601J627D01*
G01*
G75*
G03*
X75639Y210341I-654J284D01*
G01*
G75*
G03*
X75549Y210661I-748J-39D01*
G01*
G75*
G03*
X75323Y210940I-880J-481D01*
G01*
G75*
G03*
X75062Y211078I-430J-500D01*
G01*
G75*
G03*
X74673Y211141I-518J-1943D01*
G01*
G75*
G03*
X73940Y211166I-771J-12148D01*
G01*
G75*
G03*
X71731Y211170I-2309J-614412D01*
G01*
G75*
G02*
X70123Y211176I-38J223659D01*
G01*
G75*
G02*
X69122Y211197I269J36217D01*
G01*
G75*
G02*
X68426Y211228I1259J36436D01*
G01*
G75*
G02*
X68287Y211290I11J214D01*
G01*
G75*
G02*
X68169Y211570I285J285D01*
G01*
G75*
G02*
X68159Y213187I109813J1477D01*
G01*
G75*
G02*
X68171Y214821I129305J-180D01*
G01*
G75*
G02*
X68292Y215039I264J-4D01*
G01*
G75*
G02*
X68387Y215073I120J-185D01*
G01*
G75*
G02*
X68747Y215111I2151J-18782D01*
G01*
G75*
G02*
X69179Y215145I1274J-13309D01*
G01*
G75*
G02*
X69667Y215170I1361J-21636D01*
G01*
X70917Y215220D01*
Y217820D01*
X70617Y217824D01*
G75*
G03*
X70403Y217824I-126J-10688D01*
G01*
G75*
G03*
X69546Y217817I9935J-1327841D01*
G01*
G75*
G03*
X68534Y217808I6802J-816201D01*
G01*
G75*
G03*
X67392Y217797I12319J-1335956D01*
G01*
X69429Y213871D02*
G75*
G03*
X69146Y213741I376J-1190D01*
G01*
G75*
G03*
X68898Y213544I719J-1158D01*
G01*
G75*
G03*
X68724Y213317I796J-790D01*
G01*
G75*
G03*
X68667Y213104I367J-213D01*
G01*
G75*
G03*
X68687Y212993I319J-1D01*
G01*
G75*
G03*
X68752Y212845I1196J443D01*
G01*
G75*
G03*
X68847Y212689I1333J700D01*
G01*
G75*
G03*
X68958Y212546I1185J815D01*
G01*
X69250Y212220D01*
X76317Y212120D01*
X76344Y210306D01*
G75*
G02*
X76356Y209222I-125449J-1863D01*
G01*
G75*
G02*
X76339Y208767I-5330J-35D01*
G01*
G75*
G02*
X76293Y208526I-1103J88D01*
G01*
G75*
G02*
X76194Y208416I-169J52D01*
G01*
G75*
G02*
X76061Y208384I-159J369D01*
G01*
G75*
G02*
X75488Y208348I-3826J56647D01*
G01*
G75*
G02*
X74809Y208317I-1938J33987D01*
G01*
G75*
G02*
X74039Y208293I-2116J56439D01*
G01*
X72061Y208246D01*
X72089Y206983D01*
X72117Y205720D01*
X79717D01*
X79741Y209670D01*
G75*
G03*
X79744Y211236I-191278J1168D01*
G01*
G75*
G03*
X79732Y212533I-90509J-203D01*
G01*
G75*
G03*
X79712Y213638I-276510J-4471D01*
G01*
G75*
G03*
X79674Y213763I-242J-6D01*
G01*
G75*
G03*
X79529Y213848I-155J-98D01*
G01*
G75*
G03*
X78689Y213885I-2197J-39876D01*
G01*
G75*
G03*
X77354Y213914I-1845J-53942D01*
G01*
G75*
G03*
X74650Y213934I-6883J-744925D01*
G01*
G75*
G03*
X72711Y213939I-1609J-286208D01*
G01*
G75*
G03*
X71061Y213928I184J-151023D01*
G01*
G75*
G03*
X69655Y213908I4265J-354965D01*
G01*
G75*
G03*
X69429Y213871I12J-794D01*
G01*
X72200Y217832D02*
G75*
G03*
X72107Y217744I2J-94D01*
G01*
G75*
G03*
X72087Y217368I30998J-1911D01*
G01*
G75*
G03*
X72072Y216926I14950J-727D01*
G01*
G75*
G03*
X72067Y216414I26704J-502D01*
G01*
G75*
G03*
X72072Y215689I47517J-1D01*
G01*
G75*
G03*
X72096Y215324I3715J57D01*
G01*
G75*
G03*
X72141Y215119I1014J116D01*
G01*
G75*
G03*
X72225Y215031I135J44D01*
G01*
G75*
G03*
X72351Y215006I134J347D01*
G01*
G75*
G03*
X73406Y214988I7399J400198D01*
G01*
G75*
G03*
X74617Y214974I1980J124300D01*
G01*
G75*
G03*
X76023Y214970I1398J225697D01*
G01*
X79663D01*
X79719Y215195D01*
G75*
G03*
X79739Y215341I-696J172D01*
G01*
G75*
G03*
X79750Y215706I-19416J726D01*
G01*
G75*
G03*
X79753Y216144I-18079J349D01*
G01*
G75*
G03*
X79746Y216620I-25346J-139D01*
G01*
X79717Y217820D01*
X75959Y217846D01*
G75*
G03*
X74514Y217851I-1474J-212325D01*
G01*
G75*
G03*
X73286Y217844I-8J-111150D01*
G01*
G75*
G03*
X72200Y217832I6748J-628879D01*
G01*
X81748Y217748D02*
G75*
G03*
X81649Y217568I157J-204D01*
G01*
G75*
G03*
X81612Y216967I10688J-967D01*
G01*
G75*
G03*
X81594Y215911I30340J-1048D01*
G01*
G75*
G03*
X81600Y213420I696200J405D01*
G01*
X81617Y209220D01*
X83907D01*
X83917Y213320D01*
X84592Y213350D01*
X85267Y213379D01*
Y211326D01*
G75*
G03*
X85279Y209700I106232J-16D01*
G01*
G75*
G03*
X85385Y209343I694J11D01*
G01*
G75*
G03*
X85654Y209189I279J175D01*
G01*
G75*
G03*
X86606Y209191I444J15341D01*
G01*
X87495Y209220D01*
X87475Y217820D01*
X86371Y217848D01*
X85267Y217876D01*
Y214661D01*
X84592Y214690D01*
X83917Y214720D01*
X83913Y216270D01*
X83909Y217820D01*
X82911Y217848D01*
G75*
G03*
X82446Y217854I-420J-14772D01*
G01*
G75*
G03*
X82112Y217839I14J-4051D01*
G01*
G75*
G03*
X81876Y217806I191J-2221D01*
G01*
G75*
G03*
X81748Y217748I58J-298D01*
G01*
X82067Y207650D02*
G75*
G03*
X81747Y207330I679J-999D01*
G01*
G75*
G03*
X81715Y207019I273J-186D01*
G01*
G75*
G03*
X81972Y206737I515J211D01*
G01*
G75*
G03*
X82534Y206511I1417J2711D01*
G01*
G75*
G02*
X82826Y206417I-1575J-5412D01*
G01*
G75*
G02*
X82971Y206340I-180J-510D01*
G01*
G75*
G02*
X83042Y206246I-126J-170D01*
G01*
G75*
G02*
X83067Y206113I-346J-135D01*
G01*
G75*
G02*
X83010Y205950I-262J0D01*
G01*
G75*
G02*
X82867Y205867I-176J139D01*
G01*
G75*
G02*
X82667Y205893I-55J369D01*
G01*
G75*
G02*
X82463Y206023I283J667D01*
G01*
G75*
G03*
X82258Y206160I-570J-629D01*
G01*
G75*
G03*
X81981Y206264I-748J-1574D01*
G01*
G75*
G03*
X81721Y206315I-445J-1587D01*
G01*
G75*
G03*
X81612Y206262I-13J-113D01*
G01*
G75*
G03*
X81608Y206006I212J-131D01*
G01*
G75*
G03*
X81855Y205741I704J409D01*
G01*
G75*
G03*
X82285Y205539I844J1242D01*
G01*
G75*
G03*
X82777Y205470I491J1716D01*
G01*
G75*
G03*
X83141Y205532I0J1096D01*
G01*
G75*
G03*
X83504Y205715I-530J1504D01*
G01*
G75*
G03*
X83777Y205961I-744J1100D01*
G01*
G75*
G03*
X83866Y206207I-291J245D01*
G01*
G75*
G03*
X83782Y206400I-268J-1D01*
G01*
G75*
G03*
X83485Y206635I-1518J-1612D01*
G01*
G75*
G03*
X83103Y206844I-1409J-2129D01*
G01*
G75*
G03*
X82717Y206967I-772J-1756D01*
G01*
G75*
G02*
X82480Y207056I159J778D01*
G01*
G75*
G02*
X82377Y207200I108J187D01*
G01*
G75*
G02*
X82435Y207320I108J22D01*
G01*
G75*
G02*
X82634Y207366I193J-385D01*
G01*
G75*
G02*
X82761Y207355I-8J-797D01*
G01*
G75*
G02*
X82907Y207322I-265J-1532D01*
G01*
G75*
G02*
X83050Y207275I-418J-1509D01*
G01*
G75*
G02*
X83167Y207220I-296J-781D01*
G01*
G75*
G03*
X83520Y207066I878J1533D01*
G01*
G75*
G03*
X83722Y207114I60J194D01*
G01*
G75*
G03*
X83745Y207292I-99J103D01*
G01*
G75*
G03*
X83523Y207564I-1131J-695D01*
G01*
G75*
G03*
X83208Y207763I-678J-722D01*
G01*
G75*
G03*
X82822Y207849I-461J-1168D01*
G01*
G75*
G03*
X82421Y207810I-77J-1295D01*
G01*
G75*
G03*
X82067Y207650I283J-1097D01*
G01*
X88667Y207744D02*
G75*
G03*
X88702Y207554I537J0D01*
G01*
G75*
G03*
X88892Y207072I17137J6484D01*
G01*
G75*
G03*
X89108Y206576I11817J4863D01*
G01*
G75*
G03*
X89306Y206189I4886J2254D01*
G01*
X89617Y205638D01*
X89292Y205314D01*
G75*
G03*
X89073Y205049I1255J-1258D01*
G01*
G75*
G03*
X88974Y204804I530J-356D01*
G01*
G75*
G03*
X89014Y204641I204J-37D01*
G01*
G75*
G03*
X89159Y204570I145J112D01*
G01*
G75*
G03*
X89391Y204635I0J446D01*
G01*
G75*
G03*
X89663Y204842I-865J1417D01*
G01*
G75*
G03*
X89925Y205139I-1454J1546D01*
G01*
G75*
G03*
X90133Y205485I-1843J1344D01*
G01*
G75*
G03*
X90629Y206519I-89912J43777D01*
G01*
G75*
G03*
X90913Y207158I-13674J6462D01*
G01*
G75*
G03*
X91085Y207595I-10554J4394D01*
G01*
G75*
G03*
X91061Y207711I-105J39D01*
G01*
G75*
G03*
X91005Y207741I-76J-72D01*
G01*
G75*
G03*
X90908Y207750I-91J-478D01*
G01*
G75*
G03*
X90785Y207738I10J-748D01*
G01*
G75*
G03*
X90646Y207706I235J-1334D01*
G01*
G75*
G03*
X90445Y207630I388J-1335D01*
G01*
G75*
G03*
X90359Y207544I76J-161D01*
G01*
G75*
G03*
X90324Y207394I350J-162D01*
G01*
G75*
G03*
X90317Y206995I11890J-387D01*
G01*
X90318Y206381D01*
X90098Y206588D01*
G75*
G03*
X90002Y206663I-469J-498D01*
G01*
G75*
G03*
X89897Y206717I-331J-509D01*
G01*
G75*
G03*
X89799Y206744I-173J-435D01*
G01*
G75*
G03*
X89726Y206737I-23J-139D01*
G01*
G75*
G02*
X89652Y206733I-44J114D01*
G01*
G75*
G02*
X89594Y206773I25J95D01*
G01*
G75*
G02*
X89551Y206871I253J172D01*
G01*
G75*
G02*
X89515Y207050I2165J528D01*
G01*
G75*
G03*
X89442Y207396I-3567J-568D01*
G01*
G75*
G03*
X89348Y207590I-533J-140D01*
G01*
G75*
G03*
X89205Y207698I-262J-200D01*
G01*
G75*
G03*
X88981Y207751I-307J-790D01*
G01*
G75*
G03*
X88861Y207761I-268J-2643D01*
G01*
G75*
G03*
X88759Y207762I-72J-1332D01*
G01*
G75*
G03*
X88680Y207758I38J-1431D01*
G01*
G75*
G03*
X88667Y207744I1J-14D01*
G01*
X90167Y217876D02*
G75*
G02*
X90148Y217844I-37J0D01*
G01*
G75*
G02*
X90093Y217824I-87J154D01*
G01*
G75*
G02*
X90013Y217818I-67J345D01*
G01*
G75*
G02*
X89917Y217828I29J696D01*
G01*
G75*
G03*
X89820Y217838I-112J-619D01*
G01*
G75*
G03*
X89739Y217830I-8J-303D01*
G01*
G75*
G03*
X89686Y217804I37J-145D01*
G01*
G75*
G03*
X89667Y217766I29J-38D01*
G01*
G75*
G02*
X89661Y217728I-117J0D01*
G01*
G75*
G02*
X89643Y217705I-45J16D01*
G01*
G75*
G02*
X89616Y217698I-22J32D01*
G01*
G75*
G02*
X89585Y217709I8J75D01*
G01*
G75*
G03*
X89426Y217713I-83J-135D01*
G01*
G75*
G03*
X89138Y217527I1089J-1995D01*
G01*
G75*
G03*
X88837Y217258I1565J-2059D01*
G01*
G75*
G03*
X88596Y216956I1559J-1493D01*
G01*
X88317Y216535D01*
Y213777D01*
G75*
G03*
X88322Y212694I100942J-28D01*
G01*
G75*
G03*
X88340Y211719I66078J714D01*
G01*
G75*
G03*
X88365Y210901I85862J2194D01*
G01*
G75*
G03*
X88397Y210643I1498J54D01*
G01*
G75*
G03*
X88626Y210115I1415J299D01*
G01*
G75*
G03*
X89067Y209646I1828J1277D01*
G01*
G75*
G03*
X89660Y209293I1602J2017D01*
G01*
G75*
G03*
X90334Y209103I1067J2505D01*
G01*
G75*
G03*
X91656Y209047I936J6428D01*
G01*
G75*
G03*
X92774Y209292I-219J3676D01*
G01*
G75*
G03*
X93593Y209810I-917J2353D01*
G01*
G75*
G03*
X94049Y210551I-1158J1225D01*
G01*
G75*
G03*
X94150Y211204I-2289J686D01*
G01*
G75*
G03*
X94167Y213514I-190719J2618D01*
G01*
G75*
G03*
X94157Y215816I-181424J313D01*
G01*
G75*
G03*
X94059Y216502I-2674J-29D01*
G01*
G75*
G03*
X93806Y217012I-1450J-402D01*
G01*
G75*
G03*
X93332Y217507I-2446J-1867D01*
G01*
G75*
G03*
X92822Y217841I-1678J-2006D01*
G01*
G75*
G03*
X92476Y217825I-159J-319D01*
G01*
G75*
G02*
X92435Y217811I-54J88D01*
G01*
G75*
G02*
X92390Y217814I-15J113D01*
G01*
G75*
G02*
X92349Y217834I31J117D01*
G01*
G75*
G02*
X92318Y217868I76J100D01*
G01*
G75*
G03*
X92165Y217956I-157J-97D01*
G01*
G75*
G03*
X91213Y217969I-1134J-49713D01*
G01*
G75*
G03*
X90254Y217965I-243J-57600D01*
G01*
G75*
G03*
X90167Y217876I1J-88D01*
G01*
X91644Y216614D02*
G75*
G02*
X91777Y216433I-200J-285D01*
G01*
G75*
G02*
X91839Y216111I-1361J-426D01*
G01*
G75*
G02*
X91863Y215478I-9202J-672D01*
G01*
G75*
G02*
X91867Y213567I-465928J-1915D01*
G01*
Y210674D01*
X91626Y210517D01*
G75*
G02*
X91393Y210417I-395J603D01*
G01*
G75*
G02*
X91119Y210394I-219J953D01*
G01*
G75*
G02*
X90866Y210447I50J864D01*
G01*
G75*
G02*
X90695Y210570I139J375D01*
G01*
G75*
G02*
X90597Y210841I340J276D01*
G01*
G75*
G02*
X90568Y213488I640063J8272D01*
G01*
G75*
G02*
X90551Y216125I583260J5150D01*
G01*
G75*
G02*
X90643Y216428I537J2D01*
G01*
G75*
G02*
X90751Y216541I387J-262D01*
G01*
G75*
G02*
X90926Y216653I855J-1146D01*
G01*
G75*
G02*
X91115Y216738I681J-1256D01*
G01*
G75*
G02*
X91269Y216767I163J-448D01*
G01*
G75*
G02*
X91343Y216757I5J-254D01*
G01*
G75*
G02*
X91443Y216723I-259J-909D01*
G01*
G75*
G02*
X91548Y216674I-410J-1009D01*
G01*
G75*
G02*
X91644Y216614I-458J-851D01*
G01*
X95017Y217795D02*
G75*
G03*
X94970Y217704I70J-94D01*
G01*
G75*
G03*
X94955Y216803I141781J-2805D01*
G01*
G75*
G03*
X94951Y215655I58778J-796D01*
G01*
G75*
G03*
X94967Y214062I211764J1349D01*
G01*
X95017Y210405D01*
X95285Y209999D01*
G75*
G03*
X95916Y209433I1405J931D01*
G01*
G75*
G03*
X96894Y209094I1663J3215D01*
G01*
G75*
G03*
X98079Y209016I901J4680D01*
G01*
G75*
G03*
X99318Y209222I-353J5942D01*
G01*
G75*
G03*
X99710Y209383I-481J1731D01*
G01*
G75*
G03*
X100072Y209637I-1036J1865D01*
G01*
G75*
G03*
X100373Y209958I-1387J1598D01*
G01*
G75*
G03*
X100583Y210320I-1376J1041D01*
G01*
G75*
G03*
X100719Y210950I-1556J666D01*
G01*
G75*
G03*
X100776Y214212I-418064J8847D01*
G01*
G75*
G03*
X100816Y217624I-1034396J13880D01*
G01*
G75*
G03*
X100683Y217819I-206J2D01*
G01*
G75*
G03*
X100423Y217868I-267J-697D01*
G01*
G75*
G03*
X99615Y217867I-329J-38381D01*
G01*
G75*
G03*
X98783Y217850I698J-57461D01*
G01*
G75*
G03*
X98617Y217793I8J-294D01*
G01*
G75*
G03*
X98570Y217706I67J-92D01*
G01*
G75*
G03*
X98543Y216825I142594J-4901D01*
G01*
G75*
G03*
X98523Y215722I55725J-1566D01*
G01*
G75*
G03*
X98517Y214236I179220J-1455D01*
G01*
Y210752D01*
X98270Y210553D01*
G75*
G02*
X98052Y210439I-385J476D01*
G01*
G75*
G02*
X97781Y210406I-247J875D01*
G01*
G75*
G02*
X97518Y210453I21J876D01*
G01*
G75*
G02*
X97320Y210577I170J492D01*
G01*
G75*
G02*
X97272Y210685I117J117D01*
G01*
G75*
G02*
X97231Y211593I135089J6547D01*
G01*
G75*
G02*
X97194Y212731I58817J2442D01*
G01*
G75*
G02*
X97167Y214250I182767J4076D01*
G01*
X97117Y217820D01*
X96117Y217845D01*
G75*
G03*
X95726Y217850I-345J-13485D01*
G01*
G75*
G03*
X95381Y217841I35J-8267D01*
G01*
G75*
G03*
X95094Y217824I508J-11059D01*
G01*
G75*
G03*
X95017Y217795I10J-145D01*
G01*
X96417Y207692D02*
G75*
G03*
X96291Y207606I1170J-1861D01*
G01*
G75*
G03*
X96162Y207506I1747J-2380D01*
G01*
G75*
G03*
X96047Y207406I1711J-2084D01*
G01*
G75*
G03*
X95970Y207325I557J-605D01*
G01*
G75*
G03*
X95902Y207216I377J-311D01*
G01*
G75*
G03*
X95899Y207130I102J-46D01*
G01*
G75*
G03*
X95961Y207033I253J95D01*
G01*
G75*
G03*
X96145Y206860I3343J3372D01*
G01*
G75*
G03*
X96301Y206742I824J919D01*
G01*
G75*
G03*
X96504Y206624I1385J2159D01*
G01*
G75*
G03*
X96721Y206524I1208J2322D01*
G01*
G75*
G03*
X96917Y206459I552J1354D01*
G01*
G75*
G02*
X97159Y206389I-867J-3447D01*
G01*
G75*
G02*
X97283Y206322I-127J-387D01*
G01*
G75*
G02*
X97345Y206235I-117J-148D01*
G01*
G75*
G02*
X97367Y206105I-383J-131D01*
G01*
G75*
G02*
X97322Y205910I-447J0D01*
G01*
G75*
G02*
X97201Y205810I-170J83D01*
G01*
G75*
G02*
X97024Y205826I-67J247D01*
G01*
G75*
G02*
X96828Y205959I327J693D01*
G01*
G75*
G03*
X96569Y206150I-909J-967D01*
G01*
G75*
G03*
X96272Y206271I-643J-1147D01*
G01*
G75*
G03*
X96021Y206300I-218J-793D01*
G01*
G75*
G03*
X95900Y206213I6J-135D01*
G01*
G75*
G03*
X95932Y205972I238J-92D01*
G01*
G75*
G03*
X96192Y205723I814J590D01*
G01*
G75*
G03*
X96592Y205535I849J1285D01*
G01*
G75*
G03*
X97025Y205470I433J1420D01*
G01*
G75*
G03*
X97461Y205552I0J1203D01*
G01*
G75*
G03*
X97896Y205793I-674J1731D01*
G01*
G75*
G03*
X98182Y206088I-760J1022D01*
G01*
G75*
G03*
X98185Y206333I-179J124D01*
G01*
G75*
G03*
X98049Y206463I-362J-241D01*
G01*
G75*
G03*
X97696Y206664I-3725J-6134D01*
G01*
G75*
G03*
X97317Y206850I-2825J-5301D01*
G01*
G75*
G03*
X97017Y206955I-803J-1801D01*
G01*
G75*
G02*
X96902Y206996I187J706D01*
G01*
G75*
G02*
X96805Y207053I220J486D01*
G01*
G75*
G02*
X96738Y207117I218J295D01*
G01*
G75*
G02*
X96717Y207177I75J60D01*
G01*
G75*
G02*
X96782Y207293I135J0D01*
G01*
G75*
G02*
X96953Y207348I200J-329D01*
G01*
G75*
G02*
X97180Y207325I48J-658D01*
G01*
G75*
G02*
X97387Y207227I-184J-657D01*
G01*
G75*
G03*
X97711Y207067I674J960D01*
G01*
G75*
G03*
X97949Y207104I81J262D01*
G01*
G75*
G03*
X98006Y207285I-88J127D01*
G01*
G75*
G03*
X97841Y207541I-674J-252D01*
G01*
G75*
G03*
X97541Y207743I-662J-662D01*
G01*
G75*
G03*
X97156Y207841I-528J-1259D01*
G01*
G75*
G03*
X96757Y207825I-144J-1369D01*
G01*
G75*
G03*
X96417Y207692I180J-958D01*
G01*
X103267Y208071D02*
G75*
G02*
X103252Y207985I-256J1D01*
G01*
G75*
G02*
X103208Y207893I-455J161D01*
G01*
G75*
G02*
X103143Y207809I-441J271D01*
G01*
G75*
G02*
X103067Y207747I-281J268D01*
G01*
G75*
G03*
X102990Y207694I575J-920D01*
G01*
G75*
G03*
X102926Y207640I446J-596D01*
G01*
G75*
G03*
X102878Y207590I417J-442D01*
G01*
G75*
G03*
X102867Y207557I39J-32D01*
G01*
G75*
G03*
X102880Y207529I37J0D01*
G01*
G75*
G03*
X102926Y207497I201J238D01*
G01*
G75*
G03*
X102990Y207466I228J390D01*
G01*
G75*
G03*
X103067Y207441I258J667D01*
G01*
G75*
G02*
X103233Y207273I-59J-224D01*
G01*
G75*
G02*
X103261Y207074I-895J-225D01*
G01*
G75*
G02*
X103267Y206645I-15211J-438D01*
G01*
G75*
G03*
X103296Y206109I4860J-1D01*
G01*
G75*
G03*
X103402Y205795I776J86D01*
G01*
G75*
G03*
X103602Y205619I371J221D01*
G01*
G75*
G03*
X103926Y205541I395J919D01*
G01*
G75*
G03*
X104144Y205572I37J517D01*
G01*
G75*
G03*
X104238Y205691I-51J138D01*
G01*
G75*
G03*
X104197Y205892I-317J40D01*
G01*
G75*
G03*
X104005Y206165I-1676J-974D01*
G01*
G75*
G02*
X103878Y206327I2348J1975D01*
G01*
G75*
G02*
X103821Y206435I344J252D01*
G01*
G75*
G02*
X103819Y206510I116J41D01*
G01*
G75*
G02*
X103861Y206567I94J-26D01*
G01*
G75*
G03*
X103912Y206620I-75J122D01*
G01*
G75*
G03*
X103939Y206702I-226J122D01*
G01*
G75*
G03*
X103943Y206811I-438J69D01*
G01*
G75*
G03*
X103921Y206949I-1117J-106D01*
G01*
G75*
G02*
X103894Y207112I1531J335D01*
G01*
G75*
G02*
X103906Y207207I205J23D01*
G01*
G75*
G02*
X103958Y207270I119J-46D01*
G01*
G75*
G02*
X104061Y207318I239J-377D01*
G01*
G75*
G03*
X104209Y207413I-102J324D01*
G01*
G75*
G03*
X104255Y207552I-132J121D01*
G01*
G75*
G03*
X104185Y207740I-403J-42D01*
G01*
G75*
G03*
X103992Y207979I-1660J-1145D01*
G01*
G75*
G03*
X103750Y208180I-932J-879D01*
G01*
G75*
G03*
X103508Y208267I-315J-494D01*
G01*
G75*
G03*
X103339Y208220I-28J-225D01*
G01*
G75*
G03*
X103267Y208071I117J-149D01*
G01*
X103481Y217885D02*
G75*
G02*
X103415Y217854I-140J211D01*
G01*
G75*
G02*
X103330Y217835I-153J486D01*
G01*
G75*
G02*
X103240Y217831I-71J537D01*
G01*
G75*
G02*
X103159Y217843I13J369D01*
G01*
G75*
G03*
X102872Y217830I-122J-469D01*
G01*
G75*
G03*
X102466Y217640I863J-2375D01*
G01*
G75*
G03*
X102073Y217363I1356J-2337D01*
G01*
G75*
G03*
X101810Y217060I858J-1011D01*
G01*
G75*
G03*
X101685Y216826I1584J-1000D01*
G01*
G75*
G03*
X101613Y216604I1010J-451D01*
G01*
G75*
G03*
X101577Y216332I1671J-356D01*
G01*
G75*
G03*
X101567Y215919I8332J-413D01*
G01*
G75*
G03*
X101665Y215063I3791J-1D01*
G01*
G75*
G03*
X101959Y214424I1682J390D01*
G01*
G75*
G03*
X102584Y213776I2817J2087D01*
G01*
G75*
G03*
X103896Y212776I21269J26551D01*
G01*
G75*
G02*
X104462Y212319I-4061J-5604D01*
G01*
G75*
G02*
X104856Y211886I-1945J-2165D01*
G01*
G75*
G02*
X105088Y211469I-1496J-1107D01*
G01*
G75*
G02*
X105167Y211060I-1024J-410D01*
G01*
G75*
G02*
X105153Y210856I-1490J2D01*
G01*
G75*
G02*
X105107Y210722I-364J50D01*
G01*
G75*
G02*
X105013Y210615I-325J189D01*
G01*
G75*
G02*
X104841Y210498I-982J1253D01*
G01*
G75*
G02*
X104657Y210401I-1062J1800D01*
G01*
G75*
G02*
X104524Y210363I-191J410D01*
G01*
G75*
G02*
X104394Y210370I-45J364D01*
G01*
G75*
G02*
X104232Y210421I244J1049D01*
G01*
G75*
G02*
X103983Y210567I395J964D01*
G01*
G75*
G02*
X103847Y210750I265J338D01*
G01*
G75*
G02*
X103785Y211046I909J347D01*
G01*
G75*
G02*
X103768Y211633I11402J615D01*
G01*
G75*
G03*
X103744Y212237I-7865J-10D01*
G01*
G75*
G03*
X103633Y212454I-316J-25D01*
G01*
G75*
G03*
X103390Y212550I-263J-310D01*
G01*
G75*
G03*
X102667Y212567I-724J-14787D01*
G01*
G75*
G03*
X101923Y212546I0J-13273D01*
G01*
G75*
G03*
X101687Y212433I19J-343D01*
G01*
G75*
G03*
X101584Y212181I298J-269D01*
G01*
G75*
G03*
X101567Y211349I19783J-828D01*
G01*
G75*
G03*
X101594Y210550I11673J-2D01*
G01*
G75*
G03*
X101697Y210099I1490J102D01*
G01*
G75*
G03*
X101915Y209778I834J333D01*
G01*
G75*
G03*
X102317Y209470I1722J1827D01*
G01*
G75*
G03*
X103004Y209200I1085J1757D01*
G01*
G75*
G03*
X104031Y209070I1474J7487D01*
G01*
G75*
G03*
X105121Y209080I470J8019D01*
G01*
G75*
G03*
X106029Y209253I-325J4176D01*
G01*
G75*
G03*
X106621Y209538I-647J2101D01*
G01*
G75*
G03*
X107040Y209965I-861J1263D01*
G01*
G75*
G03*
X107291Y210557I-1524J994D01*
G01*
G75*
G03*
X107386Y211331I-3759J854D01*
G01*
G75*
G03*
X107298Y212200I-3627J73D01*
G01*
G75*
G03*
X107000Y212891I-1981J-446D01*
G01*
G75*
G03*
X106406Y213546I-2565J-1731D01*
G01*
G75*
G03*
X105362Y214328I-8837J-10701D01*
G01*
G75*
G02*
X104409Y215034I8086J11921D01*
G01*
G75*
G02*
X103924Y215576I1410J1749D01*
G01*
G75*
G02*
X103801Y216047I671J427D01*
G01*
G75*
G02*
X103974Y216506I814J-45D01*
G01*
G75*
G02*
X104148Y216676I729J-573D01*
G01*
G75*
G02*
X104331Y216755I256J-343D01*
G01*
G75*
G02*
X104545Y216747I88J-507D01*
G01*
G75*
G02*
X104815Y216653I-384J-1528D01*
G01*
G75*
G02*
X104993Y216528I-248J-542D01*
G01*
G75*
G02*
X105098Y216356I-319J-314D01*
G01*
G75*
G02*
X105156Y216072I-1162J-385D01*
G01*
G75*
G02*
X105191Y215520I-13591J-1140D01*
G01*
X105217Y214920D01*
X106196Y214836D01*
G75*
G03*
X107030Y214787I1293J15067D01*
G01*
G75*
G03*
X107323Y214884I14J454D01*
G01*
G75*
G03*
X107452Y215135I-207J264D01*
G01*
G75*
G03*
X107446Y215817I-7411J281D01*
G01*
G75*
G03*
X107378Y216424I-5298J-287D01*
G01*
G75*
G03*
X107243Y216930I-2835J-483D01*
G01*
G75*
G03*
X107062Y217292I-1685J-618D01*
G01*
G75*
G03*
X106849Y217446I-305J-199D01*
G01*
G75*
G02*
X106779Y217469I125J484D01*
G01*
G75*
G02*
X106720Y217502I136J319D01*
G01*
G75*
G02*
X106680Y217537I131J193D01*
G01*
G75*
G02*
X106667Y217569I35J33D01*
G01*
G75*
G03*
X106613Y217657I-98J0D01*
G01*
G75*
G03*
X106377Y217762I-1085J-2111D01*
G01*
G75*
G03*
X106104Y217846I-769J-2015D01*
G01*
G75*
G03*
X105867Y217875I-249J-1049D01*
G01*
G75*
G02*
X105716Y217879I52J5439D01*
G01*
G75*
G02*
X105396Y217891I3261J86708D01*
G01*
G75*
G02*
X105018Y217908I3694J88851D01*
G01*
G75*
G02*
X104617Y217927I5191J112136D01*
G01*
G75*
G03*
X104224Y217939I-533J-10843D01*
G01*
G75*
G03*
X103870Y217935I-98J-7080D01*
G01*
G75*
G03*
X103579Y217919I294J-7956D01*
G01*
G75*
G03*
X103481Y217885I15J-202D01*
G01*
X109908Y207728D02*
G75*
G03*
X109508Y207443I475J-1091D01*
G01*
G75*
G03*
X109238Y207009I1010J-931D01*
G01*
G75*
G03*
X109150Y206520I1212J-471D01*
G01*
G75*
G03*
X109265Y206072I978J15D01*
G01*
G75*
G03*
X109450Y205850I634J339D01*
G01*
G75*
G03*
X109757Y205654I1092J1366D01*
G01*
G75*
G03*
X110116Y205516I861J1713D01*
G01*
G75*
G03*
X110463Y205470I346J1280D01*
G01*
G75*
G03*
X110697Y205485I3J1739D01*
G01*
G75*
G03*
X110871Y205535I-86J633D01*
G01*
G75*
G03*
X111032Y205634I-293J656D01*
G01*
G75*
G03*
X111227Y205810I-1615J1988D01*
G01*
G75*
G03*
X111415Y206019I-1923J1924D01*
G01*
G75*
G03*
X111510Y206183I-473J383D01*
G01*
G75*
G03*
X111554Y206377I-643J248D01*
G01*
G75*
G03*
X111567Y206693I-4012J318D01*
G01*
G75*
G03*
X111557Y206979I-4054J-2D01*
G01*
G75*
G03*
X111522Y207168I-866J-61D01*
G01*
G75*
G03*
X111454Y207310I-500J-150D01*
G01*
G75*
G03*
X111342Y207440I-602J-410D01*
G01*
G75*
G03*
X110983Y207709I-1601J-1757D01*
G01*
G75*
G03*
X110646Y207841I-541J-882D01*
G01*
G75*
G03*
X110298Y207845I-184J-919D01*
G01*
G75*
G03*
X109908Y207728I303J-1708D01*
G01*
X110042Y217795D02*
X107967Y217766D01*
Y217474D01*
G75*
G03*
X107974Y217344I1221J-2D01*
G01*
G75*
G03*
X107995Y217194I2219J238D01*
G01*
G75*
G03*
X108026Y217048I2156J383D01*
G01*
G75*
G03*
X108063Y216931I993J244D01*
G01*
G75*
G03*
X108144Y216790I472J180D01*
G01*
G75*
G03*
X108255Y216713I190J156D01*
G01*
G75*
G03*
X108448Y216674I248J724D01*
G01*
G75*
G03*
X108887Y216649I1026J14496D01*
G01*
X109617Y216620D01*
X109717Y209220D01*
X111964Y209163D01*
X112017Y216620D01*
X112801Y216649D01*
G75*
G03*
X113210Y216670I-569J15169D01*
G01*
G75*
G03*
X113418Y216701I-82J1261D01*
G01*
G75*
G03*
X113513Y216750I-50J213D01*
G01*
G75*
G03*
X113530Y216821I-42J48D01*
G01*
G75*
G02*
X113517Y216880I194J75D01*
G01*
G75*
G02*
X113522Y216940I200J14D01*
G01*
G75*
G02*
X113543Y216992I167J-39D01*
G01*
G75*
G02*
X113578Y217027I91J-56D01*
G01*
G75*
G03*
X113647Y217140I-78J125D01*
G01*
G75*
G03*
X113648Y217402I-1631J138D01*
G01*
G75*
G03*
X113606Y217665I-1617J-124D01*
G01*
G75*
G03*
X113519Y217793I-218J-54D01*
G01*
G75*
G03*
X113447Y217821I-90J-124D01*
G01*
G75*
G03*
X113256Y217839I-472J-4054D01*
G01*
G75*
G03*
X113023Y217848I-278J-3985D01*
G01*
G75*
G03*
X112767Y217846I-65J-5865D01*
G01*
G75*
G02*
X112393Y217835I-1034J30930D01*
G01*
G75*
G02*
X111698Y217822I-6533J321254D01*
G01*
G75*
G02*
X110884Y217808I-6467J348117D01*
G01*
G75*
G02*
X110042Y217795I-6573J398756D01*
G01*
X110848Y207145D02*
G75*
G02*
X110841Y207057I-165J-32D01*
G01*
G75*
G02*
X110790Y207003I-87J31D01*
G01*
G75*
G02*
X110671Y206976I-137J330D01*
G01*
G75*
G02*
X110424Y206970I-242J4937D01*
G01*
G75*
G02*
X110169Y206977I-2J4783D01*
G01*
G75*
G02*
X110047Y207006I19J339D01*
G01*
G75*
G02*
X109988Y207068I47J105D01*
G01*
G75*
G02*
X109967Y207176I265J107D01*
G01*
G75*
G02*
X109985Y207284I324J0D01*
G01*
G75*
G02*
X110039Y207341I91J-32D01*
G01*
G75*
G02*
X110150Y207362I106J-256D01*
G01*
G75*
G02*
X110391Y207351I-85J-4501D01*
G01*
G75*
G02*
X110594Y207327I-170J-2339D01*
G01*
G75*
G02*
X110726Y207287I-84J-521D01*
G01*
G75*
G02*
X110807Y207228I-99J-219D01*
G01*
G75*
G02*
X110848Y207145I-130J-115D01*
G01*
X111367Y206529D02*
G75*
G02*
X111331Y206464I-79J0D01*
G01*
G75*
G02*
X110894Y206176I-26398J39735D01*
G01*
G75*
G02*
X110464Y205903I-17108J26406D01*
G01*
G75*
G02*
X110350Y205870I-114J183D01*
G01*
G75*
G02*
X110243Y205909I0J165D01*
G01*
G75*
G02*
X110066Y206073I1631J1938D01*
G01*
G75*
G02*
X109905Y206254I1788J1754D01*
G01*
G75*
G02*
X109867Y206363I135J109D01*
G01*
G75*
G02*
X109880Y206401I65J0D01*
G01*
G75*
G02*
X109918Y206441I169J-123D01*
G01*
G75*
G02*
X109975Y206477I184J-231D01*
G01*
G75*
G02*
X110042Y206501I162J-346D01*
G01*
G75*
G02*
X110287Y206539I309J-1179D01*
G01*
G75*
G02*
X110788Y206557I850J-16588D01*
G01*
G75*
G02*
X111330Y206566I1214J-56389D01*
G01*
G75*
G02*
X111367Y206529I0J-37D01*
G01*
X116126Y217896D02*
G75*
G02*
X116079Y217867I-87J87D01*
G01*
G75*
G02*
X115985Y217840I-327J957D01*
G01*
G75*
G02*
X115870Y217819I-277J1177D01*
G01*
G75*
G02*
X115748Y217807I-193J1460D01*
G01*
G75*
G03*
X115624Y217791I41J-793D01*
G01*
G75*
G03*
X115507Y217757I154J-742D01*
G01*
G75*
G03*
X115411Y217709I220J-569D01*
G01*
G75*
G03*
X115356Y217656I87J-143D01*
G01*
G75*
G02*
X115322Y217609I-413J263D01*
G01*
G75*
G02*
X115294Y217587I-63J52D01*
G01*
G75*
G02*
X115277Y217591I-7J13D01*
G01*
G75*
G02*
X115268Y217614I27J23D01*
G01*
G75*
G03*
X115199Y217644I-42J-1D01*
G01*
G75*
G03*
X114933Y217384I2509J-2836D01*
G01*
G75*
G03*
X114644Y217040I3373J-3126D01*
G01*
G75*
G03*
X114447Y216728I1678J-1277D01*
G01*
G75*
G03*
X114333Y216405I1126J-578D01*
G01*
G75*
G03*
X114274Y215974I3163J-650D01*
G01*
G75*
G03*
X114245Y215246I12784J-876D01*
G01*
G75*
G03*
X114231Y213576I267215J-3103D01*
G01*
X114217Y210817D01*
X114472Y210319D01*
G75*
G03*
X114769Y209876I2050J1055D01*
G01*
G75*
G03*
X115146Y209540I1416J1207D01*
G01*
G75*
G03*
X115634Y209292I1256J1867D01*
G01*
G75*
G03*
X116267Y209112I1575J4346D01*
G01*
G75*
G03*
X117243Y209013I956J4574D01*
G01*
G75*
G03*
X118204Y209124I-21J4413D01*
G01*
G75*
G03*
X119030Y209420I-813J3570D01*
G01*
G75*
G03*
X119604Y209873I-811J1619D01*
G01*
G75*
G03*
X119709Y210009I-1550J1302D01*
G01*
G75*
G03*
X119806Y210157I-1921J1356D01*
G01*
G75*
G03*
X119882Y210298I-1777J1064D01*
G01*
G75*
G03*
X119921Y210403I-463J231D01*
G01*
G75*
G03*
X119942Y210567I-688J171D01*
G01*
G75*
G03*
X119951Y211467I-223421J2599D01*
G01*
G75*
G03*
X119954Y212518I-103051J796D01*
G01*
G75*
G03*
X119946Y213722I-177904J-502D01*
G01*
G75*
G03*
X119923Y215716I-455023J-4306D01*
G01*
G75*
G03*
X119891Y216443I-12244J-172D01*
G01*
G75*
G03*
X119827Y216839I-2317J-170D01*
G01*
G75*
G03*
X119698Y217104I-683J-171D01*
G01*
G75*
G03*
X119429Y217403I-2428J-1911D01*
G01*
G75*
G03*
X119154Y217624I-1282J-1311D01*
G01*
G75*
G03*
X118877Y217764I-765J-1168D01*
G01*
G75*
G03*
X118602Y217823I-333J-888D01*
G01*
G75*
G02*
X118466Y217835I130J2141D01*
G01*
G75*
G02*
X118342Y217856I194J1568D01*
G01*
G75*
G02*
X118240Y217881I289J1384D01*
G01*
G75*
G02*
X118196Y217907I28J97D01*
G01*
G75*
G03*
X118052Y217967I-146J-146D01*
G01*
G75*
G03*
X117162Y217969I-567J-68951D01*
G01*
G75*
G03*
X116272Y217958I340J-68250D01*
G01*
G75*
G03*
X116126Y217896I4J-211D01*
G01*
X117527Y216693D02*
G75*
G02*
X117713Y216451I-264J-396D01*
G01*
G75*
G02*
X117810Y216010I-1925J-656D01*
G01*
G75*
G02*
X117857Y215221I-8344J-887D01*
G01*
G75*
G02*
X117867Y213496I-148411J-1743D01*
G01*
G75*
G02*
X117855Y211512I-168399J11D01*
G01*
G75*
G02*
X117785Y210841I-3636J43D01*
G01*
G75*
G02*
X117599Y210546I-480J96D01*
G01*
G75*
G02*
X117253Y210430I-346J460D01*
G01*
G75*
G02*
X116831Y210512I0J1126D01*
G01*
G75*
G02*
X116636Y210742I121J300D01*
G01*
G75*
G02*
X116574Y211287I2530J563D01*
G01*
G75*
G02*
X116567Y213511I327512J2213D01*
G01*
G75*
G02*
X116570Y215461I487793J88D01*
G01*
G75*
G02*
X116595Y216104I9546J-40D01*
G01*
G75*
G02*
X116656Y216431I1469J-106D01*
G01*
G75*
G02*
X116789Y216614I332J-102D01*
G01*
G75*
G02*
X116975Y216713I486J-694D01*
G01*
G75*
G02*
X117179Y216761I293J-770D01*
G01*
G75*
G02*
X117372Y216755I74J-697D01*
G01*
G75*
G02*
X117527Y216693I-68J-396D01*
G01*
X118975Y207777D02*
G75*
G02*
X118882Y207745I-114J180D01*
G01*
G75*
G02*
X118664Y207730I-379J3822D01*
G01*
G75*
G02*
X118399Y207728I-163J4065D01*
G01*
G75*
G02*
X118113Y207742I135J5622D01*
G01*
G75*
G03*
X117810Y207758I-502J-6559D01*
G01*
G75*
G03*
X117497Y207761I-222J-7482D01*
G01*
G75*
G03*
X117217Y207752I84J-6660D01*
G01*
G75*
G03*
X117029Y207729I80J-1444D01*
G01*
X116667Y207661D01*
Y206677D01*
G75*
G03*
X116672Y206078I34529J-5D01*
G01*
G75*
G03*
X116698Y205834I1350J23D01*
G01*
G75*
G03*
X116761Y205709I261J52D01*
G01*
G75*
G03*
X116876Y205638I175J156D01*
G01*
G75*
G03*
X117130Y205612I213J816D01*
G01*
G75*
G03*
X117276Y205694I-9J185D01*
G01*
G75*
G03*
X117349Y205908I-371J247D01*
G01*
G75*
G03*
X117367Y206374I-6224J470D01*
G01*
G75*
G02*
X117394Y206861I4437J0D01*
G01*
G75*
G02*
X117487Y207154I770J-85D01*
G01*
G75*
G02*
X117660Y207313I328J-183D01*
G01*
G75*
G02*
X117924Y207370I265J-580D01*
G01*
G75*
G02*
X118063Y207340I-1J-343D01*
G01*
G75*
G02*
X118135Y207259I-52J-117D01*
G01*
G75*
G02*
X118162Y207075I-677J-195D01*
G01*
G75*
G02*
X118167Y206531I-32135J-551D01*
G01*
G75*
G03*
X118173Y206104I13927J-8D01*
G01*
G75*
G03*
X118198Y205854I1861J58D01*
G01*
G75*
G03*
X118243Y205704I617J102D01*
G01*
G75*
G03*
X118317Y205634I122J54D01*
G01*
G75*
G03*
X118534Y205604I172J450D01*
G01*
G75*
G03*
X118674Y205693I-16J180D01*
G01*
G75*
G03*
X118748Y205931I-485J283D01*
G01*
G75*
G03*
X118768Y206406I-6028J488D01*
G01*
G75*
G02*
X118785Y206953I9459J-26D01*
G01*
G75*
G02*
X118854Y207213I691J-41D01*
G01*
G75*
G02*
X118992Y207331I204J-99D01*
G01*
G75*
G02*
X119228Y207353I169J-559D01*
G01*
X119517Y207320D01*
X119531Y206533D01*
G75*
G03*
X119557Y205996I8736J155D01*
G01*
G75*
G03*
X119631Y205742I651J52D01*
G01*
G75*
G03*
X119780Y205616I233J124D01*
G01*
G75*
G03*
X120042Y205571I269J789D01*
G01*
G75*
G03*
X120168Y205605I2J250D01*
G01*
G75*
G03*
X120235Y205694I-72J124D01*
G01*
G75*
G03*
X120262Y205894I-849J215D01*
G01*
G75*
G03*
X120267Y206461I-34676J572D01*
G01*
G75*
G03*
X120260Y207031I-23723J-10D01*
G01*
G75*
G03*
X120226Y207268I-1011J-24D01*
G01*
G75*
G03*
X120141Y207430I-402J-108D01*
G01*
G75*
G03*
X119959Y207611I-1170J-994D01*
G01*
G75*
G03*
X119715Y207769I-750J-893D01*
G01*
G75*
G03*
X119448Y207854I-433J-896D01*
G01*
G75*
G03*
X119192Y207857I-139J-820D01*
G01*
G75*
G03*
X118975Y207777I78J-546D01*
G01*
X120824Y217770D02*
G75*
G03*
X120814Y217727I87J-43D01*
G01*
G75*
G03*
X120810Y216486I4443804J-14719D01*
G01*
G75*
G03*
X120808Y215103I384679J-1130D01*
G01*
G75*
G03*
X120811Y213470I742605J257D01*
G01*
X120822Y209220D01*
X122517D01*
X122498Y211370D01*
G75*
G03*
X122487Y212290I-113619J-950D01*
G01*
G75*
G03*
X122467Y213278I-150873J-2514D01*
G01*
G75*
G03*
X122443Y214188I-137677J-3175D01*
G01*
G75*
G03*
X122418Y214845I-38366J-1143D01*
G01*
X122356Y216170D01*
X122611D01*
G75*
G02*
X122709Y216168I-5J-2672D01*
G01*
G75*
G02*
X122792Y216163I-50J-1370D01*
G01*
G75*
G02*
X122859Y216155I-190J-1891D01*
G01*
G75*
G02*
X122868Y216145I-1J-10D01*
G01*
G75*
G03*
X122960Y215425I4246J177D01*
G01*
G75*
G03*
X123585Y212572I514307J111148D01*
G01*
G75*
G03*
X124256Y209565I1315380J292087D01*
G01*
G75*
G03*
X124388Y209295I633J142D01*
G01*
G75*
G03*
X124550Y209207I191J157D01*
G01*
G75*
G03*
X124981Y209176I580J5029D01*
G01*
G75*
G03*
X125592Y209181I229J7898D01*
G01*
G75*
G03*
X126442Y209235I-1411J28962D01*
G01*
X127267Y209300D01*
Y209676D01*
G75*
G03*
X127258Y209824I-1300J-3D01*
G01*
G75*
G03*
X127233Y209954I-848J-97D01*
G01*
G75*
G03*
X127196Y210052I-587J-161D01*
G01*
G75*
G03*
X127152Y210091I-68J-32D01*
G01*
G75*
G02*
X126989Y210317I76J227D01*
G01*
G75*
G02*
X126993Y212104I100402J628D01*
G01*
G75*
G02*
X127063Y214322I56102J-653D01*
G01*
G75*
G02*
X127233Y217110I139237J-7114D01*
G01*
X127290Y217900D01*
X126753Y217836D01*
G75*
G02*
X126525Y217811I-1187J9844D01*
G01*
G75*
G02*
X126283Y217790I-1211J12409D01*
G01*
G75*
G02*
X126062Y217776I-851J11241D01*
G01*
G75*
G02*
X125906Y217771I-165J2871D01*
G01*
X125594Y217770D01*
X125644Y214945D01*
G75*
G03*
X125673Y213674I131212J2331D01*
G01*
G75*
G03*
X125709Y212796I31111J844D01*
G01*
G75*
G03*
X125750Y212141I46792J2594D01*
G01*
G75*
G03*
X125806Y212046I123J9D01*
G01*
G75*
G02*
X125822Y212019I-21J-31D01*
G01*
G75*
G02*
X125808Y211994I-25J-2D01*
G01*
G75*
G02*
X125749Y211977I-77J156D01*
G01*
G75*
G02*
X125654Y211971I-102J944D01*
G01*
G75*
G02*
X125546Y211980I-2J626D01*
G01*
G75*
G02*
X125437Y212007I115J687D01*
G01*
G75*
G02*
X125345Y212048I193J562D01*
G01*
G75*
G02*
X125286Y212097I96J178D01*
G01*
G75*
G02*
X125234Y212200I198J164D01*
G01*
G75*
G02*
X125120Y212681I36794J8956D01*
G01*
G75*
G02*
X124996Y213253I22067J5087D01*
G01*
G75*
G02*
X124869Y213907I37277J7561D01*
G01*
G75*
G03*
X124729Y214633I-45829J-8496D01*
G01*
G75*
G03*
X124565Y215423I-64757J-13043D01*
G01*
G75*
G03*
X124402Y216160I-59808J-12808D01*
G01*
G75*
G03*
X124270Y216705I-18581J-4223D01*
G01*
X123982Y217820D01*
X122415D01*
G75*
G03*
X121813Y217816I28J-50385D01*
G01*
G75*
G03*
X121302Y217805I311J-26308D01*
G01*
G75*
G03*
X120856Y217790I3319J-105617D01*
G01*
G75*
G03*
X120824Y217770I1J-37D01*
G01*
X125817Y207686D02*
G75*
G03*
X125691Y207602I1082J-1771D01*
G01*
G75*
G03*
X125562Y207504I1630J-2273D01*
G01*
G75*
G03*
X125447Y207406I1603J-1989D01*
G01*
G75*
G03*
X125370Y207325I533J-584D01*
G01*
G75*
G03*
X125302Y207216I377J-311D01*
G01*
G75*
G03*
X125299Y207130I102J-46D01*
G01*
G75*
G03*
X125361Y207033I253J95D01*
G01*
G75*
G03*
X125545Y206860I3343J3372D01*
G01*
G75*
G03*
X125701Y206742I824J919D01*
G01*
G75*
G03*
X125904Y206624I1385J2159D01*
G01*
G75*
G03*
X126121Y206524I1208J2322D01*
G01*
G75*
G03*
X126317Y206459I552J1354D01*
G01*
G75*
G02*
X126511Y206401I-541J-2154D01*
G01*
G75*
G02*
X126651Y206335I-257J-733D01*
G01*
G75*
G02*
X126738Y206265I-200J-333D01*
G01*
G75*
G02*
X126767Y206191I-80J-74D01*
G01*
G75*
G03*
X126778Y206119I230J-1D01*
G01*
G75*
G03*
X126816Y206027I685J227D01*
G01*
G75*
G03*
X126870Y205933I744J364D01*
G01*
G75*
G03*
X126933Y205851I585J390D01*
G01*
G75*
G02*
X127029Y205739I-1640J-1484D01*
G01*
G75*
G02*
X127018Y205713I-13J-10D01*
G01*
G75*
G02*
X126955Y205720I-17J142D01*
G01*
G75*
G02*
X126667Y205820I9735J28480D01*
G01*
G75*
G02*
X126492Y205886I1422J4033D01*
G01*
G75*
G02*
X126325Y205958I1440J3574D01*
G01*
G75*
G02*
X126184Y206026I1433J3118D01*
G01*
G75*
G02*
X126110Y206076I189J365D01*
G01*
G75*
G03*
X125924Y206187I-449J-542D01*
G01*
G75*
G03*
X125660Y206270I-674J-1670D01*
G01*
G75*
G03*
X125410Y206311I-422J-1809D01*
G01*
G75*
G03*
X125312Y206262I-9J-104D01*
G01*
G75*
G03*
X125308Y206009I210J-130D01*
G01*
G75*
G03*
X125552Y205743I718J414D01*
G01*
G75*
G03*
X125972Y205540I846J1215D01*
G01*
G75*
G03*
X126448Y205470I475J1585D01*
G01*
G75*
G03*
X126808Y205513I1J1541D01*
G01*
G75*
G03*
X127063Y205642I-144J601D01*
G01*
G75*
G03*
X127214Y205860I-330J389D01*
G01*
G75*
G03*
X127267Y206164I-854J305D01*
G01*
G75*
G03*
X127219Y206451I-888J-1D01*
G01*
G75*
G03*
X127081Y206660I-472J-160D01*
G01*
G75*
G03*
X126820Y206821I-571J-634D01*
G01*
G75*
G03*
X126376Y206967I-1556J-3982D01*
G01*
G75*
G02*
X126210Y207021I463J1726D01*
G01*
G75*
G02*
X126083Y207083I269J710D01*
G01*
G75*
G02*
X126006Y207145I200J331D01*
G01*
G75*
G02*
X125993Y207200I40J38D01*
G01*
G75*
G02*
X126107Y207309I157J-52D01*
G01*
G75*
G02*
X126379Y207348I305J-1137D01*
G01*
G75*
G02*
X126685Y207323I39J-1374D01*
G01*
G75*
G02*
X126920Y207227I-129J-653D01*
G01*
G75*
G03*
X127133Y207095I2603J3966D01*
G01*
G75*
G03*
X127214Y207087I48J83D01*
G01*
G75*
G03*
X127258Y207144I-22J62D01*
G01*
G75*
G03*
X127267Y207350I-2371J207D01*
G01*
G75*
G03*
X127251Y207497I-688J0D01*
G01*
G75*
G03*
X127201Y207598I-233J-52D01*
G01*
G75*
G03*
X127105Y207676I-237J-197D01*
G01*
G75*
G03*
X126935Y207750I-664J-1294D01*
G01*
G75*
G03*
X126611Y207841I-781J-2159D01*
G01*
G75*
G03*
X126333Y207861I-216J-1060D01*
G01*
G75*
G03*
X126077Y207809I53J-935D01*
G01*
G75*
G03*
X125817Y207686I454J-1289D01*
G01*
D02*
D11*
X89434Y15654D02*
Y14347D01*
Y14254D01*
X89430Y14174D01*
X89426Y14101D01*
X89422Y14035D01*
X89415Y13978D01*
X89407Y13931D01*
X89395Y13893D01*
X89384Y13862D01*
X89357Y13816D01*
X89322Y13774D01*
X89272Y13739D01*
X89219Y13705D01*
X89184Y13693D01*
X89146Y13681D01*
X89099Y13670D01*
X89049Y13663D01*
X88992Y13655D01*
X88926Y13651D01*
X88857Y13647D01*
X88780D01*
Y13520D01*
X91176D01*
Y13647D01*
X91095D01*
X91026Y13651D01*
X90960Y13655D01*
X90899Y13663D01*
X90849Y13670D01*
X90803Y13681D01*
X90764Y13693D01*
X90730Y13709D01*
X90676Y13739D01*
X90633Y13778D01*
X90595Y13820D01*
X90568Y13866D01*
X90557Y13893D01*
X90549Y13931D01*
X90537Y13978D01*
X90533Y14035D01*
X90526Y14101D01*
X90522Y14174D01*
Y14254D01*
Y14347D01*
Y17400D01*
Y17492D01*
Y17572D01*
X90526Y17646D01*
X90533Y17711D01*
X90537Y17769D01*
X90549Y17815D01*
X90557Y17853D01*
X90568Y17880D01*
X90595Y17930D01*
X90633Y17969D01*
X90680Y18007D01*
X90733Y18042D01*
X90764Y18053D01*
X90806Y18065D01*
X90849Y18076D01*
X90902Y18084D01*
X90960Y18092D01*
X91026Y18095D01*
X91098Y18099D01*
X91176D01*
Y18226D01*
X89122D01*
X88999D01*
X88876Y18219D01*
X88761Y18215D01*
X88650Y18203D01*
X88546Y18191D01*
X88442Y18176D01*
X88346Y18157D01*
X88254Y18134D01*
X88165Y18111D01*
X88080Y18084D01*
X88000Y18057D01*
X87923Y18022D01*
X87854Y17988D01*
X87788Y17949D01*
X87727Y17911D01*
X87669Y17865D01*
X87565Y17772D01*
X87473Y17672D01*
X87400Y17569D01*
X87339Y17461D01*
X87289Y17346D01*
X87254Y17223D01*
X87235Y17096D01*
X87227Y16965D01*
X87231Y16854D01*
X87246Y16742D01*
X87265Y16638D01*
X87296Y16538D01*
X87339Y16442D01*
X87389Y16350D01*
X87446Y16265D01*
X87511Y16181D01*
X87585Y16104D01*
X87665Y16031D01*
X87754Y15965D01*
X87850Y15908D01*
X87950Y15854D01*
X88057Y15808D01*
X88173Y15769D01*
X88296Y15739D01*
X88388Y15715D01*
X88492Y15700D01*
X88611Y15685D01*
X88750Y15673D01*
X88896Y15665D01*
X89061Y15658D01*
X89242Y15654D01*
X89434D01*
Y17957D02*
Y15923D01*
X89380Y15919D01*
X89334D01*
X89292Y15915D01*
X89261D01*
X89157Y15919D01*
X89061Y15931D01*
X88969Y15950D01*
X88884Y15977D01*
X88807Y16015D01*
X88734Y16058D01*
X88669Y16108D01*
X88607Y16169D01*
X88554Y16235D01*
X88507Y16311D01*
X88469Y16396D01*
X88438Y16488D01*
X88411Y16588D01*
X88396Y16700D01*
X88384Y16819D01*
X88380Y16946D01*
X88384Y17073D01*
X88396Y17192D01*
X88411Y17300D01*
X88438Y17400D01*
X88469Y17492D01*
X88507Y17576D01*
X88554Y17650D01*
X88607Y17715D01*
X88669Y17772D01*
X88738Y17819D01*
X88811Y17861D01*
X88892Y17896D01*
X88984Y17922D01*
X89076Y17942D01*
X89180Y17953D01*
X89292Y17957D01*
X89434D01*
X84697Y18322D02*
Y14474D01*
Y14370D01*
X84693Y14278D01*
Y14193D01*
X84685Y14116D01*
X84682Y14055D01*
X84674Y14001D01*
X84667Y13955D01*
X84659Y13920D01*
X84635Y13862D01*
X84601Y13809D01*
X84555Y13762D01*
X84497Y13724D01*
X84467Y13705D01*
X84428Y13689D01*
X84386Y13678D01*
X84339Y13666D01*
X84290Y13659D01*
X84232Y13651D01*
X84174Y13647D01*
X84109D01*
X84001D01*
Y13520D01*
X86481D01*
Y13647D01*
X86358D01*
X86285D01*
X86216Y13651D01*
X86154Y13655D01*
X86096Y13663D01*
X86046Y13674D01*
X86000Y13685D01*
X85962Y13701D01*
X85928Y13716D01*
X85866Y13755D01*
X85820Y13797D01*
X85781Y13851D01*
X85754Y13909D01*
X85743Y13943D01*
X85735Y13989D01*
X85728Y14043D01*
X85720Y14108D01*
X85716Y14185D01*
X85712Y14270D01*
X85708Y14366D01*
Y14474D01*
Y16911D01*
Y16988D01*
Y17061D01*
X85712Y17123D01*
X85716Y17176D01*
X85720Y17226D01*
X85728Y17265D01*
X85731Y17296D01*
X85739Y17322D01*
X85758Y17361D01*
X85785Y17396D01*
X85816Y17430D01*
X85854Y17461D01*
X85900Y17484D01*
X85947Y17503D01*
X85996Y17515D01*
X86054Y17519D01*
X86146Y17511D01*
X86250Y17492D01*
X86362Y17457D01*
X86485Y17407D01*
X86546Y17530D01*
X84813Y18322D01*
X84697D01*
X80160Y15873D02*
X80164Y15700D01*
X80172Y15527D01*
X80187Y15358D01*
X80210Y15193D01*
X80237Y15027D01*
X80272Y14870D01*
X80310Y14712D01*
X80356Y14558D01*
X80387Y14466D01*
X80422Y14378D01*
X80456Y14297D01*
X80495Y14216D01*
X80537Y14143D01*
X80580Y14074D01*
X80626Y14005D01*
X80676Y13943D01*
X80780Y13831D01*
X80887Y13728D01*
X81006Y13639D01*
X81129Y13563D01*
X81194Y13532D01*
X81260Y13501D01*
X81325Y13478D01*
X81394Y13459D01*
X81464Y13443D01*
X81533Y13432D01*
X81606Y13428D01*
X81679Y13424D01*
X81764Y13428D01*
X81848Y13435D01*
X81925Y13447D01*
X82006Y13467D01*
X82079Y13493D01*
X82152Y13520D01*
X82225Y13555D01*
X82294Y13597D01*
X82363Y13643D01*
X82429Y13693D01*
X82490Y13747D01*
X82552Y13809D01*
X82613Y13874D01*
X82671Y13943D01*
X82729Y14016D01*
X82782Y14093D01*
X82817Y14155D01*
X82856Y14220D01*
X82890Y14293D01*
X82925Y14370D01*
X82956Y14451D01*
X82990Y14535D01*
X83021Y14628D01*
X83048Y14720D01*
X83082Y14854D01*
X83113Y14989D01*
X83140Y15124D01*
X83159Y15262D01*
X83178Y15396D01*
X83190Y15539D01*
X83194Y15677D01*
X83198Y15819D01*
X83194Y16008D01*
X83182Y16192D01*
X83167Y16373D01*
X83144Y16554D01*
X83113Y16727D01*
X83075Y16896D01*
X83032Y17065D01*
X82982Y17226D01*
X82936Y17354D01*
X82882Y17476D01*
X82825Y17588D01*
X82759Y17696D01*
X82690Y17792D01*
X82613Y17884D01*
X82533Y17965D01*
X82444Y18038D01*
X82352Y18107D01*
X82259Y18165D01*
X82167Y18211D01*
X82071Y18253D01*
X81975Y18284D01*
X81879Y18303D01*
X81779Y18319D01*
X81679Y18322D01*
X81579Y18319D01*
X81479Y18303D01*
X81383Y18284D01*
X81283Y18253D01*
X81191Y18215D01*
X81094Y18165D01*
X81006Y18107D01*
X80914Y18042D01*
X80829Y17969D01*
X80748Y17892D01*
X80676Y17807D01*
X80606Y17715D01*
X80545Y17619D01*
X80487Y17515D01*
X80437Y17407D01*
X80391Y17292D01*
X80337Y17126D01*
X80291Y16961D01*
X80253Y16788D01*
X80218Y16611D01*
X80191Y16435D01*
X80176Y16250D01*
X80164Y16065D01*
X80160Y15873D01*
X81229Y15881D02*
Y16031D01*
Y16173D01*
Y16307D01*
Y16435D01*
Y16554D01*
Y16661D01*
X81233Y16765D01*
Y16857D01*
Y16942D01*
Y17023D01*
X81237Y17092D01*
Y17154D01*
Y17207D01*
X81241Y17254D01*
Y17292D01*
X81244Y17319D01*
X81252Y17434D01*
X81268Y17542D01*
X81283Y17638D01*
X81302Y17722D01*
X81325Y17799D01*
X81348Y17869D01*
X81379Y17926D01*
X81410Y17972D01*
X81460Y18022D01*
X81521Y18057D01*
X81598Y18076D01*
X81691Y18084D01*
X81760Y18080D01*
X81825Y18061D01*
X81879Y18038D01*
X81925Y17999D01*
X81956Y17969D01*
X81987Y17926D01*
X82010Y17884D01*
X82033Y17834D01*
X82052Y17776D01*
X82071Y17715D01*
X82087Y17646D01*
X82098Y17572D01*
X82106Y17526D01*
X82109Y17472D01*
X82113Y17404D01*
X82117Y17322D01*
X82121Y17230D01*
X82125Y17126D01*
X82129Y17011D01*
X82133Y16884D01*
X82137Y16742D01*
Y16592D01*
X82141Y16427D01*
Y16250D01*
X82144Y16065D01*
Y15865D01*
Y15654D01*
Y15431D01*
Y15308D01*
Y15189D01*
X82141Y15077D01*
Y14970D01*
X82137Y14870D01*
X82133Y14774D01*
Y14681D01*
X82125Y14597D01*
X82121Y14512D01*
X82117Y14439D01*
X82109Y14366D01*
X82106Y14301D01*
X82098Y14239D01*
X82091Y14185D01*
X82083Y14135D01*
X82075Y14089D01*
X82059Y14031D01*
X82044Y13978D01*
X82029Y13928D01*
X82013Y13885D01*
X81991Y13847D01*
X81971Y13812D01*
X81948Y13785D01*
X81925Y13762D01*
X81875Y13724D01*
X81813Y13697D01*
X81744Y13681D01*
X81667Y13678D01*
X81587Y13685D01*
X81518Y13705D01*
X81460Y13739D01*
X81410Y13789D01*
X81375Y13839D01*
X81344Y13901D01*
X81318Y13962D01*
X81294Y14035D01*
X81275Y14112D01*
X81260Y14201D01*
X81248Y14289D01*
X81244Y14389D01*
X81229Y15881D01*
X79964Y12440D02*
X76277D01*
Y11986D01*
X79964D01*
Y12440D01*
X74455Y15665D02*
Y14347D01*
Y14254D01*
X74451Y14174D01*
X74447Y14101D01*
X74443Y14035D01*
X74435Y13978D01*
X74428Y13931D01*
X74420Y13893D01*
X74409Y13862D01*
X74382Y13816D01*
X74343Y13774D01*
X74297Y13739D01*
X74243Y13705D01*
X74209Y13693D01*
X74170Y13681D01*
X74124Y13670D01*
X74074Y13663D01*
X74017Y13655D01*
X73951Y13651D01*
X73878Y13647D01*
X73801D01*
Y13520D01*
X76212D01*
Y13647D01*
X76135D01*
X76062Y13651D01*
X75996Y13655D01*
X75939Y13663D01*
X75885Y13670D01*
X75839Y13681D01*
X75800Y13693D01*
X75770Y13709D01*
X75716Y13739D01*
X75670Y13778D01*
X75631Y13820D01*
X75604Y13866D01*
X75593Y13893D01*
X75585Y13931D01*
X75578Y13978D01*
X75570Y14035D01*
X75566Y14101D01*
X75562Y14174D01*
X75558Y14254D01*
Y14347D01*
Y17400D01*
Y17492D01*
X75562Y17572D01*
X75566Y17646D01*
X75570Y17711D01*
X75578Y17769D01*
X75585Y17815D01*
X75593Y17853D01*
X75604Y17880D01*
X75631Y17930D01*
X75670Y17969D01*
X75716Y18007D01*
X75770Y18042D01*
X75804Y18053D01*
X75843Y18065D01*
X75889Y18076D01*
X75939Y18084D01*
X75996Y18092D01*
X76062Y18095D01*
X76135Y18099D01*
X76212D01*
Y18226D01*
X74024D01*
X73817Y18222D01*
X73624Y18219D01*
X73447Y18211D01*
X73286Y18195D01*
X73136Y18180D01*
X73002Y18161D01*
X72882Y18134D01*
X72774Y18107D01*
X72678Y18076D01*
X72586Y18038D01*
X72498Y17992D01*
X72413Y17942D01*
X72336Y17884D01*
X72263Y17819D01*
X72194Y17749D01*
X72129Y17672D01*
X72071Y17592D01*
X72021Y17507D01*
X71975Y17419D01*
X71940Y17326D01*
X71913Y17234D01*
X71894Y17134D01*
X71883Y17034D01*
X71879Y16927D01*
X71883Y16800D01*
X71902Y16681D01*
X71933Y16565D01*
X71971Y16454D01*
X72025Y16350D01*
X72090Y16250D01*
X72167Y16157D01*
X72256Y16069D01*
X72317Y16015D01*
X72386Y15965D01*
X72459Y15923D01*
X72540Y15881D01*
X72628Y15843D01*
X72721Y15804D01*
X72821Y15773D01*
X72924Y15746D01*
X71794Y14151D01*
X71741Y14078D01*
X71691Y14008D01*
X71644Y13951D01*
X71602Y13897D01*
X71567Y13855D01*
X71533Y13816D01*
X71502Y13785D01*
X71475Y13766D01*
X71402Y13716D01*
X71321Y13681D01*
X71237Y13659D01*
X71144Y13647D01*
Y13520D01*
X72628D01*
X74147Y15665D01*
X74455D01*
Y17972D02*
Y15911D01*
X74259D01*
X74139D01*
X74032Y15915D01*
X73928Y15923D01*
X73836Y15935D01*
X73747Y15946D01*
X73670Y15961D01*
X73597Y15981D01*
X73536Y16000D01*
X73474Y16023D01*
X73420Y16054D01*
X73370Y16085D01*
X73320Y16123D01*
X73274Y16165D01*
X73232Y16211D01*
X73194Y16261D01*
X73159Y16319D01*
X73124Y16377D01*
X73098Y16442D01*
X73074Y16511D01*
X73055Y16584D01*
X73040Y16661D01*
X73028Y16742D01*
X73024Y16830D01*
X73020Y16923D01*
X73024Y17050D01*
X73036Y17173D01*
X73055Y17284D01*
X73082Y17388D01*
X73120Y17484D01*
X73163Y17569D01*
X73213Y17646D01*
X73270Y17715D01*
X73340Y17776D01*
X73417Y17826D01*
X73505Y17872D01*
X73601Y17907D01*
X73709Y17938D01*
X73824Y17957D01*
X73947Y17969D01*
X74082Y17972D01*
X74455D01*
X66308Y18334D02*
Y16673D01*
X66435D01*
X66496Y16838D01*
X66565Y16992D01*
X66642Y17138D01*
X66727Y17272D01*
X66815Y17396D01*
X66915Y17511D01*
X67019Y17615D01*
X67131Y17707D01*
X67250Y17788D01*
X67369Y17861D01*
X67492Y17922D01*
X67619Y17972D01*
X67746Y18011D01*
X67880Y18038D01*
X68011Y18057D01*
X68149Y18061D01*
X68276Y18057D01*
X68403Y18042D01*
X68519Y18019D01*
X68634Y17988D01*
X68738Y17945D01*
X68841Y17896D01*
X68937Y17834D01*
X69026Y17765D01*
X69111Y17688D01*
X69191Y17600D01*
X69261Y17507D01*
X69326Y17407D01*
X69383Y17304D01*
X69437Y17188D01*
X69483Y17065D01*
X69522Y16938D01*
X69557Y16804D01*
X69587Y16669D01*
X69610Y16534D01*
X69633Y16400D01*
X69649Y16261D01*
X69660Y16127D01*
X69668Y15989D01*
Y15846D01*
Y15681D01*
X69660Y15519D01*
X69645Y15366D01*
X69630Y15212D01*
X69607Y15066D01*
X69580Y14927D01*
X69549Y14793D01*
X69510Y14662D01*
X69468Y14539D01*
X69418Y14424D01*
X69364Y14316D01*
X69303Y14220D01*
X69233Y14131D01*
X69161Y14051D01*
X69080Y13978D01*
X68995Y13912D01*
X68903Y13859D01*
X68811Y13809D01*
X68711Y13766D01*
X68607Y13731D01*
X68499Y13709D01*
X68388Y13689D01*
X68272Y13678D01*
X68153Y13674D01*
X68065Y13678D01*
X67980Y13681D01*
X67892Y13693D01*
X67804Y13709D01*
X67715Y13731D01*
X67623Y13755D01*
X67530Y13781D01*
X67438Y13816D01*
Y14796D01*
Y14862D01*
X67442Y14924D01*
Y14977D01*
X67446Y15024D01*
X67454Y15066D01*
X67461Y15104D01*
X67469Y15131D01*
X67476Y15154D01*
X67500Y15196D01*
X67534Y15235D01*
X67580Y15270D01*
X67634Y15304D01*
X67696Y15331D01*
X67765Y15354D01*
X67842Y15366D01*
X67922Y15370D01*
X68046D01*
Y15496D01*
X65754D01*
Y15370D01*
X65816Y15366D01*
X65873Y15358D01*
X65927Y15350D01*
X65977Y15343D01*
X66019Y15335D01*
X66058Y15323D01*
X66089Y15312D01*
X66119Y15296D01*
X66165Y15266D01*
X66208Y15227D01*
X66246Y15177D01*
X66277Y15120D01*
X66285Y15100D01*
X66289Y15074D01*
X66296Y15043D01*
X66300Y15004D01*
X66304Y14962D01*
Y14912D01*
X66308Y14858D01*
Y14796D01*
Y13816D01*
X66535Y13724D01*
X66769Y13639D01*
X67004Y13570D01*
X67246Y13513D01*
X67492Y13470D01*
X67742Y13439D01*
X68000Y13420D01*
X68257Y13413D01*
X68422Y13417D01*
X68580Y13424D01*
X68726Y13439D01*
X68872Y13459D01*
X69007Y13482D01*
X69133Y13516D01*
X69257Y13551D01*
X69368Y13593D01*
X69583Y13693D01*
X69787Y13805D01*
X69976Y13931D01*
X70149Y14074D01*
X70233Y14147D01*
X70310Y14224D01*
X70383Y14304D01*
X70452Y14385D01*
X70514Y14470D01*
X70576Y14558D01*
X70629Y14647D01*
X70679Y14739D01*
X70737Y14862D01*
X70787Y14985D01*
X70829Y15116D01*
X70860Y15246D01*
X70887Y15381D01*
X70906Y15519D01*
X70918Y15665D01*
X70921Y15812D01*
Y15943D01*
X70910Y16069D01*
X70894Y16196D01*
X70875Y16319D01*
X70848Y16442D01*
X70818Y16557D01*
X70779Y16677D01*
X70737Y16788D01*
X70687Y16900D01*
X70629Y17007D01*
X70572Y17111D01*
X70502Y17215D01*
X70429Y17315D01*
X70352Y17415D01*
X70268Y17511D01*
X70176Y17603D01*
X70083Y17692D01*
X69983Y17772D01*
X69883Y17849D01*
X69780Y17922D01*
X69672Y17988D01*
X69564Y18049D01*
X69449Y18103D01*
X69333Y18149D01*
X69215Y18195D01*
X69091Y18230D01*
X68969Y18261D01*
X68841Y18288D01*
X68711Y18307D01*
X68576Y18322D01*
X68438Y18330D01*
X68299Y18334D01*
X68126Y18330D01*
X67965Y18319D01*
X67811Y18303D01*
X67665Y18280D01*
X67626Y18269D01*
X67580Y18257D01*
X67526Y18241D01*
X67465Y18226D01*
X67404Y18203D01*
X67330Y18180D01*
X67254Y18153D01*
X67173Y18122D01*
X67092Y18092D01*
X67019Y18065D01*
X66954Y18042D01*
X66900Y18022D01*
X66854Y18011D01*
X66815Y17999D01*
X66788Y17992D01*
X66769D01*
X66719Y17995D01*
X66673Y18011D01*
X66631Y18030D01*
X66589Y18065D01*
X66565Y18084D01*
X66546Y18107D01*
X66527Y18134D01*
X66508Y18165D01*
X66489Y18203D01*
X66469Y18241D01*
X66454Y18288D01*
X66435Y18334D01*
X66308D01*
X62528Y16015D02*
X62367Y15973D01*
X62217Y15931D01*
X62079Y15889D01*
X61956Y15843D01*
X61844Y15793D01*
X61744Y15743D01*
X61656Y15689D01*
X61583Y15635D01*
X61490Y15554D01*
X61409Y15466D01*
X61344Y15373D01*
X61287Y15273D01*
X61244Y15170D01*
X61213Y15058D01*
X61198Y14939D01*
X61191Y14816D01*
X61198Y14689D01*
X61217Y14562D01*
X61252Y14447D01*
X61298Y14331D01*
X61356Y14224D01*
X61429Y14124D01*
X61517Y14028D01*
X61617Y13939D01*
X61756Y13843D01*
X61909Y13755D01*
X62079Y13685D01*
X62259Y13624D01*
X62459Y13578D01*
X62670Y13547D01*
X62898Y13528D01*
X63140Y13520D01*
X65535D01*
Y13647D01*
X65454D01*
X65381Y13651D01*
X65316Y13655D01*
X65258Y13663D01*
X65208Y13670D01*
X65162Y13681D01*
X65124Y13693D01*
X65089Y13709D01*
X65035Y13739D01*
X64989Y13778D01*
X64954Y13820D01*
X64928Y13866D01*
X64916Y13893D01*
X64904Y13931D01*
X64897Y13978D01*
X64893Y14035D01*
X64885Y14101D01*
X64881Y14174D01*
Y14254D01*
Y14347D01*
Y17400D01*
Y17492D01*
Y17572D01*
X64885Y17646D01*
X64893Y17711D01*
X64897Y17769D01*
X64904Y17815D01*
X64916Y17853D01*
X64928Y17880D01*
X64954Y17930D01*
X64993Y17969D01*
X65035Y18007D01*
X65093Y18042D01*
X65124Y18053D01*
X65162Y18065D01*
X65208Y18076D01*
X65262Y18084D01*
X65320Y18092D01*
X65385Y18095D01*
X65454Y18099D01*
X65535D01*
Y18226D01*
X63278D01*
X63082Y18222D01*
X62901Y18219D01*
X62736Y18207D01*
X62586Y18191D01*
X62452Y18169D01*
X62328Y18145D01*
X62221Y18115D01*
X62132Y18080D01*
X62048Y18042D01*
X61971Y17999D01*
X61898Y17953D01*
X61829Y17903D01*
X61767Y17846D01*
X61706Y17784D01*
X61652Y17719D01*
X61602Y17650D01*
X61556Y17580D01*
X61513Y17507D01*
X61483Y17430D01*
X61456Y17357D01*
X61433Y17280D01*
X61417Y17200D01*
X61409Y17123D01*
X61406Y17042D01*
X61409Y16957D01*
X61421Y16877D01*
X61440Y16796D01*
X61467Y16719D01*
X61502Y16646D01*
X61544Y16573D01*
X61594Y16504D01*
X61656Y16435D01*
X61721Y16373D01*
X61802Y16311D01*
X61894Y16254D01*
X61998Y16196D01*
X62113Y16146D01*
X62240Y16100D01*
X62378Y16054D01*
X62528Y16015D01*
X63785Y16108D02*
X63667D01*
X63555Y16115D01*
X63451Y16123D01*
X63355Y16135D01*
X63270Y16150D01*
X63190Y16169D01*
X63120Y16192D01*
X63055Y16219D01*
X62944Y16281D01*
X62848Y16354D01*
X62767Y16435D01*
X62698Y16531D01*
X62667Y16584D01*
X62640Y16638D01*
X62620Y16700D01*
X62602Y16761D01*
X62590Y16827D01*
X62578Y16896D01*
X62571Y16969D01*
Y17046D01*
Y17123D01*
X62578Y17196D01*
X62586Y17265D01*
X62602Y17330D01*
X62617Y17392D01*
X62640Y17453D01*
X62667Y17507D01*
X62694Y17561D01*
X62763Y17653D01*
X62844Y17734D01*
X62940Y17807D01*
X63047Y17865D01*
X63109Y17888D01*
X63178Y17907D01*
X63259Y17926D01*
X63347Y17942D01*
X63443Y17953D01*
X63547Y17961D01*
X63663Y17965D01*
X63785D01*
Y16108D01*
Y15839D02*
Y14328D01*
X63789Y14158D01*
X63782Y14070D01*
X63763Y13993D01*
X63736Y13928D01*
X63693Y13878D01*
X63643Y13835D01*
X63578Y13805D01*
X63505Y13785D01*
X63417Y13781D01*
X63351D01*
X63286Y13789D01*
X63220Y13797D01*
X63155Y13812D01*
X63094Y13828D01*
X63036Y13851D01*
X62974Y13874D01*
X62917Y13905D01*
X62809Y13974D01*
X62713Y14055D01*
X62632Y14151D01*
X62567Y14262D01*
X62513Y14381D01*
X62474Y14508D01*
X62452Y14643D01*
X62444Y14781D01*
X62448Y14862D01*
X62452Y14943D01*
X62463Y15020D01*
X62478Y15093D01*
X62498Y15166D01*
X62521Y15239D01*
X62548Y15308D01*
X62578Y15373D01*
X62617Y15435D01*
X62655Y15493D01*
X62702Y15546D01*
X62752Y15596D01*
X62801Y15639D01*
X62859Y15677D01*
X62920Y15708D01*
X62986Y15739D01*
X63055Y15762D01*
X63136Y15785D01*
X63224Y15800D01*
X63320Y15815D01*
X63424Y15827D01*
X63536Y15835D01*
X63659Y15839D01*
X63785D01*
X61006Y12440D02*
X57319D01*
Y11986D01*
X61006D01*
Y12440D01*
X52324Y18226D02*
Y18099D01*
X52386Y18084D01*
X52448Y18065D01*
X52509Y18042D01*
X52567Y18011D01*
X52624Y17972D01*
X52678Y17930D01*
X52732Y17880D01*
X52782Y17826D01*
X52820Y17772D01*
X52863Y17707D01*
X52913Y17626D01*
X52963Y17534D01*
X53020Y17422D01*
X53082Y17300D01*
X53147Y17161D01*
X53217Y17007D01*
X54839Y13413D01*
X54954D01*
X56561Y17157D01*
X56596Y17238D01*
X56631Y17315D01*
X56661Y17388D01*
X56692Y17457D01*
X56723Y17522D01*
X56750Y17584D01*
X56777Y17642D01*
X56804Y17692D01*
X56827Y17742D01*
X56850Y17784D01*
X56869Y17822D01*
X56888Y17857D01*
X56907Y17888D01*
X56923Y17911D01*
X56938Y17934D01*
X56950Y17949D01*
X56977Y17976D01*
X57011Y18003D01*
X57050Y18026D01*
X57092Y18045D01*
X57142Y18065D01*
X57196Y18076D01*
X57257Y18092D01*
X57322Y18099D01*
Y18226D01*
X55074D01*
Y18099D01*
X55150D01*
X55223D01*
X55289Y18095D01*
X55350Y18088D01*
X55408Y18080D01*
X55454Y18069D01*
X55500Y18057D01*
X55535Y18042D01*
X55566Y18022D01*
X55600Y17992D01*
X55627Y17957D01*
X55643Y17915D01*
X55646Y17869D01*
X55639Y17799D01*
X55619Y17722D01*
X55608Y17696D01*
X55596Y17661D01*
X55581Y17615D01*
X55558Y17565D01*
X55531Y17503D01*
X55504Y17430D01*
X55469Y17354D01*
X55431Y17265D01*
X54428Y14924D01*
X53497Y17011D01*
X53459Y17100D01*
X53424Y17180D01*
X53389Y17257D01*
X53363Y17322D01*
X53339Y17384D01*
X53320Y17434D01*
X53305Y17480D01*
X53293Y17515D01*
X53274Y17576D01*
X53263Y17634D01*
X53255Y17688D01*
Y17734D01*
X53259Y17784D01*
X53267Y17830D01*
X53286Y17876D01*
X53309Y17919D01*
X53339Y17957D01*
X53378Y17988D01*
X53424Y18015D01*
X53474Y18042D01*
X53555Y18065D01*
X53647Y18084D01*
X53751Y18095D01*
X53870Y18099D01*
Y18226D01*
X52324D01*
X48956Y15873D02*
X48960Y15700D01*
X48968Y15527D01*
X48983Y15358D01*
X49006Y15193D01*
X49033Y15027D01*
X49068Y14870D01*
X49106Y14712D01*
X49152Y14558D01*
X49183Y14466D01*
X49218Y14378D01*
X49252Y14297D01*
X49291Y14216D01*
X49333Y14143D01*
X49376Y14074D01*
X49422Y14005D01*
X49472Y13943D01*
X49576Y13831D01*
X49683Y13728D01*
X49802Y13639D01*
X49925Y13563D01*
X49991Y13532D01*
X50056Y13501D01*
X50121Y13478D01*
X50191Y13459D01*
X50260Y13443D01*
X50329Y13432D01*
X50402Y13428D01*
X50475Y13424D01*
X50560Y13428D01*
X50644Y13435D01*
X50721Y13447D01*
X50802Y13467D01*
X50875Y13493D01*
X50948Y13520D01*
X51021Y13555D01*
X51090Y13597D01*
X51159Y13643D01*
X51225Y13693D01*
X51286Y13747D01*
X51348Y13809D01*
X51409Y13874D01*
X51467Y13943D01*
X51525Y14016D01*
X51579Y14093D01*
X51613Y14155D01*
X51652Y14220D01*
X51686Y14293D01*
X51721Y14370D01*
X51752Y14451D01*
X51786Y14535D01*
X51817Y14628D01*
X51844Y14720D01*
X51878Y14854D01*
X51909Y14989D01*
X51936Y15124D01*
X51956Y15262D01*
X51974Y15396D01*
X51986Y15539D01*
X51990Y15677D01*
X51994Y15819D01*
X51990Y16008D01*
X51978Y16192D01*
X51963Y16373D01*
X51940Y16554D01*
X51909Y16727D01*
X51871Y16896D01*
X51828Y17065D01*
X51778Y17226D01*
X51732Y17354D01*
X51679Y17476D01*
X51621Y17588D01*
X51556Y17696D01*
X51486Y17792D01*
X51409Y17884D01*
X51329Y17965D01*
X51240Y18038D01*
X51148Y18107D01*
X51056Y18165D01*
X50963Y18211D01*
X50867Y18253D01*
X50771Y18284D01*
X50675Y18303D01*
X50575Y18319D01*
X50475Y18322D01*
X50375Y18319D01*
X50275Y18303D01*
X50179Y18284D01*
X50079Y18253D01*
X49987Y18215D01*
X49891Y18165D01*
X49802Y18107D01*
X49710Y18042D01*
X49626Y17969D01*
X49545Y17892D01*
X49472Y17807D01*
X49402Y17715D01*
X49341Y17619D01*
X49283Y17515D01*
X49233Y17407D01*
X49187Y17292D01*
X49133Y17126D01*
X49087Y16961D01*
X49049Y16788D01*
X49014Y16611D01*
X48987Y16435D01*
X48972Y16250D01*
X48960Y16065D01*
X48956Y15873D01*
X50025Y15881D02*
Y16031D01*
Y16173D01*
Y16307D01*
Y16435D01*
Y16554D01*
Y16661D01*
X50029Y16765D01*
Y16857D01*
Y16942D01*
Y17023D01*
X50033Y17092D01*
Y17154D01*
Y17207D01*
X50037Y17254D01*
Y17292D01*
X50041Y17319D01*
X50048Y17434D01*
X50064Y17542D01*
X50079Y17638D01*
X50098Y17722D01*
X50121Y17799D01*
X50144Y17869D01*
X50175Y17926D01*
X50206Y17972D01*
X50256Y18022D01*
X50317Y18057D01*
X50394Y18076D01*
X50487Y18084D01*
X50556Y18080D01*
X50621Y18061D01*
X50675Y18038D01*
X50721Y17999D01*
X50752Y17969D01*
X50783Y17926D01*
X50806Y17884D01*
X50829Y17834D01*
X50848Y17776D01*
X50867Y17715D01*
X50883Y17646D01*
X50894Y17572D01*
X50902Y17526D01*
X50906Y17472D01*
X50909Y17404D01*
X50913Y17322D01*
X50917Y17230D01*
X50921Y17126D01*
X50925Y17011D01*
X50929Y16884D01*
X50933Y16742D01*
Y16592D01*
X50937Y16427D01*
Y16250D01*
X50941Y16065D01*
Y15865D01*
Y15654D01*
Y15431D01*
Y15308D01*
Y15189D01*
X50937Y15077D01*
Y14970D01*
X50933Y14870D01*
X50929Y14774D01*
Y14681D01*
X50921Y14597D01*
X50917Y14512D01*
X50913Y14439D01*
X50906Y14366D01*
X50902Y14301D01*
X50894Y14239D01*
X50887Y14185D01*
X50879Y14135D01*
X50871Y14089D01*
X50856Y14031D01*
X50841Y13978D01*
X50825Y13928D01*
X50809Y13885D01*
X50787Y13847D01*
X50767Y13812D01*
X50744Y13785D01*
X50721Y13762D01*
X50671Y13724D01*
X50610Y13697D01*
X50541Y13681D01*
X50464Y13678D01*
X50383Y13685D01*
X50314Y13705D01*
X50256Y13739D01*
X50206Y13789D01*
X50171Y13839D01*
X50141Y13901D01*
X50114Y13962D01*
X50091Y14035D01*
X50071Y14112D01*
X50056Y14201D01*
X50044Y14289D01*
X50041Y14389D01*
X50025Y15881D01*
X46380Y18322D02*
Y14474D01*
Y14370D01*
X46377Y14278D01*
Y14193D01*
X46369Y14116D01*
X46365Y14055D01*
X46357Y14001D01*
X46350Y13955D01*
X46342Y13920D01*
X46319Y13862D01*
X46284Y13809D01*
X46238Y13762D01*
X46181Y13724D01*
X46150Y13705D01*
X46111Y13689D01*
X46069Y13678D01*
X46023Y13666D01*
X45973Y13659D01*
X45915Y13651D01*
X45857Y13647D01*
X45792D01*
X45685D01*
Y13520D01*
X48165D01*
Y13647D01*
X48041D01*
X47969D01*
X47899Y13651D01*
X47838Y13655D01*
X47780Y13663D01*
X47730Y13674D01*
X47684Y13685D01*
X47645Y13701D01*
X47611Y13716D01*
X47549Y13755D01*
X47503Y13797D01*
X47465Y13851D01*
X47438Y13909D01*
X47426Y13943D01*
X47419Y13989D01*
X47411Y14043D01*
X47403Y14108D01*
X47399Y14185D01*
X47396Y14270D01*
X47392Y14366D01*
Y14474D01*
Y16911D01*
Y16988D01*
Y17061D01*
X47396Y17123D01*
X47399Y17176D01*
X47403Y17226D01*
X47411Y17265D01*
X47415Y17296D01*
X47422Y17322D01*
X47442Y17361D01*
X47469Y17396D01*
X47499Y17430D01*
X47538Y17461D01*
X47584Y17484D01*
X47630Y17503D01*
X47680Y17515D01*
X47738Y17519D01*
X47830Y17511D01*
X47934Y17492D01*
X48045Y17457D01*
X48168Y17407D01*
X48230Y17530D01*
X46496Y18322D01*
X46380D01*
X57319Y12076D02*
X61006D01*
X76277D02*
X79964D01*
X57319Y12170D02*
X61006D01*
X76277D02*
X79964D01*
X57319Y12263D02*
X61006D01*
X76277D02*
X79964D01*
X57319Y12357D02*
X61006D01*
X76277D02*
X79964D01*
X50111Y13481D02*
X50843D01*
X54808D02*
X54984D01*
X67426D02*
X69005D01*
X81315D02*
X82046D01*
X45685Y13575D02*
X48165D01*
X49905D02*
X51054D01*
X54766D02*
X55024D01*
X62478D02*
X65535D01*
X66986D02*
X69320D01*
X71144D02*
X72667D01*
X73801D02*
X76212D01*
X81109D02*
X82258D01*
X84001D02*
X86481D01*
X88780D02*
X91176D01*
X46033Y13669D02*
X47752D01*
X49763D02*
X51193D01*
X54723D02*
X55064D01*
X62128D02*
X65213D01*
X66687D02*
X69531D01*
X71274D02*
X72734D01*
X74124D02*
X75890D01*
X80967D02*
X82397D01*
X84350D02*
X86069D01*
X89099D02*
X90854D01*
X46238Y13763D02*
X47541D01*
X49647D02*
X50233D01*
X50721D02*
X51302D01*
X54681D02*
X55105D01*
X61896D02*
X65007D01*
X66440D02*
X67596D01*
X68700D02*
X69710D01*
X71470D02*
X72800D01*
X74328D02*
X75688D01*
X80851D02*
X81437D01*
X81925D02*
X82506D01*
X84555D02*
X85857D01*
X89306D02*
X90650D01*
X46315Y13856D02*
X47462D01*
X49552D02*
X50163D01*
X50792D02*
X51393D01*
X54639D02*
X55145D01*
X61737D02*
X63021D01*
X63668D02*
X64933D01*
X66308D02*
X67438D01*
X68899D02*
X69864D01*
X71567D02*
X72867D01*
X74405D02*
X75610D01*
X80756D02*
X81367D01*
X81996D02*
X82596D01*
X84631D02*
X85779D01*
X89380D02*
X90574D01*
X46348Y13950D02*
X47425D01*
X49466D02*
X50119D01*
X50832D02*
X51472D01*
X54596D02*
X55185D01*
X61605D02*
X62846D01*
X63745D02*
X64901D01*
X66308D02*
X67438D01*
X69044D02*
X69998D01*
X71644D02*
X72933D01*
X74431D02*
X75582D01*
X80670D02*
X81323D01*
X82036D02*
X82676D01*
X84665D02*
X85742D01*
X89410D02*
X90544D01*
X46363Y14044D02*
X47411D01*
X49396D02*
X50089D01*
X50859D02*
X51544D01*
X54554D02*
X55225D01*
X61502D02*
X62726D01*
X63775D02*
X64892D01*
X66308D02*
X67438D01*
X69153D02*
X70112D01*
X71716D02*
X72999D01*
X74444D02*
X75569D01*
X80600D02*
X81293D01*
X82063D02*
X82748D01*
X84680D02*
X85728D01*
X89423D02*
X90532D01*
X46371Y14137D02*
X47402D01*
X49337D02*
X50067D01*
X50879D02*
X51604D01*
X54512D02*
X55265D01*
X61419D02*
X62644D01*
X63788D02*
X64883D01*
X66308D02*
X67438D01*
X69238D02*
X70222D01*
X71784D02*
X73065D01*
X74449D02*
X75564D01*
X80541D02*
X81271D01*
X82083D02*
X82807D01*
X84688D02*
X85719D01*
X89428D02*
X90524D01*
X46377Y14231D02*
X47397D01*
X49284D02*
X50052D01*
X50893D02*
X51657D01*
X54470D02*
X55306D01*
X61352D02*
X62585D01*
X63788D02*
X64881D01*
X66308D02*
X67438D01*
X69310D02*
X70317D01*
X71851D02*
X73132D01*
X74454D02*
X75559D01*
X80488D02*
X81256D01*
X82097D02*
X82861D01*
X84693D02*
X85714D01*
X89433D02*
X90522D01*
X46379Y14325D02*
X47393D01*
X49241D02*
X50043D01*
X50904D02*
X51701D01*
X54427D02*
X55346D01*
X61302D02*
X62539D01*
X63785D02*
X64881D01*
X66308D02*
X67438D01*
X69369D02*
X70400D01*
X71917D02*
X73198D01*
X74455D02*
X75558D01*
X80444D02*
X81247D01*
X82107D02*
X82905D01*
X84695D02*
X85710D01*
X89434D02*
X90522D01*
X46380Y14419D02*
X47392D01*
X49202D02*
X50040D01*
X50911D02*
X51739D01*
X54385D02*
X55386D01*
X61263D02*
X62502D01*
X63785D02*
X64881D01*
X66308D02*
X67438D01*
X69415D02*
X70476D01*
X71984D02*
X73265D01*
X74455D02*
X75558D01*
X80406D02*
X81244D01*
X82115D02*
X82943D01*
X84697D02*
X85708D01*
X89434D02*
X90522D01*
X46380Y14512D02*
X47392D01*
X49168D02*
X50039D01*
X50917D02*
X51777D01*
X54343D02*
X55426D01*
X61232D02*
X62474D01*
X63785D02*
X64881D01*
X66308D02*
X67438D01*
X69457D02*
X70543D01*
X72050D02*
X73331D01*
X74455D02*
X75558D01*
X80372D02*
X81243D01*
X82121D02*
X82981D01*
X84697D02*
X85708D01*
X89434D02*
X90522D01*
X46380Y14606D02*
X47392D01*
X49138D02*
X50038D01*
X50922D02*
X51810D01*
X54300D02*
X55467D01*
X61211D02*
X62458D01*
X63785D02*
X64881D01*
X66308D02*
X67438D01*
X69491D02*
X70604D01*
X72117D02*
X73397D01*
X74455D02*
X75558D01*
X80342D02*
X81242D01*
X82126D02*
X83014D01*
X84697D02*
X85708D01*
X89434D02*
X90522D01*
X46380Y14700D02*
X47392D01*
X49110D02*
X50037D01*
X50929D02*
X51838D01*
X54258D02*
X55507D01*
X61197D02*
X62448D01*
X63785D02*
X64881D01*
X66308D02*
X67438D01*
X69521D02*
X70658D01*
X72183D02*
X73463D01*
X74455D02*
X75558D01*
X80314D02*
X81241D01*
X82133D02*
X83042D01*
X84697D02*
X85708D01*
X89434D02*
X90522D01*
X46380Y14793D02*
X47392D01*
X49087D02*
X50036D01*
X50930D02*
X51863D01*
X54216D02*
X55547D01*
X61192D02*
X62444D01*
X63785D02*
X64881D01*
X66308D02*
X67438D01*
X69549D02*
X70705D01*
X72249D02*
X73530D01*
X74455D02*
X75558D01*
X80291D02*
X81240D01*
X82133D02*
X83067D01*
X84697D02*
X85708D01*
X89434D02*
X90522D01*
X46380Y14887D02*
X47392D01*
X49064D02*
X50035D01*
X50933D02*
X51886D01*
X54174D02*
X55587D01*
X61195D02*
X62449D01*
X63785D02*
X64881D01*
X66306D02*
X67440D01*
X69570D02*
X70747D01*
X72316D02*
X73596D01*
X74455D02*
X75558D01*
X80268D02*
X81239D01*
X82137D02*
X83090D01*
X84697D02*
X85708D01*
X89434D02*
X90522D01*
X46380Y14981D02*
X47392D01*
X49044D02*
X50035D01*
X50937D02*
X51907D01*
X54131D02*
X54402D01*
X54452D02*
X55627D01*
X61204D02*
X62457D01*
X63785D02*
X64881D01*
X66302D02*
X67443D01*
X69590D02*
X70785D01*
X72382D02*
X73663D01*
X74455D02*
X75558D01*
X80248D02*
X81239D01*
X82141D02*
X83111D01*
X84697D02*
X85708D01*
X89434D02*
X90522D01*
X46380Y15074D02*
X47392D01*
X49026D02*
X50033D01*
X50937D02*
X51926D01*
X54089D02*
X54360D01*
X54492D02*
X55667D01*
X61218D02*
X62474D01*
X63785D02*
X64881D01*
X66289D02*
X67455D01*
X69608D02*
X70816D01*
X72448D02*
X73729D01*
X74455D02*
X75558D01*
X80230D02*
X81237D01*
X82141D02*
X83130D01*
X84697D02*
X85708D01*
X89434D02*
X90522D01*
X46380Y15168D02*
X47392D01*
X49010D02*
X50033D01*
X50940D02*
X51943D01*
X54047D02*
X54319D01*
X54532D02*
X55708D01*
X61244D02*
X62498D01*
X63785D02*
X64881D01*
X66251D02*
X67484D01*
X69623D02*
X70841D01*
X72515D02*
X73795D01*
X74455D02*
X75558D01*
X80214D02*
X81237D01*
X82143D02*
X83146D01*
X84697D02*
X85708D01*
X89434D02*
X90522D01*
X46380Y15262D02*
X47392D01*
X48997D02*
X50031D01*
X50941D02*
X51956D01*
X54004D02*
X54277D01*
X54572D02*
X55748D01*
X61282D02*
X62530D01*
X63785D02*
X64881D01*
X66170D02*
X67570D01*
X69635D02*
X70863D01*
X72581D02*
X73861D01*
X74455D02*
X75558D01*
X80201D02*
X81235D01*
X82144D02*
X83159D01*
X84697D02*
X85708D01*
X89434D02*
X90522D01*
X46380Y15356D02*
X47392D01*
X48984D02*
X50031D01*
X50941D02*
X51969D01*
X53962D02*
X54235D01*
X54613D02*
X55788D01*
X61334D02*
X62570D01*
X63785D02*
X64881D01*
X65890D02*
X67775D01*
X69644D02*
X70882D01*
X72648D02*
X73928D01*
X74455D02*
X75558D01*
X80188D02*
X81235D01*
X82144D02*
X83172D01*
X84697D02*
X85708D01*
X89434D02*
X90522D01*
X46380Y15449D02*
X47392D01*
X48975D02*
X50030D01*
X50941D02*
X51979D01*
X53920D02*
X54193D01*
X54653D02*
X55828D01*
X61398D02*
X62626D01*
X63785D02*
X64881D01*
X65754D02*
X68046D01*
X69653D02*
X70896D01*
X72714D02*
X73994D01*
X74455D02*
X75558D01*
X80179D02*
X81233D01*
X82144D02*
X83183D01*
X84697D02*
X85708D01*
X89434D02*
X90522D01*
X46380Y15543D02*
X47392D01*
X48967D02*
X50029D01*
X50941D02*
X51986D01*
X53878D02*
X54152D01*
X54693D02*
X55869D01*
X61480D02*
X62698D01*
X63785D02*
X64881D01*
X69661D02*
X70908D01*
X72780D02*
X74061D01*
X74455D02*
X75558D01*
X80171D02*
X81233D01*
X82144D02*
X83190D01*
X84697D02*
X85708D01*
X89434D02*
X90522D01*
X46380Y15637D02*
X47392D01*
X48963D02*
X50028D01*
X50941D02*
X51989D01*
X53835D02*
X54110D01*
X54733D02*
X55909D01*
X61585D02*
X62799D01*
X63785D02*
X64881D01*
X69666D02*
X70915D01*
X72846D02*
X74127D01*
X74455D02*
X75558D01*
X80167D02*
X81231D01*
X82144D02*
X83193D01*
X84697D02*
X85708D01*
X89434D02*
X90522D01*
X46380Y15730D02*
X47392D01*
X48959D02*
X50027D01*
X50941D02*
X51991D01*
X53793D02*
X54068D01*
X54773D02*
X55949D01*
X61724D02*
X62968D01*
X63785D02*
X64881D01*
X69668D02*
X70919D01*
X72913D02*
X75558D01*
X80163D02*
X81231D01*
X82144D02*
X83195D01*
X84697D02*
X85708D01*
X88329D02*
X90522D01*
X46380Y15824D02*
X47392D01*
X48957D02*
X50026D01*
X50941D02*
X51994D01*
X53751D02*
X54026D01*
X54813D02*
X55989D01*
X61914D02*
X63396D01*
X63785D02*
X64881D01*
X69668D02*
X70921D01*
X72673D02*
X75558D01*
X80161D02*
X81230D01*
X82144D02*
X83198D01*
X84697D02*
X85708D01*
X88020D02*
X90522D01*
X46380Y15918D02*
X47392D01*
X48957D02*
X50025D01*
X50941D02*
X51992D01*
X53708D02*
X53985D01*
X54854D02*
X56030D01*
X62174D02*
X64881D01*
X69668D02*
X70921D01*
X72470D02*
X74001D01*
X74455D02*
X75558D01*
X80161D02*
X81229D01*
X82144D02*
X83196D01*
X84697D02*
X85708D01*
X87833D02*
X89170D01*
X89380D02*
X90522D01*
X46380Y16011D02*
X47392D01*
X48959D02*
X50025D01*
X50941D02*
X51990D01*
X53666D02*
X53943D01*
X54894D02*
X56070D01*
X62513D02*
X64881D01*
X69667D02*
X70915D01*
X72322D02*
X73506D01*
X74455D02*
X75558D01*
X80163D02*
X81229D01*
X82144D02*
X83193D01*
X84697D02*
X85708D01*
X87691D02*
X88815D01*
X89434D02*
X90522D01*
X46380Y16105D02*
X47392D01*
X48963D02*
X50025D01*
X50940D02*
X51984D01*
X53624D02*
X53901D01*
X54934D02*
X56110D01*
X62226D02*
X64881D01*
X69661D02*
X70906D01*
X72220D02*
X73344D01*
X74455D02*
X75558D01*
X80167D02*
X81229D01*
X82143D02*
X83188D01*
X84697D02*
X85708D01*
X87585D02*
X88672D01*
X89434D02*
X90522D01*
X46380Y16199D02*
X47392D01*
X48969D02*
X50025D01*
X50938D02*
X51978D01*
X53581D02*
X53859D01*
X54974D02*
X56150D01*
X61993D02*
X63104D01*
X63785D02*
X64881D01*
X69654D02*
X70894D01*
X72133D02*
X73244D01*
X74455D02*
X75558D01*
X80172D02*
X81229D01*
X82141D02*
X83182D01*
X84697D02*
X85708D01*
X87497D02*
X88583D01*
X89434D02*
X90522D01*
X46380Y16293D02*
X47392D01*
X48976D02*
X50025D01*
X50937D02*
X51970D01*
X53539D02*
X53817D01*
X55014D02*
X56190D01*
X61832D02*
X62928D01*
X63785D02*
X64881D01*
X69645D02*
X70880D01*
X72062D02*
X73175D01*
X74455D02*
X75558D01*
X80179D02*
X81229D01*
X82141D02*
X83174D01*
X84697D02*
X85708D01*
X87428D02*
X88519D01*
X89434D02*
X90522D01*
X46380Y16386D02*
X47392D01*
X48983D02*
X50025D01*
X50937D02*
X51961D01*
X53497D02*
X53776D01*
X55054D02*
X56230D01*
X61707D02*
X62815D01*
X63785D02*
X64881D01*
X69635D02*
X70861D01*
X72006D02*
X73120D01*
X74455D02*
X75558D01*
X80187D02*
X81229D01*
X82141D02*
X83165D01*
X84697D02*
X85708D01*
X87369D02*
X88473D01*
X89434D02*
X90522D01*
X46380Y16480D02*
X47392D01*
X48994D02*
X50025D01*
X50935D02*
X51950D01*
X53455D02*
X53734D01*
X55094D02*
X56270D01*
X61615D02*
X62734D01*
X63785D02*
X64881D01*
X69620D02*
X70838D01*
X71962D02*
X73085D01*
X74455D02*
X75558D01*
X80198D02*
X81229D01*
X82139D02*
X83153D01*
X84697D02*
X85708D01*
X87322D02*
X88441D01*
X89434D02*
X90522D01*
X46380Y16574D02*
X47392D01*
X49008D02*
X50025D01*
X50933D02*
X51937D01*
X53412D02*
X53692D01*
X55135D02*
X56311D01*
X61544D02*
X62673D01*
X63785D02*
X64881D01*
X69604D02*
X70813D01*
X71930D02*
X73058D01*
X74455D02*
X75558D01*
X80212D02*
X81229D01*
X82137D02*
X83140D01*
X84697D02*
X85708D01*
X87285D02*
X88415D01*
X89434D02*
X90522D01*
X46380Y16667D02*
X47392D01*
X49025D02*
X50026D01*
X50933D02*
X51920D01*
X53370D02*
X53650D01*
X55175D02*
X56351D01*
X61492D02*
X62631D01*
X63785D02*
X64881D01*
X69587D02*
X70782D01*
X71906D02*
X73039D01*
X74455D02*
X75558D01*
X80229D02*
X81230D01*
X82137D02*
X83124D01*
X84697D02*
X85708D01*
X87260D02*
X88400D01*
X89434D02*
X90522D01*
X46380Y16761D02*
X47392D01*
X49043D02*
X50029D01*
X50932D02*
X51901D01*
X53328D02*
X53609D01*
X55215D02*
X56391D01*
X61452D02*
X62602D01*
X63785D02*
X64881D01*
X66308D02*
X66467D01*
X69567D02*
X70747D01*
X71889D02*
X73028D01*
X74455D02*
X75558D01*
X80247D02*
X81233D01*
X82136D02*
X83105D01*
X84697D02*
X85708D01*
X87243D02*
X88390D01*
X89434D02*
X90522D01*
X46380Y16855D02*
X47392D01*
X49063D02*
X50029D01*
X50930D02*
X51880D01*
X53285D02*
X53567D01*
X55255D02*
X56431D01*
X61426D02*
X62585D01*
X63785D02*
X64881D01*
X66308D02*
X66504D01*
X69544D02*
X70707D01*
X71881D02*
X73023D01*
X74455D02*
X75558D01*
X80267D02*
X81233D01*
X82133D02*
X83084D01*
X84697D02*
X85708D01*
X87231D02*
X88383D01*
X89434D02*
X90522D01*
X46380Y16948D02*
X47392D01*
X49084D02*
X50029D01*
X50927D02*
X51857D01*
X53243D02*
X53525D01*
X55295D02*
X56472D01*
X61411D02*
X62573D01*
X63785D02*
X64881D01*
X66308D02*
X66546D01*
X69519D02*
X70661D01*
X71880D02*
X73021D01*
X74455D02*
X75558D01*
X80288D02*
X81233D01*
X82131D02*
X83061D01*
X84697D02*
X85708D01*
X87227D02*
X88380D01*
X89434D02*
X90522D01*
X46380Y17042D02*
X47392D01*
X49110D02*
X50030D01*
X50924D02*
X51834D01*
X53201D02*
X53484D01*
X55335D02*
X56512D01*
X61406D02*
X62571D01*
X63785D02*
X64881D01*
X66308D02*
X66592D01*
X69491D02*
X70610D01*
X71883D02*
X73024D01*
X74455D02*
X75558D01*
X80313D02*
X81234D01*
X82128D02*
X83038D01*
X84697D02*
X85708D01*
X87231D02*
X88383D01*
X89434D02*
X90522D01*
X46380Y17136D02*
X47396D01*
X49137D02*
X50033D01*
X50921D02*
X51806D01*
X53159D02*
X53443D01*
X55376D02*
X56552D01*
X61411D02*
X62572D01*
X63785D02*
X64881D01*
X66308D02*
X66641D01*
X69457D02*
X70555D01*
X71894D02*
X73033D01*
X74455D02*
X75558D01*
X80340D02*
X81237D01*
X82124D02*
X83010D01*
X84697D02*
X85713D01*
X87241D02*
X88390D01*
X89434D02*
X90522D01*
X46380Y17230D02*
X47404D01*
X49167D02*
X50035D01*
X50917D02*
X51777D01*
X53115D02*
X53402D01*
X55416D02*
X56593D01*
X61423D02*
X62582D01*
X63785D02*
X64881D01*
X66308D02*
X66700D01*
X69418D02*
X70492D01*
X71913D02*
X73046D01*
X74455D02*
X75558D01*
X80370D02*
X81239D01*
X82121D02*
X82981D01*
X84697D02*
X85720D01*
X87256D02*
X88401D01*
X89434D02*
X90522D01*
X46380Y17323D02*
X47423D01*
X49200D02*
X50041D01*
X50913D02*
X51743D01*
X53070D02*
X53362D01*
X55456D02*
X56634D01*
X61445D02*
X62600D01*
X63785D02*
X64881D01*
X66308D02*
X66763D01*
X69372D02*
X70423D01*
X71939D02*
X73065D01*
X74455D02*
X75558D01*
X80404D02*
X81245D01*
X82117D02*
X82947D01*
X84697D02*
X85739D01*
X87282D02*
X88417D01*
X89434D02*
X90522D01*
X46380Y17417D02*
X47487D01*
X48144D02*
X48173D01*
X49238D02*
X50047D01*
X50909D02*
X51705D01*
X53023D02*
X53327D01*
X55498D02*
X56674D01*
X61478D02*
X62626D01*
X63785D02*
X64881D01*
X66308D02*
X66834D01*
X69320D02*
X70351D01*
X71974D02*
X73094D01*
X74455D02*
X75558D01*
X80442D02*
X81251D01*
X82113D02*
X82908D01*
X84697D02*
X85804D01*
X86461D02*
X86490D01*
X87319D02*
X88444D01*
X89434D02*
X90522D01*
X46380Y17511D02*
X47661D01*
X47830D02*
X48220D01*
X49281D02*
X50059D01*
X50903D02*
X51661D01*
X52975D02*
X53295D01*
X55534D02*
X56717D01*
X61515D02*
X62669D01*
X63785D02*
X64881D01*
X66308D02*
X66915D01*
X69258D02*
X70268D01*
X72023D02*
X73134D01*
X74455D02*
X75559D01*
X80485D02*
X81263D01*
X82107D02*
X82865D01*
X84697D02*
X85978D01*
X86146D02*
X86537D01*
X87367D02*
X88478D01*
X89434D02*
X90522D01*
X46380Y17604D02*
X48068D01*
X49333D02*
X50074D01*
X50889D02*
X51611D01*
X52924D02*
X53269D01*
X55576D02*
X56759D01*
X61572D02*
X62726D01*
X63785D02*
X64883D01*
X66308D02*
X67008D01*
X69187D02*
X70174D01*
X72080D02*
X73186D01*
X74455D02*
X75564D01*
X80537D02*
X81278D01*
X82093D02*
X82815D01*
X84697D02*
X86384D01*
X87425D02*
X88525D01*
X89434D02*
X90524D01*
X46380Y17698D02*
X47863D01*
X49392D02*
X50093D01*
X50871D02*
X51554D01*
X52868D02*
X53255D01*
X55609D02*
X56806D01*
X61637D02*
X62808D01*
X63785D02*
X64891D01*
X66308D02*
X67120D01*
X69099D02*
X70076D01*
X72150D02*
X73256D01*
X74455D02*
X75569D01*
X80596D02*
X81297D01*
X82075D02*
X82758D01*
X84697D02*
X86180D01*
X87496D02*
X88593D01*
X89434D02*
X90532D01*
X46380Y17792D02*
X47657D01*
X49460D02*
X50119D01*
X50843D02*
X51486D01*
X52807D02*
X53260D01*
X55637D02*
X56854D01*
X61713D02*
X62920D01*
X63785D02*
X64901D01*
X66308D02*
X67256D01*
X68991D02*
X69958D01*
X72237D02*
X73363D01*
X74455D02*
X75581D01*
X80664D02*
X81323D01*
X82047D02*
X82690D01*
X84697D02*
X85974D01*
X87587D02*
X88698D01*
X89434D02*
X90543D01*
X46380Y17885D02*
X47452D01*
X49539D02*
X50154D01*
X50806D02*
X51408D01*
X52726D02*
X53291D01*
X55645D02*
X56906D01*
X61810D02*
X63103D01*
X63785D02*
X64930D01*
X66308D02*
X67418D01*
X68857D02*
X69832D01*
X72336D02*
X73541D01*
X74455D02*
X75607D01*
X80743D02*
X81357D01*
X82010D02*
X82612D01*
X84697D02*
X85769D01*
X87695D02*
X88868D01*
X89434D02*
X90571D01*
X46380Y17979D02*
X47247D01*
X49638D02*
X50213D01*
X50741D02*
X51311D01*
X52614D02*
X53367D01*
X55610D02*
X56980D01*
X61939D02*
X65004D01*
X66308D02*
X67641D01*
X68655D02*
X69686D01*
X72476D02*
X75682D01*
X80841D02*
X81417D01*
X81945D02*
X82515D01*
X84697D02*
X85564D01*
X87839D02*
X90646D01*
X46380Y18073D02*
X47042D01*
X49754D02*
X50380D01*
X50580D02*
X51194D01*
X52421D02*
X53594D01*
X55437D02*
X57180D01*
X62117D02*
X65194D01*
X66308D02*
X66579D01*
X67041D02*
X69514D01*
X72670D02*
X75875D01*
X80958D02*
X81584D01*
X81784D02*
X82398D01*
X84697D02*
X85359D01*
X88047D02*
X90836D01*
X46380Y18167D02*
X46837D01*
X49894D02*
X51052D01*
X52324D02*
X53870D01*
X55074D02*
X57322D01*
X62441D02*
X65535D01*
X66308D02*
X66507D01*
X67292D02*
X69289D01*
X73043D02*
X76212D01*
X81098D02*
X82256D01*
X84697D02*
X85154D01*
X88394D02*
X91176D01*
X46380Y18260D02*
X46632D01*
X50102D02*
X50845D01*
X66308D02*
X66463D01*
X67594D02*
X68970D01*
X81306D02*
X82049D01*
X84697D02*
X84949D01*
X0Y0D02*
M02*
