G04 DesignSpark PCB Gerber Version 13.0 Build *
%FSLAX35Y35*%
%MOIN*%
%ADD25R,0.02362X0.05807*%
%ADD81R,0.04921X0.11811*%
%ADD75R,0.05500X0.06000*%
%ADD27R,0.05394X0.05394*%
%ADD76R,0.06000X0.06000*%
%ADD10C,0.00001*%
%ADD11C,0.00100*%
%ADD14C,0.00500*%
%ADD18C,0.01000*%
%ADD70C,0.01500*%
%ADD21C,0.02500*%
%ADD71C,0.03150*%
%ADD23C,0.03200*%
%ADD22C,0.04800*%
%ADD20C,0.05000*%
%ADD28C,0.05394*%
%ADD77C,0.06000*%
%ADD79C,0.06299*%
%ADD29C,0.11024*%
%ADD24C,0.23622*%
%ADD74R,0.05118X0.02362*%
%ADD26R,0.05807X0.02362*%
%ADD73R,0.08700X0.02400*%
%ADD72R,0.06000X0.05500*%
%ADD80R,0.08000X0.06000*%
%ADD78R,0.09252X0.06102*%
X0Y0D02*
D02*
D10*
X64476Y208121D02*
G75*
G03*
X64406Y208072I725J-1117D01*
G01*
G75*
G03*
X64389Y208045I26J-35D01*
G01*
G75*
G03*
X64401Y208028I15J-3D01*
G01*
G75*
G03*
X64457Y208022I61J333D01*
G01*
G75*
G02*
X64521Y207975I-1J-68D01*
G01*
G75*
G02*
X64554Y207817I-717J-233D01*
G01*
G75*
G02*
X64566Y207539I-2483J-248D01*
G01*
G75*
G02*
X64554Y207046I-21664J289D01*
G01*
G75*
G02*
X64535Y206661I-14242J506D01*
G01*
G75*
G02*
X64507Y206310I-9865J609D01*
G01*
G75*
G02*
X64474Y206019I-10730J1056D01*
G01*
G75*
G02*
X64443Y205910I-348J44D01*
G01*
G75*
G03*
X64517Y205757I98J-47D01*
G01*
G75*
G03*
X65061Y205677I859J3954D01*
G01*
G75*
G03*
X66080Y205632I1174J15059D01*
G01*
G75*
G03*
X68150Y205622I2115J210329D01*
G01*
X70876Y205621D01*
Y208221D01*
X67750Y208219D01*
G75*
G03*
X66481Y208212I93J-123513D01*
G01*
G75*
G03*
X65454Y208191I570J-53276D01*
G01*
G75*
G03*
X64607Y208162I3406J-112853D01*
G01*
G75*
G03*
X64476Y208121I9J-261D01*
G01*
X67300Y217748D02*
X64376Y217718D01*
X64377Y217494D01*
G75*
G03*
X64380Y217375I2633J19D01*
G01*
G75*
G03*
X64397Y217344I42J2D01*
G01*
G75*
G03*
X64423Y217348I11J15D01*
G01*
G75*
G03*
X64476Y217421I-779J612D01*
G01*
G75*
G02*
X64514Y217475I558J-359D01*
G01*
G75*
G02*
X64551Y217512I198J-160D01*
G01*
G75*
G02*
X64579Y217528I57J-68D01*
G01*
G75*
G02*
X64596Y217521I4J-13D01*
G01*
G75*
G02*
X64606Y217478I-95J-44D01*
G01*
G75*
G02*
X64628Y216310I-3935591J-76217D01*
G01*
G75*
G02*
X64650Y215008I-371231J-6936D01*
G01*
G75*
G02*
X64672Y213471I-715957J-11039D01*
G01*
X64726Y209471D01*
X69869Y209445D01*
X75013Y209419D01*
X75294Y209689D01*
G75*
G03*
X75490Y209970I-601J627D01*
G01*
G75*
G03*
X75548Y210291I-654J284D01*
G01*
G75*
G03*
X75457Y210612I-748J-39D01*
G01*
G75*
G03*
X75231Y210891I-880J-481D01*
G01*
G75*
G03*
X74971Y211028I-430J-500D01*
G01*
G75*
G03*
X74582Y211092I-518J-1943D01*
G01*
G75*
G03*
X73849Y211117I-771J-12148D01*
G01*
G75*
G03*
X71640Y211121I-2309J-614412D01*
G01*
G75*
G02*
X70031Y211126I-38J223659D01*
G01*
G75*
G02*
X69031Y211148I269J36217D01*
G01*
G75*
G02*
X68335Y211178I1259J36436D01*
G01*
G75*
G02*
X68195Y211241I11J214D01*
G01*
G75*
G02*
X68077Y211520I285J285D01*
G01*
G75*
G02*
X68067Y213138I109813J1477D01*
G01*
G75*
G02*
X68080Y214772I129305J-180D01*
G01*
G75*
G02*
X68200Y214990I264J-4D01*
G01*
G75*
G02*
X68295Y215024I120J-185D01*
G01*
G75*
G02*
X68656Y215061I2151J-18782D01*
G01*
G75*
G02*
X69087Y215096I1274J-13309D01*
G01*
G75*
G02*
X69576Y215121I1361J-21636D01*
G01*
X70826Y215171D01*
Y217771D01*
X70526Y217774D01*
G75*
G03*
X70312Y217775I-126J-10688D01*
G01*
G75*
G03*
X69454Y217768I9935J-1327841D01*
G01*
G75*
G03*
X68443Y217759I6802J-816201D01*
G01*
G75*
G03*
X67300Y217748I12319J-1335956D01*
G01*
X69337Y213822D02*
G75*
G03*
X69055Y213692I376J-1190D01*
G01*
G75*
G03*
X68807Y213494I719J-1158D01*
G01*
G75*
G03*
X68633Y213268I796J-790D01*
G01*
G75*
G03*
X68576Y213055I367J-213D01*
G01*
G75*
G03*
X68595Y212944I319J-1D01*
G01*
G75*
G03*
X68661Y212796I1196J443D01*
G01*
G75*
G03*
X68756Y212639I1333J700D01*
G01*
G75*
G03*
X68867Y212497I1185J815D01*
G01*
X69159Y212171D01*
X76226Y212071D01*
X76253Y210257D01*
G75*
G02*
X76264Y209173I-125449J-1863D01*
G01*
G75*
G02*
X76248Y208718I-5330J-35D01*
G01*
G75*
G02*
X76201Y208477I-1103J88D01*
G01*
G75*
G02*
X76103Y208367I-169J52D01*
G01*
G75*
G02*
X75970Y208335I-159J369D01*
G01*
G75*
G02*
X75396Y208299I-3826J56647D01*
G01*
G75*
G02*
X74718Y208267I-1938J33987D01*
G01*
G75*
G02*
X73948Y208244I-2116J56439D01*
G01*
X71970Y208197D01*
X71998Y206934D01*
X72026Y205671D01*
X79626D01*
X79650Y209621D01*
G75*
G03*
X79653Y211187I-191278J1168D01*
G01*
G75*
G03*
X79641Y212483I-90509J-203D01*
G01*
G75*
G03*
X79620Y213589I-276510J-4471D01*
G01*
G75*
G03*
X79582Y213714I-242J-6D01*
G01*
G75*
G03*
X79438Y213798I-155J-98D01*
G01*
G75*
G03*
X78598Y213836I-2197J-39876D01*
G01*
G75*
G03*
X77263Y213865I-1845J-53942D01*
G01*
G75*
G03*
X74558Y213885I-6883J-744925D01*
G01*
G75*
G03*
X72620Y213889I-1609J-286208D01*
G01*
G75*
G03*
X70970Y213878I184J-151023D01*
G01*
G75*
G03*
X69564Y213859I4265J-354965D01*
G01*
G75*
G03*
X69337Y213822I12J-794D01*
G01*
X72108Y217783D02*
G75*
G03*
X72016Y217694I2J-94D01*
G01*
G75*
G03*
X71995Y217319I30998J-1911D01*
G01*
G75*
G03*
X71980Y216876I14950J-727D01*
G01*
G75*
G03*
X71976Y216365I26704J-502D01*
G01*
G75*
G03*
X71981Y215640I47517J-1D01*
G01*
G75*
G03*
X72005Y215274I3715J57D01*
G01*
G75*
G03*
X72050Y215069I1014J116D01*
G01*
G75*
G03*
X72133Y214981I135J44D01*
G01*
G75*
G03*
X72260Y214957I134J347D01*
G01*
G75*
G03*
X73315Y214939I7399J400198D01*
G01*
G75*
G03*
X74525Y214925I1980J124300D01*
G01*
G75*
G03*
X75931Y214921I1398J225697D01*
G01*
X79572D01*
X79628Y215146D01*
G75*
G03*
X79648Y215291I-696J172D01*
G01*
G75*
G03*
X79658Y215657I-19416J726D01*
G01*
G75*
G03*
X79661Y216094I-18079J349D01*
G01*
G75*
G03*
X79654Y216571I-25346J-139D01*
G01*
X79626Y217771D01*
X75868Y217797D01*
G75*
G03*
X74423Y217802I-1474J-212325D01*
G01*
G75*
G03*
X73195Y217795I-8J-111150D01*
G01*
G75*
G03*
X72108Y217783I6748J-628879D01*
G01*
X81657Y217699D02*
G75*
G03*
X81558Y217519I157J-204D01*
G01*
G75*
G03*
X81520Y216918I10688J-967D01*
G01*
G75*
G03*
X81502Y215862I30340J-1048D01*
G01*
G75*
G03*
X81508Y213371I696200J405D01*
G01*
X81526Y209171D01*
X83816D01*
X83826Y213271D01*
X84500Y213300D01*
X85176Y213330D01*
Y211277D01*
G75*
G03*
X85188Y209651I106232J-16D01*
G01*
G75*
G03*
X85294Y209293I694J11D01*
G01*
G75*
G03*
X85563Y209139I279J175D01*
G01*
G75*
G03*
X86515Y209141I444J15341D01*
G01*
X87404Y209171D01*
X87383Y217771D01*
X86280Y217799D01*
X85176Y217827D01*
Y214611D01*
X84500Y214641D01*
X83826Y214671D01*
X83821Y216221D01*
X83817Y217771D01*
X82820Y217799D01*
G75*
G03*
X82354Y217805I-420J-14772D01*
G01*
G75*
G03*
X82020Y217790I14J-4051D01*
G01*
G75*
G03*
X81784Y217757I191J-2221D01*
G01*
G75*
G03*
X81657Y217699I58J-298D01*
G01*
X81976Y207601D02*
G75*
G03*
X81656Y207281I679J-999D01*
G01*
G75*
G03*
X81623Y206970I273J-186D01*
G01*
G75*
G03*
X81881Y206687I515J211D01*
G01*
G75*
G03*
X82443Y206461I1417J2711D01*
G01*
G75*
G02*
X82735Y206368I-1575J-5412D01*
G01*
G75*
G02*
X82880Y206291I-180J-510D01*
G01*
G75*
G02*
X82950Y206197I-126J-170D01*
G01*
G75*
G02*
X82976Y206063I-346J-135D01*
G01*
G75*
G02*
X82919Y205901I-262J0D01*
G01*
G75*
G02*
X82776Y205818I-176J139D01*
G01*
G75*
G02*
X82575Y205844I-55J369D01*
G01*
G75*
G02*
X82372Y205974I283J667D01*
G01*
G75*
G03*
X82167Y206111I-570J-629D01*
G01*
G75*
G03*
X81889Y206215I-748J-1574D01*
G01*
G75*
G03*
X81630Y206266I-445J-1587D01*
G01*
G75*
G03*
X81520Y206213I-13J-113D01*
G01*
G75*
G03*
X81517Y205956I212J-131D01*
G01*
G75*
G03*
X81763Y205691I704J409D01*
G01*
G75*
G03*
X82194Y205490I844J1242D01*
G01*
G75*
G03*
X82685Y205421I491J1716D01*
G01*
G75*
G03*
X83050Y205483I0J1096D01*
G01*
G75*
G03*
X83413Y205666I-530J1504D01*
G01*
G75*
G03*
X83685Y205911I-744J1100D01*
G01*
G75*
G03*
X83775Y206157I-291J245D01*
G01*
G75*
G03*
X83691Y206351I-268J-1D01*
G01*
G75*
G03*
X83394Y206586I-1518J-1612D01*
G01*
G75*
G03*
X83012Y206794I-1409J-2129D01*
G01*
G75*
G03*
X82626Y206917I-772J-1756D01*
G01*
G75*
G02*
X82389Y207007I159J778D01*
G01*
G75*
G02*
X82285Y207150I108J187D01*
G01*
G75*
G02*
X82344Y207271I108J22D01*
G01*
G75*
G02*
X82543Y207317I193J-385D01*
G01*
G75*
G02*
X82669Y207306I-8J-797D01*
G01*
G75*
G02*
X82816Y207273I-265J-1532D01*
G01*
G75*
G02*
X82959Y207226I-418J-1509D01*
G01*
G75*
G02*
X83076Y207171I-296J-781D01*
G01*
G75*
G03*
X83429Y207017I878J1533D01*
G01*
G75*
G03*
X83631Y207065I60J194D01*
G01*
G75*
G03*
X83654Y207243I-99J103D01*
G01*
G75*
G03*
X83431Y207515I-1131J-695D01*
G01*
G75*
G03*
X83117Y207714I-678J-722D01*
G01*
G75*
G03*
X82730Y207800I-461J-1168D01*
G01*
G75*
G03*
X82330Y207761I-77J-1295D01*
G01*
G75*
G03*
X81976Y207601I283J-1097D01*
G01*
X88576Y207695D02*
G75*
G03*
X88610Y207505I537J0D01*
G01*
G75*
G03*
X88800Y207023I17137J6484D01*
G01*
G75*
G03*
X89017Y206527I11817J4863D01*
G01*
G75*
G03*
X89215Y206139I4886J2254D01*
G01*
X89526Y205589D01*
X89200Y205265D01*
G75*
G03*
X88981Y205000I1255J-1258D01*
G01*
G75*
G03*
X88883Y204755I530J-356D01*
G01*
G75*
G03*
X88922Y204592I204J-37D01*
G01*
G75*
G03*
X89068Y204521I145J112D01*
G01*
G75*
G03*
X89300Y204586I0J446D01*
G01*
G75*
G03*
X89572Y204793I-865J1417D01*
G01*
G75*
G03*
X89833Y205090I-1454J1546D01*
G01*
G75*
G03*
X90041Y205435I-1843J1344D01*
G01*
G75*
G03*
X90537Y206469I-89912J43777D01*
G01*
G75*
G03*
X90822Y207109I-13674J6462D01*
G01*
G75*
G03*
X90993Y207546I-10554J4394D01*
G01*
G75*
G03*
X90970Y207661I-105J39D01*
G01*
G75*
G03*
X90913Y207692I-76J-72D01*
G01*
G75*
G03*
X90817Y207701I-91J-478D01*
G01*
G75*
G03*
X90694Y207689I10J-748D01*
G01*
G75*
G03*
X90555Y207657I235J-1334D01*
G01*
G75*
G03*
X90354Y207581I388J-1335D01*
G01*
G75*
G03*
X90268Y207494I76J-161D01*
G01*
G75*
G03*
X90232Y207345I350J-162D01*
G01*
G75*
G03*
X90226Y206946I11890J-387D01*
G01*
X90227Y206331D01*
X90006Y206539D01*
G75*
G03*
X89911Y206614I-469J-498D01*
G01*
G75*
G03*
X89806Y206668I-331J-509D01*
G01*
G75*
G03*
X89708Y206695I-173J-435D01*
G01*
G75*
G03*
X89634Y206688I-23J-139D01*
G01*
G75*
G02*
X89560Y206683I-44J114D01*
G01*
G75*
G02*
X89503Y206724I25J95D01*
G01*
G75*
G02*
X89459Y206822I253J172D01*
G01*
G75*
G02*
X89424Y207000I2165J528D01*
G01*
G75*
G03*
X89351Y207347I-3567J-568D01*
G01*
G75*
G03*
X89256Y207541I-533J-140D01*
G01*
G75*
G03*
X89113Y207648I-262J-200D01*
G01*
G75*
G03*
X88890Y207702I-307J-790D01*
G01*
G75*
G03*
X88770Y207711I-268J-2643D01*
G01*
G75*
G03*
X88668Y207713I-72J-1332D01*
G01*
G75*
G03*
X88588Y207709I38J-1431D01*
G01*
G75*
G03*
X88576Y207695I1J-14D01*
G01*
X90076Y217827D02*
G75*
G02*
X90057Y217795I-37J0D01*
G01*
G75*
G02*
X90002Y217775I-87J154D01*
G01*
G75*
G02*
X89921Y217769I-67J345D01*
G01*
G75*
G02*
X89826Y217779I29J696D01*
G01*
G75*
G03*
X89728Y217789I-112J-619D01*
G01*
G75*
G03*
X89648Y217780I-8J-303D01*
G01*
G75*
G03*
X89594Y217755I37J-145D01*
G01*
G75*
G03*
X89576Y217717I29J-38D01*
G01*
G75*
G02*
X89569Y217679I-117J0D01*
G01*
G75*
G02*
X89551Y217656I-45J16D01*
G01*
G75*
G02*
X89524Y217649I-22J32D01*
G01*
G75*
G02*
X89493Y217659I8J75D01*
G01*
G75*
G03*
X89334Y217664I-83J-135D01*
G01*
G75*
G03*
X89047Y217478I1089J-1995D01*
G01*
G75*
G03*
X88745Y217209I1565J-2059D01*
G01*
G75*
G03*
X88504Y216907I1559J-1493D01*
G01*
X88226Y216485D01*
Y213728D01*
G75*
G03*
X88231Y212644I100942J-28D01*
G01*
G75*
G03*
X88249Y211670I66078J714D01*
G01*
G75*
G03*
X88274Y210852I85862J2194D01*
G01*
G75*
G03*
X88306Y210594I1498J54D01*
G01*
G75*
G03*
X88534Y210065I1415J299D01*
G01*
G75*
G03*
X88975Y209596I1828J1277D01*
G01*
G75*
G03*
X89569Y209243I1602J2017D01*
G01*
G75*
G03*
X90243Y209054I1067J2505D01*
G01*
G75*
G03*
X91565Y208998I936J6428D01*
G01*
G75*
G03*
X92683Y209243I-219J3676D01*
G01*
G75*
G03*
X93501Y209761I-917J2353D01*
G01*
G75*
G03*
X93958Y210502I-1158J1225D01*
G01*
G75*
G03*
X94058Y211154I-2289J686D01*
G01*
G75*
G03*
X94076Y213465I-190719J2618D01*
G01*
G75*
G03*
X94065Y215767I-181424J313D01*
G01*
G75*
G03*
X93968Y216453I-2674J-29D01*
G01*
G75*
G03*
X93715Y216963I-1450J-402D01*
G01*
G75*
G03*
X93241Y217458I-2446J-1867D01*
G01*
G75*
G03*
X92730Y217792I-1678J-2006D01*
G01*
G75*
G03*
X92384Y217776I-159J-319D01*
G01*
G75*
G02*
X92343Y217761I-54J88D01*
G01*
G75*
G02*
X92299Y217765I-15J113D01*
G01*
G75*
G02*
X92257Y217785I31J117D01*
G01*
G75*
G02*
X92226Y217819I76J100D01*
G01*
G75*
G03*
X92073Y217907I-157J-97D01*
G01*
G75*
G03*
X91121Y217919I-1134J-49713D01*
G01*
G75*
G03*
X90162Y217915I-243J-57600D01*
G01*
G75*
G03*
X90076Y217827I1J-88D01*
G01*
X91553Y216565D02*
G75*
G03*
X91457Y216624I-554J-791D01*
G01*
G75*
G03*
X91351Y216674I-515J-959D01*
G01*
G75*
G03*
X91252Y216708I-358J-875D01*
G01*
G75*
G03*
X91178Y216718I-69J-244D01*
G01*
G75*
G03*
X91024Y216689I9J-477D01*
G01*
G75*
G03*
X90835Y216604I491J-1342D01*
G01*
G75*
G03*
X90659Y216492I680J-1258D01*
G01*
G75*
G03*
X90552Y216379I280J-374D01*
G01*
G75*
G03*
X90459Y216076I445J-302D01*
G01*
G75*
G03*
X90477Y213439I583278J2514D01*
G01*
G75*
G03*
X90506Y210791I640091J5624D01*
G01*
G75*
G03*
X90604Y210521I438J6D01*
G01*
G75*
G03*
X90775Y210398I311J252D01*
G01*
G75*
G03*
X91027Y210345I302J811D01*
G01*
G75*
G03*
X91301Y210368I55J976D01*
G01*
G75*
G03*
X91535Y210468I-161J702D01*
G01*
X91776Y210625D01*
Y213517D01*
G75*
G03*
X91772Y215428I-465931J-4D01*
G01*
G75*
G03*
X91747Y216061I-9226J-39D01*
G01*
G75*
G03*
X91686Y216383I-1422J-104D01*
G01*
G75*
G03*
X91553Y216565I-333J-104D01*
G01*
X94926Y217746D02*
G75*
G03*
X94879Y217655I70J-94D01*
G01*
G75*
G03*
X94864Y216754I141781J-2805D01*
G01*
G75*
G03*
X94859Y215606I58778J-796D01*
G01*
G75*
G03*
X94876Y214013I211764J1349D01*
G01*
X94926Y210356D01*
X95194Y209950D01*
G75*
G03*
X95824Y209384I1405J931D01*
G01*
G75*
G03*
X96803Y209044I1663J3215D01*
G01*
G75*
G03*
X97988Y208967I901J4680D01*
G01*
G75*
G03*
X99227Y209173I-353J5942D01*
G01*
G75*
G03*
X99619Y209334I-481J1731D01*
G01*
G75*
G03*
X99981Y209587I-1036J1865D01*
G01*
G75*
G03*
X100281Y209909I-1387J1598D01*
G01*
G75*
G03*
X100492Y210271I-1376J1041D01*
G01*
G75*
G03*
X100628Y210901I-1556J666D01*
G01*
G75*
G03*
X100684Y214163I-418064J8847D01*
G01*
G75*
G03*
X100724Y217575I-1034396J13880D01*
G01*
G75*
G03*
X100592Y217770I-206J2D01*
G01*
G75*
G03*
X100332Y217819I-267J-697D01*
G01*
G75*
G03*
X99524Y217817I-329J-38381D01*
G01*
G75*
G03*
X98692Y217801I698J-57461D01*
G01*
G75*
G03*
X98526Y217744I8J-294D01*
G01*
G75*
G03*
X98479Y217657I67J-92D01*
G01*
G75*
G03*
X98452Y216776I142594J-4901D01*
G01*
G75*
G03*
X98431Y215672I55725J-1566D01*
G01*
G75*
G03*
X98426Y214187I179220J-1455D01*
G01*
Y210703D01*
X98179Y210504D01*
G75*
G02*
X97961Y210390I-385J476D01*
G01*
G75*
G02*
X97690Y210356I-247J875D01*
G01*
G75*
G02*
X97427Y210404I21J876D01*
G01*
G75*
G02*
X97228Y210528I170J492D01*
G01*
G75*
G02*
X97180Y210636I117J117D01*
G01*
G75*
G02*
X97139Y211544I135089J6547D01*
G01*
G75*
G02*
X97103Y212682I58817J2442D01*
G01*
G75*
G02*
X97076Y214200I182767J4076D01*
G01*
X97026Y217771D01*
X96026Y217796D01*
G75*
G03*
X95635Y217800I-345J-13485D01*
G01*
G75*
G03*
X95290Y217792I35J-8267D01*
G01*
G75*
G03*
X95003Y217775I508J-11059D01*
G01*
G75*
G03*
X94926Y217746I10J-145D01*
G01*
X96326Y207643D02*
G75*
G03*
X96200Y207557I1170J-1861D01*
G01*
G75*
G03*
X96070Y207457I1747J-2380D01*
G01*
G75*
G03*
X95956Y207357I1711J-2084D01*
G01*
G75*
G03*
X95879Y207276I557J-605D01*
G01*
G75*
G03*
X95811Y207167I377J-311D01*
G01*
G75*
G03*
X95808Y207080I102J-46D01*
G01*
G75*
G03*
X95870Y206984I253J95D01*
G01*
G75*
G03*
X96054Y206811I3343J3372D01*
G01*
G75*
G03*
X96209Y206693I824J919D01*
G01*
G75*
G03*
X96413Y206575I1385J2159D01*
G01*
G75*
G03*
X96630Y206474I1208J2322D01*
G01*
G75*
G03*
X96825Y206410I552J1354D01*
G01*
G75*
G02*
X97067Y206340I-867J-3447D01*
G01*
G75*
G02*
X97192Y206273I-127J-387D01*
G01*
G75*
G02*
X97254Y206185I-117J-148D01*
G01*
G75*
G02*
X97276Y206056I-383J-131D01*
G01*
G75*
G02*
X97231Y205861I-447J0D01*
G01*
G75*
G02*
X97109Y205761I-170J83D01*
G01*
G75*
G02*
X96933Y205776I-67J247D01*
G01*
G75*
G02*
X96736Y205910I327J693D01*
G01*
G75*
G03*
X96477Y206100I-909J-967D01*
G01*
G75*
G03*
X96180Y206222I-643J-1147D01*
G01*
G75*
G03*
X95930Y206251I-218J-793D01*
G01*
G75*
G03*
X95809Y206164I6J-135D01*
G01*
G75*
G03*
X95841Y205922I238J-92D01*
G01*
G75*
G03*
X96100Y205674I814J590D01*
G01*
G75*
G03*
X96500Y205485I849J1285D01*
G01*
G75*
G03*
X96933Y205421I433J1420D01*
G01*
G75*
G03*
X97370Y205503I0J1203D01*
G01*
G75*
G03*
X97805Y205743I-674J1731D01*
G01*
G75*
G03*
X98091Y206039I-760J1022D01*
G01*
G75*
G03*
X98093Y206283I-179J124D01*
G01*
G75*
G03*
X97957Y206414I-362J-241D01*
G01*
G75*
G03*
X97605Y206615I-3725J-6134D01*
G01*
G75*
G03*
X97225Y206800I-2825J-5301D01*
G01*
G75*
G03*
X96926Y206906I-803J-1801D01*
G01*
G75*
G02*
X96811Y206947I187J706D01*
G01*
G75*
G02*
X96713Y207004I220J486D01*
G01*
G75*
G02*
X96647Y207067I218J295D01*
G01*
G75*
G02*
X96626Y207128I75J60D01*
G01*
G75*
G02*
X96691Y207244I135J0D01*
G01*
G75*
G02*
X96862Y207298I200J-329D01*
G01*
G75*
G02*
X97089Y207276I48J-658D01*
G01*
G75*
G02*
X97296Y207178I-184J-657D01*
G01*
G75*
G03*
X97620Y207018I674J960D01*
G01*
G75*
G03*
X97858Y207055I81J262D01*
G01*
G75*
G03*
X97914Y207236I-88J127D01*
G01*
G75*
G03*
X97750Y207492I-674J-252D01*
G01*
G75*
G03*
X97450Y207693I-662J-662D01*
G01*
G75*
G03*
X97065Y207792I-528J-1259D01*
G01*
G75*
G03*
X96666Y207776I-144J-1369D01*
G01*
G75*
G03*
X96326Y207643I180J-958D01*
G01*
X103176Y208022D02*
G75*
G02*
X103161Y207936I-256J1D01*
G01*
G75*
G02*
X103117Y207844I-455J161D01*
G01*
G75*
G02*
X103052Y207760I-441J271D01*
G01*
G75*
G02*
X102976Y207698I-281J268D01*
G01*
G75*
G03*
X102899Y207645I575J-920D01*
G01*
G75*
G03*
X102834Y207591I446J-596D01*
G01*
G75*
G03*
X102787Y207541I417J-442D01*
G01*
G75*
G03*
X102776Y207508I39J-32D01*
G01*
G75*
G03*
X102788Y207480I37J0D01*
G01*
G75*
G03*
X102834Y207448I201J238D01*
G01*
G75*
G03*
X102899Y207417I228J390D01*
G01*
G75*
G03*
X102976Y207392I258J667D01*
G01*
G75*
G02*
X103142Y207224I-59J-224D01*
G01*
G75*
G02*
X103169Y207025I-895J-225D01*
G01*
G75*
G02*
X103176Y206596I-15211J-438D01*
G01*
G75*
G03*
X103205Y206059I4860J-1D01*
G01*
G75*
G03*
X103311Y205746I776J86D01*
G01*
G75*
G03*
X103511Y205570I371J221D01*
G01*
G75*
G03*
X103834Y205491I395J919D01*
G01*
G75*
G03*
X104052Y205522I37J517D01*
G01*
G75*
G03*
X104147Y205642I-51J138D01*
G01*
G75*
G03*
X104106Y205843I-317J40D01*
G01*
G75*
G03*
X103914Y206116I-1676J-974D01*
G01*
G75*
G02*
X103787Y206278I2348J1975D01*
G01*
G75*
G02*
X103730Y206385I344J252D01*
G01*
G75*
G02*
X103727Y206461I116J41D01*
G01*
G75*
G02*
X103770Y206517I94J-26D01*
G01*
G75*
G03*
X103820Y206571I-75J122D01*
G01*
G75*
G03*
X103848Y206652I-226J122D01*
G01*
G75*
G03*
X103852Y206762I-438J69D01*
G01*
G75*
G03*
X103830Y206900I-1117J-106D01*
G01*
G75*
G02*
X103803Y207063I1531J335D01*
G01*
G75*
G02*
X103815Y207158I205J23D01*
G01*
G75*
G02*
X103867Y207221I119J-46D01*
G01*
G75*
G02*
X103969Y207269I239J-377D01*
G01*
G75*
G03*
X104117Y207363I-102J324D01*
G01*
G75*
G03*
X104163Y207503I-132J121D01*
G01*
G75*
G03*
X104094Y207691I-403J-42D01*
G01*
G75*
G03*
X103901Y207930I-1660J-1145D01*
G01*
G75*
G03*
X103658Y208130I-932J-879D01*
G01*
G75*
G03*
X103417Y208218I-315J-494D01*
G01*
G75*
G03*
X103248Y208171I-28J-225D01*
G01*
G75*
G03*
X103176Y208022I117J-149D01*
G01*
X103389Y217836D02*
G75*
G02*
X103324Y217805I-140J211D01*
G01*
G75*
G02*
X103239Y217786I-153J486D01*
G01*
G75*
G02*
X103149Y217782I-71J537D01*
G01*
G75*
G02*
X103068Y217794I13J369D01*
G01*
G75*
G03*
X102780Y217780I-122J-469D01*
G01*
G75*
G03*
X102374Y217591I863J-2375D01*
G01*
G75*
G03*
X101982Y217313I1356J-2337D01*
G01*
G75*
G03*
X101719Y217011I858J-1011D01*
G01*
G75*
G03*
X101593Y216776I1584J-1000D01*
G01*
G75*
G03*
X101521Y216555I1010J-451D01*
G01*
G75*
G03*
X101486Y216283I1671J-356D01*
G01*
G75*
G03*
X101476Y215869I8332J-413D01*
G01*
G75*
G03*
X101573Y215013I3791J-1D01*
G01*
G75*
G03*
X101868Y214375I1682J390D01*
G01*
G75*
G03*
X102493Y213727I2817J2087D01*
G01*
G75*
G03*
X103804Y212727I21269J26551D01*
G01*
G75*
G02*
X104371Y212269I-4061J-5604D01*
G01*
G75*
G02*
X104764Y211837I-1945J-2165D01*
G01*
G75*
G02*
X104996Y211420I-1496J-1107D01*
G01*
G75*
G02*
X105076Y211011I-1024J-410D01*
G01*
G75*
G02*
X105061Y210807I-1490J2D01*
G01*
G75*
G02*
X105015Y210673I-364J50D01*
G01*
G75*
G02*
X104922Y210566I-325J189D01*
G01*
G75*
G02*
X104750Y210448I-982J1253D01*
G01*
G75*
G02*
X104566Y210352I-1062J1800D01*
G01*
G75*
G02*
X104432Y210313I-191J410D01*
G01*
G75*
G02*
X104303Y210320I-45J364D01*
G01*
G75*
G02*
X104141Y210372I244J1049D01*
G01*
G75*
G02*
X103892Y210517I395J964D01*
G01*
G75*
G02*
X103756Y210701I265J338D01*
G01*
G75*
G02*
X103693Y210997I909J347D01*
G01*
G75*
G02*
X103677Y211584I11402J615D01*
G01*
G75*
G03*
X103653Y212188I-7865J-10D01*
G01*
G75*
G03*
X103542Y212404I-316J-25D01*
G01*
G75*
G03*
X103299Y212500I-263J-310D01*
G01*
G75*
G03*
X102576Y212518I-724J-14787D01*
G01*
G75*
G03*
X101832Y212497I0J-13273D01*
G01*
G75*
G03*
X101596Y212384I19J-343D01*
G01*
G75*
G03*
X101493Y212132I298J-269D01*
G01*
G75*
G03*
X101476Y211300I19783J-828D01*
G01*
G75*
G03*
X101503Y210501I11673J-2D01*
G01*
G75*
G03*
X101606Y210050I1490J102D01*
G01*
G75*
G03*
X101824Y209729I834J333D01*
G01*
G75*
G03*
X102226Y209420I1722J1827D01*
G01*
G75*
G03*
X102913Y209151I1085J1757D01*
G01*
G75*
G03*
X103940Y209020I1474J7487D01*
G01*
G75*
G03*
X105030Y209031I470J8019D01*
G01*
G75*
G03*
X105938Y209204I-325J4176D01*
G01*
G75*
G03*
X106530Y209489I-647J2101D01*
G01*
G75*
G03*
X106949Y209916I-861J1263D01*
G01*
G75*
G03*
X107200Y210508I-1524J994D01*
G01*
G75*
G03*
X107294Y211282I-3759J854D01*
G01*
G75*
G03*
X107207Y212151I-3627J73D01*
G01*
G75*
G03*
X106908Y212842I-1981J-446D01*
G01*
G75*
G03*
X106315Y213496I-2565J-1731D01*
G01*
G75*
G03*
X105270Y214279I-8837J-10701D01*
G01*
G75*
G02*
X104317Y214985I8086J11921D01*
G01*
G75*
G02*
X103833Y215526I1410J1749D01*
G01*
G75*
G02*
X103709Y215998I671J427D01*
G01*
G75*
G02*
X103883Y216457I814J-45D01*
G01*
G75*
G02*
X104057Y216627I729J-573D01*
G01*
G75*
G02*
X104240Y216706I256J-343D01*
G01*
G75*
G02*
X104454Y216698I88J-507D01*
G01*
G75*
G02*
X104723Y216604I-384J-1528D01*
G01*
G75*
G02*
X104901Y216479I-248J-542D01*
G01*
G75*
G02*
X105007Y216307I-319J-314D01*
G01*
G75*
G02*
X105065Y216022I-1162J-385D01*
G01*
G75*
G02*
X105100Y215471I-13591J-1140D01*
G01*
X105126Y214871D01*
X106104Y214787D01*
G75*
G03*
X106938Y214738I1293J15067D01*
G01*
G75*
G03*
X107232Y214835I14J454D01*
G01*
G75*
G03*
X107360Y215086I-207J264D01*
G01*
G75*
G03*
X107355Y215767I-7411J281D01*
G01*
G75*
G03*
X107287Y216375I-5298J-287D01*
G01*
G75*
G03*
X107152Y216881I-2835J-483D01*
G01*
G75*
G03*
X106970Y217243I-1685J-618D01*
G01*
G75*
G03*
X106757Y217396I-305J-199D01*
G01*
G75*
G02*
X106688Y217420I125J484D01*
G01*
G75*
G02*
X106629Y217452I136J319D01*
G01*
G75*
G02*
X106588Y217487I131J193D01*
G01*
G75*
G02*
X106576Y217520I35J33D01*
G01*
G75*
G03*
X106522Y217607I-98J0D01*
G01*
G75*
G03*
X106286Y217713I-1085J-2111D01*
G01*
G75*
G03*
X106013Y217797I-769J-2015D01*
G01*
G75*
G03*
X105776Y217826I-249J-1049D01*
G01*
G75*
G02*
X105624Y217830I52J5439D01*
G01*
G75*
G02*
X105305Y217842I3261J86708D01*
G01*
G75*
G02*
X104927Y217859I3694J88851D01*
G01*
G75*
G02*
X104526Y217878I5191J112136D01*
G01*
G75*
G03*
X104132Y217890I-533J-10843D01*
G01*
G75*
G03*
X103779Y217886I-98J-7080D01*
G01*
G75*
G03*
X103487Y217870I294J-7956D01*
G01*
G75*
G03*
X103389Y217836I15J-202D01*
G01*
X109817Y207678D02*
G75*
G03*
X109417Y207393I475J-1091D01*
G01*
G75*
G03*
X109146Y206960I1010J-931D01*
G01*
G75*
G03*
X109058Y206470I1212J-471D01*
G01*
G75*
G03*
X109174Y206023I978J15D01*
G01*
G75*
G03*
X109359Y205801I634J339D01*
G01*
G75*
G03*
X109665Y205604I1092J1366D01*
G01*
G75*
G03*
X110025Y205467I861J1713D01*
G01*
G75*
G03*
X110372Y205421I346J1280D01*
G01*
G75*
G03*
X110606Y205436I3J1739D01*
G01*
G75*
G03*
X110780Y205486I-86J633D01*
G01*
G75*
G03*
X110941Y205585I-293J656D01*
G01*
G75*
G03*
X111135Y205761I-1615J1988D01*
G01*
G75*
G03*
X111324Y205969I-1923J1924D01*
G01*
G75*
G03*
X111419Y206134I-473J383D01*
G01*
G75*
G03*
X111463Y206328I-643J248D01*
G01*
G75*
G03*
X111476Y206643I-4012J318D01*
G01*
G75*
G03*
X111465Y206930I-4054J-2D01*
G01*
G75*
G03*
X111431Y207119I-866J-61D01*
G01*
G75*
G03*
X111363Y207261I-500J-150D01*
G01*
G75*
G03*
X111250Y207391I-602J-410D01*
G01*
G75*
G03*
X110892Y207660I-1601J-1757D01*
G01*
G75*
G03*
X110555Y207792I-541J-882D01*
G01*
G75*
G03*
X110207Y207796I-184J-919D01*
G01*
G75*
G03*
X109817Y207678I303J-1708D01*
G01*
X109950Y217746D02*
X107876Y217717D01*
Y217425D01*
G75*
G03*
X107882Y217295I1221J-2D01*
G01*
G75*
G03*
X107904Y217145I2219J238D01*
G01*
G75*
G03*
X107935Y216999I2156J383D01*
G01*
G75*
G03*
X107971Y216881I993J244D01*
G01*
G75*
G03*
X108053Y216741I472J180D01*
G01*
G75*
G03*
X108164Y216664I190J156D01*
G01*
G75*
G03*
X108357Y216624I248J724D01*
G01*
G75*
G03*
X108796Y216600I1026J14496D01*
G01*
X109526Y216571D01*
X109626Y209171D01*
X111873Y209114D01*
X111926Y216571D01*
X112709Y216600D01*
G75*
G03*
X113119Y216621I-569J15169D01*
G01*
G75*
G03*
X113327Y216652I-82J1261D01*
G01*
G75*
G03*
X113421Y216701I-50J213D01*
G01*
G75*
G03*
X113439Y216772I-42J48D01*
G01*
G75*
G02*
X113426Y216831I194J75D01*
G01*
G75*
G02*
X113430Y216891I200J14D01*
G01*
G75*
G02*
X113452Y216943I167J-39D01*
G01*
G75*
G02*
X113486Y216978I91J-56D01*
G01*
G75*
G03*
X113556Y217091I-78J125D01*
G01*
G75*
G03*
X113557Y217352I-1631J138D01*
G01*
G75*
G03*
X113515Y217615I-1617J-124D01*
G01*
G75*
G03*
X113428Y217744I-218J-54D01*
G01*
G75*
G03*
X113356Y217772I-90J-124D01*
G01*
G75*
G03*
X113165Y217790I-472J-4054D01*
G01*
G75*
G03*
X112932Y217799I-278J-3985D01*
G01*
G75*
G03*
X112676Y217796I-65J-5865D01*
G01*
G75*
G02*
X112302Y217786I-1034J30930D01*
G01*
G75*
G02*
X111607Y217773I-6533J321254D01*
G01*
G75*
G02*
X110793Y217759I-6467J348117D01*
G01*
G75*
G02*
X109950Y217746I-6573J398756D01*
G01*
X110757Y207096D02*
G75*
G03*
X110716Y207178I-170J-32D01*
G01*
G75*
G03*
X110635Y207238I-180J-159D01*
G01*
G75*
G03*
X110502Y207278I-217J-481D01*
G01*
G75*
G03*
X110300Y207302I-372J-2315D01*
G01*
G75*
G03*
X110059Y207313I-326J-4490D01*
G01*
G75*
G03*
X109948Y207292I-5J-276D01*
G01*
G75*
G03*
X109894Y207235I37J-89D01*
G01*
G75*
G03*
X109876Y207126I305J-108D01*
G01*
G75*
G03*
X109896Y207019I286J-1D01*
G01*
G75*
G03*
X109956Y206957I106J44D01*
G01*
G75*
G03*
X110077Y206928I140J310D01*
G01*
G75*
G03*
X110333Y206921I253J4777D01*
G01*
G75*
G03*
X110580Y206927I6J4943D01*
G01*
G75*
G03*
X110698Y206954I-19J357D01*
G01*
G75*
G03*
X110750Y207007I-35J85D01*
G01*
G75*
G03*
X110757Y207096I-158J56D01*
G01*
X111276Y206480D02*
G75*
G03*
X111238Y206517I-37J0D01*
G01*
G75*
G03*
X110697Y206508I672J-56398D01*
G01*
G75*
G03*
X110196Y206490I349J-16606D01*
G01*
G75*
G03*
X109950Y206452I64J-1217D01*
G01*
G75*
G03*
X109883Y206428I95J-370D01*
G01*
G75*
G03*
X109827Y206392I127J-267D01*
G01*
G75*
G03*
X109788Y206352I130J-163D01*
G01*
G75*
G03*
X109776Y206313I52J-39D01*
G01*
G75*
G03*
X109814Y206204I174J0D01*
G01*
G75*
G03*
X109974Y206024I1948J1574D01*
G01*
G75*
G03*
X110152Y205859I1809J1774D01*
G01*
G75*
G03*
X110258Y205821I106J126D01*
G01*
G75*
G03*
X110372Y205854I0J215D01*
G01*
G75*
G03*
X110802Y206127I-16678J26680D01*
G01*
G75*
G03*
X111240Y206415I-25960J40022D01*
G01*
G75*
G03*
X111276Y206480I-43J66D01*
G01*
X116035Y217847D02*
G75*
G02*
X115988Y217818I-87J87D01*
G01*
G75*
G02*
X115894Y217791I-327J957D01*
G01*
G75*
G02*
X115779Y217769I-277J1177D01*
G01*
G75*
G02*
X115656Y217758I-193J1460D01*
G01*
G75*
G03*
X115533Y217742I41J-793D01*
G01*
G75*
G03*
X115415Y217707I154J-742D01*
G01*
G75*
G03*
X115319Y217660I220J-569D01*
G01*
G75*
G03*
X115265Y217607I87J-143D01*
G01*
G75*
G02*
X115231Y217560I-413J263D01*
G01*
G75*
G02*
X115203Y217538I-63J52D01*
G01*
G75*
G02*
X115185Y217542I-7J13D01*
G01*
G75*
G02*
X115177Y217565I27J23D01*
G01*
G75*
G03*
X115107Y217595I-42J-1D01*
G01*
G75*
G03*
X114841Y217335I2509J-2836D01*
G01*
G75*
G03*
X114552Y216991I3373J-3126D01*
G01*
G75*
G03*
X114356Y216679I1678J-1277D01*
G01*
G75*
G03*
X114242Y216356I1126J-578D01*
G01*
G75*
G03*
X114183Y215925I3163J-650D01*
G01*
G75*
G03*
X114154Y215197I12784J-876D01*
G01*
G75*
G03*
X114140Y213527I267215J-3103D01*
G01*
X114126Y210767D01*
X114381Y210270D01*
G75*
G03*
X114678Y209827I2050J1055D01*
G01*
G75*
G03*
X115055Y209491I1416J1207D01*
G01*
G75*
G03*
X115543Y209243I1256J1867D01*
G01*
G75*
G03*
X116176Y209063I1575J4346D01*
G01*
G75*
G03*
X117152Y208964I956J4574D01*
G01*
G75*
G03*
X118113Y209075I-21J4413D01*
G01*
G75*
G03*
X118939Y209371I-813J3570D01*
G01*
G75*
G03*
X119513Y209824I-811J1619D01*
G01*
G75*
G03*
X119617Y209959I-1550J1302D01*
G01*
G75*
G03*
X119714Y210108I-1921J1356D01*
G01*
G75*
G03*
X119791Y210248I-1777J1064D01*
G01*
G75*
G03*
X119830Y210354I-463J231D01*
G01*
G75*
G03*
X119851Y210517I-688J171D01*
G01*
G75*
G03*
X119859Y211418I-223421J2599D01*
G01*
G75*
G03*
X119862Y212469I-103051J796D01*
G01*
G75*
G03*
X119855Y213673I-177904J-502D01*
G01*
G75*
G03*
X119831Y215667I-455023J-4306D01*
G01*
G75*
G03*
X119800Y216394I-12244J-172D01*
G01*
G75*
G03*
X119736Y216790I-2317J-170D01*
G01*
G75*
G03*
X119606Y217054I-683J-171D01*
G01*
G75*
G03*
X119337Y217354I-2428J-1911D01*
G01*
G75*
G03*
X119063Y217575I-1282J-1311D01*
G01*
G75*
G03*
X118786Y217715I-765J-1168D01*
G01*
G75*
G03*
X118511Y217774I-333J-888D01*
G01*
G75*
G02*
X118375Y217786I130J2141D01*
G01*
G75*
G02*
X118250Y217807I194J1568D01*
G01*
G75*
G02*
X118149Y217832I289J1384D01*
G01*
G75*
G02*
X118105Y217857I28J97D01*
G01*
G75*
G03*
X117961Y217918I-146J-146D01*
G01*
G75*
G03*
X117070Y217919I-567J-68951D01*
G01*
G75*
G03*
X116181Y217909I340J-68250D01*
G01*
G75*
G03*
X116035Y217847I4J-211D01*
G01*
X117435Y216644D02*
G75*
G03*
X117280Y216706I-223J-334D01*
G01*
G75*
G03*
X117087Y216712I-119J-691D01*
G01*
G75*
G03*
X116884Y216663I89J-819D01*
G01*
G75*
G03*
X116698Y216565I300J-792D01*
G01*
G75*
G03*
X116565Y216382I200J-285D01*
G01*
G75*
G03*
X116504Y216055I1407J-433D01*
G01*
G75*
G03*
X116479Y215411I9522J-683D01*
G01*
G75*
G03*
X116476Y213462I487789J-1861D01*
G01*
G75*
G03*
X116483Y211238I327520J-10D01*
G01*
G75*
G03*
X116545Y210693I2592J17D01*
G01*
G75*
G03*
X116740Y210463I316J70D01*
G01*
G75*
G03*
X117161Y210381I422J1044D01*
G01*
G75*
G03*
X117507Y210496I0J576D01*
G01*
G75*
G03*
X117693Y210791I-294J391D01*
G01*
G75*
G03*
X117764Y211463I-3566J714D01*
G01*
G75*
G03*
X117776Y213446I-168387J1994D01*
G01*
G75*
G03*
X117765Y215172I-148422J-18D01*
G01*
G75*
G03*
X117719Y215961I-8391J-98D01*
G01*
G75*
G03*
X117622Y216402I-2022J-215D01*
G01*
G75*
G03*
X117435Y216644I-450J-154D01*
G01*
X118884Y207728D02*
G75*
G02*
X118791Y207696I-114J180D01*
G01*
G75*
G02*
X118572Y207681I-379J3822D01*
G01*
G75*
G02*
X118308Y207679I-163J4065D01*
G01*
G75*
G02*
X118022Y207693I135J5622D01*
G01*
G75*
G03*
X117719Y207709I-502J-6559D01*
G01*
G75*
G03*
X117406Y207712I-222J-7482D01*
G01*
G75*
G03*
X117126Y207702I84J-6660D01*
G01*
G75*
G03*
X116938Y207680I80J-1444D01*
G01*
X116576Y207611D01*
Y206628D01*
G75*
G03*
X116581Y206028I34529J-5D01*
G01*
G75*
G03*
X116607Y205785I1350J23D01*
G01*
G75*
G03*
X116670Y205659I261J52D01*
G01*
G75*
G03*
X116785Y205589I175J156D01*
G01*
G75*
G03*
X117039Y205563I213J816D01*
G01*
G75*
G03*
X117184Y205645I-9J185D01*
G01*
G75*
G03*
X117258Y205859I-371J247D01*
G01*
G75*
G03*
X117276Y206324I-6224J470D01*
G01*
G75*
G02*
X117302Y206811I4437J0D01*
G01*
G75*
G02*
X117396Y207105I770J-85D01*
G01*
G75*
G02*
X117569Y207263I328J-183D01*
G01*
G75*
G02*
X117833Y207321I265J-580D01*
G01*
G75*
G02*
X117972Y207291I-1J-343D01*
G01*
G75*
G02*
X118043Y207209I-52J-117D01*
G01*
G75*
G02*
X118071Y207026I-677J-195D01*
G01*
G75*
G02*
X118076Y206481I-32135J-551D01*
G01*
G75*
G03*
X118082Y206055I13927J-8D01*
G01*
G75*
G03*
X118107Y205805I1861J58D01*
G01*
G75*
G03*
X118151Y205655I617J102D01*
G01*
G75*
G03*
X118226Y205585I122J54D01*
G01*
G75*
G03*
X118443Y205555I172J450D01*
G01*
G75*
G03*
X118582Y205643I-16J180D01*
G01*
G75*
G03*
X118657Y205882I-485J283D01*
G01*
G75*
G03*
X118677Y206356I-6028J488D01*
G01*
G75*
G02*
X118694Y206904I9459J-26D01*
G01*
G75*
G02*
X118762Y207164I691J-41D01*
G01*
G75*
G02*
X118900Y207282I204J-99D01*
G01*
G75*
G02*
X119136Y207304I169J-559D01*
G01*
X119426Y207271D01*
X119439Y206483D01*
G75*
G03*
X119465Y205947I8736J155D01*
G01*
G75*
G03*
X119540Y205693I651J52D01*
G01*
G75*
G03*
X119688Y205567I233J124D01*
G01*
G75*
G03*
X119950Y205522I269J789D01*
G01*
G75*
G03*
X120077Y205556I2J250D01*
G01*
G75*
G03*
X120144Y205645I-72J124D01*
G01*
G75*
G03*
X120171Y205845I-849J215D01*
G01*
G75*
G03*
X120176Y206412I-34676J572D01*
G01*
G75*
G03*
X120169Y206982I-23723J-10D01*
G01*
G75*
G03*
X120135Y207219I-1011J-24D01*
G01*
G75*
G03*
X120050Y207381I-402J-108D01*
G01*
G75*
G03*
X119868Y207562I-1170J-994D01*
G01*
G75*
G03*
X119623Y207720I-750J-893D01*
G01*
G75*
G03*
X119357Y207805I-433J-896D01*
G01*
G75*
G03*
X119100Y207808I-139J-820D01*
G01*
G75*
G03*
X118884Y207728I78J-546D01*
G01*
X120733Y217721D02*
G75*
G03*
X120722Y217678I87J-43D01*
G01*
G75*
G03*
X120719Y216437I4443804J-14719D01*
G01*
G75*
G03*
X120717Y215054I384679J-1130D01*
G01*
G75*
G03*
X120719Y213421I742605J257D01*
G01*
X120731Y209171D01*
X122426D01*
X122407Y211321D01*
G75*
G03*
X122396Y212241I-113619J-950D01*
G01*
G75*
G03*
X122376Y213228I-150873J-2514D01*
G01*
G75*
G03*
X122352Y214139I-137677J-3175D01*
G01*
G75*
G03*
X122327Y214796I-38366J-1143D01*
G01*
X122265Y216121D01*
X122520D01*
G75*
G02*
X122618Y216119I-5J-2672D01*
G01*
G75*
G02*
X122701Y216113I-50J-1370D01*
G01*
G75*
G02*
X122767Y216106I-190J-1891D01*
G01*
G75*
G02*
X122776Y216096I-1J-10D01*
G01*
G75*
G03*
X122869Y215376I4246J177D01*
G01*
G75*
G03*
X123493Y212523I514307J111148D01*
G01*
G75*
G03*
X124165Y209516I1315380J292087D01*
G01*
G75*
G03*
X124297Y209246I633J142D01*
G01*
G75*
G03*
X124459Y209157I191J157D01*
G01*
G75*
G03*
X124890Y209126I580J5029D01*
G01*
G75*
G03*
X125500Y209132I229J7898D01*
G01*
G75*
G03*
X126350Y209186I-1411J28962D01*
G01*
X127176Y209250D01*
Y209627D01*
G75*
G03*
X127167Y209774I-1300J-3D01*
G01*
G75*
G03*
X127142Y209904I-848J-97D01*
G01*
G75*
G03*
X127105Y210003I-587J-161D01*
G01*
G75*
G03*
X127061Y210042I-68J-32D01*
G01*
G75*
G02*
X126897Y210268I76J227D01*
G01*
G75*
G02*
X126902Y212055I100402J628D01*
G01*
G75*
G02*
X126972Y214273I56102J-653D01*
G01*
G75*
G02*
X127142Y217061I139237J-7114D01*
G01*
X127198Y217851D01*
X126662Y217787D01*
G75*
G02*
X126434Y217762I-1187J9844D01*
G01*
G75*
G02*
X126192Y217741I-1211J12409D01*
G01*
G75*
G02*
X125970Y217726I-851J11241D01*
G01*
G75*
G02*
X125814Y217722I-165J2871D01*
G01*
X125503Y217721D01*
X125553Y214896D01*
G75*
G03*
X125581Y213625I131212J2331D01*
G01*
G75*
G03*
X125618Y212747I31111J844D01*
G01*
G75*
G03*
X125659Y212092I46792J2594D01*
G01*
G75*
G03*
X125714Y211997I123J9D01*
G01*
G75*
G02*
X125731Y211969I-21J-31D01*
G01*
G75*
G02*
X125717Y211944I-25J-2D01*
G01*
G75*
G02*
X125658Y211928I-77J156D01*
G01*
G75*
G02*
X125563Y211922I-102J944D01*
G01*
G75*
G02*
X125454Y211931I-2J626D01*
G01*
G75*
G02*
X125346Y211958I115J687D01*
G01*
G75*
G02*
X125254Y211999I193J562D01*
G01*
G75*
G02*
X125194Y212048I96J178D01*
G01*
G75*
G02*
X125143Y212151I198J164D01*
G01*
G75*
G02*
X125029Y212632I36794J8956D01*
G01*
G75*
G02*
X124905Y213204I22067J5087D01*
G01*
G75*
G02*
X124778Y213858I37277J7561D01*
G01*
G75*
G03*
X124637Y214584I-45829J-8496D01*
G01*
G75*
G03*
X124473Y215374I-64757J-13043D01*
G01*
G75*
G03*
X124311Y216111I-59808J-12808D01*
G01*
G75*
G03*
X124178Y216656I-18581J-4223D01*
G01*
X123891Y217771D01*
X122324D01*
G75*
G03*
X121722Y217767I28J-50385D01*
G01*
G75*
G03*
X121210Y217756I311J-26308D01*
G01*
G75*
G03*
X120764Y217741I3319J-105617D01*
G01*
G75*
G03*
X120733Y217721I1J-37D01*
G01*
X125726Y207637D02*
G75*
G03*
X125600Y207553I1082J-1771D01*
G01*
G75*
G03*
X125470Y207455I1630J-2273D01*
G01*
G75*
G03*
X125356Y207357I1603J-1989D01*
G01*
G75*
G03*
X125279Y207276I533J-584D01*
G01*
G75*
G03*
X125211Y207167I377J-311D01*
G01*
G75*
G03*
X125208Y207080I102J-46D01*
G01*
G75*
G03*
X125270Y206984I253J95D01*
G01*
G75*
G03*
X125454Y206811I3343J3372D01*
G01*
G75*
G03*
X125609Y206693I824J919D01*
G01*
G75*
G03*
X125813Y206575I1385J2159D01*
G01*
G75*
G03*
X126030Y206474I1208J2322D01*
G01*
G75*
G03*
X126225Y206410I552J1354D01*
G01*
G75*
G02*
X126419Y206352I-541J-2154D01*
G01*
G75*
G02*
X126560Y206286I-257J-733D01*
G01*
G75*
G02*
X126646Y206215I-200J-333D01*
G01*
G75*
G02*
X126676Y206142I-80J-74D01*
G01*
G75*
G03*
X126687Y206069I230J-1D01*
G01*
G75*
G03*
X126724Y205978I685J227D01*
G01*
G75*
G03*
X126778Y205884I744J364D01*
G01*
G75*
G03*
X126842Y205802I585J390D01*
G01*
G75*
G02*
X126937Y205689I-1640J-1484D01*
G01*
G75*
G02*
X126927Y205664I-13J-10D01*
G01*
G75*
G02*
X126864Y205670I-17J142D01*
G01*
G75*
G02*
X126576Y205770I9735J28480D01*
G01*
G75*
G02*
X126401Y205837I1422J4033D01*
G01*
G75*
G02*
X126233Y205909I1440J3574D01*
G01*
G75*
G02*
X126093Y205977I1433J3118D01*
G01*
G75*
G02*
X126019Y206026I189J365D01*
G01*
G75*
G03*
X125832Y206137I-449J-542D01*
G01*
G75*
G03*
X125569Y206221I-674J-1670D01*
G01*
G75*
G03*
X125319Y206261I-422J-1809D01*
G01*
G75*
G03*
X125220Y206213I-9J-104D01*
G01*
G75*
G03*
X125217Y205959I210J-130D01*
G01*
G75*
G03*
X125460Y205694I718J414D01*
G01*
G75*
G03*
X125881Y205491I846J1215D01*
G01*
G75*
G03*
X126357Y205421I475J1585D01*
G01*
G75*
G03*
X126717Y205463I1J1541D01*
G01*
G75*
G03*
X126972Y205593I-144J601D01*
G01*
G75*
G03*
X127123Y205811I-330J389D01*
G01*
G75*
G03*
X127176Y206115I-854J305D01*
G01*
G75*
G03*
X127128Y206402I-888J-1D01*
G01*
G75*
G03*
X126990Y206611I-472J-160D01*
G01*
G75*
G03*
X126729Y206772I-571J-634D01*
G01*
G75*
G03*
X126285Y206918I-1556J-3982D01*
G01*
G75*
G02*
X126119Y206972I463J1726D01*
G01*
G75*
G02*
X125992Y207033I269J710D01*
G01*
G75*
G02*
X125914Y207096I200J331D01*
G01*
G75*
G02*
X125902Y207151I40J38D01*
G01*
G75*
G02*
X126016Y207259I157J-52D01*
G01*
G75*
G02*
X126288Y207299I305J-1137D01*
G01*
G75*
G02*
X126593Y207274I39J-1374D01*
G01*
G75*
G02*
X126829Y207178I-129J-653D01*
G01*
G75*
G03*
X127042Y207046I2603J3966D01*
G01*
G75*
G03*
X127123Y207038I48J83D01*
G01*
G75*
G03*
X127167Y207095I-22J62D01*
G01*
G75*
G03*
X127176Y207300I-2371J207D01*
G01*
G75*
G03*
X127159Y207448I-688J0D01*
G01*
G75*
G03*
X127110Y207549I-233J-52D01*
G01*
G75*
G03*
X127013Y207626I-237J-197D01*
G01*
G75*
G03*
X126843Y207700I-664J-1294D01*
G01*
G75*
G03*
X126519Y207791I-781J-2159D01*
G01*
G75*
G03*
X126242Y207811I-216J-1060D01*
G01*
G75*
G03*
X125985Y207760I53J-935D01*
G01*
G75*
G03*
X125726Y207637I454J-1289D01*
G01*
D02*
D11*
X47995Y16048D02*
Y14741D01*
Y14648D01*
X47999Y14567D01*
X48003Y14494D01*
X48007Y14429D01*
X48015Y14371D01*
X48022Y14325D01*
X48034Y14287D01*
X48045Y14256D01*
X48072Y14210D01*
X48107Y14168D01*
X48157Y14133D01*
X48211Y14098D01*
X48245Y14087D01*
X48283Y14075D01*
X48330Y14064D01*
X48380Y14056D01*
X48437Y14048D01*
X48503Y14044D01*
X48572Y14041D01*
X48649D01*
Y13914D01*
X46254D01*
Y14041D01*
X46334D01*
X46404Y14044D01*
X46469Y14048D01*
X46530Y14056D01*
X46580Y14064D01*
X46626Y14075D01*
X46665Y14087D01*
X46700Y14102D01*
X46754Y14133D01*
X46796Y14172D01*
X46834Y14214D01*
X46861Y14260D01*
X46872Y14287D01*
X46880Y14325D01*
X46892Y14371D01*
X46896Y14429D01*
X46904Y14494D01*
X46907Y14567D01*
Y14648D01*
Y14741D01*
Y17793D01*
Y17885D01*
Y17966D01*
X46904Y18039D01*
X46896Y18105D01*
X46892Y18162D01*
X46880Y18208D01*
X46872Y18247D01*
X46861Y18274D01*
X46834Y18324D01*
X46796Y18362D01*
X46750Y18401D01*
X46696Y18435D01*
X46665Y18447D01*
X46623Y18458D01*
X46580Y18470D01*
X46527Y18478D01*
X46469Y18485D01*
X46404Y18489D01*
X46331Y18493D01*
X46254D01*
Y18620D01*
X48307D01*
X48430D01*
X48553Y18612D01*
X48668Y18608D01*
X48780Y18597D01*
X48883Y18585D01*
X48987Y18570D01*
X49083Y18551D01*
X49176Y18528D01*
X49264Y18504D01*
X49349Y18478D01*
X49430Y18451D01*
X49506Y18416D01*
X49576Y18381D01*
X49641Y18343D01*
X49702Y18305D01*
X49760Y18258D01*
X49864Y18166D01*
X49956Y18066D01*
X50029Y17962D01*
X50091Y17855D01*
X50141Y17739D01*
X50175Y17617D01*
X50194Y17489D01*
X50202Y17359D01*
X50198Y17247D01*
X50183Y17136D01*
X50164Y17032D01*
X50133Y16932D01*
X50091Y16836D01*
X50041Y16744D01*
X49983Y16659D01*
X49918Y16574D01*
X49844Y16498D01*
X49764Y16424D01*
X49676Y16359D01*
X49579Y16302D01*
X49480Y16248D01*
X49372Y16202D01*
X49256Y16163D01*
X49133Y16132D01*
X49041Y16109D01*
X48937Y16094D01*
X48818Y16078D01*
X48680Y16067D01*
X48533Y16059D01*
X48368Y16052D01*
X48187Y16048D01*
X47995D01*
Y18351D02*
Y16317D01*
X48049Y16313D01*
X48095D01*
X48137Y16309D01*
X48169D01*
X48272Y16313D01*
X48368Y16324D01*
X48461Y16344D01*
X48545Y16370D01*
X48622Y16409D01*
X48695Y16452D01*
X48760Y16502D01*
X48822Y16563D01*
X48876Y16628D01*
X48922Y16705D01*
X48960Y16790D01*
X48991Y16882D01*
X49018Y16982D01*
X49033Y17093D01*
X49045Y17213D01*
X49049Y17339D01*
X49045Y17467D01*
X49033Y17585D01*
X49018Y17693D01*
X48991Y17793D01*
X48960Y17885D01*
X48922Y17970D01*
X48876Y18043D01*
X48822Y18109D01*
X48760Y18166D01*
X48691Y18212D01*
X48618Y18255D01*
X48537Y18289D01*
X48445Y18316D01*
X48353Y18335D01*
X48249Y18347D01*
X48137Y18351D01*
X47995D01*
X52732Y18716D02*
Y14867D01*
Y14763D01*
X52736Y14671D01*
Y14587D01*
X52744Y14510D01*
X52747Y14448D01*
X52755Y14394D01*
X52763Y14348D01*
X52770Y14314D01*
X52794Y14256D01*
X52828Y14202D01*
X52874Y14156D01*
X52932Y14118D01*
X52963Y14098D01*
X53001Y14083D01*
X53043Y14072D01*
X53090Y14060D01*
X53139Y14052D01*
X53197Y14044D01*
X53255Y14041D01*
X53320D01*
X53428D01*
Y13914D01*
X50948D01*
Y14041D01*
X51071D01*
X51144D01*
X51213Y14044D01*
X51275Y14048D01*
X51333Y14056D01*
X51383Y14068D01*
X51429Y14079D01*
X51467Y14094D01*
X51502Y14110D01*
X51563Y14148D01*
X51609Y14191D01*
X51648Y14244D01*
X51675Y14302D01*
X51686Y14337D01*
X51694Y14383D01*
X51702Y14437D01*
X51709Y14502D01*
X51713Y14579D01*
X51717Y14664D01*
X51721Y14760D01*
Y14867D01*
Y17305D01*
Y17382D01*
Y17455D01*
X51717Y17517D01*
X51713Y17570D01*
X51709Y17620D01*
X51702Y17659D01*
X51698Y17689D01*
X51690Y17716D01*
X51671Y17755D01*
X51644Y17789D01*
X51613Y17824D01*
X51575Y17855D01*
X51529Y17878D01*
X51482Y17897D01*
X51433Y17909D01*
X51375Y17912D01*
X51283Y17905D01*
X51179Y17885D01*
X51067Y17851D01*
X50944Y17801D01*
X50883Y17924D01*
X52617Y18716D01*
X52732D01*
X57269Y16267D02*
X57265Y16094D01*
X57257Y15921D01*
X57242Y15752D01*
X57219Y15586D01*
X57192Y15421D01*
X57157Y15263D01*
X57119Y15106D01*
X57073Y14952D01*
X57042Y14860D01*
X57007Y14771D01*
X56973Y14691D01*
X56934Y14610D01*
X56892Y14537D01*
X56850Y14467D01*
X56804Y14398D01*
X56754Y14337D01*
X56650Y14225D01*
X56542Y14122D01*
X56423Y14033D01*
X56300Y13956D01*
X56235Y13926D01*
X56169Y13894D01*
X56104Y13872D01*
X56035Y13852D01*
X55965Y13837D01*
X55896Y13826D01*
X55823Y13822D01*
X55750Y13818D01*
X55665Y13822D01*
X55581Y13829D01*
X55504Y13841D01*
X55423Y13860D01*
X55350Y13887D01*
X55277Y13914D01*
X55204Y13948D01*
X55135Y13991D01*
X55066Y14037D01*
X55000Y14087D01*
X54939Y14141D01*
X54878Y14202D01*
X54816Y14268D01*
X54758Y14337D01*
X54700Y14410D01*
X54647Y14487D01*
X54612Y14548D01*
X54574Y14614D01*
X54539Y14687D01*
X54504Y14763D01*
X54474Y14844D01*
X54439Y14929D01*
X54408Y15021D01*
X54381Y15113D01*
X54347Y15248D01*
X54316Y15383D01*
X54289Y15517D01*
X54270Y15656D01*
X54251Y15790D01*
X54239Y15932D01*
X54235Y16071D01*
X54231Y16213D01*
X54235Y16402D01*
X54247Y16586D01*
X54262Y16767D01*
X54285Y16947D01*
X54316Y17120D01*
X54354Y17289D01*
X54397Y17459D01*
X54447Y17620D01*
X54493Y17747D01*
X54547Y17870D01*
X54604Y17981D01*
X54670Y18089D01*
X54739Y18185D01*
X54816Y18278D01*
X54896Y18358D01*
X54985Y18431D01*
X55077Y18501D01*
X55170Y18558D01*
X55262Y18604D01*
X55358Y18647D01*
X55454Y18678D01*
X55550Y18697D01*
X55650Y18712D01*
X55750Y18716D01*
X55850Y18712D01*
X55950Y18697D01*
X56046Y18678D01*
X56146Y18647D01*
X56239Y18608D01*
X56335Y18558D01*
X56423Y18501D01*
X56515Y18435D01*
X56600Y18362D01*
X56681Y18285D01*
X56754Y18201D01*
X56823Y18109D01*
X56884Y18012D01*
X56942Y17909D01*
X56992Y17801D01*
X57038Y17685D01*
X57092Y17520D01*
X57138Y17355D01*
X57176Y17182D01*
X57211Y17005D01*
X57238Y16828D01*
X57254Y16644D01*
X57265Y16459D01*
X57269Y16267D01*
X56200Y16274D02*
Y16424D01*
Y16567D01*
Y16701D01*
Y16828D01*
Y16947D01*
Y17055D01*
X56196Y17159D01*
Y17251D01*
Y17336D01*
Y17417D01*
X56192Y17486D01*
Y17547D01*
Y17601D01*
X56189Y17647D01*
Y17685D01*
X56185Y17713D01*
X56177Y17828D01*
X56161Y17935D01*
X56146Y18031D01*
X56127Y18116D01*
X56104Y18193D01*
X56081Y18262D01*
X56050Y18320D01*
X56019Y18366D01*
X55969Y18416D01*
X55908Y18451D01*
X55831Y18470D01*
X55739Y18478D01*
X55669Y18474D01*
X55604Y18454D01*
X55550Y18431D01*
X55504Y18393D01*
X55473Y18362D01*
X55443Y18320D01*
X55419Y18278D01*
X55396Y18228D01*
X55377Y18170D01*
X55358Y18109D01*
X55343Y18039D01*
X55331Y17966D01*
X55323Y17920D01*
X55320Y17866D01*
X55316Y17797D01*
X55312Y17716D01*
X55308Y17624D01*
X55304Y17520D01*
X55300Y17405D01*
X55296Y17278D01*
X55293Y17136D01*
Y16986D01*
X55289Y16820D01*
Y16644D01*
X55285Y16459D01*
Y16259D01*
Y16048D01*
Y15825D01*
Y15702D01*
Y15583D01*
X55289Y15471D01*
Y15363D01*
X55293Y15263D01*
X55296Y15167D01*
Y15075D01*
X55304Y14991D01*
X55308Y14906D01*
X55312Y14833D01*
X55320Y14760D01*
X55323Y14694D01*
X55331Y14633D01*
X55339Y14579D01*
X55346Y14529D01*
X55354Y14483D01*
X55370Y14425D01*
X55385Y14371D01*
X55400Y14321D01*
X55416Y14279D01*
X55439Y14241D01*
X55458Y14206D01*
X55481Y14179D01*
X55504Y14156D01*
X55554Y14118D01*
X55616Y14091D01*
X55685Y14075D01*
X55762Y14072D01*
X55843Y14079D01*
X55911Y14098D01*
X55969Y14133D01*
X56019Y14183D01*
X56054Y14233D01*
X56085Y14294D01*
X56111Y14356D01*
X56135Y14429D01*
X56154Y14506D01*
X56169Y14594D01*
X56181Y14683D01*
X56185Y14783D01*
X56200Y16274D01*
X57465Y12833D02*
X61152D01*
Y12380D01*
X57465D01*
Y12833D01*
X62974Y16059D02*
Y14741D01*
Y14648D01*
X62978Y14567D01*
X62982Y14494D01*
X62986Y14429D01*
X62994Y14371D01*
X63001Y14325D01*
X63009Y14287D01*
X63020Y14256D01*
X63047Y14210D01*
X63086Y14168D01*
X63132Y14133D01*
X63186Y14098D01*
X63220Y14087D01*
X63259Y14075D01*
X63305Y14064D01*
X63355Y14056D01*
X63413Y14048D01*
X63478Y14044D01*
X63551Y14041D01*
X63628D01*
Y13914D01*
X61217D01*
Y14041D01*
X61294D01*
X61367Y14044D01*
X61433Y14048D01*
X61490Y14056D01*
X61544Y14064D01*
X61590Y14075D01*
X61629Y14087D01*
X61659Y14102D01*
X61713Y14133D01*
X61759Y14172D01*
X61798Y14214D01*
X61825Y14260D01*
X61836Y14287D01*
X61844Y14325D01*
X61852Y14371D01*
X61859Y14429D01*
X61863Y14494D01*
X61867Y14567D01*
X61871Y14648D01*
Y14741D01*
Y17793D01*
Y17885D01*
X61867Y17966D01*
X61863Y18039D01*
X61859Y18105D01*
X61852Y18162D01*
X61844Y18208D01*
X61836Y18247D01*
X61825Y18274D01*
X61798Y18324D01*
X61759Y18362D01*
X61713Y18401D01*
X61659Y18435D01*
X61625Y18447D01*
X61587Y18458D01*
X61540Y18470D01*
X61490Y18478D01*
X61433Y18485D01*
X61367Y18489D01*
X61294Y18493D01*
X61217D01*
Y18620D01*
X63405D01*
X63613Y18616D01*
X63805Y18612D01*
X63982Y18604D01*
X64143Y18589D01*
X64293Y18574D01*
X64428Y18554D01*
X64547Y18528D01*
X64655Y18501D01*
X64751Y18470D01*
X64843Y18431D01*
X64931Y18385D01*
X65016Y18335D01*
X65093Y18278D01*
X65166Y18212D01*
X65235Y18143D01*
X65300Y18066D01*
X65358Y17985D01*
X65408Y17901D01*
X65454Y17813D01*
X65489Y17720D01*
X65516Y17628D01*
X65535Y17528D01*
X65546Y17428D01*
X65550Y17320D01*
X65546Y17193D01*
X65527Y17074D01*
X65496Y16959D01*
X65458Y16847D01*
X65404Y16744D01*
X65339Y16644D01*
X65262Y16551D01*
X65174Y16463D01*
X65112Y16409D01*
X65043Y16359D01*
X64970Y16317D01*
X64889Y16274D01*
X64801Y16236D01*
X64708Y16198D01*
X64608Y16167D01*
X64505Y16140D01*
X65635Y14544D01*
X65689Y14471D01*
X65739Y14402D01*
X65785Y14344D01*
X65827Y14291D01*
X65862Y14248D01*
X65896Y14210D01*
X65927Y14179D01*
X65954Y14160D01*
X66027Y14110D01*
X66108Y14075D01*
X66193Y14052D01*
X66285Y14041D01*
Y13914D01*
X64801D01*
X63282Y16059D01*
X62974D01*
Y18366D02*
Y16305D01*
X63170D01*
X63290D01*
X63397Y16309D01*
X63501Y16317D01*
X63593Y16328D01*
X63682Y16340D01*
X63759Y16355D01*
X63832Y16374D01*
X63893Y16394D01*
X63955Y16417D01*
X64009Y16448D01*
X64059Y16478D01*
X64109Y16517D01*
X64155Y16559D01*
X64197Y16605D01*
X64235Y16655D01*
X64270Y16713D01*
X64305Y16770D01*
X64331Y16836D01*
X64355Y16905D01*
X64374Y16978D01*
X64389Y17055D01*
X64401Y17136D01*
X64405Y17224D01*
X64409Y17317D01*
X64405Y17443D01*
X64393Y17567D01*
X64374Y17678D01*
X64347Y17781D01*
X64309Y17878D01*
X64266Y17962D01*
X64216Y18039D01*
X64159Y18109D01*
X64089Y18170D01*
X64013Y18220D01*
X63924Y18266D01*
X63828Y18301D01*
X63720Y18331D01*
X63605Y18351D01*
X63482Y18362D01*
X63347Y18366D01*
X62974D01*
X71121Y18728D02*
Y17067D01*
X70994D01*
X70933Y17232D01*
X70864Y17386D01*
X70787Y17532D01*
X70702Y17666D01*
X70614Y17789D01*
X70514Y17905D01*
X70410Y18009D01*
X70298Y18101D01*
X70180Y18181D01*
X70060Y18255D01*
X69937Y18316D01*
X69810Y18366D01*
X69683Y18404D01*
X69549Y18431D01*
X69418Y18451D01*
X69280Y18454D01*
X69153Y18451D01*
X69026Y18435D01*
X68911Y18412D01*
X68795Y18381D01*
X68691Y18339D01*
X68588Y18289D01*
X68492Y18228D01*
X68403Y18158D01*
X68319Y18081D01*
X68238Y17993D01*
X68169Y17901D01*
X68103Y17801D01*
X68046Y17697D01*
X67992Y17582D01*
X67946Y17459D01*
X67907Y17332D01*
X67872Y17197D01*
X67842Y17063D01*
X67819Y16928D01*
X67796Y16794D01*
X67780Y16655D01*
X67769Y16520D01*
X67761Y16382D01*
Y16240D01*
Y16075D01*
X67769Y15913D01*
X67784Y15759D01*
X67800Y15606D01*
X67822Y15459D01*
X67850Y15321D01*
X67880Y15187D01*
X67919Y15056D01*
X67961Y14933D01*
X68011Y14817D01*
X68065Y14710D01*
X68126Y14614D01*
X68196Y14525D01*
X68269Y14444D01*
X68349Y14371D01*
X68434Y14306D01*
X68526Y14252D01*
X68619Y14202D01*
X68719Y14160D01*
X68822Y14125D01*
X68930Y14102D01*
X69041Y14083D01*
X69157Y14072D01*
X69276Y14068D01*
X69364Y14072D01*
X69449Y14075D01*
X69537Y14087D01*
X69626Y14102D01*
X69714Y14125D01*
X69806Y14148D01*
X69899Y14175D01*
X69991Y14210D01*
Y15190D01*
Y15256D01*
X69987Y15317D01*
Y15371D01*
X69983Y15417D01*
X69976Y15459D01*
X69968Y15498D01*
X69960Y15525D01*
X69953Y15548D01*
X69930Y15590D01*
X69895Y15629D01*
X69849Y15663D01*
X69795Y15698D01*
X69733Y15725D01*
X69664Y15748D01*
X69587Y15759D01*
X69507Y15763D01*
X69383D01*
Y15890D01*
X71675D01*
Y15763D01*
X71613Y15759D01*
X71556Y15752D01*
X71502Y15744D01*
X71452Y15736D01*
X71410Y15729D01*
X71371Y15717D01*
X71341Y15706D01*
X71310Y15690D01*
X71264Y15659D01*
X71221Y15621D01*
X71183Y15571D01*
X71152Y15513D01*
X71144Y15494D01*
X71141Y15467D01*
X71133Y15436D01*
X71129Y15398D01*
X71125Y15356D01*
Y15306D01*
X71121Y15252D01*
Y15190D01*
Y14210D01*
X70894Y14118D01*
X70660Y14033D01*
X70426Y13964D01*
X70183Y13906D01*
X69937Y13864D01*
X69687Y13833D01*
X69430Y13814D01*
X69172Y13806D01*
X69007Y13810D01*
X68849Y13818D01*
X68703Y13833D01*
X68557Y13852D01*
X68422Y13876D01*
X68296Y13910D01*
X68172Y13944D01*
X68061Y13987D01*
X67846Y14087D01*
X67642Y14198D01*
X67454Y14325D01*
X67280Y14467D01*
X67196Y14541D01*
X67119Y14617D01*
X67046Y14698D01*
X66977Y14779D01*
X66915Y14863D01*
X66854Y14952D01*
X66800Y15041D01*
X66750Y15133D01*
X66692Y15256D01*
X66642Y15379D01*
X66600Y15509D01*
X66569Y15640D01*
X66542Y15775D01*
X66523Y15913D01*
X66511Y16059D01*
X66508Y16206D01*
Y16336D01*
X66519Y16463D01*
X66535Y16590D01*
X66554Y16713D01*
X66581Y16836D01*
X66611Y16951D01*
X66650Y17070D01*
X66692Y17182D01*
X66742Y17293D01*
X66800Y17401D01*
X66857Y17505D01*
X66927Y17609D01*
X67000Y17709D01*
X67077Y17809D01*
X67161Y17905D01*
X67254Y17997D01*
X67346Y18085D01*
X67446Y18166D01*
X67546Y18243D01*
X67650Y18316D01*
X67757Y18381D01*
X67865Y18443D01*
X67980Y18497D01*
X68096Y18543D01*
X68215Y18589D01*
X68338Y18624D01*
X68461Y18654D01*
X68588Y18681D01*
X68719Y18700D01*
X68853Y18716D01*
X68991Y18724D01*
X69130Y18728D01*
X69303Y18724D01*
X69464Y18712D01*
X69618Y18697D01*
X69764Y18674D01*
X69803Y18662D01*
X69849Y18650D01*
X69903Y18635D01*
X69964Y18620D01*
X70026Y18597D01*
X70099Y18574D01*
X70176Y18547D01*
X70256Y18516D01*
X70337Y18485D01*
X70410Y18458D01*
X70476Y18435D01*
X70529Y18416D01*
X70576Y18404D01*
X70614Y18393D01*
X70641Y18385D01*
X70660D01*
X70710Y18389D01*
X70756Y18404D01*
X70798Y18424D01*
X70841Y18458D01*
X70864Y18478D01*
X70883Y18501D01*
X70902Y18528D01*
X70921Y18558D01*
X70941Y18597D01*
X70960Y18635D01*
X70975Y18681D01*
X70994Y18728D01*
X71121D01*
X74901Y16409D02*
X75062Y16367D01*
X75212Y16324D01*
X75350Y16282D01*
X75474Y16236D01*
X75585Y16186D01*
X75685Y16136D01*
X75774Y16082D01*
X75846Y16028D01*
X75939Y15948D01*
X76020Y15859D01*
X76085Y15767D01*
X76143Y15667D01*
X76185Y15563D01*
X76216Y15452D01*
X76231Y15333D01*
X76239Y15209D01*
X76231Y15083D01*
X76212Y14956D01*
X76177Y14841D01*
X76131Y14725D01*
X76073Y14617D01*
X76000Y14517D01*
X75912Y14421D01*
X75812Y14333D01*
X75674Y14237D01*
X75520Y14148D01*
X75350Y14079D01*
X75170Y14018D01*
X74970Y13972D01*
X74759Y13941D01*
X74531Y13922D01*
X74289Y13914D01*
X71894D01*
Y14041D01*
X71975D01*
X72048Y14044D01*
X72113Y14048D01*
X72171Y14056D01*
X72221Y14064D01*
X72267Y14075D01*
X72306Y14087D01*
X72340Y14102D01*
X72394Y14133D01*
X72440Y14172D01*
X72475Y14214D01*
X72502Y14260D01*
X72513Y14287D01*
X72525Y14325D01*
X72532Y14371D01*
X72536Y14429D01*
X72544Y14494D01*
X72548Y14567D01*
Y14648D01*
Y14741D01*
Y17793D01*
Y17885D01*
Y17966D01*
X72544Y18039D01*
X72536Y18105D01*
X72532Y18162D01*
X72525Y18208D01*
X72513Y18247D01*
X72502Y18274D01*
X72475Y18324D01*
X72436Y18362D01*
X72394Y18401D01*
X72336Y18435D01*
X72306Y18447D01*
X72267Y18458D01*
X72221Y18470D01*
X72167Y18478D01*
X72109Y18485D01*
X72044Y18489D01*
X71975Y18493D01*
X71894D01*
Y18620D01*
X74151D01*
X74347Y18616D01*
X74528Y18612D01*
X74693Y18601D01*
X74843Y18585D01*
X74978Y18562D01*
X75101Y18539D01*
X75208Y18508D01*
X75297Y18474D01*
X75381Y18435D01*
X75458Y18393D01*
X75531Y18347D01*
X75600Y18297D01*
X75662Y18239D01*
X75724Y18178D01*
X75777Y18112D01*
X75827Y18043D01*
X75874Y17974D01*
X75916Y17901D01*
X75946Y17824D01*
X75974Y17751D01*
X75996Y17674D01*
X76012Y17593D01*
X76020Y17517D01*
X76023Y17436D01*
X76020Y17351D01*
X76008Y17270D01*
X75989Y17190D01*
X75962Y17113D01*
X75927Y17040D01*
X75885Y16967D01*
X75835Y16897D01*
X75774Y16828D01*
X75708Y16767D01*
X75628Y16705D01*
X75535Y16648D01*
X75431Y16590D01*
X75316Y16540D01*
X75189Y16494D01*
X75051Y16448D01*
X74901Y16409D01*
X73644Y16502D02*
X73763D01*
X73874Y16509D01*
X73978Y16517D01*
X74074Y16528D01*
X74159Y16544D01*
X74239Y16563D01*
X74309Y16586D01*
X74374Y16613D01*
X74485Y16674D01*
X74581Y16748D01*
X74662Y16828D01*
X74731Y16924D01*
X74762Y16978D01*
X74789Y17032D01*
X74809Y17093D01*
X74828Y17155D01*
X74839Y17220D01*
X74851Y17289D01*
X74858Y17363D01*
Y17439D01*
Y17517D01*
X74851Y17589D01*
X74843Y17659D01*
X74828Y17724D01*
X74812Y17785D01*
X74789Y17847D01*
X74762Y17901D01*
X74735Y17955D01*
X74666Y18047D01*
X74585Y18128D01*
X74489Y18201D01*
X74382Y18258D01*
X74320Y18281D01*
X74251Y18301D01*
X74170Y18320D01*
X74082Y18335D01*
X73986Y18347D01*
X73882Y18355D01*
X73767Y18358D01*
X73644D01*
Y16502D01*
Y16232D02*
Y14721D01*
X73640Y14552D01*
X73647Y14464D01*
X73667Y14387D01*
X73693Y14321D01*
X73736Y14271D01*
X73786Y14229D01*
X73851Y14198D01*
X73924Y14179D01*
X74013Y14175D01*
X74078D01*
X74143Y14183D01*
X74209Y14191D01*
X74274Y14206D01*
X74335Y14221D01*
X74393Y14244D01*
X74455Y14268D01*
X74513Y14298D01*
X74620Y14368D01*
X74716Y14448D01*
X74797Y14544D01*
X74862Y14656D01*
X74916Y14775D01*
X74955Y14902D01*
X74978Y15037D01*
X74985Y15175D01*
X74981Y15256D01*
X74978Y15337D01*
X74966Y15413D01*
X74951Y15486D01*
X74931Y15559D01*
X74908Y15632D01*
X74881Y15702D01*
X74851Y15767D01*
X74812Y15829D01*
X74774Y15886D01*
X74728Y15940D01*
X74678Y15990D01*
X74628Y16032D01*
X74570Y16071D01*
X74509Y16102D01*
X74443Y16132D01*
X74374Y16156D01*
X74293Y16178D01*
X74205Y16194D01*
X74109Y16209D01*
X74005Y16221D01*
X73893Y16228D01*
X73770Y16232D01*
X73644D01*
X76423Y12833D02*
X80110D01*
Y12380D01*
X76423D01*
Y12833D01*
X85105Y18620D02*
Y18493D01*
X85043Y18478D01*
X84981Y18458D01*
X84920Y18435D01*
X84863Y18404D01*
X84805Y18366D01*
X84751Y18324D01*
X84697Y18274D01*
X84647Y18220D01*
X84609Y18166D01*
X84567Y18101D01*
X84517Y18020D01*
X84467Y17928D01*
X84409Y17816D01*
X84347Y17693D01*
X84282Y17555D01*
X84213Y17401D01*
X82590Y13806D01*
X82475D01*
X80868Y17551D01*
X80833Y17632D01*
X80798Y17709D01*
X80768Y17781D01*
X80737Y17851D01*
X80706Y17916D01*
X80680Y17978D01*
X80652Y18035D01*
X80626Y18085D01*
X80602Y18135D01*
X80580Y18178D01*
X80560Y18216D01*
X80541Y18251D01*
X80522Y18281D01*
X80506Y18305D01*
X80491Y18328D01*
X80480Y18343D01*
X80452Y18370D01*
X80418Y18397D01*
X80380Y18420D01*
X80337Y18439D01*
X80287Y18458D01*
X80233Y18470D01*
X80172Y18485D01*
X80107Y18493D01*
Y18620D01*
X82356D01*
Y18493D01*
X82279D01*
X82206D01*
X82141Y18489D01*
X82079Y18481D01*
X82021Y18474D01*
X81975Y18462D01*
X81929Y18451D01*
X81894Y18435D01*
X81863Y18416D01*
X81829Y18385D01*
X81802Y18351D01*
X81787Y18308D01*
X81783Y18262D01*
X81791Y18193D01*
X81810Y18116D01*
X81821Y18089D01*
X81833Y18055D01*
X81848Y18009D01*
X81871Y17959D01*
X81898Y17897D01*
X81925Y17824D01*
X81960Y17747D01*
X81998Y17659D01*
X83002Y15317D01*
X83932Y17405D01*
X83970Y17493D01*
X84005Y17574D01*
X84040Y17651D01*
X84067Y17716D01*
X84090Y17778D01*
X84109Y17828D01*
X84124Y17874D01*
X84136Y17909D01*
X84155Y17970D01*
X84167Y18028D01*
X84174Y18081D01*
Y18128D01*
X84170Y18178D01*
X84163Y18224D01*
X84143Y18270D01*
X84120Y18312D01*
X84090Y18351D01*
X84051Y18381D01*
X84005Y18408D01*
X83955Y18435D01*
X83874Y18458D01*
X83782Y18478D01*
X83678Y18489D01*
X83559Y18493D01*
Y18620D01*
X85105D01*
X88473Y16267D02*
X88469Y16094D01*
X88461Y15921D01*
X88446Y15752D01*
X88423Y15586D01*
X88396Y15421D01*
X88361Y15263D01*
X88323Y15106D01*
X88277Y14952D01*
X88246Y14860D01*
X88211Y14771D01*
X88177Y14691D01*
X88138Y14610D01*
X88096Y14537D01*
X88054Y14467D01*
X88007Y14398D01*
X87957Y14337D01*
X87854Y14225D01*
X87746Y14122D01*
X87627Y14033D01*
X87504Y13956D01*
X87439Y13926D01*
X87373Y13894D01*
X87308Y13872D01*
X87239Y13852D01*
X87169Y13837D01*
X87100Y13826D01*
X87027Y13822D01*
X86954Y13818D01*
X86869Y13822D01*
X86785Y13829D01*
X86708Y13841D01*
X86627Y13860D01*
X86554Y13887D01*
X86481Y13914D01*
X86408Y13948D01*
X86339Y13991D01*
X86270Y14037D01*
X86204Y14087D01*
X86143Y14141D01*
X86081Y14202D01*
X86020Y14268D01*
X85962Y14337D01*
X85904Y14410D01*
X85850Y14487D01*
X85816Y14548D01*
X85778Y14614D01*
X85743Y14687D01*
X85708Y14763D01*
X85678Y14844D01*
X85643Y14929D01*
X85612Y15021D01*
X85585Y15113D01*
X85551Y15248D01*
X85520Y15383D01*
X85493Y15517D01*
X85474Y15656D01*
X85455Y15790D01*
X85443Y15932D01*
X85439Y16071D01*
X85435Y16213D01*
X85439Y16402D01*
X85451Y16586D01*
X85466Y16767D01*
X85489Y16947D01*
X85520Y17120D01*
X85558Y17289D01*
X85601Y17459D01*
X85651Y17620D01*
X85697Y17747D01*
X85750Y17870D01*
X85808Y17981D01*
X85874Y18089D01*
X85943Y18185D01*
X86020Y18278D01*
X86100Y18358D01*
X86189Y18431D01*
X86281Y18501D01*
X86374Y18558D01*
X86466Y18604D01*
X86562Y18647D01*
X86658Y18678D01*
X86754Y18697D01*
X86854Y18712D01*
X86954Y18716D01*
X87054Y18712D01*
X87154Y18697D01*
X87250Y18678D01*
X87350Y18647D01*
X87442Y18608D01*
X87539Y18558D01*
X87627Y18501D01*
X87719Y18435D01*
X87804Y18362D01*
X87884Y18285D01*
X87957Y18201D01*
X88027Y18109D01*
X88088Y18012D01*
X88146Y17909D01*
X88196Y17801D01*
X88242Y17685D01*
X88296Y17520D01*
X88342Y17355D01*
X88380Y17182D01*
X88415Y17005D01*
X88442Y16828D01*
X88457Y16644D01*
X88469Y16459D01*
X88473Y16267D01*
X87404Y16274D02*
Y16424D01*
Y16567D01*
Y16701D01*
Y16828D01*
Y16947D01*
Y17055D01*
X87400Y17159D01*
Y17251D01*
Y17336D01*
Y17417D01*
X87396Y17486D01*
Y17547D01*
Y17601D01*
X87392Y17647D01*
Y17685D01*
X87389Y17713D01*
X87381Y17828D01*
X87365Y17935D01*
X87350Y18031D01*
X87331Y18116D01*
X87308Y18193D01*
X87285Y18262D01*
X87254Y18320D01*
X87223Y18366D01*
X87173Y18416D01*
X87112Y18451D01*
X87035Y18470D01*
X86943Y18478D01*
X86873Y18474D01*
X86808Y18454D01*
X86754Y18431D01*
X86708Y18393D01*
X86677Y18362D01*
X86646Y18320D01*
X86623Y18278D01*
X86600Y18228D01*
X86581Y18170D01*
X86562Y18109D01*
X86546Y18039D01*
X86535Y17966D01*
X86527Y17920D01*
X86523Y17866D01*
X86520Y17797D01*
X86516Y17716D01*
X86512Y17624D01*
X86508Y17520D01*
X86504Y17405D01*
X86500Y17278D01*
X86496Y17136D01*
Y16986D01*
X86493Y16820D01*
Y16644D01*
X86489Y16459D01*
Y16259D01*
Y16048D01*
Y15825D01*
Y15702D01*
Y15583D01*
X86493Y15471D01*
Y15363D01*
X86496Y15263D01*
X86500Y15167D01*
Y15075D01*
X86508Y14991D01*
X86512Y14906D01*
X86516Y14833D01*
X86523Y14760D01*
X86527Y14694D01*
X86535Y14633D01*
X86543Y14579D01*
X86550Y14529D01*
X86558Y14483D01*
X86573Y14425D01*
X86589Y14371D01*
X86604Y14321D01*
X86620Y14279D01*
X86643Y14241D01*
X86662Y14206D01*
X86685Y14179D01*
X86708Y14156D01*
X86758Y14118D01*
X86819Y14091D01*
X86889Y14075D01*
X86965Y14072D01*
X87046Y14079D01*
X87115Y14098D01*
X87173Y14133D01*
X87223Y14183D01*
X87258Y14233D01*
X87289Y14294D01*
X87315Y14356D01*
X87339Y14429D01*
X87358Y14506D01*
X87373Y14594D01*
X87385Y14683D01*
X87389Y14783D01*
X87404Y16274D01*
X91049Y18716D02*
Y14867D01*
Y14763D01*
X91052Y14671D01*
Y14587D01*
X91060Y14510D01*
X91064Y14448D01*
X91072Y14394D01*
X91080Y14348D01*
X91087Y14314D01*
X91110Y14256D01*
X91145Y14202D01*
X91191Y14156D01*
X91248Y14118D01*
X91279Y14098D01*
X91318Y14083D01*
X91360Y14072D01*
X91406Y14060D01*
X91456Y14052D01*
X91514Y14044D01*
X91572Y14041D01*
X91637D01*
X91744D01*
Y13914D01*
X89265D01*
Y14041D01*
X89388D01*
X89461D01*
X89530Y14044D01*
X89591Y14048D01*
X89649Y14056D01*
X89699Y14068D01*
X89745Y14079D01*
X89784Y14094D01*
X89819Y14110D01*
X89880Y14148D01*
X89926Y14191D01*
X89965Y14244D01*
X89991Y14302D01*
X90003Y14337D01*
X90011Y14383D01*
X90018Y14437D01*
X90026Y14502D01*
X90030Y14579D01*
X90033Y14664D01*
X90037Y14760D01*
Y14867D01*
Y17305D01*
Y17382D01*
Y17455D01*
X90033Y17517D01*
X90030Y17570D01*
X90026Y17620D01*
X90018Y17659D01*
X90015Y17689D01*
X90007Y17716D01*
X89987Y17755D01*
X89961Y17789D01*
X89930Y17824D01*
X89891Y17855D01*
X89845Y17878D01*
X89799Y17897D01*
X89749Y17909D01*
X89691Y17912D01*
X89599Y17905D01*
X89495Y17885D01*
X89384Y17851D01*
X89261Y17801D01*
X89199Y17924D01*
X90933Y18716D01*
X91049D01*
X57465Y12470D02*
X61152D01*
X76423D02*
X80110D01*
X57465Y12563D02*
X61152D01*
X76423D02*
X80110D01*
X57465Y12657D02*
X61152D01*
X76423D02*
X80110D01*
X57465Y12751D02*
X61152D01*
X76423D02*
X80110D01*
X55383Y13875D02*
X56114D01*
X68424D02*
X70003D01*
X82445D02*
X82621D01*
X86587D02*
X87318D01*
X46254Y13969D02*
X48649D01*
X50948D02*
X53428D01*
X55171D02*
X56320D01*
X61217D02*
X63628D01*
X64762D02*
X66285D01*
X68109D02*
X70443D01*
X71894D02*
X74951D01*
X82405D02*
X82663D01*
X86375D02*
X87524D01*
X89265D02*
X91744D01*
X46576Y14063D02*
X48330D01*
X51360D02*
X53079D01*
X55032D02*
X56463D01*
X61539D02*
X63305D01*
X64695D02*
X66155D01*
X67898D02*
X70742D01*
X72216D02*
X75302D01*
X82365D02*
X82706D01*
X86236D02*
X87667D01*
X89677D02*
X91396D01*
X46779Y14156D02*
X48123D01*
X51572D02*
X52874D01*
X54923D02*
X55504D01*
X55993D02*
X56578D01*
X61741D02*
X63101D01*
X64629D02*
X65959D01*
X67719D02*
X68729D01*
X69833D02*
X70989D01*
X72422D02*
X75533D01*
X82324D02*
X82748D01*
X86127D02*
X86708D01*
X87196D02*
X87782D01*
X89889D02*
X91191D01*
X46855Y14250D02*
X48049D01*
X51650D02*
X52798D01*
X54833D02*
X55433D01*
X56063D02*
X56673D01*
X61819D02*
X63024D01*
X64563D02*
X65862D01*
X67565D02*
X68530D01*
X69991D02*
X71121D01*
X72496D02*
X73761D01*
X74408D02*
X75692D01*
X82284D02*
X82791D01*
X86036D02*
X86637D01*
X87267D02*
X87877D01*
X89967D02*
X91114D01*
X46885Y14344D02*
X48019D01*
X51687D02*
X52764D01*
X54753D02*
X55393D01*
X56106D02*
X56759D01*
X61847D02*
X62998D01*
X64496D02*
X65785D01*
X67431D02*
X68385D01*
X69991D02*
X71121D01*
X72528D02*
X73684D01*
X74583D02*
X75824D01*
X82244D02*
X82833D01*
X85957D02*
X86597D01*
X87310D02*
X87963D01*
X90004D02*
X91081D01*
X46897Y14437D02*
X48006D01*
X51702D02*
X52749D01*
X54681D02*
X55367D01*
X56137D02*
X56830D01*
X61860D02*
X62985D01*
X64430D02*
X65713D01*
X67317D02*
X68276D01*
X69991D02*
X71121D01*
X72537D02*
X73654D01*
X74703D02*
X75927D01*
X82204D02*
X82875D01*
X85885D02*
X86570D01*
X87341D02*
X88033D01*
X90018D02*
X91066D01*
X46906Y14531D02*
X48001D01*
X51711D02*
X52741D01*
X54622D02*
X55346D01*
X56158D02*
X56889D01*
X61865D02*
X62980D01*
X64364D02*
X65645D01*
X67207D02*
X68191D01*
X69991D02*
X71121D01*
X72546D02*
X73641D01*
X74785D02*
X76010D01*
X82164D02*
X82917D01*
X85826D02*
X86550D01*
X87362D02*
X88093D01*
X90028D02*
X91058D01*
X46907Y14625D02*
X47996D01*
X51715D02*
X52736D01*
X54569D02*
X55332D01*
X56173D02*
X56941D01*
X61870D02*
X62976D01*
X64297D02*
X65578D01*
X67112D02*
X68119D01*
X69991D02*
X71121D01*
X72548D02*
X73641D01*
X74844D02*
X76077D01*
X82124D02*
X82959D01*
X85772D02*
X86536D01*
X87377D02*
X88145D01*
X90032D02*
X91052D01*
X46907Y14719D02*
X47995D01*
X51719D02*
X52734D01*
X54524D02*
X55322D01*
X56182D02*
X56985D01*
X61871D02*
X62974D01*
X64231D02*
X65512D01*
X67029D02*
X68061D01*
X69991D02*
X71121D01*
X72548D02*
X73644D01*
X74891D02*
X76128D01*
X82083D02*
X83002D01*
X85728D02*
X86526D01*
X87386D02*
X88189D01*
X90036D02*
X91050D01*
X46907Y14812D02*
X47995D01*
X51721D02*
X52732D01*
X54486D02*
X55314D01*
X56185D02*
X57024D01*
X61871D02*
X62974D01*
X64165D02*
X65445D01*
X66953D02*
X68014D01*
X69991D02*
X71121D01*
X72548D02*
X73644D01*
X74928D02*
X76166D01*
X82043D02*
X83044D01*
X85690D02*
X86518D01*
X87389D02*
X88227D01*
X90037D02*
X91049D01*
X46907Y14906D02*
X47995D01*
X51721D02*
X52732D01*
X54448D02*
X55308D01*
X56186D02*
X57057D01*
X61871D02*
X62974D01*
X64098D02*
X65379D01*
X66886D02*
X67972D01*
X69991D02*
X71121D01*
X72548D02*
X73644D01*
X74956D02*
X76197D01*
X82003D02*
X83087D01*
X85652D02*
X86512D01*
X87390D02*
X88261D01*
X90037D02*
X91049D01*
X46907Y15000D02*
X47995D01*
X51721D02*
X52732D01*
X54415D02*
X55304D01*
X56187D02*
X57087D01*
X61871D02*
X62974D01*
X64032D02*
X65313D01*
X66825D02*
X67938D01*
X69991D02*
X71121D01*
X72548D02*
X73644D01*
X74971D02*
X76219D01*
X81963D02*
X83129D01*
X85619D02*
X86507D01*
X87391D02*
X88291D01*
X90037D02*
X91049D01*
X46907Y15093D02*
X47995D01*
X51721D02*
X52732D01*
X54387D02*
X55296D01*
X56188D02*
X57115D01*
X61871D02*
X62974D01*
X63966D02*
X65246D01*
X66771D02*
X67908D01*
X69991D02*
X71121D01*
X72548D02*
X73644D01*
X74981D02*
X76232D01*
X81922D02*
X83171D01*
X85591D02*
X86500D01*
X87392D02*
X88319D01*
X90037D02*
X91049D01*
X46907Y15187D02*
X47995D01*
X51721D02*
X52732D01*
X54363D02*
X55296D01*
X56189D02*
X57139D01*
X61871D02*
X62974D01*
X63899D02*
X65180D01*
X66724D02*
X67880D01*
X69991D02*
X71121D01*
X72548D02*
X73644D01*
X74985D02*
X76237D01*
X81882D02*
X83213D01*
X85567D02*
X86500D01*
X87393D02*
X88343D01*
X90037D02*
X91049D01*
X46907Y15281D02*
X47995D01*
X51721D02*
X52732D01*
X54339D02*
X55292D01*
X56190D02*
X57161D01*
X61871D02*
X62974D01*
X63833D02*
X65113D01*
X66682D02*
X67859D01*
X69989D02*
X71123D01*
X72548D02*
X73644D01*
X74980D02*
X76234D01*
X81842D02*
X83256D01*
X85543D02*
X86496D01*
X87394D02*
X88365D01*
X90037D02*
X91049D01*
X46907Y15374D02*
X47995D01*
X51721D02*
X52732D01*
X54318D02*
X55289D01*
X56191D02*
X57181D01*
X61871D02*
X62974D01*
X63767D02*
X65047D01*
X66644D02*
X67839D01*
X69987D02*
X71127D01*
X72548D02*
X73644D01*
X74972D02*
X76226D01*
X81802D02*
X82977D01*
X83027D02*
X83298D01*
X85522D02*
X86493D01*
X87394D02*
X88385D01*
X90037D02*
X91049D01*
X46907Y15468D02*
X47995D01*
X51721D02*
X52732D01*
X54299D02*
X55289D01*
X56192D02*
X57200D01*
X61871D02*
X62974D01*
X63700D02*
X64981D01*
X66613D02*
X67821D01*
X69974D02*
X71141D01*
X72548D02*
X73644D01*
X74955D02*
X76211D01*
X81762D02*
X82937D01*
X83069D02*
X83340D01*
X85503D02*
X86493D01*
X87396D02*
X88404D01*
X90037D02*
X91049D01*
X46907Y15562D02*
X47995D01*
X51721D02*
X52732D01*
X54283D02*
X55286D01*
X56193D02*
X57215D01*
X61871D02*
X62974D01*
X63634D02*
X64915D01*
X66588D02*
X67806D01*
X69945D02*
X71178D01*
X72548D02*
X73644D01*
X74931D02*
X76185D01*
X81721D02*
X82897D01*
X83111D02*
X83382D01*
X85487D02*
X86489D01*
X87396D02*
X88419D01*
X90037D02*
X91049D01*
X46907Y15656D02*
X47995D01*
X51721D02*
X52732D01*
X54270D02*
X55285D01*
X56194D02*
X57228D01*
X61871D02*
X62974D01*
X63568D02*
X64848D01*
X66566D02*
X67794D01*
X69859D02*
X71259D01*
X72548D02*
X73644D01*
X74899D02*
X76147D01*
X81681D02*
X82857D01*
X83152D02*
X83425D01*
X85474D02*
X86489D01*
X87398D02*
X88432D01*
X90037D02*
X91049D01*
X46907Y15749D02*
X47995D01*
X51721D02*
X52732D01*
X54257D02*
X55285D01*
X56194D02*
X57241D01*
X61871D02*
X62974D01*
X63501D02*
X64781D01*
X66547D02*
X67785D01*
X69654D02*
X71539D01*
X72548D02*
X73644D01*
X74859D02*
X76095D01*
X81641D02*
X82817D01*
X83194D02*
X83467D01*
X85461D02*
X86489D01*
X87398D02*
X88445D01*
X90037D02*
X91049D01*
X46907Y15843D02*
X47995D01*
X51721D02*
X52732D01*
X54246D02*
X55285D01*
X56196D02*
X57250D01*
X61871D02*
X62974D01*
X63435D02*
X64715D01*
X66533D02*
X67776D01*
X69383D02*
X71675D01*
X72548D02*
X73644D01*
X74803D02*
X76031D01*
X81601D02*
X82776D01*
X83236D02*
X83509D01*
X85450D02*
X86489D01*
X87400D02*
X88454D01*
X90037D02*
X91049D01*
X46907Y15937D02*
X47995D01*
X51721D02*
X52732D01*
X54239D02*
X55285D01*
X56196D02*
X57258D01*
X61871D02*
X62974D01*
X63369D02*
X64649D01*
X66521D02*
X67768D01*
X72548D02*
X73644D01*
X74731D02*
X75949D01*
X81561D02*
X82736D01*
X83278D02*
X83552D01*
X85443D02*
X86489D01*
X87400D02*
X88462D01*
X90037D02*
X91049D01*
X46907Y16030D02*
X47995D01*
X51721D02*
X52732D01*
X54237D02*
X55285D01*
X56198D02*
X57262D01*
X61871D02*
X62974D01*
X63302D02*
X64583D01*
X66514D02*
X67763D01*
X72548D02*
X73644D01*
X74630D02*
X75844D01*
X81520D02*
X82696D01*
X83319D02*
X83594D01*
X85440D02*
X86489D01*
X87402D02*
X88466D01*
X90037D02*
X91049D01*
X46907Y16124D02*
X49100D01*
X51721D02*
X52732D01*
X54234D02*
X55285D01*
X56198D02*
X57266D01*
X61871D02*
X64516D01*
X66510D02*
X67761D01*
X72548D02*
X73644D01*
X74461D02*
X75705D01*
X81480D02*
X82656D01*
X83361D02*
X83636D01*
X85438D02*
X86489D01*
X87402D02*
X88470D01*
X90037D02*
X91049D01*
X46907Y16218D02*
X49409D01*
X51721D02*
X52732D01*
X54231D02*
X55285D01*
X56200D02*
X57268D01*
X61871D02*
X64756D01*
X66508D02*
X67761D01*
X72548D02*
X73644D01*
X74033D02*
X75515D01*
X81440D02*
X82616D01*
X83403D02*
X83678D01*
X85435D02*
X86489D01*
X87404D02*
X88472D01*
X90037D02*
X91049D01*
X46907Y16311D02*
X48049D01*
X48259D02*
X49596D01*
X51721D02*
X52732D01*
X54233D02*
X55285D01*
X56200D02*
X57268D01*
X61871D02*
X62974D01*
X63428D02*
X64959D01*
X66508D02*
X67761D01*
X72548D02*
X75255D01*
X81400D02*
X82576D01*
X83444D02*
X83721D01*
X85437D02*
X86489D01*
X87404D02*
X88472D01*
X90037D02*
X91049D01*
X46907Y16405D02*
X47995D01*
X48614D02*
X49738D01*
X51721D02*
X52732D01*
X54236D02*
X55285D01*
X56200D02*
X57266D01*
X61871D02*
X62974D01*
X63924D02*
X65107D01*
X66514D02*
X67762D01*
X72548D02*
X74916D01*
X81359D02*
X82535D01*
X83486D02*
X83763D01*
X85439D02*
X86489D01*
X87404D02*
X88470D01*
X90037D02*
X91049D01*
X46907Y16499D02*
X47995D01*
X48757D02*
X49844D01*
X51721D02*
X52732D01*
X54241D02*
X55286D01*
X56200D02*
X57263D01*
X61871D02*
X62974D01*
X64085D02*
X65209D01*
X66524D02*
X67768D01*
X72548D02*
X75203D01*
X81319D02*
X82495D01*
X83528D02*
X83806D01*
X85445D02*
X86489D01*
X87404D02*
X88467D01*
X90037D02*
X91049D01*
X46907Y16593D02*
X47995D01*
X48846D02*
X49932D01*
X51721D02*
X52732D01*
X54247D02*
X55288D01*
X56200D02*
X57257D01*
X61871D02*
X62974D01*
X64185D02*
X65296D01*
X66535D02*
X67775D01*
X72548D02*
X73644D01*
X74325D02*
X75437D01*
X81279D02*
X82455D01*
X83570D02*
X83848D01*
X85451D02*
X86491D01*
X87404D02*
X88460D01*
X90037D02*
X91049D01*
X46907Y16686D02*
X47995D01*
X48911D02*
X50002D01*
X51721D02*
X52732D01*
X54256D02*
X55289D01*
X56200D02*
X57250D01*
X61871D02*
X62974D01*
X64254D02*
X65367D01*
X66550D02*
X67784D01*
X72548D02*
X73644D01*
X74501D02*
X75597D01*
X81239D02*
X82415D01*
X83612D02*
X83890D01*
X85459D02*
X86493D01*
X87404D02*
X88454D01*
X90037D02*
X91049D01*
X46907Y16780D02*
X47995D01*
X48956D02*
X50060D01*
X51721D02*
X52732D01*
X54264D02*
X55289D01*
X56200D02*
X57242D01*
X61871D02*
X62974D01*
X64309D02*
X65423D01*
X66569D02*
X67794D01*
X72548D02*
X73644D01*
X74614D02*
X75722D01*
X81199D02*
X82375D01*
X83654D02*
X83932D01*
X85468D02*
X86493D01*
X87404D02*
X88446D01*
X90037D02*
X91049D01*
X46907Y16874D02*
X47995D01*
X48988D02*
X50107D01*
X51721D02*
X52732D01*
X54276D02*
X55290D01*
X56200D02*
X57231D01*
X61871D02*
X62974D01*
X64344D02*
X65467D01*
X66591D02*
X67809D01*
X72548D02*
X73644D01*
X74695D02*
X75814D01*
X81159D02*
X82335D01*
X83695D02*
X83974D01*
X85480D02*
X86494D01*
X87404D02*
X88435D01*
X90037D02*
X91049D01*
X46907Y16967D02*
X47995D01*
X49014D02*
X50144D01*
X51721D02*
X52732D01*
X54289D02*
X55292D01*
X56200D02*
X57217D01*
X61871D02*
X62974D01*
X64371D02*
X65499D01*
X66617D02*
X67826D01*
X72548D02*
X73644D01*
X74756D02*
X75885D01*
X81118D02*
X82294D01*
X83737D02*
X84017D01*
X85493D02*
X86496D01*
X87404D02*
X88421D01*
X90037D02*
X91049D01*
X46907Y17061D02*
X47995D01*
X49029D02*
X50169D01*
X51721D02*
X52732D01*
X54306D02*
X55293D01*
X56200D02*
X57200D01*
X61871D02*
X62974D01*
X64390D02*
X65524D01*
X66647D02*
X67842D01*
X72548D02*
X73644D01*
X74798D02*
X75937D01*
X81078D02*
X82254D01*
X83779D02*
X84059D01*
X85509D02*
X86496D01*
X87404D02*
X88404D01*
X90037D02*
X91049D01*
X46907Y17155D02*
X47995D01*
X49039D02*
X50186D01*
X51721D02*
X52732D01*
X54324D02*
X55293D01*
X56196D02*
X57182D01*
X61871D02*
X62974D01*
X64402D02*
X65540D01*
X66682D02*
X67863D01*
X70962D02*
X71121D01*
X72548D02*
X73644D01*
X74828D02*
X75977D01*
X81038D02*
X82214D01*
X83820D02*
X84101D01*
X85528D02*
X86497D01*
X87400D02*
X88386D01*
X90037D02*
X91049D01*
X46907Y17248D02*
X47995D01*
X49046D02*
X50198D01*
X51721D02*
X52732D01*
X54345D02*
X55296D01*
X56196D02*
X57162D01*
X61871D02*
X62974D01*
X64406D02*
X65548D01*
X66722D02*
X67885D01*
X70926D02*
X71121D01*
X72548D02*
X73644D01*
X74844D02*
X76003D01*
X80998D02*
X82174D01*
X83862D02*
X84144D01*
X85549D02*
X86500D01*
X87400D02*
X88366D01*
X90037D02*
X91049D01*
X46907Y17342D02*
X47995D01*
X49049D02*
X50202D01*
X51721D02*
X52732D01*
X54368D02*
X55298D01*
X56196D02*
X57141D01*
X61871D02*
X62974D01*
X64408D02*
X65550D01*
X66769D02*
X67910D01*
X70883D02*
X71121D01*
X72548D02*
X73644D01*
X74856D02*
X76019D01*
X80957D02*
X82134D01*
X83904D02*
X84186D01*
X85572D02*
X86502D01*
X87400D02*
X88345D01*
X90037D02*
X91049D01*
X46907Y17436D02*
X47995D01*
X49046D02*
X50198D01*
X51721D02*
X52732D01*
X54391D02*
X55302D01*
X56195D02*
X57116D01*
X61871D02*
X62974D01*
X64405D02*
X65546D01*
X66819D02*
X67939D01*
X70837D02*
X71121D01*
X72548D02*
X73644D01*
X74858D02*
X76023D01*
X80917D02*
X82094D01*
X83945D02*
X84228D01*
X85595D02*
X86505D01*
X87399D02*
X88319D01*
X90037D02*
X91049D01*
X46907Y17530D02*
X47995D01*
X49039D02*
X50189D01*
X51716D02*
X52732D01*
X54419D02*
X55305D01*
X56192D02*
X57089D01*
X61871D02*
X62974D01*
X64396D02*
X65535D01*
X66874D02*
X67972D01*
X70788D02*
X71121D01*
X72548D02*
X73644D01*
X74857D02*
X76019D01*
X80877D02*
X82054D01*
X83986D02*
X84270D01*
X85623D02*
X86508D01*
X87396D02*
X88293D01*
X90033D02*
X91049D01*
X46907Y17623D02*
X47995D01*
X49028D02*
X50173D01*
X51709D02*
X52732D01*
X54448D02*
X55308D01*
X56191D02*
X57059D01*
X61871D02*
X62974D01*
X64383D02*
X65517D01*
X66937D02*
X68011D01*
X70730D02*
X71121D01*
X72548D02*
X73644D01*
X74847D02*
X76006D01*
X80837D02*
X82013D01*
X84027D02*
X84314D01*
X85652D02*
X86512D01*
X87394D02*
X88262D01*
X90025D02*
X91049D01*
X46907Y17717D02*
X47995D01*
X49012D02*
X50147D01*
X51690D02*
X52732D01*
X54482D02*
X55312D01*
X56184D02*
X57026D01*
X61871D02*
X62974D01*
X64364D02*
X65490D01*
X67006D02*
X68057D01*
X70666D02*
X71121D01*
X72548D02*
X73644D01*
X74829D02*
X75984D01*
X80795D02*
X81973D01*
X84067D02*
X84359D01*
X85686D02*
X86516D01*
X87388D02*
X88230D01*
X90006D02*
X91049D01*
X46907Y17811D02*
X47995D01*
X48985D02*
X50110D01*
X50939D02*
X50969D01*
X51625D02*
X52732D01*
X54521D02*
X55317D01*
X56178D02*
X56987D01*
X61871D02*
X62974D01*
X64335D02*
X65455D01*
X67078D02*
X68109D01*
X70595D02*
X71121D01*
X72548D02*
X73644D01*
X74803D02*
X75952D01*
X80755D02*
X81931D01*
X84102D02*
X84406D01*
X85724D02*
X86520D01*
X87382D02*
X88191D01*
X89256D02*
X89285D01*
X89942D02*
X91049D01*
X46907Y17904D02*
X47995D01*
X48952D02*
X50062D01*
X50893D02*
X51283D01*
X51451D02*
X52732D01*
X54565D02*
X55322D01*
X56166D02*
X56944D01*
X61870D02*
X62974D01*
X64295D02*
X65406D01*
X67161D02*
X68171D01*
X70514D02*
X71121D01*
X72548D02*
X73644D01*
X74761D02*
X75914D01*
X80712D02*
X81895D01*
X84134D02*
X84454D01*
X85768D02*
X86526D01*
X87370D02*
X88148D01*
X89209D02*
X89599D01*
X89768D02*
X91049D01*
X46906Y17998D02*
X47995D01*
X48904D02*
X50004D01*
X51045D02*
X52732D01*
X54614D02*
X55336D01*
X56152D02*
X56892D01*
X61865D02*
X62974D01*
X64243D02*
X65349D01*
X67255D02*
X68242D01*
X70421D02*
X71121D01*
X72546D02*
X73644D01*
X74703D02*
X75857D01*
X80670D02*
X81853D01*
X84161D02*
X84505D01*
X85818D02*
X86540D01*
X87356D02*
X88096D01*
X89361D02*
X91049D01*
X46897Y18092D02*
X47995D01*
X48836D02*
X49933D01*
X51250D02*
X52732D01*
X54671D02*
X55354D01*
X56132D02*
X56833D01*
X61860D02*
X62974D01*
X64173D02*
X65279D01*
X67354D02*
X68330D01*
X70309D02*
X71121D01*
X72538D02*
X73644D01*
X74621D02*
X75792D01*
X80623D02*
X81820D01*
X84174D02*
X84561D01*
X85875D02*
X86558D01*
X87336D02*
X88037D01*
X89567D02*
X91049D01*
X46886Y18185D02*
X47995D01*
X48731D02*
X49842D01*
X51455D02*
X52732D01*
X54739D02*
X55382D01*
X56106D02*
X56765D01*
X61848D02*
X62974D01*
X64066D02*
X65193D01*
X67471D02*
X68438D01*
X70173D02*
X71121D01*
X72528D02*
X73644D01*
X74509D02*
X75716D01*
X80576D02*
X81793D01*
X84169D02*
X84622D01*
X85943D02*
X86586D01*
X87310D02*
X87969D01*
X89772D02*
X91049D01*
X46858Y18279D02*
X47995D01*
X48561D02*
X49734D01*
X51660D02*
X52732D01*
X54817D02*
X55419D01*
X56072D02*
X56686D01*
X61822D02*
X62974D01*
X63888D02*
X65093D01*
X67597D02*
X68572D01*
X70011D02*
X71121D01*
X72499D02*
X73644D01*
X74326D02*
X75619D01*
X80523D02*
X81784D01*
X84139D02*
X84703D01*
X86021D02*
X86623D01*
X87276D02*
X87890D01*
X89977D02*
X91049D01*
X46783Y18373D02*
X49590D01*
X51865D02*
X52732D01*
X54914D02*
X55484D01*
X56013D02*
X56588D01*
X61747D02*
X64953D01*
X67743D02*
X68774D01*
X69788D02*
X71121D01*
X72425D02*
X75490D01*
X80449D02*
X81819D01*
X84062D02*
X84815D01*
X86118D02*
X86688D01*
X87217D02*
X87791D01*
X90182D02*
X91049D01*
X46593Y18467D02*
X49382D01*
X52070D02*
X52732D01*
X55031D02*
X55645D01*
X55845D02*
X56471D01*
X61554D02*
X64759D01*
X67915D02*
X70388D01*
X70850D02*
X71121D01*
X72235D02*
X75313D01*
X80250D02*
X81993D01*
X83835D02*
X85008D01*
X86235D02*
X86849D01*
X87049D02*
X87675D01*
X90387D02*
X91049D01*
X46254Y18560D02*
X49035D01*
X52275D02*
X52732D01*
X55174D02*
X56331D01*
X61217D02*
X64387D01*
X68141D02*
X70137D01*
X70922D02*
X71121D01*
X71894D02*
X74988D01*
X80107D02*
X82356D01*
X83559D02*
X85105D01*
X86378D02*
X87535D01*
X90592D02*
X91049D01*
X52480Y18654D02*
X52732D01*
X55380D02*
X56123D01*
X68459D02*
X69835D01*
X70966D02*
X71121D01*
X86584D02*
X87327D01*
X90797D02*
X91049D01*
D02*
D14*
X2793Y195675D02*
Y35715D01*
X39801D01*
Y2156D01*
X239289D01*
Y39163D01*
X273789D01*
Y199443D01*
X237093D01*
Y234711D01*
X39801D01*
Y195675D01*
X2793D01*
X256313Y174701D02*
G75*
G02*
X264043Y166970I0J-7730D01*
G01*
G75*
G02*
X256313Y159240I-7730J0D01*
G01*
G75*
G02*
X248583Y166970I0J7730D01*
G01*
G75*
G02*
X256313Y174701I7730J0D01*
G01*
X62156Y217718D02*
G75*
G02*
X64353Y219936I2218J0D01*
G01*
X67278Y219967D01*
G75*
G02*
X67282I2J-2219D01*
G01*
G75*
G02*
X68417Y219978I13457J-1326737D01*
G01*
G75*
G02*
X68422I2J-2148D01*
G01*
G75*
G02*
X69436Y219987I7815J-818416D01*
G01*
G75*
G02*
X69440I2J-2235D01*
G01*
G75*
G02*
X70236Y219993I11013J-1340835D01*
G01*
G75*
G02*
X70294Y219994I74J-2210D01*
G01*
G75*
G02*
X70552I129J-12901D01*
G01*
G75*
G02*
X70660Y219990I-26J-2217D01*
G01*
X70852D01*
G75*
G02*
X71443Y219903I-26J-2218D01*
G01*
G75*
G02*
X71901Y219992I668J-2215D01*
G01*
G75*
G02*
X72081Y220001I206J-2208D01*
G01*
G75*
G02*
X73165Y220014I7833J-627499D01*
G01*
G75*
G02*
X73170I3J-2240D01*
G01*
G75*
G02*
X74423Y220020I1232J-113388D01*
G01*
X74424D01*
G75*
G02*
X75883Y220015I-22J-214470D01*
G01*
X79641Y219989D01*
G75*
G02*
X80704Y219709I-15J-2219D01*
G01*
G75*
G02*
X81279Y219917I1138J-2251D01*
G01*
G75*
G02*
X81359Y219934I506J-2163D01*
G01*
G75*
G02*
X81809Y219998I849J-4366D01*
G01*
G75*
G02*
X81830Y220000I215J-2206D01*
G01*
G75*
G02*
X82346Y220023I540J-6244D01*
G01*
G75*
G02*
X82352I3J-2239D01*
G01*
G75*
G02*
X82883Y220017I52J-16986D01*
G01*
G75*
G02*
X82892Y220016I-91J-2208D01*
G01*
X83789Y219991D01*
G75*
G02*
X84412Y219911I32J-2221D01*
G01*
G75*
G02*
X85320Y220043I765J-2082D01*
G01*
X86337Y220017D01*
G75*
G02*
X86345Y220016I-98J-2256D01*
G01*
X87421Y219989D01*
G75*
G02*
X88467Y219707I-37J-2218D01*
G01*
G75*
G02*
X88729Y219802I942J-2181D01*
G01*
G75*
G02*
X88985Y219898I957J-2167D01*
G01*
G75*
G02*
X89117Y219935I662J-2116D01*
G01*
G75*
G02*
X89328Y219977I604J-2450D01*
G01*
G75*
G02*
X89445Y220019I833J-2150D01*
G01*
G75*
G02*
X90135Y220138I717J-2101D01*
G01*
G75*
G02*
X91131I498J-59883D01*
G01*
G75*
G02*
X91134I2J-2344D01*
G01*
G75*
G02*
X92124Y220125I-187J-51957D01*
G01*
G75*
G02*
X92272Y220117I-50J-2217D01*
G01*
G75*
G02*
X92682Y220046I-202J-2395D01*
G01*
G75*
G02*
X93652Y219811I-111J-2573D01*
G01*
G75*
G02*
X93720Y219778I-924J-2013D01*
G01*
G75*
G02*
X93870Y219699I-2160J-4319D01*
G01*
G75*
G02*
X94847Y219988I1143J-2070D01*
G01*
G75*
G02*
X95186Y220008I955J-13256D01*
G01*
G75*
G02*
X95188I1J-2089D01*
G01*
G75*
G02*
X95626Y220019I483J-10471D01*
G01*
G75*
G02*
X95634I4J-2235D01*
G01*
G75*
G02*
X96082Y220014I44J-15702D01*
G01*
G75*
G02*
X96091Y220013I-97J-2226D01*
G01*
X97081Y219989D01*
G75*
G02*
X97795Y219852I-56J-2217D01*
G01*
G75*
G02*
X98631Y220019I904J-2345D01*
G01*
G75*
G02*
X98650Y220019I56J-2228D01*
G01*
G75*
G02*
X99411Y220035I1584J-59671D01*
G01*
G75*
G02*
X99496Y220037I115J-2220D01*
G01*
G75*
G02*
X100351I427J-40620D01*
G01*
G75*
G02*
X100352I1J-2417D01*
G01*
G75*
G02*
X101357Y219852I-27J-2963D01*
G01*
G75*
G02*
X101386Y219841I-756J-2087D01*
G01*
G75*
G02*
X101660Y219717I-866J-2264D01*
G01*
G75*
G02*
X102022Y219865I1981J-4311D01*
G01*
G75*
G02*
X102024Y219866I752J-2256D01*
G01*
G75*
G02*
X102961Y220028I922J-2541D01*
G01*
G75*
G02*
X103323Y220083I542J-2360D01*
G01*
G75*
G02*
X103339Y220084I176J-2188D01*
G01*
G75*
G02*
X103697Y220103I727J-10167D01*
G01*
G75*
G02*
X103720Y220104I89J-2201D01*
G01*
G75*
G02*
X104117Y220109I309J-9298D01*
G01*
G75*
G02*
X104161I22J-2218D01*
G01*
G75*
G02*
X104616Y220094I-180J-13072D01*
G01*
G75*
G02*
X104636Y220094I-74J-2201D01*
G01*
G75*
G03*
X105030Y220075I5478J109917D01*
G01*
G75*
G02*
X105044Y220074I-115J-2201D01*
G01*
G75*
G03*
X105397Y220059I3936J86559D01*
G01*
G75*
G02*
X105405Y220058I-115J-2256D01*
G01*
G75*
G03*
X105708Y220046I3437J84311D01*
G01*
G75*
G02*
X105741Y220045I-91J-2217D01*
G01*
G75*
G03*
X105797Y220045I6J3229D01*
G01*
G75*
G02*
X105904Y220042I-20J-2223D01*
G01*
G75*
G02*
X106505Y219960I-142J-3293D01*
G01*
G75*
G02*
X106523Y219956I-470J-2157D01*
G01*
G75*
G02*
X107047Y219797I-1005J-4257D01*
G01*
G75*
G02*
X107076Y219786I-769J-2093D01*
G01*
G75*
G02*
X107872Y219935I799J-2069D01*
G01*
X109912Y219964D01*
G75*
G02*
X109919I3J-2214D01*
G01*
G75*
G03*
X110756Y219977I-5733J396532D01*
G01*
G75*
G02*
X110764I4J-2222D01*
G01*
G75*
G03*
X111565Y219991I-5705J345322D01*
G01*
G75*
G02*
X111576I6J-2239D01*
G01*
G75*
G03*
X112242Y220004I-5922J320549D01*
G01*
G75*
G02*
X112255Y220004I74J-2242D01*
G01*
G75*
G03*
X112476Y220010I-607J28763D01*
G01*
G75*
G02*
X112603Y220018I200J-2209D01*
G01*
G75*
G02*
X112956I177J-8089D01*
G01*
X112957D01*
G75*
G02*
X113282Y220005I-79J-6223D01*
G01*
G75*
G02*
X113317Y220003I-106J-2205D01*
G01*
G75*
G02*
X113570Y219980I-440J-6280D01*
G01*
G75*
G02*
X113618Y219975I-209J-2215D01*
G01*
G75*
G02*
X114446Y219717I-281J-2355D01*
G01*
G75*
G02*
X114526Y219741I693J-2150D01*
G01*
G75*
G02*
X114615Y219776I1106J-2606D01*
G01*
G75*
G02*
X114661Y219794I798J-2069D01*
G01*
G75*
G02*
X115081Y219914I1028J-2793D01*
G01*
G75*
G02*
X115083Y219915I354J-2115D01*
G01*
G75*
G02*
X115264Y219946I614J-2953D01*
G01*
G75*
G02*
X116107Y220126I920J-2248D01*
G01*
G75*
G02*
X116141Y220127I69J-2224D01*
G01*
G75*
G02*
X117059Y220138I1275J-70474D01*
G01*
G75*
G02*
X117151Y220136I8J-2220D01*
G01*
G75*
G02*
X117933I391J-71144D01*
G01*
G75*
G02*
X117977I22J-2214D01*
G01*
G75*
G02*
X118843Y219970I-17J-2424D01*
G01*
G75*
G02*
X119521Y219808I-391J-3144D01*
G01*
G75*
G02*
X119562Y219793I-732J-2087D01*
G01*
G75*
G02*
X119749Y219717I-1267J-3387D01*
G01*
G75*
G02*
X120689Y219958I1016J-2013D01*
G01*
G75*
G02*
X121141Y219973I3891J-107704D01*
G01*
G75*
G02*
X121148Y219974I128J-2243D01*
G01*
G75*
G02*
X121633Y219985I890J-28497D01*
G01*
G75*
G02*
X121694Y219986I87J-2208D01*
G01*
G75*
G02*
X122203Y219987I295J-52701D01*
G01*
G75*
G02*
X122325Y219990I126J-2219D01*
G01*
X123892D01*
G75*
G02*
X124763Y219812I0J-2219D01*
G01*
G75*
G02*
X125542Y219939I740J-2091D01*
G01*
X125682D01*
G75*
G02*
X125807Y219943I132J-2215D01*
G01*
G75*
G03*
X125843I18J659D01*
G01*
G75*
G02*
X125924Y219946I127J-2215D01*
G01*
G75*
G03*
X126022Y219953I-606J9063D01*
G01*
G75*
G03*
X126188Y219967I-791J10205D01*
G01*
G75*
G02*
X126219Y219970I236J-2204D01*
G01*
G75*
G03*
X126396Y219990I-746J7670D01*
G01*
G75*
G02*
X126451Y219996I267J-2205D01*
G01*
X126887Y220048D01*
G75*
G02*
X129417Y217851I312J-2196D01*
G01*
G75*
G02*
X129411Y217694I-2219J-1D01*
G01*
X129355Y216904D01*
G75*
G03*
X129188Y214169I136873J-9747D01*
G01*
G75*
G02*
X129187Y214159I-2192J87D01*
G01*
G75*
G03*
X129120Y212029I53824J-2757D01*
G01*
G75*
G02*
Y212025I-2298J-2D01*
G01*
G75*
G03*
X129114Y210945I98174J-1148D01*
G01*
G75*
G02*
X129281Y210492I-2559J-1202D01*
G01*
G75*
G02*
X129296Y210433I-2143J-589D01*
G01*
G75*
G02*
X129369Y210041I-2978J-756D01*
G01*
G75*
G02*
X129370Y210030I-2164J-255D01*
G01*
G75*
G02*
X129391Y209774I-3496J-408D01*
G01*
G75*
G02*
X129396Y209628I-2215J-145D01*
G01*
Y209250D01*
G75*
G02*
X129198Y208334I-2219J0D01*
G01*
G75*
G02*
X129302Y208022I-2273J-937D01*
G01*
G75*
G02*
X129326Y207926I-2139J-577D01*
G01*
G75*
G02*
X129394Y207302I-2839J-626D01*
G01*
G75*
G02*
Y207299I-2148J-2D01*
G01*
G75*
G02*
Y207294I-2291J-2D01*
G01*
G75*
G02*
X129377Y206902I-4583J6D01*
G01*
G75*
G02*
X129372Y206854I-2214J196D01*
G01*
G75*
G02*
X129344Y206668I-2273J247D01*
G01*
G75*
G02*
X129394Y206118I-3056J-555D01*
G01*
G75*
G02*
Y206116I-2051J-1D01*
G01*
Y206115D01*
G75*
G02*
Y206113I-2051J-1D01*
G01*
G75*
G02*
X129231Y205119I-3126J3D01*
G01*
G75*
G02*
X129213Y205067I-2104J688D01*
G01*
G75*
G02*
X128459Y203946I-2571J915D01*
G01*
G75*
G02*
X128407Y203901I-1480J1649D01*
G01*
G75*
G02*
X127250Y203310I-1834J2163D01*
G01*
G75*
G02*
X127235Y203306I-552J2172D01*
G01*
G75*
G02*
X126357Y203202I-878J3655D01*
G01*
G75*
G02*
X125244Y203365I-1J3874D01*
G01*
X125244D01*
G75*
G02*
X124193Y203873I1062J3544D01*
G01*
G75*
G02*
X124149Y203904I1270J1815D01*
G01*
G75*
G02*
X123322Y204805I1786J2469D01*
G01*
G75*
G02*
X123294Y204852I1887J1157D01*
G01*
G75*
G02*
X122965Y206083I2135J1231D01*
G01*
G75*
G02*
X123031Y206648I2467J-1D01*
G01*
G75*
G02*
X122984Y207022I2283J473D01*
G01*
G75*
G02*
X122427Y206951I-558J2148D01*
G01*
X122388D01*
G75*
G02*
X122394Y206414I-25986J-554D01*
G01*
G75*
G02*
Y206411I-2163J-1D01*
G01*
G75*
G02*
Y206410I-2313J-1D01*
G01*
G75*
G02*
X122389Y205818I-36854J23D01*
G01*
G75*
G02*
Y205807I-2256J-5D01*
G01*
G75*
G02*
X122294Y205099I-3094J52D01*
G01*
G75*
G02*
X122291Y205086I-2122J572D01*
G01*
G75*
G02*
X121189Y203636I-2287J594D01*
G01*
G75*
G02*
X121174Y203627I-1133J1904D01*
G01*
G75*
G02*
X119969Y203304I-1221J2144D01*
G01*
G75*
G02*
X119933I-18J2220D01*
G01*
G75*
G02*
X119090Y203429I24J3052D01*
G01*
G75*
G02*
X118652Y203346I-664J2307D01*
G01*
G75*
G02*
X118646Y203346I-172J2205D01*
G01*
G75*
G02*
X117676Y203433I-248J2689D01*
G01*
G75*
G02*
X117176Y203348I-647J2316D01*
G01*
G75*
G02*
X117146Y203347I-132J2202D01*
G01*
G75*
G02*
X116224Y203443I-149J3057D01*
G01*
G75*
G02*
X116175Y203456I554J2152D01*
G01*
G75*
G02*
X115017Y204180I669J2359D01*
G01*
G75*
G02*
X114976Y204227I1652J1471D01*
G01*
G75*
G02*
X114432Y205348I1893J1611D01*
G01*
G75*
G02*
X114426Y205381I2174J436D01*
G01*
G75*
G02*
X114363Y205978I3506J669D01*
G01*
G75*
G02*
X114363Y205990I2211J80D01*
G01*
G75*
G02*
X114357Y206567I36715J639D01*
G01*
G75*
G02*
X114356Y206628I2222J59D01*
G01*
Y207339D01*
G75*
G02*
X113843Y207632I1956J4020D01*
G01*
G75*
G02*
X113816Y207650I1200J1856D01*
G01*
G75*
G02*
X113641Y207774I2280J3380D01*
G01*
G75*
G02*
X113574Y207691I-1770J1344D01*
G01*
G75*
G02*
X113676Y207123I-2974J-823D01*
G01*
G75*
G02*
X113678Y207087I-2213J-188D01*
G01*
G75*
G02*
X113694Y206644I-6263J-444D01*
G01*
Y206642D01*
G75*
G02*
X113674Y206152I-6246J6D01*
G01*
G75*
G02*
X113501Y205368I-2898J229D01*
G01*
G75*
G02*
X113490Y205339I-2094J776D01*
G01*
G75*
G02*
X113091Y204628I-2640J1015D01*
G01*
G75*
G02*
X113046Y204570I-1763J1340D01*
G01*
G75*
G02*
X112705Y204193I-3833J3115D01*
G01*
G75*
G02*
X112703Y204191I-1505J1503D01*
G01*
G75*
G02*
X112339Y203863I-3376J3380D01*
G01*
G75*
G02*
X112304Y203835I-1391J1721D01*
G01*
G75*
G02*
X111685Y203460I-1819J2307D01*
G01*
G75*
G02*
X111619Y203432I-906J2026D01*
G01*
G75*
G02*
X110935Y203243I-1099J2636D01*
G01*
G75*
G02*
X110900Y203237I-338J2194D01*
G01*
G75*
G02*
X110369Y203202I-525J3921D01*
G01*
G75*
G02*
X110367I0J2603D01*
G01*
G75*
G02*
X109492Y203313I5J3545D01*
G01*
G75*
G02*
X109444Y203326I526J2150D01*
G01*
G75*
G02*
X108672Y203620I1082J3992D01*
G01*
G75*
G02*
X108669Y203622I970J1946D01*
G01*
G75*
G02*
X107974Y204068I1783J3544D01*
G01*
G75*
G02*
X107245Y204926I1833J2294D01*
G01*
G75*
G02*
X107218Y204976I1933J1091D01*
G01*
G75*
G02*
X106840Y206437I2819J1509D01*
G01*
G75*
G02*
X106840Y206456I2237J57D01*
G01*
G75*
G02*
Y206490I3514J17D01*
G01*
G75*
G02*
X106911Y207196I3519J0D01*
G01*
G75*
G02*
X106591Y207083I-1624J4110D01*
G01*
X106591D01*
G75*
G02*
X106335Y207010I-1886J6122D01*
G01*
G75*
G02*
X106205Y206577I-2350J473D01*
G01*
G75*
G02*
X106368Y205682I-2376J-895D01*
G01*
G75*
G02*
X106348Y205363I-2537J0D01*
G01*
G75*
G02*
X106345Y205342I-2197J269D01*
G01*
G75*
G02*
X104885Y203466I-2344J319D01*
G01*
G75*
G02*
X104825Y203443I-831J2052D01*
G01*
G75*
G02*
X103740Y203275I-953J2565D01*
G01*
G75*
G02*
X103676Y203278I90J2217D01*
G01*
G75*
G02*
X102678Y203514I231J3211D01*
G01*
G75*
G02*
X102631Y203533I830J2063D01*
G01*
G75*
G02*
X101435Y204561I1050J2433D01*
G01*
G75*
G02*
X101406Y204609I1879J1188D01*
G01*
G75*
G02*
X101000Y205815I2576J1537D01*
G01*
G75*
G02*
X100998Y205839I2215J227D01*
G01*
G75*
G02*
X100967Y206211I7034J761D01*
G01*
G75*
G02*
X100565Y207324I1845J1297D01*
G01*
G75*
G02*
X100143Y207140I-1818J3583D01*
G01*
G75*
G02*
X99916Y204777I-2231J-978D01*
G01*
G75*
G02*
X99913Y204774I-1753J1313D01*
G01*
G75*
G02*
X99128Y203963I-2868J1992D01*
G01*
G75*
G02*
X99105Y203946I-1333J1793D01*
G01*
G75*
G02*
X98175Y203435I-2409J3286D01*
G01*
G75*
G02*
X98122Y203416I-797J2070D01*
G01*
G75*
G02*
X96933Y203202I-1189J3208D01*
G01*
G75*
G02*
X95853Y203363I1J3704D01*
G01*
G75*
G02*
X95808Y203378I645J2122D01*
G01*
G75*
G02*
X94880Y203821I1141J3583D01*
G01*
G75*
G02*
X94878Y203822I1156J1736D01*
G01*
G75*
G02*
X94044Y204620I1778J2691D01*
G01*
G75*
G02*
X94017Y204659I1796J1306D01*
G01*
G75*
G02*
X93574Y206072I2030J1413D01*
G01*
G75*
G02*
X93636Y206624I2475J0D01*
G01*
G75*
G02*
X93582Y207120I2276J496D01*
G01*
G75*
G02*
X93584Y207214I2329J8D01*
G01*
G75*
G02*
X93489Y207176I-1809J4376D01*
G01*
G75*
G02*
X93158Y207058I-2146J5499D01*
G01*
G75*
G02*
X93106Y206868I-2268J524D01*
G01*
G75*
G02*
X93075Y206778I-2113J682D01*
G01*
G75*
G02*
X92878Y206276I-12810J4730D01*
G01*
G75*
G02*
X92869Y206255I-2069J830D01*
G01*
G75*
G02*
X92543Y205521I-16013J6678D01*
G01*
G75*
G02*
X92530Y205494I-2014J961D01*
G01*
G75*
G02*
X92048Y204490I-92458J43744D01*
G01*
G75*
G02*
X92036Y204465I-2017J946D01*
G01*
G75*
G02*
X91626Y203783I-4046J1970D01*
G01*
G75*
G02*
X91613Y203765I-1785J1325D01*
G01*
G75*
G02*
X91100Y203185I-3495J2573D01*
G01*
G75*
G02*
X91091Y203176I-1549J1607D01*
G01*
G75*
G02*
X90474Y202704I-2655J2826D01*
G01*
G75*
G02*
X90453Y202691I-1185J1879D01*
G01*
G75*
G02*
X89065Y202302I-1385J2276D01*
G01*
G75*
G02*
X89057I-4J2256D01*
G01*
G75*
G02*
X87167Y203236I11J2402D01*
G01*
G75*
G02*
X87126Y203291I1756J1360D01*
G01*
G75*
G02*
X86661Y204719I1961J1428D01*
G01*
G75*
G02*
X86699Y205146I2425J1D01*
G01*
G75*
G02*
X86706Y205186I2192J-392D01*
G01*
G75*
G02*
X86905Y205813I2804J-543D01*
G01*
G75*
G02*
X86756Y206163I13730J6067D01*
G01*
G75*
G02*
X86748Y206180I2021J856D01*
G01*
G75*
G02*
X86535Y206720I18996J7803D01*
G01*
G75*
G02*
X86524Y206750I2065J795D01*
G01*
G75*
G02*
X86469Y206920I2593J941D01*
G01*
G75*
G02*
X85880Y206915I-435J17560D01*
G01*
G75*
G02*
X85878Y206903I-2293J290D01*
G01*
G75*
G02*
X85993Y206167I-2372J-747D01*
G01*
G75*
G02*
Y206159I-2266J-4D01*
G01*
G75*
G02*
Y206154I-2239J-2D01*
G01*
G75*
G02*
X85407Y204512I-2598J3D01*
G01*
G75*
G02*
X85383Y204483I-1729J1401D01*
G01*
G75*
G02*
X84697Y203857I-2713J2283D01*
G01*
G75*
G02*
X84656Y203828I-1286J1814D01*
G01*
G75*
G02*
X83787Y203391I-2136J3159D01*
G01*
G75*
G02*
X83781Y203389I-814J2109D01*
G01*
G75*
G02*
X82686Y203202I-1095J3127D01*
G01*
G75*
G02*
X81583Y203357I-2J4004D01*
G01*
G75*
G02*
X81560Y203363I601J2130D01*
G01*
G75*
G02*
X80709Y203734I1049J3570D01*
G01*
G75*
G02*
X79624Y203451I-1085J1935D01*
G01*
X72026D01*
G75*
G02*
X71541Y203504I0J2219D01*
G01*
G75*
G02*
X70781Y203404I-667J2116D01*
G01*
X68193D01*
G75*
G02*
X68152Y203403I-42J2214D01*
G01*
G75*
G02*
X66062Y203414I37J212676D01*
G01*
G75*
G02*
X66057I-2J2131D01*
G01*
G75*
G02*
X64889Y203465I180J17322D01*
G01*
G75*
G02*
X64046Y203589I486J6246D01*
G01*
G75*
G02*
X63957Y203610I472J2171D01*
G01*
G75*
G02*
X62293Y206468I583J2253D01*
G01*
G75*
G03*
X62299Y206527I-8513J876D01*
G01*
G75*
G02*
X62302Y206548I2191J-237D01*
G01*
G75*
G03*
X62320Y206779I-7640J715D01*
G01*
G75*
G02*
X62321Y206799I2204J-120D01*
G01*
G75*
G03*
X62337Y207111I-12022J763D01*
G01*
G75*
G02*
X62337Y207126I2198J-50D01*
G01*
G75*
G03*
X62339Y207189I-19420J756D01*
G01*
G75*
G02*
X62170Y208043I2064J854D01*
G01*
G75*
G02*
X62208Y208453I2234J-1D01*
G01*
G75*
G02*
X62209Y208461I2170J-430D01*
G01*
G75*
G02*
X62211Y208471I2198J-417D01*
G01*
G75*
G02*
X62519Y209245I2220J-434D01*
G01*
G75*
G02*
X62507Y209471I2206J225D01*
G01*
G75*
G02*
Y209473I2089J1D01*
G01*
X62454Y213441D01*
Y213441D01*
G75*
G03*
X62432Y214974I-713778J-9504D01*
G01*
G75*
G02*
Y214979I2208J3D01*
G01*
G75*
G03*
X62411Y216259I-368410J-5595D01*
G01*
G75*
G02*
X62410Y216268I2180J99D01*
G01*
X62409Y216350D01*
G75*
G02*
X62166Y217243I2013J1027D01*
G01*
G75*
G02*
X62165Y217269I2214J115D01*
G01*
G75*
G02*
X62162Y217326I4856J262D01*
G01*
G75*
G02*
X62156Y217482I2211J167D01*
G01*
Y217706D01*
G75*
G02*
Y217718I2211J6D01*
G01*
X102639Y199121D02*
X105001Y201483D01*
G75*
G02*
X107137Y202352I2099J-2099D01*
G01*
X155652D01*
Y202801D01*
X168785D01*
Y197291D01*
G75*
G02*
X169174Y197770I2489J-1619D01*
G01*
X172887Y201483D01*
G75*
G02*
X175023Y202352I2099J-2099D01*
G01*
X176130D01*
Y202801D01*
X177254D01*
Y203421D01*
G75*
G02*
X176104Y206470I3469J3050D01*
G01*
G75*
G02*
X185341I4619J0D01*
G01*
G75*
G02*
X184191Y203421I-4619J0D01*
G01*
Y202801D01*
X189266D01*
Y197352D01*
X196476D01*
G75*
G02*
X195614Y199384I1963J2032D01*
G01*
G75*
G02*
X201264I2825J0D01*
G01*
G75*
G02*
X200402Y197352I-2825J0D01*
G01*
X205876D01*
Y203077D01*
X203626D01*
Y204045D01*
X195594D01*
Y212045D01*
X203626D01*
Y213014D01*
X214063D01*
Y203077D01*
X211813D01*
Y196901D01*
X213608Y195106D01*
X217587D01*
Y194675D01*
X219465D01*
G75*
G02*
X221601Y193806I37J-2969D01*
G01*
X224160Y191247D01*
G75*
G02*
X225030Y189148I-2099J-2099D01*
G01*
G75*
G02*
X225030Y189111I-2970J13D01*
G01*
Y165795D01*
X225061D01*
Y157053D01*
X232259D01*
G75*
G02*
X234750Y156037I39J-3469D01*
G01*
X240348Y150439D01*
X249404D01*
G75*
G02*
X264043Y146970I6909J-3469D01*
G01*
G75*
G02*
X249404Y143502I-7730J0D01*
G01*
X238950D01*
G75*
G02*
X236459Y144518I-39J3468D01*
G01*
X230860Y150116D01*
X225061D01*
Y146358D01*
X224693D01*
Y136541D01*
X205256D01*
Y138435D01*
X200087D01*
G75*
G02*
X199315Y138506I-72J3469D01*
G01*
Y131604D01*
X191677D01*
Y130943D01*
X199709D01*
Y122943D01*
X191677D01*
Y121974D01*
X181240D01*
Y127124D01*
X171311D01*
G75*
G02*
X169174Y127993I-37J2969D01*
G01*
X166703Y130465D01*
Y124331D01*
X164549D01*
Y97171D01*
G75*
G02*
X163648Y95041I-2969J0D01*
G01*
X162623Y94016D01*
G75*
G02*
X162862Y92691I-3554J-1325D01*
G01*
G75*
G02*
X155276I-3793J0D01*
G01*
G75*
G02*
X156132Y95092I3793J0D01*
G01*
G75*
G02*
X157001Y96789I2937J-433D01*
G01*
X158612Y98400D01*
Y101665D01*
G75*
G02*
X155738Y101927I-1118J3625D01*
G01*
Y100170D01*
G75*
G02*
X150161Y95055I-2969J-2361D01*
G01*
G75*
G02*
X143447Y93640I-3691J876D01*
G01*
G75*
G02*
X137990Y91255I-3670J961D01*
G01*
Y79614D01*
X141452Y76152D01*
G75*
G02*
X142042Y75310I-2099J-2099D01*
G01*
G75*
G02*
X142459Y73793I-2552J-1517D01*
G01*
Y60287D01*
X144480D01*
Y50163D01*
X154043D01*
Y60287D01*
X164480D01*
Y49850D01*
X164002D01*
Y48673D01*
G75*
G02*
X164002Y48636I-2970J-50D01*
G01*
G75*
G02*
X163133Y46537I-2969J0D01*
G01*
X161692Y45096D01*
G75*
G02*
X161166Y44677I-2099J2098D01*
G01*
X162926D01*
X164616Y46367D01*
Y72778D01*
G75*
G02*
X164632Y73108I3470J0D01*
G01*
Y93196D01*
G75*
G02*
X164631Y93234I3448J54D01*
G01*
G75*
G02*
X165648Y95687I3469J0D01*
G01*
X181511Y111551D01*
G75*
G02*
X181221Y113163I4329J1613D01*
G01*
G75*
G02*
X190460I4620J0D01*
G01*
G75*
G02*
X189152Y109943I-4620J0D01*
G01*
G75*
G02*
X188293Y108522I-3312J1032D01*
G01*
X171569Y91797D01*
Y72793D01*
G75*
G02*
X171553Y72463I-3471J0D01*
G01*
Y44931D01*
G75*
G02*
X170503Y42444I-3469J0D01*
G01*
X167581Y39522D01*
Y35177D01*
X170803D01*
X172429Y36803D01*
Y50618D01*
G75*
G02*
Y50659I4718J21D01*
G01*
G75*
G02*
X173811Y53996I4719J0D01*
G01*
X176866Y57051D01*
G75*
G02*
X180244Y58433I3337J-3337D01*
G01*
X183287D01*
Y75965D01*
X181161D01*
Y86504D01*
X184781D01*
Y87043D01*
X183571D01*
Y103291D01*
X192929D01*
Y87043D01*
X191719D01*
Y86504D01*
X194850D01*
Y75965D01*
X192724D01*
Y61760D01*
X193921Y62957D01*
G75*
G02*
X197299Y64339I3337J-3337D01*
G01*
X208383D01*
X209911Y65867D01*
G75*
G02*
X220429Y64352I5150J-1515D01*
G01*
G75*
G02*
X216598Y59209I-5368J0D01*
G01*
X213715Y56326D01*
G75*
G02*
X210337Y54902I-3378J3294D01*
G01*
X199213D01*
X196265Y51954D01*
G75*
G02*
X189123Y48996I-4913J1761D01*
G01*
X182157D01*
X181866Y48705D01*
Y34890D01*
G75*
G02*
Y34848I-4728J-20D01*
G01*
G75*
G02*
X180484Y31512I-4719J0D01*
G01*
X179744Y30772D01*
X182537Y27978D01*
X188331D01*
Y27010D01*
X196362D01*
Y19010D01*
X188331D01*
Y18041D01*
X177894D01*
Y19318D01*
G75*
G02*
X177496Y19673I2939J3691D01*
G01*
X171429Y25740D01*
X167581D01*
Y25240D01*
X157644D01*
Y35990D01*
X157581D01*
Y25240D01*
X156081D01*
Y24118D01*
X158831D01*
Y13681D01*
X146394D01*
Y24118D01*
X149144D01*
Y25240D01*
X147644D01*
Y33569D01*
X146949D01*
G75*
G02*
X142990Y34037I-1597J3469D01*
G01*
Y26799D01*
X134990D01*
Y34831D01*
X134022D01*
Y36581D01*
X133722D01*
Y26635D01*
G75*
G02*
X130000Y19994I-2126J-3172D01*
G01*
X129504D01*
G75*
G02*
X126978Y21009I-73J3469D01*
G01*
X126301Y21687D01*
G75*
G02*
X125285Y24140I2453J2453D01*
G01*
G75*
G02*
X125285Y24213I3468J-1D01*
G01*
Y25831D01*
X123785D01*
Y28256D01*
G75*
G02*
X122659Y28981I1004J2794D01*
G01*
X120155Y31486D01*
G75*
G02*
X119254Y33616I2068J2130D01*
G01*
Y44789D01*
G75*
G02*
X120155Y46919I2969J0D01*
G01*
X122136Y48900D01*
G75*
G02*
X124266Y49801I2130J-2068D01*
G01*
X126703D01*
Y49850D01*
X114043D01*
Y60287D01*
X116293D01*
Y67402D01*
G75*
G02*
X116293Y67439I2965J50D01*
G01*
G75*
G02*
X116319Y67833I2969J-1D01*
G01*
X112695D01*
Y48100D01*
G75*
G02*
X115108Y44549I-1406J-3550D01*
G01*
G75*
G02*
X107491Y44159I-3819J0D01*
G01*
G75*
G02*
X106757Y46112I2235J1954D01*
G01*
G75*
G02*
X106758Y46149I2966J-13D01*
G01*
Y69323D01*
G75*
G02*
X106757Y69360I2965J50D01*
G01*
G75*
G02*
X107627Y71459I2969J0D01*
G01*
X109068Y72900D01*
G75*
G02*
X111204Y73770I2099J-2099D01*
G01*
X112120D01*
G75*
G02*
X114368Y78361I3641J1063D01*
G01*
Y94414D01*
G75*
G02*
X112431Y94840I-181J3789D01*
G01*
Y89993D01*
G75*
G02*
X112466Y89539I-2966J-455D01*
G01*
G75*
G02*
X112465Y89502I-3014J13D01*
G01*
G75*
G02*
X108100Y83641I-2999J-2323D01*
G01*
Y80026D01*
G75*
G02*
X107200Y77896I-2969J0D01*
G01*
X107169Y77865D01*
G75*
G02*
X99606Y78293I-3769J429D01*
G01*
G75*
G02*
X102163Y81880I3793J0D01*
G01*
Y107864D01*
G75*
G02*
X101625Y107127I-2637J1362D01*
G01*
X99617Y105119D01*
G75*
G02*
X97481Y104250I-2099J2099D01*
G01*
X88774D01*
G75*
G02*
X83503Y102493I-3918J2969D01*
G01*
X82591Y101581D01*
G75*
G02*
X89772Y97219I2265J-4362D01*
G01*
G75*
G02*
X84856Y92303I-4915J0D01*
G01*
G75*
G02*
X83972Y92383I1J4915D01*
G01*
X83723Y92134D01*
X89772D01*
Y82303D01*
X83785D01*
X82162Y80680D01*
G75*
G02*
X80211Y79854I-1952J1893D01*
G01*
X48006D01*
G75*
G02*
X46054Y80680I0J2719D01*
G01*
X43455Y83280D01*
X34850D01*
Y81083D01*
X25020D01*
Y87967D01*
X24600Y87547D01*
G75*
G02*
X19935Y81083I-4665J-1549D01*
G01*
G75*
G02*
X15020Y85998I0J4915D01*
G01*
G75*
G02*
X19935Y90913I4915J0D01*
G01*
G75*
G02*
X20267Y90902I3J-4917D01*
G01*
X21998Y92633D01*
G75*
G02*
X15988Y95998I-2063J3365D01*
G01*
G75*
G02*
X19935Y99945I3947J0D01*
G01*
G75*
G02*
X22970Y93474I0J-3947D01*
G01*
G75*
G02*
X24329Y93839I1359J-2355D01*
G01*
X25519D01*
G75*
G02*
X34030Y98717I4416J2159D01*
G01*
X48033D01*
G75*
G02*
X49991Y97920I36J-2719D01*
G01*
X53211Y94701D01*
X71817D01*
G75*
G02*
X72064Y100008I3039J2518D01*
G01*
X51416D01*
G75*
G02*
X49457Y100804I-36J2718D01*
G01*
X47529Y102732D01*
X33609D01*
G75*
G02*
X25020Y105998I-3674J3266D01*
G01*
G75*
G02*
X25020Y106073I4898J12D01*
G01*
X24850Y105902D01*
G75*
G02*
X15020Y105998I-4915J96D01*
G01*
G75*
G02*
X21802Y110545I4915J0D01*
G01*
X24328Y113070D01*
G75*
G02*
X25551Y113775I1923J-1922D01*
G01*
G75*
G02*
X25124Y117003I4383J2223D01*
G01*
X24803Y116682D01*
G75*
G02*
X24850Y115998I-4869J-683D01*
G01*
G75*
G02*
X19935Y111083I-4915J0D01*
G01*
G75*
G02*
X15020Y115998I0J4915D01*
G01*
G75*
G02*
X21183Y120752I4915J0D01*
G01*
X21942Y121511D01*
G75*
G02*
X15020Y125998I-2007J4487D01*
G01*
G75*
G02*
X20476Y130883I4915J1D01*
G01*
X20741Y131149D01*
G75*
G02*
X15020Y135998I-806J4849D01*
G01*
G75*
G02*
X19357Y140879I4915J0D01*
G01*
X19574Y141096D01*
G75*
G02*
X17897Y150471I361J4902D01*
G01*
G75*
G02*
X18013Y150594I2036J-1803D01*
G01*
X18668Y151249D01*
G75*
G02*
X16967Y159916I1267J4749D01*
G01*
Y179797D01*
G75*
G02*
X17867Y181927I2969J0D01*
G01*
X20120Y184180D01*
G75*
G02*
X22250Y185081I2130J-2068D01*
G01*
X72154D01*
G75*
G02*
X74290Y184211I37J-2969D01*
G01*
X76956Y181546D01*
G75*
G02*
X77825Y179447I-2099J-2099D01*
G01*
G75*
G02*
X77825Y179410I-2970J13D01*
G01*
Y161136D01*
G75*
G02*
X73394Y152526I-2969J-3918D01*
G01*
X73883Y152037D01*
G75*
G02*
X79330Y145181I973J-4818D01*
G01*
X80383D01*
G75*
G02*
X84856Y152134I4473J2037D01*
G01*
G75*
G02*
X85616Y142362I0J-4915D01*
G01*
X85361Y142108D01*
G75*
G02*
X84856Y132303I-505J-4889D01*
G01*
G75*
G02*
X84066Y132367I-1J4916D01*
G01*
X83694Y131994D01*
G75*
G02*
X89772Y127219I1163J-4776D01*
G01*
G75*
G02*
X84856Y122303I-4915J0D01*
G01*
G75*
G02*
X84256Y122340I2J4914D01*
G01*
X83969Y122053D01*
G75*
G02*
X86163Y112480I887J-4835D01*
G01*
G75*
G02*
X85808Y112058I-2248J1531D01*
G01*
X85793Y112044D01*
G75*
G02*
X88774Y110187I-937J-4825D01*
G01*
X96288D01*
X96557Y110456D01*
Y153546D01*
G75*
G02*
X93247Y154250I-949J3672D01*
G01*
X88774D01*
G75*
G02*
X79941Y157219I-3918J2969D01*
G01*
G75*
G02*
X88774Y160187I4915J0D01*
G01*
X93247D01*
G75*
G02*
X96557Y160891I2361J-2968D01*
G01*
Y181333D01*
G75*
G02*
X101770Y186845I2669J2696D01*
G01*
Y196985D01*
G75*
G02*
X101769Y197022I2965J50D01*
G01*
G75*
G02*
X102639Y199121I2969J0D01*
G01*
X256313Y133732D02*
G75*
G02*
X263075Y126970I0J-6762D01*
G01*
G75*
G02*
X256313Y120209I-6762J0D01*
G01*
G75*
G02*
X249551Y126970I0J6762D01*
G01*
G75*
G02*
X256313Y133732I6762J0D01*
G01*
X215886Y103010D02*
X235323D01*
Y102760D01*
X243030D01*
G75*
G02*
X246408Y101335I0J-4719D01*
G01*
X246523Y101220D01*
X249796D01*
G75*
G02*
X263650Y96502I6123J-4719D01*
G01*
G75*
G02*
X249796Y91783I-7730J0D01*
G01*
X244569D01*
G75*
G02*
X241191Y93208I0J4719D01*
G01*
X241076Y93323D01*
X235323D01*
Y93073D01*
X225823D01*
Y81183D01*
G75*
G02*
X221104Y76465I-4719J0D01*
G01*
X211780D01*
Y75965D01*
X198091D01*
Y86504D01*
X211780D01*
Y85902D01*
X216386D01*
Y93073D01*
X215886D01*
Y103010D01*
X255919Y63264D02*
G75*
G02*
X262681Y56502I0J-6762D01*
G01*
G75*
G02*
X255919Y49740I-6762J0D01*
G01*
G75*
G02*
X249157Y56502I0J6762D01*
G01*
G75*
G02*
X255919Y63264I6762J0D01*
G01*
Y83264D02*
G75*
G02*
X262681Y76502I0J-6762D01*
G01*
G75*
G02*
X255919Y69740I-6762J0D01*
G01*
G75*
G02*
X249157Y76502I0J6762D01*
G01*
G75*
G02*
X255919Y83264I6762J0D01*
G01*
X205209Y102323D02*
X212630D01*
Y88012D01*
X205209D01*
Y102323D01*
X191539Y107652D02*
G75*
G02*
X199039I3750J0D01*
G01*
G75*
G02*
X191539I-3750J0D01*
G01*
X145012Y59319D02*
X153512D01*
Y50819D01*
X145012D01*
Y59319D01*
X218535Y34825D02*
G75*
G02*
X227335I4400J0D01*
G01*
G75*
G02*
X218535I-4400J0D01*
G01*
X187102Y38715D02*
G75*
G02*
X195602I4250J0D01*
G01*
G75*
G02*
X187102I-4250J0D01*
G01*
X147362Y13150D02*
X157862D01*
Y4650D01*
X147362D01*
Y13150D01*
X44827Y21825D02*
G75*
G02*
X46077Y23075I1250J0D01*
G01*
X91825D01*
G75*
G02*
X93075Y21825I0J-1250D01*
G01*
Y12376D01*
G75*
G02*
X91825Y11126I-1250J0D01*
G01*
X46077D01*
G75*
G02*
X44827Y12376I0J1250D01*
G01*
Y21825D01*
X39801Y8900D02*
G36*
X39801Y8900D02*
Y2406D01*
X239289D01*
Y8900D01*
X157862D01*
Y4650D01*
X147362D01*
Y8900D01*
X39801D01*
G37*
Y17100D02*
G36*
X39801Y17100D02*
Y8900D01*
X147362D01*
Y13150D01*
X157862D01*
Y8900D01*
X239289D01*
Y17100D01*
X158831D01*
Y13681D01*
X146394D01*
Y17100D01*
X93075D01*
Y12376D01*
Y12376D01*
G75*
G02*
X91825Y11126I-1250J0D01*
G01*
X46077D01*
G75*
G02*
X44827Y12375I-1J1249D01*
G01*
G75*
G02*
Y12376I1187J1D01*
G01*
Y17100D01*
X39801D01*
G37*
Y34825D02*
G36*
X39801Y34825D02*
Y17100D01*
X44827D01*
Y21825D01*
Y21825D01*
G75*
G02*
X46077Y23075I1250J0D01*
G01*
X91825D01*
G75*
G02*
X93075Y21825I0J-1250D01*
G01*
Y17100D01*
X146394D01*
Y24118D01*
X149144D01*
Y25240D01*
X147644D01*
Y33569D01*
X146949D01*
G75*
G02*
X142990Y34037I-1597J3467D01*
G01*
Y26799D01*
X134990D01*
Y34825D01*
X133722D01*
Y26635D01*
G75*
G02*
X135415Y23463I-2126J-3172D01*
G01*
G75*
G02*
X130000Y19994I-3819J0D01*
G01*
X129504D01*
G75*
G02*
X126978Y21009I-75J3464D01*
G01*
X126301Y21687D01*
G75*
G02*
X125285Y24138I2448J2451D01*
G01*
G75*
G02*
Y24140I3418J1D01*
G01*
G75*
G02*
Y24158I1724J9D01*
G01*
G75*
G02*
X125285Y24213I1697J3D01*
G01*
Y25831D01*
X123785D01*
Y28256D01*
G75*
G02*
X122659Y28981I998J2783D01*
G01*
X120155Y31486D01*
G75*
G02*
X119254Y33615I2064J2128D01*
G01*
G75*
G02*
Y33616I2820J1D01*
G01*
Y34825D01*
X39801D01*
G37*
X156081Y25240D02*
G36*
X156081Y25240D02*
Y24118D01*
X158831D01*
Y17100D01*
X239289D01*
Y34825D01*
X227335D01*
G75*
G02*
X218535I-4400J0D01*
G01*
X193065D01*
G75*
G02*
X189640I-1712J3889D01*
G01*
X181866D01*
G75*
G02*
X180484Y31512I-4722J25D01*
G01*
X179744Y30772D01*
X182537Y27978D01*
X188331D01*
Y27010D01*
X196362D01*
Y19010D01*
X188331D01*
Y18041D01*
X177894D01*
Y19318D01*
G75*
G02*
X177496Y19673I2827J3566D01*
G01*
X171429Y25740D01*
X167581D01*
Y25240D01*
X157644D01*
Y34825D01*
X157581D01*
Y25240D01*
X156081D01*
G37*
X3043Y56502D02*
G36*
X3043Y56502D02*
Y35715D01*
X39801D01*
Y34825D01*
X119254D01*
Y44789D01*
G75*
G02*
X120155Y46919I2969J0D01*
G01*
X122136Y48900D01*
G75*
G02*
X124266Y49801I2131J-2070D01*
G01*
X126703D01*
Y49850D01*
X114043D01*
Y56502D01*
X112695D01*
Y48100D01*
G75*
G02*
X115108Y44549I-1407J-3552D01*
G01*
Y44549D01*
G75*
G02*
X107491Y44159I-3819J0D01*
G01*
G75*
G02*
X106757Y46111I2233J1953D01*
G01*
G75*
G02*
Y46112I2654J0D01*
G01*
G75*
G02*
Y46121I890J5D01*
G01*
G75*
G02*
X106758Y46149I889J2D01*
G01*
Y56502D01*
X3043D01*
G37*
X133722Y36581D02*
G36*
X133722Y36581D02*
Y34825D01*
X134990D01*
Y34831D01*
X134022D01*
Y36581D01*
X133722D01*
G37*
X144480Y56502D02*
G36*
X144480Y56502D02*
Y50163D01*
X154043D01*
Y56502D01*
X153512D01*
Y50819D01*
X145012D01*
Y56502D01*
X144480D01*
G37*
X157581Y35990D02*
G36*
X157581Y35990D02*
Y34825D01*
X157644D01*
Y35990D01*
X157581D01*
G37*
X161692Y45096D02*
G36*
X161692Y45096D02*
G75*
G02*
X161166Y44677I-2087J2083D01*
G01*
X162926D01*
X164616Y46367D01*
Y56502D01*
X164480D01*
Y49850D01*
X164002D01*
Y48673D01*
G75*
G03*
Y48664I852J-4D01*
G01*
G75*
G03*
X164002Y48636I876J-2D01*
G01*
G75*
G02*
X163133Y46537I-2972J2D01*
G01*
X161692Y45096D01*
G37*
X167581Y39522D02*
G36*
X167581Y39522D02*
Y35177D01*
X170803D01*
X172429Y36803D01*
Y50618D01*
G75*
G02*
X172429Y50639I548J21D01*
G01*
G75*
G02*
X172429Y50659I538J0D01*
G01*
G75*
G02*
X173811Y53996I4719J0D01*
G01*
X176317Y56502D01*
X171553D01*
Y44931D01*
G75*
G02*
X170503Y42444I-3470J0D01*
G01*
X167581Y39522D01*
G37*
X181866Y34848D02*
G36*
X181866Y34848D02*
G75*
G02*
Y34825I-4732J-12D01*
G01*
X189640D01*
G75*
G02*
X187102Y38715I1712J3890D01*
G01*
G75*
G02*
X195602I4250J0D01*
G01*
G75*
G02*
X193065Y34825I-4250J0D01*
G01*
X218535D01*
G75*
G02*
X227335I4400J0D01*
G01*
X239289D01*
Y39163D01*
X273539D01*
Y56502D01*
X262681D01*
G75*
G02*
X255919Y49740I-6762J0D01*
G01*
G75*
G02*
X249157Y56501I0J6761D01*
G01*
G75*
G02*
Y56502I9023J0D01*
G01*
X213891D01*
X213715Y56326D01*
G75*
G02*
X210337Y54902I-3378J3293D01*
G01*
X199213D01*
X196265Y51954D01*
G75*
G02*
X189123Y48996I-4912J1760D01*
G01*
X182157D01*
X181866Y48705D01*
Y34890D01*
Y34848D01*
G37*
X3043Y76502D02*
G36*
X3043Y76502D02*
Y56502D01*
X106758D01*
Y69323D01*
G75*
G02*
X106757Y69351I852J26D01*
G01*
G75*
G02*
Y69360I852J5D01*
G01*
G75*
G02*
X107627Y71459I2969J0D01*
G01*
X109068Y72900D01*
G75*
G02*
X111204Y73770I2100J-2100D01*
G01*
X112120D01*
G75*
G02*
X111969Y74833I3641J1063D01*
G01*
G75*
G02*
X112356Y76502I3793J0D01*
G01*
X106743D01*
G75*
G02*
X100056I-3344J1791D01*
G01*
X3043D01*
G37*
X112695Y67833D02*
G36*
X112695Y67833D02*
Y56502D01*
X114043D01*
Y60287D01*
X116293D01*
Y67402D01*
G75*
G02*
X116293Y67430I852J26D01*
G01*
G75*
G02*
Y67439I852J5D01*
G01*
G75*
G02*
Y67448I2869J4D01*
G01*
G75*
G02*
X116319Y67833I2823J0D01*
G01*
X112695D01*
G37*
X141102Y76502D02*
G36*
X141102Y76502D02*
X141452Y76152D01*
G75*
G02*
X142042Y75310I-2125J-2117D01*
G01*
G75*
G02*
X142459Y73793I-2558J-1519D01*
G01*
Y60287D01*
X144480D01*
Y56502D01*
X145012D01*
Y59319D01*
X153512D01*
Y56502D01*
X154043D01*
Y60287D01*
X164480D01*
Y56502D01*
X164616D01*
Y72778D01*
G75*
G02*
X164632Y73108I3487J-1D01*
G01*
Y76502D01*
X141102D01*
G37*
X171553Y72463D02*
G36*
X171553Y72463D02*
Y56502D01*
X176317D01*
X176866Y57051D01*
G75*
G02*
X180244Y58433I3336J-3335D01*
G01*
X183287D01*
Y75965D01*
X181161D01*
Y76502D01*
X171569D01*
Y72793D01*
G75*
G02*
X171553Y72463I-3472J0D01*
G01*
G37*
X192724Y75965D02*
G36*
X192724Y75965D02*
Y61760D01*
X193921Y62957D01*
G75*
G02*
X197299Y64339I3336J-3335D01*
G01*
X208383D01*
X209911Y65867D01*
G75*
G02*
X220429Y64352I5150J-1515D01*
G01*
G75*
G02*
X216598Y59209I-5369J1D01*
G01*
X213891Y56502D01*
X249157D01*
G75*
G02*
X255919Y63264I6762J0D01*
G01*
G75*
G02*
X262681Y56502I0J-6762D01*
G01*
X273539D01*
Y76502D01*
X262681D01*
G75*
G02*
X255919Y69740I-6762J0D01*
G01*
G75*
G02*
X249157Y76501I0J6761D01*
G01*
G75*
G02*
Y76502I9023J0D01*
G01*
X221697D01*
G75*
G02*
X221104Y76465I-593J4680D01*
G01*
X211780D01*
Y75965D01*
X198091D01*
Y76502D01*
X194850D01*
Y75965D01*
X192724D01*
G37*
X3043Y90098D02*
G36*
X3043Y90098D02*
Y76502D01*
X100056D01*
G75*
G02*
X99606Y78293I3344J1791D01*
G01*
Y78293D01*
Y78294D01*
G75*
G02*
X102163Y81880I3793J0D01*
G01*
Y90098D01*
X89772D01*
Y82303D01*
X83785D01*
X82162Y80680D01*
G75*
G02*
X80211Y79854I-1952J1893D01*
G01*
X48006D01*
G75*
G02*
X46054Y80680I-1J2717D01*
G01*
X43455Y83280D01*
X34850D01*
Y81083D01*
X25020D01*
Y87967D01*
X24600Y87547D01*
G75*
G02*
X24850Y85998I-4665J-1549D01*
G01*
G75*
G02*
X19935Y81083I-4915J0D01*
G01*
G75*
G02*
X15020Y85997I-1J4914D01*
G01*
G75*
G02*
Y85998I5639J1D01*
G01*
Y85998D01*
G75*
G02*
X17224Y90098I4915J0D01*
G01*
X3043D01*
G37*
X107169Y77865D02*
G36*
X107169Y77865D02*
G75*
G02*
X106743Y76502I-3769J428D01*
G01*
X112356D01*
G75*
G02*
X114368Y78361I3406J-1669D01*
G01*
Y90098D01*
X112431D01*
Y89993D01*
G75*
G02*
X112466Y89539I-3096J-465D01*
G01*
G75*
G03*
X112465Y89511I891J-26D01*
G01*
G75*
G03*
Y89502I918J-5D01*
G01*
G75*
G02*
X113260Y87179I-2999J-2323D01*
G01*
G75*
G02*
X108100Y83641I-3793J0D01*
G01*
Y80026D01*
G75*
G02*
X107200Y77896I-2970J1D01*
G01*
X107169Y77865D01*
G37*
X137990Y90098D02*
G36*
X137990Y90098D02*
Y79614D01*
X141102Y76502D01*
X164632D01*
Y90098D01*
X161838D01*
G75*
G02*
X156300I-2769J2593D01*
G01*
X137990D01*
G37*
X171569D02*
G36*
X171569Y90098D02*
Y76502D01*
X181161D01*
Y86504D01*
X184781D01*
Y87043D01*
X183571D01*
Y90098D01*
X171569D01*
G37*
X191719Y87043D02*
G36*
X191719Y87043D02*
Y86504D01*
X194850D01*
Y76502D01*
X198091D01*
Y86504D01*
X211780D01*
Y85902D01*
X216386D01*
Y90098D01*
X212630D01*
Y88012D01*
X205209D01*
Y90098D01*
X192929D01*
Y87043D01*
X191719D01*
G37*
X225823Y81183D02*
G36*
X225823Y81183D02*
G75*
G02*
X221697Y76502I-4719J0D01*
G01*
X249157D01*
G75*
G02*
X255919Y83264I6762J0D01*
G01*
G75*
G02*
X262681Y76502I0J-6762D01*
G01*
X273539D01*
Y90098D01*
X260250D01*
G75*
G02*
X251589I-4331J6404D01*
G01*
X225823D01*
Y81183D01*
G37*
X3043Y107652D02*
G36*
X3043Y107652D02*
Y90098D01*
X17224D01*
G75*
G02*
X19935Y90913I2711J-4100D01*
G01*
G75*
G02*
X20267Y90902I0J-5019D01*
G01*
X21998Y92633D01*
G75*
G02*
X15988Y95997I-2063J3364D01*
G01*
G75*
G02*
Y95998I5639J0D01*
G01*
G75*
G02*
X19935Y99945I3947J0D01*
G01*
G75*
G02*
X23881Y95998I0J-3947D01*
G01*
G75*
G02*
X22970Y93474I-3948J0D01*
G01*
G75*
G02*
X24329Y93839I1361J-2361D01*
G01*
X25519D01*
G75*
G02*
X25020Y95998I4416J2159D01*
G01*
G75*
G02*
X34030Y98717I4915J0D01*
G01*
X48033D01*
G75*
G02*
X49991Y97920I35J-2720D01*
G01*
X53211Y94701D01*
X71817D01*
G75*
G02*
X70909Y97219I3039J2518D01*
G01*
G75*
G02*
X72064Y100008I3946J0D01*
G01*
X51416D01*
G75*
G02*
X49457Y100804I-37J2715D01*
G01*
X47529Y102732D01*
X33609D01*
G75*
G02*
X25020Y105998I-3674J3265D01*
G01*
Y105998D01*
G75*
G02*
Y106017I3594J9D01*
G01*
G75*
G02*
X25020Y106073I3592J3D01*
G01*
X24850Y105902D01*
G75*
G02*
X15020Y105998I-4915J96D01*
G01*
G75*
G02*
X15306Y107652I4916J0D01*
G01*
X3043D01*
G37*
X83503Y102493D02*
G36*
X83503Y102493D02*
X82591Y101581D01*
G75*
G02*
X89772Y97219I2265J-4363D01*
G01*
Y97218D01*
G75*
G02*
X84856Y92303I-4915J0D01*
G01*
G75*
G02*
X83972Y92383I-2J4886D01*
G01*
X83723Y92134D01*
X89772D01*
Y90098D01*
X102163D01*
Y107652D01*
X102042D01*
G75*
G02*
X101625Y107127I-2523J1580D01*
G01*
X99617Y105119D01*
G75*
G02*
X97481Y104250I-2098J2097D01*
G01*
X88774D01*
G75*
G02*
X83503Y102493I-3918J2968D01*
G01*
G37*
X112431Y94840D02*
G36*
X112431Y94840D02*
Y90098D01*
X114368D01*
Y94414D01*
G75*
G02*
X112431Y94840I-182J3786D01*
G01*
G37*
X137990Y91255D02*
G36*
X137990Y91255D02*
Y90098D01*
X156300D01*
G75*
G02*
X155276Y92691I2769J2592D01*
G01*
G75*
G02*
Y92693I3638J1D01*
G01*
G75*
G02*
X156132Y95092I3788J0D01*
G01*
G75*
G02*
X157001Y96789I2936J-432D01*
G01*
X158612Y98400D01*
Y101665D01*
G75*
G02*
X155738Y101927I-1119J3621D01*
G01*
Y100170D01*
G75*
G02*
X156563Y97809I-2969J-2361D01*
G01*
G75*
G02*
X150161Y95055I-3793J0D01*
G01*
G75*
G02*
X143447Y93640I-3691J876D01*
G01*
G75*
G02*
X137990Y91255I-3670J961D01*
G01*
G37*
X162862Y92691D02*
G36*
X162862Y92691D02*
G75*
G02*
X161838Y90098I-3793J0D01*
G01*
X164632D01*
Y93196D01*
G75*
G02*
X164631Y93224I926J27D01*
G01*
G75*
G02*
Y93234I928J5D01*
G01*
G75*
G02*
Y93235I3222J0D01*
G01*
G75*
G02*
X165648Y95687I3466J0D01*
G01*
X177612Y107652D01*
X164549D01*
Y97171D01*
G75*
G02*
X163648Y95041I-2970J1D01*
G01*
X162623Y94016D01*
G75*
G02*
X162862Y92691I-3556J-1326D01*
G01*
G37*
X171569Y91797D02*
G36*
X171569Y91797D02*
Y90098D01*
X183571D01*
Y103291D01*
X192929D01*
Y90098D01*
X205209D01*
Y102323D01*
X212630D01*
Y90098D01*
X216386D01*
Y93073D01*
X215886D01*
Y103010D01*
X235323D01*
Y102760D01*
X243030D01*
G75*
G02*
X246408Y101335I-1J-4721D01*
G01*
X246523Y101220D01*
X249796D01*
G75*
G02*
X263650Y96502I6123J-4719D01*
G01*
G75*
G02*
X260250Y90098I-7730J0D01*
G01*
X273539D01*
Y107652D01*
X199039D01*
G75*
G02*
X191539I-3750J0D01*
G01*
X187423D01*
X171569Y91797D01*
G37*
X225823Y93073D02*
G36*
X225823Y93073D02*
Y90098D01*
X251589D01*
G75*
G02*
X249796Y91783I4331J6403D01*
G01*
X244569D01*
G75*
G02*
X241191Y93208I-2J4715D01*
G01*
X241076Y93323D01*
X235323D01*
Y93073D01*
X225823D01*
G37*
X3043Y126970D02*
G36*
X3043Y126970D02*
Y107652D01*
X15306D01*
G75*
G02*
X21802Y110545I4629J-1654D01*
G01*
X24328Y113070D01*
G75*
G02*
X25551Y113775I1925J-1926D01*
G01*
G75*
G02*
X25020Y115998I4380J2222D01*
G01*
G75*
G02*
X25124Y117003I4913J0D01*
G01*
X24803Y116682D01*
G75*
G02*
X24850Y115998I-5010J-693D01*
G01*
Y115998D01*
G75*
G02*
X19935Y111083I-4915J0D01*
G01*
G75*
G02*
X15020Y115997I-1J4914D01*
G01*
G75*
G02*
Y115998I5639J1D01*
G01*
G75*
G02*
X21183Y120752I4916J0D01*
G01*
X21942Y121511D01*
G75*
G02*
X15020Y125997I-2007J4486D01*
G01*
G75*
G02*
Y125998I5639J0D01*
G01*
G75*
G02*
Y125999I4511J0D01*
G01*
G75*
G02*
X15117Y126970I4915J1D01*
G01*
X3043D01*
G37*
X84256Y122340D02*
G36*
X84256Y122340D02*
X83969Y122053D01*
G75*
G02*
X89771Y117219I887J-4835D01*
G01*
G75*
G02*
X86163Y112480I-4915J0D01*
G01*
G75*
G02*
X85808Y112058I-2256J1537D01*
G01*
X85793Y112044D01*
G75*
G02*
X88774Y110187I-939J-4829D01*
G01*
X96288D01*
X96557Y110456D01*
Y126970D01*
X89765D01*
G75*
G02*
X84856Y122303I-4909J248D01*
G01*
G75*
G02*
X84256Y122340I-7J4783D01*
G01*
G37*
X102042Y107652D02*
G36*
X102042Y107652D02*
X102163D01*
Y107864D01*
G75*
G02*
X102042Y107652I-2645J1368D01*
G01*
G37*
X164549Y124331D02*
G36*
X164549Y124331D02*
Y107652D01*
X177612D01*
X181511Y111551D01*
G75*
G02*
X181221Y113158I4302J1607D01*
G01*
G75*
G02*
Y113163I4730J3D01*
G01*
G75*
G02*
X190460I4620J0D01*
G01*
G75*
G02*
X189152Y109943I-4624J2D01*
G01*
G75*
G02*
X188293Y108522I-3313J1033D01*
G01*
X187423Y107652D01*
X191539D01*
G75*
G02*
X199039I3750J0D01*
G01*
X273539D01*
Y126970D01*
X263075D01*
G75*
G02*
X256313Y120209I-6762J0D01*
G01*
G75*
G02*
X249551Y126970I0J6761D01*
G01*
X199709Y126970D01*
Y122943D01*
X191677D01*
Y121974D01*
X181240D01*
Y126970D01*
X166703D01*
Y124331D01*
X164549D01*
G37*
X3043Y166970D02*
G36*
X3043Y166970D02*
Y126970D01*
X15117D01*
G75*
G02*
X20476Y130883I4818J-972D01*
G01*
X20741Y131149D01*
G75*
G02*
X15020Y135998I-807J4848D01*
G01*
Y135998D01*
G75*
G02*
X19357Y140879I4916J0D01*
G01*
X19574Y141096D01*
G75*
G02*
X15019Y145998I361J4902D01*
G01*
G75*
G02*
X17897Y150471I4915J0D01*
G01*
G75*
G02*
X18013Y150594I2354J-2102D01*
G01*
X18668Y151249D01*
G75*
G02*
X15019Y155998I1267J4749D01*
G01*
G75*
G02*
X16967Y159916I4915J0D01*
G01*
Y166970D01*
X3043D01*
G37*
X73394Y152526D02*
G36*
X73394Y152526D02*
X73883Y152037D01*
G75*
G02*
X79772Y147218I973J-4819D01*
G01*
G75*
G02*
X79330Y145181I-4916J0D01*
G01*
X80383D01*
G75*
G02*
X79941Y147219I4473J2037D01*
G01*
G75*
G02*
X84856Y152134I4915J0D01*
G01*
G75*
G02*
X89772Y147219I0J-4915D01*
G01*
G75*
G02*
X85616Y142362I-4915J0D01*
G01*
X85361Y142108D01*
G75*
G02*
X89772Y137219I-505J-4889D01*
G01*
G75*
G02*
X84856Y132303I-4915J0D01*
G01*
G75*
G02*
X84066Y132367I-6J4857D01*
G01*
X83694Y131994D01*
G75*
G02*
X89772Y127219I1162J-4776D01*
G01*
Y127218D01*
G75*
G02*
X89765Y126970I-4915J1D01*
G01*
X96557D01*
Y153546D01*
G75*
G02*
X93247Y154250I-949J3669D01*
G01*
X88774D01*
G75*
G02*
X79941Y157218I-3918J2968D01*
G01*
Y157219D01*
G75*
G02*
X88774Y160187I4915J0D01*
G01*
X93247D01*
G75*
G02*
X96557Y160891I2362J-2969D01*
G01*
Y166970D01*
X77825D01*
Y161136D01*
G75*
G02*
X79772Y157219I-2969J-3918D01*
G01*
G75*
G02*
X73394Y152526I-4915J0D01*
G01*
G37*
X166703Y130465D02*
G36*
X166703Y130465D02*
Y126970D01*
X181240D01*
Y127124D01*
X171311D01*
G75*
G02*
X169174Y127993I-39J2965D01*
G01*
X166703Y130465D01*
G37*
X191677Y131604D02*
G36*
X191677Y131604D02*
Y130943D01*
X199709D01*
Y126970D01*
X249551D01*
G75*
G02*
X256313Y133732I6762J0D01*
G01*
G75*
G02*
X263075Y126970I0J-6762D01*
G01*
X273539D01*
Y166970D01*
X264043D01*
G75*
G02*
X256313Y159240I-7730J-1D01*
G01*
G75*
G02*
X248583Y166969I-1J7729D01*
G01*
G75*
G02*
Y166970I7519J1D01*
G01*
X225030D01*
Y165795D01*
X225061D01*
Y157053D01*
X232259D01*
G75*
G02*
X234750Y156037I37J-3471D01*
G01*
X240348Y150439D01*
X249404D01*
G75*
G02*
X264043Y146970I6909J-3469D01*
G01*
Y146970D01*
G75*
G02*
X249404Y143502I-7730J0D01*
G01*
X238950D01*
G75*
G02*
X236459Y144518I-40J3465D01*
G01*
X230860Y150116D01*
X225061D01*
Y146358D01*
X224693D01*
Y136541D01*
X205256D01*
Y138435D01*
X200087D01*
G75*
G02*
X199315Y138506I-76J3432D01*
G01*
Y131604D01*
X191677D01*
G37*
X3043Y195675D02*
G36*
X3043Y195675D02*
Y166970D01*
X16967D01*
Y179797D01*
G75*
G02*
X17867Y181927I2969J0D01*
G01*
X20120Y184180D01*
G75*
G02*
X22250Y185081I2131J-2070D01*
G01*
X72154D01*
G75*
G02*
X74290Y184211I36J-2971D01*
G01*
X76956Y181546D01*
G75*
G02*
X77825Y179447I-2104J-2102D01*
G01*
G75*
G03*
X77825Y179419I889J-26D01*
G01*
G75*
G03*
Y179410I890J-4D01*
G01*
Y166970D01*
X96557D01*
Y181333D01*
G75*
G02*
X95432Y184030I2669J2696D01*
G01*
G75*
G02*
X101770Y186845I3794J0D01*
G01*
Y196985D01*
G75*
G02*
X101769Y197012I852J26D01*
G01*
G75*
G02*
Y197022I852J5D01*
G01*
G75*
G02*
X102639Y199121I2969J0D01*
G01*
X105001Y201483D01*
G75*
G02*
X107137Y202352I2100J-2100D01*
G01*
X155652D01*
Y202801D01*
X168785D01*
Y197291D01*
G75*
G02*
X169174Y197770I2489J-1620D01*
G01*
X172887Y201483D01*
G75*
G02*
X175023Y202352I2100J-2100D01*
G01*
X176130D01*
Y202801D01*
X177254D01*
Y203421D01*
G75*
G02*
X176104Y206469I3465J3048D01*
G01*
G75*
G02*
Y206470I4511J1D01*
G01*
G75*
G02*
X185341I4619J0D01*
G01*
G75*
G02*
X184191Y203421I-4620J0D01*
G01*
Y202801D01*
X189266D01*
Y197352D01*
X196476D01*
G75*
G02*
X195614Y199383I1961J2031D01*
G01*
Y199384D01*
G75*
G02*
X201264I2825J0D01*
G01*
G75*
G02*
X200402Y197352I-2828J1D01*
G01*
X205876D01*
Y203077D01*
X203626D01*
Y204045D01*
X195594D01*
Y211221D01*
X129114D01*
G75*
G03*
X129114Y210975I82315J-255D01*
G01*
G75*
G03*
Y210945I85718J-15D01*
G01*
G75*
G02*
X129281Y210492I-2592J-1215D01*
G01*
G75*
G02*
X129296Y210433I-2357J-644D01*
G01*
G75*
G02*
X129369Y210041I-3131J-784D01*
G01*
G75*
G03*
X129370Y210030I68J3D01*
G01*
G75*
G02*
X129391Y209774I-4200J-464D01*
G01*
G75*
G02*
X129396Y209628I-2245J-146D01*
G01*
Y209250D01*
G75*
G02*
X129198Y208334I-2230J2D01*
G01*
G75*
G02*
X129302Y208022I-2340J-959D01*
G01*
G75*
G02*
X129326Y207926I-3096J-812D01*
G01*
G75*
G02*
X129394Y207302I-2868J-629D01*
G01*
Y207299D01*
Y207294D01*
G75*
G02*
X129377Y206902I-4878J19D01*
G01*
G75*
G02*
X129372Y206854I-14677J1431D01*
G01*
G75*
G02*
X129344Y206668I-2424J270D01*
G01*
G75*
G02*
X129394Y206118I-3130J-562D01*
G01*
Y206116D01*
Y206115D01*
Y206113D01*
G75*
G02*
X129231Y205119I-3149J7D01*
G01*
G75*
G03*
X129213Y205067I6006J-2077D01*
G01*
G75*
G02*
X128459Y203946I-2569J914D01*
G01*
G75*
G02*
X128407Y203901I-2313J2606D01*
G01*
G75*
G02*
X127250Y203310I-1830J2157D01*
G01*
G75*
G02*
X127235Y203306I-29J81D01*
G01*
G75*
G02*
X126357Y203202I-876J3642D01*
G01*
G75*
G02*
X125244Y203365I-6J3836D01*
G01*
X125244D01*
G75*
G02*
X124193Y203873I1054J3528D01*
G01*
G75*
G02*
X124149Y203904I511J756D01*
G01*
G75*
G02*
X123322Y204805I1780J2463D01*
G01*
G75*
G02*
X123294Y204852I1170J730D01*
G01*
G75*
G02*
X122965Y206080I2124J1228D01*
G01*
G75*
G02*
Y206083I2393J2D01*
G01*
G75*
G02*
Y206088I2374J3D01*
G01*
G75*
G02*
X123031Y206648I2413J0D01*
G01*
G75*
G02*
X122984Y207022I2198J463D01*
G01*
G75*
G02*
X122427Y206951I-555J2123D01*
G01*
X122388D01*
G75*
G02*
X122394Y206414I-26096J-556D01*
G01*
Y206411D01*
Y206410D01*
G75*
G02*
X122389Y205818I-44437J89D01*
G01*
Y205807D01*
G75*
G02*
X122294Y205099I-3096J52D01*
G01*
G75*
G03*
X122291Y205086I156J-50D01*
G01*
G75*
G02*
X121189Y203636I-2289J595D01*
G01*
G75*
G02*
X121174Y203627I-298J487D01*
G01*
G75*
G02*
X119969Y203304I-1221J2144D01*
G01*
G75*
G02*
X119933I-18J417D01*
G01*
G75*
G02*
X119090Y203429I21J3035D01*
G01*
G75*
G02*
X118652Y203346I-658J2274D01*
G01*
G75*
G02*
X118646Y203346I-4J18D01*
G01*
G75*
G02*
X117676Y203433I-249J2678D01*
G01*
G75*
G02*
X117176Y203348I-643J2292D01*
G01*
G75*
G02*
X117146Y203347I-30J284D01*
G01*
G75*
G02*
X116224Y203443I-150J3044D01*
G01*
G75*
G02*
X116175Y203456I153J667D01*
G01*
G75*
G02*
X115017Y204180I666J2354D01*
G01*
G75*
G02*
X114976Y204227I1287J1155D01*
G01*
G75*
G02*
X114432Y205348I1882J1606D01*
G01*
G75*
G02*
X114426Y205381I317J78D01*
G01*
G75*
G02*
X114363Y205978I3445J663D01*
G01*
G75*
G02*
X114363Y205987I83J8D01*
G01*
G75*
G02*
Y205990I83J2D01*
G01*
G75*
G02*
X114357Y206567I35152J624D01*
G01*
G75*
G02*
X114356Y206613I1174J43D01*
G01*
G75*
G02*
Y206628I1176J8D01*
G01*
Y207339D01*
G75*
G02*
X113843Y207632I1913J3945D01*
G01*
G75*
G02*
X113816Y207650I123J217D01*
G01*
G75*
G02*
X113641Y207774I2086J3109D01*
G01*
G75*
G02*
X113574Y207691I-1697J1285D01*
G01*
G75*
G02*
X113676Y207123I-2997J-827D01*
G01*
G75*
G03*
X113678Y207087I763J41D01*
G01*
G75*
G02*
X113694Y206644I-6933J-468D01*
G01*
Y206642D01*
G75*
G02*
X113674Y206152I-6344J10D01*
G01*
G75*
G02*
X113501Y205368I-2897J229D01*
G01*
G75*
G02*
X113490Y205339I-819J293D01*
G01*
G75*
G02*
X113091Y204628I-2629J1009D01*
G01*
G75*
G02*
X113046Y204570I-4287J3324D01*
G01*
G75*
G02*
X112705Y204193I-3921J3194D01*
G01*
G75*
G02*
X112703Y204191I-5J2D01*
G01*
G75*
G02*
X112339Y203863I-3371J3375D01*
G01*
G75*
G02*
X112304Y203835I-885J1082D01*
G01*
G75*
G02*
X111685Y203460I-1803J2281D01*
G01*
G75*
G02*
X111619Y203432I-490J1055D01*
G01*
G75*
G02*
X110935Y203243I-1092J2610D01*
G01*
G75*
G02*
X110900Y203237I-154J930D01*
G01*
G75*
G02*
X110369Y203202I-517J3790D01*
G01*
X110367D01*
G75*
G02*
X109492Y203313I1J3512D01*
G01*
G75*
G02*
X109444Y203326I289J1229D01*
G01*
G75*
G02*
X108672Y203620I1065J3946D01*
G01*
G75*
G02*
X108669Y203622I1J7D01*
G01*
G75*
G02*
X107974Y204068I1752J3496D01*
G01*
G75*
G02*
X107245Y204926I1821J2283D01*
G01*
G75*
G02*
X107218Y204976I956J556D01*
G01*
G75*
G02*
X106840Y206437I2807J1506D01*
G01*
G75*
G02*
X106840Y206451I213J13D01*
G01*
G75*
G02*
Y206456I213J2D01*
G01*
G75*
G02*
X106839Y206473I364J17D01*
G01*
G75*
G02*
X106840Y206490I364J0D01*
G01*
G75*
G02*
Y206494I3562J2D01*
G01*
G75*
G02*
X106911Y207196I3467J0D01*
G01*
G75*
G02*
X106591Y207083I-1639J4152D01*
G01*
X106591D01*
G75*
G02*
X106335Y207010I-1813J5869D01*
G01*
G75*
G02*
X106205Y206577I-2347J472D01*
G01*
G75*
G02*
X106368Y205682I-2396J-899D01*
G01*
G75*
G02*
X106348Y205363I-2575J2D01*
G01*
G75*
G03*
X106345Y205342I345J-55D01*
G01*
G75*
G02*
X104885Y203466I-2344J319D01*
G01*
G75*
G02*
X104825Y203443I-369J861D01*
G01*
G75*
G02*
X103740Y203275I-951J2551D01*
G01*
G75*
G02*
X103676Y203278I15J860D01*
G01*
G75*
G02*
X102678Y203514I227J3195D01*
G01*
G75*
G02*
X102631Y203533I341J887D01*
G01*
G75*
G02*
X101435Y204561I1044J2426D01*
G01*
G75*
G02*
X101406Y204609I891J581D01*
G01*
G75*
G02*
X101000Y205815I2563J1533D01*
G01*
G75*
G02*
X100998Y205839I172J29D01*
G01*
G75*
G02*
X100967Y206211I6692J733D01*
G01*
G75*
G02*
X100565Y207324I1840J1295D01*
G01*
G75*
G02*
X100143Y207140I-1786J3509D01*
G01*
G75*
G02*
X100348Y206163I-2233J-978D01*
G01*
G75*
G02*
X99916Y204777I-2439J0D01*
G01*
X99913Y204774D01*
G75*
G02*
X99128Y203963I-2873J1997D01*
G01*
G75*
G02*
X99105Y203946I-211J264D01*
G01*
G75*
G02*
X98175Y203435I-2401J3272D01*
G01*
G75*
G02*
X98122Y203416I-490J1242D01*
G01*
G75*
G02*
X96933Y203202I-1187J3197D01*
G01*
G75*
G02*
X95853Y203363I-5J3667D01*
G01*
G75*
G02*
X95808Y203378I146J541D01*
G01*
G75*
G02*
X94880Y203821I1123J3545D01*
G01*
G75*
G02*
X94878Y203822I0J2D01*
G01*
G75*
G02*
X94044Y204620I1776J2689D01*
G01*
G75*
G02*
X94017Y204659I802J599D01*
G01*
G75*
G02*
X93574Y206069I2021J1410D01*
G01*
G75*
G02*
Y206072I2374J2D01*
G01*
G75*
G02*
Y206076I2446J2D01*
G01*
G75*
G02*
X93636Y206624I2445J0D01*
G01*
G75*
G02*
X93582Y207119I2263J495D01*
G01*
G75*
G02*
Y207120I2051J1D01*
G01*
G75*
G02*
Y207144I1407J12D01*
G01*
G75*
G02*
X93584Y207214I1391J4D01*
G01*
G75*
G02*
X93489Y207176I-942J2211D01*
G01*
G75*
G02*
X93158Y207058I-2143J5491D01*
G01*
G75*
G02*
X93106Y206868I-2461J577D01*
G01*
G75*
G02*
X93075Y206778I-3401J1128D01*
G01*
G75*
G02*
X92878Y206276I-12981J4797D01*
G01*
G75*
G02*
X92869Y206255I-415J157D01*
G01*
G75*
G02*
X92543Y205521I-17209J7209D01*
G01*
G75*
G03*
X92530Y205494I19167J-9319D01*
G01*
G75*
G02*
X92048Y204490I-94113J44539D01*
G01*
G75*
G03*
X92036Y204465I969J-478D01*
G01*
G75*
G02*
X91626Y203783I-4032J1961D01*
G01*
G75*
G02*
X91613Y203765I-601J437D01*
G01*
G75*
G02*
X91100Y203185I-3525J2600D01*
G01*
G75*
G02*
X91091Y203176I-109J104D01*
G01*
G75*
G02*
X90474Y202704I-2670J2844D01*
G01*
G75*
G02*
X90453Y202691I-643J1010D01*
G01*
G75*
G02*
X89065Y202302I-1385J2276D01*
G01*
G75*
G02*
X89057I-4J20D01*
G01*
G75*
G02*
X87167Y203236I9J2399D01*
G01*
G75*
G02*
X87126Y203291I649J530D01*
G01*
G75*
G02*
X86661Y204717I1957J1426D01*
G01*
G75*
G02*
Y204719I2256J1D01*
G01*
G75*
G02*
Y204728I2298J4D01*
G01*
G75*
G02*
X86699Y205146I2339J0D01*
G01*
G75*
G02*
X86706Y205186I1284J-221D01*
G01*
G75*
G02*
X86905Y205813I2811J-545D01*
G01*
G75*
G02*
X86756Y206163I10467J4674D01*
G01*
G75*
G02*
X86748Y206180I85J45D01*
G01*
G75*
G02*
X86535Y206720I16916J6982D01*
G01*
G75*
G02*
X86524Y206750I478J197D01*
G01*
G75*
G02*
X86469Y206920I2419J883D01*
G01*
G75*
G02*
X85880Y206915I-420J15725D01*
G01*
G75*
G02*
X85878Y206903I-746J90D01*
G01*
G75*
G02*
X85993Y206167I-2387J-750D01*
G01*
Y206159D01*
Y206154D01*
G75*
G02*
X85407Y204512I-2599J3D01*
G01*
G75*
G02*
X85383Y204483I-1407J1136D01*
G01*
G75*
G02*
X84697Y203857I-2727J2298D01*
G01*
G75*
G02*
X84656Y203828I-565J773D01*
G01*
G75*
G02*
X83787Y203391I-2137J3161D01*
G01*
G75*
G02*
X83781Y203389I-15J30D01*
G01*
G75*
G02*
X82686Y203202I-1095J3125D01*
G01*
G75*
G02*
X81583Y203357I-3J3993D01*
G01*
G75*
G02*
X81560Y203363I71J291D01*
G01*
G75*
G02*
X80709Y203734I1040J3548D01*
G01*
G75*
G02*
X79624Y203451I-1085J1936D01*
G01*
X72026D01*
G75*
G02*
X71541Y203504I-1J2208D01*
G01*
G75*
G02*
X70781Y203404I-665J2095D01*
G01*
X68193D01*
G75*
G02*
X68152Y203403I-31J1106D01*
G01*
G75*
G02*
X66062Y203414I-101J185639D01*
G01*
G75*
G02*
X66057I-2J7D01*
G01*
G75*
G02*
X64889Y203465I165J17002D01*
G01*
G75*
G02*
X64046Y203589I470J6133D01*
G01*
G75*
G02*
X63957Y203610I239J1197D01*
G01*
G75*
G02*
X62213Y205862I581J2252D01*
G01*
G75*
G02*
X62293Y206468I2326J0D01*
G01*
G75*
G02*
X62299Y206527I2520J-220D01*
G01*
G75*
G02*
X62302Y206548I149J-6D01*
G01*
G75*
G03*
X62320Y206779I-8360J771D01*
G01*
G75*
G02*
X62321Y206799I273J-6D01*
G01*
G75*
G03*
X62337Y207111I-15093J919D01*
G01*
G75*
G02*
Y207115I150J2D01*
G01*
G75*
G02*
X62337Y207126I140J0D01*
G01*
G75*
G03*
X62339Y207189I-69840J2635D01*
G01*
G75*
G02*
X62170Y208039I2044J850D01*
G01*
G75*
G02*
Y208043I2123J2D01*
G01*
G75*
G02*
Y208044I2256J1D01*
G01*
G75*
G02*
X62208Y208453I2206J0D01*
G01*
G75*
G02*
X62209Y208461I21J0D01*
G01*
G75*
G02*
X62211Y208471I112J-16D01*
G01*
G75*
G02*
X62519Y209245I2209J-429D01*
G01*
G75*
G02*
X62507Y209467I2146J222D01*
G01*
G75*
G02*
Y209471I2177J2D01*
G01*
G75*
G02*
X62507Y209472I1J1D01*
G01*
X62507Y209473D01*
X62484Y211221D01*
X39801D01*
Y195675D01*
X3043D01*
G37*
X211813Y203077D02*
G36*
X211813Y203077D02*
Y196901D01*
X213608Y195106D01*
X217587D01*
Y194675D01*
X219465D01*
G75*
G02*
X221601Y193806I36J-2971D01*
G01*
X224160Y191247D01*
G75*
G02*
X225030Y189148I-2104J-2102D01*
G01*
G75*
G03*
X225030Y189120I889J-26D01*
G01*
G75*
G03*
Y189111I890J-4D01*
G01*
Y166970D01*
X248583D01*
G75*
G02*
Y166971I11279J0D01*
G01*
G75*
G02*
X256313Y174701I7730J0D01*
G01*
G75*
G02*
X264043Y166970I0J-7730D01*
G01*
X273539D01*
Y199443D01*
X237093D01*
Y211221D01*
X214063D01*
Y203077D01*
X211813D01*
G37*
X39801Y234461D02*
G36*
X39801Y234461D02*
Y211221D01*
X62484D01*
X62454Y213441D01*
Y213441D01*
G75*
G03*
X62432Y214974I-975493J-13270D01*
G01*
G75*
G02*
X62432Y214976I9J3D01*
G01*
G75*
G02*
X62432Y214979I10J0D01*
G01*
G75*
G03*
X62411Y216259I-385861J-5890D01*
G01*
G75*
G02*
X62410Y216265I50J6D01*
G01*
G75*
G02*
Y216268I50J1D01*
G01*
X62409Y216350D01*
G75*
G02*
X62166Y217243I2006J1025D01*
G01*
G75*
G02*
X62165Y217269I398J31D01*
G01*
G75*
G02*
X62162Y217326I1918J121D01*
G01*
G75*
G02*
X62156Y217482I1928J156D01*
G01*
Y217482D01*
Y217706D01*
G75*
G02*
X62155Y217712I44J6D01*
G01*
G75*
G02*
X62156Y217718I44J0D01*
G01*
G75*
G02*
X64353Y219936I2219J0D01*
G01*
X67278Y219967D01*
X67282D01*
G75*
G02*
X68417Y219978I14298J-1413264D01*
G01*
X68422D01*
G75*
G03*
X69436Y219987I-8438J1001864D01*
G01*
X69440D01*
X70236Y219993D01*
G75*
G03*
X70294Y219994I-15J2173D01*
G01*
G75*
G02*
X70552I129J-21200D01*
G01*
G75*
G02*
X70660Y219990I-84J-3798D01*
G01*
X70852D01*
G75*
G02*
X71443Y219903I-31J-2251D01*
G01*
G75*
G02*
X71901Y219992I672J-2240D01*
G01*
G75*
G02*
X72081Y220001I223J-2526D01*
G01*
G75*
G02*
X73165Y220014I27277J-2300848D01*
G01*
X73170D01*
G75*
G02*
X74423Y220020I1384J-141849D01*
G01*
X74424D01*
G75*
G02*
X75883Y220015I-219J-270691D01*
G01*
X79641Y219989D01*
G75*
G02*
X80704Y219709I-17J-2225D01*
G01*
G75*
G02*
X81279Y219917I1149J-2282D01*
G01*
G75*
G02*
X81359Y219934I4374J-20185D01*
G01*
G75*
G02*
X81809Y219998I871J-4519D01*
G01*
G75*
G03*
X81830Y220000I-22J356D01*
G01*
G75*
G02*
X82346Y220023I540J-6254D01*
G01*
X82352D01*
G75*
G02*
X82883Y220017I14J-19997D01*
G01*
G75*
G03*
X82892Y220016I7J50D01*
G01*
X83789Y219991D01*
G75*
G02*
X84412Y219911I28J-2254D01*
G01*
G75*
G02*
X85320Y220043I766J-2090D01*
G01*
X86337Y220017D01*
G75*
G03*
X86345Y220016I7J48D01*
G01*
X87421Y219989D01*
G75*
G02*
X88467Y219707I-39J-2224D01*
G01*
G75*
G02*
X88729Y219802I973J-2267D01*
G01*
G75*
G02*
X88985Y219898I996J-2271D01*
G01*
G75*
G02*
X89117Y219935I761J-2472D01*
G01*
G75*
G02*
X89328Y219977I663J-2743D01*
G01*
G75*
G02*
X89445Y220019I1196J-3167D01*
G01*
G75*
G02*
X90135Y220138I719J-2110D01*
G01*
G75*
G02*
X91131I498J-63060D01*
G01*
X91134D01*
G75*
G02*
X92124Y220125I-248J-56680D01*
G01*
G75*
G02*
X92272Y220117I-83J-2813D01*
G01*
G75*
G02*
X92682Y220046I-215J-2470D01*
G01*
G75*
G02*
X93652Y219811I-115J-2590D01*
G01*
G75*
G03*
X93720Y219778I3750J7724D01*
G01*
G75*
G02*
X93870Y219699I-2622J-5204D01*
G01*
G75*
G02*
X94847Y219988I1145J-2078D01*
G01*
G75*
G02*
X95186Y220008I1027J-14472D01*
G01*
X95188D01*
G75*
G02*
X95626Y220019I524J-12111D01*
G01*
X95634D01*
G75*
G02*
X96082Y220014I15J-18285D01*
G01*
G75*
G03*
X96091Y220013I6J43D01*
G01*
X97081Y219989D01*
G75*
G02*
X97795Y219852I-61J-2244D01*
G01*
G75*
G02*
X98631Y220019I904J-2343D01*
G01*
G75*
G03*
X98650Y220019I4J237D01*
G01*
G75*
G02*
X99411Y220035I1844J-72581D01*
G01*
G75*
G02*
X99496Y220037I188J-4493D01*
G01*
G75*
G02*
X100351I427J-46352D01*
G01*
X100352D01*
G75*
G02*
X101357Y219852I-30J-2978D01*
G01*
G75*
G03*
X101386Y219841I175J430D01*
G01*
G75*
G02*
X101660Y219717I-926J-2397D01*
G01*
G75*
G02*
X102022Y219865I2026J-4421D01*
G01*
G75*
G03*
X102024Y219866I0J2D01*
G01*
G75*
G02*
X102961Y220028I924J-2550D01*
G01*
G75*
G02*
X103323Y220083I559J-2477D01*
G01*
G75*
G03*
X103339Y220084I-5J163D01*
G01*
G75*
G02*
X103697Y220103I804J-11606D01*
G01*
G75*
G02*
X103720Y220104I333J-9184D01*
G01*
G75*
G02*
X104117Y220109I318J-10010D01*
G01*
X104161D01*
G75*
G02*
X104616Y220094I-183J-13191D01*
G01*
G75*
G03*
X104636Y220094I143J3460D01*
G01*
G75*
G03*
X105030Y220075I2311J44004D01*
G01*
G75*
G03*
X105044Y220074I71J1148D01*
G01*
G75*
G03*
X105397Y220059I3364J73385D01*
G01*
G75*
G03*
X105405Y220058I6J33D01*
G01*
G75*
G03*
X105708Y220046I1248J28145D01*
G01*
G75*
G03*
X105741Y220045I700J14183D01*
G01*
G75*
G03*
X105797Y220045I14J2028D01*
G01*
G75*
G02*
X105904Y220042I-28J-2441D01*
G01*
G75*
G02*
X106505Y219960I-146J-3327D01*
G01*
G75*
G03*
X106523Y219956I218J940D01*
G01*
G75*
G02*
X107047Y219797I-1062J-4446D01*
G01*
G75*
G03*
X107076Y219786I232J577D01*
G01*
G75*
G02*
X107872Y219935I799J-2072D01*
G01*
X109912Y219964D01*
X109919D01*
G75*
G03*
X110756Y219977I-2139J164884D01*
G01*
X110764D01*
G75*
G03*
X111565Y219991I-3807J237970D01*
G01*
X111576D01*
G75*
G03*
X112242Y220004I-1701J104226D01*
G01*
G75*
G03*
X112255Y220004I3J111D01*
G01*
G75*
G03*
X112476Y220010I-281J15703D01*
G01*
G75*
G02*
X112603Y220018I219J-2511D01*
G01*
G75*
G02*
X112956I177J-9903D01*
G01*
X112957D01*
G75*
G02*
X113282Y220005I-99J-6743D01*
G01*
G75*
G03*
X113317Y220003I59J739D01*
G01*
G75*
G02*
X113570Y219980I-489J-6829D01*
G01*
G75*
G03*
X113618Y219975I168J1359D01*
G01*
G75*
G02*
X114446Y219717I-285J-2369D01*
G01*
G75*
G02*
X114526Y219741I865J-2721D01*
G01*
G75*
G02*
X114615Y219776I1715J-4112D01*
G01*
G75*
G02*
X114661Y219794I804J-2085D01*
G01*
G75*
G02*
X115081Y219914I1043J-2842D01*
G01*
G75*
G03*
X115083Y219915I0J5D01*
G01*
G75*
G02*
X115264Y219946I773J-3851D01*
G01*
G75*
G02*
X116107Y220126I921J-2252D01*
G01*
G75*
G02*
X116141Y220127I366J-14688D01*
G01*
G75*
G02*
X117059Y220138I1341J-76186D01*
G01*
G75*
G02*
X117151Y220136I0J-2697D01*
G01*
G75*
G02*
X117933I391J-97226D01*
G01*
X117977D01*
G75*
G02*
X118843Y219970I-20J-2435D01*
G01*
G75*
G02*
X119521Y219808I-399J-3180D01*
G01*
G75*
G03*
X119562Y219793I1249J3386D01*
G01*
G75*
G02*
X119749Y219717I-1852J-4825D01*
G01*
G75*
G02*
X120689Y219958I1017J-2018D01*
G01*
G75*
G02*
X121141Y219973I4356J-121357D01*
G01*
G75*
G03*
X121148Y219974I2J36D01*
G01*
G75*
G02*
X121633Y219985I1082J-36950D01*
G01*
G75*
G02*
X121694Y219986I1234J-46919D01*
G01*
G75*
G02*
X122203Y219987I297J-54781D01*
G01*
G75*
G02*
X122325Y219990I151J-3095D01*
G01*
X123892D01*
G75*
G02*
X124763Y219812I-4J-2239D01*
G01*
G75*
G02*
X125542Y219939I743J-2109D01*
G01*
X125682D01*
G75*
G02*
X125807Y219943I141J-2485D01*
G01*
G75*
G03*
X125843I18J407D01*
G01*
G75*
G02*
X125924Y219946I2139J-54031D01*
G01*
G75*
G03*
X126022Y219953I-181J3185D01*
G01*
G75*
G03*
X126188Y219967I-737J9577D01*
G01*
G75*
G02*
X126219Y219970I334J-3181D01*
G01*
G75*
G03*
X126396Y219990I-701J7260D01*
G01*
G75*
G03*
X126451Y219996I-236J2427D01*
G01*
X126887Y220048D01*
G75*
G02*
X129417Y217851I311J-2197D01*
G01*
G75*
G02*
X129411Y217694I-2600J12D01*
G01*
X129355Y216904D01*
G75*
G03*
X129188Y214169I135686J-9674D01*
G01*
G75*
G03*
X129187Y214162I57J-7D01*
G01*
G75*
G03*
Y214159I57J-1D01*
G01*
G75*
G03*
X129120Y212029I53353J-2743D01*
G01*
Y212025D01*
G75*
G03*
X129114Y211221I82250J-1046D01*
G01*
X195594D01*
Y212045D01*
X203626D01*
Y213014D01*
X214063D01*
Y211221D01*
X237093D01*
Y234461D01*
X39801D01*
G37*
X22904Y178568D02*
Y159916D01*
G75*
G02*
X24147Y153465I-2969J-3918D01*
G01*
X25723D01*
G75*
G02*
X26967Y159916I4212J2533D01*
G01*
Y168433D01*
G75*
G02*
X26966Y168470I2965J50D01*
G01*
G75*
G02*
X27836Y170570I2969J0D01*
G01*
X30796Y173530D01*
G75*
G02*
X32933Y174400I2099J-2099D01*
G01*
X56499D01*
G75*
G02*
X62654Y171431I2361J-2969D01*
G01*
G75*
G02*
X56499Y168463I-3793J0D01*
G01*
X34126D01*
X32904Y167241D01*
Y159916D01*
G75*
G02*
X34147Y153465I-2969J-3918D01*
G01*
X71293D01*
G75*
G02*
X71716Y153437I35J-2719D01*
G01*
G75*
G02*
X71888Y161136I3140J3781D01*
G01*
Y178217D01*
X70961Y179144D01*
X23479D01*
X22904Y178568D01*
G36*
X22904Y178568D02*
Y159916D01*
G75*
G02*
X24147Y153465I-2969J-3918D01*
G01*
X25723D01*
G75*
G02*
X26967Y159916I4212J2533D01*
G01*
Y168433D01*
G75*
G02*
X26966Y168470I2965J50D01*
G01*
G75*
G02*
X27836Y170570I2969J0D01*
G01*
X30796Y173530D01*
G75*
G02*
X32933Y174400I2099J-2099D01*
G01*
X56499D01*
G75*
G02*
X62654Y171431I2361J-2969D01*
G01*
G75*
G02*
X56499Y168463I-3793J0D01*
G01*
X34126D01*
X32904Y167241D01*
Y159916D01*
G75*
G02*
X34147Y153465I-2969J-3918D01*
G01*
X71293D01*
G75*
G02*
X71716Y153437I35J-2719D01*
G01*
G75*
G02*
X71888Y161136I3140J3781D01*
G01*
Y178217D01*
X70961Y179144D01*
X23479D01*
X22904Y178568D01*
G37*
X55685Y148028D02*
G75*
G02*
X55828Y147891I-1810J-2031D01*
G01*
X58537Y145181D01*
X70383D01*
G75*
G02*
X70008Y148028I4473J2037D01*
G01*
X55685D01*
G36*
X55685Y148028D02*
G75*
G02*
X55828Y147891I-1810J-2031D01*
G01*
X58537Y145181D01*
X70383D01*
G75*
G02*
X70008Y148028I4473J2037D01*
G01*
X55685D01*
G37*
X107707Y195792D02*
Y184896D01*
X109262Y186452D01*
G75*
G02*
X111392Y187352I2130J-2068D01*
G01*
X149172D01*
G75*
G02*
X154737Y192352I3204J2031D01*
G01*
X155652D01*
Y196415D01*
X108330D01*
X107707Y195792D01*
G36*
X107707Y195792D02*
Y184896D01*
X109262Y186452D01*
G75*
G02*
X111392Y187352I2130J-2068D01*
G01*
X149172D01*
G75*
G02*
X154737Y192352I3204J2031D01*
G01*
X155652D01*
Y196415D01*
X108330D01*
X107707Y195792D01*
G37*
X112431Y181226D02*
Y150220D01*
X113055Y149596D01*
X113187D01*
G75*
G02*
X118911Y154321I3363J1756D01*
G01*
X120486D01*
G75*
G02*
X122616Y153420I0J-2969D01*
G01*
X123089Y152948D01*
Y153177D01*
X127619D01*
G75*
G02*
X127442Y153340I1923J2263D01*
G01*
X127332Y153450D01*
G75*
G02*
X123969Y157219I430J3769D01*
G01*
G75*
G02*
X130472Y159872I3793J0D01*
G01*
Y160561D01*
X134053D01*
Y167445D01*
X133836Y167662D01*
G75*
G02*
X130472Y171431I430J3769D01*
G01*
G75*
G02*
X138035Y171861I3793J0D01*
G01*
X139121Y170774D01*
G75*
G02*
X139991Y168675I-2099J-2099D01*
G01*
G75*
G02*
X139990Y168638I-2970J13D01*
G01*
Y160561D01*
X149801D01*
Y170989D01*
X146828Y173961D01*
G75*
G02*
X146358Y181415I430J3769D01*
G01*
X112621D01*
X112431Y181226D01*
G36*
X112431Y181226D02*
Y150220D01*
X113055Y149596D01*
X113187D01*
G75*
G02*
X118911Y154321I3363J1756D01*
G01*
X120486D01*
G75*
G02*
X122616Y153420I0J-2969D01*
G01*
X123089Y152948D01*
Y153177D01*
X127619D01*
G75*
G02*
X127442Y153340I1923J2263D01*
G01*
X127332Y153450D01*
G75*
G02*
X123969Y157219I430J3769D01*
G01*
G75*
G02*
X130472Y159872I3793J0D01*
G01*
Y160561D01*
X134053D01*
Y167445D01*
X133836Y167662D01*
G75*
G02*
X130472Y171431I430J3769D01*
G01*
G75*
G02*
X138035Y171861I3793J0D01*
G01*
X139121Y170774D01*
G75*
G02*
X139991Y168675I-2099J-2099D01*
G01*
G75*
G02*
X139990Y168638I-2970J13D01*
G01*
Y160561D01*
X149801D01*
Y170989D01*
X146828Y173961D01*
G75*
G02*
X146358Y181415I430J3769D01*
G01*
X112621D01*
X112431Y181226D01*
G37*
X119403Y73770D02*
X123516D01*
X123581Y73834D01*
Y109414D01*
G75*
G02*
X123580Y109451I2965J50D01*
G01*
G75*
G02*
X124450Y111550I2969J0D01*
G01*
X130472Y117572D01*
Y124331D01*
X123089D01*
Y131061D01*
X120929D01*
X120305Y130437D01*
Y76407D01*
G75*
G02*
X119531Y74409I-2969J0D01*
G01*
G75*
G02*
X119403Y73770I-3770J425D01*
G01*
G36*
X119403Y73770D02*
X123516D01*
X123581Y73834D01*
Y109414D01*
G75*
G02*
X123580Y109451I2965J50D01*
G01*
G75*
G02*
X124450Y111550I2969J0D01*
G01*
X130472Y117572D01*
Y124331D01*
X123089D01*
Y131061D01*
X120929D01*
X120305Y130437D01*
Y76407D01*
G75*
G02*
X119531Y74409I-2969J0D01*
G01*
G75*
G02*
X119403Y73770I-3770J425D01*
G01*
G37*
X122230Y65116D02*
Y60287D01*
X136522D01*
Y72685D01*
X133719Y75489D01*
Y70338D01*
G75*
G02*
X133719Y70301I-2970J-50D01*
G01*
G75*
G02*
X132849Y68202I-2969J0D01*
G01*
X130633Y65985D01*
G75*
G02*
X128496Y65116I-2099J2099D01*
G01*
X122230D01*
G36*
X122230Y65116D02*
Y60287D01*
X136522D01*
Y72685D01*
X133719Y75489D01*
Y70338D01*
G75*
G02*
X133719Y70301I-2970J-50D01*
G01*
G75*
G02*
X132849Y68202I-2969J0D01*
G01*
X130633Y65985D01*
G75*
G02*
X128496Y65116I-2099J2099D01*
G01*
X122230D01*
G37*
X133333Y150317D02*
Y130996D01*
X133659Y131322D01*
Y140329D01*
G75*
G02*
X134433Y142328I2969J0D01*
G01*
G75*
G02*
X141996Y141904I3770J-424D01*
G01*
G75*
G02*
X139596Y138376I-3793J0D01*
G01*
Y130130D01*
G75*
G02*
X139597Y130093I-2970J-50D01*
G01*
G75*
G02*
X138727Y127993I-2969J0D01*
G01*
X137925Y127191D01*
X156459D01*
Y150317D01*
X133333D01*
G36*
X133333Y150317D02*
Y130996D01*
X133659Y131322D01*
Y140329D01*
G75*
G02*
X134433Y142328I2969J0D01*
G01*
G75*
G02*
X141996Y141904I3770J-424D01*
G01*
G75*
G02*
X139596Y138376I-3793J0D01*
G01*
Y130130D01*
G75*
G02*
X139597Y130093I-2970J-50D01*
G01*
G75*
G02*
X138727Y127993I-2969J0D01*
G01*
X137925Y127191D01*
X156459D01*
Y150317D01*
X133333D01*
G37*
X158816Y180967D02*
G75*
G02*
X158888Y176156I-2896J-2449D01*
G01*
Y160561D01*
X159319D01*
Y153177D01*
X166703D01*
Y146447D01*
X170044D01*
X171455Y147857D01*
Y159621D01*
G75*
G02*
X170630Y161982I2968J2361D01*
G01*
G75*
G02*
X178217I3793J0D01*
G01*
G75*
G02*
X177392Y159621I-3793J0D01*
G01*
Y146628D01*
G75*
G02*
X176491Y144498I-2969J0D01*
G01*
X176085Y144092D01*
G75*
G02*
X178967Y138573I-481J-3763D01*
G01*
X180846D01*
Y140573D01*
X183096D01*
Y142519D01*
G75*
G02*
X181222Y146234I2744J3715D01*
G01*
G75*
G02*
X190459I4619J0D01*
G01*
G75*
G02*
X189033Y142897I-4619J0D01*
G01*
Y140573D01*
X191283D01*
Y139604D01*
X197407D01*
X196773Y140238D01*
G75*
G02*
X195757Y142691I2453J2453D01*
G01*
G75*
G02*
X195758Y142764I3468J-1D01*
G01*
Y148527D01*
G75*
G02*
X194608Y151577I3469J3050D01*
G01*
G75*
G02*
X203845I4619J0D01*
G01*
G75*
G02*
X202695Y148527I-4619J0D01*
G01*
Y145372D01*
X205256D01*
Y146478D01*
X205281D01*
Y164645D01*
G75*
G02*
X205062Y164407I-2287J1893D01*
G01*
X203783Y163128D01*
G75*
G02*
X196220Y163557I-3769J429D01*
G01*
G75*
G02*
X199585Y167326I3793J0D01*
G01*
X200026Y167767D01*
Y168825D01*
X197776D01*
Y178762D01*
X209841D01*
Y180827D01*
X208031D01*
Y181258D01*
X197492D01*
G75*
G02*
X195356Y182127I-37J2969D01*
G01*
X190910Y186573D01*
X189266D01*
Y185967D01*
X188297D01*
Y181935D01*
X177098D01*
Y185967D01*
X176130D01*
Y196329D01*
X174242Y194441D01*
Y178762D01*
X174748D01*
Y177793D01*
X182780D01*
Y169793D01*
X174748D01*
Y168825D01*
X164311D01*
Y178762D01*
X168305D01*
Y180967D01*
X158816D01*
X191677Y173400D02*
G75*
G02*
X197327I2825J0D01*
G01*
G75*
G02*
X191677I-2825J0D01*
G01*
X159066D02*
G36*
X159066Y173400D02*
Y160561D01*
X159319D01*
Y153177D01*
X166703D01*
Y146447D01*
X170044D01*
X171455Y147857D01*
Y159621D01*
G75*
G02*
X170630Y161980I2962J2359D01*
G01*
G75*
G02*
Y161982I3759J1D01*
G01*
G75*
G02*
X178217I3793J0D01*
G01*
G75*
G02*
X177392Y159621I-3793J0D01*
G01*
Y146628D01*
G75*
G02*
X176491Y144498I-2970J1D01*
G01*
X176085Y144092D01*
G75*
G02*
X179398Y140328I-481J-3763D01*
G01*
G75*
G02*
X179086Y138823I-3794J1D01*
G01*
X180846D01*
Y140573D01*
X183096D01*
Y142519D01*
G75*
G02*
X181222Y146233I2742J3714D01*
G01*
G75*
G02*
Y146234I4230J1D01*
G01*
G75*
G02*
X190459I4619J0D01*
G01*
G75*
G02*
X189033Y142897I-4621J1D01*
G01*
Y140573D01*
X191283D01*
Y139604D01*
X197407D01*
X196773Y140238D01*
G75*
G02*
X195757Y142689I2448J2451D01*
G01*
G75*
G02*
Y142691I3418J1D01*
G01*
G75*
G02*
Y142709I1724J9D01*
G01*
G75*
G02*
X195758Y142764I1697J3D01*
G01*
Y148527D01*
G75*
G02*
X194608Y151575I3465J3048D01*
G01*
G75*
G02*
Y151577I4511J1D01*
G01*
G75*
G02*
X203845I4619J0D01*
G01*
G75*
G02*
X202695Y148527I-4620J0D01*
G01*
Y145372D01*
X205256D01*
Y146478D01*
X205281D01*
Y164645D01*
G75*
G02*
X205062Y164407I-2270J1877D01*
G01*
X203783Y163128D01*
G75*
G02*
X196220Y163557I-3769J428D01*
G01*
Y163557D01*
G75*
G02*
X199585Y167326I3793J0D01*
G01*
X200026Y167767D01*
Y168825D01*
X197776D01*
Y173400D01*
X197327D01*
G75*
G02*
X191677I-2825J0D01*
G01*
X182780D01*
Y169793D01*
X174748D01*
Y168825D01*
X164311D01*
Y173400D01*
X159066D01*
G37*
Y176400D02*
G36*
X159066Y176400D02*
Y173400D01*
X164311D01*
Y178762D01*
X168305D01*
Y180967D01*
X159066D01*
Y180635D01*
G75*
G02*
X159712Y178518I-3148J-2118D01*
G01*
G75*
G02*
X159066Y176400I-3794J0D01*
G01*
G37*
X174242Y194441D02*
G36*
X174242Y194441D02*
Y178762D01*
X174748D01*
Y177793D01*
X182780D01*
Y173400D01*
X191677D01*
G75*
G02*
X197327I2825J0D01*
G01*
X197776D01*
Y178762D01*
X209591D01*
Y180827D01*
X208031D01*
Y181258D01*
X197492D01*
G75*
G02*
X195356Y182127I-39J2965D01*
G01*
X190910Y186573D01*
X189266D01*
Y185967D01*
X188297D01*
Y181935D01*
X177098D01*
Y185967D01*
X176130D01*
Y196079D01*
X175880D01*
X174242Y194441D01*
G37*
X208350Y188307D02*
Y187626D01*
X217587D01*
Y180827D01*
X215778D01*
Y178762D01*
X217213D01*
Y168825D01*
X214989D01*
G75*
G02*
X214908Y168741I-2179J2016D01*
G01*
X214006Y167839D01*
Y165795D01*
X219093D01*
Y187918D01*
X218272Y188738D01*
X217587D01*
Y188307D01*
X208350D01*
G36*
X208350Y188307D02*
Y187626D01*
X217587D01*
Y180827D01*
X215778D01*
Y178762D01*
X217213D01*
Y168825D01*
X214989D01*
G75*
G02*
X214908Y168741I-2179J2016D01*
G01*
X214006Y167839D01*
Y165795D01*
X219093D01*
Y187918D01*
X218272Y188738D01*
X217587D01*
Y188307D01*
X208350D01*
G37*
D02*
D18*
X17738Y95998D02*
X15738D01*
X19935Y85998D02*
Y86726D01*
X24329Y91120D01*
X46065D01*
X49967Y87219D01*
X74856D01*
X19935Y93801D02*
Y91801D01*
Y95998D02*
X20467D01*
X25053Y100585D01*
X48482D01*
X51848Y97219D01*
X74856D01*
X19935Y98195D02*
Y100195D01*
Y105998D02*
X21100D01*
X26250Y111148D01*
X48183D01*
X51915Y107415D01*
X74856D01*
Y107219D01*
X19935Y115998D02*
X20274D01*
X25266Y120990D01*
X50037D01*
X53250Y117545D01*
X52770D01*
Y117230D01*
X19935Y125998D02*
Y126498D01*
X24404Y130967D01*
X50758D01*
X54459Y127266D01*
X73490D01*
X73537Y127219D01*
X74856D01*
X19935Y135998D02*
Y137612D01*
X23742Y141419D01*
X52317D01*
X55848Y137888D01*
X74856D01*
Y137219D01*
X19935Y145998D02*
Y148671D01*
X22010Y150746D01*
X71329D01*
X74856Y147219D01*
X22132Y95998D02*
X24132D01*
X29935Y85998D02*
X44581D01*
X48006Y82573D01*
X80211D01*
X84856Y87219D01*
X29935Y95998D02*
X48069D01*
X52085Y91982D01*
X79726D01*
X84856Y97112D01*
Y97219D01*
X29935Y105998D02*
Y105451D01*
X48656D01*
X51380Y102726D01*
X79892D01*
X84384Y107219D01*
X84856D01*
X29935Y115998D02*
X48258D01*
X51813Y112443D01*
X82348D01*
X83915Y114010D01*
Y116278D01*
X84856Y117219D01*
X29935Y125998D02*
Y125526D01*
X51427D01*
X55065Y121888D01*
X79959D01*
X84856Y126785D01*
Y127219D01*
X29935Y135998D02*
X51128D01*
X54593Y132533D01*
X80388D01*
X84856Y137002D01*
Y137219D01*
X29935Y145998D02*
X53876D01*
X57411Y142463D01*
X81872D01*
X84856Y145447D01*
Y147219D01*
X136740Y31049D02*
X134740D01*
X138990Y28549D02*
Y26549D01*
X141240Y31049D02*
X143240D01*
X146762Y55069D02*
X144762D01*
X149112Y8900D02*
X147112D01*
X149262Y52569D02*
Y50569D01*
Y57569D02*
Y59569D01*
X151762Y55069D02*
X153762D01*
X152612Y6400D02*
Y4400D01*
Y11400D02*
Y13400D01*
X156112Y8900D02*
X158112D01*
X178530Y171543D02*
Y169543D01*
Y176043D02*
Y178043D01*
X178848Y184384D02*
X176848D01*
X181030Y173793D02*
X183030D01*
X182698Y183684D02*
Y181683D01*
X186548Y184384D02*
X188549D01*
X188852Y38715D02*
X186852D01*
X191352Y36215D02*
Y34215D01*
Y41215D02*
Y43215D01*
X192112Y20760D02*
Y18760D01*
Y25260D02*
Y27260D01*
X193389Y107652D02*
X191289D01*
X193742Y172640D02*
X192328Y171225D01*
X193742Y174159D02*
X192328Y175574D01*
X193852Y38715D02*
X195852D01*
X194612Y23010D02*
X196612D01*
X195065Y133354D02*
Y131354D01*
Y137854D02*
Y139854D01*
X195262Y172639D02*
X196676Y171225D01*
X195262Y174159D02*
X196676Y175574D01*
X195289Y105752D02*
Y103652D01*
Y109552D02*
Y111652D01*
X195459Y124693D02*
Y122693D01*
Y129193D02*
Y131193D01*
X197189Y107652D02*
X199289D01*
X197344Y208045D02*
X195344D01*
X197364Y199384D02*
X195364D01*
X197565Y135604D02*
X199565D01*
X197959Y126943D02*
X199959D01*
X198439Y200459D02*
Y202459D01*
X199514Y199384D02*
X201514D01*
X199844Y205795D02*
Y203795D01*
Y210295D02*
Y212295D01*
X206959Y95167D02*
X204959D01*
X208919Y89762D02*
Y87762D01*
Y100573D02*
Y102573D01*
X210880Y95167D02*
X212880D01*
X220285Y34825D02*
X218285D01*
X222935Y32175D02*
Y30175D01*
Y37474D02*
Y39474D01*
X225585Y34825D02*
X227585D01*
X250907Y56502D02*
X248907D01*
X250907Y76502D02*
X248907D01*
X251301Y126970D02*
X249301D01*
X255919Y51490D02*
Y49490D01*
Y61514D02*
Y63514D01*
Y71490D02*
Y69490D01*
Y81514D02*
Y83514D01*
X256313Y121959D02*
Y119959D01*
Y131982D02*
Y133982D01*
X260931Y56502D02*
X262931D01*
X260931Y76502D02*
X262931D01*
X261325Y126970D02*
X263325D01*
D02*
D70*
X19935Y155998D02*
Y179797D01*
X22250Y182112D01*
X72191D01*
X74856Y179447D01*
Y157219D01*
X58860Y171431D02*
X32896D01*
X29935Y168470D01*
Y155998D01*
X74856Y117219D02*
X55526D01*
X55514Y117230D01*
X52770D01*
X84856Y107219D02*
X97518D01*
X99526Y109226D01*
Y182455D01*
X99226Y182754D01*
Y184030D01*
X95608Y157219D02*
X84856D01*
X109467Y87179D02*
Y89537D01*
X109463Y89541D01*
Y138754D01*
X111037Y140329D01*
X128211D01*
X114187Y98203D02*
Y135604D01*
X115762Y137179D01*
X128211D01*
X116549Y151352D02*
X120486D01*
X122061Y149778D01*
X128211D01*
X127762Y157219D02*
X129541Y155439D01*
X133872D01*
X128211Y134030D02*
X119699D01*
X117337Y131667D01*
Y76407D01*
X115762Y74833D01*
X128211Y143478D02*
X107888D01*
X105132Y140722D01*
Y80026D01*
X103400Y78293D01*
X128754Y31049D02*
X124789D01*
X122222Y33616D01*
Y44789D01*
X124266Y46833D01*
X127990D01*
X129671Y48514D01*
Y54659D01*
X129262Y55069D01*
X133872Y122069D02*
Y116774D01*
X126549Y109451D01*
Y72604D01*
X124746Y70801D01*
X111167D01*
X109726Y69360D01*
Y46112D01*
X111289Y44549D01*
X133872Y122069D02*
Y127337D01*
X136628Y130093D01*
Y140329D01*
X138203Y141904D01*
X134266Y171431D02*
X137022Y168675D01*
Y155439D01*
Y122069D02*
Y114352D01*
X130750Y108081D01*
Y70301D01*
X128533Y68085D01*
X119907D01*
X119262Y67439D01*
Y55069D01*
X138990Y40049D02*
Y45695D01*
X140490Y47195D01*
X159593D01*
X161033Y48636D01*
Y53297D01*
X159262Y55069D01*
X139463Y105722D02*
X143246Y109506D01*
Y122069D01*
X143321D01*
X139778Y94600D02*
X146470Y101293D01*
Y122069D01*
X140171D02*
Y111758D01*
X135022Y106608D01*
Y78384D01*
X139352Y74053D01*
Y73931D01*
X139490Y73793D01*
Y55297D01*
X139262Y55069D01*
X146470Y95931D02*
Y96167D01*
X149620Y99317D01*
Y122069D01*
X152376Y189384D02*
X162219D01*
X152770Y122069D02*
Y97809D01*
Y155439D02*
Y172219D01*
X147258Y177730D01*
X155919Y122069D02*
Y106864D01*
X157494Y105289D01*
X155919Y178518D02*
Y155439D01*
X161581Y127730D02*
Y97171D01*
X159069Y94659D01*
Y92691D01*
X161581Y130880D02*
X166156D01*
X169305Y127730D01*
Y121037D01*
X170880Y119463D01*
X193321D01*
X195289Y121431D01*
Y125931D01*
X195459Y126100D01*
Y126943D01*
X161581Y134030D02*
X167337D01*
X171274Y130093D01*
X183309D01*
X186459Y126943D01*
X161581Y137179D02*
Y136785D01*
X169699D01*
X170880Y135604D01*
X186065D01*
X162219Y184384D02*
X111392D01*
X109463Y182455D01*
Y148990D01*
X111825Y146628D01*
X128211D01*
X162219Y194384D02*
Y189384D01*
Y199384D02*
X107100D01*
X104738Y197022D01*
Y152927D01*
X103163Y151352D01*
X169530Y173793D02*
X171274D01*
Y195671D01*
X174986Y199384D01*
X182698D01*
X174423Y161982D02*
Y146628D01*
X171274Y143478D01*
X161581D01*
X175604Y140329D02*
X161581D01*
X178530Y173793D02*
X194108D01*
X194502Y173400D01*
X178530Y173793D02*
Y180215D01*
X182698Y184384D01*
Y194384D02*
X210132D01*
X212809Y191707D01*
X186065Y135604D02*
Y146010D01*
X185841Y146234D01*
X195065Y135604D02*
Y172837D01*
X194502Y173400D01*
X195065Y135604D02*
Y127337D01*
X195459Y126943D01*
X198439Y199384D02*
Y206640D01*
X199844Y208045D01*
X202994Y173793D02*
Y166537D01*
X200014Y163557D01*
X204541Y187967D02*
X200407D01*
X198439Y189935D01*
X208844Y208045D02*
Y195671D01*
X212809Y191707D01*
Y184226D02*
Y170841D01*
X211037Y169069D01*
Y161364D01*
X210250Y160577D01*
X212809Y184226D02*
X197455D01*
X192140Y189541D01*
X182856D01*
X182698Y189384D01*
X212809Y191707D02*
X219502D01*
X222061Y189148D01*
Y162545D01*
X220093Y160577D01*
D02*
D71*
X52770Y117230D03*
X58860Y171431D03*
X95608Y157219D03*
X99226Y184030D03*
X103163Y151352D03*
X103400Y78293D03*
X109467Y87179D03*
X114187Y98203D03*
X115762Y74833D03*
X116549Y151352D03*
X127762Y157219D03*
X134266Y171431D03*
X138203Y141904D03*
X139463Y105722D03*
X139778Y94600D03*
X146470Y95931D03*
X147258Y177730D03*
X152376Y189384D03*
X152770Y97809D03*
X155919Y178518D03*
X157494Y105289D03*
X159069Y92691D03*
X174423Y161982D03*
X175604Y140329D03*
X194502Y173400D03*
X198439Y189935D03*
Y199384D03*
X200014Y163557D03*
D02*
D20*
X173071Y30772D02*
X172758Y30459D01*
X162612D01*
X183112Y23010D02*
X180833D01*
X173071Y30772D01*
X188006Y81234D02*
Y57061D01*
X191352Y53715D01*
Y38715D02*
X206510D01*
X210400Y34825D01*
X222935D01*
X191352Y53715D02*
X180203D01*
X177148Y50659D01*
Y34848D01*
X173071Y30772D01*
X192112Y23010D02*
Y37955D01*
X191352Y38715D01*
X195289Y107652D02*
Y135380D01*
X195065Y135604D01*
X215061Y64352D02*
Y64344D01*
X210337Y59620D01*
X197258D01*
X191352Y53715D01*
X221104Y98041D02*
Y81183D01*
X205711D01*
Y81234D01*
X204935D01*
X222935Y34825D02*
X223022D01*
X226506Y38309D01*
Y46380D01*
X236628Y56502D01*
X255919D01*
Y76502D01*
Y96502D02*
X244569D01*
X243030Y98041D01*
X230104D01*
X256313Y126970D02*
X266943D01*
X270093Y123821D01*
Y81108D01*
X265400Y76415D01*
X254419D01*
X255919Y78262D01*
Y76502D01*
D02*
D21*
X128754Y31049D02*
Y24140D01*
X129431Y23463D01*
X131596D01*
X138990Y31049D02*
X138837D01*
Y11959D01*
X141923Y8907D01*
X147561D01*
X147569Y8900D01*
X152612D01*
X138990Y40049D02*
X128754D01*
X145352Y37037D02*
X150191D01*
X152612Y39459D01*
Y8900D02*
Y8596D01*
X155132Y6077D01*
X190144D01*
X192112Y8045D01*
Y23010D01*
X152612Y30459D02*
Y18900D01*
X162612Y39459D02*
X152612D01*
X180722Y206470D02*
Y201360D01*
X182698Y199384D01*
X185841Y113163D02*
Y110974D01*
X168100Y93234D01*
Y72793D01*
X168085Y72778D01*
Y44931D01*
X162612Y39459D01*
X188250Y95167D02*
Y81478D01*
X188006Y81234D01*
X199226Y151577D02*
Y142691D01*
X200014Y141904D01*
X210081D01*
X210474Y141510D01*
X208919Y95167D02*
Y104974D01*
X205805Y108089D01*
X195726D01*
X195289Y107652D01*
X210250Y151577D02*
Y141734D01*
X210474Y141510D01*
X220093Y151577D02*
Y142128D01*
X219474Y141510D01*
X256313Y146970D02*
X238911D01*
X232297Y153585D01*
X219474D01*
Y141510D01*
D02*
D22*
X180722Y206470D03*
X185841Y113163D03*
Y146234D03*
X195289Y107652D03*
X199226Y151577D03*
D02*
D23*
X111289Y44549D03*
X131596Y23463D03*
X145352Y37037D03*
D02*
D24*
X19695Y19766D03*
X20108Y216604D03*
X256250Y19852D03*
X256313Y217888D03*
D02*
D25*
X133872Y122069D03*
Y155439D03*
X137022Y122069D03*
Y155439D03*
X140171Y122069D03*
Y155439D03*
X143321Y122069D03*
Y155439D03*
X146470Y122069D03*
Y155439D03*
X149620Y122069D03*
Y155439D03*
X152770Y122069D03*
Y155439D03*
X155919Y122069D03*
Y155439D03*
D02*
D26*
X128211Y127730D03*
Y130880D03*
Y134030D03*
Y137179D03*
Y140329D03*
Y143478D03*
Y146628D03*
Y149778D03*
X161581Y127730D03*
Y130880D03*
Y134030D03*
Y137179D03*
Y140329D03*
Y143478D03*
Y146628D03*
Y149778D03*
D02*
D27*
X29935Y85998D03*
X84856Y87219D03*
D02*
D28*
X19935Y85998D03*
Y95998D03*
Y105998D03*
Y115998D03*
Y125998D03*
Y135998D03*
Y145998D03*
Y155998D03*
X29935Y95998D03*
Y105998D03*
Y115998D03*
Y125998D03*
Y135998D03*
Y145998D03*
Y155998D03*
X74856Y87219D03*
Y97219D03*
Y107219D03*
Y117219D03*
Y127219D03*
Y137219D03*
Y147219D03*
Y157219D03*
X84856Y97219D03*
Y107219D03*
Y117219D03*
Y127219D03*
Y137219D03*
Y147219D03*
Y157219D03*
D02*
D29*
X255919Y56502D03*
Y76502D03*
Y96502D03*
X256313Y126970D03*
Y146970D03*
Y166970D03*
D02*
D72*
X169530Y173793D03*
X178530D03*
X183112Y23010D03*
X186065Y135604D03*
X186459Y126943D03*
X192112Y23010D03*
X195065Y135604D03*
X195459Y126943D03*
X199844Y208045D03*
X202994Y173793D03*
X208844Y208045D03*
X210474Y141510D03*
X211994Y173793D03*
X219474Y141510D03*
X221104Y98041D03*
X230104D03*
D02*
D73*
X162219Y184384D03*
Y189384D03*
Y194384D03*
Y199384D03*
X182698Y184384D03*
Y189384D03*
Y194384D03*
Y199384D03*
D02*
D74*
X204541Y187967D03*
X212809Y184226D03*
Y191707D03*
D02*
D75*
X128754Y31049D03*
Y40049D03*
X138990Y31049D03*
Y40049D03*
X152612Y30459D03*
Y39459D03*
X162612Y30459D03*
Y39459D03*
X210250Y151577D03*
Y160577D03*
X220093Y151577D03*
Y160577D03*
D02*
D76*
X119262Y55069D03*
X129262D03*
X139262D03*
X149262D03*
X159262D03*
D02*
D77*
X191352Y38715D03*
Y53715D03*
D02*
D78*
X188006Y81234D03*
X204935D03*
D02*
D79*
X215061Y64352D03*
X222935Y34825D03*
D02*
D80*
X152612Y8900D03*
Y18900D03*
D02*
D81*
X188250Y95167D03*
X208919D03*
X0Y0D02*
M02*
