G05
M48
;#@! TF.GenerationSoftware,DesignSpark,DesignSpark PCB,13.0.
;#@! TF.CreationDate,2026-07-17T04:52:41--5:-30*
;#@! TF.FileFunction,Plated,1,2,PTH
;FILE_FORMAT=3:5
;TYPE=PLATED
INCH,TZ
FMAT,2
T1C000.01575
T2C000.01600
T3C000.02400
T4C000.03000
T5C000.03200
T6C000.03500
T7C000.04016
T8C000.04134
T9C000.06693
T10C000.13780
%
T001
X0.52770Y1.17230
X0.58860Y1.71431
X0.95608Y1.57219
X0.99226Y1.84030
X1.03163Y1.51352
X1.03400Y0.78293
X1.09467Y0.87179
X1.14187Y0.98203
X1.15762Y0.74833
X1.16549Y1.51352
X1.27762Y1.57219
X1.34266Y1.71431
X1.38203Y1.41904
X1.39463Y1.05722
X1.39778Y0.94600
X1.46470Y0.95931
X1.47258Y1.77730
X1.52376Y1.89384
X1.52770Y0.97809
X1.55919Y1.78518
X1.57494Y1.05289
X1.59069Y0.92691
X1.74423Y1.61982
X1.75604Y1.40329
X1.94502Y1.73400
X1.98439Y1.89935
X1.98439Y1.99384
X2.00014Y1.63557
T002
X1.11289Y0.44549
X1.31596Y0.23463
X1.45352Y0.37037
T003
X1.80722Y2.06470
X1.85841Y1.13163
X1.85841Y1.46234
X1.95289Y1.07652
X1.99226Y1.51577
T004
X1.52612Y0.08900
X1.52612Y0.18900
T005
X1.91352Y0.38715
X1.91352Y0.53715
T006
X1.19262Y0.55069
X1.29262Y0.55069
X1.39262Y0.55069
X1.49262Y0.55069
X1.59262Y0.55069
T007
X0.19935Y0.85998
X0.19935Y0.95998
X0.19935Y1.05998
X0.19935Y1.15998
X0.19935Y1.25998
X0.19935Y1.35998
X0.19935Y1.45998
X0.19935Y1.55998
X0.29935Y0.85998
X0.29935Y0.95998
X0.29935Y1.05998
X0.29935Y1.15998
X0.29935Y1.25998
X0.29935Y1.35998
X0.29935Y1.45998
X0.29935Y1.55998
X0.74856Y0.87219
X0.74856Y0.97219
X0.74856Y1.07219
X0.74856Y1.17219
X0.74856Y1.27219
X0.74856Y1.37219
X0.74856Y1.47219
X0.74856Y1.57219
X0.84856Y0.87219
X0.84856Y0.97219
X0.84856Y1.07219
X0.84856Y1.17219
X0.84856Y1.27219
X0.84856Y1.37219
X0.84856Y1.47219
X0.84856Y1.57219
T008
X2.15061Y0.64352
X2.22935Y0.34825
T009
X2.55919Y0.56502
X2.55919Y0.76502
X2.55919Y0.96502
X2.56313Y1.26970
X2.56313Y1.46970
X2.56313Y1.66970
T010
X0.19695Y0.19766
X0.20108Y2.16604
X2.56250Y0.19852
X2.56313Y2.17888
M30
